<?xml version="1.0" encoding="utf-8" standalone="no"?>
<!DOCTYPE svg PUBLIC "-//W3C//DTD SVG 1.1//EN"
  "http://www.w3.org/Graphics/SVG/1.1/DTD/svg11.dtd">
<svg xmlns:xlink="http://www.w3.org/1999/xlink" width="482.35275pt" height="479.3337pt" viewBox="0 0 482.35275 479.3337" xmlns="http://www.w3.org/2000/svg" version="1.1">
 <metadata>
  <rdf:RDF xmlns:dc="http://purl.org/dc/elements/1.1/" xmlns:cc="http://creativecommons.org/ns#" xmlns:rdf="http://www.w3.org/1999/02/22-rdf-syntax-ns#">
   <cc:Work>
    <dc:type rdf:resource="http://purl.org/dc/dcmitype/StillImage"/>
    <dc:date>2022-01-14T17:05:42.806097</dc:date>
    <dc:format>image/svg+xml</dc:format>
    <dc:creator>
     <cc:Agent>
      <dc:title>Matplotlib v3.5.1, https://matplotlib.org/</dc:title>
     </cc:Agent>
    </dc:creator>
   </cc:Work>
  </rdf:RDF>
 </metadata>
 <defs>
  <style type="text/css">*{stroke-linejoin: round; stroke-linecap: butt}</style>
 </defs>
 <g id="figure_1">
  <g id="patch_1">
   <path d="M 0 479.3337 
L 482.35275 479.3337 
L 482.35275 -0 
L 0 -0 
L 0 479.3337 
z
" style="fill: none"/>
  </g>
  <g id="axes_1">
   <g id="patch_2">
    <path d="M 242.508052 28.333356 
C 191.553792 28.333356 142.312628 47.032154 104.091747 80.895448 
C 65.870866 114.758741 41.240261 161.509544 34.85542 212.311377 
C 28.47058 263.113211 40.760823 314.550132 69.403142 356.899928 
C 98.045462 399.249725 141.113933 429.664774 190.468084 442.396256 
L 242.508052 238.66735 
L 242.508052 28.333356 
z
" style="fill: #0000ff; stroke: #000000; stroke-linejoin: miter"/>
   </g>
   <g id="patch_3">
    <path d="M 190.468084 442.396256 
C 219.234797 449.816968 249.246494 451.00035 278.503358 445.86755 
C 307.760221 440.734749 335.597649 429.402363 360.160706 412.62552 
C 384.723764 395.848677 405.454474 374.008481 420.971454 348.560245 
C 436.488434 323.11201 446.4392 294.633818 450.160685 265.023304 
C 453.88217 235.412789 451.289838 205.342586 442.556428 176.816412 
C 433.823017 148.290237 419.146916 121.956092 399.506062 99.568744 
C 379.865208 77.181395 355.705763 59.249396 328.637583 46.967636 
C 301.569403 34.685876 272.20737 28.33335 242.508012 28.333356 
L 242.508052 238.66735 
L 190.468084 442.396256 
z
" style="fill: #ff0000; stroke: #000000; stroke-linejoin: miter"/>
   </g>
   <g id="matplotlib.axis_1"/>
   <g id="matplotlib.axis_2"/>
  </g>
 </g>
</svg>
