<?xml version="1.0" encoding="utf-8" standalone="no"?>
<!DOCTYPE svg PUBLIC "-//W3C//DTD SVG 1.1//EN"
  "http://www.w3.org/Graphics/SVG/1.1/DTD/svg11.dtd">
<svg xmlns:xlink="http://www.w3.org/1999/xlink" width="50.8932pt" height="50.65776pt" viewBox="0 0 50.8932 50.65776" xmlns="http://www.w3.org/2000/svg" version="1.1">
 <metadata>
  <rdf:RDF xmlns:dc="http://purl.org/dc/elements/1.1/" xmlns:cc="http://creativecommons.org/ns#" xmlns:rdf="http://www.w3.org/1999/02/22-rdf-syntax-ns#">
   <cc:Work>
    <dc:type rdf:resource="http://purl.org/dc/dcmitype/StillImage"/>
    <dc:date>2021-12-14T09:20:47.619492</dc:date>
    <dc:format>image/svg+xml</dc:format>
    <dc:creator>
     <cc:Agent>
      <dc:title>Matplotlib v3.5.0, https://matplotlib.org/</dc:title>
     </cc:Agent>
    </dc:creator>
   </cc:Work>
  </rdf:RDF>
 </metadata>
 <defs>
  <style type="text/css">*{stroke-linejoin: round; stroke-linecap: butt}</style>
 </defs>
 <g id="figure_1">
  <g id="patch_1">
   <path d="M 0 50.65776 
L 50.8932 50.65776 
L 50.8932 0 
L 0 0 
L 0 50.65776 
z
" style="fill: none"/>
  </g>
  <g id="axes_1">
   <g id="patch_2">
    <path d="M 25.518374 8.84808 
C 21.39036 8.84808 17.41096 10.408796 14.382023 13.215744 
C 11.353086 16.022691 9.492704 19.873763 9.175743 23.992968 
C 8.858782 28.112173 10.108064 32.202917 12.67186 35.440916 
C 15.235656 38.678915 18.929364 40.831024 23.008704 41.463594 
L 25.518374 25.252551 
L 25.518374 8.84808 
z
" style="fill: #0000ff"/>
   </g>
   <g id="patch_3">
    <path d="M 23.008704 41.463594 
C 25.240561 41.80968 27.51999 41.690397 29.703613 41.113248 
C 31.887236 40.536098 33.928288 39.513443 35.698385 38.109608 
C 37.468481 36.705772 38.929714 34.950822 39.990169 32.955144 
C 41.050624 30.959467 41.687592 28.765802 41.861005 26.512135 
C 42.034418 24.258467 41.740564 21.993061 40.997925 19.858413 
C 40.255286 17.723764 39.079768 15.76559 37.545312 14.107062 
C 36.010855 12.448533 34.150323 11.125169 32.080744 10.22021 
C 30.011164 9.315252 27.776861 8.84808 25.518374 8.84808 
L 25.518374 25.252551 
L 23.008704 41.463594 
z
" style="fill: #ff0000"/>
   </g>
   <g id="matplotlib.axis_1"/>
   <g id="matplotlib.axis_2"/>
  </g>
 </g>
</svg>
