<?xml version="1.0" encoding="utf-8" standalone="no"?>
<!DOCTYPE svg PUBLIC "-//W3C//DTD SVG 1.1//EN"
  "http://www.w3.org/Graphics/SVG/1.1/DTD/svg11.dtd">
<svg xmlns:xlink="http://www.w3.org/1999/xlink" width="371.52pt" height="280.512pt" viewBox="0 0 371.52 280.512" xmlns="http://www.w3.org/2000/svg" version="1.1">
 <metadata>
  <rdf:RDF xmlns:dc="http://purl.org/dc/elements/1.1/" xmlns:cc="http://creativecommons.org/ns#" xmlns:rdf="http://www.w3.org/1999/02/22-rdf-syntax-ns#">
   <cc:Work>
    <dc:type rdf:resource="http://purl.org/dc/dcmitype/StillImage"/>
    <dc:date>2021-12-10T18:14:44.262764</dc:date>
    <dc:format>image/svg+xml</dc:format>
    <dc:creator>
     <cc:Agent>
      <dc:title>Matplotlib v3.5.0, https://matplotlib.org/</dc:title>
     </cc:Agent>
    </dc:creator>
   </cc:Work>
  </rdf:RDF>
 </metadata>
 <defs>
  <style type="text/css">*{stroke-linejoin: round; stroke-linecap: butt}</style>
 </defs>
 <g id="figure_1">
  <g id="patch_1">
   <path d="M 0 280.512 
L 371.52 280.512 
L 371.52 0 
L 0 0 
L 0 280.512 
z
" style="fill: none"/>
  </g>
  <g id="axes_1">
   <g id="patch_2">
    <path d="M 186.764884 19.296007 
C 159.101541 19.296007 132.261135 28.803033 110.765378 46.21547 
C 89.26962 63.627908 74.397435 87.909775 68.654289 114.970388 
C 62.911143 142.031002 66.638733 170.260349 79.209085 194.902727 
C 91.779437 219.545106 112.444658 239.134378 137.723349 250.370407 
L 186.764884 140.037315 
L 186.764884 19.296007 
z
" style="fill: #0000ff"/>
   </g>
   <g id="patch_3">
    <path d="M 137.723349 250.370407 
C 154.155955 257.674473 172.014643 261.216 189.990991 260.735516 
C 207.967338 260.255031 225.611341 255.764564 241.630307 247.593109 
C 257.649273 239.421654 271.642196 227.773768 282.583882 213.502838 
C 293.525568 199.231908 301.142111 182.695179 304.875484 165.104219 
C 308.608857 147.513259 308.365601 129.308425 304.163539 111.8235 
C 299.961477 94.338575 291.905799 78.01126 280.586707 64.037782 
C 269.267615 50.064303 254.968462 38.794461 238.736878 31.053943 
C 222.505294 23.313425 204.747607 19.296 186.764839 19.296007 
L 186.764884 140.037315 
L 137.723349 250.370407 
z
" style="fill: #ff0000"/>
   </g>
   <g id="matplotlib.axis_1"/>
   <g id="matplotlib.axis_2"/>
  </g>
 </g>
</svg>
