<?xml version="1.0" encoding="utf-8" standalone="no"?>
<!DOCTYPE svg PUBLIC "-//W3C//DTD SVG 1.1//EN"
  "http://www.w3.org/Graphics/SVG/1.1/DTD/svg11.dtd">
<svg xmlns:xlink="http://www.w3.org/1999/xlink" width="50.1957pt" height="49.96476pt" viewBox="0 0 50.1957 49.96476" xmlns="http://www.w3.org/2000/svg" version="1.1">
 <metadata>
  <rdf:RDF xmlns:dc="http://purl.org/dc/elements/1.1/" xmlns:cc="http://creativecommons.org/ns#" xmlns:rdf="http://www.w3.org/1999/02/22-rdf-syntax-ns#">
   <cc:Work>
    <dc:type rdf:resource="http://purl.org/dc/dcmitype/StillImage"/>
    <dc:date>2021-12-14T09:20:48.500288</dc:date>
    <dc:format>image/svg+xml</dc:format>
    <dc:creator>
     <cc:Agent>
      <dc:title>Matplotlib v3.5.0, https://matplotlib.org/</dc:title>
     </cc:Agent>
    </dc:creator>
   </cc:Work>
  </rdf:RDF>
 </metadata>
 <defs>
  <style type="text/css">*{stroke-linejoin: round; stroke-linecap: butt}</style>
 </defs>
 <g id="figure_1">
  <g id="patch_1">
   <path d="M 0 49.96476 
L 50.1957 49.96476 
L 50.1957 0 
L 0 0 
L 0 49.96476 
z
" style="fill: none"/>
  </g>
  <g id="axes_1">
   <g id="patch_2">
    <path d="M 25.157023 8.81658 
C 21.060822 8.81658 17.115044 10.377899 14.129592 13.180063 
C 11.14414 15.982228 9.338279 19.819433 9.082678 23.904061 
C 8.827077 27.988689 10.140509 32.020746 12.753379 35.172617 
C 15.36625 38.324489 19.086659 40.364687 23.150961 40.874445 
L 25.157023 24.908168 
L 25.157023 8.81658 
z
" style="fill: #0000ff"/>
   </g>
   <g id="patch_3">
    <path d="M 23.150961 40.874445 
C 25.333455 41.14818 27.549118 40.97232 29.660982 40.357737 
C 31.772845 39.743153 33.736478 38.702776 35.430493 37.30092 
C 37.124508 35.899063 38.513265 34.16522 39.510913 32.206574 
C 40.508561 30.247927 41.094112 28.105685 41.231367 25.912275 
C 41.368623 23.718865 41.054695 21.520436 40.308991 19.452888 
C 39.563287 17.385341 38.401495 15.492174 36.895435 13.89042 
C 35.389375 12.288666 33.570732 11.012024 31.551932 10.139413 
C 29.533131 9.266801 27.356647 8.81658 25.157023 8.81658 
L 25.157023 24.908168 
L 23.150961 40.874445 
z
" style="fill: #ff0000"/>
   </g>
   <g id="matplotlib.axis_1"/>
   <g id="matplotlib.axis_2"/>
  </g>
 </g>
</svg>
