<?xml version="1.0" encoding="utf-8" standalone="no"?>
<!DOCTYPE svg PUBLIC "-//W3C//DTD SVG 1.1//EN"
  "http://www.w3.org/Graphics/SVG/1.1/DTD/svg11.dtd">
<svg xmlns:xlink="http://www.w3.org/1999/xlink" width="56.808pt" height="56.5344pt" viewBox="0 0 56.808 56.5344" xmlns="http://www.w3.org/2000/svg" version="1.1">
 <metadata>
  <rdf:RDF xmlns:dc="http://purl.org/dc/elements/1.1/" xmlns:cc="http://creativecommons.org/ns#" xmlns:rdf="http://www.w3.org/1999/02/22-rdf-syntax-ns#">
   <cc:Work>
    <dc:type rdf:resource="http://purl.org/dc/dcmitype/StillImage"/>
    <dc:date>2022-01-14T17:05:46.031964</dc:date>
    <dc:format>image/svg+xml</dc:format>
    <dc:creator>
     <cc:Agent>
      <dc:title>Matplotlib v3.5.1, https://matplotlib.org/</dc:title>
     </cc:Agent>
    </dc:creator>
   </cc:Work>
  </rdf:RDF>
 </metadata>
 <defs>
  <style type="text/css">*{stroke-linejoin: round; stroke-linecap: butt}</style>
 </defs>
 <g id="figure_1">
  <g id="patch_1">
   <path d="M 0 56.5344 
L 56.808 56.5344 
L 56.808 -0 
L 0 -0 
L 0 56.5344 
z
" style="fill: none"/>
  </g>
  <g id="axes_1">
   <g id="patch_2">
    <path d="M 28.502712 9.1152 
C 23.774264 9.1152 19.211794 10.884836 15.713172 14.075851 
C 12.21455 17.266865 10.025392 21.655239 9.576514 26.377362 
C 9.127636 31.099485 10.450551 35.823846 13.284915 39.620716 
C 16.11928 43.417585 20.266111 46.020409 24.909333 46.916964 
L 28.502712 28.187965 
L 28.502712 9.1152 
z
" style="fill: #0000ff; stroke: #000000; stroke-linejoin: miter"/>
   </g>
   <g id="patch_3">
    <path d="M 24.909333 46.916964 
C 27.510394 47.4192 30.187603 47.370623 32.768859 46.774356 
C 35.350115 46.178089 37.778897 45.047188 39.899075 43.454351 
C 42.019252 41.861515 43.784401 39.84162 45.081049 37.524514 
C 46.377698 35.207407 47.177455 32.643827 47.428909 29.998566 
C 47.680364 27.353306 47.378009 24.68429 46.541282 22.163092 
C 45.704554 19.641893 44.351776 17.323718 42.569908 15.357586 
C 40.78804 13.391455 38.6161 11.820419 36.193707 10.745471 
C 33.771314 9.670523 31.151511 9.1152 28.502708 9.1152 
L 28.502712 28.187965 
L 24.909333 46.916964 
z
" style="fill: #ff0000; stroke: #000000; stroke-linejoin: miter"/>
   </g>
   <g id="matplotlib.axis_1"/>
   <g id="matplotlib.axis_2"/>
  </g>
 </g>
</svg>
