<?xml version="1.0" encoding="utf-8" standalone="no"?>
<!DOCTYPE svg PUBLIC "-//W3C//DTD SVG 1.1//EN"
  "http://www.w3.org/Graphics/SVG/1.1/DTD/svg11.dtd">
<svg xmlns:xlink="http://www.w3.org/1999/xlink" width="371.52pt" height="280.512pt" viewBox="0 0 371.52 280.512" xmlns="http://www.w3.org/2000/svg" version="1.1">
 <metadata>
  <rdf:RDF xmlns:dc="http://purl.org/dc/elements/1.1/" xmlns:cc="http://creativecommons.org/ns#" xmlns:rdf="http://www.w3.org/1999/02/22-rdf-syntax-ns#">
   <cc:Work>
    <dc:type rdf:resource="http://purl.org/dc/dcmitype/StillImage"/>
    <dc:date>2021-12-03T16:09:59.284983</dc:date>
    <dc:format>image/svg+xml</dc:format>
    <dc:creator>
     <cc:Agent>
      <dc:title>Matplotlib v3.5.0, https://matplotlib.org/</dc:title>
     </cc:Agent>
    </dc:creator>
   </cc:Work>
  </rdf:RDF>
 </metadata>
 <defs>
  <style type="text/css">*{stroke-linejoin: round; stroke-linecap: butt}</style>
 </defs>
 <g id="figure_1">
  <g id="patch_1">
   <path d="M 0 280.512 
L 371.52 280.512 
L 371.52 0 
L 0 0 
L 0 280.512 
z
" style="fill: none"/>
  </g>
  <g id="axes_1">
   <g id="patch_2">
    <path d="M 186.385433 19.296003 
C 156.426199 19.296003 127.518588 30.472646 105.351474 50.626424 
C 83.18436 70.780203 69.313954 98.496248 66.469884 128.320181 
C 63.625814 158.144114 72.007743 187.982188 89.966149 211.962416 
C 107.924555 235.942645 134.198694 252.38153 163.617946 258.043982 
L 186.385433 139.755569 
L 186.385433 19.296003 
z
" style="fill: #0000ff"/>
   </g>
   <g id="patch_3">
    <path d="M 163.617946 258.043982 
C 180.098155 261.216 197.060829 260.909199 213.415554 257.143302 
C 229.770278 253.377404 245.158932 246.234872 258.592285 236.17485 
C 272.025637 226.114829 283.209536 213.357601 291.425046 198.723245 
C 299.640556 184.088889 304.707781 167.897852 306.300984 151.190946 
C 307.894186 134.484041 305.97848 117.627098 300.677013 101.703737 
C 295.375545 85.780375 286.804403 71.13927 275.514567 58.721597 
C 264.224731 46.303925 250.463414 36.381596 235.115239 29.592449 
C 219.767064 22.803302 203.16811 19.296 186.385411 19.296003 
L 186.385433 139.755569 
L 163.617946 258.043982 
z
" style="fill: #bf00bf"/>
   </g>
   <g id="matplotlib.axis_1"/>
   <g id="matplotlib.axis_2"/>
  </g>
 </g>
</svg>
