<?xml version="1.0" encoding="utf-8" standalone="no"?>
<!DOCTYPE svg PUBLIC "-//W3C//DTD SVG 1.1//EN"
  "http://www.w3.org/Graphics/SVG/1.1/DTD/svg11.dtd">
<svg xmlns:xlink="http://www.w3.org/1999/xlink" width="144.693pt" height="143.8524pt" viewBox="0 0 144.693 143.8524" xmlns="http://www.w3.org/2000/svg" version="1.1">
 <metadata>
  <rdf:RDF xmlns:dc="http://purl.org/dc/elements/1.1/" xmlns:cc="http://creativecommons.org/ns#" xmlns:rdf="http://www.w3.org/1999/02/22-rdf-syntax-ns#">
   <cc:Work>
    <dc:type rdf:resource="http://purl.org/dc/dcmitype/StillImage"/>
    <dc:date>2022-01-14T17:05:46.957538</dc:date>
    <dc:format>image/svg+xml</dc:format>
    <dc:creator>
     <cc:Agent>
      <dc:title>Matplotlib v3.5.1, https://matplotlib.org/</dc:title>
     </cc:Agent>
    </dc:creator>
   </cc:Work>
  </rdf:RDF>
 </metadata>
 <defs>
  <style type="text/css">*{stroke-linejoin: round; stroke-linecap: butt}</style>
 </defs>
 <g id="figure_1">
  <g id="patch_1">
   <path d="M 0 143.8524 
L 144.693 143.8524 
L 144.693 0 
L 0 0 
L 0 143.8524 
z
" style="fill: none"/>
  </g>
  <g id="axes_1">
   <g id="patch_2">
    <path d="M 72.31121 12.73984 
C 64.502427 12.73984 56.770462 14.28695 49.56289 17.291614 
C 42.355319 20.296278 35.813948 24.699378 30.317434 30.246038 
C 24.82092 35.792697 20.477406 42.373784 17.538322 49.608346 
C 14.599238 56.842907 13.122409 64.588602 13.193324 72.397064 
C 13.26424 80.205525 14.881504 87.92312 17.951499 95.103108 
C 21.021494 102.283096 25.483819 108.78421 31.080166 114.230125 
C 36.676513 119.676041 43.296774 123.959609 50.557729 126.832872 
C 57.818683 129.706135 65.577471 131.11256 73.384966 130.970735 
L 72.31121 71.860163 
L 72.31121 12.73984 
z
" style="fill: #0000ff; stroke: #000000; stroke-linejoin: miter"/>
   </g>
   <g id="patch_3">
    <path d="M 73.384966 130.970735 
C 88.963237 130.687752 103.814951 124.257583 114.68117 113.091209 
C 125.547388 101.924836 131.570591 86.903467 131.429095 71.323269 
C 131.2876 55.74307 124.992572 40.833573 113.925341 29.866394 
C 102.858111 18.899215 87.892062 12.739843 72.311221 12.73984 
L 72.31121 71.860163 
L 73.384966 130.970735 
z
" style="fill: #ff0000; stroke: #000000; stroke-linejoin: miter"/>
   </g>
   <g id="matplotlib.axis_1"/>
   <g id="matplotlib.axis_2"/>
  </g>
 </g>
</svg>
