<?xml version="1.0" encoding="utf-8" standalone="no"?>
<!DOCTYPE svg PUBLIC "-//W3C//DTD SVG 1.1//EN"
  "http://www.w3.org/Graphics/SVG/1.1/DTD/svg11.dtd">
<svg xmlns:xlink="http://www.w3.org/1999/xlink" width="371.52pt" height="280.512pt" viewBox="0 0 371.52 280.512" xmlns="http://www.w3.org/2000/svg" version="1.1">
 <metadata>
  <rdf:RDF xmlns:dc="http://purl.org/dc/elements/1.1/" xmlns:cc="http://creativecommons.org/ns#" xmlns:rdf="http://www.w3.org/1999/02/22-rdf-syntax-ns#">
   <cc:Work>
    <dc:type rdf:resource="http://purl.org/dc/dcmitype/StillImage"/>
    <dc:date>2021-12-03T16:10:00.204940</dc:date>
    <dc:format>image/svg+xml</dc:format>
    <dc:creator>
     <cc:Agent>
      <dc:title>Matplotlib v3.5.0, https://matplotlib.org/</dc:title>
     </cc:Agent>
    </dc:creator>
   </cc:Work>
  </rdf:RDF>
 </metadata>
 <defs>
  <style type="text/css">*{stroke-linejoin: round; stroke-linecap: butt}</style>
 </defs>
 <g id="figure_1">
  <g id="patch_1">
   <path d="M 0 280.512 
L 371.52 280.512 
L 371.52 0 
L 0 0 
L 0 280.512 
z
" style="fill: none"/>
  </g>
  <g id="axes_1">
   <g id="patch_2">
    <path d="M 185.687877 19.296 
C 169.728956 19.296 153.927032 22.457851 139.196815 28.598524 
C 124.466599 34.739198 111.097908 43.737878 99.864605 55.073663 
C 88.631301 66.409449 79.754401 79.85931 73.747752 94.644686 
C 67.741104 109.430061 64.722889 125.260048 64.867819 141.218311 
C 65.01275 157.176573 68.317975 172.949132 74.592168 187.622974 
C 80.866361 202.296817 89.986076 215.583235 101.42341 226.71313 
C 112.860744 237.843024 126.390665 246.597414 141.22998 252.469541 
C 156.069295 258.341669 171.926039 261.216 187.882328 260.926151 
L 185.687877 140.12104 
L 185.687877 19.296 
z
" style="fill: #0000ff"/>
   </g>
   <g id="patch_3">
    <path d="M 187.882328 260.926151 
C 219.71986 260.347815 250.072518 247.206386 272.279962 224.385511 
C 294.487407 201.564636 306.797111 170.865252 306.507935 139.023781 
C 306.218758 107.182309 293.353521 76.711558 270.735266 54.29778 
C 248.117011 31.884002 217.530684 19.296006 185.6879 19.296 
L 185.687877 140.12104 
L 187.882328 260.926151 
z
" style="fill: #bf00bf"/>
   </g>
   <g id="matplotlib.axis_1"/>
   <g id="matplotlib.axis_2"/>
  </g>
 </g>
</svg>
