<?xml version="1.0" encoding="utf-8" standalone="no"?>
<!DOCTYPE svg PUBLIC "-//W3C//DTD SVG 1.1//EN"
  "http://www.w3.org/Graphics/SVG/1.1/DTD/svg11.dtd">
<svg xmlns:xlink="http://www.w3.org/1999/xlink" width="30.03795pt" height="29.93706pt" viewBox="0 0 30.03795 29.93706" xmlns="http://www.w3.org/2000/svg" version="1.1">
 <metadata>
  <rdf:RDF xmlns:dc="http://purl.org/dc/elements/1.1/" xmlns:cc="http://creativecommons.org/ns#" xmlns:rdf="http://www.w3.org/1999/02/22-rdf-syntax-ns#">
   <cc:Work>
    <dc:type rdf:resource="http://purl.org/dc/dcmitype/StillImage"/>
    <dc:date>2021-12-14T09:20:51.196335</dc:date>
    <dc:format>image/svg+xml</dc:format>
    <dc:creator>
     <cc:Agent>
      <dc:title>Matplotlib v3.5.0, https://matplotlib.org/</dc:title>
     </cc:Agent>
    </dc:creator>
   </cc:Work>
  </rdf:RDF>
 </metadata>
 <defs>
  <style type="text/css">*{stroke-linejoin: round; stroke-linecap: butt}</style>
 </defs>
 <g id="figure_1">
  <g id="patch_1">
   <path d="M 0 29.93706 
L 30.03795 29.93706 
L 30.03795 0 
L 0 0 
L 0 29.93706 
z
" style="fill: none"/>
  </g>
  <g id="axes_1">
   <g id="patch_2">
    <path d="M 15.013138 7.866773 
C 14.074426 7.866773 13.14499 8.053173 12.27887 8.415135 
C 11.41275 8.777097 10.627064 9.307467 9.967493 9.975409 
C 9.307922 10.643351 8.787502 11.435663 8.436491 12.306279 
C 8.08548 13.176895 7.910816 14.108607 7.922654 15.047245 
C 7.934492 15.985882 8.132598 16.912893 8.505453 17.77438 
C 8.878309 18.635866 9.418546 19.414802 10.094752 20.065897 
C 10.770959 20.716992 11.569771 21.227379 12.444744 21.567383 
C 13.319717 21.907386 14.253558 22.070287 15.191971 22.046613 
L 15.013138 14.957821 
L 15.013138 7.866773 
z
" style="fill: #0000ff"/>
   </g>
   <g id="patch_3">
    <path d="M 15.191971 22.046613 
C 17.055859 21.999592 18.828 21.219296 20.121214 19.876207 
C 21.414427 18.533117 22.127134 16.73273 22.103622 14.868397 
C 22.080109 13.004065 21.322224 11.222224 19.99555 9.912176 
C 18.668876 8.602128 16.87762 7.866773 15.013139 7.866773 
L 15.013138 14.957821 
L 15.191971 22.046613 
z
" style="fill: #ff0000"/>
   </g>
   <g id="matplotlib.axis_1"/>
   <g id="matplotlib.axis_2"/>
  </g>
 </g>
</svg>
