<?xml version="1.0" encoding="utf-8" standalone="no"?>
<!DOCTYPE svg PUBLIC "-//W3C//DTD SVG 1.1//EN"
  "http://www.w3.org/Graphics/SVG/1.1/DTD/svg11.dtd">
<svg xmlns:xlink="http://www.w3.org/1999/xlink" width="87.14925pt" height="86.6799pt" viewBox="0 0 87.14925 86.6799" xmlns="http://www.w3.org/2000/svg" version="1.1">
 <metadata>
  <rdf:RDF xmlns:dc="http://purl.org/dc/elements/1.1/" xmlns:cc="http://creativecommons.org/ns#" xmlns:rdf="http://www.w3.org/1999/02/22-rdf-syntax-ns#">
   <cc:Work>
    <dc:type rdf:resource="http://purl.org/dc/dcmitype/StillImage"/>
    <dc:date>2022-01-14T17:05:48.856571</dc:date>
    <dc:format>image/svg+xml</dc:format>
    <dc:creator>
     <cc:Agent>
      <dc:title>Matplotlib v3.5.1, https://matplotlib.org/</dc:title>
     </cc:Agent>
    </dc:creator>
   </cc:Work>
  </rdf:RDF>
 </metadata>
 <defs>
  <style type="text/css">*{stroke-linejoin: round; stroke-linecap: butt}</style>
 </defs>
 <g id="figure_1">
  <g id="patch_1">
   <path d="M 0 86.6799 
L 87.14925 86.6799 
L 87.14925 0 
L 0 0 
L 0 86.6799 
z
" style="fill: none"/>
  </g>
  <g id="axes_1">
   <g id="patch_2">
    <path d="M 43.745334 10.485451 
C 35.6403 10.485451 27.819366 13.517081 21.819623 18.984518 
C 15.819879 24.451955 12.061935 31.971907 11.284359 40.066438 
C 10.506784 48.160968 12.764089 56.262613 17.612634 62.779113 
C 22.461179 69.295613 29.561059 73.770131 37.516895 75.323266 
L 43.745334 43.205513 
L 43.745334 10.485451 
z
" style="fill: #0000ff; stroke: #000000; stroke-linejoin: miter"/>
   </g>
   <g id="patch_3">
    <path d="M 37.516895 75.323266 
C 41.979478 76.19445 46.574711 76.119799 51.006844 75.104118 
C 55.438977 74.088437 59.61084 72.153993 63.253931 69.425289 
C 66.897023 66.696584 69.931471 63.233442 72.161979 59.258752 
C 74.392487 55.284062 75.770153 50.884964 76.206309 46.344586 
C 76.642466 41.804207 76.127551 37.222091 74.694705 32.893144 
C 73.261859 28.564197 70.942495 24.583325 67.885888 21.20674 
C 64.829282 17.830155 61.102445 15.131884 56.945239 13.285588 
C 52.788032 11.439292 48.291598 10.48545 43.745328 10.485451 
L 43.745334 43.205513 
L 37.516895 75.323266 
z
" style="fill: #ff0000; stroke: #000000; stroke-linejoin: miter"/>
   </g>
   <g id="matplotlib.axis_1"/>
   <g id="matplotlib.axis_2"/>
  </g>
 </g>
</svg>
