<?xml version="1.0" encoding="utf-8" standalone="no"?>
<!DOCTYPE svg PUBLIC "-//W3C//DTD SVG 1.1//EN"
  "http://www.w3.org/Graphics/SVG/1.1/DTD/svg11.dtd">
<svg xmlns:xlink="http://www.w3.org/1999/xlink" width="103.4289pt" height="102.85452pt" viewBox="0 0 103.4289 102.85452" xmlns="http://www.w3.org/2000/svg" version="1.1">
 <metadata>
  <rdf:RDF xmlns:dc="http://purl.org/dc/elements/1.1/" xmlns:cc="http://creativecommons.org/ns#" xmlns:rdf="http://www.w3.org/1999/02/22-rdf-syntax-ns#">
   <cc:Work>
    <dc:type rdf:resource="http://purl.org/dc/dcmitype/StillImage"/>
    <dc:date>2022-01-14T17:05:49.803158</dc:date>
    <dc:format>image/svg+xml</dc:format>
    <dc:creator>
     <cc:Agent>
      <dc:title>Matplotlib v3.5.1, https://matplotlib.org/</dc:title>
     </cc:Agent>
    </dc:creator>
   </cc:Work>
  </rdf:RDF>
 </metadata>
 <defs>
  <style type="text/css">*{stroke-linejoin: round; stroke-linecap: butt}</style>
 </defs>
 <g id="figure_1">
  <g id="patch_1">
   <path d="M 0 102.85452 
L 103.4289 102.85452 
L 103.4289 0 
L 0 0 
L 0 102.85452 
z
" style="fill: none"/>
  </g>
  <g id="axes_1">
   <g id="patch_2">
    <path d="M 52.010255 11.22066 
C 43.04897 11.22066 34.340966 14.223116 27.283966 19.746102 
C 20.226966 25.269089 15.219888 33.000405 13.066417 41.699094 
C 10.912947 50.397783 11.734816 59.572128 15.400105 67.749553 
C 19.065395 75.926978 25.366914 82.645231 33.293206 86.825964 
L 52.010255 51.340133 
L 52.010255 11.22066 
z
" style="fill: #0000ff; stroke: #000000; stroke-linejoin: miter"/>
   </g>
   <g id="patch_3">
    <path d="M 33.293206 86.825964 
C 38.6788 89.666602 44.641065 91.24428 50.726779 91.43907 
C 56.812492 91.63386 62.863445 90.440698 68.419674 87.950282 
C 73.975904 85.459866 78.892964 81.73694 82.797086 77.0645 
C 86.701208 72.392061 89.490896 66.891579 90.954092 60.981172 
C 92.417288 55.070765 92.515953 48.904086 91.242588 42.949894 
C 89.969223 36.995703 87.356931 31.40879 83.604285 26.613844 
C 79.851639 21.818899 75.056197 17.940574 69.582483 15.273682 
C 64.10877 12.606789 58.099085 11.22066 52.010255 11.22066 
L 52.010255 51.340133 
L 33.293206 86.825964 
z
" style="fill: #ff0000; stroke: #000000; stroke-linejoin: miter"/>
   </g>
   <g id="matplotlib.axis_1"/>
   <g id="matplotlib.axis_2"/>
  </g>
 </g>
</svg>
