<?xml version="1.0" encoding="utf-8" standalone="no"?>
<!DOCTYPE svg PUBLIC "-//W3C//DTD SVG 1.1//EN"
  "http://www.w3.org/Graphics/SVG/1.1/DTD/svg11.dtd">
<svg xmlns:xlink="http://www.w3.org/1999/xlink" width="252.34515pt" height="250.81002pt" viewBox="0 0 252.34515 250.81002" xmlns="http://www.w3.org/2000/svg" version="1.1">
 <metadata>
  <rdf:RDF xmlns:dc="http://purl.org/dc/elements/1.1/" xmlns:cc="http://creativecommons.org/ns#" xmlns:rdf="http://www.w3.org/1999/02/22-rdf-syntax-ns#">
   <cc:Work>
    <dc:type rdf:resource="http://purl.org/dc/dcmitype/StillImage"/>
    <dc:date>2021-12-14T09:20:53.930872</dc:date>
    <dc:format>image/svg+xml</dc:format>
    <dc:creator>
     <cc:Agent>
      <dc:title>Matplotlib v3.5.0, https://matplotlib.org/</dc:title>
     </cc:Agent>
    </dc:creator>
   </cc:Work>
  </rdf:RDF>
 </metadata>
 <defs>
  <style type="text/css">*{stroke-linejoin: round; stroke-linecap: butt}</style>
 </defs>
 <g id="figure_1">
  <g id="patch_1">
   <path d="M 0 250.81002 
L 252.34515 250.81002 
L 252.34515 -0 
L 0 -0 
L 0 250.81002 
z
" style="fill: none"/>
  </g>
  <g id="axes_1">
   <g id="patch_2">
    <path d="M 126.114299 17.31003 
C 111.859321 17.31003 97.744417 20.132695 84.58574 25.614813 
C 71.427062 31.096931 59.483215 39.130763 49.444815 49.251778 
C 39.406415 59.372793 31.470744 71.382084 26.096659 84.585251 
C 20.722573 97.788418 18.015689 111.925982 18.132522 126.180482 
C 18.249356 140.434982 21.187612 154.526277 26.777394 167.639581 
C 32.367177 180.752885 40.498631 192.630486 50.70158 202.585597 
C 60.90453 212.540708 72.978458 220.377684 86.225228 225.643376 
C 99.471997 230.909068 113.631272 233.49999 127.884335 233.26633 
L 126.114299 125.295434 
L 126.114299 17.31003 
z
" style="fill: #0000ff"/>
   </g>
   <g id="patch_3">
    <path d="M 127.884335 233.26633 
C 156.356009 232.799576 183.518304 221.089389 203.404462 200.708153 
C 223.290621 180.326917 234.329461 152.884929 234.096076 124.410386 
C 233.862691 95.935843 222.37552 68.678485 202.157955 48.62595 
C 181.940391 28.573414 154.589799 17.31003 126.114299 17.31003 
L 126.114299 125.295434 
L 127.884335 233.26633 
z
" style="fill: #ff0000"/>
   </g>
   <g id="matplotlib.axis_1"/>
   <g id="matplotlib.axis_2"/>
  </g>
 </g>
</svg>
