<?xml version="1.0" encoding="utf-8" standalone="no"?>
<!DOCTYPE svg PUBLIC "-//W3C//DTD SVG 1.1//EN"
  "http://www.w3.org/Graphics/SVG/1.1/DTD/svg11.dtd">
<svg xmlns:xlink="http://www.w3.org/1999/xlink" width="19.93815pt" height="19.90242pt" viewBox="0 0 19.93815 19.90242" xmlns="http://www.w3.org/2000/svg" version="1.1">
 <metadata>
  <rdf:RDF xmlns:dc="http://purl.org/dc/elements/1.1/" xmlns:cc="http://creativecommons.org/ns#" xmlns:rdf="http://www.w3.org/1999/02/22-rdf-syntax-ns#">
   <cc:Work>
    <dc:type rdf:resource="http://purl.org/dc/dcmitype/StillImage"/>
    <dc:date>2021-12-14T09:21:02.176589</dc:date>
    <dc:format>image/svg+xml</dc:format>
    <dc:creator>
     <cc:Agent>
      <dc:title>Matplotlib v3.5.0, https://matplotlib.org/</dc:title>
     </cc:Agent>
    </dc:creator>
   </cc:Work>
  </rdf:RDF>
 </metadata>
 <defs>
  <style type="text/css">*{stroke-linejoin: round; stroke-linecap: butt}</style>
 </defs>
 <g id="figure_1">
  <g id="patch_1">
   <path d="M -0 19.90242 
L 19.93815 19.90242 
L 19.93815 0 
L -0 0 
L -0 19.90242 
z
" style="fill: none"/>
  </g>
  <g id="axes_1">
   <g id="patch_2">
    <path d="M 9.96031 7.45011 
C 9.620506 7.45011 9.284263 7.519505 8.972288 7.654022 
C 8.660314 7.788538 8.379147 7.985357 8.146104 8.232356 
C 7.913061 8.479356 7.733026 8.771359 7.617087 9.090382 
C 7.501147 9.409406 7.451734 9.748763 7.47189 10.087555 
C 7.492045 10.426347 7.581347 10.757472 7.734296 11.060538 
C 7.887245 11.363603 8.100635 11.632258 8.361324 11.849956 
C 8.622013 12.067653 8.924537 12.229832 9.250265 12.326502 
C 9.575994 12.423173 9.918099 12.45231 10.255513 12.412119 
L 9.96031 9.939874 
L 9.96031 7.45011 
z
" style="fill: #0000ff"/>
   </g>
   <g id="patch_3">
    <path d="M 10.255513 12.412119 
C 10.886372 12.336974 11.465203 12.02372 11.872728 11.536907 
C 12.280254 11.050095 12.486416 10.425629 12.448731 9.792193 
C 12.411047 9.158757 12.132295 8.56307 11.669917 8.127884 
C 11.20754 7.692698 10.59564 7.45011 9.96031 7.45011 
L 9.96031 9.939874 
L 10.255513 12.412119 
z
" style="fill: #ff0000"/>
   </g>
   <g id="matplotlib.axis_1"/>
   <g id="matplotlib.axis_2"/>
  </g>
 </g>
</svg>
