<?xml version="1.0" encoding="utf-8" standalone="no"?>
<!DOCTYPE svg PUBLIC "-//W3C//DTD SVG 1.1//EN"
  "http://www.w3.org/Graphics/SVG/1.1/DTD/svg11.dtd">
<svg xmlns:xlink="http://www.w3.org/1999/xlink" width="371.52pt" height="280.512pt" viewBox="0 0 371.52 280.512" xmlns="http://www.w3.org/2000/svg" version="1.1">
 <metadata>
  <rdf:RDF xmlns:dc="http://purl.org/dc/elements/1.1/" xmlns:cc="http://creativecommons.org/ns#" xmlns:rdf="http://www.w3.org/1999/02/22-rdf-syntax-ns#">
   <cc:Work>
    <dc:type rdf:resource="http://purl.org/dc/dcmitype/StillImage"/>
    <dc:date>2021-12-03T16:10:04.915341</dc:date>
    <dc:format>image/svg+xml</dc:format>
    <dc:creator>
     <cc:Agent>
      <dc:title>Matplotlib v3.5.0, https://matplotlib.org/</dc:title>
     </cc:Agent>
    </dc:creator>
   </cc:Work>
  </rdf:RDF>
 </metadata>
 <defs>
  <style type="text/css">*{stroke-linejoin: round; stroke-linecap: butt}</style>
 </defs>
 <g id="figure_1">
  <g id="patch_1">
   <path d="M 0 280.512 
L 371.52 280.512 
L 371.52 0 
L 0 0 
L 0 280.512 
z
" style="fill: none"/>
  </g>
  <g id="axes_1">
   <g id="patch_2">
    <path d="M 186.608015 19.296 
C 157.760018 19.296 129.852126 29.668887 108.007257 48.51056 
C 86.162388 67.352233 71.804313 93.434659 67.568676 121.970011 
C 63.333038 150.505363 69.495902 179.633809 84.925979 204.008379 
C 100.356056 228.382948 124.04767 246.414995 151.651863 254.794461 
L 186.608015 139.639584 
L 186.608015 19.296 
z
" style="fill: #0000ff"/>
   </g>
   <g id="patch_3">
    <path d="M 151.651863 254.794461 
C 168.202806 259.818627 185.644034 261.216 202.783776 258.891095 
C 219.923519 256.566191 236.362287 250.573198 250.97681 241.32162 
C 265.591333 232.070043 278.040978 219.775516 287.475054 205.278131 
C 296.909129 190.780746 303.107748 174.418405 305.647355 157.309157 
C 308.186962 140.19991 307.008364 122.742533 302.192095 106.129902 
C 297.375826 89.517271 289.034144 74.136588 277.737039 61.038826 
C 266.439935 47.941063 252.450719 37.4315 236.725284 30.228261 
C 220.999849 23.025023 203.904719 19.296 186.608015 19.296 
L 186.608015 139.639584 
L 151.651863 254.794461 
z
" style="fill: #bf00bf"/>
   </g>
   <g id="matplotlib.axis_1"/>
   <g id="matplotlib.axis_2"/>
  </g>
 </g>
</svg>
