<?xml version="1.0" encoding="utf-8" standalone="no"?>
<!DOCTYPE svg PUBLIC "-//W3C//DTD SVG 1.1//EN"
  "http://www.w3.org/Graphics/SVG/1.1/DTD/svg11.dtd">
<svg xmlns:xlink="http://www.w3.org/1999/xlink" width="205.78005pt" height="204.54534pt" viewBox="0 0 205.78005 204.54534" xmlns="http://www.w3.org/2000/svg" version="1.1">
 <metadata>
  <rdf:RDF xmlns:dc="http://purl.org/dc/elements/1.1/" xmlns:cc="http://creativecommons.org/ns#" xmlns:rdf="http://www.w3.org/1999/02/22-rdf-syntax-ns#">
   <cc:Work>
    <dc:type rdf:resource="http://purl.org/dc/dcmitype/StillImage"/>
    <dc:date>2022-01-14T17:05:51.761547</dc:date>
    <dc:format>image/svg+xml</dc:format>
    <dc:creator>
     <cc:Agent>
      <dc:title>Matplotlib v3.5.1, https://matplotlib.org/</dc:title>
     </cc:Agent>
    </dc:creator>
   </cc:Work>
  </rdf:RDF>
 </metadata>
 <defs>
  <style type="text/css">*{stroke-linejoin: round; stroke-linecap: butt}</style>
 </defs>
 <g id="figure_1">
  <g id="patch_1">
   <path d="M 0 204.54534 
L 205.78005 204.54534 
L 205.78005 0 
L 0 0 
L 0 204.54534 
z
" style="fill: none"/>
  </g>
  <g id="axes_1">
   <g id="patch_2">
    <path d="M 103.495959 15.84297 
C 82.883163 15.84297 62.942102 23.254722 47.33326 36.717686 
C 31.724419 50.18065 21.465126 68.817359 18.43863 89.206759 
C 15.412135 109.59616 19.815694 130.409345 30.840966 147.825737 
C 41.866238 165.242129 58.794637 178.126589 78.518695 184.11398 
L 103.495959 101.832222 
L 103.495959 15.84297 
z
" style="fill: #0000ff; stroke: #000000; stroke-linejoin: miter"/>
   </g>
   <g id="patch_3">
    <path d="M 78.518695 184.11398 
C 90.344861 187.703904 102.807163 188.70237 115.054045 187.041153 
C 127.300927 185.379936 139.046941 181.097755 149.489474 174.487214 
C 159.932007 167.876673 168.827668 159.091849 175.568609 148.733014 
C 182.309551 138.37418 186.738658 126.682776 188.553287 114.457684 
C 190.367915 102.232592 189.52577 89.758751 186.084395 77.888507 
C 182.643021 66.018263 176.682628 55.028284 168.610494 45.669523 
C 160.53836 36.310763 150.542628 28.801351 139.306313 23.654412 
C 128.069998 18.507473 115.854994 15.84297 103.495959 15.84297 
L 103.495959 101.832222 
L 78.518695 184.11398 
z
" style="fill: #ff0000; stroke: #000000; stroke-linejoin: miter"/>
   </g>
   <g id="matplotlib.axis_1"/>
   <g id="matplotlib.axis_2"/>
  </g>
 </g>
</svg>
