<?xml version="1.0" encoding="utf-8" standalone="no"?>
<!DOCTYPE svg PUBLIC "-//W3C//DTD SVG 1.1//EN"
  "http://www.w3.org/Graphics/SVG/1.1/DTD/svg11.dtd">
<svg xmlns:xlink="http://www.w3.org/1999/xlink" width="371.52pt" height="280.512pt" viewBox="0 0 371.52 280.512" xmlns="http://www.w3.org/2000/svg" version="1.1">
 <metadata>
  <rdf:RDF xmlns:dc="http://purl.org/dc/elements/1.1/" xmlns:cc="http://creativecommons.org/ns#" xmlns:rdf="http://www.w3.org/1999/02/22-rdf-syntax-ns#">
   <cc:Work>
    <dc:type rdf:resource="http://purl.org/dc/dcmitype/StillImage"/>
    <dc:date>2021-12-03T16:10:05.877026</dc:date>
    <dc:format>image/svg+xml</dc:format>
    <dc:creator>
     <cc:Agent>
      <dc:title>Matplotlib v3.5.0, https://matplotlib.org/</dc:title>
     </cc:Agent>
    </dc:creator>
   </cc:Work>
  </rdf:RDF>
 </metadata>
 <defs>
  <style type="text/css">*{stroke-linejoin: round; stroke-linecap: butt}</style>
 </defs>
 <g id="figure_1">
  <g id="patch_1">
   <path d="M 0 280.512 
L 371.52 280.512 
L 371.52 0 
L 0 0 
L 0 280.512 
z
" style="fill: none"/>
  </g>
  <g id="axes_1">
   <g id="patch_2">
    <path d="M 186.756293 19.296 
C 159.460777 19.296 132.953627 28.540124 111.577556 45.51389 
C 90.201484 62.487656 75.191285 86.210572 69.006104 112.79607 
C 62.820924 139.381569 65.818051 167.293933 77.506461 191.96023 
C 89.194871 216.626528 108.899381 236.621906 133.391765 248.670486 
L 186.756293 140.190936 
L 186.756293 19.296 
z
" style="fill: #0000ff"/>
   </g>
   <g id="patch_3">
    <path d="M 133.391765 248.670486 
C 149.726379 256.706 167.666948 260.949255 185.870555 261.082628 
C 204.074162 261.216 222.07498 257.236077 238.525582 249.44077 
C 254.976183 241.645464 269.455601 230.234254 280.879997 216.061312 
C 292.304392 201.88837 300.381418 185.316379 304.506479 167.585813 
C 308.63154 149.855247 308.699076 131.419828 304.704032 113.659514 
C 300.708989 95.899201 292.753598 79.268477 281.43335 65.012212 
C 270.113102 50.755948 255.717679 39.238958 239.324633 31.323332 
C 222.931587 23.407706 204.960411 19.296003 186.756316 19.296 
L 186.756293 140.190936 
L 133.391765 248.670486 
z
" style="fill: #bf00bf"/>
   </g>
   <g id="matplotlib.axis_1"/>
   <g id="matplotlib.axis_2"/>
  </g>
 </g>
</svg>
