<?xml version="1.0" encoding="utf-8" standalone="no"?>
<!DOCTYPE svg PUBLIC "-//W3C//DTD SVG 1.1//EN"
  "http://www.w3.org/Graphics/SVG/1.1/DTD/svg11.dtd">
<svg xmlns:xlink="http://www.w3.org/1999/xlink" width="74.2176pt" height="73.83168pt" viewBox="0 0 74.2176 73.83168" xmlns="http://www.w3.org/2000/svg" version="1.1">
 <metadata>
  <rdf:RDF xmlns:dc="http://purl.org/dc/elements/1.1/" xmlns:cc="http://creativecommons.org/ns#" xmlns:rdf="http://www.w3.org/1999/02/22-rdf-syntax-ns#">
   <cc:Work>
    <dc:type rdf:resource="http://purl.org/dc/dcmitype/StillImage"/>
    <dc:date>2022-01-14T17:05:52.726366</dc:date>
    <dc:format>image/svg+xml</dc:format>
    <dc:creator>
     <cc:Agent>
      <dc:title>Matplotlib v3.5.1, https://matplotlib.org/</dc:title>
     </cc:Agent>
    </dc:creator>
   </cc:Work>
  </rdf:RDF>
 </metadata>
 <defs>
  <style type="text/css">*{stroke-linejoin: round; stroke-linecap: butt}</style>
 </defs>
 <g id="figure_1">
  <g id="patch_1">
   <path d="M 0 73.83168 
L 74.2176 73.83168 
L 74.2176 0 
L 0 0 
L 0 73.83168 
z
" style="fill: none"/>
  </g>
  <g id="axes_1">
   <g id="patch_2">
    <path d="M 37.331305 9.90144 
C 31.235307 9.90144 25.315377 11.965961 20.541387 15.756769 
C 15.767398 19.547577 12.41512 24.845694 11.033763 30.783122 
C 9.652406 36.72055 10.321765 42.954312 12.932176 48.463118 
C 15.542588 53.971925 19.943262 58.437559 25.413227 61.128409 
L 37.331305 36.901309 
L 37.331305 9.90144 
z
" style="fill: #0000ff; stroke: #000000; stroke-linejoin: miter"/>
   </g>
   <g id="patch_3">
    <path d="M 25.413227 61.128409 
C 29.061291 62.923007 33.068018 63.870667 37.133491 63.900453 
C 41.198963 63.93024 45.219146 63.041391 48.893113 61.300439 
C 52.567081 59.559487 55.800818 57.010983 58.352266 53.845693 
C 60.903714 50.680403 62.707583 46.979325 63.628847 43.019498 
C 64.550111 39.059672 64.565194 34.942428 63.672967 30.975958 
C 62.780741 27.009488 61.004037 23.295293 58.475848 20.111394 
C 55.947659 16.927495 52.732682 14.355367 49.071568 12.587544 
C 45.410454 10.819721 41.396892 9.901441 37.33131 9.90144 
L 37.331305 36.901309 
L 25.413227 61.128409 
z
" style="fill: #ff0000; stroke: #000000; stroke-linejoin: miter"/>
   </g>
   <g id="matplotlib.axis_1"/>
   <g id="matplotlib.axis_2"/>
  </g>
 </g>
</svg>
