<?xml version="1.0" encoding="utf-8" standalone="no"?>
<!DOCTYPE svg PUBLIC "-//W3C//DTD SVG 1.1//EN"
  "http://www.w3.org/Graphics/SVG/1.1/DTD/svg11.dtd">
<svg xmlns:xlink="http://www.w3.org/1999/xlink" width="95.8401pt" height="95.31468pt" viewBox="0 0 95.8401 95.31468" xmlns="http://www.w3.org/2000/svg" version="1.1">
 <metadata>
  <rdf:RDF xmlns:dc="http://purl.org/dc/elements/1.1/" xmlns:cc="http://creativecommons.org/ns#" xmlns:rdf="http://www.w3.org/1999/02/22-rdf-syntax-ns#">
   <cc:Work>
    <dc:type rdf:resource="http://purl.org/dc/dcmitype/StillImage"/>
    <dc:date>2021-12-14T09:20:56.695332</dc:date>
    <dc:format>image/svg+xml</dc:format>
    <dc:creator>
     <cc:Agent>
      <dc:title>Matplotlib v3.5.0, https://matplotlib.org/</dc:title>
     </cc:Agent>
    </dc:creator>
   </cc:Work>
  </rdf:RDF>
 </metadata>
 <defs>
  <style type="text/css">*{stroke-linejoin: round; stroke-linecap: butt}</style>
 </defs>
 <g id="figure_1">
  <g id="patch_1">
   <path d="M 0 95.31468 
L 95.8401 95.31468 
L 95.8401 0 
L 0 0 
L 0 95.31468 
z
" style="fill: none"/>
  </g>
  <g id="axes_1">
   <g id="patch_2">
    <path d="M 48.090281 10.87794 
C 38.921931 10.87794 30.08092 14.332643 23.33493 20.551312 
C 16.588941 26.769981 12.419678 35.308564 11.660751 44.459845 
C 10.901823 53.611127 13.607422 62.721649 19.236587 69.969843 
C 24.865751 77.218036 33.016525 82.086335 42.059231 83.601365 
L 48.090281 47.490523 
L 48.090281 10.87794 
z
" style="fill: #0000ff"/>
   </g>
   <g id="patch_3">
    <path d="M 42.059231 83.601365 
C 47.045304 84.43674 52.150612 84.227154 57.051702 82.985887 
C 61.952792 81.744619 66.543928 79.498448 70.534234 76.389682 
C 74.524541 73.280917 77.827931 69.376625 80.235114 64.924168 
C 82.642298 60.47171 84.101343 55.567144 84.51981 50.521203 
C 84.938277 45.475262 84.307138 40.396808 82.66638 35.60759 
C 81.025621 30.818372 78.410641 26.421714 74.987113 22.696169 
C 71.563586 18.970625 67.40537 15.99657 62.775915 13.962427 
C 58.146459 11.928285 53.14564 10.877941 48.090287 10.87794 
L 48.090281 47.490523 
L 42.059231 83.601365 
z
" style="fill: #ff0000"/>
   </g>
   <g id="matplotlib.axis_1"/>
   <g id="matplotlib.axis_2"/>
  </g>
 </g>
</svg>
