<?xml version="1.0" encoding="utf-8" standalone="no"?>
<!DOCTYPE svg PUBLIC "-//W3C//DTD SVG 1.1//EN"
  "http://www.w3.org/Graphics/SVG/1.1/DTD/svg11.dtd">
<svg xmlns:xlink="http://www.w3.org/1999/xlink" width="371.52pt" height="280.512pt" viewBox="0 0 371.52 280.512" xmlns="http://www.w3.org/2000/svg" version="1.1">
 <metadata>
  <rdf:RDF xmlns:dc="http://purl.org/dc/elements/1.1/" xmlns:cc="http://creativecommons.org/ns#" xmlns:rdf="http://www.w3.org/1999/02/22-rdf-syntax-ns#">
   <cc:Work>
    <dc:type rdf:resource="http://purl.org/dc/dcmitype/StillImage"/>
    <dc:date>2021-12-03T16:10:06.807821</dc:date>
    <dc:format>image/svg+xml</dc:format>
    <dc:creator>
     <cc:Agent>
      <dc:title>Matplotlib v3.5.0, https://matplotlib.org/</dc:title>
     </cc:Agent>
    </dc:creator>
   </cc:Work>
  </rdf:RDF>
 </metadata>
 <defs>
  <style type="text/css">*{stroke-linejoin: round; stroke-linecap: butt}</style>
 </defs>
 <g id="figure_1">
  <g id="patch_1">
   <path d="M 0 280.512 
L 371.52 280.512 
L 371.52 0 
L 0 0 
L 0 280.512 
z
" style="fill: none"/>
  </g>
  <g id="axes_1">
   <g id="patch_2">
    <path d="M 186.320736 19.296 
C 156.120379 19.296 126.998268 30.65782 104.777116 51.109762 
C 82.555964 71.561705 68.822497 99.643375 66.322604 129.740087 
C 63.822711 159.8368 72.734899 189.799463 91.277254 213.637304 
C 109.819608 237.475144 136.668091 253.485993 166.454581 258.468621 
L 186.320736 139.707371 
L 186.320736 19.296 
z
" style="fill: #0000ff"/>
   </g>
   <g id="patch_3">
    <path d="M 166.454581 258.468621 
C 182.878606 261.216 199.695384 260.526715 215.839475 256.444437 
C 231.983567 252.362158 247.106675 244.974958 260.250664 234.750857 
C 273.394653 224.526756 284.275951 211.686333 292.205166 197.043101 
C 300.134381 182.399869 304.940445 166.269745 306.318867 149.674667 
C 307.697289 133.079588 305.61833 116.37758 300.213704 100.626812 
C 294.809079 84.876044 286.195387 70.416325 274.918357 58.163764 
C 263.641326 45.911202 249.94425 36.130137 234.694917 29.440255 
C 219.445584 22.750373 202.972986 19.296003 186.320759 19.296 
L 186.320736 139.707371 
L 166.454581 258.468621 
z
" style="fill: #bf00bf"/>
   </g>
   <g id="matplotlib.axis_1"/>
   <g id="matplotlib.axis_2"/>
  </g>
 </g>
</svg>
