<?xml version="1.0" encoding="utf-8" standalone="no"?>
<!DOCTYPE svg PUBLIC "-//W3C//DTD SVG 1.1//EN"
  "http://www.w3.org/Graphics/SVG/1.1/DTD/svg11.dtd">
<svg xmlns:xlink="http://www.w3.org/1999/xlink" width="219.8277pt" height="218.50236pt" viewBox="0 0 219.8277 218.50236" xmlns="http://www.w3.org/2000/svg" version="1.1">
 <metadata>
  <rdf:RDF xmlns:dc="http://purl.org/dc/elements/1.1/" xmlns:cc="http://creativecommons.org/ns#" xmlns:rdf="http://www.w3.org/1999/02/22-rdf-syntax-ns#">
   <cc:Work>
    <dc:type rdf:resource="http://purl.org/dc/dcmitype/StillImage"/>
    <dc:date>2021-12-14T09:20:57.611344</dc:date>
    <dc:format>image/svg+xml</dc:format>
    <dc:creator>
     <cc:Agent>
      <dc:title>Matplotlib v3.5.0, https://matplotlib.org/</dc:title>
     </cc:Agent>
    </dc:creator>
   </cc:Work>
  </rdf:RDF>
 </metadata>
 <defs>
  <style type="text/css">*{stroke-linejoin: round; stroke-linecap: butt}</style>
 </defs>
 <g id="figure_1">
  <g id="patch_1">
   <path d="M 0 218.50236 
L 219.8277 218.50236 
L 219.8277 0 
L 0 0 
L 0 218.50236 
z
" style="fill: none"/>
  </g>
  <g id="axes_1">
   <g id="patch_2">
    <path d="M 110.3629 16.47738 
C 87.32417 16.47738 65.102517 25.135256 48.113356 40.7307 
C 31.124194 56.326144 20.572578 77.752959 18.555101 100.753664 
C 16.537623 123.754369 23.197384 146.697505 37.211099 165.024303 
C 51.224814 183.351101 71.598479 195.761625 94.283872 199.789921 
L 110.3629 108.841932 
L 110.3629 16.47738 
z
" style="fill: #0000ff"/>
   </g>
   <g id="patch_3">
    <path d="M 94.283872 199.789921 
C 106.870633 202.02498 119.784801 201.611361 132.20348 198.57542 
C 144.622159 195.539478 156.275849 189.947098 166.421971 182.154629 
C 176.568092 174.36216 184.986462 164.538707 191.140658 153.310226 
C 197.294854 142.081745 201.051323 129.691907 202.1707 116.9302 
C 203.290077 104.168493 201.748071 91.311859 197.642939 79.179531 
C 193.537807 67.047204 186.958634 55.902467 178.324651 46.45547 
C 169.690668 37.008474 159.18924 29.464227 147.489525 24.303455 
C 135.789811 19.142683 123.145706 16.47738 110.3629 16.47738 
L 110.3629 108.841932 
L 94.283872 199.789921 
z
" style="fill: #ff0000"/>
   </g>
   <g id="matplotlib.axis_1"/>
   <g id="matplotlib.axis_2"/>
  </g>
 </g>
</svg>
