<?xml version="1.0" encoding="utf-8" standalone="no"?>
<!DOCTYPE svg PUBLIC "-//W3C//DTD SVG 1.1//EN"
  "http://www.w3.org/Graphics/SVG/1.1/DTD/svg11.dtd">
<svg xmlns:xlink="http://www.w3.org/1999/xlink" width="20.10555pt" height="20.06874pt" viewBox="0 0 20.10555 20.06874" xmlns="http://www.w3.org/2000/svg" version="1.1">
 <metadata>
  <rdf:RDF xmlns:dc="http://purl.org/dc/elements/1.1/" xmlns:cc="http://creativecommons.org/ns#" xmlns:rdf="http://www.w3.org/1999/02/22-rdf-syntax-ns#">
   <cc:Work>
    <dc:type rdf:resource="http://purl.org/dc/dcmitype/StillImage"/>
    <dc:date>2022-01-14T17:06:00.165485</dc:date>
    <dc:format>image/svg+xml</dc:format>
    <dc:creator>
     <cc:Agent>
      <dc:title>Matplotlib v3.5.1, https://matplotlib.org/</dc:title>
     </cc:Agent>
    </dc:creator>
   </cc:Work>
  </rdf:RDF>
 </metadata>
 <defs>
  <style type="text/css">*{stroke-linejoin: round; stroke-linecap: butt}</style>
 </defs>
 <g id="figure_1">
  <g id="patch_1">
   <path d="M 0 20.06874 
L 20.10555 20.06874 
L 20.10555 0 
L 0 0 
L 0 20.06874 
z
" style="fill: none"/>
  </g>
  <g id="axes_1">
   <g id="patch_2">
    <path d="M 10.069107 7.45767 
C 9.448368 7.45767 8.848465 7.685293 8.382621 8.097578 
C 7.916777 8.509863 7.616266 9.079132 7.537805 9.697944 
C 7.459343 10.316756 7.608199 10.943568 7.956277 11.460079 
C 8.304356 11.97659 8.828289 12.348124 9.429193 12.50456 
L 10.069107 10.022086 
L 10.069107 7.45767 
z
" style="fill: #0000ff; stroke: #000000; stroke-linejoin: miter"/>
   </g>
   <g id="patch_3">
    <path d="M 9.429193 12.50456 
C 9.779941 12.595871 10.146052 12.61107 10.503099 12.549142 
C 10.860145 12.487214 11.200007 12.349568 11.500007 12.145388 
C 11.800008 11.941207 12.053324 11.675137 12.243053 11.364928 
C 12.432783 11.05472 12.554611 10.70743 12.600409 10.346229 
C 12.646207 9.985028 12.614933 9.618133 12.508674 9.270022 
C 12.402415 8.921911 12.223588 8.600503 11.984124 8.327242 
C 11.74466 8.053981 11.450006 7.835083 11.119822 7.685153 
C 10.789637 7.535222 10.431433 7.45767 10.069107 7.45767 
L 10.069107 10.022086 
L 9.429193 12.50456 
z
" style="fill: #ff0000; stroke: #000000; stroke-linejoin: miter"/>
   </g>
   <g id="matplotlib.axis_1"/>
   <g id="matplotlib.axis_2"/>
  </g>
 </g>
</svg>
