<?xml version="1.0" encoding="utf-8" standalone="no"?>
<!DOCTYPE svg PUBLIC "-//W3C//DTD SVG 1.1//EN"
  "http://www.w3.org/Graphics/SVG/1.1/DTD/svg11.dtd">
<svg xmlns:xlink="http://www.w3.org/1999/xlink" width="371.52pt" height="280.512pt" viewBox="0 0 371.52 280.512" xmlns="http://www.w3.org/2000/svg" version="1.1">
 <metadata>
  <rdf:RDF xmlns:dc="http://purl.org/dc/elements/1.1/" xmlns:cc="http://creativecommons.org/ns#" xmlns:rdf="http://www.w3.org/1999/02/22-rdf-syntax-ns#">
   <cc:Work>
    <dc:type rdf:resource="http://purl.org/dc/dcmitype/StillImage"/>
    <dc:date>2021-12-03T16:10:13.561581</dc:date>
    <dc:format>image/svg+xml</dc:format>
    <dc:creator>
     <cc:Agent>
      <dc:title>Matplotlib v3.5.0, https://matplotlib.org/</dc:title>
     </cc:Agent>
    </dc:creator>
   </cc:Work>
  </rdf:RDF>
 </metadata>
 <defs>
  <style type="text/css">*{stroke-linejoin: round; stroke-linecap: butt}</style>
 </defs>
 <g id="figure_1">
  <g id="patch_1">
   <path d="M 0 280.512 
L 371.52 280.512 
L 371.52 0 
L 0 0 
L 0 280.512 
z
" style="fill: none"/>
  </g>
  <g id="axes_1">
   <g id="patch_2">
    <path d="M 186.530474 19.296 
C 157.246214 19.296 128.944951 29.981462 106.968094 49.335677 
C 84.991237 68.689891 70.814199 95.413516 67.112667 124.462897 
C 63.411135 153.512278 70.433611 182.937189 86.854716 207.184151 
C 103.275822 231.431113 127.993128 248.87231 156.34164 256.215997 
L 186.530474 139.67936 
L 186.530474 19.296 
z
" style="fill: #0000ff"/>
   </g>
   <g id="patch_3">
    <path d="M 156.34164 256.215997 
C 172.888667 260.502507 190.160467 261.216 207.004661 258.308872 
C 223.848856 255.401744 239.882307 248.94012 254.03526 239.355121 
C 268.188213 229.770122 280.138745 217.279768 289.089513 202.717418 
C 298.040282 188.155069 303.787694 171.851958 305.948279 154.895834 
C 308.108865 137.93971 306.633481 120.716255 301.620564 104.374623 
C 296.607648 88.032991 288.171222 72.944887 276.874169 60.116993 
C 265.577115 47.2891 251.676395 37.013199 236.099468 29.974902 
C 220.522541 22.936604 203.623719 19.296003 186.530496 19.296 
L 186.530474 139.67936 
L 156.34164 256.215997 
z
" style="fill: #bf00bf"/>
   </g>
   <g id="matplotlib.axis_1"/>
   <g id="matplotlib.axis_2"/>
  </g>
 </g>
</svg>
