<?xml version="1.0" encoding="utf-8" standalone="no"?>
<!DOCTYPE svg PUBLIC "-//W3C//DTD SVG 1.1//EN"
  "http://www.w3.org/Graphics/SVG/1.1/DTD/svg11.dtd">
<svg xmlns:xlink="http://www.w3.org/1999/xlink" width="371.52pt" height="280.512pt" viewBox="0 0 371.52 280.512" xmlns="http://www.w3.org/2000/svg" version="1.1">
 <metadata>
  <rdf:RDF xmlns:dc="http://purl.org/dc/elements/1.1/" xmlns:cc="http://creativecommons.org/ns#" xmlns:rdf="http://www.w3.org/1999/02/22-rdf-syntax-ns#">
   <cc:Work>
    <dc:type rdf:resource="http://purl.org/dc/dcmitype/StillImage"/>
    <dc:date>2021-12-03T16:10:08.727074</dc:date>
    <dc:format>image/svg+xml</dc:format>
    <dc:creator>
     <cc:Agent>
      <dc:title>Matplotlib v3.5.0, https://matplotlib.org/</dc:title>
     </cc:Agent>
    </dc:creator>
   </cc:Work>
  </rdf:RDF>
 </metadata>
 <defs>
  <style type="text/css">*{stroke-linejoin: round; stroke-linecap: butt}</style>
 </defs>
 <g id="figure_1">
  <g id="patch_1">
   <path d="M 0 280.512 
L 371.52 280.512 
L 371.52 0 
L 0 0 
L 0 280.512 
z
" style="fill: none"/>
  </g>
  <g id="axes_1">
   <g id="patch_2">
    <path d="M 186.625892 19.296 
C 157.886616 19.296 130.07674 29.590532 108.264526 48.30345 
C 86.452312 67.016368 72.048532 92.937358 67.678228 121.3424 
C 63.307924 149.747442 69.25376 178.799355 84.432125 203.203518 
C 99.610491 227.607682 123.039679 245.785683 150.449794 254.424639 
L 186.625892 139.643285 
L 186.625892 19.296 
z
" style="fill: #0000ff"/>
   </g>
   <g id="patch_3">
    <path d="M 150.449794 254.424639 
C 166.998336 259.640309 184.480769 261.216 201.695217 259.043388 
C 218.909665 256.870776 235.452391 251.000815 250.186125 241.837051 
C 264.919858 232.673288 277.499042 220.430642 287.058889 205.950767 
C 296.618736 191.470892 302.935034 175.093388 305.573555 157.944171 
C 308.212076 140.794953 307.110936 123.276227 302.345837 106.592364 
C 297.580737 89.908501 289.263436 74.450793 277.965727 61.28192 
C 266.668017 48.113046 252.654869 37.541862 236.889653 30.29511 
C 221.124437 23.048359 203.976899 19.296 186.625892 19.296 
L 186.625892 139.643285 
L 150.449794 254.424639 
z
" style="fill: #bf00bf"/>
   </g>
   <g id="matplotlib.axis_1"/>
   <g id="matplotlib.axis_2"/>
  </g>
 </g>
</svg>
