<?xml version="1.0" encoding="utf-8" standalone="no"?>
<!DOCTYPE svg PUBLIC "-//W3C//DTD SVG 1.1//EN"
  "http://www.w3.org/Graphics/SVG/1.1/DTD/svg11.dtd">
<svg xmlns:xlink="http://www.w3.org/1999/xlink" width="73.39455pt" height="73.01394pt" viewBox="0 0 73.39455 73.01394" xmlns="http://www.w3.org/2000/svg" version="1.1">
 <metadata>
  <rdf:RDF xmlns:dc="http://purl.org/dc/elements/1.1/" xmlns:cc="http://creativecommons.org/ns#" xmlns:rdf="http://www.w3.org/1999/02/22-rdf-syntax-ns#">
   <cc:Work>
    <dc:type rdf:resource="http://purl.org/dc/dcmitype/StillImage"/>
    <dc:date>2022-01-14T17:05:55.496859</dc:date>
    <dc:format>image/svg+xml</dc:format>
    <dc:creator>
     <cc:Agent>
      <dc:title>Matplotlib v3.5.1, https://matplotlib.org/</dc:title>
     </cc:Agent>
    </dc:creator>
   </cc:Work>
  </rdf:RDF>
 </metadata>
 <defs>
  <style type="text/css">*{stroke-linejoin: round; stroke-linecap: butt}</style>
 </defs>
 <g id="figure_1">
  <g id="patch_1">
   <path d="M 0 73.01394 
L 73.39455 73.01394 
L 73.39455 0 
L 0 0 
L 0 73.01394 
z
" style="fill: none"/>
  </g>
  <g id="axes_1">
   <g id="patch_2">
    <path d="M 36.887997 9.86427 
C 30.557872 9.86427 24.432457 12.131748 19.62809 16.253463 
C 14.823722 20.375178 11.65114 26.084546 10.688535 32.341053 
C 9.72593 38.597559 11.035562 44.996545 14.378755 50.371817 
C 17.721948 55.747088 22.882471 59.750982 28.919834 61.653802 
L 36.887997 36.372013 
L 36.887997 9.86427 
z
" style="fill: #0000ff; stroke: #000000; stroke-linejoin: miter"/>
   </g>
   <g id="patch_3">
    <path d="M 28.919834 61.653802 
C 32.564823 62.802608 36.415511 63.14967 40.207172 62.67113 
C 43.998834 62.192589 47.642542 60.899669 50.8878 58.881255 
C 54.133058 56.86284 56.903755 54.16627 59.00941 50.976927 
C 61.115066 47.787583 62.506297 44.180268 63.087459 40.402974 
C 63.66862 36.62568 63.426083 32.766998 62.37652 29.092204 
C 61.326957 25.417409 59.494985 22.012688 57.006547 19.112106 
C 54.518109 16.211525 51.431567 13.883111 47.959114 12.286939 
C 44.486661 10.690766 40.709737 9.86427 36.887997 9.86427 
L 36.887997 36.372013 
L 28.919834 61.653802 
z
" style="fill: #ff0000; stroke: #000000; stroke-linejoin: miter"/>
   </g>
   <g id="matplotlib.axis_1"/>
   <g id="matplotlib.axis_2"/>
  </g>
 </g>
</svg>
