<?xml version="1.0" encoding="utf-8" standalone="no"?>
<!DOCTYPE svg PUBLIC "-//W3C//DTD SVG 1.1//EN"
  "http://www.w3.org/Graphics/SVG/1.1/DTD/svg11.dtd">
<svg xmlns:xlink="http://www.w3.org/1999/xlink" width="371.52pt" height="280.512pt" viewBox="0 0 371.52 280.512" xmlns="http://www.w3.org/2000/svg" version="1.1">
 <metadata>
  <rdf:RDF xmlns:dc="http://purl.org/dc/elements/1.1/" xmlns:cc="http://creativecommons.org/ns#" xmlns:rdf="http://www.w3.org/1999/02/22-rdf-syntax-ns#">
   <cc:Work>
    <dc:type rdf:resource="http://purl.org/dc/dcmitype/StillImage"/>
    <dc:date>2021-12-03T16:10:09.708418</dc:date>
    <dc:format>image/svg+xml</dc:format>
    <dc:creator>
     <cc:Agent>
      <dc:title>Matplotlib v3.5.0, https://matplotlib.org/</dc:title>
     </cc:Agent>
    </dc:creator>
   </cc:Work>
  </rdf:RDF>
 </metadata>
 <defs>
  <style type="text/css">*{stroke-linejoin: round; stroke-linecap: butt}</style>
 </defs>
 <g id="figure_1">
  <g id="patch_1">
   <path d="M 0 280.512 
L 371.52 280.512 
L 371.52 0 
L 0 0 
L 0 280.512 
z
" style="fill: none"/>
  </g>
  <g id="axes_1">
   <g id="patch_2">
    <path d="M 186.272175 19.296 
C 155.895906 19.296 126.617211 30.791916 104.355792 51.459449 
C 82.094374 72.126982 68.458957 100.47259 66.206415 130.765225 
C 63.953873 161.05786 73.246986 191.10842 92.206828 214.841141 
C 111.16667 238.573863 138.423106 254.273697 168.465301 258.766377 
L 186.272175 139.693243 
L 186.272175 19.296 
z
" style="fill: #0000ff"/>
   </g>
   <g id="patch_3">
    <path d="M 168.465301 258.766377 
C 184.845731 261.216 201.556803 260.259388 217.550692 255.956524 
C 233.544581 251.653659 248.479868 244.096395 261.420073 233.75859 
C 274.360279 223.420784 285.029169 210.523118 292.757781 195.874306 
C 300.486392 181.225493 305.109741 165.138242 306.337934 148.621261 
C 307.566127 132.104279 305.372945 115.510154 299.895906 99.879378 
C 294.418866 84.248601 285.774888 69.914842 274.505969 57.776861 
C 263.237049 45.638879 249.583746 35.955785 234.402152 29.33473 
C 219.220559 22.713675 202.834757 19.296 186.272175 19.296 
L 186.272175 139.693243 
L 168.465301 258.766377 
z
" style="fill: #bf00bf"/>
   </g>
   <g id="matplotlib.axis_1"/>
   <g id="matplotlib.axis_2"/>
  </g>
 </g>
</svg>
