<?xml version="1.0" encoding="utf-8" standalone="no"?>
<!DOCTYPE svg PUBLIC "-//W3C//DTD SVG 1.1//EN"
  "http://www.w3.org/Graphics/SVG/1.1/DTD/svg11.dtd">
<svg xmlns:xlink="http://www.w3.org/1999/xlink" width="28.86615pt" height="28.77282pt" viewBox="0 0 28.86615 28.77282" xmlns="http://www.w3.org/2000/svg" version="1.1">
 <metadata>
  <rdf:RDF xmlns:dc="http://purl.org/dc/elements/1.1/" xmlns:cc="http://creativecommons.org/ns#" xmlns:rdf="http://www.w3.org/1999/02/22-rdf-syntax-ns#">
   <cc:Work>
    <dc:type rdf:resource="http://purl.org/dc/dcmitype/StillImage"/>
    <dc:date>2021-12-14T09:20:59.428224</dc:date>
    <dc:format>image/svg+xml</dc:format>
    <dc:creator>
     <cc:Agent>
      <dc:title>Matplotlib v3.5.0, https://matplotlib.org/</dc:title>
     </cc:Agent>
    </dc:creator>
   </cc:Work>
  </rdf:RDF>
 </metadata>
 <defs>
  <style type="text/css">*{stroke-linejoin: round; stroke-linecap: butt}</style>
 </defs>
 <g id="figure_1">
  <g id="patch_1">
   <path d="M 0 28.77282 
L 28.86615 28.77282 
L 28.86615 0 
L 0 0 
L 0 28.77282 
z
" style="fill: none"/>
  </g>
  <g id="axes_1">
   <g id="patch_2">
    <path d="M 14.460724 7.85331 
C 12.820906 7.85331 11.240339 8.474209 10.03859 9.590471 
C 8.83684 10.706733 8.100753 12.237691 7.979152 13.873809 
C 7.857552 15.509927 8.359227 17.13297 9.382746 18.414785 
C 10.406265 19.696599 11.877663 20.544553 13.499446 20.787205 
L 14.460724 14.356015 
L 14.460724 7.85331 
z
" style="fill: #0000ff"/>
   </g>
   <g id="patch_3">
    <path d="M 13.499446 20.787205 
C 14.38372 20.91951 15.285842 20.867843 16.149248 20.635443 
C 17.012655 20.403044 17.818914 19.994873 18.517472 19.436524 
C 19.216029 18.878175 19.791974 18.181566 20.209191 17.390378 
C 20.626409 16.599189 20.875993 15.73031 20.942296 14.838221 
C 21.008598 13.946132 20.890202 13.049877 20.594532 12.205652 
C 20.298862 11.361427 19.83223 10.587255 19.223894 9.931677 
C 18.615558 9.2761 17.878505 8.753112 17.058949 8.395506 
C 16.239394 8.0379 15.35483 7.85331 14.460724 7.85331 
L 14.460724 14.356015 
L 13.499446 20.787205 
z
" style="fill: #ff0000"/>
   </g>
   <g id="matplotlib.axis_1"/>
   <g id="matplotlib.axis_2"/>
  </g>
 </g>
</svg>
