<?xml version="1.0" encoding="utf-8" standalone="no"?>
<!DOCTYPE svg PUBLIC "-//W3C//DTD SVG 1.1//EN"
  "http://www.w3.org/Graphics/SVG/1.1/DTD/svg11.dtd">
<svg xmlns:xlink="http://www.w3.org/1999/xlink" width="66.9915pt" height="66.6522pt" viewBox="0 0 66.9915 66.6522" xmlns="http://www.w3.org/2000/svg" version="1.1">
 <metadata>
  <rdf:RDF xmlns:dc="http://purl.org/dc/elements/1.1/" xmlns:cc="http://creativecommons.org/ns#" xmlns:rdf="http://www.w3.org/1999/02/22-rdf-syntax-ns#">
   <cc:Work>
    <dc:type rdf:resource="http://purl.org/dc/dcmitype/StillImage"/>
    <dc:date>2021-12-14T09:21:00.368212</dc:date>
    <dc:format>image/svg+xml</dc:format>
    <dc:creator>
     <cc:Agent>
      <dc:title>Matplotlib v3.5.0, https://matplotlib.org/</dc:title>
     </cc:Agent>
    </dc:creator>
   </cc:Work>
  </rdf:RDF>
 </metadata>
 <defs>
  <style type="text/css">*{stroke-linejoin: round; stroke-linecap: butt}</style>
 </defs>
 <g id="figure_1">
  <g id="patch_1">
   <path d="M 0 66.6522 
L 66.9915 66.6522 
L 66.9915 0 
L 0 0 
L 0 66.6522 
z
" style="fill: none"/>
  </g>
  <g id="axes_1">
   <g id="patch_2">
    <path d="M 33.481375 9.436252 
C 30.329315 9.436252 27.208268 10.060785 24.298917 11.273696 
C 21.389565 12.486607 18.749158 14.26403 16.530554 16.503064 
C 14.311951 18.742098 12.558806 21.398687 11.372614 24.319034 
C 10.186421 27.239381 9.590523 30.366022 9.619415 33.517949 
C 9.648308 36.669876 10.301424 39.785067 11.540952 42.683178 
C 12.78048 45.581289 14.582031 48.205293 16.841307 50.40328 
C 19.100584 52.601267 21.773131 54.329987 24.704228 55.489361 
C 27.635325 56.648734 30.767297 57.215948 33.918827 57.158165 
L 33.481375 33.299213 
L 33.481375 9.436252 
z
" style="fill: #0000ff"/>
   </g>
   <g id="patch_3">
    <path d="M 33.918827 57.158165 
C 40.206375 57.042884 46.200286 54.446715 50.585442 49.939281 
C 54.970597 45.431847 57.400977 39.368819 57.343334 33.080478 
C 57.285691 26.792138 54.744573 20.774681 50.277524 16.348393 
C 45.810476 11.922105 39.769979 9.436252 33.481375 9.436252 
L 33.481375 33.299213 
L 33.918827 57.158165 
z
" style="fill: #ff0000"/>
   </g>
   <g id="matplotlib.axis_1"/>
   <g id="matplotlib.axis_2"/>
  </g>
 </g>
</svg>
