<?xml version="1.0" encoding="utf-8" standalone="no"?>
<!DOCTYPE svg PUBLIC "-//W3C//DTD SVG 1.1//EN"
  "http://www.w3.org/Graphics/SVG/1.1/DTD/svg11.dtd">
<svg xmlns:xlink="http://www.w3.org/1999/xlink" width="23.0769pt" height="23.02092pt" viewBox="0 0 23.0769 23.02092" xmlns="http://www.w3.org/2000/svg" version="1.1">
 <metadata>
  <rdf:RDF xmlns:dc="http://purl.org/dc/elements/1.1/" xmlns:cc="http://creativecommons.org/ns#" xmlns:rdf="http://www.w3.org/1999/02/22-rdf-syntax-ns#">
   <cc:Work>
    <dc:type rdf:resource="http://purl.org/dc/dcmitype/StillImage"/>
    <dc:date>2021-12-14T09:21:01.259878</dc:date>
    <dc:format>image/svg+xml</dc:format>
    <dc:creator>
     <cc:Agent>
      <dc:title>Matplotlib v3.5.0, https://matplotlib.org/</dc:title>
     </cc:Agent>
    </dc:creator>
   </cc:Work>
  </rdf:RDF>
 </metadata>
 <defs>
  <style type="text/css">*{stroke-linejoin: round; stroke-linecap: butt}</style>
 </defs>
 <g id="figure_1">
  <g id="patch_1">
   <path d="M -0 23.02092 
L 23.0769 23.02092 
L 23.0769 0 
L -0 0 
L -0 23.02092 
z
" style="fill: none"/>
  </g>
  <g id="axes_1">
   <g id="patch_2">
    <path d="M 11.51505 7.59186 
C 10.967118 7.59186 10.425339 7.708377 9.925419 7.933733 
C 9.425498 8.159089 8.978663 8.488222 8.614362 8.899441 
C 8.250061 9.31066 7.976475 9.79473 7.811636 10.319748 
C 7.646796 10.844767 7.594405 11.398942 7.657914 11.945753 
C 7.721423 12.492565 7.899406 13.01973 8.180135 13.492508 
C 8.460863 13.965286 8.838031 14.373057 9.286782 14.68895 
C 9.735534 15.004843 10.245789 15.221762 10.783922 15.325411 
C 11.322055 15.42906 11.875979 15.417112 12.409188 15.290353 
L 11.51505 11.493523 
L 11.51505 7.59186 
z
" style="fill: #0000ff"/>
   </g>
   <g id="patch_3">
    <path d="M 12.409188 15.290353 
C 13.335326 15.070185 14.149348 14.515447 14.695445 13.732322 
C 15.241542 12.949197 15.482495 11.991056 15.372186 11.041293 
C 15.261876 10.091531 14.807821 9.214875 14.096929 8.579126 
C 13.386038 7.943377 12.466759 7.59186 11.51505 7.59186 
L 11.51505 11.493523 
L 12.409188 15.290353 
z
" style="fill: #ff0000"/>
   </g>
   <g id="matplotlib.axis_1"/>
   <g id="matplotlib.axis_2"/>
  </g>
 </g>
</svg>
