<?xml version="1.0" encoding="utf-8" standalone="no"?>
<!DOCTYPE svg PUBLIC "-//W3C//DTD SVG 1.1//EN"
  "http://www.w3.org/Graphics/SVG/1.1/DTD/svg11.dtd">
<svg xmlns:xlink="http://www.w3.org/1999/xlink" width="631.0179pt" height="627.03972pt" viewBox="0 0 631.0179 627.03972" xmlns="http://www.w3.org/2000/svg" version="1.1">
 <metadata>
  <rdf:RDF xmlns:dc="http://purl.org/dc/elements/1.1/" xmlns:cc="http://creativecommons.org/ns#" xmlns:rdf="http://www.w3.org/1999/02/22-rdf-syntax-ns#">
   <cc:Work>
    <dc:type rdf:resource="http://purl.org/dc/dcmitype/StillImage"/>
    <dc:date>2021-12-14T09:20:47.235748</dc:date>
    <dc:format>image/svg+xml</dc:format>
    <dc:creator>
     <cc:Agent>
      <dc:title>Matplotlib v3.5.0, https://matplotlib.org/</dc:title>
     </cc:Agent>
    </dc:creator>
   </cc:Work>
  </rdf:RDF>
 </metadata>
 <defs>
  <style type="text/css">*{stroke-linejoin: round; stroke-linecap: butt}</style>
 </defs>
 <g id="figure_1">
  <g id="patch_1">
   <path d="M 0 627.03972 
L 631.0179 627.03972 
L 631.0179 0 
L 0 0 
L 0 627.03972 
z
" style="fill: none"/>
  </g>
  <g id="axes_1">
   <g id="patch_2">
    <path d="M 313.659772 35.04726 
C 274.122769 35.04726 235.039873 43.509528 199.043955 59.863992 
C 163.048037 76.218456 130.965969 100.089433 104.958999 129.868825 
C 78.95203 159.648216 59.617574 194.651952 48.25812 232.521959 
C 36.898667 270.391966 33.775158 310.258322 39.098013 349.43538 
C 44.420867 388.612437 58.067813 426.200248 79.119505 459.666662 
C 100.171197 493.133076 128.144052 521.709327 161.153641 543.470338 
C 194.163231 565.231348 231.451284 579.677242 270.505841 585.834851 
C 309.560398 591.99246 349.484328 589.720337 387.588102 579.171547 
L 313.659772 312.1316 
L 313.659772 35.04726 
z
" style="fill: #0000ff"/>
   </g>
   <g id="patch_3">
    <path d="M 387.588102 579.171547 
C 452.166648 561.293382 508.117794 520.582616 544.998509 464.63773 
C 581.879224 408.692844 597.242742 341.225374 588.22153 274.82782 
C 579.200319 208.430266 546.392869 147.507623 495.922546 103.430828 
C 445.452223 59.354033 380.667363 35.04726 313.659772 35.04726 
L 313.659772 312.1316 
L 387.588102 579.171547 
z
" style="fill: #ff0000"/>
   </g>
   <g id="matplotlib.axis_1"/>
   <g id="matplotlib.axis_2"/>
  </g>
 </g>
</svg>
