<?xml version="1.0" encoding="utf-8" standalone="no"?>
<!DOCTYPE svg PUBLIC "-//W3C//DTD SVG 1.1//EN"
  "http://www.w3.org/Graphics/SVG/1.1/DTD/svg11.dtd">
<svg xmlns:xlink="http://www.w3.org/1999/xlink" width="371.52pt" height="280.512pt" viewBox="0 0 371.52 280.512" xmlns="http://www.w3.org/2000/svg" version="1.1">
 <metadata>
  <rdf:RDF xmlns:dc="http://purl.org/dc/elements/1.1/" xmlns:cc="http://creativecommons.org/ns#" xmlns:rdf="http://www.w3.org/1999/02/22-rdf-syntax-ns#">
   <cc:Work>
    <dc:type rdf:resource="http://purl.org/dc/dcmitype/StillImage"/>
    <dc:date>2021-12-03T16:09:57.960795</dc:date>
    <dc:format>image/svg+xml</dc:format>
    <dc:creator>
     <cc:Agent>
      <dc:title>Matplotlib v3.5.0, https://matplotlib.org/</dc:title>
     </cc:Agent>
    </dc:creator>
   </cc:Work>
  </rdf:RDF>
 </metadata>
 <defs>
  <style type="text/css">*{stroke-linejoin: round; stroke-linecap: butt}</style>
 </defs>
 <g id="figure_1">
  <g id="patch_1">
   <path d="M 0 280.512 
L 371.52 280.512 
L 371.52 0 
L 0 0 
L 0 280.512 
z
" style="fill: none"/>
  </g>
  <g id="axes_1">
   <g id="patch_2">
    <path d="M 185.077089 19.296 
C 168.169825 19.296 151.450294 22.854237 136.008198 29.738803 
C 120.566101 36.623368 106.744369 46.681373 95.443835 59.257284 
C 84.143302 71.833195 75.614924 86.647732 70.414541 102.735355 
C 65.214158 118.822978 63.457258 135.82642 65.258347 152.637478 
C 67.059435 169.448536 72.378515 185.693878 80.868913 200.31471 
C 89.359312 214.935542 100.832478 227.607171 114.540647 237.503721 
C 128.248815 247.400272 143.887561 254.301965 160.437625 257.758983 
C 176.987689 261.216 194.081536 261.151569 210.605069 257.569889 
L 185.077089 139.800442 
L 185.077089 19.296 
z
" style="fill: #0000ff"/>
   </g>
   <g id="patch_3">
    <path d="M 210.605069 257.569889 
C 239.658917 251.27211 265.378954 234.440387 282.780369 210.336884 
C 300.181784 186.233382 308.062742 156.522817 304.895831 126.963406 
C 301.728921 97.403995 287.732866 70.03727 265.620247 50.167188 
C 243.507629 30.297106 214.805662 19.296 185.077089 19.296 
L 185.077089 139.800442 
L 210.605069 257.569889 
z
" style="fill: #bf00bf"/>
   </g>
   <g id="matplotlib.axis_1"/>
   <g id="matplotlib.axis_2"/>
  </g>
 </g>
</svg>
