<?xml version="1.0" encoding="utf-8" standalone="no"?>
<!DOCTYPE svg PUBLIC "-//W3C//DTD SVG 1.1//EN"
  "http://www.w3.org/Graphics/SVG/1.1/DTD/svg11.dtd">
<svg xmlns:xlink="http://www.w3.org/1999/xlink" width="69.62805pt" height="69.27174pt" viewBox="0 0 69.62805 69.27174" xmlns="http://www.w3.org/2000/svg" version="1.1">
 <metadata>
  <rdf:RDF xmlns:dc="http://purl.org/dc/elements/1.1/" xmlns:cc="http://creativecommons.org/ns#" xmlns:rdf="http://www.w3.org/1999/02/22-rdf-syntax-ns#">
   <cc:Work>
    <dc:type rdf:resource="http://purl.org/dc/dcmitype/StillImage"/>
    <dc:date>2022-01-14T17:05:44.591720</dc:date>
    <dc:format>image/svg+xml</dc:format>
    <dc:creator>
     <cc:Agent>
      <dc:title>Matplotlib v3.5.1, https://matplotlib.org/</dc:title>
     </cc:Agent>
    </dc:creator>
   </cc:Work>
  </rdf:RDF>
 </metadata>
 <defs>
  <style type="text/css">*{stroke-linejoin: round; stroke-linecap: butt}</style>
 </defs>
 <g id="figure_1">
  <g id="patch_1">
   <path d="M -0 69.27174 
L 69.62805 69.27174 
L 69.62805 0 
L -0 0 
L -0 69.27174 
z
" style="fill: none"/>
  </g>
  <g id="axes_1">
   <g id="patch_2">
    <path d="M 34.673852 9.69417 
C 31.203495 9.69417 27.771671 10.427871 24.602052 11.847454 
C 21.432433 13.267037 18.595407 15.340977 16.275878 17.934103 
C 13.956349 20.52723 12.205828 23.581957 11.138406 26.899191 
C 10.070984 30.216425 9.710366 33.7225 10.080054 37.188905 
C 10.449743 40.65531 11.541528 44.005066 13.284254 47.019851 
C 15.026979 50.034636 17.381942 52.647499 20.195658 54.688148 
C 23.009374 56.728796 26.219357 58.15191 29.616396 58.86474 
C 33.013435 59.57757 36.52209 59.564284 39.913683 58.82575 
L 34.673852 34.541935 
L 34.673852 9.69417 
z
" style="fill: #0000ff; stroke: #000000; stroke-linejoin: miter"/>
   </g>
   <g id="patch_3">
    <path d="M 39.913683 58.82575 
C 45.877228 57.527161 51.15648 54.056494 54.728266 49.086402 
C 58.300052 44.11631 59.917684 37.990054 59.267649 31.894965 
C 58.617614 25.799876 55.744807 20.156914 51.206008 16.059745 
C 46.667208 11.962575 40.77589 9.69417 34.673852 9.69417 
L 34.673852 34.541935 
L 39.913683 58.82575 
z
" style="fill: #ff0000; stroke: #000000; stroke-linejoin: miter"/>
   </g>
   <g id="matplotlib.axis_1"/>
   <g id="matplotlib.axis_2"/>
  </g>
 </g>
</svg>
