<?xml version="1.0" encoding="utf-8" standalone="no"?>
<!DOCTYPE svg PUBLIC "-//W3C//DTD SVG 1.1//EN"
  "http://www.w3.org/Graphics/SVG/1.1/DTD/svg11.dtd">
<svg xmlns:xlink="http://www.w3.org/1999/xlink" width="57.91005pt" height="57.62934pt" viewBox="0 0 57.91005 57.62934" xmlns="http://www.w3.org/2000/svg" version="1.1">
 <metadata>
  <rdf:RDF xmlns:dc="http://purl.org/dc/elements/1.1/" xmlns:cc="http://creativecommons.org/ns#" xmlns:rdf="http://www.w3.org/1999/02/22-rdf-syntax-ns#">
   <cc:Work>
    <dc:type rdf:resource="http://purl.org/dc/dcmitype/StillImage"/>
    <dc:date>2022-01-14T17:05:45.643302</dc:date>
    <dc:format>image/svg+xml</dc:format>
    <dc:creator>
     <cc:Agent>
      <dc:title>Matplotlib v3.5.1, https://matplotlib.org/</dc:title>
     </cc:Agent>
    </dc:creator>
   </cc:Work>
  </rdf:RDF>
 </metadata>
 <defs>
  <style type="text/css">*{stroke-linejoin: round; stroke-linecap: butt}</style>
 </defs>
 <g id="figure_1">
  <g id="patch_1">
   <path d="M 0 57.62934 
L 57.91005 57.62934 
L 57.91005 0 
L 0 0 
L 0 57.62934 
z
" style="fill: none"/>
  </g>
  <g id="axes_1">
   <g id="patch_2">
    <path d="M 28.899103 9.16497 
C 26.245477 9.16497 23.619231 9.701998 21.179659 10.74348 
C 18.740087 11.784963 16.537532 13.309408 14.705588 15.224351 
C 12.873644 17.139294 11.450115 19.405219 10.521345 21.884687 
C 9.592575 24.364154 9.17773 27.005999 9.301971 29.649981 
C 9.426213 32.293963 10.086978 34.885521 11.244188 37.267465 
C 12.401398 39.649408 14.031173 41.772586 16.034659 43.508215 
C 18.038145 45.243844 20.373999 46.556109 22.90054 47.365416 
C 25.427081 48.174723 28.092173 48.46437 30.734165 48.216789 
L 28.899103 28.733776 
L 28.899103 9.16497 
z
" style="fill: #0000ff; stroke: #000000; stroke-linejoin: miter"/>
   </g>
   <g id="patch_3">
    <path d="M 30.734165 48.216789 
C 35.754514 47.746333 40.404704 45.362919 43.711171 41.565539 
C 47.017637 37.768159 48.73232 32.841701 48.496234 27.817571 
C 48.260148 22.793441 46.091004 18.04856 42.442935 14.576319 
C 38.794866 11.104077 33.941559 9.16497 28.899103 9.16497 
L 28.899103 28.733776 
L 30.734165 48.216789 
z
" style="fill: #ff0000; stroke: #000000; stroke-linejoin: miter"/>
   </g>
   <g id="matplotlib.axis_1"/>
   <g id="matplotlib.axis_2"/>
  </g>
 </g>
</svg>
