<?xml version="1.0" encoding="utf-8" standalone="no"?>
<!DOCTYPE svg PUBLIC "-//W3C//DTD SVG 1.1//EN"
  "http://www.w3.org/Graphics/SVG/1.1/DTD/svg11.dtd">
<svg xmlns:xlink="http://www.w3.org/1999/xlink" width="81.62505pt" height="81.19134pt" viewBox="0 0 81.62505 81.19134" xmlns="http://www.w3.org/2000/svg" version="1.1">
 <metadata>
  <rdf:RDF xmlns:dc="http://purl.org/dc/elements/1.1/" xmlns:cc="http://creativecommons.org/ns#" xmlns:rdf="http://www.w3.org/1999/02/22-rdf-syntax-ns#">
   <cc:Work>
    <dc:type rdf:resource="http://purl.org/dc/dcmitype/StillImage"/>
    <dc:date>2021-12-14T09:20:49.912519</dc:date>
    <dc:format>image/svg+xml</dc:format>
    <dc:creator>
     <cc:Agent>
      <dc:title>Matplotlib v3.5.0, https://matplotlib.org/</dc:title>
     </cc:Agent>
    </dc:creator>
   </cc:Work>
  </rdf:RDF>
 </metadata>
 <defs>
  <style type="text/css">*{stroke-linejoin: round; stroke-linecap: butt}</style>
 </defs>
 <g id="figure_1">
  <g id="patch_1">
   <path d="M 0 81.19134 
L 81.62505 81.19134 
L 81.62505 -0 
L 0 -0 
L 0 81.19134 
z
" style="fill: none"/>
  </g>
  <g id="axes_1">
   <g id="patch_2">
    <path d="M 40.559084 10.23597 
C 36.036248 10.23597 31.57022 11.248149 27.489319 13.198096 
C 23.408418 15.148043 19.815158 17.986775 16.973698 21.505603 
C 14.132238 25.024431 12.113956 29.13496 11.067226 33.535006 
C 10.020496 37.935052 9.971612 42.514082 10.924168 46.935472 
C 11.876724 51.356861 13.806791 55.509541 16.572481 59.088229 
C 19.33817 62.666917 22.870007 65.581714 26.908349 67.618339 
C 30.946691 69.654964 35.390093 70.762256 39.911898 70.858813 
C 44.433703 70.95537 48.920322 70.038766 53.041922 68.176386 
L 40.559084 40.550846 
L 40.559084 10.23597 
z
" style="fill: #0000ff"/>
   </g>
   <g id="patch_3">
    <path d="M 53.041922 68.176386 
C 59.356744 65.322979 64.506204 60.388841 67.626576 54.201582 
C 70.746948 48.014322 71.653438 40.940361 70.194001 34.166223 
C 68.734563 27.392085 64.995627 21.318946 59.60433 16.965463 
C 54.213033 12.611979 47.488657 10.235971 40.559089 10.23597 
L 40.559084 40.550846 
L 53.041922 68.176386 
z
" style="fill: #ff0000"/>
   </g>
   <g id="matplotlib.axis_1"/>
   <g id="matplotlib.axis_2"/>
  </g>
 </g>
</svg>
