<?xml version="1.0" encoding="utf-8" standalone="no"?>
<!DOCTYPE svg PUBLIC "-//W3C//DTD SVG 1.1//EN"
  "http://www.w3.org/Graphics/SVG/1.1/DTD/svg11.dtd">
<svg xmlns:xlink="http://www.w3.org/1999/xlink" width="371.52pt" height="280.512pt" viewBox="0 0 371.52 280.512" xmlns="http://www.w3.org/2000/svg" version="1.1">
 <metadata>
  <rdf:RDF xmlns:dc="http://purl.org/dc/elements/1.1/" xmlns:cc="http://creativecommons.org/ns#" xmlns:rdf="http://www.w3.org/1999/02/22-rdf-syntax-ns#">
   <cc:Work>
    <dc:type rdf:resource="http://purl.org/dc/dcmitype/StillImage"/>
    <dc:date>2021-12-03T16:09:59.836886</dc:date>
    <dc:format>image/svg+xml</dc:format>
    <dc:creator>
     <cc:Agent>
      <dc:title>Matplotlib v3.5.0, https://matplotlib.org/</dc:title>
     </cc:Agent>
    </dc:creator>
   </cc:Work>
  </rdf:RDF>
 </metadata>
 <defs>
  <style type="text/css">*{stroke-linejoin: round; stroke-linecap: butt}</style>
 </defs>
 <g id="figure_1">
  <g id="patch_1">
   <path d="M 0 280.512 
L 371.52 280.512 
L 371.52 0 
L 0 0 
L 0 280.512 
z
" style="fill: none"/>
  </g>
  <g id="axes_1">
   <g id="patch_2">
    <path d="M 184.750232 19.296 
C 166.730217 19.296 148.936538 23.328752 132.677294 31.097788 
C 116.418049 38.866824 102.10168 50.176982 90.780652 64.196799 
C 79.459624 78.216616 71.418326 94.593906 67.247913 112.124696 
C 63.0775 129.655487 62.882736 147.899394 66.677937 165.515222 
C 70.473138 183.13105 78.162968 199.67628 89.18211 213.934592 
C 100.201252 228.192904 114.272899 239.806122 130.362579 247.920502 
C 146.452258 256.034883 164.155787 260.446589 182.171695 260.831294 
C 200.187604 261.216 218.063322 257.564041 234.48472 250.143891 
L 184.750232 140.077411 
L 184.750232 19.296 
z
" style="fill: #0000ff"/>
   </g>
   <g id="patch_3">
    <path d="M 234.48472 250.143891 
C 259.644416 238.775265 280.161044 219.116529 292.593321 194.46507 
C 305.025598 169.813611 308.637264 141.629327 302.82253 114.639611 
C 297.007796 87.649894 282.111019 63.453117 260.630857 46.107841 
C 239.150695 28.762566 212.359238 19.296005 184.750255 19.296 
L 184.750232 140.077411 
L 234.48472 250.143891 
z
" style="fill: #bf00bf"/>
   </g>
   <g id="matplotlib.axis_1"/>
   <g id="matplotlib.axis_2"/>
  </g>
 </g>
</svg>
