<?xml version="1.0" encoding="utf-8" standalone="no"?>
<!DOCTYPE svg PUBLIC "-//W3C//DTD SVG 1.1//EN"
  "http://www.w3.org/Graphics/SVG/1.1/DTD/svg11.dtd">
<svg xmlns:xlink="http://www.w3.org/1999/xlink" width="183.5298pt" height="182.43864pt" viewBox="0 0 183.5298 182.43864" xmlns="http://www.w3.org/2000/svg" version="1.1">
 <metadata>
  <rdf:RDF xmlns:dc="http://purl.org/dc/elements/1.1/" xmlns:cc="http://creativecommons.org/ns#" xmlns:rdf="http://www.w3.org/1999/02/22-rdf-syntax-ns#">
   <cc:Work>
    <dc:type rdf:resource="http://purl.org/dc/dcmitype/StillImage"/>
    <dc:date>2021-12-14T09:20:50.842555</dc:date>
    <dc:format>image/svg+xml</dc:format>
    <dc:creator>
     <cc:Agent>
      <dc:title>Matplotlib v3.5.0, https://matplotlib.org/</dc:title>
     </cc:Agent>
    </dc:creator>
   </cc:Work>
  </rdf:RDF>
 </metadata>
 <defs>
  <style type="text/css">*{stroke-linejoin: round; stroke-linecap: butt}</style>
 </defs>
 <g id="figure_1">
  <g id="patch_1">
   <path d="M 0 182.43864 
L 183.5298 182.43864 
L 183.5298 0 
L 0 0 
L 0 182.43864 
z
" style="fill: none"/>
  </g>
  <g id="axes_1">
   <g id="patch_2">
    <path d="M 91.127761 14.83812 
C 79.752692 14.83812 68.520417 17.383065 58.256219 22.285966 
C 47.992021 27.188867 38.953598 34.32663 31.805042 43.174813 
C 24.656486 52.022996 19.577272 62.359452 16.940591 73.424718 
C 14.30391 84.489984 14.175961 96.00625 16.566143 107.127366 
C 18.956325 118.248482 23.804631 128.695237 30.754834 137.700062 
C 37.705037 146.704887 46.582642 154.041704 56.735374 159.171444 
C 66.888105 164.301184 78.061065 167.095058 89.433325 167.347789 
C 100.805586 167.60052 112.091633 165.305762 122.462229 160.632121 
L 91.127761 91.102368 
L 91.127761 14.83812 
z
" style="fill: #0000ff"/>
   </g>
   <g id="patch_3">
    <path d="M 122.462229 160.632121 
C 138.361702 153.466821 151.332276 141.060216 159.196836 125.494758 
C 167.061395 109.929301 169.353839 92.127494 165.68938 75.077376 
C 162.024922 58.027258 152.620738 42.739323 139.055324 31.779656 
C 125.48991 20.819988 108.567235 14.838123 91.127775 14.83812 
L 91.127761 91.102368 
L 122.462229 160.632121 
z
" style="fill: #ff0000"/>
   </g>
   <g id="matplotlib.axis_1"/>
   <g id="matplotlib.axis_2"/>
  </g>
 </g>
</svg>
