<?xml version="1.0" encoding="utf-8" standalone="no"?>
<!DOCTYPE svg PUBLIC "-//W3C//DTD SVG 1.1//EN"
  "http://www.w3.org/Graphics/SVG/1.1/DTD/svg11.dtd">
<svg xmlns:xlink="http://www.w3.org/1999/xlink" width="371.52pt" height="280.512pt" viewBox="0 0 371.52 280.512" xmlns="http://www.w3.org/2000/svg" version="1.1">
 <metadata>
  <rdf:RDF xmlns:dc="http://purl.org/dc/elements/1.1/" xmlns:cc="http://creativecommons.org/ns#" xmlns:rdf="http://www.w3.org/1999/02/22-rdf-syntax-ns#">
   <cc:Work>
    <dc:type rdf:resource="http://purl.org/dc/dcmitype/StillImage"/>
    <dc:date>2021-12-03T16:10:00.790176</dc:date>
    <dc:format>image/svg+xml</dc:format>
    <dc:creator>
     <cc:Agent>
      <dc:title>Matplotlib v3.5.0, https://matplotlib.org/</dc:title>
     </cc:Agent>
    </dc:creator>
   </cc:Work>
  </rdf:RDF>
 </metadata>
 <defs>
  <style type="text/css">*{stroke-linejoin: round; stroke-linecap: butt}</style>
 </defs>
 <g id="figure_1">
  <g id="patch_1">
   <path d="M 0 280.512 
L 371.52 280.512 
L 371.52 0 
L 0 0 
L 0 280.512 
z
" style="fill: none"/>
  </g>
  <g id="axes_1">
   <g id="patch_2">
    <path d="M 184.751004 19.296 
C 166.737038 19.296 148.949205 23.326265 132.694454 31.090675 
C 116.439704 38.855084 102.126134 50.158701 90.805425 64.171 
C 79.484716 78.183299 71.441091 94.552482 67.265549 112.075832 
C 63.090007 129.599183 62.887381 147.836754 66.672559 165.448551 
C 70.457737 183.060347 78.135688 199.604202 89.142277 213.864565 
C 100.148867 228.124928 114.20776 239.743773 130.285989 247.867413 
C 146.364218 255.991053 164.058116 260.415533 182.067635 260.815767 
C 200.077154 261.216 217.950141 257.581939 234.373388 250.180593 
L 184.751004 140.07079 
L 184.751004 19.296 
z
" style="fill: #0000ff"/>
   </g>
   <g id="patch_3">
    <path d="M 234.373388 250.180593 
C 259.552362 238.833368 280.093027 219.185825 292.547625 194.53581 
C 305.002223 169.885794 308.632619 141.694216 302.829451 114.69304 
C 297.026283 87.691864 282.133481 63.481344 260.650807 46.125222 
C 239.168133 28.7691 212.368779 19.296005 184.751027 19.296 
L 184.751004 140.07079 
L 234.373388 250.180593 
z
" style="fill: #bf00bf"/>
   </g>
   <g id="matplotlib.axis_1"/>
   <g id="matplotlib.axis_2"/>
  </g>
 </g>
</svg>
