<?xml version="1.0" encoding="utf-8" standalone="no"?>
<!DOCTYPE svg PUBLIC "-//W3C//DTD SVG 1.1//EN"
  "http://www.w3.org/Graphics/SVG/1.1/DTD/svg11.dtd">
<svg xmlns:xlink="http://www.w3.org/1999/xlink" width="35.9667pt" height="35.82756pt" viewBox="0 0 35.9667 35.82756" xmlns="http://www.w3.org/2000/svg" version="1.1">
 <metadata>
  <rdf:RDF xmlns:dc="http://purl.org/dc/elements/1.1/" xmlns:cc="http://creativecommons.org/ns#" xmlns:rdf="http://www.w3.org/1999/02/22-rdf-syntax-ns#">
   <cc:Work>
    <dc:type rdf:resource="http://purl.org/dc/dcmitype/StillImage"/>
    <dc:date>2022-01-14T17:05:48.450813</dc:date>
    <dc:format>image/svg+xml</dc:format>
    <dc:creator>
     <cc:Agent>
      <dc:title>Matplotlib v3.5.1, https://matplotlib.org/</dc:title>
     </cc:Agent>
    </dc:creator>
   </cc:Work>
  </rdf:RDF>
 </metadata>
 <defs>
  <style type="text/css">*{stroke-linejoin: round; stroke-linecap: butt}</style>
 </defs>
 <g id="figure_1">
  <g id="patch_1">
   <path d="M -0 35.82756 
L 35.9667 35.82756 
L 35.9667 0 
L -0 0 
L -0 35.82756 
z
" style="fill: none"/>
  </g>
  <g id="axes_1">
   <g id="patch_2">
    <path d="M 17.957856 8.17398 
C 16.645127 8.17398 15.345873 8.438846 14.138498 8.952593 
C 12.931123 9.466341 11.840413 10.218424 10.932189 11.163457 
C 10.023965 12.10849 9.316872 13.227073 8.853579 14.451703 
C 8.390286 15.676332 8.180305 16.98187 8.236306 18.28953 
C 8.292308 19.59719 8.613144 20.880129 9.179451 22.060925 
C 9.745759 23.241722 10.545913 24.296136 11.531628 25.160537 
C 12.517343 26.024939 13.668383 26.681583 14.915286 27.090844 
C 16.16219 27.500104 17.47936 27.65358 18.787311 27.542009 
L 17.957856 17.875651 
L 17.957856 8.17398 
z
" style="fill: #0000ff; stroke: #000000; stroke-linejoin: miter"/>
   </g>
   <g id="patch_3">
    <path d="M 18.787311 27.542009 
C 21.286118 27.328855 23.608011 26.160522 25.264321 24.2829 
C 26.920631 22.405278 27.786395 19.960025 27.679406 17.461772 
C 27.572416 14.963519 26.500743 12.60075 24.689933 10.870734 
C 22.879123 9.140719 20.465794 8.17398 17.957858 8.17398 
L 17.957856 17.875651 
L 18.787311 27.542009 
z
" style="fill: #ff0000; stroke: #000000; stroke-linejoin: miter"/>
   </g>
   <g id="matplotlib.axis_1"/>
   <g id="matplotlib.axis_2"/>
  </g>
 </g>
</svg>
