<?xml version="1.0" encoding="utf-8" standalone="no"?>
<!DOCTYPE svg PUBLIC "-//W3C//DTD SVG 1.1//EN"
  "http://www.w3.org/Graphics/SVG/1.1/DTD/svg11.dtd">
<svg xmlns:xlink="http://www.w3.org/1999/xlink" width="371.52pt" height="280.512pt" viewBox="0 0 371.52 280.512" xmlns="http://www.w3.org/2000/svg" version="1.1">
 <metadata>
  <rdf:RDF xmlns:dc="http://purl.org/dc/elements/1.1/" xmlns:cc="http://creativecommons.org/ns#" xmlns:rdf="http://www.w3.org/1999/02/22-rdf-syntax-ns#">
   <cc:Work>
    <dc:type rdf:resource="http://purl.org/dc/dcmitype/StillImage"/>
    <dc:date>2021-12-03T16:10:03.591599</dc:date>
    <dc:format>image/svg+xml</dc:format>
    <dc:creator>
     <cc:Agent>
      <dc:title>Matplotlib v3.5.0, https://matplotlib.org/</dc:title>
     </cc:Agent>
    </dc:creator>
   </cc:Work>
  </rdf:RDF>
 </metadata>
 <defs>
  <style type="text/css">*{stroke-linejoin: round; stroke-linecap: butt}</style>
 </defs>
 <g id="figure_1">
  <g id="patch_1">
   <path d="M 0 280.512 
L 371.52 280.512 
L 371.52 0 
L 0 0 
L 0 280.512 
z
" style="fill: none"/>
  </g>
  <g id="axes_1">
   <g id="patch_2">
    <path d="M 185.033501 19.296 
C 168.038298 19.296 151.233996 22.893388 135.728254 29.85104 
C 120.222513 36.808692 106.363674 46.970304 95.065246 59.666069 
C 83.766817 72.361835 75.282623 87.30654 70.1719 103.515101 
C 65.061176 119.723662 63.438738 136.831948 65.411529 153.712263 
C 67.38432 170.592578 72.90802 186.8657 81.618533 201.458983 
C 90.329047 216.052266 102.030689 228.637866 115.952144 238.386201 
C 129.873599 248.134536 145.702116 254.826607 162.394355 258.021303 
C 179.086595 261.216 196.26756 260.841553 212.804763 256.922644 
L 185.033501 139.732126 
L 185.033501 19.296 
z
" style="fill: #0000ff"/>
   </g>
   <g id="patch_3">
    <path d="M 212.804763 256.922644 
C 241.521942 250.11738 266.759396 232.988367 283.687573 208.813488 
C 300.61575 184.638608 308.081262 155.065 304.655474 125.752 
C 301.229687 96.439 287.146014 69.383828 265.09957 49.763882 
C 243.053126 30.143935 214.546029 19.296006 185.033524 19.296 
L 185.033501 139.732126 
L 212.804763 256.922644 
z
" style="fill: #bf00bf"/>
   </g>
   <g id="matplotlib.axis_1"/>
   <g id="matplotlib.axis_2"/>
  </g>
 </g>
</svg>
