<?xml version="1.0" encoding="utf-8" standalone="no"?>
<!DOCTYPE svg PUBLIC "-//W3C//DTD SVG 1.1//EN"
  "http://www.w3.org/Graphics/SVG/1.1/DTD/svg11.dtd">
<svg xmlns:xlink="http://www.w3.org/1999/xlink" width="371.52pt" height="280.512pt" viewBox="0 0 371.52 280.512" xmlns="http://www.w3.org/2000/svg" version="1.1">
 <metadata>
  <rdf:RDF xmlns:dc="http://purl.org/dc/elements/1.1/" xmlns:cc="http://creativecommons.org/ns#" xmlns:rdf="http://www.w3.org/1999/02/22-rdf-syntax-ns#">
   <cc:Work>
    <dc:type rdf:resource="http://purl.org/dc/dcmitype/StillImage"/>
    <dc:date>2021-12-03T16:10:02.671848</dc:date>
    <dc:format>image/svg+xml</dc:format>
    <dc:creator>
     <cc:Agent>
      <dc:title>Matplotlib v3.5.0, https://matplotlib.org/</dc:title>
     </cc:Agent>
    </dc:creator>
   </cc:Work>
  </rdf:RDF>
 </metadata>
 <defs>
  <style type="text/css">*{stroke-linejoin: round; stroke-linecap: butt}</style>
 </defs>
 <g id="figure_1">
  <g id="patch_1">
   <path d="M 0 280.512 
L 371.52 280.512 
L 371.52 0 
L 0 0 
L 0 280.512 
z
" style="fill: none"/>
  </g>
  <g id="axes_1">
   <g id="patch_2">
    <path d="M 185.507748 19.296 
C 169.337543 19.296 153.3314 22.54941 138.444316 28.862118 
C 123.557233 35.174825 110.091295 44.418733 98.849943 56.042309 
C 87.60859 67.665884 78.819929 81.433264 73.008331 96.523024 
C 67.196733 111.612784 64.480126 127.718726 65.020596 143.879896 
C 65.561065 160.041066 69.347643 175.929526 76.154406 190.597297 
C 82.961168 205.265068 92.649994 218.414515 104.642803 229.261083 
C 116.635613 240.107652 130.689051 248.431244 145.964625 253.735238 
C 161.2402 259.039232 177.427942 261.216 193.562018 260.135666 
L 185.507748 139.85051 
L 185.507748 19.296 
z
" style="fill: #0000ff"/>
   </g>
   <g id="patch_3">
    <path d="M 193.562018 260.135666 
C 224.756527 258.046888 253.94697 243.903012 274.918321 220.715455 
C 295.889673 197.527897 307.039874 167.068018 305.994901 135.821124 
C 304.949928 104.574229 291.78961 74.927354 269.31595 53.192704 
C 246.842289 31.458055 216.772111 19.296 185.507748 19.296 
L 185.507748 139.85051 
L 193.562018 260.135666 
z
" style="fill: #bf00bf"/>
   </g>
   <g id="matplotlib.axis_1"/>
   <g id="matplotlib.axis_2"/>
  </g>
 </g>
</svg>
