<?xml version="1.0" encoding="utf-8" standalone="no"?>
<!DOCTYPE svg PUBLIC "-//W3C//DTD SVG 1.1//EN"
  "http://www.w3.org/Graphics/SVG/1.1/DTD/svg11.dtd">
<svg xmlns:xlink="http://www.w3.org/1999/xlink" width="133.0587pt" height="132.29316pt" viewBox="0 0 133.0587 132.29316" xmlns="http://www.w3.org/2000/svg" version="1.1">
 <metadata>
  <rdf:RDF xmlns:dc="http://purl.org/dc/elements/1.1/" xmlns:cc="http://creativecommons.org/ns#" xmlns:rdf="http://www.w3.org/1999/02/22-rdf-syntax-ns#">
   <cc:Work>
    <dc:type rdf:resource="http://purl.org/dc/dcmitype/StillImage"/>
    <dc:date>2022-01-14T17:05:50.418820</dc:date>
    <dc:format>image/svg+xml</dc:format>
    <dc:creator>
     <cc:Agent>
      <dc:title>Matplotlib v3.5.1, https://matplotlib.org/</dc:title>
     </cc:Agent>
    </dc:creator>
   </cc:Work>
  </rdf:RDF>
 </metadata>
 <defs>
  <style type="text/css">*{stroke-linejoin: round; stroke-linecap: butt}</style>
 </defs>
 <g id="figure_1">
  <g id="patch_1">
   <path d="M 0 132.29316 
L 133.0587 132.29316 
L 133.0587 0 
L 0 0 
L 0 132.29316 
z
" style="fill: none"/>
  </g>
  <g id="axes_1">
   <g id="patch_2">
    <path d="M 66.209011 12.55878 
C 58.715224 12.55878 51.305613 14.152498 44.468583 17.234883 
C 37.631553 20.317268 31.5207 24.819073 26.538823 30.443562 
C 21.556947 36.06805 17.815965 42.688866 15.562466 49.869596 
C 13.308968 57.050326 12.593577 64.629654 13.463451 72.107985 
C 14.333324 79.586316 16.768919 86.795648 20.609692 93.260777 
C 24.450466 99.725905 29.610134 105.301588 35.748596 109.620303 
C 41.887058 113.939019 48.866411 116.903746 56.226611 118.319063 
C 63.58681 119.73438 71.162505 119.568492 78.454343 117.832334 
L 66.209011 65.914493 
L 66.209011 12.55878 
z
" style="fill: #0000ff; stroke: #000000; stroke-linejoin: miter"/>
   </g>
   <g id="patch_3">
    <path d="M 78.454343 117.832334 
C 91.116764 114.81746 102.24485 107.228951 109.709082 96.518975 
C 117.173315 85.809 120.465123 72.707275 118.954572 59.721006 
C 117.444021 46.734736 111.234031 34.748731 101.512974 26.056686 
C 91.791917 17.364641 79.222129 12.558782 66.209021 12.55878 
L 66.209011 65.914493 
L 78.454343 117.832334 
z
" style="fill: #ff0000; stroke: #000000; stroke-linejoin: miter"/>
   </g>
   <g id="matplotlib.axis_1"/>
   <g id="matplotlib.axis_2"/>
  </g>
 </g>
</svg>
