<?xml version="1.0" encoding="utf-8" standalone="no"?>
<!DOCTYPE svg PUBLIC "-//W3C//DTD SVG 1.1//EN"
  "http://www.w3.org/Graphics/SVG/1.1/DTD/svg11.dtd">
<svg xmlns:xlink="http://www.w3.org/1999/xlink" width="119.93175pt" height="119.2509pt" viewBox="0 0 119.93175 119.2509" xmlns="http://www.w3.org/2000/svg" version="1.1">
 <metadata>
  <rdf:RDF xmlns:dc="http://purl.org/dc/elements/1.1/" xmlns:cc="http://creativecommons.org/ns#" xmlns:rdf="http://www.w3.org/1999/02/22-rdf-syntax-ns#">
   <cc:Work>
    <dc:type rdf:resource="http://purl.org/dc/dcmitype/StillImage"/>
    <dc:date>2021-12-14T09:20:52.652754</dc:date>
    <dc:format>image/svg+xml</dc:format>
    <dc:creator>
     <cc:Agent>
      <dc:title>Matplotlib v3.5.0, https://matplotlib.org/</dc:title>
     </cc:Agent>
    </dc:creator>
   </cc:Work>
  </rdf:RDF>
 </metadata>
 <defs>
  <style type="text/css">*{stroke-linejoin: round; stroke-linecap: butt}</style>
 </defs>
 <g id="figure_1">
  <g id="patch_1">
   <path d="M 0 119.2509 
L 119.93175 119.2509 
L 119.93175 0 
L 0 0 
L 0 119.2509 
z
" style="fill: none"/>
  </g>
  <g id="axes_1">
   <g id="patch_2">
    <path d="M 59.866104 11.96595 
C 53.470416 11.96595 47.139618 13.247828 41.251435 15.7351 
C 35.363251 18.222372 30.037163 21.864569 25.59095 26.444378 
C 21.144737 31.024188 17.668619 36.448679 15.369999 42.394202 
C 13.071378 48.339725 11.996898 54.685634 12.210666 61.053303 
C 12.424434 67.420972 13.922112 73.681191 16.614343 79.460445 
C 19.306574 85.2397 23.138728 90.420719 27.88216 94.69438 
C 32.625591 98.968041 38.184049 102.247623 44.22589 104.337452 
C 50.26773 106.427281 56.670355 107.28495 63.051752 106.859287 
L 59.866104 59.465683 
L 59.866104 11.96595 
z
" style="fill: #0000ff"/>
   </g>
   <g id="patch_3">
    <path d="M 63.051752 106.859287 
C 75.389898 106.036287 86.935389 100.463452 95.23004 91.327313 
C 103.524692 82.191174 107.934852 70.189665 107.521541 57.878063 
C 107.108231 45.566461 101.903022 33.885283 93.014173 25.321605 
C 84.125324 16.757926 72.231878 11.96595 59.866104 11.96595 
L 59.866104 59.465683 
L 63.051752 106.859287 
z
" style="fill: #ff0000"/>
   </g>
   <g id="matplotlib.axis_1"/>
   <g id="matplotlib.axis_2"/>
  </g>
 </g>
</svg>
