<?xml version="1.0" encoding="utf-8" standalone="no"?>
<!DOCTYPE svg PUBLIC "-//W3C//DTD SVG 1.1//EN"
  "http://www.w3.org/Graphics/SVG/1.1/DTD/svg11.dtd">
<svg xmlns:xlink="http://www.w3.org/1999/xlink" width="403.06095pt" height="400.55346pt" viewBox="0 0 403.06095 400.55346" xmlns="http://www.w3.org/2000/svg" version="1.1">
 <metadata>
  <rdf:RDF xmlns:dc="http://purl.org/dc/elements/1.1/" xmlns:cc="http://creativecommons.org/ns#" xmlns:rdf="http://www.w3.org/1999/02/22-rdf-syntax-ns#">
   <cc:Work>
    <dc:type rdf:resource="http://purl.org/dc/dcmitype/StillImage"/>
    <dc:date>2021-12-14T09:20:54.506946</dc:date>
    <dc:format>image/svg+xml</dc:format>
    <dc:creator>
     <cc:Agent>
      <dc:title>Matplotlib v3.5.0, https://matplotlib.org/</dc:title>
     </cc:Agent>
    </dc:creator>
   </cc:Work>
  </rdf:RDF>
 </metadata>
 <defs>
  <style type="text/css">*{stroke-linejoin: round; stroke-linecap: butt}</style>
 </defs>
 <g id="figure_1">
  <g id="patch_1">
   <path d="M 0 400.55346 
L 403.06095 400.55346 
L 403.06095 -0 
L 0 -0 
L 0 400.55346 
z
" style="fill: none"/>
  </g>
  <g id="axes_1">
   <g id="patch_2">
    <path d="M 200.31474 24.75243 
C 173.654197 24.75243 147.342747 30.843914 123.394769 42.560525 
C 99.446792 54.277135 78.489437 71.312037 62.12718 92.361055 
C 45.764924 113.410072 34.42626 137.921973 28.979266 164.02015 
C 23.532272 190.118327 24.119594 217.11932 30.696267 242.95596 
C 37.272941 268.792599 49.666735 292.788275 66.928794 313.105901 
C 84.190853 333.423526 105.869117 349.531024 130.303918 360.195218 
C 154.73872 370.859412 181.290161 375.80103 207.925488 374.641745 
C 234.560815 373.48246 260.582502 366.252632 283.998353 353.50577 
L 200.31474 199.779862 
L 200.31474 24.75243 
z
" style="fill: #0000ff"/>
   </g>
   <g id="patch_3">
    <path d="M 283.998353 353.50577 
C 318.162428 334.907908 345.170873 305.44143 360.730094 269.790691 
C 376.289314 234.139952 379.528678 194.299822 369.933217 156.603779 
C 360.337756 118.907736 338.444393 85.465097 307.733567 61.592317 
C 277.02274 37.719536 239.212903 24.752437 200.314773 24.75243 
L 200.31474 199.779862 
L 283.998353 353.50577 
z
" style="fill: #ff0000"/>
   </g>
   <g id="matplotlib.axis_1"/>
   <g id="matplotlib.axis_2"/>
  </g>
 </g>
</svg>
