<?xml version="1.0" encoding="utf-8" standalone="no"?>
<!DOCTYPE svg PUBLIC "-//W3C//DTD SVG 1.1//EN"
  "http://www.w3.org/Graphics/SVG/1.1/DTD/svg11.dtd">
<svg xmlns:xlink="http://www.w3.org/1999/xlink" width="371.52pt" height="280.512pt" viewBox="0 0 371.52 280.512" xmlns="http://www.w3.org/2000/svg" version="1.1">
 <metadata>
  <rdf:RDF xmlns:dc="http://purl.org/dc/elements/1.1/" xmlns:cc="http://creativecommons.org/ns#" xmlns:rdf="http://www.w3.org/1999/02/22-rdf-syntax-ns#">
   <cc:Work>
    <dc:type rdf:resource="http://purl.org/dc/dcmitype/StillImage"/>
    <dc:date>2021-12-03T16:10:13.193897</dc:date>
    <dc:format>image/svg+xml</dc:format>
    <dc:creator>
     <cc:Agent>
      <dc:title>Matplotlib v3.5.0, https://matplotlib.org/</dc:title>
     </cc:Agent>
    </dc:creator>
   </cc:Work>
  </rdf:RDF>
 </metadata>
 <defs>
  <style type="text/css">*{stroke-linejoin: round; stroke-linecap: butt}</style>
 </defs>
 <g id="figure_1">
  <g id="patch_1">
   <path d="M 0 280.512 
L 371.52 280.512 
L 371.52 0 
L 0 0 
L 0 280.512 
z
" style="fill: none"/>
  </g>
  <g id="axes_1">
   <g id="patch_2">
    <path d="M 184.780413 19.296 
C 166.558208 19.296 148.569752 23.417049 132.164915 31.3499 
C 115.760079 39.282751 101.359736 50.823884 90.044502 65.107239 
C 78.729268 79.390595 70.78944 96.049729 66.82083 113.834523 
C 62.85222 131.619317 62.956644 150.073496 67.126267 167.812239 
C 71.29589 185.550982 79.423738 202.119196 90.899889 216.273585 
C 102.376041 230.427973 116.90607 241.805401 133.39963 249.552094 
C 149.89319 257.298786 167.927132 261.216 186.14817 261.009783 
C 204.369209 260.803566 222.309876 256.479209 238.623887 248.361216 
L 184.780413 140.156761 
L 184.780413 19.296 
z
" style="fill: #0000ff"/>
   </g>
   <g id="patch_3">
    <path d="M 238.623887 248.361216 
C 263.011903 236.225528 282.595119 216.19397 294.175746 191.537544 
C 305.756372 166.881119 308.66778 139.019149 302.43456 112.501284 
C 296.201339 85.983418 281.182299 62.336133 259.829935 45.42085 
C 238.477572 28.505568 212.021012 19.296 184.780413 19.296 
L 184.780413 140.156761 
L 238.623887 248.361216 
z
" style="fill: #bf00bf"/>
   </g>
   <g id="matplotlib.axis_1"/>
   <g id="matplotlib.axis_2"/>
  </g>
 </g>
</svg>
