<?xml version="1.0" encoding="utf-8" standalone="no"?>
<!DOCTYPE svg PUBLIC "-//W3C//DTD SVG 1.1//EN"
  "http://www.w3.org/Graphics/SVG/1.1/DTD/svg11.dtd">
<svg xmlns:xlink="http://www.w3.org/1999/xlink" width="19.24065pt" height="19.20942pt" viewBox="0 0 19.24065 19.20942" xmlns="http://www.w3.org/2000/svg" version="1.1">
 <metadata>
  <rdf:RDF xmlns:dc="http://purl.org/dc/elements/1.1/" xmlns:cc="http://creativecommons.org/ns#" xmlns:rdf="http://www.w3.org/1999/02/22-rdf-syntax-ns#">
   <cc:Work>
    <dc:type rdf:resource="http://purl.org/dc/dcmitype/StillImage"/>
    <dc:date>2022-01-14T17:05:59.811192</dc:date>
    <dc:format>image/svg+xml</dc:format>
    <dc:creator>
     <cc:Agent>
      <dc:title>Matplotlib v3.5.1, https://matplotlib.org/</dc:title>
     </cc:Agent>
    </dc:creator>
   </cc:Work>
  </rdf:RDF>
 </metadata>
 <defs>
  <style type="text/css">*{stroke-linejoin: round; stroke-linecap: butt}</style>
 </defs>
 <g id="figure_1">
  <g id="patch_1">
   <path d="M 0 19.20942 
L 19.24065 19.20942 
L 19.24065 0 
L 0 0 
L 0 19.20942 
z
" style="fill: none"/>
  </g>
  <g id="axes_1">
   <g id="patch_2">
    <path d="M 9.602621 7.41861 
C 9.273293 7.41861 8.948189 7.493089 8.651706 7.636459 
C 8.355222 7.779829 8.094966 7.988411 7.890467 8.246553 
C 7.685968 8.504695 7.542472 8.805774 7.470747 9.127197 
C 7.399023 9.44862 7.40091 9.782141 7.476267 10.102732 
C 7.551625 10.423322 7.698519 10.722758 7.905926 10.978569 
C 8.113334 11.234381 8.375934 11.440004 8.67402 11.580009 
C 8.972107 11.720015 9.298033 11.79081 9.62734 11.787083 
C 9.956648 11.783356 10.280888 11.705202 10.57573 11.558487 
L 9.602621 9.602916 
L 9.602621 7.41861 
z
" style="fill: #0000ff; stroke: #000000; stroke-linejoin: miter"/>
   </g>
   <g id="patch_3">
    <path d="M 10.57573 11.558487 
C 11.016492 11.339159 11.370418 10.977131 11.579714 10.531517 
C 11.789009 10.085904 11.841627 9.582356 11.728975 9.103101 
C 11.616322 8.623846 11.344884 8.196471 10.958985 7.890762 
C 10.573085 7.585054 10.094938 7.41861 9.602621 7.41861 
L 9.602621 9.602916 
L 10.57573 11.558487 
z
" style="fill: #ff0000; stroke: #000000; stroke-linejoin: miter"/>
   </g>
   <g id="matplotlib.axis_1"/>
   <g id="matplotlib.axis_2"/>
  </g>
 </g>
</svg>
