<?xml version="1.0" encoding="utf-8" standalone="no"?>
<!DOCTYPE svg PUBLIC "-//W3C//DTD SVG 1.1//EN"
  "http://www.w3.org/Graphics/SVG/1.1/DTD/svg11.dtd">
<svg xmlns:xlink="http://www.w3.org/1999/xlink" width="371.52pt" height="280.512pt" viewBox="0 0 371.52 280.512" xmlns="http://www.w3.org/2000/svg" version="1.1">
 <metadata>
  <rdf:RDF xmlns:dc="http://purl.org/dc/elements/1.1/" xmlns:cc="http://creativecommons.org/ns#" xmlns:rdf="http://www.w3.org/1999/02/22-rdf-syntax-ns#">
   <cc:Work>
    <dc:type rdf:resource="http://purl.org/dc/dcmitype/StillImage"/>
    <dc:date>2021-12-03T16:10:05.510146</dc:date>
    <dc:format>image/svg+xml</dc:format>
    <dc:creator>
     <cc:Agent>
      <dc:title>Matplotlib v3.5.0, https://matplotlib.org/</dc:title>
     </cc:Agent>
    </dc:creator>
   </cc:Work>
  </rdf:RDF>
 </metadata>
 <defs>
  <style type="text/css">*{stroke-linejoin: round; stroke-linecap: butt}</style>
 </defs>
 <g id="figure_1">
  <g id="patch_1">
   <path d="M 0 280.512 
L 371.52 280.512 
L 371.52 0 
L 0 0 
L 0 280.512 
z
" style="fill: none"/>
  </g>
  <g id="axes_1">
   <g id="patch_2">
    <path d="M 184.795853 19.296 
C 167.059529 19.296 149.539942 23.211282 133.490972 30.761629 
C 117.442002 38.311976 103.255883 49.312859 91.94792 62.976941 
C 80.639956 76.641023 72.486513 92.634357 68.071133 109.812296 
C 63.655753 126.990235 63.086348 144.932954 66.40367 162.356287 
C 69.720993 179.779621 76.843967 196.257746 87.262802 210.611319 
C 97.681636 224.964892 111.141696 236.843115 126.67964 245.39586 
C 142.217585 253.948605 159.453671 258.966845 177.154306 260.091422 
C 194.854942 261.216 212.587527 258.419431 229.082937 251.901867 
L 184.795853 139.814962 
L 184.795853 19.296 
z
" style="fill: #0000ff"/>
   </g>
   <g id="patch_3">
    <path d="M 229.082937 251.901867 
C 255.166809 241.595769 276.852456 222.50103 290.376748 197.931179 
C 303.90104 173.361328 308.433652 144.824829 303.188037 117.273648 
C 297.942422 89.722466 283.240633 64.848107 261.633887 46.96704 
C 240.02714 29.085973 212.841981 19.296005 184.795875 19.296 
L 184.795853 139.814962 
L 229.082937 251.901867 
z
" style="fill: #bf00bf"/>
   </g>
   <g id="matplotlib.axis_1"/>
   <g id="matplotlib.axis_2"/>
  </g>
 </g>
</svg>
