<?xml version="1.0" encoding="utf-8" standalone="no"?>
<!DOCTYPE svg PUBLIC "-//W3C//DTD SVG 1.1//EN"
  "http://www.w3.org/Graphics/SVG/1.1/DTD/svg11.dtd">
<svg xmlns:xlink="http://www.w3.org/1999/xlink" width="333.17145pt" height="331.11486pt" viewBox="0 0 333.17145 331.11486" xmlns="http://www.w3.org/2000/svg" version="1.1">
 <metadata>
  <rdf:RDF xmlns:dc="http://purl.org/dc/elements/1.1/" xmlns:cc="http://creativecommons.org/ns#" xmlns:rdf="http://www.w3.org/1999/02/22-rdf-syntax-ns#">
   <cc:Work>
    <dc:type rdf:resource="http://purl.org/dc/dcmitype/StillImage"/>
    <dc:date>2021-12-14T09:20:55.470070</dc:date>
    <dc:format>image/svg+xml</dc:format>
    <dc:creator>
     <cc:Agent>
      <dc:title>Matplotlib v3.5.0, https://matplotlib.org/</dc:title>
     </cc:Agent>
    </dc:creator>
   </cc:Work>
  </rdf:RDF>
 </metadata>
 <defs>
  <style type="text/css">*{stroke-linejoin: round; stroke-linecap: butt}</style>
 </defs>
 <g id="figure_1">
  <g id="patch_1">
   <path d="M 0 331.11486 
L 333.17145 331.11486 
L 333.17145 0 
L 0 0 
L 0 331.11486 
z
" style="fill: none"/>
  </g>
  <g id="axes_1">
   <g id="patch_2">
    <path d="M 165.438239 21.59613 
C 144.329243 21.59613 123.478196 26.255928 104.377414 35.24202 
C 85.276632 44.228113 68.392934 57.320882 54.934691 73.583274 
C 41.476448 89.845667 31.772576 108.880234 26.517584 129.324665 
C 21.262592 149.769097 20.584911 171.123736 24.533043 191.860225 
C 28.481175 212.596714 36.958628 232.208258 49.358669 249.291253 
C 61.75871 266.374248 77.778284 280.511189 96.270866 290.690292 
C 114.763448 300.869394 135.277083 306.841884 156.343605 308.180307 
C 177.410127 309.51873 198.514674 306.190376 218.146789 298.433457 
L 165.438239 165.032526 
L 165.438239 21.59613 
z
" style="fill: #0000ff"/>
   </g>
   <g id="patch_3">
    <path d="M 218.146789 298.433457 
C 249.190673 286.167589 274.999981 263.441867 291.096001 234.199905 
C 307.192022 204.957943 312.586539 170.99505 306.343437 138.20484 
C 300.100335 105.414629 282.60291 75.810255 256.887506 54.528991 
C 231.172101 33.247727 198.817514 21.596136 165.438266 21.59613 
L 165.438239 165.032526 
L 218.146789 298.433457 
z
" style="fill: #ff0000"/>
   </g>
   <g id="matplotlib.axis_1"/>
   <g id="matplotlib.axis_2"/>
  </g>
 </g>
</svg>
