<?xml version="1.0" encoding="utf-8" standalone="no"?>
<!DOCTYPE svg PUBLIC "-//W3C//DTD SVG 1.1//EN"
  "http://www.w3.org/Graphics/SVG/1.1/DTD/svg11.dtd">
<svg xmlns:xlink="http://www.w3.org/1999/xlink" width="371.52pt" height="280.512pt" viewBox="0 0 371.52 280.512" xmlns="http://www.w3.org/2000/svg" version="1.1">
 <metadata>
  <rdf:RDF xmlns:dc="http://purl.org/dc/elements/1.1/" xmlns:cc="http://creativecommons.org/ns#" xmlns:rdf="http://www.w3.org/1999/02/22-rdf-syntax-ns#">
   <cc:Work>
    <dc:type rdf:resource="http://purl.org/dc/dcmitype/StillImage"/>
    <dc:date>2021-12-03T16:10:06.435302</dc:date>
    <dc:format>image/svg+xml</dc:format>
    <dc:creator>
     <cc:Agent>
      <dc:title>Matplotlib v3.5.0, https://matplotlib.org/</dc:title>
     </cc:Agent>
    </dc:creator>
   </cc:Work>
  </rdf:RDF>
 </metadata>
 <defs>
  <style type="text/css">*{stroke-linejoin: round; stroke-linecap: butt}</style>
 </defs>
 <g id="figure_1">
  <g id="patch_1">
   <path d="M 0 280.512 
L 371.52 280.512 
L 371.52 0 
L 0 0 
L 0 280.512 
z
" style="fill: none"/>
  </g>
  <g id="axes_1">
   <g id="patch_2">
    <path d="M 185.285589 19.296006 
C 168.78849 19.296006 152.466077 22.686702 137.333871 29.257139 
C 122.201665 35.827575 108.580134 45.438603 97.316759 57.492261 
C 86.053384 69.545919 77.386699 83.786936 71.855913 99.329288 
C 66.325128 114.87164 64.047372 131.386172 65.164359 147.845414 
C 66.281346 164.304656 70.769421 180.360033 78.349352 195.012642 
C 85.929283 209.665251 96.440543 222.604778 109.229162 233.026176 
C 122.017781 243.447573 136.812921 251.130138 152.694085 255.595888 
C 168.575249 260.061639 185.206106 261.216 201.551948 258.987152 
L 185.285589 139.693528 
L 185.285589 19.296006 
z
" style="fill: #0000ff"/>
   </g>
   <g id="patch_3">
    <path d="M 201.551948 258.987152 
C 231.782686 254.865021 259.344438 239.401801 278.618241 215.749951 
C 297.892044 192.0981 307.472628 161.982095 305.406819 131.54163 
C 303.34101 101.101165 289.779426 72.555678 267.486843 51.724686 
C 245.19426 30.893694 215.796048 19.296 185.285567 19.296006 
L 185.285589 139.693528 
L 201.551948 258.987152 
z
" style="fill: #bf00bf"/>
   </g>
   <g id="matplotlib.axis_1"/>
   <g id="matplotlib.axis_2"/>
  </g>
 </g>
</svg>
