<?xml version="1.0" encoding="utf-8" standalone="no"?>
<!DOCTYPE svg PUBLIC "-//W3C//DTD SVG 1.1//EN"
  "http://www.w3.org/Graphics/SVG/1.1/DTD/svg11.dtd">
<svg xmlns:xlink="http://www.w3.org/1999/xlink" width="78.4305pt" height="78.0174pt" viewBox="0 0 78.4305 78.0174" xmlns="http://www.w3.org/2000/svg" version="1.1">
 <metadata>
  <rdf:RDF xmlns:dc="http://purl.org/dc/elements/1.1/" xmlns:cc="http://creativecommons.org/ns#" xmlns:rdf="http://www.w3.org/1999/02/22-rdf-syntax-ns#">
   <cc:Work>
    <dc:type rdf:resource="http://purl.org/dc/dcmitype/StillImage"/>
    <dc:date>2021-12-14T09:20:56.344855</dc:date>
    <dc:format>image/svg+xml</dc:format>
    <dc:creator>
     <cc:Agent>
      <dc:title>Matplotlib v3.5.0, https://matplotlib.org/</dc:title>
     </cc:Agent>
    </dc:creator>
   </cc:Work>
  </rdf:RDF>
 </metadata>
 <defs>
  <style type="text/css">*{stroke-linejoin: round; stroke-linecap: butt}</style>
 </defs>
 <g id="figure_1">
  <g id="patch_1">
   <path d="M 0 78.0174 
L 78.4305 78.0174 
L 78.4305 0 
L 0 0 
L 0 78.0174 
z
" style="fill: none"/>
  </g>
  <g id="axes_1">
   <g id="patch_2">
    <path d="M 39.101806 10.091701 
C 35.156904 10.091701 31.253775 10.90229 27.635256 12.473035 
C 24.016738 14.04378 20.759462 16.341416 18.066085 19.222994 
C 15.372708 22.104571 13.30027 25.509064 11.97771 29.224658 
C 10.65515 32.940251 10.110477 36.888257 10.377579 40.823044 
C 10.644681 44.757832 11.717901 48.59607 13.530467 52.09896 
C 15.343033 55.601849 17.856558 58.695205 20.914662 61.18657 
C 23.972766 63.677936 27.510683 65.514549 31.308298 66.582142 
C 35.105912 67.649735 39.082799 67.9257 42.991531 67.392866 
L 39.101806 38.874234 
L 39.101806 10.091701 
z
" style="fill: #0000ff"/>
   </g>
   <g id="patch_3">
    <path d="M 42.991531 67.392866 
C 50.220516 66.407419 56.811274 62.710743 61.42016 57.056473 
C 66.029046 51.402202 68.320023 44.202595 67.826032 36.925421 
C 67.332041 29.648247 64.089101 22.824092 58.758343 17.844183 
C 53.427585 12.864274 46.397679 10.0917 39.1018 10.091701 
L 39.101806 38.874234 
L 42.991531 67.392866 
z
" style="fill: #ff0000"/>
   </g>
   <g id="matplotlib.axis_1"/>
   <g id="matplotlib.axis_2"/>
  </g>
 </g>
</svg>
