<?xml version="1.0" encoding="utf-8" standalone="no"?>
<!DOCTYPE svg PUBLIC "-//W3C//DTD SVG 1.1//EN"
  "http://www.w3.org/Graphics/SVG/1.1/DTD/svg11.dtd">
<svg xmlns:xlink="http://www.w3.org/1999/xlink" width="371.52pt" height="280.512pt" viewBox="0 0 371.52 280.512" xmlns="http://www.w3.org/2000/svg" version="1.1">
 <metadata>
  <rdf:RDF xmlns:dc="http://purl.org/dc/elements/1.1/" xmlns:cc="http://creativecommons.org/ns#" xmlns:rdf="http://www.w3.org/1999/02/22-rdf-syntax-ns#">
   <cc:Work>
    <dc:type rdf:resource="http://purl.org/dc/dcmitype/StillImage"/>
    <dc:date>2021-12-03T16:10:07.401898</dc:date>
    <dc:format>image/svg+xml</dc:format>
    <dc:creator>
     <cc:Agent>
      <dc:title>Matplotlib v3.5.0, https://matplotlib.org/</dc:title>
     </cc:Agent>
    </dc:creator>
   </cc:Work>
  </rdf:RDF>
 </metadata>
 <defs>
  <style type="text/css">*{stroke-linejoin: round; stroke-linecap: butt}</style>
 </defs>
 <g id="figure_1">
  <g id="patch_1">
   <path d="M 0 280.512 
L 371.52 280.512 
L 371.52 0 
L 0 0 
L 0 280.512 
z
" style="fill: none"/>
  </g>
  <g id="axes_1">
   <g id="patch_2">
    <path d="M 185.412003 19.296 
C 169.111636 19.296 152.9796 22.604639 137.995224 29.021059 
C 123.010848 35.437479 109.483613 44.829157 98.234721 56.625953 
C 86.985828 68.422748 78.247607 82.381014 72.55053 97.653384 
C 66.853453 112.925754 64.315185 129.196798 65.089817 145.478749 
C 65.86445 161.760699 69.935983 177.717275 77.057247 192.379798 
C 84.178511 207.04232 94.202425 220.107956 106.520467 230.783528 
C 118.838508 241.459099 133.196264 249.524117 148.722118 254.488978 
C 164.247972 259.453839 180.621257 261.216 196.847999 259.668486 
L 185.412003 139.754283 
L 185.412003 19.296 
z
" style="fill: #0000ff"/>
   </g>
   <g id="patch_3">
    <path d="M 196.847999 259.668486 
C 227.654225 256.730553 256.173832 242.031439 276.441244 218.645824 
C 296.708657 195.26021 307.204815 164.940866 305.73419 134.029829 
C 304.263565 103.118791 290.936381 73.932868 268.540346 52.577012 
C 246.144311 31.221156 216.358027 19.296006 185.412026 19.296 
L 185.412003 139.754283 
L 196.847999 259.668486 
z
" style="fill: #bf00bf"/>
   </g>
   <g id="matplotlib.axis_1"/>
   <g id="matplotlib.axis_2"/>
  </g>
 </g>
</svg>
