<?xml version="1.0" encoding="utf-8" standalone="no"?>
<!DOCTYPE svg PUBLIC "-//W3C//DTD SVG 1.1//EN"
  "http://www.w3.org/Graphics/SVG/1.1/DTD/svg11.dtd">
<svg xmlns:xlink="http://www.w3.org/1999/xlink" width="125.9442pt" height="125.22456pt" viewBox="0 0 125.9442 125.22456" xmlns="http://www.w3.org/2000/svg" version="1.1">
 <metadata>
  <rdf:RDF xmlns:dc="http://purl.org/dc/elements/1.1/" xmlns:cc="http://creativecommons.org/ns#" xmlns:rdf="http://www.w3.org/1999/02/22-rdf-syntax-ns#">
   <cc:Work>
    <dc:type rdf:resource="http://purl.org/dc/dcmitype/StillImage"/>
    <dc:date>2021-12-14T09:20:57.258129</dc:date>
    <dc:format>image/svg+xml</dc:format>
    <dc:creator>
     <cc:Agent>
      <dc:title>Matplotlib v3.5.0, https://matplotlib.org/</dc:title>
     </cc:Agent>
    </dc:creator>
   </cc:Work>
  </rdf:RDF>
 </metadata>
 <defs>
  <style type="text/css">*{stroke-linejoin: round; stroke-linecap: butt}</style>
 </defs>
 <g id="figure_1">
  <g id="patch_1">
   <path d="M 0 125.22456 
L 125.9442 125.22456 
L 125.9442 0 
L 0 0 
L 0 125.22456 
z
" style="fill: none"/>
  </g>
  <g id="axes_1">
   <g id="patch_2">
    <path d="M 62.826815 12.23748 
C 56.021586 12.23748 49.286634 13.61539 43.030818 16.287562 
C 36.775001 18.959733 31.127526 22.870976 26.431234 27.78385 
C 21.734941 32.696724 18.086828 38.50976 15.708359 44.870065 
C 13.329891 51.230371 12.270191 58.006583 12.593592 64.787337 
C 12.916992 71.568091 14.616814 78.21334 17.589865 84.31967 
C 20.562917 90.426 24.747793 95.867293 29.890444 100.313223 
C 35.033094 104.759154 41.027304 108.117898 47.509181 110.185556 
C 53.991059 112.253213 60.82673 112.98708 67.601221 112.342605 
L 62.826815 62.403336 
L 62.826815 12.23748 
z
" style="fill: #0000ff"/>
   </g>
   <g id="patch_3">
    <path d="M 67.601221 112.342605 
C 80.46249 111.119078 92.36912 104.99751 100.830548 95.258376 
C 109.291975 85.519242 113.674009 72.892498 113.060039 60.019339 
C 112.446069 47.14618 106.882112 34.991459 97.532008 26.097635 
C 88.181903 17.203811 75.746448 12.237482 62.826825 12.23748 
L 62.826815 62.403336 
L 67.601221 112.342605 
z
" style="fill: #ff0000"/>
   </g>
   <g id="matplotlib.axis_1"/>
   <g id="matplotlib.axis_2"/>
  </g>
 </g>
</svg>
