<?xml version="1.0" encoding="utf-8" standalone="no"?>
<!DOCTYPE svg PUBLIC "-//W3C//DTD SVG 1.1//EN"
  "http://www.w3.org/Graphics/SVG/1.1/DTD/svg11.dtd">
<svg xmlns:xlink="http://www.w3.org/1999/xlink" width="323.3088pt" height="321.31584pt" viewBox="0 0 323.3088 321.31584" xmlns="http://www.w3.org/2000/svg" version="1.1">
 <metadata>
  <rdf:RDF xmlns:dc="http://purl.org/dc/elements/1.1/" xmlns:cc="http://creativecommons.org/ns#" xmlns:rdf="http://www.w3.org/1999/02/22-rdf-syntax-ns#">
   <cc:Work>
    <dc:type rdf:resource="http://purl.org/dc/dcmitype/StillImage"/>
    <dc:date>2022-01-14T17:05:55.133046</dc:date>
    <dc:format>image/svg+xml</dc:format>
    <dc:creator>
     <cc:Agent>
      <dc:title>Matplotlib v3.5.1, https://matplotlib.org/</dc:title>
     </cc:Agent>
    </dc:creator>
   </cc:Work>
  </rdf:RDF>
 </metadata>
 <defs>
  <style type="text/css">*{stroke-linejoin: round; stroke-linecap: butt}</style>
 </defs>
 <g id="figure_1">
  <g id="patch_1">
   <path d="M 0 321.31584 
L 323.3088 321.31584 
L 323.3088 0 
L 0 0 
L 0 321.31584 
z
" style="fill: none"/>
  </g>
  <g id="axes_1">
   <g id="patch_2">
    <path d="M 161.175987 21.15072 
C 142.235739 21.15072 123.493615 25.01459 106.101823 32.504791 
C 88.71003 39.994992 73.032422 50.954822 60.032809 64.710506 
C 47.033196 78.466189 36.983542 94.729942 30.501668 112.501922 
C 24.019795 130.273902 21.241309 149.182301 22.337024 168.06469 
C 23.432738 186.947078 28.379729 205.408419 36.873872 222.313765 
C 45.368014 239.219112 57.231603 254.214789 71.7353 266.378909 
C 86.238998 278.543029 103.079373 287.621107 121.221133 293.05505 
C 139.362892 298.488994 158.426493 300.16512 177.239964 297.980386 
L 161.175987 160.030348 
L 161.175987 21.15072 
z
" style="fill: #0000ff; stroke: #000000; stroke-linejoin: miter"/>
   </g>
   <g id="patch_3">
    <path d="M 177.239964 297.980386 
C 212.482185 293.887845 244.853859 276.4788 267.671765 249.347395 
C 290.489672 222.215989 302.067491 187.367327 300.01495 151.996007 
C 297.96241 116.624688 282.4312 83.344772 256.62778 59.026988 
C 230.82436 34.709205 196.655691 21.15072 161.175987 21.15072 
L 161.175987 160.030348 
L 177.239964 297.980386 
z
" style="fill: #ff0000; stroke: #000000; stroke-linejoin: miter"/>
   </g>
   <g id="matplotlib.axis_1"/>
   <g id="matplotlib.axis_2"/>
  </g>
 </g>
</svg>
