<?xml version="1.0" encoding="utf-8" standalone="no"?>
<!DOCTYPE svg PUBLIC "-//W3C//DTD SVG 1.1//EN"
  "http://www.w3.org/Graphics/SVG/1.1/DTD/svg11.dtd">
<svg xmlns:xlink="http://www.w3.org/1999/xlink" width="18.585pt" height="18.558pt" viewBox="0 0 18.585 18.558" xmlns="http://www.w3.org/2000/svg" version="1.1">
 <metadata>
  <rdf:RDF xmlns:dc="http://purl.org/dc/elements/1.1/" xmlns:cc="http://creativecommons.org/ns#" xmlns:rdf="http://www.w3.org/1999/02/22-rdf-syntax-ns#">
   <cc:Work>
    <dc:type rdf:resource="http://purl.org/dc/dcmitype/StillImage"/>
    <dc:date>2021-12-14T09:21:03.742138</dc:date>
    <dc:format>image/svg+xml</dc:format>
    <dc:creator>
     <cc:Agent>
      <dc:title>Matplotlib v3.5.0, https://matplotlib.org/</dc:title>
     </cc:Agent>
    </dc:creator>
   </cc:Work>
  </rdf:RDF>
 </metadata>
 <defs>
  <style type="text/css">*{stroke-linejoin: round; stroke-linecap: butt}</style>
 </defs>
 <g id="figure_1">
  <g id="patch_1">
   <path d="M -0 18.558 
L 18.585 18.558 
L 18.585 0 
L -0 0 
L -0 18.558 
z
" style="fill: none"/>
  </g>
  <g id="axes_1">
   <g id="patch_2">
    <path d="M 9.30372 7.389 
C 8.84435 7.389 8.400655 7.558783 8.057672 7.865808 
C 7.714689 8.172834 7.495825 8.596149 7.443026 9.054623 
C 7.390227 9.513098 7.507097 9.975442 7.771238 10.353044 
C 8.035378 10.730647 8.428761 10.997739 8.875994 11.103131 
L 9.30372 9.270927 
L 9.30372 7.389 
z
" style="fill: #0000ff"/>
   </g>
   <g id="patch_3">
    <path d="M 8.875994 11.103131 
C 9.133155 11.163731 9.40019 11.169 9.659521 11.11859 
C 9.918851 11.06818 10.16466 10.963221 10.380766 10.810624 
C 10.596872 10.658027 10.778427 10.461215 10.91348 10.233143 
C 11.048533 10.00507 11.134054 9.750855 11.164413 9.48723 
C 11.194773 9.223605 11.16929 8.956485 11.089641 8.703454 
C 11.009993 8.450423 10.877967 8.217157 10.702253 8.019012 
C 10.526539 7.820866 10.31108 7.662286 10.070058 7.553711 
C 9.829036 7.445135 9.567859 7.389 9.303719 7.389 
L 9.30372 9.270927 
L 8.875994 11.103131 
z
" style="fill: #ff0000"/>
   </g>
   <g id="matplotlib.axis_1"/>
   <g id="matplotlib.axis_2"/>
  </g>
 </g>
</svg>
