<?xml version="1.0" encoding="utf-8" standalone="no"?>
<!DOCTYPE svg PUBLIC "-//W3C//DTD SVG 1.1//EN"
  "http://www.w3.org/Graphics/SVG/1.1/DTD/svg11.dtd">
<svg xmlns:xlink="http://www.w3.org/1999/xlink" width="107.40465pt" height="106.80462pt" viewBox="0 0 107.40465 106.80462" xmlns="http://www.w3.org/2000/svg" version="1.1">
 <metadata>
  <rdf:RDF xmlns:dc="http://purl.org/dc/elements/1.1/" xmlns:cc="http://creativecommons.org/ns#" xmlns:rdf="http://www.w3.org/1999/02/22-rdf-syntax-ns#">
   <cc:Work>
    <dc:type rdf:resource="http://purl.org/dc/dcmitype/StillImage"/>
    <dc:date>2021-12-14T09:20:59.078744</dc:date>
    <dc:format>image/svg+xml</dc:format>
    <dc:creator>
     <cc:Agent>
      <dc:title>Matplotlib v3.5.0, https://matplotlib.org/</dc:title>
     </cc:Agent>
    </dc:creator>
   </cc:Work>
  </rdf:RDF>
 </metadata>
 <defs>
  <style type="text/css">*{stroke-linejoin: round; stroke-linecap: butt}</style>
 </defs>
 <g id="figure_1">
  <g id="patch_1">
   <path d="M -0 106.80462 
L 107.40465 106.80462 
L 107.40465 0 
L -0 0 
L -0 106.80462 
z
" style="fill: none"/>
  </g>
  <g id="axes_1">
   <g id="patch_2">
    <path d="M 53.443213 11.40021 
C 47.030591 11.40021 40.702975 12.874391 34.95064 15.708532 
C 29.198304 18.542673 24.173755 22.661634 20.266304 27.746272 
C 16.358852 32.830909 13.672092 38.746419 12.414199 45.034457 
C 11.156305 51.322495 11.360628 57.816353 13.011335 64.012875 
C 14.662042 70.209397 17.71537 75.9443 21.934742 80.773236 
C 26.154114 85.602171 31.427666 89.397114 37.346793 91.864024 
C 43.265921 94.330934 49.673696 95.40441 56.073634 95.001276 
C 62.473571 94.598142 68.695996 92.729087 74.258783 89.538928 
L 53.443213 53.242125 
L 53.443213 11.40021 
z
" style="fill: #0000ff"/>
   </g>
   <g id="patch_3">
    <path d="M 74.258783 89.538928 
C 82.256508 84.952375 88.518387 77.848589 92.065112 69.338547 
C 95.611836 60.828504 96.248345 51.380237 93.875092 42.471379 
C 91.50184 33.562521 86.249351 25.683038 78.939071 20.065219 
C 71.628791 14.4474 62.66277 11.400212 53.443221 11.40021 
L 53.443213 53.242125 
L 74.258783 89.538928 
z
" style="fill: #ff0000"/>
   </g>
   <g id="matplotlib.axis_1"/>
   <g id="matplotlib.axis_2"/>
  </g>
 </g>
</svg>
