<?xml version="1.0" encoding="utf-8" standalone="no"?>
<!DOCTYPE svg PUBLIC "-//W3C//DTD SVG 1.1//EN"
  "http://www.w3.org/Graphics/SVG/1.1/DTD/svg11.dtd">
<svg xmlns:xlink="http://www.w3.org/1999/xlink" width="371.52pt" height="280.512pt" viewBox="0 0 371.52 280.512" xmlns="http://www.w3.org/2000/svg" version="1.1">
 <metadata>
  <rdf:RDF xmlns:dc="http://purl.org/dc/elements/1.1/" xmlns:cc="http://creativecommons.org/ns#" xmlns:rdf="http://www.w3.org/1999/02/22-rdf-syntax-ns#">
   <cc:Work>
    <dc:type rdf:resource="http://purl.org/dc/dcmitype/StillImage"/>
    <dc:date>2021-12-03T16:10:10.275094</dc:date>
    <dc:format>image/svg+xml</dc:format>
    <dc:creator>
     <cc:Agent>
      <dc:title>Matplotlib v3.5.0, https://matplotlib.org/</dc:title>
     </cc:Agent>
    </dc:creator>
   </cc:Work>
  </rdf:RDF>
 </metadata>
 <defs>
  <style type="text/css">*{stroke-linejoin: round; stroke-linecap: butt}</style>
 </defs>
 <g id="figure_1">
  <g id="patch_1">
   <path d="M 0 280.512 
L 371.52 280.512 
L 371.52 0 
L 0 0 
L 0 280.512 
z
" style="fill: none"/>
  </g>
  <g id="axes_1">
   <g id="patch_2">
    <path d="M 185.007364 19.296006 
C 167.955162 19.296006 151.0959 22.918572 135.548794 29.923219 
C 120.001687 36.927866 106.118557 47.156082 94.821046 59.92886 
C 83.523535 72.701637 75.067298 87.729936 70.01371 104.016091 
C 64.960122 120.302246 63.423541 137.477712 65.505975 154.402282 
C 67.588409 171.326852 73.242734 187.617534 82.093582 202.192858 
C 90.944431 216.768182 102.791515 229.298318 116.848355 238.951444 
C 130.905196 248.60457 146.853696 255.16224 163.635102 258.18912 
C 180.416508 261.216 197.651068 260.643593 214.194652 256.509898 
L 185.007364 139.698584 
L 185.007364 19.296006 
z
" style="fill: #0000ff"/>
   </g>
   <g id="patch_3">
    <path d="M 214.194652 256.509898 
C 242.696625 249.388196 267.629423 232.075298 284.260228 207.857588 
C 300.891032 183.639879 308.096459 154.153226 304.508753 124.994874 
C 300.921046 95.836523 286.78255 68.976072 264.777076 49.512254 
C 242.771601 30.048436 214.385584 19.296 185.007342 19.296006 
L 185.007364 139.698584 
L 214.194652 256.509898 
z
" style="fill: #bf00bf"/>
   </g>
   <g id="matplotlib.axis_1"/>
   <g id="matplotlib.axis_2"/>
  </g>
 </g>
</svg>
