<?xml version="1.0" encoding="utf-8" standalone="no"?>
<!DOCTYPE svg PUBLIC "-//W3C//DTD SVG 1.1//EN"
  "http://www.w3.org/Graphics/SVG/1.1/DTD/svg11.dtd">
<svg xmlns:xlink="http://www.w3.org/1999/xlink" width="35.5203pt" height="35.38404pt" viewBox="0 0 35.5203 35.38404" xmlns="http://www.w3.org/2000/svg" version="1.1">
 <metadata>
  <rdf:RDF xmlns:dc="http://purl.org/dc/elements/1.1/" xmlns:cc="http://creativecommons.org/ns#" xmlns:rdf="http://www.w3.org/1999/02/22-rdf-syntax-ns#">
   <cc:Work>
    <dc:type rdf:resource="http://purl.org/dc/dcmitype/StillImage"/>
    <dc:date>2022-01-14T17:05:57.017583</dc:date>
    <dc:format>image/svg+xml</dc:format>
    <dc:creator>
     <cc:Agent>
      <dc:title>Matplotlib v3.5.1, https://matplotlib.org/</dc:title>
     </cc:Agent>
    </dc:creator>
   </cc:Work>
  </rdf:RDF>
 </metadata>
 <defs>
  <style type="text/css">*{stroke-linejoin: round; stroke-linecap: butt}</style>
 </defs>
 <g id="figure_1">
  <g id="patch_1">
   <path d="M 0 35.38404 
L 35.5203 35.38404 
L 35.5203 0 
L 0 0 
L 0 35.38404 
z
" style="fill: none"/>
  </g>
  <g id="axes_1">
   <g id="patch_2">
    <path d="M 17.701088 8.15382 
C 16.362947 8.15382 15.039946 8.439475 13.819915 8.991821 
C 12.599883 9.544166 11.510429 10.350704 10.623877 11.35789 
C 9.737325 12.365077 9.073737 13.550121 8.677165 14.834352 
C 8.280594 16.118583 8.160014 17.47294 8.323429 18.807513 
C 8.486844 20.142086 8.930557 21.426674 9.625112 22.575999 
C 10.319667 23.725324 11.249345 24.713378 12.352431 25.474567 
C 13.455517 26.235756 14.707047 26.752856 16.023938 26.991538 
C 17.340829 27.23022 18.69328 27.185083 19.991509 26.859124 
L 17.701088 17.648065 
L 17.701088 8.15382 
z
" style="fill: #0000ff; stroke: #000000; stroke-linejoin: miter"/>
   </g>
   <g id="patch_3">
    <path d="M 19.991509 26.859124 
C 22.228151 26.297548 24.184708 24.932354 25.48978 23.022687 
C 26.794853 21.11302 27.360286 18.787874 27.078747 16.488617 
C 26.797209 14.189359 25.687715 12.071301 23.960875 10.536498 
C 22.234034 9.001694 20.006492 8.15382 17.701086 8.15382 
L 17.701088 17.648065 
L 19.991509 26.859124 
z
" style="fill: #ff0000; stroke: #000000; stroke-linejoin: miter"/>
   </g>
   <g id="matplotlib.axis_1"/>
   <g id="matplotlib.axis_2"/>
  </g>
 </g>
</svg>
