<?xml version="1.0" encoding="utf-8" standalone="no"?>
<!DOCTYPE svg PUBLIC "-//W3C//DTD SVG 1.1//EN"
  "http://www.w3.org/Graphics/SVG/1.1/DTD/svg11.dtd">
<svg xmlns:xlink="http://www.w3.org/1999/xlink" width="371.52pt" height="280.512pt" viewBox="0 0 371.52 280.512" xmlns="http://www.w3.org/2000/svg" version="1.1">
 <metadata>
  <rdf:RDF xmlns:dc="http://purl.org/dc/elements/1.1/" xmlns:cc="http://creativecommons.org/ns#" xmlns:rdf="http://www.w3.org/1999/02/22-rdf-syntax-ns#">
   <cc:Work>
    <dc:type rdf:resource="http://purl.org/dc/dcmitype/StillImage"/>
    <dc:date>2021-12-03T16:10:11.247364</dc:date>
    <dc:format>image/svg+xml</dc:format>
    <dc:creator>
     <cc:Agent>
      <dc:title>Matplotlib v3.5.0, https://matplotlib.org/</dc:title>
     </cc:Agent>
    </dc:creator>
   </cc:Work>
  </rdf:RDF>
 </metadata>
 <defs>
  <style type="text/css">*{stroke-linejoin: round; stroke-linecap: butt}</style>
 </defs>
 <g id="figure_1">
  <g id="patch_1">
   <path d="M 0 280.512 
L 371.52 280.512 
L 371.52 0 
L 0 0 
L 0 280.512 
z
" style="fill: none"/>
  </g>
  <g id="axes_1">
   <g id="patch_2">
    <path d="M 185.169688 19.296 
C 168.459506 19.296 151.930786 22.773946 136.637583 29.508047 
C 121.344379 36.242147 107.618841 46.086145 96.336261 58.412278 
C 85.053682 70.738412 76.459103 85.278973 71.100611 101.106693 
C 65.742119 116.934414 63.736094 133.705536 65.210462 150.350548 
C 66.68483 166.99556 71.607569 183.152952 79.664751 197.79235 
C 87.721934 212.431749 98.738568 225.235204 112.01211 235.386226 
C 125.285653 245.537248 140.527819 252.815369 156.7666 256.756456 
C 173.005381 260.697543 189.888091 261.216 206.338101 258.278765 
L 185.169688 139.724901 
L 185.169688 19.296 
z
" style="fill: #0000ff"/>
   </g>
   <g id="patch_3">
    <path d="M 206.338101 258.278765 
C 235.960752 252.989485 262.551373 236.785052 280.831009 212.882483 
C 299.110645 188.979914 307.783906 159.07307 305.128915 129.099266 
C 302.473923 99.125462 288.678826 71.208798 266.482323 50.891486 
C 244.28582 30.574175 215.26087 19.296006 185.16971 19.296 
L 185.169688 139.724901 
L 206.338101 258.278765 
z
" style="fill: #bf00bf"/>
   </g>
   <g id="matplotlib.axis_1"/>
   <g id="matplotlib.axis_2"/>
  </g>
 </g>
</svg>
