<?xml version="1.0" encoding="utf-8" standalone="no"?>
<!DOCTYPE svg PUBLIC "-//W3C//DTD SVG 1.1//EN"
  "http://www.w3.org/Graphics/SVG/1.1/DTD/svg11.dtd">
<svg xmlns:xlink="http://www.w3.org/1999/xlink" width="78.63975pt" height="78.2253pt" viewBox="0 0 78.63975 78.2253" xmlns="http://www.w3.org/2000/svg" version="1.1">
 <metadata>
  <rdf:RDF xmlns:dc="http://purl.org/dc/elements/1.1/" xmlns:cc="http://creativecommons.org/ns#" xmlns:rdf="http://www.w3.org/1999/02/22-rdf-syntax-ns#">
   <cc:Work>
    <dc:type rdf:resource="http://purl.org/dc/dcmitype/StillImage"/>
    <dc:date>2022-01-14T17:05:57.968607</dc:date>
    <dc:format>image/svg+xml</dc:format>
    <dc:creator>
     <cc:Agent>
      <dc:title>Matplotlib v3.5.1, https://matplotlib.org/</dc:title>
     </cc:Agent>
    </dc:creator>
   </cc:Work>
  </rdf:RDF>
 </metadata>
 <defs>
  <style type="text/css">*{stroke-linejoin: round; stroke-linecap: butt}</style>
 </defs>
 <g id="figure_1">
  <g id="patch_1">
   <path d="M 0 78.2253 
L 78.63975 78.2253 
L 78.63975 0 
L 0 0 
L 0 78.2253 
z
" style="fill: none"/>
  </g>
  <g id="axes_1">
   <g id="patch_2">
    <path d="M 39.178615 10.10115 
C 35.179928 10.10115 31.224665 10.935314 27.565055 12.550446 
C 23.905446 14.165577 20.620974 16.526599 17.921093 19.482945 
C 15.221211 22.439291 13.164559 25.926754 11.882291 29.722933 
C 10.600023 33.519113 10.119989 37.541562 10.4728 41.533764 
C 10.825611 45.525966 12.003605 49.401216 13.93166 52.912384 
C 15.859715 56.423552 18.495956 59.494381 21.672267 61.92904 
C 24.848579 64.363699 28.495975 66.109311 32.381858 67.054556 
C 36.26774 67.999801 40.307713 68.12415 44.244141 67.419672 
L 39.178615 38.985269 
L 39.178615 10.10115 
z
" style="fill: #0000ff; stroke: #000000; stroke-linejoin: miter"/>
   </g>
   <g id="patch_3">
    <path d="M 44.244141 67.419672 
C 51.332736 66.151072 57.695777 62.26454 62.070029 56.531658 
C 66.444281 50.798776 68.519761 43.625807 67.884431 36.436777 
C 67.249101 29.247747 63.947984 22.55211 58.63644 17.67913 
C 53.324895 12.80615 46.379328 10.101151 39.178621 10.10115 
L 39.178615 38.985269 
L 44.244141 67.419672 
z
" style="fill: #ff0000; stroke: #000000; stroke-linejoin: miter"/>
   </g>
   <g id="matplotlib.axis_1"/>
   <g id="matplotlib.axis_2"/>
  </g>
 </g>
</svg>
