<?xml version="1.0" encoding="utf-8" standalone="no"?>
<!DOCTYPE svg PUBLIC "-//W3C//DTD SVG 1.1//EN"
  "http://www.w3.org/Graphics/SVG/1.1/DTD/svg11.dtd">
<svg xmlns:xlink="http://www.w3.org/1999/xlink" width="27.0387pt" height="26.95716pt" viewBox="0 0 27.0387 26.95716" xmlns="http://www.w3.org/2000/svg" version="1.1">
 <metadata>
  <rdf:RDF xmlns:dc="http://purl.org/dc/elements/1.1/" xmlns:cc="http://creativecommons.org/ns#" xmlns:rdf="http://www.w3.org/1999/02/22-rdf-syntax-ns#">
   <cc:Work>
    <dc:type rdf:resource="http://purl.org/dc/dcmitype/StillImage"/>
    <dc:date>2022-01-14T17:05:58.921658</dc:date>
    <dc:format>image/svg+xml</dc:format>
    <dc:creator>
     <cc:Agent>
      <dc:title>Matplotlib v3.5.1, https://matplotlib.org/</dc:title>
     </cc:Agent>
    </dc:creator>
   </cc:Work>
  </rdf:RDF>
 </metadata>
 <defs>
  <style type="text/css">*{stroke-linejoin: round; stroke-linecap: butt}</style>
 </defs>
 <g id="figure_1">
  <g id="patch_1">
   <path d="M 0 26.95716 
L 27.0387 26.95716 
L 27.0387 0 
L 0 0 
L 0 26.95716 
z
" style="fill: none"/>
  </g>
  <g id="axes_1">
   <g id="patch_2">
    <path d="M 13.500485 7.77078 
C 12.726463 7.77078 11.960514 7.928407 11.249588 8.234 
C 10.538663 8.539592 9.89759 8.986775 9.365665 9.548138 
C 8.83374 10.109501 8.42206 10.773334 8.155858 11.498946 
C 7.889656 12.224558 7.774486 12.996813 7.817408 13.768375 
C 7.860329 14.539936 8.060446 15.29471 8.405492 15.986431 
C 8.750538 16.678151 9.233317 17.29239 9.824234 17.791495 
C 10.415151 18.2906 11.101882 18.664161 11.84233 18.88928 
C 12.582779 19.114399 13.361501 19.18638 14.130762 19.100811 
L 13.500485 13.453269 
L 13.500485 7.77078 
z
" style="fill: #0000ff; stroke: #000000; stroke-linejoin: miter"/>
   </g>
   <g id="patch_3">
    <path d="M 14.130762 19.100811 
C 15.576265 18.940019 16.906445 18.232039 17.845846 17.123483 
C 18.785246 16.014926 19.264214 14.587988 19.183562 13.138163 
C 19.10291 11.688338 18.468618 10.323126 17.412039 9.325239 
C 16.355459 8.327352 14.954933 7.77078 13.500486 7.77078 
L 13.500485 13.453269 
L 14.130762 19.100811 
z
" style="fill: #ff0000; stroke: #000000; stroke-linejoin: miter"/>
   </g>
   <g id="matplotlib.axis_1"/>
   <g id="matplotlib.axis_2"/>
  </g>
 </g>
</svg>
