<?xml version="1.0" encoding="utf-8" standalone="no"?>
<!DOCTYPE svg PUBLIC "-//W3C//DTD SVG 1.1//EN"
  "http://www.w3.org/Graphics/SVG/1.1/DTD/svg11.dtd">
<svg xmlns:xlink="http://www.w3.org/1999/xlink" width="371.52pt" height="280.512pt" viewBox="0 0 371.52 280.512" xmlns="http://www.w3.org/2000/svg" version="1.1">
 <metadata>
  <rdf:RDF xmlns:dc="http://purl.org/dc/elements/1.1/" xmlns:cc="http://creativecommons.org/ns#" xmlns:rdf="http://www.w3.org/1999/02/22-rdf-syntax-ns#">
   <cc:Work>
    <dc:type rdf:resource="http://purl.org/dc/dcmitype/StillImage"/>
    <dc:date>2021-12-10T18:12:49.242459</dc:date>
    <dc:format>image/svg+xml</dc:format>
    <dc:creator>
     <cc:Agent>
      <dc:title>Matplotlib v3.5.0, https://matplotlib.org/</dc:title>
     </cc:Agent>
    </dc:creator>
   </cc:Work>
  </rdf:RDF>
 </metadata>
 <defs>
  <style type="text/css">*{stroke-linejoin: round; stroke-linecap: butt}</style>
 </defs>
 <g id="figure_1">
  <g id="patch_1">
   <path d="M 0 280.512 
L 371.52 280.512 
L 371.52 0 
L 0 0 
L 0 280.512 
z
" style="fill: none"/>
  </g>
  <g id="axes_1">
   <g id="patch_2">
    <path d="M 186.000022 19.296 
C 154.695599 19.296 124.589686 31.487734 102.106152 53.269783 
C 79.622619 75.051831 66.483058 104.756314 65.491133 136.045019 
C 64.499208 167.333723 75.730872 197.810831 96.78956 220.97327 
C 117.848249 244.135709 147.12147 258.2099 178.363033 260.192753 
L 186.000022 139.865432 
L 186.000022 19.296 
z
" style="fill: #0000ff"/>
   </g>
   <g id="patch_3">
    <path d="M 178.363033 260.192753 
C 194.48516 261.216 210.649722 258.988688 225.894334 253.643425 
C 241.138946 248.298162 255.154943 239.943176 267.10786 229.075894 
C 279.060777 218.208612 288.708597 205.04907 295.476921 190.380743 
C 302.245244 175.712416 305.997031 159.8323 306.508911 143.685845 
C 307.020792 127.53939 304.282402 111.45352 298.456775 96.385936 
C 292.631149 81.318351 283.836241 67.574131 272.595672 55.971562 
C 261.355102 44.368993 247.896462 35.142996 233.021037 28.842857 
C 218.145612 22.542719 202.154589 19.296 186.000022 19.296 
L 186.000022 139.865432 
L 178.363033 260.192753 
z
" style="fill: #ff0000"/>
   </g>
   <g id="matplotlib.axis_1"/>
   <g id="matplotlib.axis_2"/>
  </g>
 </g>
</svg>
