<?xml version="1.0" encoding="utf-8" standalone="no"?>
<!DOCTYPE svg PUBLIC "-//W3C//DTD SVG 1.1//EN"
  "http://www.w3.org/Graphics/SVG/1.1/DTD/svg11.dtd">
<svg xmlns:xlink="http://www.w3.org/1999/xlink" width="371.52pt" height="280.512pt" viewBox="0 0 371.52 280.512" xmlns="http://www.w3.org/2000/svg" version="1.1">
 <metadata>
  <rdf:RDF xmlns:dc="http://purl.org/dc/elements/1.1/" xmlns:cc="http://creativecommons.org/ns#" xmlns:rdf="http://www.w3.org/1999/02/22-rdf-syntax-ns#">
   <cc:Work>
    <dc:type rdf:resource="http://purl.org/dc/dcmitype/StillImage"/>
    <dc:date>2021-11-24T20:23:14.800172</dc:date>
    <dc:format>image/svg+xml</dc:format>
    <dc:creator>
     <cc:Agent>
      <dc:title>Matplotlib v3.5.0, https://matplotlib.org/</dc:title>
     </cc:Agent>
    </dc:creator>
   </cc:Work>
  </rdf:RDF>
 </metadata>
 <defs>
  <style type="text/css">*{stroke-linejoin: round; stroke-linecap: butt}</style>
 </defs>
 <g id="figure_1">
  <g id="patch_1">
   <path d="M 0 280.512 
L 371.52 280.512 
L 371.52 0 
L 0 0 
L 0 280.512 
z
" style="fill: none"/>
  </g>
  <g id="axes_1">
   <g id="patch_2">
    <path d="M 186.547027 19.296003 
C 157.351861 19.296003 129.130938 29.917858 107.181151 49.167913 
C 85.231364 68.417968 71.017643 95.01147 67.207815 123.956988 
C 63.397987 152.902505 70.246321 182.268209 86.467426 206.542342 
C 102.688531 230.816474 127.19981 248.378976 155.400649 255.933476 
L 186.547027 139.664493 
L 186.547027 19.296003 
z
" style="fill: #0000ff"/>
   </g>
   <g id="patch_3">
    <path d="M 155.400649 255.933476 
C 171.950131 260.366786 189.257013 261.216 206.161018 258.424186 
C 223.065023 255.632372 239.179761 249.263344 253.424881 239.744091 
C 267.670001 230.224838 279.719888 217.772949 288.766703 203.223216 
C 297.813518 188.673482 303.650469 172.358479 305.886241 155.371987 
C 308.122013 138.385494 306.705499 121.115786 301.731666 104.720647 
C 296.757832 88.325508 288.34037 73.179695 277.043596 60.298604 
C 265.746822 47.417512 251.828958 37.095577 236.223073 30.024793 
C 220.617189 22.954009 203.680003 19.296 186.547005 19.296003 
L 186.547027 139.664493 
L 155.400649 255.933476 
z
" style="fill: #bf00bf"/>
   </g>
   <g id="matplotlib.axis_1"/>
   <g id="matplotlib.axis_2"/>
  </g>
 </g>
</svg>
