<?xml version="1.0" encoding="utf-8" standalone="no"?>
<!DOCTYPE svg PUBLIC "-//W3C//DTD SVG 1.1//EN"
  "http://www.w3.org/Graphics/SVG/1.1/DTD/svg11.dtd">
<svg xmlns:xlink="http://www.w3.org/1999/xlink" width="371.52pt" height="280.512pt" viewBox="0 0 371.52 280.512" xmlns="http://www.w3.org/2000/svg" version="1.1">
 <metadata>
  <rdf:RDF xmlns:dc="http://purl.org/dc/elements/1.1/" xmlns:cc="http://creativecommons.org/ns#" xmlns:rdf="http://www.w3.org/1999/02/22-rdf-syntax-ns#">
   <cc:Work>
    <dc:type rdf:resource="http://purl.org/dc/dcmitype/StillImage"/>
    <dc:date>2022-01-14T17:15:31.186933</dc:date>
    <dc:format>image/svg+xml</dc:format>
    <dc:creator>
     <cc:Agent>
      <dc:title>Matplotlib v3.5.1, https://matplotlib.org/</dc:title>
     </cc:Agent>
    </dc:creator>
   </cc:Work>
  </rdf:RDF>
 </metadata>
 <defs>
  <style type="text/css">*{stroke-linejoin: round; stroke-linecap: butt}</style>
 </defs>
 <g id="figure_1">
  <g id="patch_1">
   <path d="M 0 280.512 
L 371.52 280.512 
L 371.52 0 
L 0 0 
L 0 280.512 
z
" style="fill: none"/>
  </g>
  <g id="axes_1">
   <g id="patch_2">
    <path d="M 185.564159 19.296 
C 169.464398 19.296 153.526363 22.519165 138.691739 28.775057 
C 123.857114 35.03095 110.423933 44.193886 99.185883 55.722482 
C 87.947834 67.251077 79.130693 80.913719 73.255413 95.903161 
C 67.380133 110.892603 64.564752 126.907701 64.975613 143.002218 
C 65.386473 159.096735 69.015323 174.947325 75.647753 189.61747 
C 82.280183 204.287615 91.782945 217.482586 103.594578 228.422769 
C 115.406211 239.362952 129.289413 247.828555 144.423909 253.319396 
C 159.558404 258.810236 175.640135 261.216 191.718925 260.394546 
L 185.564159 139.923832 
L 185.564159 19.296 
z
" style="fill: #0000ff; stroke: #000000; stroke-width: 2; stroke-linejoin: miter"/>
   </g>
   <g id="patch_3">
    <path d="M 191.718925 260.394546 
C 223.126077 258.789976 252.693323 244.96541 274.063091 221.893417 
C 295.43286 198.821424 306.955248 168.28333 306.152705 136.845458 
C 305.350162 105.407586 292.284648 75.49717 269.765522 53.545569 
C 247.246395 31.593968 217.012295 19.296006 185.564181 19.296 
L 185.564159 139.923832 
L 191.718925 260.394546 
z
" style="fill: #ff0000; stroke: #000000; stroke-width: 2; stroke-linejoin: miter"/>
   </g>
   <g id="matplotlib.axis_1"/>
   <g id="matplotlib.axis_2"/>
  </g>
 </g>
</svg>
