<?xml version="1.0" encoding="utf-8" standalone="no"?>
<!DOCTYPE svg PUBLIC "-//W3C//DTD SVG 1.1//EN"
  "http://www.w3.org/Graphics/SVG/1.1/DTD/svg11.dtd">
<svg xmlns:xlink="http://www.w3.org/1999/xlink" width="371.52pt" height="280.512pt" viewBox="0 0 371.52 280.512" xmlns="http://www.w3.org/2000/svg" version="1.1">
 <metadata>
  <rdf:RDF xmlns:dc="http://purl.org/dc/elements/1.1/" xmlns:cc="http://creativecommons.org/ns#" xmlns:rdf="http://www.w3.org/1999/02/22-rdf-syntax-ns#">
   <cc:Work>
    <dc:type rdf:resource="http://purl.org/dc/dcmitype/StillImage"/>
    <dc:date>2022-01-14T17:15:33.413047</dc:date>
    <dc:format>image/svg+xml</dc:format>
    <dc:creator>
     <cc:Agent>
      <dc:title>Matplotlib v3.5.1, https://matplotlib.org/</dc:title>
     </cc:Agent>
    </dc:creator>
   </cc:Work>
  </rdf:RDF>
 </metadata>
 <defs>
  <style type="text/css">*{stroke-linejoin: round; stroke-linecap: butt}</style>
 </defs>
 <g id="figure_1">
  <g id="patch_1">
   <path d="M 0 280.512 
L 371.52 280.512 
L 371.52 0 
L 0 0 
L 0 280.512 
z
" style="fill: none"/>
  </g>
  <g id="axes_1">
   <g id="patch_2">
    <path d="M 186.634932 19.296 
C 157.952121 19.296 130.193148 29.54976 108.397852 48.195638 
C 86.602557 66.841515 72.174938 92.678388 67.734433 121.015388 
C 63.293928 149.352388 69.126583 178.364115 84.173439 202.783284 
C 99.220294 227.202452 122.512068 245.45604 149.819973 254.229976 
L 186.634932 139.647503 
L 186.634932 19.296 
z
" style="fill: #0000ff; stroke: #000000; stroke-width: 2; stroke-linejoin: miter"/>
   </g>
   <g id="patch_3">
    <path d="M 149.819973 254.229976 
C 166.366691 259.546381 183.870341 261.216 201.123754 259.123687 
C 218.377166 257.031373 234.974371 251.226359 249.770712 242.108996 
C 264.567054 232.991634 277.214376 220.776454 286.840435 206.305897 
C 296.466494 191.83534 302.844789 175.449897 305.535431 158.279619 
C 308.226072 141.10934 307.165749 123.55824 302.427589 106.836761 
C 297.689429 90.115282 289.38492 74.616878 278.086797 61.410424 
C 266.788674 48.203969 252.762781 37.60021 236.976436 30.330454 
C 221.190092 23.060698 204.014748 19.296 186.634932 19.296 
L 186.634932 139.647503 
L 149.819973 254.229976 
z
" style="fill: #ff0000; stroke: #000000; stroke-width: 2; stroke-linejoin: miter"/>
   </g>
   <g id="matplotlib.axis_1"/>
   <g id="matplotlib.axis_2"/>
  </g>
 </g>
</svg>
