<?xml version="1.0" encoding="utf-8" standalone="no"?>
<!DOCTYPE svg PUBLIC "-//W3C//DTD SVG 1.1//EN"
  "http://www.w3.org/Graphics/SVG/1.1/DTD/svg11.dtd">
<svg xmlns:xlink="http://www.w3.org/1999/xlink" width="371.52pt" height="280.512pt" viewBox="0 0 371.52 280.512" xmlns="http://www.w3.org/2000/svg" version="1.1">
 <metadata>
  <rdf:RDF xmlns:dc="http://purl.org/dc/elements/1.1/" xmlns:cc="http://creativecommons.org/ns#" xmlns:rdf="http://www.w3.org/1999/02/22-rdf-syntax-ns#">
   <cc:Work>
    <dc:type rdf:resource="http://purl.org/dc/dcmitype/StillImage"/>
    <dc:date>2021-12-10T18:12:56.932065</dc:date>
    <dc:format>image/svg+xml</dc:format>
    <dc:creator>
     <cc:Agent>
      <dc:title>Matplotlib v3.5.0, https://matplotlib.org/</dc:title>
     </cc:Agent>
    </dc:creator>
   </cc:Work>
  </rdf:RDF>
 </metadata>
 <defs>
  <style type="text/css">*{stroke-linejoin: round; stroke-linecap: butt}</style>
 </defs>
 <g id="figure_1">
  <g id="patch_1">
   <path d="M 0 280.512 
L 371.52 280.512 
L 371.52 0 
L 0 0 
L 0 280.512 
z
" style="fill: none"/>
  </g>
  <g id="axes_1">
   <g id="patch_2">
    <path d="M 185.780437 19.296 
C 153.775738 19.296 123.044857 32.002302 100.385408 54.604297 
C 77.725959 77.206291 64.941679 107.904814 64.860426 139.90941 
C 64.779173 171.914006 77.407416 202.677046 99.95181 225.393803 
C 122.496204 248.110561 153.162172 260.972737 185.166458 261.135242 
L 185.780437 140.2164 
L 185.780437 19.296 
z
" style="fill: #0000ff"/>
   </g>
   <g id="patch_3">
    <path d="M 185.166458 261.135242 
C 201.071203 261.216 216.836722 258.157987 231.557876 252.13677 
C 246.279031 246.115554 259.668595 237.248615 270.95784 226.045027 
C 282.247085 214.84144 291.215745 201.519796 297.348907 186.844929 
C 303.482069 172.170061 306.660068 156.428289 306.700448 140.523391 
C 306.740827 124.618492 303.642798 108.860787 297.584227 94.154967 
C 291.525657 79.449147 282.624753 66.082137 271.392541 54.821372 
C 260.160328 43.560607 246.815958 34.625796 232.125567 28.52991 
C 217.435176 22.434024 201.685386 19.296 185.780437 19.296 
L 185.780437 140.2164 
L 185.166458 261.135242 
z
" style="fill: #ff0000"/>
   </g>
   <g id="matplotlib.axis_1"/>
   <g id="matplotlib.axis_2"/>
  </g>
 </g>
</svg>
