<?xml version="1.0" encoding="utf-8" standalone="no"?>
<!DOCTYPE svg PUBLIC "-//W3C//DTD SVG 1.1//EN"
  "http://www.w3.org/Graphics/SVG/1.1/DTD/svg11.dtd">
<svg xmlns:xlink="http://www.w3.org/1999/xlink" width="371.52pt" height="280.512pt" viewBox="0 0 371.52 280.512" xmlns="http://www.w3.org/2000/svg" version="1.1">
 <metadata>
  <rdf:RDF xmlns:dc="http://purl.org/dc/elements/1.1/" xmlns:cc="http://creativecommons.org/ns#" xmlns:rdf="http://www.w3.org/1999/02/22-rdf-syntax-ns#">
   <cc:Work>
    <dc:type rdf:resource="http://purl.org/dc/dcmitype/StillImage"/>
    <dc:date>2021-11-24T20:23:25.591130</dc:date>
    <dc:format>image/svg+xml</dc:format>
    <dc:creator>
     <cc:Agent>
      <dc:title>Matplotlib v3.5.0, https://matplotlib.org/</dc:title>
     </cc:Agent>
    </dc:creator>
   </cc:Work>
  </rdf:RDF>
 </metadata>
 <defs>
  <style type="text/css">*{stroke-linejoin: round; stroke-linecap: butt}</style>
 </defs>
 <g id="figure_1">
  <g id="patch_1">
   <path d="M 0 280.512 
L 371.52 280.512 
L 371.52 0 
L 0 0 
L 0 280.512 
z
" style="fill: none"/>
  </g>
  <g id="axes_1">
   <g id="patch_2">
    <path d="M 186.093511 19.296004 
C 161.095182 19.296004 136.708466 27.092356 116.346256 41.593971 
C 95.984046 56.095586 80.642711 76.592865 72.469253 100.217239 
C 64.295796 123.841612 63.690161 149.437085 70.737109 173.421601 
C 77.784056 197.406116 92.138761 218.606056 111.7923 234.054514 
L 186.093511 139.528463 
L 186.093511 19.296004 
z
" style="fill: #0000ff"/>
   </g>
   <g id="patch_3">
    <path d="M 111.7923 234.054514 
C 126.859922 245.898261 144.543287 253.969412 163.36294 257.592706 
C 182.182592 261.216 201.598636 260.287492 219.986654 254.884864 
C 238.374672 249.482236 255.207149 239.760478 269.075821 226.532949 
C 282.944492 213.30542 293.451494 196.951588 299.717772 178.839677 
C 305.984051 160.727765 307.829839 141.377366 305.100711 122.407404 
C 302.371583 103.437443 295.145833 85.392127 284.027993 69.781194 
C 272.910153 54.170262 258.219171 41.441557 241.184147 32.660011 
C 224.149124 23.878464 205.258759 19.296 186.093488 19.296004 
L 186.093511 139.528463 
L 111.7923 234.054514 
z
" style="fill: #bf00bf"/>
   </g>
   <g id="matplotlib.axis_1"/>
   <g id="matplotlib.axis_2"/>
  </g>
 </g>
</svg>
