<?xml version="1.0" encoding="utf-8" standalone="no"?>
<!DOCTYPE svg PUBLIC "-//W3C//DTD SVG 1.1//EN"
  "http://www.w3.org/Graphics/SVG/1.1/DTD/svg11.dtd">
<svg xmlns:xlink="http://www.w3.org/1999/xlink" width="371.52pt" height="280.512pt" viewBox="0 0 371.52 280.512" xmlns="http://www.w3.org/2000/svg" version="1.1">
 <metadata>
  <rdf:RDF xmlns:dc="http://purl.org/dc/elements/1.1/" xmlns:cc="http://creativecommons.org/ns#" xmlns:rdf="http://www.w3.org/1999/02/22-rdf-syntax-ns#">
   <cc:Work>
    <dc:type rdf:resource="http://purl.org/dc/dcmitype/StillImage"/>
    <dc:date>2021-12-10T18:13:01.331712</dc:date>
    <dc:format>image/svg+xml</dc:format>
    <dc:creator>
     <cc:Agent>
      <dc:title>Matplotlib v3.5.0, https://matplotlib.org/</dc:title>
     </cc:Agent>
    </dc:creator>
   </cc:Work>
  </rdf:RDF>
 </metadata>
 <defs>
  <style type="text/css">*{stroke-linejoin: round; stroke-linecap: butt}</style>
 </defs>
 <g id="figure_1">
  <g id="patch_1">
   <path d="M 0 280.512 
L 371.52 280.512 
L 371.52 0 
L 0 0 
L 0 280.512 
z
" style="fill: none"/>
  </g>
  <g id="axes_1">
   <g id="patch_2">
    <path d="M 185.606694 19.296 
C 169.557352 19.296 153.668052 22.497351 138.870879 28.712258 
C 124.073706 34.927164 110.663772 44.031678 99.427719 55.491717 
C 88.191667 66.951757 79.353584 80.538766 73.431925 95.455714 
C 67.510266 110.372661 64.62313 126.322049 64.939879 142.368265 
C 65.256629 158.414481 68.770947 174.237505 75.27668 188.909138 
C 81.782413 203.580771 91.149812 216.808407 102.829374 227.816096 
C 114.508936 238.823785 128.267727 247.391992 143.298639 253.018098 
C 158.329551 258.644203 174.332812 261.216 190.369652 260.582624 
L 185.606694 139.986322 
L 185.606694 19.296 
z
" style="fill: #0000ff"/>
   </g>
   <g id="patch_3">
    <path d="M 190.369652 260.582624 
C 221.930075 259.336143 251.773388 245.748965 273.436468 222.763642 
C 295.099547 199.77832 306.89687 169.183257 306.273509 137.604379 
C 305.650147 106.025502 292.654602 75.919846 270.101299 53.807348 
C 247.547995 31.694849 217.191723 19.296 185.606694 19.296 
L 185.606694 139.986322 
L 190.369652 260.582624 
z
" style="fill: #ff0000"/>
   </g>
   <g id="matplotlib.axis_1"/>
   <g id="matplotlib.axis_2"/>
  </g>
 </g>
</svg>
