<?xml version="1.0" encoding="utf-8" standalone="no"?>
<!DOCTYPE svg PUBLIC "-//W3C//DTD SVG 1.1//EN"
  "http://www.w3.org/Graphics/SVG/1.1/DTD/svg11.dtd">
<svg xmlns:xlink="http://www.w3.org/1999/xlink" width="566.9595pt" height="563.3946pt" viewBox="0 0 566.9595 563.3946" xmlns="http://www.w3.org/2000/svg" version="1.1">
 <metadata>
  <rdf:RDF xmlns:dc="http://purl.org/dc/elements/1.1/" xmlns:cc="http://creativecommons.org/ns#" xmlns:rdf="http://www.w3.org/1999/02/22-rdf-syntax-ns#">
   <cc:Work>
    <dc:type rdf:resource="http://purl.org/dc/dcmitype/StillImage"/>
    <dc:date>2021-12-14T09:20:47.301006</dc:date>
    <dc:format>image/svg+xml</dc:format>
    <dc:creator>
     <cc:Agent>
      <dc:title>Matplotlib v3.5.0, https://matplotlib.org/</dc:title>
     </cc:Agent>
    </dc:creator>
   </cc:Work>
  </rdf:RDF>
 </metadata>
 <defs>
  <style type="text/css">*{stroke-linejoin: round; stroke-linecap: butt}</style>
 </defs>
 <g id="figure_1">
  <g id="patch_1">
   <path d="M 0 563.3946 
L 566.9595 563.3946 
L 566.9595 0 
L 0 0 
L 0 563.3946 
z
" style="fill: none"/>
  </g>
  <g id="axes_1">
   <g id="patch_2">
    <path d="M 281.745627 32.154311 
C 246.106839 32.154311 210.882337 39.828105 178.473128 54.652626 
C 146.063918 69.477146 117.22349 91.107734 93.917691 118.069985 
C 70.611891 145.032236 53.382563 176.699299 43.404107 210.912654 
C 33.425651 245.126009 30.930058 281.090223 36.087436 316.353869 
C 41.244815 351.617514 53.935258 385.36074 73.293749 415.283509 
C 92.652241 445.206277 118.22871 470.612907 148.279789 489.771609 
C 178.330869 508.930311 212.157896 521.395659 247.45512 526.31798 
C 282.752344 531.2403 318.699132 528.505152 352.845247 518.298972 
L 281.745627 280.425872 
L 281.745627 32.154311 
z
" style="fill: #0000ff"/>
   </g>
   <g id="patch_3">
    <path d="M 352.845247 518.298972 
C 409.954004 501.22932 459.048793 464.151587 491.091371 413.8917 
C 523.13395 363.631813 536.029442 303.475658 527.403815 244.497852 
C 518.778188 185.520045 489.195369 131.576432 444.101488 92.597912 
C 399.007607 53.619392 341.350808 32.1543 281.745581 32.154311 
L 281.745627 280.425872 
L 352.845247 518.298972 
z
" style="fill: #ff0000"/>
   </g>
   <g id="matplotlib.axis_1"/>
   <g id="matplotlib.axis_2"/>
  </g>
 </g>
</svg>
