<?xml version="1.0" encoding="utf-8" standalone="no"?>
<!DOCTYPE svg PUBLIC "-//W3C//DTD SVG 1.1//EN"
  "http://www.w3.org/Graphics/SVG/1.1/DTD/svg11.dtd">
<svg xmlns:xlink="http://www.w3.org/1999/xlink" width="63.2808pt" height="62.96544pt" viewBox="0 0 63.2808 62.96544" xmlns="http://www.w3.org/2000/svg" version="1.1">
 <metadata>
  <rdf:RDF xmlns:dc="http://purl.org/dc/elements/1.1/" xmlns:cc="http://creativecommons.org/ns#" xmlns:rdf="http://www.w3.org/1999/02/22-rdf-syntax-ns#">
   <cc:Work>
    <dc:type rdf:resource="http://purl.org/dc/dcmitype/StillImage"/>
    <dc:date>2022-01-14T17:05:44.656443</dc:date>
    <dc:format>image/svg+xml</dc:format>
    <dc:creator>
     <cc:Agent>
      <dc:title>Matplotlib v3.5.1, https://matplotlib.org/</dc:title>
     </cc:Agent>
    </dc:creator>
   </cc:Work>
  </rdf:RDF>
 </metadata>
 <defs>
  <style type="text/css">*{stroke-linejoin: round; stroke-linecap: butt}</style>
 </defs>
 <g id="figure_1">
  <g id="patch_1">
   <path d="M 0 62.96544 
L 63.2808 62.96544 
L 63.2808 0 
L 0 0 
L 0 62.96544 
z
" style="fill: none"/>
  </g>
  <g id="axes_1">
   <g id="patch_2">
    <path d="M 31.506469 9.40752 
C 28.13386 9.40752 24.806029 10.183461 21.781227 11.675128 
C 18.756425 13.166796 16.114974 15.334578 14.06186 18.010249 
C 12.008745 20.68592 10.598485 23.798429 9.940522 27.106235 
C 9.282558 30.414041 9.394362 33.829307 10.267257 37.086998 
C 11.140153 40.344689 12.75096 43.358299 14.974676 45.893961 
C 17.198392 48.429624 19.975967 50.420006 23.091852 51.710648 
C 26.207737 53.00129 29.579192 53.55792 32.94458 53.337341 
C 36.309969 53.116762 39.579926 52.124832 42.500692 50.438528 
L 31.506469 31.39597 
L 31.506469 9.40752 
z
" style="fill: #0000ff; stroke: #000000; stroke-linejoin: miter"/>
   </g>
   <g id="patch_3">
    <path d="M 42.500692 50.438528 
C 46.691843 48.018766 49.969141 44.281725 51.821147 39.810588 
C 53.673153 35.339452 53.998242 30.379565 52.745682 25.704944 
C 51.493122 21.030323 48.731644 16.897478 44.892193 13.951362 
C 41.052741 11.005246 36.345997 9.407521 31.506474 9.40752 
L 31.506469 31.39597 
L 42.500692 50.438528 
z
" style="fill: #ff0000; stroke: #000000; stroke-linejoin: miter"/>
   </g>
   <g id="matplotlib.axis_1"/>
   <g id="matplotlib.axis_2"/>
  </g>
 </g>
</svg>
