<?xml version="1.0" encoding="utf-8" standalone="no"?>
<!DOCTYPE svg PUBLIC "-//W3C//DTD SVG 1.1//EN"
  "http://www.w3.org/Graphics/SVG/1.1/DTD/svg11.dtd">
<svg xmlns:xlink="http://www.w3.org/1999/xlink" width="51.2559pt" height="51.01812pt" viewBox="0 0 51.2559 51.01812" xmlns="http://www.w3.org/2000/svg" version="1.1">
 <metadata>
  <rdf:RDF xmlns:dc="http://purl.org/dc/elements/1.1/" xmlns:cc="http://creativecommons.org/ns#" xmlns:rdf="http://www.w3.org/1999/02/22-rdf-syntax-ns#">
   <cc:Work>
    <dc:type rdf:resource="http://purl.org/dc/dcmitype/StillImage"/>
    <dc:date>2022-01-14T17:05:45.709599</dc:date>
    <dc:format>image/svg+xml</dc:format>
    <dc:creator>
     <cc:Agent>
      <dc:title>Matplotlib v3.5.1, https://matplotlib.org/</dc:title>
     </cc:Agent>
    </dc:creator>
   </cc:Work>
  </rdf:RDF>
 </metadata>
 <defs>
  <style type="text/css">*{stroke-linejoin: round; stroke-linecap: butt}</style>
 </defs>
 <g id="figure_1">
  <g id="patch_1">
   <path d="M 0 51.01812 
L 51.2559 51.01812 
L 51.2559 0 
L 0 0 
L 0 51.01812 
z
" style="fill: none"/>
  </g>
  <g id="axes_1">
   <g id="patch_2">
    <path d="M 25.588696 8.86446 
C 23.350227 8.86446 21.134601 9.314607 19.074767 10.18789 
C 17.014933 11.061173 15.152932 12.339768 13.600494 13.946953 
C 12.048056 15.554138 10.836866 17.457111 10.039601 19.541683 
C 9.242336 21.626256 8.875268 23.849882 8.960424 26.079133 
C 9.045579 28.308384 9.58122 30.497762 10.535205 32.515892 
C 11.48919 34.534022 12.842048 36.339714 14.512601 37.824619 
C 16.183154 39.309523 18.137307 40.443333 20.2578 41.158014 
C 22.378292 41.872695 24.621846 42.15366 26.853837 41.98405 
L 25.588696 25.448255 
L 25.588696 8.86446 
z
" style="fill: #0000ff; stroke: #000000; stroke-linejoin: miter"/>
   </g>
   <g id="patch_3">
    <path d="M 26.853837 41.98405 
C 31.143574 41.658072 35.143627 39.686514 38.007242 36.486727 
C 40.870857 33.286941 42.380632 29.101849 42.216969 24.817377 
C 42.053305 20.532904 40.228629 16.474322 37.129198 13.500774 
C 34.029767 10.527226 29.890886 8.86446 25.588696 8.86446 
L 25.588696 25.448255 
L 26.853837 41.98405 
z
" style="fill: #ff0000; stroke: #000000; stroke-linejoin: miter"/>
   </g>
   <g id="matplotlib.axis_1"/>
   <g id="matplotlib.axis_2"/>
  </g>
 </g>
</svg>
