<?xml version="1.0" encoding="utf-8" standalone="no"?>
<!DOCTYPE svg PUBLIC "-//W3C//DTD SVG 1.1//EN"
  "http://www.w3.org/Graphics/SVG/1.1/DTD/svg11.dtd">
<svg xmlns:xlink="http://www.w3.org/1999/xlink" width="73.3806pt" height="73.00008pt" viewBox="0 0 73.3806 73.00008" xmlns="http://www.w3.org/2000/svg" version="1.1">
 <metadata>
  <rdf:RDF xmlns:dc="http://purl.org/dc/elements/1.1/" xmlns:cc="http://creativecommons.org/ns#" xmlns:rdf="http://www.w3.org/1999/02/22-rdf-syntax-ns#">
   <cc:Work>
    <dc:type rdf:resource="http://purl.org/dc/dcmitype/StillImage"/>
    <dc:date>2021-12-14T09:20:49.971073</dc:date>
    <dc:format>image/svg+xml</dc:format>
    <dc:creator>
     <cc:Agent>
      <dc:title>Matplotlib v3.5.0, https://matplotlib.org/</dc:title>
     </cc:Agent>
    </dc:creator>
   </cc:Work>
  </rdf:RDF>
 </metadata>
 <defs>
  <style type="text/css">*{stroke-linejoin: round; stroke-linecap: butt}</style>
 </defs>
 <g id="figure_1">
  <g id="patch_1">
   <path d="M 0 73.00008 
L 73.3806 73.00008 
L 73.3806 0 
L 0 0 
L 0 73.00008 
z
" style="fill: none"/>
  </g>
  <g id="axes_1">
   <g id="patch_2">
    <path d="M 36.625157 9.86364 
C 32.468993 9.86364 28.370886 10.846391 24.664986 12.731761 
C 20.959086 14.617131 17.74893 17.352447 15.296264 20.714679 
C 12.843598 24.07691 11.216946 27.972122 10.548941 32.082709 
C 9.880936 36.193296 10.190241 40.404416 11.451636 44.372705 
C 12.713031 48.340993 14.891274 51.955584 17.808758 54.921752 
C 20.726242 57.887921 24.301457 60.122797 28.24289 61.444156 
C 32.184322 62.765515 36.381856 63.13644 40.493234 62.526686 
C 44.604613 61.916933 48.514971 60.343536 51.90547 57.934787 
L 36.625157 36.337804 
L 36.625157 9.86364 
z
" style="fill: #0000ff"/>
   </g>
   <g id="patch_3">
    <path d="M 51.90547 57.934787 
C 56.477541 54.686601 59.901677 50.063314 61.679858 44.737353 
C 63.458038 39.411393 63.499664 33.654124 61.798679 28.302905 
C 60.097695 22.951686 56.740768 18.279169 52.216143 14.964942 
C 47.691518 11.650715 42.229731 9.863641 36.625162 9.86364 
L 36.625157 36.337804 
L 51.90547 57.934787 
z
" style="fill: #ff0000"/>
   </g>
   <g id="matplotlib.axis_1"/>
   <g id="matplotlib.axis_2"/>
  </g>
 </g>
</svg>
