<?xml version="1.0" encoding="utf-8" standalone="no"?>
<!DOCTYPE svg PUBLIC "-//W3C//DTD SVG 1.1//EN"
  "http://www.w3.org/Graphics/SVG/1.1/DTD/svg11.dtd">
<svg xmlns:xlink="http://www.w3.org/1999/xlink" width="371.52pt" height="280.512pt" viewBox="0 0 371.52 280.512" xmlns="http://www.w3.org/2000/svg" version="1.1">
 <metadata>
  <rdf:RDF xmlns:dc="http://purl.org/dc/elements/1.1/" xmlns:cc="http://creativecommons.org/ns#" xmlns:rdf="http://www.w3.org/1999/02/22-rdf-syntax-ns#">
   <cc:Work>
    <dc:type rdf:resource="http://purl.org/dc/dcmitype/StillImage"/>
    <dc:date>2021-12-03T16:09:59.898761</dc:date>
    <dc:format>image/svg+xml</dc:format>
    <dc:creator>
     <cc:Agent>
      <dc:title>Matplotlib v3.5.0, https://matplotlib.org/</dc:title>
     </cc:Agent>
    </dc:creator>
   </cc:Work>
  </rdf:RDF>
 </metadata>
 <defs>
  <style type="text/css">*{stroke-linejoin: round; stroke-linecap: butt}</style>
 </defs>
 <g id="figure_1">
  <g id="patch_1">
   <path d="M 0 280.512 
L 371.52 280.512 
L 371.52 0 
L 0 0 
L 0 280.512 
z
" style="fill: none"/>
  </g>
  <g id="axes_1">
   <g id="patch_2">
    <path d="M 185.463567 19.296 
C 166.550873 19.296 147.902374 23.758822 131.038617 32.32058 
C 114.17486 40.882337 99.566991 53.303829 88.406096 68.572241 
C 77.2452 83.840653 69.843095 101.52941 66.803327 120.19622 
C 63.76356 138.86303 65.171057 157.986373 70.911054 176.006984 
C 76.651051 194.027595 86.563182 210.442008 99.83924 223.911836 
C 113.115298 237.381665 129.384371 247.530584 147.319923 253.531079 
C 165.255476 259.531573 184.356418 261.216 203.065312 258.447015 
C 221.774206 255.67803 239.568356 248.532994 254.996875 237.594493 
L 185.463567 139.51926 
L 185.463567 19.296 
z
" style="fill: #0000ff"/>
   </g>
   <g id="patch_3">
    <path d="M 254.996875 237.594493 
C 275.80216 222.843977 291.383743 201.848917 299.475383 177.662909 
C 307.567024 153.476901 307.75644 127.332257 300.016083 103.031547 
C 292.275727 78.730837 276.999979 57.512217 256.4106 42.461799 
C 235.821221 27.411381 210.967268 19.296005 185.463589 19.296 
L 185.463567 139.51926 
L 254.996875 237.594493 
z
" style="fill: #bf00bf"/>
   </g>
   <g id="matplotlib.axis_1"/>
   <g id="matplotlib.axis_2"/>
  </g>
 </g>
</svg>
