<?xml version="1.0" encoding="utf-8" standalone="no"?>
<!DOCTYPE svg PUBLIC "-//W3C//DTD SVG 1.1//EN"
  "http://www.w3.org/Graphics/SVG/1.1/DTD/svg11.dtd">
<svg xmlns:xlink="http://www.w3.org/1999/xlink" width="166.38525pt" height="165.4047pt" viewBox="0 0 166.38525 165.4047" xmlns="http://www.w3.org/2000/svg" version="1.1">
 <metadata>
  <rdf:RDF xmlns:dc="http://purl.org/dc/elements/1.1/" xmlns:cc="http://creativecommons.org/ns#" xmlns:rdf="http://www.w3.org/1999/02/22-rdf-syntax-ns#">
   <cc:Work>
    <dc:type rdf:resource="http://purl.org/dc/dcmitype/StillImage"/>
    <dc:date>2021-12-14T09:20:50.899855</dc:date>
    <dc:format>image/svg+xml</dc:format>
    <dc:creator>
     <cc:Agent>
      <dc:title>Matplotlib v3.5.0, https://matplotlib.org/</dc:title>
     </cc:Agent>
    </dc:creator>
   </cc:Work>
  </rdf:RDF>
 </metadata>
 <defs>
  <style type="text/css">*{stroke-linejoin: round; stroke-linecap: butt}</style>
 </defs>
 <g id="figure_1">
  <g id="patch_1">
   <path d="M 0 165.4047 
L 166.38525 165.4047 
L 166.38525 0 
L 0 0 
L 0 165.4047 
z
" style="fill: none"/>
  </g>
  <g id="axes_1">
   <g id="patch_2">
    <path d="M 82.677931 14.063853 
C 72.752816 14.063853 62.94591 16.226951 53.941718 20.402167 
C 44.937526 24.577383 36.950529 30.665262 30.538205 38.240882 
C 24.125881 45.816502 19.440974 54.699409 16.810481 64.269592 
C 14.179988 73.839776 13.666568 83.869272 15.306057 93.65804 
C 16.945546 103.446809 20.698891 112.761678 26.304115 120.952488 
C 31.90934 129.143298 39.232926 136.014941 47.7637 141.08779 
C 56.294475 146.160638 65.829233 149.313856 75.702466 150.327353 
C 85.575699 151.34085 95.552224 150.190485 104.935699 146.956552 
L 82.677931 82.374143 
L 82.677931 14.063853 
z
" style="fill: #0000ff"/>
   </g>
   <g id="patch_3">
    <path d="M 104.935699 146.956552 
C 120.210782 141.692127 133.133637 131.175371 141.391579 117.288371 
C 149.649521 103.401372 152.718682 87.02509 150.049804 71.09024 
C 147.380926 55.15539 139.143317 40.672844 126.811185 30.234411 
C 114.479053 19.795978 98.834724 14.06385 82.677918 14.063853 
L 82.677931 82.374143 
L 104.935699 146.956552 
z
" style="fill: #ff0000"/>
   </g>
   <g id="matplotlib.axis_1"/>
   <g id="matplotlib.axis_2"/>
  </g>
 </g>
</svg>
