<?xml version="1.0" encoding="utf-8" standalone="no"?>
<!DOCTYPE svg PUBLIC "-//W3C//DTD SVG 1.1//EN"
  "http://www.w3.org/Graphics/SVG/1.1/DTD/svg11.dtd">
<svg xmlns:xlink="http://www.w3.org/1999/xlink" width="371.52pt" height="280.512pt" viewBox="0 0 371.52 280.512" xmlns="http://www.w3.org/2000/svg" version="1.1">
 <metadata>
  <rdf:RDF xmlns:dc="http://purl.org/dc/elements/1.1/" xmlns:cc="http://creativecommons.org/ns#" xmlns:rdf="http://www.w3.org/1999/02/22-rdf-syntax-ns#">
   <cc:Work>
    <dc:type rdf:resource="http://purl.org/dc/dcmitype/StillImage"/>
    <dc:date>2021-12-10T18:14:47.743567</dc:date>
    <dc:format>image/svg+xml</dc:format>
    <dc:creator>
     <cc:Agent>
      <dc:title>Matplotlib v3.5.0, https://matplotlib.org/</dc:title>
     </cc:Agent>
    </dc:creator>
   </cc:Work>
  </rdf:RDF>
 </metadata>
 <defs>
  <style type="text/css">*{stroke-linejoin: round; stroke-linecap: butt}</style>
 </defs>
 <g id="figure_1">
  <g id="patch_1">
   <path d="M 0 280.512 
L 371.52 280.512 
L 371.52 0 
L 0 0 
L 0 280.512 
z
" style="fill: none"/>
  </g>
  <g id="axes_1">
   <g id="patch_2">
    <path d="M 185.982527 19.296006 
C 154.621009 19.296006 124.464165 31.529989 101.966521 53.379493 
C 79.468877 75.228997 66.358814 105.015435 65.442303 136.363558 
C 64.525792 167.711681 75.873245 198.213171 97.055945 221.339737 
C 118.238644 244.466303 147.62923 258.441247 178.93718 260.273486 
L 185.982527 139.887737 
L 185.982527 19.296006 
z
" style="fill: #0000ff"/>
   </g>
   <g id="patch_3">
    <path d="M 178.93718 260.273486 
C 195.042177 261.216 211.17377 258.917254 226.374454 253.513692 
C 241.575137 248.11013 255.538092 239.710821 267.434536 228.814312 
C 279.330979 217.917803 288.920786 204.744036 295.634745 190.074952 
C 302.348704 175.405868 306.051296 159.537556 306.522752 143.411893 
C 306.994208 127.28623 304.22501 111.228707 298.379528 96.19243 
C 292.534045 81.156154 283.730266 67.444626 272.490747 55.871706 
C 261.251228 44.298786 247.802833 35.098069 232.943804 28.81567 
C 218.084775 22.533272 202.115035 19.296 185.982482 19.296006 
L 185.982527 139.887737 
L 178.93718 260.273486 
z
" style="fill: #ff0000"/>
   </g>
   <g id="matplotlib.axis_1"/>
   <g id="matplotlib.axis_2"/>
  </g>
 </g>
</svg>
