<?xml version="1.0" encoding="utf-8" standalone="no"?>
<!DOCTYPE svg PUBLIC "-//W3C//DTD SVG 1.1//EN"
  "http://www.w3.org/Graphics/SVG/1.1/DTD/svg11.dtd">
<svg xmlns:xlink="http://www.w3.org/1999/xlink" width="33.5394pt" height="33.41592pt" viewBox="0 0 33.5394 33.41592" xmlns="http://www.w3.org/2000/svg" version="1.1">
 <metadata>
  <rdf:RDF xmlns:dc="http://purl.org/dc/elements/1.1/" xmlns:cc="http://creativecommons.org/ns#" xmlns:rdf="http://www.w3.org/1999/02/22-rdf-syntax-ns#">
   <cc:Work>
    <dc:type rdf:resource="http://purl.org/dc/dcmitype/StillImage"/>
    <dc:date>2022-01-14T17:05:48.523669</dc:date>
    <dc:format>image/svg+xml</dc:format>
    <dc:creator>
     <cc:Agent>
      <dc:title>Matplotlib v3.5.1, https://matplotlib.org/</dc:title>
     </cc:Agent>
    </dc:creator>
   </cc:Work>
  </rdf:RDF>
 </metadata>
 <defs>
  <style type="text/css">*{stroke-linejoin: round; stroke-linecap: butt}</style>
 </defs>
 <g id="figure_1">
  <g id="patch_1">
   <path d="M 0 33.41592 
L 33.5394 33.41592 
L 33.5394 0 
L 0 0 
L 0 33.41592 
z
" style="fill: none"/>
  </g>
  <g id="axes_1">
   <g id="patch_2">
    <path d="M 16.720077 8.06436 
C 15.51542 8.06436 14.324192 8.319545 13.22432 8.813222 
C 12.124448 9.306898 11.140453 10.028061 10.336707 10.929531 
C 9.53296 11.831001 8.92738 12.892683 8.559584 14.045121 
C 8.191787 15.197559 8.069973 16.415063 8.20211 17.617985 
C 8.334247 18.820906 8.71739 19.982428 9.326474 21.026565 
C 9.935558 22.070702 10.757005 22.974176 11.737075 23.677884 
C 12.717145 24.381592 13.833991 24.869845 15.014549 25.110703 
C 16.195107 25.35156 17.413059 25.339652 18.588728 25.075758 
L 16.720077 16.673643 
L 16.720077 8.06436 
z
" style="fill: #0000ff; stroke: #000000; stroke-linejoin: miter"/>
   </g>
   <g id="patch_3">
    <path d="M 18.588728 25.075758 
C 20.647425 24.613657 22.465511 23.403795 23.692095 21.679675 
C 24.91868 19.955554 25.469427 17.835721 25.238043 15.729301 
C 25.00666 13.622881 24.009054 11.674705 22.437763 10.260771 
C 20.866473 8.846836 18.829535 8.06436 16.720077 8.06436 
L 16.720077 16.673643 
L 18.588728 25.075758 
z
" style="fill: #ff0000; stroke: #000000; stroke-linejoin: miter"/>
   </g>
   <g id="matplotlib.axis_1"/>
   <g id="matplotlib.axis_2"/>
  </g>
 </g>
</svg>
