<?xml version="1.0" encoding="utf-8" standalone="no"?>
<!DOCTYPE svg PUBLIC "-//W3C//DTD SVG 1.1//EN"
  "http://www.w3.org/Graphics/SVG/1.1/DTD/svg11.dtd">
<svg xmlns:xlink="http://www.w3.org/1999/xlink" width="371.52pt" height="280.512pt" viewBox="0 0 371.52 280.512" xmlns="http://www.w3.org/2000/svg" version="1.1">
 <metadata>
  <rdf:RDF xmlns:dc="http://purl.org/dc/elements/1.1/" xmlns:cc="http://creativecommons.org/ns#" xmlns:rdf="http://www.w3.org/1999/02/22-rdf-syntax-ns#">
   <cc:Work>
    <dc:type rdf:resource="http://purl.org/dc/dcmitype/StillImage"/>
    <dc:date>2021-12-03T16:10:01.780315</dc:date>
    <dc:format>image/svg+xml</dc:format>
    <dc:creator>
     <cc:Agent>
      <dc:title>Matplotlib v3.5.0, https://matplotlib.org/</dc:title>
     </cc:Agent>
    </dc:creator>
   </cc:Work>
  </rdf:RDF>
 </metadata>
 <defs>
  <style type="text/css">*{stroke-linejoin: round; stroke-linecap: butt}</style>
 </defs>
 <g id="figure_1">
  <g id="patch_1">
   <path d="M 0 280.512 
L 371.52 280.512 
L 371.52 0 
L 0 0 
L 0 280.512 
z
" style="fill: none"/>
  </g>
  <g id="axes_1">
   <g id="patch_2">
    <path d="M 185.062354 19.296 
C 168.126276 19.296 151.378974 22.867107 135.916049 29.7757 
C 120.453124 36.684293 106.619285 46.776361 95.319537 59.391685 
C 84.01979 72.00701 75.506034 86.864362 70.335237 102.991779 
C 65.164441 119.119195 63.451873 136.157154 65.309571 152.991039 
C 67.167269 169.824924 72.553819 186.079462 81.116835 200.691288 
C 89.679851 215.303115 101.228441 227.946493 115.0071 237.794298 
C 128.785759 247.642103 144.487325 254.474802 161.084607 257.845401 
C 177.681889 261.216 194.80489 261.04936 211.33343 257.356383 
L 185.062354 139.77576 
L 185.062354 19.296 
z
" style="fill: #0000ff"/>
   </g>
   <g id="patch_3">
    <path d="M 211.33343 257.356383 
C 240.27634 250.88966 265.83653 233.958643 283.080892 209.831014 
C 300.325255 185.703384 308.068127 156.038075 304.815136 126.56048 
C 301.562146 97.082886 287.536958 69.819783 265.446428 50.032943 
C 243.355899 30.246103 214.718897 19.296 185.062354 19.296 
L 185.062354 139.77576 
L 211.33343 257.356383 
z
" style="fill: #bf00bf"/>
   </g>
   <g id="matplotlib.axis_1"/>
   <g id="matplotlib.axis_2"/>
  </g>
 </g>
</svg>
