<?xml version="1.0" encoding="utf-8" standalone="no"?>
<!DOCTYPE svg PUBLIC "-//W3C//DTD SVG 1.1//EN"
  "http://www.w3.org/Graphics/SVG/1.1/DTD/svg11.dtd">
<svg xmlns:xlink="http://www.w3.org/1999/xlink" width="119.01105pt" height="118.33614pt" viewBox="0 0 119.01105 118.33614" xmlns="http://www.w3.org/2000/svg" version="1.1">
 <metadata>
  <rdf:RDF xmlns:dc="http://purl.org/dc/elements/1.1/" xmlns:cc="http://creativecommons.org/ns#" xmlns:rdf="http://www.w3.org/1999/02/22-rdf-syntax-ns#">
   <cc:Work>
    <dc:type rdf:resource="http://purl.org/dc/dcmitype/StillImage"/>
    <dc:date>2022-01-14T17:05:50.479885</dc:date>
    <dc:format>image/svg+xml</dc:format>
    <dc:creator>
     <cc:Agent>
      <dc:title>Matplotlib v3.5.1, https://matplotlib.org/</dc:title>
     </cc:Agent>
    </dc:creator>
   </cc:Work>
  </rdf:RDF>
 </metadata>
 <defs>
  <style type="text/css">*{stroke-linejoin: round; stroke-linecap: butt}</style>
 </defs>
 <g id="figure_1">
  <g id="patch_1">
   <path d="M 0 118.33614 
L 119.01105 118.33614 
L 119.01105 0 
L 0 0 
L 0 118.33614 
z
" style="fill: none"/>
  </g>
  <g id="axes_1">
   <g id="patch_2">
    <path d="M 59.190461 11.92437 
C 52.479421 11.92437 45.845545 13.361529 39.736199 16.13893 
C 33.626853 18.91633 28.182529 22.970103 23.770373 28.026875 
C 19.358218 33.083647 16.079693 39.027133 14.155893 45.456523 
C 12.232093 51.885912 11.707256 58.653356 12.616777 65.302478 
C 13.526298 71.951601 15.84926 78.3295 19.429011 84.006069 
C 23.008762 89.682639 27.762982 94.527341 33.371061 98.213465 
C 38.97914 101.899588 45.312115 104.342367 51.942911 105.377069 
C 58.573706 106.41177 65.349841 106.0146 71.814354 104.212341 
L 59.190461 58.931755 
L 59.190461 11.92437 
z
" style="fill: #0000ff; stroke: #000000; stroke-linejoin: miter"/>
   </g>
   <g id="patch_3">
    <path d="M 71.814354 104.212341 
C 82.757563 101.161456 92.232255 94.244582 98.472171 84.751155 
C 104.712088 75.257728 107.303794 63.816749 105.764146 52.561031 
C 104.224498 41.305312 98.655508 30.980619 90.095341 23.511667 
C 81.535173 16.042714 70.550995 11.92437 59.190461 11.92437 
L 59.190461 58.931755 
L 71.814354 104.212341 
z
" style="fill: #ff0000; stroke: #000000; stroke-linejoin: miter"/>
   </g>
   <g id="matplotlib.axis_1"/>
   <g id="matplotlib.axis_2"/>
  </g>
 </g>
</svg>
