<?xml version="1.0" encoding="utf-8" standalone="no"?>
<!DOCTYPE svg PUBLIC "-//W3C//DTD SVG 1.1//EN"
  "http://www.w3.org/Graphics/SVG/1.1/DTD/svg11.dtd">
<svg xmlns:xlink="http://www.w3.org/1999/xlink" width="371.52pt" height="280.512pt" viewBox="0 0 371.52 280.512" xmlns="http://www.w3.org/2000/svg" version="1.1">
 <metadata>
  <rdf:RDF xmlns:dc="http://purl.org/dc/elements/1.1/" xmlns:cc="http://creativecommons.org/ns#" xmlns:rdf="http://www.w3.org/1999/02/22-rdf-syntax-ns#">
   <cc:Work>
    <dc:type rdf:resource="http://purl.org/dc/dcmitype/StillImage"/>
    <dc:date>2021-12-03T16:10:03.653305</dc:date>
    <dc:format>image/svg+xml</dc:format>
    <dc:creator>
     <cc:Agent>
      <dc:title>Matplotlib v3.5.0, https://matplotlib.org/</dc:title>
     </cc:Agent>
    </dc:creator>
   </cc:Work>
  </rdf:RDF>
 </metadata>
 <defs>
  <style type="text/css">*{stroke-linejoin: round; stroke-linecap: butt}</style>
 </defs>
 <g id="figure_1">
  <g id="patch_1">
   <path d="M 0 280.512 
L 371.52 280.512 
L 371.52 0 
L 0 0 
L 0 280.512 
z
" style="fill: none"/>
  </g>
  <g id="axes_1">
   <g id="patch_2">
    <path d="M 184.953329 19.296 
C 167.770776 19.296 150.785787 22.975618 135.143776 30.086711 
C 119.501766 37.197805 105.562436 47.576848 94.265812 60.52391 
C 82.969189 73.470973 74.575047 88.688326 69.649461 105.149758 
C 64.723876 121.61119 63.380115 138.938156 65.708798 155.96218 
C 68.037481 172.986203 73.985058 189.315802 83.150443 203.849757 
C 92.315827 218.383713 104.488253 230.787805 118.84685 240.22554 
C 133.205446 249.663274 149.420026 255.917623 166.397126 258.566811 
C 183.374226 261.216 200.723445 260.199108 217.274804 255.584712 
L 184.953329 139.650952 
L 184.953329 19.296 
z
" style="fill: #0000ff"/>
   </g>
   <g id="patch_3">
    <path d="M 217.274804 255.584712 
C 245.293154 247.773403 269.5516 230.063846 285.527917 205.757431 
C 301.504234 181.451017 308.139885 152.158206 304.197861 123.339724 
C 300.255836 94.521241 285.997322 68.086503 264.080371 48.963435 
C 242.163419 29.840367 214.040174 19.296 184.953329 19.296 
L 184.953329 139.650952 
L 217.274804 255.584712 
z
" style="fill: #bf00bf"/>
   </g>
   <g id="matplotlib.axis_1"/>
   <g id="matplotlib.axis_2"/>
  </g>
 </g>
</svg>
