<?xml version="1.0" encoding="utf-8" standalone="no"?>
<!DOCTYPE svg PUBLIC "-//W3C//DTD SVG 1.1//EN"
  "http://www.w3.org/Graphics/SVG/1.1/DTD/svg11.dtd">
<svg xmlns:xlink="http://www.w3.org/1999/xlink" width="106.98615pt" height="106.38882pt" viewBox="0 0 106.98615 106.38882" xmlns="http://www.w3.org/2000/svg" version="1.1">
 <metadata>
  <rdf:RDF xmlns:dc="http://purl.org/dc/elements/1.1/" xmlns:cc="http://creativecommons.org/ns#" xmlns:rdf="http://www.w3.org/1999/02/22-rdf-syntax-ns#">
   <cc:Work>
    <dc:type rdf:resource="http://purl.org/dc/dcmitype/StillImage"/>
    <dc:date>2022-01-14T17:05:49.491804</dc:date>
    <dc:format>image/svg+xml</dc:format>
    <dc:creator>
     <cc:Agent>
      <dc:title>Matplotlib v3.5.1, https://matplotlib.org/</dc:title>
     </cc:Agent>
    </dc:creator>
   </cc:Work>
  </rdf:RDF>
 </metadata>
 <defs>
  <style type="text/css">*{stroke-linejoin: round; stroke-linecap: butt}</style>
 </defs>
 <g id="figure_1">
  <g id="patch_1">
   <path d="M 0 106.38882 
L 106.98615 106.38882 
L 106.98615 0 
L 0 0 
L 0 106.38882 
z
" style="fill: none"/>
  </g>
  <g id="axes_1">
   <g id="patch_2">
    <path d="M 53.528717 11.149001 
C 42.493625 11.149001 31.89169 15.500099 24.038081 23.252137 
C 16.184473 31.004174 11.695741 41.548574 11.552101 52.582731 
C 11.408461 63.616888 15.62119 74.274562 23.270343 82.22841 
C 30.919496 90.182259 41.404574 94.807863 52.435926 95.095119 
L 53.528717 53.129172 
L 53.528717 11.149001 
z
" style="fill: #0000ff; stroke: #000000; stroke-linejoin: miter"/>
   </g>
   <g id="patch_3">
    <path d="M 52.435926 95.095119 
C 57.992806 95.239819 63.523485 94.279376 68.706235 92.26966 
C 73.888984 90.259944 78.62132 87.240695 82.627953 83.387548 
C 86.634586 79.534401 89.836289 74.923548 92.046814 69.823212 
C 94.257339 64.722876 95.432975 59.23391 95.505332 53.675618 
C 95.577689 48.117325 94.545336 42.599616 92.468329 37.443466 
C 90.391321 32.287315 87.310729 27.594681 83.405756 23.638542 
C 79.500783 19.682403 74.848646 16.540988 69.719969 14.397039 
C 64.591291 12.25309 59.087488 11.149002 53.528724 11.149001 
L 53.528717 53.129172 
L 52.435926 95.095119 
z
" style="fill: #ff0000; stroke: #000000; stroke-linejoin: miter"/>
   </g>
   <g id="matplotlib.axis_1"/>
   <g id="matplotlib.axis_2"/>
  </g>
 </g>
</svg>
