<?xml version="1.0" encoding="utf-8" standalone="no"?>
<!DOCTYPE svg PUBLIC "-//W3C//DTD SVG 1.1//EN"
  "http://www.w3.org/Graphics/SVG/1.1/DTD/svg11.dtd">
<svg xmlns:xlink="http://www.w3.org/1999/xlink" width="371.52pt" height="280.512pt" viewBox="0 0 371.52 280.512" xmlns="http://www.w3.org/2000/svg" version="1.1">
 <metadata>
  <rdf:RDF xmlns:dc="http://purl.org/dc/elements/1.1/" xmlns:cc="http://creativecommons.org/ns#" xmlns:rdf="http://www.w3.org/1999/02/22-rdf-syntax-ns#">
   <cc:Work>
    <dc:type rdf:resource="http://purl.org/dc/dcmitype/StillImage"/>
    <dc:date>2021-12-03T16:10:04.610285</dc:date>
    <dc:format>image/svg+xml</dc:format>
    <dc:creator>
     <cc:Agent>
      <dc:title>Matplotlib v3.5.0, https://matplotlib.org/</dc:title>
     </cc:Agent>
    </dc:creator>
   </cc:Work>
  </rdf:RDF>
 </metadata>
 <defs>
  <style type="text/css">*{stroke-linejoin: round; stroke-linecap: butt}</style>
 </defs>
 <g id="figure_1">
  <g id="patch_1">
   <path d="M 0 280.512 
L 371.52 280.512 
L 371.52 0 
L 0 0 
L 0 280.512 
z
" style="fill: none"/>
  </g>
  <g id="axes_1">
   <g id="patch_2">
    <path d="M 185.182855 19.296 
C 166.544733 19.296 148.158939 23.625895 131.47957 31.943241 
C 114.800201 40.260588 100.278878 52.340181 89.064063 67.226669 
C 77.849248 82.113157 70.2446 99.403465 66.851557 117.730135 
C 63.458513 136.056805 64.368946 154.923616 69.510851 172.838425 
C 74.652756 190.753235 83.886907 207.230973 96.482994 220.968447 
C 109.079081 234.705921 124.696045 245.331167 142.098769 252.003855 
C 159.501494 258.676543 178.218774 261.216 196.770296 259.421384 
C 215.321817 257.626769 233.205269 251.546673 249.006283 241.661959 
L 185.182855 139.638273 
L 185.182855 19.296 
z
" style="fill: #0000ff"/>
   </g>
   <g id="patch_3">
    <path d="M 249.006283 241.661959 
C 271.152167 227.808057 288.196343 207.113118 297.548438 182.722358 
C 306.900532 158.331599 308.061487 131.546592 300.854859 106.43812 
C 293.648231 81.329649 278.458591 59.237585 257.594459 43.519481 
C 236.730327 27.801376 211.305083 19.296 185.182855 19.296 
L 185.182855 139.638273 
L 249.006283 241.661959 
z
" style="fill: #bf00bf"/>
   </g>
   <g id="matplotlib.axis_1"/>
   <g id="matplotlib.axis_2"/>
  </g>
 </g>
</svg>
