<?xml version="1.0" encoding="utf-8" standalone="no"?>
<!DOCTYPE svg PUBLIC "-//W3C//DTD SVG 1.1//EN"
  "http://www.w3.org/Graphics/SVG/1.1/DTD/svg11.dtd">
<svg xmlns:xlink="http://www.w3.org/1999/xlink" width="369.77625pt" height="367.4835pt" viewBox="0 0 369.77625 367.4835" xmlns="http://www.w3.org/2000/svg" version="1.1">
 <metadata>
  <rdf:RDF xmlns:dc="http://purl.org/dc/elements/1.1/" xmlns:cc="http://creativecommons.org/ns#" xmlns:rdf="http://www.w3.org/1999/02/22-rdf-syntax-ns#">
   <cc:Work>
    <dc:type rdf:resource="http://purl.org/dc/dcmitype/StillImage"/>
    <dc:date>2021-12-14T09:20:54.566327</dc:date>
    <dc:format>image/svg+xml</dc:format>
    <dc:creator>
     <cc:Agent>
      <dc:title>Matplotlib v3.5.0, https://matplotlib.org/</dc:title>
     </cc:Agent>
    </dc:creator>
   </cc:Work>
  </rdf:RDF>
 </metadata>
 <defs>
  <style type="text/css">*{stroke-linejoin: round; stroke-linecap: butt}</style>
 </defs>
 <g id="figure_1">
  <g id="patch_1">
   <path d="M 0 367.4835 
L 369.77625 367.4835 
L 369.77625 0 
L 0 0 
L 0 367.4835 
z
" style="fill: none"/>
  </g>
  <g id="axes_1">
   <g id="patch_2">
    <path d="M 184.125837 23.24925 
C 159.50878 23.24925 135.224995 28.994254 113.195041 40.0299 
C 91.165087 51.065545 71.985458 67.093027 57.173036 86.84476 
C 42.360613 106.596493 32.316466 129.53767 27.834966 153.853916 
C 23.353466 178.170162 24.555957 203.203079 31.347337 226.972859 
C 38.138716 250.742639 50.335097 272.60568 66.971891 290.832875 
C 83.608684 309.06007 104.235424 323.15789 127.22078 332.011365 
C 150.206136 340.864841 174.927745 344.23425 199.43042 341.853113 
C 223.933096 339.471975 247.553392 331.404765 268.423223 318.289501 
L 184.125837 182.922135 
L 184.125837 23.24925 
z
" style="fill: #0000ff"/>
   </g>
   <g id="patch_3">
    <path d="M 268.423223 318.289501 
C 297.6733 299.907825 320.185088 272.449306 332.537247 240.087087 
C 344.889407 207.724869 346.422784 172.185907 336.904337 138.871412 
C 327.385891 105.556917 307.323556 76.244661 279.766406 55.389519 
C 252.209256 34.534377 218.627832 23.24925 184.125837 23.24925 
L 184.125837 182.922135 
L 268.423223 318.289501 
z
" style="fill: #ff0000"/>
   </g>
   <g id="matplotlib.axis_1"/>
   <g id="matplotlib.axis_2"/>
  </g>
 </g>
</svg>
