<?xml version="1.0" encoding="utf-8" standalone="no"?>
<!DOCTYPE svg PUBLIC "-//W3C//DTD SVG 1.1//EN"
  "http://www.w3.org/Graphics/SVG/1.1/DTD/svg11.dtd">
<svg xmlns:xlink="http://www.w3.org/1999/xlink" width="18.0828pt" height="18.05904pt" viewBox="0 0 18.0828 18.05904" xmlns="http://www.w3.org/2000/svg" version="1.1">
 <metadata>
  <rdf:RDF xmlns:dc="http://purl.org/dc/elements/1.1/" xmlns:cc="http://creativecommons.org/ns#" xmlns:rdf="http://www.w3.org/1999/02/22-rdf-syntax-ns#">
   <cc:Work>
    <dc:type rdf:resource="http://purl.org/dc/dcmitype/StillImage"/>
    <dc:date>2021-12-14T09:21:02.758274</dc:date>
    <dc:format>image/svg+xml</dc:format>
    <dc:creator>
     <cc:Agent>
      <dc:title>Matplotlib v3.5.0, https://matplotlib.org/</dc:title>
     </cc:Agent>
    </dc:creator>
   </cc:Work>
  </rdf:RDF>
 </metadata>
 <defs>
  <style type="text/css">*{stroke-linejoin: round; stroke-linecap: butt}</style>
 </defs>
 <g id="figure_1">
  <g id="patch_1">
   <path d="M 0 18.05904 
L 18.0828 18.05904 
L 18.0828 -0 
L 0 -0 
L 0 18.05904 
z
" style="fill: none"/>
  </g>
  <g id="axes_1">
   <g id="patch_2">
    <path d="M 9.05434 7.36632 
C 8.666196 7.36632 8.290138 7.502772 7.992309 7.751676 
C 7.694479 8.00058 7.493425 8.346435 7.424509 8.728412 
C 7.355592 9.110389 7.423106 9.504699 7.615174 9.84199 
C 7.807243 10.179282 8.111905 10.438549 8.475577 10.574191 
L 9.05434 9.022466 
L 9.05434 7.36632 
z
" style="fill: #0000ff"/>
   </g>
   <g id="patch_3">
    <path d="M 8.475577 10.574191 
C 8.702676 10.658895 8.945626 10.69272 9.187227 10.673272 
C 9.428827 10.653823 9.663238 10.581572 9.873865 10.461632 
C 10.084491 10.341692 10.266241 10.176963 10.406249 9.979107 
C 10.546256 9.781251 10.641136 9.555051 10.684172 9.31652 
C 10.727208 9.077989 10.717359 8.832893 10.655322 8.598585 
C 10.593286 8.364276 10.480562 8.146418 10.32513 7.960434 
C 10.169699 7.77445 9.975317 7.624836 9.755746 7.522183 
C 9.536175 7.41953 9.296722 7.36632 9.05434 7.36632 
L 9.05434 9.022466 
L 8.475577 10.574191 
z
" style="fill: #ff0000"/>
   </g>
   <g id="matplotlib.axis_1"/>
   <g id="matplotlib.axis_2"/>
  </g>
 </g>
</svg>
