<?xml version="1.0" encoding="utf-8" standalone="no"?>
<!DOCTYPE svg PUBLIC "-//W3C//DTD SVG 1.1//EN"
  "http://www.w3.org/Graphics/SVG/1.1/DTD/svg11.dtd">
<svg xmlns:xlink="http://www.w3.org/1999/xlink" width="307.41975pt" height="305.5293pt" viewBox="0 0 307.41975 305.5293" xmlns="http://www.w3.org/2000/svg" version="1.1">
 <metadata>
  <rdf:RDF xmlns:dc="http://purl.org/dc/elements/1.1/" xmlns:cc="http://creativecommons.org/ns#" xmlns:rdf="http://www.w3.org/1999/02/22-rdf-syntax-ns#">
   <cc:Work>
    <dc:type rdf:resource="http://purl.org/dc/dcmitype/StillImage"/>
    <dc:date>2022-01-14T17:05:52.426246</dc:date>
    <dc:format>image/svg+xml</dc:format>
    <dc:creator>
     <cc:Agent>
      <dc:title>Matplotlib v3.5.1, https://matplotlib.org/</dc:title>
     </cc:Agent>
    </dc:creator>
   </cc:Work>
  </rdf:RDF>
 </metadata>
 <defs>
  <style type="text/css">*{stroke-linejoin: round; stroke-linecap: butt}</style>
 </defs>
 <g id="figure_1">
  <g id="patch_1">
   <path d="M -0 305.5293 
L 307.41975 305.5293 
L 307.41975 0 
L -0 0 
L -0 305.5293 
z
" style="fill: none"/>
  </g>
  <g id="axes_1">
   <g id="patch_2">
    <path d="M 152.598909 20.43315 
C 132.833285 20.43315 113.317008 24.866176 95.490924 33.404946 
C 77.66484 41.943717 61.978706 54.372796 49.590599 69.774571 
C 37.202491 85.176346 28.424965 103.162225 23.906047 122.404346 
C 19.387129 141.646468 19.240833 161.659349 23.47796 180.965479 
C 27.715087 200.271608 36.228732 218.383887 48.390352 233.965122 
C 60.551971 249.546357 76.054722 262.20343 93.75407 271.001895 
C 111.453417 279.800359 130.902801 284.518227 150.666312 284.807189 
C 170.429823 285.09615 190.008823 280.948914 207.957834 272.671662 
L 152.598909 152.627233 
L 152.598909 20.43315 
z
" style="fill: #0000ff; stroke: #000000; stroke-linejoin: miter"/>
   </g>
   <g id="patch_3">
    <path d="M 207.957834 272.671662 
C 235.319233 260.053854 257.561226 238.452886 270.97357 211.472072 
C 284.385914 184.491258 288.178917 153.719174 281.719858 124.288988 
C 275.260799 94.858801 258.929974 68.503304 235.451571 49.618923 
C 211.973167 30.734541 182.729546 20.43315 152.598909 20.43315 
L 152.598909 152.627233 
L 207.957834 272.671662 
z
" style="fill: #ff0000; stroke: #000000; stroke-linejoin: miter"/>
   </g>
   <g id="matplotlib.axis_1"/>
   <g id="matplotlib.axis_2"/>
  </g>
 </g>
</svg>
