<?xml version="1.0" encoding="utf-8" standalone="no"?>
<!DOCTYPE svg PUBLIC "-//W3C//DTD SVG 1.1//EN"
  "http://www.w3.org/Graphics/SVG/1.1/DTD/svg11.dtd">
<svg xmlns:xlink="http://www.w3.org/1999/xlink" width="70.8696pt" height="70.50528pt" viewBox="0 0 70.8696 70.50528" xmlns="http://www.w3.org/2000/svg" version="1.1">
 <metadata>
  <rdf:RDF xmlns:dc="http://purl.org/dc/elements/1.1/" xmlns:cc="http://creativecommons.org/ns#" xmlns:rdf="http://www.w3.org/1999/02/22-rdf-syntax-ns#">
   <cc:Work>
    <dc:type rdf:resource="http://purl.org/dc/dcmitype/StillImage"/>
    <dc:date>2021-12-14T09:20:56.402475</dc:date>
    <dc:format>image/svg+xml</dc:format>
    <dc:creator>
     <cc:Agent>
      <dc:title>Matplotlib v3.5.0, https://matplotlib.org/</dc:title>
     </cc:Agent>
    </dc:creator>
   </cc:Work>
  </rdf:RDF>
 </metadata>
 <defs>
  <style type="text/css">*{stroke-linejoin: round; stroke-linecap: butt}</style>
 </defs>
 <g id="figure_1">
  <g id="patch_1">
   <path d="M 0 70.50528 
L 70.8696 70.50528 
L 70.8696 0 
L 0 0 
L 0 70.50528 
z
" style="fill: none"/>
  </g>
  <g id="axes_1">
   <g id="patch_2">
    <path d="M 35.449195 9.59997 
C 28.693279 9.59997 22.204132 12.271651 17.406631 17.02837 
C 12.60913 21.785089 9.882149 28.251192 9.824474 35.006861 
C 9.7668 41.76253 12.382987 48.274248 17.098577 53.112182 
C 21.814167 57.950116 28.256754 60.732198 35.011684 60.847543 
L 35.449195 35.225624 
L 35.449195 9.59997 
z
" style="fill: #0000ff"/>
   </g>
   <g id="patch_3">
    <path d="M 35.011684 60.847543 
C 38.394727 60.90531 41.755954 60.292479 44.900928 59.0445 
C 48.045902 57.796521 50.91279 55.937931 53.335752 53.576242 
C 55.758714 51.214554 57.690111 48.396201 59.018218 45.284217 
C 60.346325 42.172233 61.04503 38.827802 61.073915 35.444389 
C 61.1028 32.060977 60.461297 28.705104 59.186516 25.570898 
C 57.911734 22.436692 56.028738 19.585775 53.646451 17.183063 
C 51.264164 14.780351 48.429427 12.873084 45.306218 11.571592 
C 42.183009 10.270099 38.832735 9.59997 35.449199 9.59997 
L 35.449195 35.225624 
L 35.011684 60.847543 
z
" style="fill: #ff0000"/>
   </g>
   <g id="matplotlib.axis_1"/>
   <g id="matplotlib.axis_2"/>
  </g>
 </g>
</svg>
