<?xml version="1.0" encoding="utf-8" standalone="no"?>
<!DOCTYPE svg PUBLIC "-//W3C//DTD SVG 1.1//EN"
  "http://www.w3.org/Graphics/SVG/1.1/DTD/svg11.dtd">
<svg xmlns:xlink="http://www.w3.org/1999/xlink" width="371.52pt" height="280.512pt" viewBox="0 0 371.52 280.512" xmlns="http://www.w3.org/2000/svg" version="1.1">
 <metadata>
  <rdf:RDF xmlns:dc="http://purl.org/dc/elements/1.1/" xmlns:cc="http://creativecommons.org/ns#" xmlns:rdf="http://www.w3.org/1999/02/22-rdf-syntax-ns#">
   <cc:Work>
    <dc:type rdf:resource="http://purl.org/dc/dcmitype/StillImage"/>
    <dc:date>2021-12-03T16:10:06.502455</dc:date>
    <dc:format>image/svg+xml</dc:format>
    <dc:creator>
     <cc:Agent>
      <dc:title>Matplotlib v3.5.0, https://matplotlib.org/</dc:title>
     </cc:Agent>
    </dc:creator>
   </cc:Work>
  </rdf:RDF>
 </metadata>
 <defs>
  <style type="text/css">*{stroke-linejoin: round; stroke-linecap: butt}</style>
 </defs>
 <g id="figure_1">
  <g id="patch_1">
   <path d="M 0 280.512 
L 371.52 280.512 
L 371.52 0 
L 0 0 
L 0 280.512 
z
" style="fill: none"/>
  </g>
  <g id="axes_1">
   <g id="patch_2">
    <path d="M 185.827875 19.296 
C 153.971718 19.296 123.373451 31.893776 100.751801 54.323125 
C 78.13015 76.752474 65.27162 107.242081 64.999668 139.097077 
C 64.727716 170.952074 77.063819 201.656771 99.299233 224.469074 
C 121.534646 247.281376 151.91337 260.399724 183.764884 260.943609 
L 185.827875 140.12861 
L 185.827875 19.296 
z
" style="fill: #0000ff"/>
   </g>
   <g id="patch_3">
    <path d="M 183.764884 260.943609 
C 199.716941 261.216 215.566127 258.32632 230.39562 252.441726 
C 245.225114 246.557132 258.743346 237.793323 270.168334 226.657257 
C 281.593322 215.521191 290.700435 202.231817 296.962856 187.557881 
C 303.225278 172.883945 306.51988 157.113956 306.656082 141.160155 
C 306.792284 125.206354 303.767408 109.382414 297.756432 94.603696 
C 291.745457 79.824979 282.866565 66.382053 271.633372 55.052548 
C 260.400179 43.723043 247.033544 34.72971 232.306682 28.592785 
C 217.57982 22.455861 201.78228 19.296003 185.827898 19.296 
L 185.827875 140.12861 
L 183.764884 260.943609 
z
" style="fill: #bf00bf"/>
   </g>
   <g id="matplotlib.axis_1"/>
   <g id="matplotlib.axis_2"/>
  </g>
 </g>
</svg>
