<?xml version="1.0" encoding="utf-8" standalone="no"?>
<!DOCTYPE svg PUBLIC "-//W3C//DTD SVG 1.1//EN"
  "http://www.w3.org/Graphics/SVG/1.1/DTD/svg11.dtd">
<svg xmlns:xlink="http://www.w3.org/1999/xlink" width="105.95385pt" height="105.36318pt" viewBox="0 0 105.95385 105.36318" xmlns="http://www.w3.org/2000/svg" version="1.1">
 <metadata>
  <rdf:RDF xmlns:dc="http://purl.org/dc/elements/1.1/" xmlns:cc="http://creativecommons.org/ns#" xmlns:rdf="http://www.w3.org/1999/02/22-rdf-syntax-ns#">
   <cc:Work>
    <dc:type rdf:resource="http://purl.org/dc/dcmitype/StillImage"/>
    <dc:date>2022-01-14T17:05:54.281232</dc:date>
    <dc:format>image/svg+xml</dc:format>
    <dc:creator>
     <cc:Agent>
      <dc:title>Matplotlib v3.5.1, https://matplotlib.org/</dc:title>
     </cc:Agent>
    </dc:creator>
   </cc:Work>
  </rdf:RDF>
 </metadata>
 <defs>
  <style type="text/css">*{stroke-linejoin: round; stroke-linecap: butt}</style>
 </defs>
 <g id="figure_1">
  <g id="patch_1">
   <path d="M 0 105.36318 
L 105.95385 105.36318 
L 105.95385 0 
L 0 0 
L 0 105.36318 
z
" style="fill: none"/>
  </g>
  <g id="axes_1">
   <g id="patch_2">
    <path d="M 52.917855 11.334692 
C 47.397894 11.334692 41.933153 12.432226 36.845208 14.56271 
C 31.757262 16.693193 27.14791 19.814 23.288389 23.741485 
C 19.428868 27.66897 16.396399 32.324555 14.369428 37.434278 
C 12.342457 42.544002 11.361539 48.005631 11.484396 53.497776 
C 11.607254 58.98992 12.831429 64.402694 15.084885 69.417581 
C 17.338341 74.432468 20.575991 78.949133 24.607314 82.70179 
C 28.638638 86.454448 33.382978 89.368016 38.561151 91.271045 
C 43.739325 93.174075 49.247731 94.02849 54.762223 93.784013 
L 52.917855 52.579784 
L 52.917855 11.334692 
z
" style="fill: #0000ff; stroke: #000000; stroke-linejoin: miter"/>
   </g>
   <g id="patch_3">
    <path d="M 54.762223 93.784013 
C 65.579392 93.304449 75.788306 88.624536 83.184928 80.754636 
C 90.581551 72.884736 94.592311 62.435119 94.351314 51.661789 
C 94.110317 40.888458 89.636249 30.626831 81.895033 23.092323 
C 74.153817 15.557815 63.745744 11.33469 52.917847 11.334692 
L 52.917855 52.579784 
L 54.762223 93.784013 
z
" style="fill: #ff0000; stroke: #000000; stroke-linejoin: miter"/>
   </g>
   <g id="matplotlib.axis_1"/>
   <g id="matplotlib.axis_2"/>
  </g>
 </g>
</svg>
