<?xml version="1.0" encoding="utf-8" standalone="no"?>
<!DOCTYPE svg PUBLIC "-//W3C//DTD SVG 1.1//EN"
  "http://www.w3.org/Graphics/SVG/1.1/DTD/svg11.dtd">
<svg xmlns:xlink="http://www.w3.org/1999/xlink" width="371.52pt" height="280.512pt" viewBox="0 0 371.52 280.512" xmlns="http://www.w3.org/2000/svg" version="1.1">
 <metadata>
  <rdf:RDF xmlns:dc="http://purl.org/dc/elements/1.1/" xmlns:cc="http://creativecommons.org/ns#" xmlns:rdf="http://www.w3.org/1999/02/22-rdf-syntax-ns#">
   <cc:Work>
    <dc:type rdf:resource="http://purl.org/dc/dcmitype/StillImage"/>
    <dc:date>2021-12-03T16:10:07.464093</dc:date>
    <dc:format>image/svg+xml</dc:format>
    <dc:creator>
     <cc:Agent>
      <dc:title>Matplotlib v3.5.0, https://matplotlib.org/</dc:title>
     </cc:Agent>
    </dc:creator>
   </cc:Work>
  </rdf:RDF>
 </metadata>
 <defs>
  <style type="text/css">*{stroke-linejoin: round; stroke-linecap: butt}</style>
 </defs>
 <g id="figure_1">
  <g id="patch_1">
   <path d="M 0 280.512 
L 371.52 280.512 
L 371.52 0 
L 0 0 
L 0 280.512 
z
" style="fill: none"/>
  </g>
  <g id="axes_1">
   <g id="patch_2">
    <path d="M 185.58802 19.296006 
C 169.516819 19.296006 153.60639 22.506832 138.792989 28.739543 
C 123.979589 34.972254 110.559597 44.102148 99.322718 55.591972 
C 88.085839 67.081797 79.256895 80.701668 73.35543 95.650121 
C 67.453965 110.598573 64.598052 126.576524 64.955748 142.643744 
C 65.313445 158.710964 68.877594 174.545988 75.438463 189.216998 
C 81.999331 203.888008 91.425652 217.101471 103.162729 228.079838 
C 114.899807 239.058205 128.71281 247.581824 143.788908 253.14912 
C 158.865006 258.716416 174.902563 261.216 190.957842 260.500784 
L 185.58802 139.958168 
L 185.58802 19.296006 
z
" style="fill: #0000ff"/>
   </g>
   <g id="patch_3">
    <path d="M 190.957842 260.500784 
C 222.451704 259.097824 252.17465 245.40678 273.709694 222.383455 
C 295.244739 199.36013 306.921948 168.789866 306.220292 137.27258 
C 305.518635 105.755294 292.492522 75.734991 269.954204 53.692854 
C 247.415885 31.650716 217.113093 19.296 185.587997 19.296006 
L 185.58802 139.958168 
L 190.957842 260.500784 
z
" style="fill: #bf00bf"/>
   </g>
   <g id="matplotlib.axis_1"/>
   <g id="matplotlib.axis_2"/>
  </g>
 </g>
</svg>
