<?xml version="1.0" encoding="utf-8" standalone="no"?>
<!DOCTYPE svg PUBLIC "-//W3C//DTD SVG 1.1//EN"
  "http://www.w3.org/Graphics/SVG/1.1/DTD/svg11.dtd">
<svg xmlns:xlink="http://www.w3.org/1999/xlink" width="282.6306pt" height="280.90008pt" viewBox="0 0 282.6306 280.90008" xmlns="http://www.w3.org/2000/svg" version="1.1">
 <metadata>
  <rdf:RDF xmlns:dc="http://purl.org/dc/elements/1.1/" xmlns:cc="http://creativecommons.org/ns#" xmlns:rdf="http://www.w3.org/1999/02/22-rdf-syntax-ns#">
   <cc:Work>
    <dc:type rdf:resource="http://purl.org/dc/dcmitype/StillImage"/>
    <dc:date>2021-12-14T09:20:58.211792</dc:date>
    <dc:format>image/svg+xml</dc:format>
    <dc:creator>
     <cc:Agent>
      <dc:title>Matplotlib v3.5.0, https://matplotlib.org/</dc:title>
     </cc:Agent>
    </dc:creator>
   </cc:Work>
  </rdf:RDF>
 </metadata>
 <defs>
  <style type="text/css">*{stroke-linejoin: round; stroke-linecap: butt}</style>
 </defs>
 <g id="figure_1">
  <g id="patch_1">
   <path d="M 0 280.90008 
L 282.6306 280.90008 
L 282.6306 0 
L 0 0 
L 0 280.90008 
z
" style="fill: none"/>
  </g>
  <g id="axes_1">
   <g id="patch_2">
    <path d="M 140.586245 19.31364 
C 123.636237 19.31364 106.876881 22.920946 91.414341 29.897467 
C 75.951801 36.873988 62.133919 47.062781 50.872713 59.791357 
C 39.611508 72.519933 31.160308 87.501953 26.076918 103.748562 
C 20.993527 119.995171 19.3923 137.140889 21.378922 154.054051 
C 23.365544 170.967213 28.895325 187.267343 37.603283 201.878589 
C 46.311241 216.489835 58.001484 229.083505 71.902425 238.828381 
C 85.803365 248.573257 101.602289 255.25012 118.256424 258.41828 
C 134.91056 261.58644 152.045259 261.174626 168.529583 257.210019 
L 140.586245 139.918575 
L 140.586245 19.31364 
z
" style="fill: #0000ff"/>
   </g>
   <g id="patch_3">
    <path d="M 168.529583 257.210019 
C 197.112822 250.335529 222.210965 233.146986 239.028335 208.928724 
C 255.845704 184.710461 263.2383 155.109927 259.793567 125.783099 
C 256.348834 96.456271 242.301101 69.398107 220.334564 49.778799 
C 198.368028 30.15949 169.976962 19.31364 140.586245 19.31364 
L 140.586245 139.918575 
L 168.529583 257.210019 
z
" style="fill: #ff0000"/>
   </g>
   <g id="matplotlib.axis_1"/>
   <g id="matplotlib.axis_2"/>
  </g>
 </g>
</svg>
