<?xml version="1.0" encoding="utf-8" standalone="no"?>
<!DOCTYPE svg PUBLIC "-//W3C//DTD SVG 1.1//EN"
  "http://www.w3.org/Graphics/SVG/1.1/DTD/svg11.dtd">
<svg xmlns:xlink="http://www.w3.org/1999/xlink" width="371.52pt" height="280.512pt" viewBox="0 0 371.52 280.512" xmlns="http://www.w3.org/2000/svg" version="1.1">
 <metadata>
  <rdf:RDF xmlns:dc="http://purl.org/dc/elements/1.1/" xmlns:cc="http://creativecommons.org/ns#" xmlns:rdf="http://www.w3.org/1999/02/22-rdf-syntax-ns#">
   <cc:Work>
    <dc:type rdf:resource="http://purl.org/dc/dcmitype/StillImage"/>
    <dc:date>2021-12-10T18:15:00.474654</dc:date>
    <dc:format>image/svg+xml</dc:format>
    <dc:creator>
     <cc:Agent>
      <dc:title>Matplotlib v3.5.0, https://matplotlib.org/</dc:title>
     </cc:Agent>
    </dc:creator>
   </cc:Work>
  </rdf:RDF>
 </metadata>
 <defs>
  <style type="text/css">*{stroke-linejoin: round; stroke-linecap: butt}</style>
 </defs>
 <g id="figure_1">
  <g id="patch_1">
   <path d="M 0 280.512 
L 371.52 280.512 
L 371.52 0 
L 0 0 
L 0 280.512 
z
" style="fill: none"/>
  </g>
  <g id="axes_1">
   <g id="patch_2">
    <path d="M 186.14938 19.296 
C 163.664483 19.296 141.6241 25.603279 122.543148 37.498144 
C 103.462195 49.39301 88.095112 66.405153 78.195359 86.593404 
C 68.295606 106.781655 64.254608 129.347793 66.533462 151.71691 
C 68.812317 174.086028 77.320921 195.373675 91.088401 213.150825 
L 186.14938 139.531034 
L 186.14938 19.296 
z
" style="fill: #0000ff"/>
   </g>
   <g id="patch_3">
    <path d="M 91.088401 213.150825 
C 103.588358 229.291297 119.995538 241.985396 138.75759 250.032082 
C 157.519642 258.078768 178.025579 261.216 198.335251 259.146952 
C 218.644924 257.077904 238.096945 249.869955 254.850882 238.205078 
C 271.604819 226.540201 285.115077 210.798263 294.103397 192.468674 
C 303.091716 174.139084 307.265392 153.818747 306.229536 133.430251 
C 305.19368 113.041755 298.982024 93.249054 288.182279 75.924816 
C 277.382533 58.600577 262.346393 44.308965 244.496487 34.402168 
C 226.646582 24.495371 206.564195 19.296004 186.149403 19.296 
L 186.14938 139.531034 
L 91.088401 213.150825 
z
" style="fill: #ff0000"/>
   </g>
   <g id="matplotlib.axis_1"/>
   <g id="matplotlib.axis_2"/>
  </g>
 </g>
</svg>
