<?xml version="1.0" encoding="utf-8" standalone="no"?>
<!DOCTYPE svg PUBLIC "-//W3C//DTD SVG 1.1//EN"
  "http://www.w3.org/Graphics/SVG/1.1/DTD/svg11.dtd">
<svg xmlns:xlink="http://www.w3.org/1999/xlink" width="18.59895pt" height="18.57186pt" viewBox="0 0 18.59895 18.57186" xmlns="http://www.w3.org/2000/svg" version="1.1">
 <metadata>
  <rdf:RDF xmlns:dc="http://purl.org/dc/elements/1.1/" xmlns:cc="http://creativecommons.org/ns#" xmlns:rdf="http://www.w3.org/1999/02/22-rdf-syntax-ns#">
   <cc:Work>
    <dc:type rdf:resource="http://purl.org/dc/dcmitype/StillImage"/>
    <dc:date>2021-12-14T09:21:03.799979</dc:date>
    <dc:format>image/svg+xml</dc:format>
    <dc:creator>
     <cc:Agent>
      <dc:title>Matplotlib v3.5.0, https://matplotlib.org/</dc:title>
     </cc:Agent>
    </dc:creator>
   </cc:Work>
  </rdf:RDF>
 </metadata>
 <defs>
  <style type="text/css">*{stroke-linejoin: round; stroke-linecap: butt}</style>
 </defs>
 <g id="figure_1">
  <g id="patch_1">
   <path d="M -0 18.57186 
L 18.59895 18.57186 
L 18.59895 0 
L -0 0 
L -0 18.57186 
z
" style="fill: none"/>
  </g>
  <g id="axes_1">
   <g id="patch_2">
    <path d="M 9.313501 7.38963 
C 8.865834 7.38963 8.432454 7.548935 8.091364 7.838871 
C 7.750273 8.128807 7.523243 8.530869 7.451137 8.97269 
C 7.379031 9.414512 7.46645 9.867893 7.69766 10.25123 
C 7.928871 10.634567 8.289115 10.923393 8.713553 11.065723 
L 9.313501 9.276633 
L 9.313501 7.38963 
z
" style="fill: #0000ff"/>
   </g>
   <g id="patch_3">
    <path d="M 8.713553 11.065723 
C 8.972869 11.152681 9.248018 11.18223 9.519885 11.152316 
C 9.791752 11.122402 10.053893 11.033735 10.288098 10.892474 
C 10.522303 10.751213 10.72302 10.560707 10.876305 10.334189 
C 11.02959 10.107672 11.131811 9.850512 11.175865 9.580576 
C 11.219919 9.310639 11.204763 9.034324 11.13145 8.770825 
C 11.058137 8.507326 10.928404 8.262889 10.751263 8.054496 
C 10.574123 7.846102 10.353775 7.678691 10.105525 7.563893 
C 9.857275 7.449095 9.587009 7.38963 9.313501 7.38963 
L 9.313501 9.276633 
L 8.713553 11.065723 
z
" style="fill: #ff0000"/>
   </g>
   <g id="matplotlib.axis_1"/>
   <g id="matplotlib.axis_2"/>
  </g>
 </g>
</svg>
