<?xml version="1.0" encoding="utf-8" standalone="no"?>
<!DOCTYPE svg PUBLIC "-//W3C//DTD SVG 1.1//EN"
  "http://www.w3.org/Graphics/SVG/1.1/DTD/svg11.dtd">
<svg xmlns:xlink="http://www.w3.org/1999/xlink" width="95.77035pt" height="95.24538pt" viewBox="0 0 95.77035 95.24538" xmlns="http://www.w3.org/2000/svg" version="1.1">
 <metadata>
  <rdf:RDF xmlns:dc="http://purl.org/dc/elements/1.1/" xmlns:cc="http://creativecommons.org/ns#" xmlns:rdf="http://www.w3.org/1999/02/22-rdf-syntax-ns#">
   <cc:Work>
    <dc:type rdf:resource="http://purl.org/dc/dcmitype/StillImage"/>
    <dc:date>2022-01-14T17:05:56.152058</dc:date>
    <dc:format>image/svg+xml</dc:format>
    <dc:creator>
     <cc:Agent>
      <dc:title>Matplotlib v3.5.1, https://matplotlib.org/</dc:title>
     </cc:Agent>
    </dc:creator>
   </cc:Work>
  </rdf:RDF>
 </metadata>
 <defs>
  <style type="text/css">*{stroke-linejoin: round; stroke-linecap: butt}</style>
 </defs>
 <g id="figure_1">
  <g id="patch_1">
   <path d="M 0 95.24538 
L 95.77035 95.24538 
L 95.77035 0 
L 0 0 
L 0 95.24538 
z
" style="fill: none"/>
  </g>
  <g id="axes_1">
   <g id="patch_2">
    <path d="M 47.743924 10.874791 
C 41.806976 10.874791 35.959142 12.331847 30.711725 15.118562 
C 25.464309 17.905276 20.974837 21.937992 17.635848 26.864109 
C 14.296858 31.790227 12.208586 37.461864 11.553619 43.383122 
C 10.898652 49.30438 11.696653 55.297503 13.877849 60.838484 
C 16.059044 66.379464 19.557955 71.301962 24.068653 75.175579 
C 28.579352 79.049196 33.966429 81.757647 39.758864 83.064119 
C 45.5513 84.37059 51.575206 84.235862 57.303883 82.671714 
C 63.03256 81.107566 68.294034 78.160955 72.628269 74.089515 
L 47.743924 47.414161 
L 47.743924 10.874791 
z
" style="fill: #0000ff; stroke: #000000; stroke-linejoin: miter"/>
   </g>
   <g id="patch_3">
    <path d="M 72.628269 74.089515 
C 77.959879 69.081173 81.66863 62.577208 83.270164 55.427027 
C 84.871698 48.276846 84.293122 40.805883 81.609998 33.989835 
C 78.926874 27.173787 74.261322 21.322879 68.222655 17.201232 
C 62.183988 13.079584 55.047052 10.87479 47.743917 10.874791 
L 47.743924 47.414161 
L 72.628269 74.089515 
z
" style="fill: #ff0000; stroke: #000000; stroke-linejoin: miter"/>
   </g>
   <g id="matplotlib.axis_1"/>
   <g id="matplotlib.axis_2"/>
  </g>
 </g>
</svg>
