<?xml version="1.0" encoding="utf-8" standalone="no"?>
<!DOCTYPE svg PUBLIC "-//W3C//DTD SVG 1.1//EN"
  "http://www.w3.org/Graphics/SVG/1.1/DTD/svg11.dtd">
<svg xmlns:xlink="http://www.w3.org/1999/xlink" width="33.58125pt" height="33.4575pt" viewBox="0 0 33.58125 33.4575" xmlns="http://www.w3.org/2000/svg" version="1.1">
 <metadata>
  <rdf:RDF xmlns:dc="http://purl.org/dc/elements/1.1/" xmlns:cc="http://creativecommons.org/ns#" xmlns:rdf="http://www.w3.org/1999/02/22-rdf-syntax-ns#">
   <cc:Work>
    <dc:type rdf:resource="http://purl.org/dc/dcmitype/StillImage"/>
    <dc:date>2021-12-14T09:21:00.014927</dc:date>
    <dc:format>image/svg+xml</dc:format>
    <dc:creator>
     <cc:Agent>
      <dc:title>Matplotlib v3.5.0, https://matplotlib.org/</dc:title>
     </cc:Agent>
    </dc:creator>
   </cc:Work>
  </rdf:RDF>
 </metadata>
 <defs>
  <style type="text/css">*{stroke-linejoin: round; stroke-linecap: butt}</style>
 </defs>
 <g id="figure_1">
  <g id="patch_1">
   <path d="M 0 33.4575 
L 33.58125 33.4575 
L 33.58125 0 
L 0 0 
L 0 33.4575 
z
" style="fill: none"/>
  </g>
  <g id="axes_1">
   <g id="patch_2">
    <path d="M 16.754886 8.06625 
C 15.570677 8.06625 14.399072 8.310329 13.313336 8.783225 
C 12.2276 9.25612 11.250846 9.947765 10.444152 10.814909 
C 9.637458 11.682052 9.017998 12.706235 8.624508 13.823412 
C 8.231018 14.940588 8.071875 16.126977 8.15703 17.308388 
C 8.242185 18.4898 8.569826 19.641086 9.119465 20.690252 
C 9.669103 21.739417 10.429038 22.664129 11.351749 23.406562 
C 12.274459 24.148995 13.340303 24.693344 14.48263 25.005569 
C 15.624957 25.317795 16.819449 25.39125 17.991412 25.221342 
L 16.754886 16.68838 
L 16.754886 8.06625 
z
" style="fill: #0000ff"/>
   </g>
   <g id="patch_3">
    <path d="M 17.991412 25.221342 
C 20.147103 24.908815 22.106231 23.790352 23.471542 22.092745 
C 24.836852 20.395137 25.509375 18.241445 25.352742 16.068372 
C 25.196108 13.895299 24.221673 11.860371 22.627023 10.376212 
C 21.032373 8.892054 18.933104 8.06625 16.754886 8.06625 
L 16.754886 16.68838 
L 17.991412 25.221342 
z
" style="fill: #ff0000"/>
   </g>
   <g id="matplotlib.axis_1"/>
   <g id="matplotlib.axis_2"/>
  </g>
 </g>
</svg>
