<?xml version="1.0" encoding="utf-8" standalone="no"?>
<!DOCTYPE svg PUBLIC "-//W3C//DTD SVG 1.1//EN"
  "http://www.w3.org/Graphics/SVG/1.1/DTD/svg11.dtd">
<svg xmlns:xlink="http://www.w3.org/1999/xlink" width="371.52pt" height="280.512pt" viewBox="0 0 371.52 280.512" xmlns="http://www.w3.org/2000/svg" version="1.1">
 <metadata>
  <rdf:RDF xmlns:dc="http://purl.org/dc/elements/1.1/" xmlns:cc="http://creativecommons.org/ns#" xmlns:rdf="http://www.w3.org/1999/02/22-rdf-syntax-ns#">
   <cc:Work>
    <dc:type rdf:resource="http://purl.org/dc/dcmitype/StillImage"/>
    <dc:date>2021-12-03T16:10:11.309663</dc:date>
    <dc:format>image/svg+xml</dc:format>
    <dc:creator>
     <cc:Agent>
      <dc:title>Matplotlib v3.5.0, https://matplotlib.org/</dc:title>
     </cc:Agent>
    </dc:creator>
   </cc:Work>
  </rdf:RDF>
 </metadata>
 <defs>
  <style type="text/css">*{stroke-linejoin: round; stroke-linecap: butt}</style>
 </defs>
 <g id="figure_1">
  <g id="patch_1">
   <path d="M 0 280.512 
L 371.52 280.512 
L 371.52 0 
L 0 0 
L 0 280.512 
z
" style="fill: none"/>
  </g>
  <g id="axes_1">
   <g id="patch_2">
    <path d="M 184.99994 19.296 
C 167.93088 19.296 151.055362 22.925985 135.496006 29.944477 
C 119.936649 36.962968 106.046301 47.210803 94.748997 60.00626 
C 83.451693 72.801716 75.003627 87.854626 69.966795 104.163615 
C 64.929963 120.472603 63.418588 137.667825 65.533211 154.605391 
C 67.647834 171.542958 73.340502 187.838769 82.232517 202.408767 
C 91.124532 216.978765 103.014247 229.492541 117.110714 239.117634 
C 131.207181 248.742726 147.19073 255.260861 163.998075 258.238431 
C 180.805421 261.216 198.055417 260.585479 214.60053 256.388813 
L 184.99994 139.690196 
L 184.99994 19.296 
z
" style="fill: #0000ff"/>
   </g>
   <g id="patch_3">
    <path d="M 214.60053 256.388813 
C 243.039297 249.175323 267.883168 231.809307 284.427374 207.579426 
C 300.97158 183.349544 308.101412 153.888351 304.46667 124.775011 
C 300.831927 95.661671 286.67751 68.857774 264.683888 49.439264 
C 242.690267 30.020754 214.33932 19.296005 184.999962 19.296 
L 184.99994 139.690196 
L 214.60053 256.388813 
z
" style="fill: #bf00bf"/>
   </g>
   <g id="matplotlib.axis_1"/>
   <g id="matplotlib.axis_2"/>
  </g>
 </g>
</svg>
