<?xml version="1.0" encoding="utf-8" standalone="no"?>
<!DOCTYPE svg PUBLIC "-//W3C//DTD SVG 1.1//EN"
  "http://www.w3.org/Graphics/SVG/1.1/DTD/svg11.dtd">
<svg xmlns:xlink="http://www.w3.org/1999/xlink" width="82.32255pt" height="81.88434pt" viewBox="0 0 82.32255 81.88434" xmlns="http://www.w3.org/2000/svg" version="1.1">
 <metadata>
  <rdf:RDF xmlns:dc="http://purl.org/dc/elements/1.1/" xmlns:cc="http://creativecommons.org/ns#" xmlns:rdf="http://www.w3.org/1999/02/22-rdf-syntax-ns#">
   <cc:Work>
    <dc:type rdf:resource="http://purl.org/dc/dcmitype/StillImage"/>
    <dc:date>2021-12-14T09:21:00.961155</dc:date>
    <dc:format>image/svg+xml</dc:format>
    <dc:creator>
     <cc:Agent>
      <dc:title>Matplotlib v3.5.0, https://matplotlib.org/</dc:title>
     </cc:Agent>
    </dc:creator>
   </cc:Work>
  </rdf:RDF>
 </metadata>
 <defs>
  <style type="text/css">*{stroke-linejoin: round; stroke-linecap: butt}</style>
 </defs>
 <g id="figure_1">
  <g id="patch_1">
   <path d="M 0 81.88434 
L 82.32255 81.88434 
L 82.32255 0 
L 0 0 
L 0 81.88434 
z
" style="fill: none"/>
  </g>
  <g id="axes_1">
   <g id="patch_2">
    <path d="M 40.969467 10.26747 
C 36.661946 10.26747 32.403267 11.188012 28.476732 12.967857 
C 24.550198 14.747703 21.044851 17.34649 18.193881 20.591337 
C 15.342912 23.836185 13.210971 27.653509 11.939884 31.789367 
C 10.668797 35.925224 10.287389 40.285825 10.821032 44.581086 
C 11.354675 48.876347 12.791267 53.008863 15.035242 56.703723 
C 17.279217 60.398584 20.279687 63.571999 23.837049 66.012862 
C 27.394412 68.453726 31.427995 70.106684 35.66947 70.861777 
C 39.910945 71.61687 44.264127 71.456974 48.439426 70.392726 
L 40.969467 40.798686 
L 40.969467 10.26747 
z
" style="fill: #0000ff"/>
   </g>
   <g id="patch_3">
    <path d="M 48.439426 70.392726 
C 55.616188 68.56343 61.885748 64.159516 66.060818 58.01497 
C 70.235888 51.870424 72.035161 44.399249 71.117903 37.016288 
C 70.200645 29.633327 66.628659 22.836026 61.078383 17.911613 
C 55.528108 12.987201 48.373507 10.267471 40.969473 10.26747 
L 40.969467 40.798686 
L 48.439426 70.392726 
z
" style="fill: #ff0000"/>
   </g>
   <g id="matplotlib.axis_1"/>
   <g id="matplotlib.axis_2"/>
  </g>
 </g>
</svg>
