<?xml version="1.0" encoding="utf-8" standalone="no"?>
<!DOCTYPE svg PUBLIC "-//W3C//DTD SVG 1.1//EN"
  "http://www.w3.org/Graphics/SVG/1.1/DTD/svg11.dtd">
<svg xmlns:xlink="http://www.w3.org/1999/xlink" width="25.8111pt" height="25.73748pt" viewBox="0 0 25.8111 25.73748" xmlns="http://www.w3.org/2000/svg" version="1.1">
 <metadata>
  <rdf:RDF xmlns:dc="http://purl.org/dc/elements/1.1/" xmlns:cc="http://creativecommons.org/ns#" xmlns:rdf="http://www.w3.org/1999/02/22-rdf-syntax-ns#">
   <cc:Work>
    <dc:type rdf:resource="http://purl.org/dc/dcmitype/StillImage"/>
    <dc:date>2021-12-14T09:21:01.882579</dc:date>
    <dc:format>image/svg+xml</dc:format>
    <dc:creator>
     <cc:Agent>
      <dc:title>Matplotlib v3.5.0, https://matplotlib.org/</dc:title>
     </cc:Agent>
    </dc:creator>
   </cc:Work>
  </rdf:RDF>
 </metadata>
 <defs>
  <style type="text/css">*{stroke-linejoin: round; stroke-linecap: butt}</style>
 </defs>
 <g id="figure_1">
  <g id="patch_1">
   <path d="M -0 25.73748 
L 25.8111 25.73748 
L 25.8111 0 
L -0 0 
L -0 25.73748 
z
" style="fill: none"/>
  </g>
  <g id="axes_1">
   <g id="patch_2">
    <path d="M 12.866133 7.71534 
C 12.087304 7.71534 11.318547 7.892191 10.618009 8.232517 
C 9.917471 8.572842 9.303271 9.06784 8.821866 9.680069 
C 8.340462 10.292298 8.004303 11.005924 7.838818 11.766969 
C 7.673332 12.528014 7.682799 13.316794 7.866504 14.073648 
C 8.050208 14.830502 8.403397 15.535854 8.899357 16.136352 
C 9.395318 16.73685 10.021221 17.216964 10.729726 17.540377 
C 11.43823 17.863791 12.21101 18.02214 12.989615 18.003447 
C 13.76822 17.984754 14.532511 17.789503 15.224679 17.432461 
L 12.866133 12.860135 
L 12.866133 7.71534 
z
" style="fill: #0000ff"/>
   </g>
   <g id="patch_3">
    <path d="M 15.224679 17.432461 
C 16.249552 16.9038 17.067507 16.045604 17.546376 14.996542 
C 18.025245 13.94748 18.137768 12.767272 17.865762 11.646621 
C 17.593757 10.525969 16.952708 9.528669 16.046198 8.815867 
C 15.139688 8.103066 14.019322 7.71534 12.866132 7.71534 
L 12.866133 12.860135 
L 15.224679 17.432461 
z
" style="fill: #ff0000"/>
   </g>
   <g id="matplotlib.axis_1"/>
   <g id="matplotlib.axis_2"/>
  </g>
 </g>
</svg>
