<?xml version="1.0" encoding="utf-8" standalone="no"?>
<!DOCTYPE svg PUBLIC "-//W3C//DTD SVG 1.1//EN"
  "http://www.w3.org/Graphics/SVG/1.1/DTD/svg11.dtd">
<svg xmlns:xlink="http://www.w3.org/1999/xlink" width="371.52pt" height="280.512pt" viewBox="0 0 371.52 280.512" xmlns="http://www.w3.org/2000/svg" version="1.1">
 <metadata>
  <rdf:RDF xmlns:dc="http://purl.org/dc/elements/1.1/" xmlns:cc="http://creativecommons.org/ns#" xmlns:rdf="http://www.w3.org/1999/02/22-rdf-syntax-ns#">
   <cc:Work>
    <dc:type rdf:resource="http://purl.org/dc/dcmitype/StillImage"/>
    <dc:date>2022-01-14T17:15:23.483309</dc:date>
    <dc:format>image/svg+xml</dc:format>
    <dc:creator>
     <cc:Agent>
      <dc:title>Matplotlib v3.5.1, https://matplotlib.org/</dc:title>
     </cc:Agent>
    </dc:creator>
   </cc:Work>
  </rdf:RDF>
 </metadata>
 <defs>
  <style type="text/css">*{stroke-linejoin: round; stroke-linecap: butt}</style>
 </defs>
 <g id="figure_1">
  <g id="patch_1">
   <path d="M 0 280.512 
L 371.52 280.512 
L 371.52 0 
L 0 0 
L 0 280.512 
z
" style="fill: none"/>
  </g>
  <g id="axes_1">
   <g id="patch_2">
    <path d="M 186.761093 19.296003 
C 159.057237 19.296003 132.18035 28.833143 110.672943 46.295532 
C 89.165535 63.757922 74.311613 88.103046 68.621664 115.216292 
C 62.931715 142.329538 66.745433 170.592228 79.418254 195.227634 
C 92.091075 219.86304 112.866424 239.400413 138.233023 250.537706 
L 186.761093 140.008872 
L 186.761093 19.296003 
z
" style="fill: #0000ff; stroke: #000000; stroke-width: 2; stroke-linejoin: miter"/>
   </g>
   <g id="patch_3">
    <path d="M 138.233023 250.537706 
C 154.673591 257.755995 172.519432 261.216 190.46636 260.664862 
C 208.413287 260.113723 226.013192 255.565202 241.97986 247.351709 
C 257.946527 239.138215 271.881294 227.464828 282.765795 213.184646 
C 293.650297 198.904465 301.212763 182.374044 304.900524 164.801442 
C 308.588285 147.228839 308.309262 129.052815 304.083847 111.601688 
C 299.858432 94.150562 291.792126 77.860061 280.474422 63.920709 
C 269.156719 49.981357 254.870203 38.741198 238.658945 31.021673 
C 222.447687 23.302147 204.716458 19.296 186.76107 19.296003 
L 186.761093 140.008872 
L 138.233023 250.537706 
z
" style="fill: #ff0000; stroke: #000000; stroke-width: 2; stroke-linejoin: miter"/>
   </g>
   <g id="matplotlib.axis_1"/>
   <g id="matplotlib.axis_2"/>
  </g>
 </g>
</svg>
