<?xml version="1.0" encoding="utf-8" standalone="no"?>
<!DOCTYPE svg PUBLIC "-//W3C//DTD SVG 1.1//EN"
  "http://www.w3.org/Graphics/SVG/1.1/DTD/svg11.dtd">
<svg xmlns:xlink="http://www.w3.org/1999/xlink" width="371.52pt" height="280.512pt" viewBox="0 0 371.52 280.512" xmlns="http://www.w3.org/2000/svg" version="1.1">
 <metadata>
  <rdf:RDF xmlns:dc="http://purl.org/dc/elements/1.1/" xmlns:cc="http://creativecommons.org/ns#" xmlns:rdf="http://www.w3.org/1999/02/22-rdf-syntax-ns#">
   <cc:Work>
    <dc:type rdf:resource="http://purl.org/dc/dcmitype/StillImage"/>
    <dc:date>2022-01-14T17:15:25.269579</dc:date>
    <dc:format>image/svg+xml</dc:format>
    <dc:creator>
     <cc:Agent>
      <dc:title>Matplotlib v3.5.1, https://matplotlib.org/</dc:title>
     </cc:Agent>
    </dc:creator>
   </cc:Work>
  </rdf:RDF>
 </metadata>
 <defs>
  <style type="text/css">*{stroke-linejoin: round; stroke-linecap: butt}</style>
 </defs>
 <g id="figure_1">
  <g id="patch_1">
   <path d="M 0 280.512 
L 371.52 280.512 
L 371.52 0 
L 0 0 
L 0 280.512 
z
" style="fill: none"/>
  </g>
  <g id="axes_1">
   <g id="patch_2">
    <path d="M 185.237817 19.296 
C 168.65728 19.296 152.254096 22.721046 137.058947 29.355928 
C 121.863798 35.990809 108.201753 45.693587 96.931255 57.854594 
C 85.660758 70.015601 77.022917 84.374679 71.560486 100.029584 
C 66.098055 115.684489 63.927891 132.300318 65.186353 148.833027 
C 66.444816 165.365736 71.104984 181.461643 78.874038 196.109373 
C 86.643093 210.757103 97.354832 223.643299 110.33619 233.958266 
C 123.317549 244.273232 138.290819 251.796302 154.315164 256.054769 
C 170.33951 260.313237 187.072125 261.216 203.461628 258.706335 
L 185.237817 139.694762 
L 185.237817 19.296 
z
" style="fill: #0000ff; stroke: #000000; stroke-width: 2; stroke-linejoin: miter"/>
   </g>
   <g id="patch_3">
    <path d="M 203.461628 258.706335 
C 233.452386 254.113959 260.626206 238.35067 279.501317 214.596393 
C 298.376429 190.842116 307.592109 160.809318 305.289282 130.556508 
C 302.986454 100.303698 289.33113 72.011828 267.077997 51.388212 
C 244.824863 30.764595 215.578168 19.296006 185.237839 19.296 
L 185.237817 139.694762 
L 203.461628 258.706335 
z
" style="fill: #ff0000; stroke: #000000; stroke-width: 2; stroke-linejoin: miter"/>
   </g>
   <g id="matplotlib.axis_1"/>
   <g id="matplotlib.axis_2"/>
  </g>
 </g>
</svg>
