<?xml version="1.0" encoding="utf-8" standalone="no"?>
<!DOCTYPE svg PUBLIC "-//W3C//DTD SVG 1.1//EN"
  "http://www.w3.org/Graphics/SVG/1.1/DTD/svg11.dtd">
<svg xmlns:xlink="http://www.w3.org/1999/xlink" width="371.52pt" height="280.512pt" viewBox="0 0 371.52 280.512" xmlns="http://www.w3.org/2000/svg" version="1.1">
 <metadata>
  <rdf:RDF xmlns:dc="http://purl.org/dc/elements/1.1/" xmlns:cc="http://creativecommons.org/ns#" xmlns:rdf="http://www.w3.org/1999/02/22-rdf-syntax-ns#">
   <cc:Work>
    <dc:type rdf:resource="http://purl.org/dc/dcmitype/StillImage"/>
    <dc:date>2022-01-14T17:15:26.190682</dc:date>
    <dc:format>image/svg+xml</dc:format>
    <dc:creator>
     <cc:Agent>
      <dc:title>Matplotlib v3.5.1, https://matplotlib.org/</dc:title>
     </cc:Agent>
    </dc:creator>
   </cc:Work>
  </rdf:RDF>
 </metadata>
 <defs>
  <style type="text/css">*{stroke-linejoin: round; stroke-linecap: butt}</style>
 </defs>
 <g id="figure_1">
  <g id="patch_1">
   <path d="M 0 280.512 
L 371.52 280.512 
L 371.52 0 
L 0 0 
L 0 280.512 
z
" style="fill: none"/>
  </g>
  <g id="axes_1">
   <g id="patch_2">
    <path d="M 186.401163 19.296 
C 156.50189 19.296 127.647595 30.42633 105.493695 50.505454 
C 83.339796 70.584579 69.434846 98.20897 66.504204 127.964269 
C 63.573563 157.719568 71.822082 187.525886 89.633058 211.541207 
C 107.444034 235.556528 133.572483 252.102185 162.897249 257.935244 
L 186.401163 139.773089 
L 186.401163 19.296 
z
" style="fill: #0000ff; stroke: #000000; stroke-width: 2; stroke-linejoin: miter"/>
   </g>
   <g id="patch_3">
    <path d="M 162.897249 257.935244 
C 179.390724 261.216 196.389849 261.007379 212.797843 257.322841 
C 229.205836 253.638303 244.66206 246.558831 258.169281 236.541194 
C 271.676502 226.523556 282.937838 213.787934 291.226711 199.156028 
C 299.515583 184.524122 304.649806 168.317533 306.298122 151.581908 
C 307.946437 134.846284 306.072615 117.949462 300.797554 101.981626 
C 295.522493 86.013789 286.962136 71.3259 275.668797 58.865621 
C 264.375458 46.405341 250.597357 36.44654 235.223457 29.631759 
C 219.849556 22.816977 203.217764 19.296 186.401163 19.296 
L 186.401163 139.773089 
L 162.897249 257.935244 
z
" style="fill: #ff0000; stroke: #000000; stroke-width: 2; stroke-linejoin: miter"/>
   </g>
   <g id="matplotlib.axis_1"/>
   <g id="matplotlib.axis_2"/>
  </g>
 </g>
</svg>
