<?xml version="1.0" encoding="utf-8" standalone="no"?>
<!DOCTYPE svg PUBLIC "-//W3C//DTD SVG 1.1//EN"
  "http://www.w3.org/Graphics/SVG/1.1/DTD/svg11.dtd">
<svg xmlns:xlink="http://www.w3.org/1999/xlink" width="371.52pt" height="280.512pt" viewBox="0 0 371.52 280.512" xmlns="http://www.w3.org/2000/svg" version="1.1">
 <metadata>
  <rdf:RDF xmlns:dc="http://purl.org/dc/elements/1.1/" xmlns:cc="http://creativecommons.org/ns#" xmlns:rdf="http://www.w3.org/1999/02/22-rdf-syntax-ns#">
   <cc:Work>
    <dc:type rdf:resource="http://purl.org/dc/dcmitype/StillImage"/>
    <dc:date>2021-12-10T18:12:51.120275</dc:date>
    <dc:format>image/svg+xml</dc:format>
    <dc:creator>
     <cc:Agent>
      <dc:title>Matplotlib v3.5.0, https://matplotlib.org/</dc:title>
     </cc:Agent>
    </dc:creator>
   </cc:Work>
  </rdf:RDF>
 </metadata>
 <defs>
  <style type="text/css">*{stroke-linejoin: round; stroke-linecap: butt}</style>
 </defs>
 <g id="figure_1">
  <g id="patch_1">
   <path d="M 0 280.512 
L 371.52 280.512 
L 371.52 0 
L 0 0 
L 0 280.512 
z
" style="fill: none"/>
  </g>
  <g id="axes_1">
   <g id="patch_2">
    <path d="M 186.622736 19.296 
C 159.743994 19.296 133.620907 28.277825 112.425367 44.807066 
C 91.229826 61.336307 76.153592 84.483575 69.604359 110.552221 
C 63.055126 136.620867 65.401138 164.14513 76.267733 188.72935 
C 87.134328 213.31357 105.910511 233.57545 129.597701 246.279143 
L 186.622736 139.950779 
L 186.622736 19.296 
z
" style="fill: #0000ff"/>
   </g>
   <g id="patch_3">
    <path d="M 129.597701 246.279143 
C 145.765871 254.950305 163.700859 259.82055 182.034215 260.518275 
C 200.367571 261.216 218.620845 257.722997 235.401302 250.305784 
C 252.181758 242.88857 267.051473 231.740716 278.875879 217.712808 
C 290.700285 203.6849 299.170797 187.143028 303.641109 169.349347 
C 308.111422 151.555667 308.464874 132.974543 304.674494 115.023727 
C 300.884115 97.072911 293.048824 80.220869 281.766459 65.753423 
C 270.484093 51.285977 256.049092 39.580686 239.562854 31.530672 
C 223.076616 23.480658 204.969387 19.296003 186.622758 19.296 
L 186.622736 139.950779 
L 129.597701 246.279143 
z
" style="fill: #ff0000"/>
   </g>
   <g id="matplotlib.axis_1"/>
   <g id="matplotlib.axis_2"/>
  </g>
 </g>
</svg>
