<?xml version="1.0" encoding="utf-8" standalone="no"?>
<!DOCTYPE svg PUBLIC "-//W3C//DTD SVG 1.1//EN"
  "http://www.w3.org/Graphics/SVG/1.1/DTD/svg11.dtd">
<svg xmlns:xlink="http://www.w3.org/1999/xlink" width="371.52pt" height="280.512pt" viewBox="0 0 371.52 280.512" xmlns="http://www.w3.org/2000/svg" version="1.1">
 <metadata>
  <rdf:RDF xmlns:dc="http://purl.org/dc/elements/1.1/" xmlns:cc="http://creativecommons.org/ns#" xmlns:rdf="http://www.w3.org/1999/02/22-rdf-syntax-ns#">
   <cc:Work>
    <dc:type rdf:resource="http://purl.org/dc/dcmitype/StillImage"/>
    <dc:date>2022-01-14T17:15:30.859422</dc:date>
    <dc:format>image/svg+xml</dc:format>
    <dc:creator>
     <cc:Agent>
      <dc:title>Matplotlib v3.5.1, https://matplotlib.org/</dc:title>
     </cc:Agent>
    </dc:creator>
   </cc:Work>
  </rdf:RDF>
 </metadata>
 <defs>
  <style type="text/css">*{stroke-linejoin: round; stroke-linecap: butt}</style>
 </defs>
 <g id="figure_1">
  <g id="patch_1">
   <path d="M 0 280.512 
L 371.52 280.512 
L 371.52 0 
L 0 0 
L 0 280.512 
z
" style="fill: none"/>
  </g>
  <g id="axes_1">
   <g id="patch_2">
    <path d="M 186.292092 19.296 
C 155.987497 19.296 126.772609 30.737377 104.527677 51.317259 
C 82.282746 71.897141 68.60756 100.135484 66.254602 130.348596 
C 63.901645 160.561707 73.040133 190.57675 91.830712 214.352424 
C 110.62129 238.128097 137.712597 253.954527 167.651808 258.646236 
L 186.292092 139.696959 
L 186.292092 19.296 
z
" style="fill: #0000ff; stroke: #000000; stroke-width: 2; stroke-linejoin: miter"/>
   </g>
   <g id="patch_3">
    <path d="M 167.651808 258.646236 
C 184.050246 261.216 200.804308 260.367166 216.859052 256.153181 
C 232.913796 251.939197 247.925029 244.450404 260.947548 234.158346 
C 273.970067 223.866288 284.724687 210.991612 292.534228 196.34499 
C 300.343769 181.698368 305.040804 165.593804 306.32958 149.045344 
C 307.618355 132.496884 305.471241 115.859306 300.023433 100.180216 
C 294.575624 84.501126 285.943916 70.116665 274.671815 57.932569 
C 263.399713 45.748473 249.728879 36.025953 234.520112 29.377201 
C 219.311346 22.728449 202.890705 19.296006 186.292137 19.296 
L 186.292092 139.696959 
L 167.651808 258.646236 
z
" style="fill: #ff0000; stroke: #000000; stroke-width: 2; stroke-linejoin: miter"/>
   </g>
   <g id="matplotlib.axis_1"/>
   <g id="matplotlib.axis_2"/>
  </g>
 </g>
</svg>
