<?xml version="1.0" encoding="utf-8" standalone="no"?>
<!DOCTYPE svg PUBLIC "-//W3C//DTD SVG 1.1//EN"
  "http://www.w3.org/Graphics/SVG/1.1/DTD/svg11.dtd">
<svg xmlns:xlink="http://www.w3.org/1999/xlink" width="371.52pt" height="280.512pt" viewBox="0 0 371.52 280.512" xmlns="http://www.w3.org/2000/svg" version="1.1">
 <metadata>
  <rdf:RDF xmlns:dc="http://purl.org/dc/elements/1.1/" xmlns:cc="http://creativecommons.org/ns#" xmlns:rdf="http://www.w3.org/1999/02/22-rdf-syntax-ns#">
   <cc:Work>
    <dc:type rdf:resource="http://purl.org/dc/dcmitype/StillImage"/>
    <dc:date>2022-01-14T17:15:34.112649</dc:date>
    <dc:format>image/svg+xml</dc:format>
    <dc:creator>
     <cc:Agent>
      <dc:title>Matplotlib v3.5.1, https://matplotlib.org/</dc:title>
     </cc:Agent>
    </dc:creator>
   </cc:Work>
  </rdf:RDF>
 </metadata>
 <defs>
  <style type="text/css">*{stroke-linejoin: round; stroke-linecap: butt}</style>
 </defs>
 <g id="figure_1">
  <g id="patch_1">
   <path d="M 0 280.512 
L 371.52 280.512 
L 371.52 0 
L 0 0 
L 0 280.512 
z
" style="fill: none"/>
  </g>
  <g id="axes_1">
   <g id="patch_2">
    <path d="M 186.486369 19.296 
C 156.9732 19.296 128.465502 30.144396 106.418852 49.765108 
C 84.372201 69.385821 70.288794 96.441951 66.8638 125.755712 
C 63.438805 155.069472 70.905593 184.643508 87.83523 208.818176 
C 104.764866 232.992844 130.003813 250.120951 158.722043 256.924657 
L 186.486369 139.732309 
L 186.486369 19.296 
z
" style="fill: #0000ff; stroke: #000000; stroke-width: 2; stroke-linejoin: miter"/>
   </g>
   <g id="patch_3">
    <path d="M 158.722043 256.924657 
C 175.259211 260.842518 192.439911 261.216 209.131712 258.020486 
C 225.823514 254.824971 241.651444 248.132246 255.572237 238.383448 
C 269.49303 228.63465 281.193962 216.04878 289.903791 201.45541 
C 298.613619 186.862041 304.136683 170.589005 306.108939 153.708906 
C 308.081195 136.828806 306.458338 119.720847 301.347336 103.512664 
C 296.236334 87.30448 287.752003 72.360182 276.453569 59.664791 
C 265.155136 46.9694 251.296414 36.808113 235.790873 29.850689 
C 220.285332 22.893265 203.481296 19.296 186.486369 19.296 
L 186.486369 139.732309 
L 158.722043 256.924657 
z
" style="fill: #ff0000; stroke: #000000; stroke-width: 2; stroke-linejoin: miter"/>
   </g>
   <g id="matplotlib.axis_1"/>
   <g id="matplotlib.axis_2"/>
  </g>
 </g>
</svg>
