<?xml version="1.0" encoding="utf-8" standalone="no"?>
<!DOCTYPE svg PUBLIC "-//W3C//DTD SVG 1.1//EN"
  "http://www.w3.org/Graphics/SVG/1.1/DTD/svg11.dtd">
<svg xmlns:xlink="http://www.w3.org/1999/xlink" width="371.52pt" height="280.512pt" viewBox="0 0 371.52 280.512" xmlns="http://www.w3.org/2000/svg" version="1.1">
 <metadata>
  <rdf:RDF xmlns:dc="http://purl.org/dc/elements/1.1/" xmlns:cc="http://creativecommons.org/ns#" xmlns:rdf="http://www.w3.org/1999/02/22-rdf-syntax-ns#">
   <cc:Work>
    <dc:type rdf:resource="http://purl.org/dc/dcmitype/StillImage"/>
    <dc:date>2021-11-24T20:23:25.337569</dc:date>
    <dc:format>image/svg+xml</dc:format>
    <dc:creator>
     <cc:Agent>
      <dc:title>Matplotlib v3.5.0, https://matplotlib.org/</dc:title>
     </cc:Agent>
    </dc:creator>
   </cc:Work>
  </rdf:RDF>
 </metadata>
 <defs>
  <style type="text/css">*{stroke-linejoin: round; stroke-linecap: butt}</style>
 </defs>
 <g id="figure_1">
  <g id="patch_1">
   <path d="M 0 280.512 
L 371.52 280.512 
L 371.52 0 
L 0 0 
L 0 280.512 
z
" style="fill: none"/>
  </g>
  <g id="axes_1">
   <g id="patch_2">
    <path d="M 186.181079 19.296007 
C 160.415153 19.296007 135.318907 27.576787 114.612607 42.910806 
C 93.906308 58.244824 78.666307 79.834989 71.151781 104.480777 
C 63.637254 129.126565 64.238823 155.546841 72.867309 179.825066 
C 81.495795 204.103291 97.702674 224.977436 119.085439 239.353121 
L 186.181079 139.553329 
L 186.181079 19.296007 
z
" style="fill: #0000ff"/>
   </g>
   <g id="patch_3">
    <path d="M 119.085439 239.353121 
C 134.680589 249.837778 152.51836 256.522476 171.163184 258.869238 
C 189.808008 261.216 208.745924 259.160134 226.452827 252.867096 
C 244.15973 246.574057 260.147513 236.217318 273.129495 222.63038 
C 286.111477 209.043441 295.729798 192.600839 301.210385 174.625859 
C 306.690971 156.650878 307.882746 137.639015 304.689796 119.120327 
C 301.496846 100.601639 294.007188 83.086608 282.823582 67.98483 
C 271.639977 52.883051 257.07071 40.610818 240.288302 32.155787 
C 223.505894 23.700757 204.972967 19.296 186.181034 19.296007 
L 186.181079 139.553329 
L 119.085439 239.353121 
z
" style="fill: #bf00bf"/>
   </g>
   <g id="matplotlib.axis_1"/>
   <g id="matplotlib.axis_2"/>
  </g>
 </g>
</svg>
