<?xml version="1.0" encoding="utf-8" standalone="no"?>
<!DOCTYPE svg PUBLIC "-//W3C//DTD SVG 1.1//EN"
  "http://www.w3.org/Graphics/SVG/1.1/DTD/svg11.dtd">
<svg xmlns:xlink="http://www.w3.org/1999/xlink" width="371.52pt" height="280.512pt" viewBox="0 0 371.52 280.512" xmlns="http://www.w3.org/2000/svg" version="1.1">
 <metadata>
  <rdf:RDF xmlns:dc="http://purl.org/dc/elements/1.1/" xmlns:cc="http://creativecommons.org/ns#" xmlns:rdf="http://www.w3.org/1999/02/22-rdf-syntax-ns#">
   <cc:Work>
    <dc:type rdf:resource="http://purl.org/dc/dcmitype/StillImage"/>
    <dc:date>2022-01-14T17:15:38.991776</dc:date>
    <dc:format>image/svg+xml</dc:format>
    <dc:creator>
     <cc:Agent>
      <dc:title>Matplotlib v3.5.1, https://matplotlib.org/</dc:title>
     </cc:Agent>
    </dc:creator>
   </cc:Work>
  </rdf:RDF>
 </metadata>
 <defs>
  <style type="text/css">*{stroke-linejoin: round; stroke-linecap: butt}</style>
 </defs>
 <g id="figure_1">
  <g id="patch_1">
   <path d="M 0 280.512 
L 371.52 280.512 
L 371.52 0 
L 0 0 
L 0 280.512 
z
" style="fill: none"/>
  </g>
  <g id="axes_1">
   <g id="patch_2">
    <path d="M 186.759953 19.296 
C 159.044177 19.296 132.156555 28.841992 110.645714 46.319063 
C 89.134874 63.796134 74.286314 88.159846 68.611993 115.288546 
C 62.937671 142.417245 66.776688 170.689708 79.47959 195.32303 
C 92.182492 219.956352 112.990147 239.478433 138.382487 250.586689 
L 186.759953 140.000734 
L 186.759953 19.296 
z
" style="fill: #0000ff; stroke: #000000; stroke-width: 2; stroke-linejoin: miter"/>
   </g>
   <g id="patch_3">
    <path d="M 138.382487 250.586689 
C 154.825334 257.779856 172.667371 261.216 190.605652 260.644189 
C 208.543933 260.072379 226.130905 255.50688 242.082249 247.281097 
C 258.033593 239.055314 271.95133 227.374476 282.819093 213.091598 
C 293.686856 198.808719 301.233498 182.280151 304.907913 164.712922 
C 308.582329 147.145692 308.292842 128.978096 304.060593 111.536852 
C 299.828345 94.095609 291.758927 77.815872 280.441624 63.886495 
C 269.12432 49.957118 254.841493 38.725635 238.63617 31.012244 
C 222.430848 23.298853 204.707345 19.296 186.759953 19.296 
L 186.759953 140.000734 
L 138.382487 250.586689 
z
" style="fill: #ff0000; stroke: #000000; stroke-width: 2; stroke-linejoin: miter"/>
   </g>
   <g id="matplotlib.axis_1"/>
   <g id="matplotlib.axis_2"/>
  </g>
 </g>
</svg>
