<?xml version="1.0" encoding="utf-8" standalone="no"?>
<!DOCTYPE svg PUBLIC "-//W3C//DTD SVG 1.1//EN"
  "http://www.w3.org/Graphics/SVG/1.1/DTD/svg11.dtd">
<svg xmlns:xlink="http://www.w3.org/1999/xlink" width="371.52pt" height="280.512pt" viewBox="0 0 371.52 280.512" xmlns="http://www.w3.org/2000/svg" version="1.1">
 <metadata>
  <rdf:RDF xmlns:dc="http://purl.org/dc/elements/1.1/" xmlns:cc="http://creativecommons.org/ns#" xmlns:rdf="http://www.w3.org/1999/02/22-rdf-syntax-ns#">
   <cc:Work>
    <dc:type rdf:resource="http://purl.org/dc/dcmitype/StillImage"/>
    <dc:date>2022-01-14T17:15:23.608001</dc:date>
    <dc:format>image/svg+xml</dc:format>
    <dc:creator>
     <cc:Agent>
      <dc:title>Matplotlib v3.5.1, https://matplotlib.org/</dc:title>
     </cc:Agent>
    </dc:creator>
   </cc:Work>
  </rdf:RDF>
 </metadata>
 <defs>
  <style type="text/css">*{stroke-linejoin: round; stroke-linecap: butt}</style>
 </defs>
 <g id="figure_1">
  <g id="patch_1">
   <path d="M 0 280.512 
L 371.52 280.512 
L 371.52 0 
L 0 0 
L 0 280.512 
z
" style="fill: none"/>
  </g>
  <g id="axes_1">
   <g id="patch_2">
    <path d="M 186.135823 19.296 
C 160.467219 19.296 135.460876 27.515406 114.797889 42.744268 
C 94.134903 57.97313 78.881502 79.425626 71.283085 103.943809 
C 63.684668 128.461992 64.13332 154.780703 72.562997 179.025657 
C 80.992674 203.270611 96.968397 224.190747 118.138437 238.706486 
L 186.135823 139.53776 
L 186.135823 19.296 
z
" style="fill: #0000ff; stroke: #000000; stroke-width: 2; stroke-linejoin: miter"/>
   </g>
   <g id="patch_3">
    <path d="M 118.138437 238.706486 
C 133.6733 249.358333 151.495914 256.212313 170.164995 258.714157 
C 188.834076 261.216 207.832437 259.296399 225.623715 253.110588 
C 243.414992 246.924777 259.506317 236.644121 272.596411 223.099998 
C 285.686504 209.555876 295.412735 193.123498 300.988558 175.131722 
C 306.564382 157.139946 307.835332 138.087195 304.69863 119.514233 
C 301.561928 100.941272 294.104469 83.362622 282.929325 68.19984 
C 271.754181 53.037058 257.170935 40.710195 240.358908 32.216104 
C 223.546882 23.722013 204.971817 19.296004 186.135846 19.296 
L 186.135823 139.53776 
L 118.138437 238.706486 
z
" style="fill: #ff0000; stroke: #000000; stroke-width: 2; stroke-linejoin: miter"/>
   </g>
   <g id="matplotlib.axis_1"/>
   <g id="matplotlib.axis_2"/>
  </g>
 </g>
</svg>
