<?xml version="1.0" encoding="utf-8" standalone="no"?>
<!DOCTYPE svg PUBLIC "-//W3C//DTD SVG 1.1//EN"
  "http://www.w3.org/Graphics/SVG/1.1/DTD/svg11.dtd">
<svg xmlns:xlink="http://www.w3.org/1999/xlink" width="371.52pt" height="280.512pt" viewBox="0 0 371.52 280.512" xmlns="http://www.w3.org/2000/svg" version="1.1">
 <metadata>
  <rdf:RDF xmlns:dc="http://purl.org/dc/elements/1.1/" xmlns:cc="http://creativecommons.org/ns#" xmlns:rdf="http://www.w3.org/1999/02/22-rdf-syntax-ns#">
   <cc:Work>
    <dc:type rdf:resource="http://purl.org/dc/dcmitype/StillImage"/>
    <dc:date>2021-11-24T20:23:11.973478</dc:date>
    <dc:format>image/svg+xml</dc:format>
    <dc:creator>
     <cc:Agent>
      <dc:title>Matplotlib v3.5.0, https://matplotlib.org/</dc:title>
     </cc:Agent>
    </dc:creator>
   </cc:Work>
  </rdf:RDF>
 </metadata>
 <defs>
  <style type="text/css">*{stroke-linejoin: round; stroke-linecap: butt}</style>
 </defs>
 <g id="figure_1">
  <g id="patch_1">
   <path d="M 0 280.512 
L 371.52 280.512 
L 371.52 0 
L 0 0 
L 0 280.512 
z
" style="fill: none"/>
  </g>
  <g id="axes_1">
   <g id="patch_2">
    <path d="M 186.164824 19.296003 
C 155.412213 19.296003 125.798294 31.076257 103.448614 52.200057 
C 81.098934 73.323857 67.668598 102.226879 65.935631 132.930624 
C 64.202663 163.634369 74.295398 193.86507 94.126185 217.369602 
C 113.956972 240.874133 142.057242 255.911867 172.614541 259.372295 
L 186.164824 139.716549 
L 186.164824 19.296003 
z
" style="fill: #0000ff"/>
   </g>
   <g id="patch_3">
    <path d="M 172.614541 259.372295 
C 188.895372 261.216 205.382508 259.717604 221.064217 254.969055 
C 236.745926 250.220507 251.294743 242.320965 263.817882 231.755185 
C 276.341021 221.189404 286.576972 208.17802 293.89761 193.519474 
C 301.218248 178.860927 305.470701 162.861319 306.394019 146.502462 
C 307.317337 130.143605 304.892239 113.767106 299.267541 98.377906 
C 293.642842 82.988705 284.935999 68.908162 273.681304 57.000326 
C 262.42661 45.092489 248.859085 35.60602 233.811299 29.123053 
C 218.763513 22.640086 202.549695 19.296 186.164802 19.296003 
L 186.164824 139.716549 
L 172.614541 259.372295 
z
" style="fill: #bf00bf"/>
   </g>
   <g id="matplotlib.axis_1"/>
   <g id="matplotlib.axis_2"/>
  </g>
 </g>
</svg>
