<?xml version="1.0" encoding="utf-8" standalone="no"?>
<!DOCTYPE svg PUBLIC "-//W3C//DTD SVG 1.1//EN"
  "http://www.w3.org/Graphics/SVG/1.1/DTD/svg11.dtd">
<svg xmlns:xlink="http://www.w3.org/1999/xlink" width="371.52pt" height="280.512pt" viewBox="0 0 371.52 280.512" xmlns="http://www.w3.org/2000/svg" version="1.1">
 <metadata>
  <rdf:RDF xmlns:dc="http://purl.org/dc/elements/1.1/" xmlns:cc="http://creativecommons.org/ns#" xmlns:rdf="http://www.w3.org/1999/02/22-rdf-syntax-ns#">
   <cc:Work>
    <dc:type rdf:resource="http://purl.org/dc/dcmitype/StillImage"/>
    <dc:date>2021-11-24T20:23:15.584582</dc:date>
    <dc:format>image/svg+xml</dc:format>
    <dc:creator>
     <cc:Agent>
      <dc:title>Matplotlib v3.5.0, https://matplotlib.org/</dc:title>
     </cc:Agent>
    </dc:creator>
   </cc:Work>
  </rdf:RDF>
 </metadata>
 <defs>
  <style type="text/css">*{stroke-linejoin: round; stroke-linecap: butt}</style>
 </defs>
 <g id="figure_1">
  <g id="patch_1">
   <path d="M 0 280.512 
L 371.52 280.512 
L 371.52 0 
L 0 0 
L 0 280.512 
z
" style="fill: none"/>
  </g>
  <g id="axes_1">
   <g id="patch_2">
    <path d="M 186.428929 19.296 
C 160.080119 19.296 134.445768 27.94413 113.481858 43.905781 
C 92.517949 59.867432 77.361371 82.276989 70.351142 107.676132 
C 63.340912 133.075275 64.857201 160.086587 74.66601 184.541588 
C 84.474819 208.996589 102.044207 229.569063 124.662805 243.084195 
L 186.428929 139.713903 
L 186.428929 19.296 
z
" style="fill: #0000ff"/>
   </g>
   <g id="patch_3">
    <path d="M 124.662805 243.084195 
C 140.583279 252.597044 158.488287 258.304576 176.977113 259.760288 
C 195.465939 261.216 214.043546 258.380916 231.256603 251.476826 
C 248.46966 244.572736 263.857288 233.784495 276.215707 219.956073 
C 288.574126 206.12765 297.57244 189.629301 302.50671 171.751695 
C 307.440979 153.87409 308.179088 135.095901 304.663294 116.886151 
C 301.1475 98.676401 293.471939 81.522656 282.237071 66.766859 
C 271.002204 52.011062 256.508844 40.048299 239.890811 31.81442 
C 223.272778 23.58054 204.975019 19.296007 186.428974 19.296 
L 186.428929 139.713903 
L 124.662805 243.084195 
z
" style="fill: #bf00bf"/>
   </g>
   <g id="matplotlib.axis_1"/>
   <g id="matplotlib.axis_2"/>
  </g>
 </g>
</svg>
