<?xml version="1.0" encoding="utf-8" standalone="no"?>
<!DOCTYPE svg PUBLIC "-//W3C//DTD SVG 1.1//EN"
  "http://www.w3.org/Graphics/SVG/1.1/DTD/svg11.dtd">
<svg xmlns:xlink="http://www.w3.org/1999/xlink" width="371.52pt" height="280.512pt" viewBox="0 0 371.52 280.512" xmlns="http://www.w3.org/2000/svg" version="1.1">
 <metadata>
  <rdf:RDF xmlns:dc="http://purl.org/dc/elements/1.1/" xmlns:cc="http://creativecommons.org/ns#" xmlns:rdf="http://www.w3.org/1999/02/22-rdf-syntax-ns#">
   <cc:Work>
    <dc:type rdf:resource="http://purl.org/dc/dcmitype/StillImage"/>
    <dc:date>2021-12-10T18:12:51.270143</dc:date>
    <dc:format>image/svg+xml</dc:format>
    <dc:creator>
     <cc:Agent>
      <dc:title>Matplotlib v3.5.0, https://matplotlib.org/</dc:title>
     </cc:Agent>
    </dc:creator>
   </cc:Work>
  </rdf:RDF>
 </metadata>
 <defs>
  <style type="text/css">*{stroke-linejoin: round; stroke-linecap: butt}</style>
 </defs>
 <g id="figure_1">
  <g id="patch_1">
   <path d="M 0 280.512 
L 371.52 280.512 
L 371.52 0 
L 0 0 
L 0 280.512 
z
" style="fill: none"/>
  </g>
  <g id="axes_1">
   <g id="patch_2">
    <path d="M 186.717952 19.296 
C 158.620993 19.296 131.390015 29.123302 109.768373 47.066092 
C 88.146731 65.008883 73.467233 89.961125 68.286897 117.576397 
C 63.106561 145.191669 67.744715 173.7677 81.393439 198.326842 
C 95.042164 222.885983 116.86012 241.914352 143.046846 252.097403 
L 186.717952 139.792823 
L 186.717952 19.296 
z
" style="fill: #0000ff"/>
   </g>
   <g id="patch_3">
    <path d="M 143.046846 252.097403 
C 159.548631 258.514339 177.26373 261.216 194.928118 260.009616 
C 212.592507 258.803233 229.775816 253.718196 245.251966 245.117338 
C 260.728116 236.51648 274.120052 224.60935 284.47222 210.245555 
C 294.824388 195.88176 301.884571 179.411256 305.149005 162.00926 
C 308.413439 144.607264 307.80259 126.697754 303.360044 109.558624 
C 298.917498 92.419494 290.751492 76.468318 279.444693 62.843256 
C 268.137895 49.218195 253.96578 38.251206 237.939569 30.724815 
C 221.913358 23.198425 204.42351 19.296003 186.717975 19.296 
L 186.717952 139.792823 
L 143.046846 252.097403 
z
" style="fill: #ff0000"/>
   </g>
   <g id="matplotlib.axis_1"/>
   <g id="matplotlib.axis_2"/>
  </g>
 </g>
</svg>
