<?xml version="1.0" encoding="utf-8" standalone="no"?>
<!DOCTYPE svg PUBLIC "-//W3C//DTD SVG 1.1//EN"
  "http://www.w3.org/Graphics/SVG/1.1/DTD/svg11.dtd">
<svg xmlns:xlink="http://www.w3.org/1999/xlink" width="371.52pt" height="280.512pt" viewBox="0 0 371.52 280.512" xmlns="http://www.w3.org/2000/svg" version="1.1">
 <metadata>
  <rdf:RDF xmlns:dc="http://purl.org/dc/elements/1.1/" xmlns:cc="http://creativecommons.org/ns#" xmlns:rdf="http://www.w3.org/1999/02/22-rdf-syntax-ns#">
   <cc:Work>
    <dc:type rdf:resource="http://purl.org/dc/dcmitype/StillImage"/>
    <dc:date>2021-11-24T20:23:18.300457</dc:date>
    <dc:format>image/svg+xml</dc:format>
    <dc:creator>
     <cc:Agent>
      <dc:title>Matplotlib v3.5.0, https://matplotlib.org/</dc:title>
     </cc:Agent>
    </dc:creator>
   </cc:Work>
  </rdf:RDF>
 </metadata>
 <defs>
  <style type="text/css">*{stroke-linejoin: round; stroke-linecap: butt}</style>
 </defs>
 <g id="figure_1">
  <g id="patch_1">
   <path d="M 0 280.512 
L 371.52 280.512 
L 371.52 0 
L 0 0 
L 0 280.512 
z
" style="fill: none"/>
  </g>
  <g id="axes_1">
   <g id="patch_2">
    <path d="M 186.6547 19.296007 
C 159.680588 19.296007 133.469593 28.337863 112.232617 44.968965 
C 90.995641 61.600066 75.934302 84.879402 69.468265 111.067053 
C 63.002227 137.254703 65.497349 164.868935 76.552779 189.473409 
C 87.608209 214.077884 106.598416 234.280445 130.472544 246.835471 
L 186.6547 140.001754 
L 186.6547 19.296007 
z
" style="fill: #0000ff"/>
   </g>
   <g id="patch_3">
    <path d="M 130.472544 246.835471 
C 146.680896 255.359186 164.618481 260.083589 182.922683 260.649794 
C 201.226885 261.216 219.422176 257.609299 236.126365 250.10367 
C 252.830554 242.598042 267.60968 231.388477 279.341058 217.326501 
C 291.072436 203.264525 299.451295 186.715457 303.84114 168.936434 
C 308.230985 151.157411 308.517773 132.610318 304.679717 114.70407 
C 300.841661 96.797822 292.978471 79.997609 281.687469 65.579645 
C 270.396466 51.161682 255.970982 39.500536 239.506837 31.482037 
C 223.042692 23.463538 204.967612 19.296 186.654654 19.296007 
L 186.6547 140.001754 
L 130.472544 246.835471 
z
" style="fill: #bf00bf"/>
   </g>
   <g id="matplotlib.axis_1"/>
   <g id="matplotlib.axis_2"/>
  </g>
 </g>
</svg>
