<?xml version="1.0" encoding="utf-8" standalone="no"?>
<!DOCTYPE svg PUBLIC "-//W3C//DTD SVG 1.1//EN"
  "http://www.w3.org/Graphics/SVG/1.1/DTD/svg11.dtd">
<svg xmlns:xlink="http://www.w3.org/1999/xlink" width="371.52pt" height="280.512pt" viewBox="0 0 371.52 280.512" xmlns="http://www.w3.org/2000/svg" version="1.1">
 <metadata>
  <rdf:RDF xmlns:dc="http://purl.org/dc/elements/1.1/" xmlns:cc="http://creativecommons.org/ns#" xmlns:rdf="http://www.w3.org/1999/02/22-rdf-syntax-ns#">
   <cc:Work>
    <dc:type rdf:resource="http://purl.org/dc/dcmitype/StillImage"/>
    <dc:date>2021-12-10T18:13:04.480561</dc:date>
    <dc:format>image/svg+xml</dc:format>
    <dc:creator>
     <cc:Agent>
      <dc:title>Matplotlib v3.5.0, https://matplotlib.org/</dc:title>
     </cc:Agent>
    </dc:creator>
   </cc:Work>
  </rdf:RDF>
 </metadata>
 <defs>
  <style type="text/css">*{stroke-linejoin: round; stroke-linecap: butt}</style>
 </defs>
 <g id="figure_1">
  <g id="patch_1">
   <path d="M 0 280.512 
L 371.52 280.512 
L 371.52 0 
L 0 0 
L 0 280.512 
z
" style="fill: none"/>
  </g>
  <g id="axes_1">
   <g id="patch_2">
    <path d="M 186.293524 19.296 
C 160.274334 19.296 134.94421 27.73644 114.125602 43.343614 
C 93.306995 58.950788 78.102584 80.898045 70.806794 105.873428 
C 63.511005 130.84881 64.510266 157.529471 73.653785 181.889158 
C 82.797304 206.248845 99.600784 226.997322 121.528492 241.003532 
L 186.293524 139.609322 
L 186.293524 19.296 
z
" style="fill: #0000ff"/>
   </g>
   <g id="patch_3">
    <path d="M 121.528492 241.003532 
C 137.272298 251.059808 155.144067 257.31235 173.723262 259.264175 
C 192.302457 261.216 211.083425 258.813987 228.573361 252.249061 
C 246.063297 245.684134 261.786193 235.134965 274.492314 221.440054 
C 287.198436 207.745144 296.541973 191.277213 301.780254 173.345216 
C 307.018535 155.413219 308.008995 136.505194 304.672907 118.124045 
C 301.336819 99.742896 293.764978 82.388887 282.559232 67.4414 
C 271.353486 52.493913 256.818811 40.35976 240.110496 32.003426 
C 223.402182 23.647091 204.974962 19.296 186.293524 19.296 
L 186.293524 139.609322 
L 121.528492 241.003532 
z
" style="fill: #ff0000"/>
   </g>
   <g id="matplotlib.axis_1"/>
   <g id="matplotlib.axis_2"/>
  </g>
 </g>
</svg>
