<?xml version="1.0" encoding="utf-8" standalone="no"?>
<!DOCTYPE svg PUBLIC "-//W3C//DTD SVG 1.1//EN"
  "http://www.w3.org/Graphics/SVG/1.1/DTD/svg11.dtd">
<svg xmlns:xlink="http://www.w3.org/1999/xlink" width="371.52pt" height="280.512pt" viewBox="0 0 371.52 280.512" xmlns="http://www.w3.org/2000/svg" version="1.1">
 <metadata>
  <rdf:RDF xmlns:dc="http://purl.org/dc/elements/1.1/" xmlns:cc="http://creativecommons.org/ns#" xmlns:rdf="http://www.w3.org/1999/02/22-rdf-syntax-ns#">
   <cc:Work>
    <dc:type rdf:resource="http://purl.org/dc/dcmitype/StillImage"/>
    <dc:date>2021-12-10T18:12:58.951163</dc:date>
    <dc:format>image/svg+xml</dc:format>
    <dc:creator>
     <cc:Agent>
      <dc:title>Matplotlib v3.5.0, https://matplotlib.org/</dc:title>
     </cc:Agent>
    </dc:creator>
   </cc:Work>
  </rdf:RDF>
 </metadata>
 <defs>
  <style type="text/css">*{stroke-linejoin: round; stroke-linecap: butt}</style>
 </defs>
 <g id="figure_1">
  <g id="patch_1">
   <path d="M 0 280.512 
L 371.52 280.512 
L 371.52 0 
L 0 0 
L 0 280.512 
z
" style="fill: none"/>
  </g>
  <g id="axes_1">
   <g id="patch_2">
    <path d="M 186.783178 19.296003 
C 159.340333 19.296003 132.69844 28.638386 111.26564 45.777371 
C 89.83284 62.916355 74.860215 86.851498 68.825122 113.622516 
C 62.790028 140.393533 66.044748 168.437736 78.050759 193.114961 
C 90.05677 217.792186 110.113253 237.661963 134.901682 249.436661 
L 186.783178 140.214255 
L 186.783178 19.296003 
z
" style="fill: #0000ff"/>
   </g>
   <g id="patch_3">
    <path d="M 134.901682 249.436661 
C 151.284947 257.21884 169.211184 261.216 187.348618 261.131184 
C 205.486051 261.046369 223.374122 256.881731 239.683889 248.946671 
C 255.993656 241.011611 270.31097 229.507621 281.572169 215.289355 
C 292.833369 201.071089 300.7525 184.499589 304.741236 166.805983 
C 308.729972 149.112378 308.687027 130.745957 304.615593 113.071198 
C 300.544158 95.396439 292.547618 78.862153 281.220051 64.696704 
C 269.892485 50.531256 255.52153 39.094345 239.174834 31.235643 
C 222.828137 23.37694 204.920787 19.296 186.783155 19.296003 
L 186.783178 140.214255 
L 134.901682 249.436661 
z
" style="fill: #ff0000"/>
   </g>
   <g id="matplotlib.axis_1"/>
   <g id="matplotlib.axis_2"/>
  </g>
 </g>
</svg>
