<?xml version="1.0" encoding="utf-8" standalone="no"?>
<!DOCTYPE svg PUBLIC "-//W3C//DTD SVG 1.1//EN"
  "http://www.w3.org/Graphics/SVG/1.1/DTD/svg11.dtd">
<svg xmlns:xlink="http://www.w3.org/1999/xlink" width="394.55145pt" height="392.09886pt" viewBox="0 0 394.55145 392.09886" xmlns="http://www.w3.org/2000/svg" version="1.1">
 <metadata>
  <rdf:RDF xmlns:dc="http://purl.org/dc/elements/1.1/" xmlns:cc="http://creativecommons.org/ns#" xmlns:rdf="http://www.w3.org/1999/02/22-rdf-syntax-ns#">
   <cc:Work>
    <dc:type rdf:resource="http://purl.org/dc/dcmitype/StillImage"/>
    <dc:date>2022-01-14T17:05:43.714994</dc:date>
    <dc:format>image/svg+xml</dc:format>
    <dc:creator>
     <cc:Agent>
      <dc:title>Matplotlib v3.5.1, https://matplotlib.org/</dc:title>
     </cc:Agent>
    </dc:creator>
   </cc:Work>
  </rdf:RDF>
 </metadata>
 <defs>
  <style type="text/css">*{stroke-linejoin: round; stroke-linecap: butt}</style>
 </defs>
 <g id="figure_1">
  <g id="patch_1">
   <path d="M 0 392.09886 
L 394.55145 392.09886 
L 394.55145 0 
L 0 0 
L 0 392.09886 
z
" style="fill: none"/>
  </g>
  <g id="axes_1">
   <g id="patch_2">
    <path d="M 197.185965 23.348461 
C 174.41465 23.348461 151.867009 27.856608 130.846302 36.61233 
C 109.825595 45.368051 90.744778 58.199339 74.706729 74.364541 
C 58.66868 90.529743 45.988469 109.71129 37.399017 130.800484 
C 28.809564 151.889677 24.479611 174.472215 24.659431 197.24282 
C 24.839251 220.013425 29.525311 242.524763 38.446755 263.475673 
C 47.368199 284.426583 60.349764 303.405478 76.641111 319.315374 
C 92.932458 335.225271 112.213539 347.753614 133.369905 356.176262 
C 154.52627 364.59891 177.142296 368.750399 199.910771 368.39077 
L 197.185965 195.880375 
L 197.185965 23.348461 
z
" style="fill: #0000ff; stroke: #000000; stroke-linejoin: miter"/>
   </g>
   <g id="patch_3">
    <path d="M 199.910771 368.39077 
C 245.410281 367.672104 288.827327 348.981138 320.620959 316.425235 
C 352.414592 283.869331 370.071839 240.021712 369.712499 194.517945 
C 369.353159 149.014178 351.005634 105.450887 318.701816 73.401156 
C 286.397998 41.351425 242.691183 23.34847 197.185997 23.348461 
L 197.185965 195.880375 
L 199.910771 368.39077 
z
" style="fill: #ff0000; stroke: #000000; stroke-linejoin: miter"/>
   </g>
   <g id="matplotlib.axis_1"/>
   <g id="matplotlib.axis_2"/>
  </g>
 </g>
</svg>
