<?xml version="1.0" encoding="utf-8" standalone="no"?>
<!DOCTYPE svg PUBLIC "-//W3C//DTD SVG 1.1//EN"
  "http://www.w3.org/Graphics/SVG/1.1/DTD/svg11.dtd">
<svg xmlns:xlink="http://www.w3.org/1999/xlink" width="41.8815pt" height="41.7042pt" viewBox="0 0 41.8815 41.7042" xmlns="http://www.w3.org/2000/svg" version="1.1">
 <metadata>
  <rdf:RDF xmlns:dc="http://purl.org/dc/elements/1.1/" xmlns:cc="http://creativecommons.org/ns#" xmlns:rdf="http://www.w3.org/1999/02/22-rdf-syntax-ns#">
   <cc:Work>
    <dc:type rdf:resource="http://purl.org/dc/dcmitype/StillImage"/>
    <dc:date>2021-12-14T09:20:48.265806</dc:date>
    <dc:format>image/svg+xml</dc:format>
    <dc:creator>
     <cc:Agent>
      <dc:title>Matplotlib v3.5.0, https://matplotlib.org/</dc:title>
     </cc:Agent>
    </dc:creator>
   </cc:Work>
  </rdf:RDF>
 </metadata>
 <defs>
  <style type="text/css">*{stroke-linejoin: round; stroke-linecap: butt}</style>
 </defs>
 <g id="figure_1">
  <g id="patch_1">
   <path d="M 0 41.7042 
L 41.8815 41.7042 
L 41.8815 0 
L 0 0 
L 0 41.7042 
z
" style="fill: none"/>
  </g>
  <g id="axes_1">
   <g id="patch_2">
    <path d="M 20.893506 8.4411 
C 19.202352 8.4411 17.529054 8.787991 15.977419 9.460253 
C 14.425784 10.132515 13.028576 11.115952 11.872475 12.349554 
C 10.716375 13.583157 9.825793 15.040875 9.255982 16.632276 
C 8.68617 18.223676 8.449159 19.915156 8.559654 21.601777 
C 8.670148 23.288399 9.125814 24.934549 9.898384 26.438103 
C 10.670953 27.941657 11.744112 29.270866 13.051285 30.343269 
C 14.358457 31.415672 15.87204 32.208624 17.498134 32.672932 
C 19.124229 33.13724 20.828498 33.2631 22.505213 33.042703 
L 20.893506 20.794638 
L 20.893506 8.4411 
z
" style="fill: #0000ff"/>
   </g>
   <g id="patch_3">
    <path d="M 22.505213 33.042703 
C 25.615762 32.633835 28.456789 31.056267 30.447335 28.632592 
C 32.437881 26.208918 33.432341 23.116427 33.227358 19.987499 
C 33.022375 16.858571 31.632944 13.922084 29.343188 11.778516 
C 27.053431 9.634949 24.030843 8.441101 20.893508 8.4411 
L 20.893506 20.794638 
L 22.505213 33.042703 
z
" style="fill: #ff0000"/>
   </g>
   <g id="matplotlib.axis_1"/>
   <g id="matplotlib.axis_2"/>
  </g>
 </g>
</svg>
