<?xml version="1.0" encoding="utf-8" standalone="no"?>
<!DOCTYPE svg PUBLIC "-//W3C//DTD SVG 1.1//EN"
  "http://www.w3.org/Graphics/SVG/1.1/DTD/svg11.dtd">
<svg xmlns:xlink="http://www.w3.org/1999/xlink" width="371.52pt" height="280.512pt" viewBox="0 0 371.52 280.512" xmlns="http://www.w3.org/2000/svg" version="1.1">
 <metadata>
  <rdf:RDF xmlns:dc="http://purl.org/dc/elements/1.1/" xmlns:cc="http://creativecommons.org/ns#" xmlns:rdf="http://www.w3.org/1999/02/22-rdf-syntax-ns#">
   <cc:Work>
    <dc:type rdf:resource="http://purl.org/dc/dcmitype/StillImage"/>
    <dc:date>2021-12-03T16:09:59.041469</dc:date>
    <dc:format>image/svg+xml</dc:format>
    <dc:creator>
     <cc:Agent>
      <dc:title>Matplotlib v3.5.0, https://matplotlib.org/</dc:title>
     </cc:Agent>
    </dc:creator>
   </cc:Work>
  </rdf:RDF>
 </metadata>
 <defs>
  <style type="text/css">*{stroke-linejoin: round; stroke-linecap: butt}</style>
 </defs>
 <g id="figure_1">
  <g id="patch_1">
   <path d="M 0 280.512 
L 371.52 280.512 
L 371.52 0 
L 0 0 
L 0 280.512 
z
" style="fill: none"/>
  </g>
  <g id="axes_1">
   <g id="patch_2">
    <path d="M 186.740438 19.296 
C 158.835692 19.296 131.777876 28.981867 110.21235 46.690704 
C 88.646824 64.399541 73.882647 89.056396 68.454574 116.428112 
C 63.026501 143.799828 67.264023 172.224903 80.439632 196.823239 
C 93.615241 221.421575 114.929157 240.700019 140.722148 251.348794 
L 186.740438 139.885331 
L 186.740438 19.296 
z
" style="fill: #0000ff"/>
   </g>
   <g id="patch_3">
    <path d="M 140.722148 251.348794 
C 157.197498 258.150731 174.977836 261.216 192.779707 260.323339 
C 210.581579 259.430678 227.966086 254.602095 243.678346 246.186136 
C 259.390606 237.770177 273.043239 225.974335 283.650744 211.650079 
C 294.25825 197.325823 301.559104 180.826313 305.026301 163.342549 
C 308.493499 145.858785 308.041558 127.821821 303.703102 110.533638 
C 299.364646 93.245456 291.246636 77.132286 279.935065 63.357243 
C 268.623493 49.5822 254.39724 38.484901 238.283215 30.866393 
C 222.16919 23.247885 204.564676 19.296 186.740438 19.296 
L 186.740438 139.885331 
L 140.722148 251.348794 
z
" style="fill: #bf00bf"/>
   </g>
   <g id="matplotlib.axis_1"/>
   <g id="matplotlib.axis_2"/>
  </g>
 </g>
</svg>
