<?xml version="1.0" encoding="utf-8" standalone="no"?>
<!DOCTYPE svg PUBLIC "-//W3C//DTD SVG 1.1//EN"
  "http://www.w3.org/Graphics/SVG/1.1/DTD/svg11.dtd">
<svg xmlns:xlink="http://www.w3.org/1999/xlink" width="38.01735pt" height="37.86498pt" viewBox="0 0 38.01735 37.86498" xmlns="http://www.w3.org/2000/svg" version="1.1">
 <metadata>
  <rdf:RDF xmlns:dc="http://purl.org/dc/elements/1.1/" xmlns:cc="http://creativecommons.org/ns#" xmlns:rdf="http://www.w3.org/1999/02/22-rdf-syntax-ns#">
   <cc:Work>
    <dc:type rdf:resource="http://purl.org/dc/dcmitype/StillImage"/>
    <dc:date>2021-12-14T09:20:49.161845</dc:date>
    <dc:format>image/svg+xml</dc:format>
    <dc:creator>
     <cc:Agent>
      <dc:title>Matplotlib v3.5.0, https://matplotlib.org/</dc:title>
     </cc:Agent>
    </dc:creator>
   </cc:Work>
  </rdf:RDF>
 </metadata>
 <defs>
  <style type="text/css">*{stroke-linejoin: round; stroke-linecap: butt}</style>
 </defs>
 <g id="figure_1">
  <g id="patch_1">
   <path d="M 0 37.86498 
L 38.01735 37.86498 
L 38.01735 0 
L 0 0 
L 0 37.86498 
z
" style="fill: none"/>
  </g>
  <g id="axes_1">
   <g id="patch_2">
    <path d="M 19.095127 8.26659 
C 16.634568 8.26659 14.248689 9.120661 12.347104 10.682175 
C 10.445518 12.243689 9.143656 14.417858 8.665025 16.831416 
C 8.186393 19.244974 8.560045 21.751415 9.721832 23.920424 
C 10.883619 26.089434 12.763018 27.789351 15.037369 28.728329 
L 19.095127 18.899805 
L 19.095127 8.26659 
z
" style="fill: #0000ff"/>
   </g>
   <g id="patch_3">
    <path d="M 15.037369 28.728329 
C 16.490117 29.328103 18.057935 29.59839 19.627652 29.519678 
C 21.197369 29.440966 22.730285 29.015195 24.115746 28.2731 
C 25.501207 27.531006 26.705056 26.490883 27.640395 25.227812 
C 28.575734 23.964741 29.219502 22.509862 29.52523 20.968195 
C 29.830957 19.426527 29.791106 17.83608 29.408554 16.311659 
C 29.026001 14.787237 28.310179 13.366425 27.312758 12.151782 
C 26.315336 10.937139 25.060907 9.958611 23.640019 9.286834 
C 22.219131 8.615056 20.666816 8.26659 19.095127 8.26659 
L 19.095127 18.899805 
L 15.037369 28.728329 
z
" style="fill: #ff0000"/>
   </g>
   <g id="matplotlib.axis_1"/>
   <g id="matplotlib.axis_2"/>
  </g>
 </g>
</svg>
