<?xml version="1.0" encoding="utf-8" standalone="no"?>
<!DOCTYPE svg PUBLIC "-//W3C//DTD SVG 1.1//EN"
  "http://www.w3.org/Graphics/SVG/1.1/DTD/svg11.dtd">
<svg xmlns:xlink="http://www.w3.org/1999/xlink" width="46.7919pt" height="46.58292pt" viewBox="0 0 46.7919 46.58292" xmlns="http://www.w3.org/2000/svg" version="1.1">
 <metadata>
  <rdf:RDF xmlns:dc="http://purl.org/dc/elements/1.1/" xmlns:cc="http://creativecommons.org/ns#" xmlns:rdf="http://www.w3.org/1999/02/22-rdf-syntax-ns#">
   <cc:Work>
    <dc:type rdf:resource="http://purl.org/dc/dcmitype/StillImage"/>
    <dc:date>2022-01-14T17:05:46.711989</dc:date>
    <dc:format>image/svg+xml</dc:format>
    <dc:creator>
     <cc:Agent>
      <dc:title>Matplotlib v3.5.1, https://matplotlib.org/</dc:title>
     </cc:Agent>
    </dc:creator>
   </cc:Work>
  </rdf:RDF>
 </metadata>
 <defs>
  <style type="text/css">*{stroke-linejoin: round; stroke-linecap: butt}</style>
 </defs>
 <g id="figure_1">
  <g id="patch_1">
   <path d="M 0 46.58292 
L 46.7919 46.58292 
L 46.7919 -0 
L 0 -0 
L 0 46.58292 
z
" style="fill: none"/>
  </g>
  <g id="axes_1">
   <g id="patch_2">
    <path d="M 23.30502 8.66286 
C 21.251974 8.66286 19.222177 9.101314 17.350488 9.94909 
C 15.478798 10.796867 13.807606 12.034765 12.447945 13.580541 
C 11.088284 15.126317 10.070948 16.944961 9.463527 18.915644 
C 8.856107 20.886326 8.672359 22.964415 8.924492 25.011842 
C 9.176625 27.05927 9.858929 29.029666 10.926071 30.792119 
C 11.993214 32.554571 13.421026 34.069164 15.114645 35.235269 
C 16.808264 36.401374 18.729332 37.19258 20.750216 37.55632 
C 22.771099 37.92006 24.846028 37.848096 26.837145 37.34521 
L 23.30502 23.223643 
L 23.30502 8.66286 
z
" style="fill: #0000ff; stroke: #000000; stroke-linejoin: miter"/>
   </g>
   <g id="patch_3">
    <path d="M 26.837145 37.34521 
C 30.264433 36.479597 33.260957 34.38331 35.258432 31.453905 
C 37.255907 28.5245 38.119541 24.959658 37.685547 21.435443 
C 37.251553 17.911228 35.549218 14.665461 32.901386 12.313694 
C 30.253554 9.961926 26.838905 8.66286 23.30502 8.66286 
L 23.30502 23.223643 
L 26.837145 37.34521 
z
" style="fill: #ff0000; stroke: #000000; stroke-linejoin: miter"/>
   </g>
   <g id="matplotlib.axis_1"/>
   <g id="matplotlib.axis_2"/>
  </g>
 </g>
</svg>
