<?xml version="1.0" encoding="utf-8" standalone="no"?>
<!DOCTYPE svg PUBLIC "-//W3C//DTD SVG 1.1//EN"
  "http://www.w3.org/Graphics/SVG/1.1/DTD/svg11.dtd">
<svg xmlns:xlink="http://www.w3.org/1999/xlink" width="112.0779pt" height="111.44772pt" viewBox="0 0 112.0779 111.44772" xmlns="http://www.w3.org/2000/svg" version="1.1">
 <metadata>
  <rdf:RDF xmlns:dc="http://purl.org/dc/elements/1.1/" xmlns:cc="http://creativecommons.org/ns#" xmlns:rdf="http://www.w3.org/1999/02/22-rdf-syntax-ns#">
   <cc:Work>
    <dc:type rdf:resource="http://purl.org/dc/dcmitype/StillImage"/>
    <dc:date>2022-01-14T17:05:47.666813</dc:date>
    <dc:format>image/svg+xml</dc:format>
    <dc:creator>
     <cc:Agent>
      <dc:title>Matplotlib v3.5.1, https://matplotlib.org/</dc:title>
     </cc:Agent>
    </dc:creator>
   </cc:Work>
  </rdf:RDF>
 </metadata>
 <defs>
  <style type="text/css">*{stroke-linejoin: round; stroke-linecap: butt}</style>
 </defs>
 <g id="figure_1">
  <g id="patch_1">
   <path d="M 0 111.44772 
L 112.0779 111.44772 
L 112.0779 0 
L 0 0 
L 0 111.44772 
z
" style="fill: none"/>
  </g>
  <g id="axes_1">
   <g id="patch_2">
    <path d="M 55.777616 11.611262 
C 49.613669 11.611262 43.518837 12.920965 37.894164 15.454192 
C 32.269492 17.987419 27.241116 21.68736 23.139907 26.310557 
C 19.038699 30.933754 15.956629 36.376529 14.096502 42.280742 
C 12.236375 48.184955 11.639905 54.418202 12.346339 60.570329 
C 13.052773 66.722457 15.046269 72.6555 18.195655 77.97906 
C 21.34504 83.30262 25.579688 87.897313 30.620955 91.460805 
C 35.662221 95.024296 41.397053 97.476673 47.448094 98.656567 
C 53.499135 99.83646 59.730688 99.717411 65.73271 98.307252 
L 55.777616 55.536205 
L 55.777616 11.611262 
z
" style="fill: #0000ff; stroke: #000000; stroke-linejoin: miter"/>
   </g>
   <g id="patch_3">
    <path d="M 65.73271 98.307252 
C 76.175423 95.853764 85.363094 89.62354 91.534071 80.811165 
C 97.705049 71.998791 100.437995 61.205953 99.208894 50.502076 
C 97.979792 39.7982 92.872563 29.914118 84.866468 22.745011 
C 76.860374 15.575904 66.50205 11.61126 55.777608 11.611262 
L 55.777616 55.536205 
L 65.73271 98.307252 
z
" style="fill: #ff0000; stroke: #000000; stroke-linejoin: miter"/>
   </g>
   <g id="matplotlib.axis_1"/>
   <g id="matplotlib.axis_2"/>
  </g>
 </g>
</svg>
