<?xml version="1.0" encoding="utf-8" standalone="no"?>
<!DOCTYPE svg PUBLIC "-//W3C//DTD SVG 1.1//EN"
  "http://www.w3.org/Graphics/SVG/1.1/DTD/svg11.dtd">
<svg xmlns:xlink="http://www.w3.org/1999/xlink" width="25.79715pt" height="25.72362pt" viewBox="0 0 25.79715 25.72362" xmlns="http://www.w3.org/2000/svg" version="1.1">
 <metadata>
  <rdf:RDF xmlns:dc="http://purl.org/dc/elements/1.1/" xmlns:cc="http://creativecommons.org/ns#" xmlns:rdf="http://www.w3.org/1999/02/22-rdf-syntax-ns#">
   <cc:Work>
    <dc:type rdf:resource="http://purl.org/dc/dcmitype/StillImage"/>
    <dc:date>2022-01-14T17:05:48.624336</dc:date>
    <dc:format>image/svg+xml</dc:format>
    <dc:creator>
     <cc:Agent>
      <dc:title>Matplotlib v3.5.1, https://matplotlib.org/</dc:title>
     </cc:Agent>
    </dc:creator>
   </cc:Work>
  </rdf:RDF>
 </metadata>
 <defs>
  <style type="text/css">*{stroke-linejoin: round; stroke-linecap: butt}</style>
 </defs>
 <g id="figure_1">
  <g id="patch_1">
   <path d="M 0 25.72362 
L 25.79715 25.72362 
L 25.79715 0 
L 0 0 
L 0 25.72362 
z
" style="fill: none"/>
  </g>
  <g id="axes_1">
   <g id="patch_2">
    <path d="M 12.92653 7.71471 
C 11.662533 7.71471 10.442482 8.185977 9.504343 9.036593 
C 8.566203 9.88721 7.975209 11.058027 7.846631 12.320683 
C 7.718052 13.583338 8.06083 14.850033 8.808108 15.873705 
C 9.555386 16.897377 10.6552 17.606844 11.893038 17.863728 
L 12.92653 12.842277 
L 12.92653 7.71471 
z
" style="fill: #0000ff; stroke: #000000; stroke-linejoin: miter"/>
   </g>
   <g id="patch_3">
    <path d="M 11.893038 17.863728 
C 12.592623 18.00891 13.314826 18.005076 14.012843 17.852473 
C 14.71086 17.699871 15.369281 17.40187 15.945436 16.977781 
C 16.521592 16.553693 17.002762 16.012881 17.357763 15.390393 
C 17.712765 14.767905 17.933761 14.077484 18.006429 13.363873 
C 18.079098 12.650262 18.001834 11.929216 17.779646 11.247463 
C 17.557457 10.565709 17.195249 9.938301 16.716495 9.405896 
C 16.237741 8.873492 15.65301 8.447846 15.000197 8.156543 
C 14.347383 7.865239 13.6409 7.71471 12.926531 7.71471 
L 12.92653 12.842277 
L 11.893038 17.863728 
z
" style="fill: #ff0000; stroke: #000000; stroke-linejoin: miter"/>
   </g>
   <g id="matplotlib.axis_1"/>
   <g id="matplotlib.axis_2"/>
  </g>
 </g>
</svg>
