<?xml version="1.0" encoding="utf-8" standalone="no"?>
<!DOCTYPE svg PUBLIC "-//W3C//DTD SVG 1.1//EN"
  "http://www.w3.org/Graphics/SVG/1.1/DTD/svg11.dtd">
<svg xmlns:xlink="http://www.w3.org/1999/xlink" width="371.52pt" height="280.512pt" viewBox="0 0 371.52 280.512" xmlns="http://www.w3.org/2000/svg" version="1.1">
 <metadata>
  <rdf:RDF xmlns:dc="http://purl.org/dc/elements/1.1/" xmlns:cc="http://creativecommons.org/ns#" xmlns:rdf="http://www.w3.org/1999/02/22-rdf-syntax-ns#">
   <cc:Work>
    <dc:type rdf:resource="http://purl.org/dc/dcmitype/StillImage"/>
    <dc:date>2021-12-03T16:10:01.842455</dc:date>
    <dc:format>image/svg+xml</dc:format>
    <dc:creator>
     <cc:Agent>
      <dc:title>Matplotlib v3.5.0, https://matplotlib.org/</dc:title>
     </cc:Agent>
    </dc:creator>
   </cc:Work>
  </rdf:RDF>
 </metadata>
 <defs>
  <style type="text/css">*{stroke-linejoin: round; stroke-linecap: butt}</style>
 </defs>
 <g id="figure_1">
  <g id="patch_1">
   <path d="M 0 280.512 
L 371.52 280.512 
L 371.52 0 
L 0 0 
L 0 280.512 
z
" style="fill: none"/>
  </g>
  <g id="axes_1">
   <g id="patch_2">
    <path d="M 186.419686 19.296 
C 156.591774 19.296 127.800915 30.371069 105.662619 50.361071 
C 83.524323 70.351073 69.577993 97.865988 66.543789 127.539174 
C 63.509585 157.21236 71.598493 186.980468 89.232813 211.037382 
C 106.867133 235.094296 132.820649 251.767199 162.03126 257.804128 
L 186.419686 139.796972 
L 186.419686 19.296 
z
" style="fill: #0000ff"/>
   </g>
   <g id="patch_3">
    <path d="M 162.03126 257.804128 
C 178.540129 261.216 195.582717 261.125891 212.054584 257.539641 
C 228.526452 253.953391 244.063922 246.95018 257.660091 236.983848 
C 271.256261 227.017516 282.610946 214.308107 290.988308 199.679252 
C 299.36567 185.050397 304.580749 168.82508 306.295582 152.054781 
C 308.010415 135.284481 306.187141 118.339464 300.943917 102.317847 
C 295.700693 86.29623 287.153282 71.551749 275.855598 59.039918 
C 264.557914 46.528086 250.759394 36.525147 235.354248 29.67934 
C 219.949102 22.833533 203.277454 19.296003 186.419709 19.296 
L 186.419686 139.796972 
L 162.03126 257.804128 
z
" style="fill: #bf00bf"/>
   </g>
   <g id="matplotlib.axis_1"/>
   <g id="matplotlib.axis_2"/>
  </g>
 </g>
</svg>
