<?xml version="1.0" encoding="utf-8" standalone="no"?>
<!DOCTYPE svg PUBLIC "-//W3C//DTD SVG 1.1//EN"
  "http://www.w3.org/Graphics/SVG/1.1/DTD/svg11.dtd">
<svg xmlns:xlink="http://www.w3.org/1999/xlink" width="371.52pt" height="280.512pt" viewBox="0 0 371.52 280.512" xmlns="http://www.w3.org/2000/svg" version="1.1">
 <metadata>
  <rdf:RDF xmlns:dc="http://purl.org/dc/elements/1.1/" xmlns:cc="http://creativecommons.org/ns#" xmlns:rdf="http://www.w3.org/1999/02/22-rdf-syntax-ns#">
   <cc:Work>
    <dc:type rdf:resource="http://purl.org/dc/dcmitype/StillImage"/>
    <dc:date>2021-12-10T18:14:49.650704</dc:date>
    <dc:format>image/svg+xml</dc:format>
    <dc:creator>
     <cc:Agent>
      <dc:title>Matplotlib v3.5.0, https://matplotlib.org/</dc:title>
     </cc:Agent>
    </dc:creator>
   </cc:Work>
  </rdf:RDF>
 </metadata>
 <defs>
  <style type="text/css">*{stroke-linejoin: round; stroke-linecap: butt}</style>
 </defs>
 <g id="figure_1">
  <g id="patch_1">
   <path d="M 0 280.512 
L 371.52 280.512 
L 371.52 0 
L 0 0 
L 0 280.512 
z
" style="fill: none"/>
  </g>
  <g id="axes_1">
   <g id="patch_2">
    <path d="M 185.937212 19.296004 
C 164.259902 19.296004 142.978265 25.139977 124.340925 36.210447 
C 105.703584 47.280918 90.39091 63.173749 80.020844 82.209702 
C 69.650777 101.245655 64.601886 122.729806 65.407636 144.392136 
C 66.213386 166.054466 72.844363 187.104174 84.599936 205.317144 
L 185.937212 139.90893 
L 185.937212 19.296004 
z
" style="fill: #0000ff"/>
   </g>
   <g id="patch_3">
    <path d="M 84.599936 205.317144 
C 95.943258 222.891409 111.665546 237.216294 130.216762 246.87953 
C 148.767978 256.542766 169.517762 261.216 190.420424 260.438506 
C 211.323085 259.661011 231.668362 253.459207 249.450443 242.44452 
C 267.232525 231.429833 281.847184 215.976536 291.853585 197.608148 
C 301.859986 179.239759 306.918114 158.580427 306.529298 137.666925 
C 306.140482 116.753423 300.317932 96.296381 289.635686 78.312628 
C 278.953439 60.328875 263.774473 45.429491 245.59526 35.083383 
C 227.416046 24.737276 206.854305 19.296 185.937189 19.296004 
L 185.937212 139.90893 
L 84.599936 205.317144 
z
" style="fill: #ff0000"/>
   </g>
   <g id="matplotlib.axis_1"/>
   <g id="matplotlib.axis_2"/>
  </g>
 </g>
</svg>
