<?xml version="1.0" encoding="utf-8" standalone="no"?>
<!DOCTYPE svg PUBLIC "-//W3C//DTD SVG 1.1//EN"
  "http://www.w3.org/Graphics/SVG/1.1/DTD/svg11.dtd">
<svg xmlns:xlink="http://www.w3.org/1999/xlink" width="77.9004pt" height="77.49072pt" viewBox="0 0 77.9004 77.49072" xmlns="http://www.w3.org/2000/svg" version="1.1">
 <metadata>
  <rdf:RDF xmlns:dc="http://purl.org/dc/elements/1.1/" xmlns:cc="http://creativecommons.org/ns#" xmlns:rdf="http://www.w3.org/1999/02/22-rdf-syntax-ns#">
   <cc:Work>
    <dc:type rdf:resource="http://purl.org/dc/dcmitype/StillImage"/>
    <dc:date>2021-12-14T09:20:53.661616</dc:date>
    <dc:format>image/svg+xml</dc:format>
    <dc:creator>
     <cc:Agent>
      <dc:title>Matplotlib v3.5.0, https://matplotlib.org/</dc:title>
     </cc:Agent>
    </dc:creator>
   </cc:Work>
  </rdf:RDF>
 </metadata>
 <defs>
  <style type="text/css">*{stroke-linejoin: round; stroke-linecap: butt}</style>
 </defs>
 <g id="figure_1">
  <g id="patch_1">
   <path d="M 0 77.49072 
L 77.9004 77.49072 
L 77.9004 0 
L 0 0 
L 0 77.49072 
z
" style="fill: none"/>
  </g>
  <g id="axes_1">
   <g id="patch_2">
    <path d="M 39.058646 10.06776 
C 31.806363 10.06776 24.819514 12.828259 19.52776 17.784398 
C 14.236005 22.740538 11.026702 29.529529 10.556542 36.762196 
C 10.086382 43.994864 12.389782 51.141777 16.995415 56.740522 
C 21.601049 62.339267 28.171784 65.980016 35.363107 66.917792 
L 39.058646 38.612746 
L 39.058646 10.06776 
z
" style="fill: #0000ff"/>
   </g>
   <g id="patch_3">
    <path d="M 35.363107 66.917792 
C 39.236975 67.42296 43.173676 67.12848 46.929135 66.052611 
C 50.684594 64.976742 54.17956 63.142187 57.197346 60.662688 
C 60.215132 58.183189 62.692055 55.111071 64.474546 51.636804 
C 66.257037 48.162536 67.307481 44.359436 67.560749 40.463295 
C 67.814018 36.567154 67.264768 32.660192 65.947051 28.984638 
C 64.629335 25.309084 62.57096 21.942503 59.899545 19.093623 
C 57.22813 16.244743 54.00005 13.973682 50.415444 12.421246 
C 46.830839 10.86881 42.965353 10.06776 39.058646 10.06776 
L 39.058646 38.612746 
L 35.363107 66.917792 
z
" style="fill: #ff0000"/>
   </g>
   <g id="matplotlib.axis_1"/>
   <g id="matplotlib.axis_2"/>
  </g>
 </g>
</svg>
