<?xml version="1.0" encoding="utf-8" standalone="no"?>
<!DOCTYPE svg PUBLIC "-//W3C//DTD SVG 1.1//EN"
  "http://www.w3.org/Graphics/SVG/1.1/DTD/svg11.dtd">
<svg xmlns:xlink="http://www.w3.org/1999/xlink" width="371.52pt" height="280.512pt" viewBox="0 0 371.52 280.512" xmlns="http://www.w3.org/2000/svg" version="1.1">
 <metadata>
  <rdf:RDF xmlns:dc="http://purl.org/dc/elements/1.1/" xmlns:cc="http://creativecommons.org/ns#" xmlns:rdf="http://www.w3.org/1999/02/22-rdf-syntax-ns#">
   <cc:Work>
    <dc:type rdf:resource="http://purl.org/dc/dcmitype/StillImage"/>
    <dc:date>2021-12-03T16:10:02.793966</dc:date>
    <dc:format>image/svg+xml</dc:format>
    <dc:creator>
     <cc:Agent>
      <dc:title>Matplotlib v3.5.0, https://matplotlib.org/</dc:title>
     </cc:Agent>
    </dc:creator>
   </cc:Work>
  </rdf:RDF>
 </metadata>
 <defs>
  <style type="text/css">*{stroke-linejoin: round; stroke-linecap: butt}</style>
 </defs>
 <g id="figure_1">
  <g id="patch_1">
   <path d="M 0 280.512 
L 371.52 280.512 
L 371.52 0 
L 0 0 
L 0 280.512 
z
" style="fill: none"/>
  </g>
  <g id="axes_1">
   <g id="patch_2">
    <path d="M 186.522405 19.296 
C 159.927598 19.296 134.066317 28.099062 112.994586 44.324533 
C 91.922856 60.550005 76.803058 83.302839 70.006547 109.014533 
C 63.210036 134.726226 65.111729 161.978443 75.413368 186.497007 
C 85.715007 211.015571 103.848323 231.447962 126.969327 244.589611 
L 186.522405 139.813799 
L 186.522405 19.296 
z
" style="fill: #0000ff"/>
   </g>
   <g id="patch_3">
    <path d="M 126.969327 244.589611 
C 143.010094 253.706955 160.932422 259.020027 179.350527 260.118014 
C 197.768633 261.216 216.195253 258.069852 233.205612 250.922835 
C 250.215972 243.775819 265.360051 232.817012 277.466885 218.893767 
C 289.573719 204.970522 298.323015 188.451188 303.038262 170.613065 
C 307.75351 152.774943 308.309964 134.089951 304.664599 116.002842 
C 301.019235 97.915733 293.268492 80.905015 282.01167 66.285981 
C 270.754848 51.666947 256.289754 39.826355 239.734852 31.679737 
C 223.179949 23.533119 204.973209 19.296 186.522405 19.296 
L 186.522405 139.813799 
L 126.969327 244.589611 
z
" style="fill: #bf00bf"/>
   </g>
   <g id="matplotlib.axis_1"/>
   <g id="matplotlib.axis_2"/>
  </g>
 </g>
</svg>
