<?xml version="1.0" encoding="utf-8" standalone="no"?>
<!DOCTYPE svg PUBLIC "-//W3C//DTD SVG 1.1//EN"
  "http://www.w3.org/Graphics/SVG/1.1/DTD/svg11.dtd">
<svg xmlns:xlink="http://www.w3.org/1999/xlink" width="78.24915pt" height="77.83722pt" viewBox="0 0 78.24915 77.83722" xmlns="http://www.w3.org/2000/svg" version="1.1">
 <metadata>
  <rdf:RDF xmlns:dc="http://purl.org/dc/elements/1.1/" xmlns:cc="http://creativecommons.org/ns#" xmlns:rdf="http://www.w3.org/1999/02/22-rdf-syntax-ns#">
   <cc:Work>
    <dc:type rdf:resource="http://purl.org/dc/dcmitype/StillImage"/>
    <dc:date>2021-12-14T09:20:52.771713</dc:date>
    <dc:format>image/svg+xml</dc:format>
    <dc:creator>
     <cc:Agent>
      <dc:title>Matplotlib v3.5.0, https://matplotlib.org/</dc:title>
     </cc:Agent>
    </dc:creator>
   </cc:Work>
  </rdf:RDF>
 </metadata>
 <defs>
  <style type="text/css">*{stroke-linejoin: round; stroke-linecap: butt}</style>
 </defs>
 <g id="figure_1">
  <g id="patch_1">
   <path d="M 0 77.83722 
L 78.24915 77.83722 
L 78.24915 0 
L 0 0 
L 0 77.83722 
z
" style="fill: none"/>
  </g>
  <g id="axes_1">
   <g id="patch_2">
    <path d="M 39.306321 10.08351 
C 32.966507 10.08351 26.801555 12.182032 21.778362 16.049947 
C 16.755168 19.917863 13.150829 25.341807 11.53064 31.4711 
C 9.910451 37.600393 10.363787 44.096924 12.819547 49.941792 
C 15.275308 55.78666 19.598026 60.657444 25.109736 63.790221 
L 39.306321 38.813196 
L 39.306321 10.08351 
z
" style="fill: #0000ff"/>
   </g>
   <g id="patch_3">
    <path d="M 25.109736 63.790221 
C 28.933621 65.963663 33.206042 67.230222 37.59665 67.491966 
C 41.987258 67.75371 46.379895 67.003714 50.434917 65.29997 
C 54.489939 63.596225 58.100066 60.983805 60.986159 57.664707 
C 63.872252 54.345608 65.957956 50.40764 67.082002 46.155292 
C 68.206049 41.902943 68.338699 37.448714 67.469697 33.137011 
C 66.600696 28.825308 64.753032 24.770201 62.069569 21.285236 
C 59.386107 17.800272 55.93784 14.977647 51.991393 13.035612 
C 48.044945 11.093577 43.704724 10.08351 39.306321 10.08351 
L 39.306321 38.813196 
L 25.109736 63.790221 
z
" style="fill: #ff0000"/>
   </g>
   <g id="matplotlib.axis_1"/>
   <g id="matplotlib.axis_2"/>
  </g>
 </g>
</svg>
