<?xml version="1.0" encoding="utf-8" standalone="no"?>
<!DOCTYPE svg PUBLIC "-//W3C//DTD SVG 1.1//EN"
  "http://www.w3.org/Graphics/SVG/1.1/DTD/svg11.dtd">
<svg xmlns:xlink="http://www.w3.org/1999/xlink" width="209.46285pt" height="208.20438pt" viewBox="0 0 209.46285 208.20438" xmlns="http://www.w3.org/2000/svg" version="1.1">
 <metadata>
  <rdf:RDF xmlns:dc="http://purl.org/dc/elements/1.1/" xmlns:cc="http://creativecommons.org/ns#" xmlns:rdf="http://www.w3.org/1999/02/22-rdf-syntax-ns#">
   <cc:Work>
    <dc:type rdf:resource="http://purl.org/dc/dcmitype/StillImage"/>
    <dc:date>2021-12-14T09:20:54.625018</dc:date>
    <dc:format>image/svg+xml</dc:format>
    <dc:creator>
     <cc:Agent>
      <dc:title>Matplotlib v3.5.0, https://matplotlib.org/</dc:title>
     </cc:Agent>
    </dc:creator>
   </cc:Work>
  </rdf:RDF>
 </metadata>
 <defs>
  <style type="text/css">*{stroke-linejoin: round; stroke-linecap: butt}</style>
 </defs>
 <g id="figure_1">
  <g id="patch_1">
   <path d="M 0 208.20438 
L 209.46285 208.20438 
L 209.46285 0 
L 0 0 
L 0 208.20438 
z
" style="fill: none"/>
  </g>
  <g id="axes_1">
   <g id="patch_2">
    <path d="M 104.001181 16.00929 
C 90.748549 16.00929 77.665315 19.001141 65.729863 24.761109 
C 53.794411 30.521077 43.311863 38.90191 35.06612 49.276879 
C 26.820377 59.651848 21.022236 71.755721 18.105292 84.683354 
C 15.188347 97.610986 15.227169 111.031891 18.218854 123.942432 
C 21.210538 136.852973 27.078605 148.923101 35.384232 159.250192 
C 43.689858 169.577284 54.220716 177.897334 66.189291 183.588156 
C 78.157866 189.278978 91.25819 192.19509 104.5106 192.118421 
C 117.76301 192.041751 130.828716 188.974261 142.730647 183.14534 
L 104.001181 104.064592 
L 104.001181 16.00929 
z
" style="fill: #0000ff"/>
   </g>
   <g id="patch_3">
    <path d="M 142.730647 183.14534 
C 160.597334 174.395205 174.981917 159.843215 183.524745 141.876482 
C 192.067573 123.90975 194.274503 103.567525 189.783509 84.186752 
C 185.292515 64.805979 174.36337 47.5077 158.788894 35.129531 
C 143.214419 22.751361 123.895486 16.00929 104.001181 16.00929 
L 104.001181 104.064592 
L 142.730647 183.14534 
z
" style="fill: #ff0000"/>
   </g>
   <g id="matplotlib.axis_1"/>
   <g id="matplotlib.axis_2"/>
  </g>
 </g>
</svg>
