<?xml version="1.0" encoding="utf-8" standalone="no"?>
<!DOCTYPE svg PUBLIC "-//W3C//DTD SVG 1.1//EN"
  "http://www.w3.org/Graphics/SVG/1.1/DTD/svg11.dtd">
<svg xmlns:xlink="http://www.w3.org/1999/xlink" width="371.52pt" height="280.512pt" viewBox="0 0 371.52 280.512" xmlns="http://www.w3.org/2000/svg" version="1.1">
 <metadata>
  <rdf:RDF xmlns:dc="http://purl.org/dc/elements/1.1/" xmlns:cc="http://creativecommons.org/ns#" xmlns:rdf="http://www.w3.org/1999/02/22-rdf-syntax-ns#">
   <cc:Work>
    <dc:type rdf:resource="http://purl.org/dc/dcmitype/StillImage"/>
    <dc:date>2021-12-03T16:10:04.670652</dc:date>
    <dc:format>image/svg+xml</dc:format>
    <dc:creator>
     <cc:Agent>
      <dc:title>Matplotlib v3.5.0, https://matplotlib.org/</dc:title>
     </cc:Agent>
    </dc:creator>
   </cc:Work>
  </rdf:RDF>
 </metadata>
 <defs>
  <style type="text/css">*{stroke-linejoin: round; stroke-linecap: butt}</style>
 </defs>
 <g id="figure_1">
  <g id="patch_1">
   <path d="M 0 280.512 
L 371.52 280.512 
L 371.52 0 
L 0 0 
L 0 280.512 
z
" style="fill: none"/>
  </g>
  <g id="axes_1">
   <g id="patch_2">
    <path d="M 184.757305 19.296 
C 166.560171 19.296 148.595636 23.404099 132.207115 31.313087 
C 115.818594 39.222075 101.425051 50.729763 90.102855 64.97559 
C 78.780659 79.221417 70.819256 95.841196 66.814011 113.592075 
C 62.808767 131.342955 62.862073 149.771144 66.969943 167.498555 
C 71.077813 185.225966 79.135232 201.799409 90.539653 215.979496 
C 101.944075 230.159583 116.403952 241.583809 132.837954 249.397854 
C 149.271955 257.211899 167.259956 261.216 185.456786 261.110726 
C 203.653616 261.005451 221.594084 256.793493 237.936575 248.789826 
L 184.757305 140.204375 
L 184.757305 19.296 
z
" style="fill: #0000ff"/>
   </g>
   <g id="patch_3">
    <path d="M 237.936575 248.789826 
C 262.46925 236.775051 282.220663 216.793773 293.950785 192.123726 
C 305.680907 167.45368 308.711233 139.521854 302.544668 112.910194 
C 296.378103 86.298534 281.371338 62.546338 259.98609 45.549924 
C 238.600841 28.55351 212.074094 19.296 184.757305 19.296 
L 184.757305 140.204375 
L 237.936575 248.789826 
z
" style="fill: #bf00bf"/>
   </g>
   <g id="matplotlib.axis_1"/>
   <g id="matplotlib.axis_2"/>
  </g>
 </g>
</svg>
