<?xml version="1.0" encoding="utf-8" standalone="no"?>
<!DOCTYPE svg PUBLIC "-//W3C//DTD SVG 1.1//EN"
  "http://www.w3.org/Graphics/SVG/1.1/DTD/svg11.dtd">
<svg xmlns:xlink="http://www.w3.org/1999/xlink" width="17.6364pt" height="17.61552pt" viewBox="0 0 17.6364 17.61552" xmlns="http://www.w3.org/2000/svg" version="1.1">
 <metadata>
  <rdf:RDF xmlns:dc="http://purl.org/dc/elements/1.1/" xmlns:cc="http://creativecommons.org/ns#" xmlns:rdf="http://www.w3.org/1999/02/22-rdf-syntax-ns#">
   <cc:Work>
    <dc:type rdf:resource="http://purl.org/dc/dcmitype/StillImage"/>
    <dc:date>2021-12-14T09:21:02.817015</dc:date>
    <dc:format>image/svg+xml</dc:format>
    <dc:creator>
     <cc:Agent>
      <dc:title>Matplotlib v3.5.0, https://matplotlib.org/</dc:title>
     </cc:Agent>
    </dc:creator>
   </cc:Work>
  </rdf:RDF>
 </metadata>
 <defs>
  <style type="text/css">*{stroke-linejoin: round; stroke-linecap: butt}</style>
 </defs>
 <g id="figure_1">
  <g id="patch_1">
   <path d="M 0 17.61552 
L 17.6364 17.61552 
L 17.6364 0 
L 0 0 
L 0 17.61552 
z
" style="fill: none"/>
  </g>
  <g id="axes_1">
   <g id="patch_2">
    <path d="M 8.827923 7.34616 
C 8.476321 7.34616 8.136375 7.473669 7.871504 7.704899 
C 7.606633 7.936129 7.434399 8.255749 7.386933 8.604132 
C 7.339467 8.952516 7.419915 9.306563 7.613271 9.600225 
C 7.806627 9.893887 8.100069 10.107693 8.438856 10.201757 
L 8.827923 8.800463 
L 8.827923 7.34616 
z
" style="fill: #0000ff"/>
   </g>
   <g id="patch_3">
    <path d="M 8.438856 10.201757 
C 8.638849 10.257285 8.848433 10.26936 9.053481 10.237168 
C 9.258529 10.204976 9.454329 10.129258 9.627685 10.015115 
C 9.801041 9.900972 9.947969 9.751029 10.058568 9.57539 
C 10.169166 9.399751 10.240892 9.202454 10.268913 8.996794 
C 10.296933 8.791135 10.280604 8.58184 10.221025 8.383015 
C 10.161447 8.18419 10.059988 8.000405 9.923487 7.844045 
C 9.786986 7.687685 9.61858 7.562344 9.429618 7.476469 
C 9.240657 7.390595 9.035482 7.34616 8.827923 7.34616 
L 8.827923 8.800463 
L 8.438856 10.201757 
z
" style="fill: #ff0000"/>
   </g>
   <g id="matplotlib.axis_1"/>
   <g id="matplotlib.axis_2"/>
  </g>
 </g>
</svg>
