<?xml version="1.0" encoding="utf-8" standalone="no"?>
<!DOCTYPE svg PUBLIC "-//W3C//DTD SVG 1.1//EN"
  "http://www.w3.org/Graphics/SVG/1.1/DTD/svg11.dtd">
<svg xmlns:xlink="http://www.w3.org/1999/xlink" width="182.916pt" height="181.8288pt" viewBox="0 0 182.916 181.8288" xmlns="http://www.w3.org/2000/svg" version="1.1">
 <metadata>
  <rdf:RDF xmlns:dc="http://purl.org/dc/elements/1.1/" xmlns:cc="http://creativecommons.org/ns#" xmlns:rdf="http://www.w3.org/1999/02/22-rdf-syntax-ns#">
   <cc:Work>
    <dc:type rdf:resource="http://purl.org/dc/dcmitype/StillImage"/>
    <dc:date>2022-01-14T17:05:52.486765</dc:date>
    <dc:format>image/svg+xml</dc:format>
    <dc:creator>
     <cc:Agent>
      <dc:title>Matplotlib v3.5.1, https://matplotlib.org/</dc:title>
     </cc:Agent>
    </dc:creator>
   </cc:Work>
  </rdf:RDF>
 </metadata>
 <defs>
  <style type="text/css">*{stroke-linejoin: round; stroke-linecap: butt}</style>
 </defs>
 <g id="figure_1">
  <g id="patch_1">
   <path d="M 0 181.8288 
L 182.916 181.8288 
L 182.916 -0 
L 0 -0 
L 0 181.8288 
z
" style="fill: none"/>
  </g>
  <g id="axes_1">
   <g id="patch_2">
    <path d="M 91.156121 14.8104 
C 80.769311 14.8104 70.492608 16.946056 60.966083 21.084352 
C 51.439557 25.222647 42.865185 31.275845 35.777008 38.86693 
C 28.688831 46.458015 23.237129 55.426045 19.761453 65.21246 
C 16.285778 74.998875 14.859818 85.396189 15.572388 95.75682 
C 16.284958 106.11745 19.120949 116.221738 23.903727 125.440351 
C 28.686506 134.658964 35.314668 142.796456 43.37539 149.345994 
C 51.436112 155.895531 60.758494 160.718256 70.761906 163.51379 
C 80.765317 166.309325 91.237671 167.0184 101.526712 165.596853 
L 91.156121 90.560136 
L 91.156121 14.8104 
z
" style="fill: #0000ff; stroke: #000000; stroke-linejoin: miter"/>
   </g>
   <g id="patch_3">
    <path d="M 101.526712 165.596853 
C 120.533629 162.970832 137.850733 153.221085 149.951671 138.332992 
C 162.05261 123.444898 168.056182 104.502624 166.739856 85.36346 
C 165.423529 66.224295 156.883161 48.281973 142.85786 35.190161 
C 128.832559 22.098348 110.343662 14.810404 91.156136 14.8104 
L 91.156121 90.560136 
L 101.526712 165.596853 
z
" style="fill: #ff0000; stroke: #000000; stroke-linejoin: miter"/>
   </g>
   <g id="matplotlib.axis_1"/>
   <g id="matplotlib.axis_2"/>
  </g>
 </g>
</svg>
