<?xml version="1.0" encoding="utf-8" standalone="no"?>
<!DOCTYPE svg PUBLIC "-//W3C//DTD SVG 1.1//EN"
  "http://www.w3.org/Graphics/SVG/1.1/DTD/svg11.dtd">
<svg xmlns:xlink="http://www.w3.org/1999/xlink" width="371.52pt" height="280.512pt" viewBox="0 0 371.52 280.512" xmlns="http://www.w3.org/2000/svg" version="1.1">
 <metadata>
  <rdf:RDF xmlns:dc="http://purl.org/dc/elements/1.1/" xmlns:cc="http://creativecommons.org/ns#" xmlns:rdf="http://www.w3.org/1999/02/22-rdf-syntax-ns#">
   <cc:Work>
    <dc:type rdf:resource="http://purl.org/dc/dcmitype/StillImage"/>
    <dc:date>2021-12-10T18:14:52.508603</dc:date>
    <dc:format>image/svg+xml</dc:format>
    <dc:creator>
     <cc:Agent>
      <dc:title>Matplotlib v3.5.0, https://matplotlib.org/</dc:title>
     </cc:Agent>
    </dc:creator>
   </cc:Work>
  </rdf:RDF>
 </metadata>
 <defs>
  <style type="text/css">*{stroke-linejoin: round; stroke-linecap: butt}</style>
 </defs>
 <g id="figure_1">
  <g id="patch_1">
   <path d="M 0 280.512 
L 371.52 280.512 
L 371.52 0 
L 0 0 
L 0 280.512 
z
" style="fill: none"/>
  </g>
  <g id="axes_1">
   <g id="patch_2">
    <path d="M 186.657252 19.296 
C 158.118761 19.296 130.489882 29.445301 108.737694 47.919277 
C 86.985506 66.393252 72.49663 92.014255 67.875856 120.176178 
C 63.255082 148.338101 68.796967 177.245727 83.505199 201.702083 
C 98.213431 226.15844 121.150414 244.604526 148.192572 253.72413 
L 186.657252 139.665684 
L 186.657252 19.296 
z
" style="fill: #0000ff"/>
   </g>
   <g id="patch_3">
    <path d="M 148.192572 253.72413 
C 164.732752 259.302084 182.290026 261.216 199.643546 259.332793 
C 216.997066 257.449586 233.735061 251.813942 248.693651 242.817737 
C 263.652241 233.821532 276.476483 221.67823 286.274641 207.232219 
C 296.072799 192.786208 302.612378 176.380268 305.438648 159.15519 
C 308.264918 141.930112 307.310815 124.294618 302.642684 107.474996 
C 297.974553 90.655374 289.70316 75.050727 278.403659 61.746126 
C 267.104158 48.441525 253.044668 37.752667 237.202817 30.422804 
C 221.360966 23.092942 204.112656 19.296 186.657252 19.296 
L 186.657252 139.665684 
L 148.192572 253.72413 
z
" style="fill: #ff0000"/>
   </g>
   <g id="matplotlib.axis_1"/>
   <g id="matplotlib.axis_2"/>
  </g>
 </g>
</svg>
