<?xml version="1.0" encoding="utf-8" standalone="no"?>
<!DOCTYPE svg PUBLIC "-//W3C//DTD SVG 1.1//EN"
  "http://www.w3.org/Graphics/SVG/1.1/DTD/svg11.dtd">
<svg xmlns:xlink="http://www.w3.org/1999/xlink" width="371.52pt" height="280.512pt" viewBox="0 0 371.52 280.512" xmlns="http://www.w3.org/2000/svg" version="1.1">
 <metadata>
  <rdf:RDF xmlns:dc="http://purl.org/dc/elements/1.1/" xmlns:cc="http://creativecommons.org/ns#" xmlns:rdf="http://www.w3.org/1999/02/22-rdf-syntax-ns#">
   <cc:Work>
    <dc:type rdf:resource="http://purl.org/dc/dcmitype/StillImage"/>
    <dc:date>2021-12-10T18:14:53.410818</dc:date>
    <dc:format>image/svg+xml</dc:format>
    <dc:creator>
     <cc:Agent>
      <dc:title>Matplotlib v3.5.0, https://matplotlib.org/</dc:title>
     </cc:Agent>
    </dc:creator>
   </cc:Work>
  </rdf:RDF>
 </metadata>
 <defs>
  <style type="text/css">*{stroke-linejoin: round; stroke-linecap: butt}</style>
 </defs>
 <g id="figure_1">
  <g id="patch_1">
   <path d="M 0 280.512 
L 371.52 280.512 
L 371.52 0 
L 0 0 
L 0 280.512 
z
" style="fill: none"/>
  </g>
  <g id="axes_1">
   <g id="patch_2">
    <path d="M 185.876594 19.296004 
C 164.365276 19.296004 143.239834 25.045251 124.695239 35.946388 
C 106.150644 46.847524 90.852212 62.509456 80.389476 81.30488 
C 69.926741 100.100304 64.67507 121.354906 65.18012 142.860293 
C 65.68517 164.365681 71.928823 185.350317 83.262352 203.63386 
L 185.876594 140.025757 
L 185.876594 19.296004 
z
" style="fill: #0000ff"/>
   </g>
   <g id="patch_3">
    <path d="M 83.262352 203.63386 
C 94.342703 221.508971 109.903803 236.182412 128.398183 246.194989 
C 146.892563 256.207565 167.686151 261.216 188.711136 260.722231 
C 209.73612 260.228462 230.271668 254.249417 248.27563 243.379682 
C 266.279591 232.509946 281.134707 217.122184 291.363717 198.746625 
C 301.592726 180.371066 306.84493 159.63771 306.598027 138.608377 
C 306.351123 117.579045 300.613577 96.974719 289.955955 78.844388 
C 279.298333 60.714057 264.086029 45.679314 245.831824 35.235282 
C 227.57762 24.79125 206.907353 19.296 185.876571 19.296004 
L 185.876594 140.025757 
L 83.262352 203.63386 
z
" style="fill: #ff0000"/>
   </g>
   <g id="matplotlib.axis_1"/>
   <g id="matplotlib.axis_2"/>
  </g>
 </g>
</svg>
