<?xml version="1.0" encoding="utf-8" standalone="no"?>
<!DOCTYPE svg PUBLIC "-//W3C//DTD SVG 1.1//EN"
  "http://www.w3.org/Graphics/SVG/1.1/DTD/svg11.dtd">
<svg xmlns:xlink="http://www.w3.org/1999/xlink" width="55.9431pt" height="55.67508pt" viewBox="0 0 55.9431 55.67508" xmlns="http://www.w3.org/2000/svg" version="1.1">
 <metadata>
  <rdf:RDF xmlns:dc="http://purl.org/dc/elements/1.1/" xmlns:cc="http://creativecommons.org/ns#" xmlns:rdf="http://www.w3.org/1999/02/22-rdf-syntax-ns#">
   <cc:Work>
    <dc:type rdf:resource="http://purl.org/dc/dcmitype/StillImage"/>
    <dc:date>2021-12-14T09:20:56.459275</dc:date>
    <dc:format>image/svg+xml</dc:format>
    <dc:creator>
     <cc:Agent>
      <dc:title>Matplotlib v3.5.0, https://matplotlib.org/</dc:title>
     </cc:Agent>
    </dc:creator>
   </cc:Work>
  </rdf:RDF>
 </metadata>
 <defs>
  <style type="text/css">*{stroke-linejoin: round; stroke-linecap: butt}</style>
 </defs>
 <g id="figure_1">
  <g id="patch_1">
   <path d="M 0 55.67508 
L 55.9431 55.67508 
L 55.9431 -0 
L 0 -0 
L 0 55.67508 
z
" style="fill: none"/>
  </g>
  <g id="axes_1">
   <g id="patch_2">
    <path d="M 28.128629 9.07614 
C 23.85169 9.07614 19.701021 10.540469 16.370882 13.224195 
C 13.040744 15.907922 10.727772 19.65258 9.818843 23.831822 
C 8.909915 28.011063 9.4587 32.378115 11.373407 36.202525 
C 13.288114 40.026934 16.455684 43.082881 20.346295 44.859212 
L 28.128629 27.813952 
L 28.128629 9.07614 
z
" style="fill: #0000ff"/>
   </g>
   <g id="patch_3">
    <path d="M 20.346295 44.859212 
C 22.892174 46.021582 25.666423 46.59894 28.464652 46.548752 
C 31.262881 46.498563 34.014642 45.822091 36.517201 44.569174 
C 39.019761 43.316257 41.210114 41.518439 42.92689 39.308171 
C 44.643667 37.097903 45.843643 34.530832 46.438414 31.796083 
C 47.033185 29.061334 47.007776 26.227758 46.364059 23.504114 
C 45.720342 20.780471 44.474523 18.235332 42.718386 16.056206 
C 40.962249 13.87708 38.740008 12.11883 36.215382 10.910993 
C 33.690757 9.703156 30.927308 9.07614 28.128629 9.07614 
L 28.128629 27.813952 
L 20.346295 44.859212 
z
" style="fill: #ff0000"/>
   </g>
   <g id="matplotlib.axis_1"/>
   <g id="matplotlib.axis_2"/>
  </g>
 </g>
</svg>
