<?xml version="1.0" encoding="utf-8" standalone="no"?>
<!DOCTYPE svg PUBLIC "-//W3C//DTD SVG 1.1//EN"
  "http://www.w3.org/Graphics/SVG/1.1/DTD/svg11.dtd">
<svg xmlns:xlink="http://www.w3.org/1999/xlink" width="371.52pt" height="280.512pt" viewBox="0 0 371.52 280.512" xmlns="http://www.w3.org/2000/svg" version="1.1">
 <metadata>
  <rdf:RDF xmlns:dc="http://purl.org/dc/elements/1.1/" xmlns:cc="http://creativecommons.org/ns#" xmlns:rdf="http://www.w3.org/1999/02/22-rdf-syntax-ns#">
   <cc:Work>
    <dc:type rdf:resource="http://purl.org/dc/dcmitype/StillImage"/>
    <dc:date>2021-12-03T16:10:07.524576</dc:date>
    <dc:format>image/svg+xml</dc:format>
    <dc:creator>
     <cc:Agent>
      <dc:title>Matplotlib v3.5.0, https://matplotlib.org/</dc:title>
     </cc:Agent>
    </dc:creator>
   </cc:Work>
  </rdf:RDF>
 </metadata>
 <defs>
  <style type="text/css">*{stroke-linejoin: round; stroke-linecap: butt}</style>
 </defs>
 <g id="figure_1">
  <g id="patch_1">
   <path d="M 0 280.512 
L 371.52 280.512 
L 371.52 0 
L 0 0 
L 0 280.512 
z
" style="fill: none"/>
  </g>
  <g id="axes_1">
   <g id="patch_2">
    <path d="M 186.383392 19.296003 
C 156.416416 19.296003 127.501921 30.478617 105.333094 50.642018 
C 83.164268 70.805419 69.298307 98.533276 66.465384 128.366045 
C 63.63246 158.198815 72.031567 188.040965 90.00894 212.016654 
C 107.986314 235.992343 134.279176 252.417454 163.710532 258.057927 
L 186.383392 139.753474 
L 186.383392 19.296003 
z
" style="fill: #0000ff"/>
   </g>
   <g id="patch_3">
    <path d="M 163.710532 258.057927 
C 180.189007 261.216 197.14698 260.896616 213.494854 257.120295 
C 229.842727 253.343975 245.222704 246.193368 258.646577 236.127922 
C 272.07045 226.062476 283.244418 213.302487 291.450521 198.667822 
C 299.656625 184.033157 304.715262 167.844115 306.301401 151.14089 
C 307.88754 134.437665 305.966465 117.58583 300.661611 101.668164 
C 295.356757 85.750498 286.784229 71.115382 275.494836 58.703164 
C 264.205443 46.290945 250.446269 36.373284 235.101381 29.587418 
C 219.756493 22.801552 203.161735 19.296 186.383369 19.296003 
L 186.383392 139.753474 
L 163.710532 258.057927 
z
" style="fill: #bf00bf"/>
   </g>
   <g id="matplotlib.axis_1"/>
   <g id="matplotlib.axis_2"/>
  </g>
 </g>
</svg>
