<?xml version="1.0" encoding="utf-8" standalone="no"?>
<!DOCTYPE svg PUBLIC "-//W3C//DTD SVG 1.1//EN"
  "http://www.w3.org/Graphics/SVG/1.1/DTD/svg11.dtd">
<svg xmlns:xlink="http://www.w3.org/1999/xlink" width="77.8167pt" height="77.40756pt" viewBox="0 0 77.8167 77.40756" xmlns="http://www.w3.org/2000/svg" version="1.1">
 <metadata>
  <rdf:RDF xmlns:dc="http://purl.org/dc/elements/1.1/" xmlns:cc="http://creativecommons.org/ns#" xmlns:rdf="http://www.w3.org/1999/02/22-rdf-syntax-ns#">
   <cc:Work>
    <dc:type rdf:resource="http://purl.org/dc/dcmitype/StillImage"/>
    <dc:date>2022-01-14T17:05:54.341440</dc:date>
    <dc:format>image/svg+xml</dc:format>
    <dc:creator>
     <cc:Agent>
      <dc:title>Matplotlib v3.5.1, https://matplotlib.org/</dc:title>
     </cc:Agent>
    </dc:creator>
   </cc:Work>
  </rdf:RDF>
 </metadata>
 <defs>
  <style type="text/css">*{stroke-linejoin: round; stroke-linecap: butt}</style>
 </defs>
 <g id="figure_1">
  <g id="patch_1">
   <path d="M 0 77.40756 
L 77.8167 77.40756 
L 77.8167 0 
L 0 0 
L 0 77.40756 
z
" style="fill: none"/>
  </g>
  <g id="axes_1">
   <g id="patch_2">
    <path d="M 39.055489 10.063981 
C 31.982382 10.063981 25.157691 12.711698 19.925181 17.485803 
C 14.692671 22.259908 11.419887 28.825056 10.751232 35.888586 
C 10.082577 42.952115 12.065019 50.017866 16.30822 55.69461 
C 20.551421 61.371354 26.757327 65.260341 33.704012 66.59584 
L 39.055489 38.584796 
L 39.055489 10.063981 
z
" style="fill: #0000ff; stroke: #000000; stroke-linejoin: miter"/>
   </g>
   <g id="patch_3">
    <path d="M 33.704012 66.59584 
C 37.593428 67.34358 41.59602 67.267959 45.45461 66.373837 
C 49.313199 65.479714 52.943337 63.786659 56.111774 61.403455 
C 59.280212 59.020251 61.917605 55.999058 63.854492 52.533996 
C 65.791379 49.068934 66.98537 45.235841 67.359746 41.281005 
C 67.734123 37.326168 67.280691 33.336145 66.028586 29.567306 
C 64.776481 25.798467 62.753107 22.333298 60.08847 19.394447 
C 57.423834 16.455596 54.176255 14.107383 50.5544 12.500688 
C 46.932545 10.893993 43.015683 10.06398 39.055484 10.063981 
L 39.055489 38.584796 
L 33.704012 66.59584 
z
" style="fill: #ff0000; stroke: #000000; stroke-linejoin: miter"/>
   </g>
   <g id="matplotlib.axis_1"/>
   <g id="matplotlib.axis_2"/>
  </g>
 </g>
</svg>
