<?xml version="1.0" encoding="utf-8" standalone="no"?>
<!DOCTYPE svg PUBLIC "-//W3C//DTD SVG 1.1//EN"
  "http://www.w3.org/Graphics/SVG/1.1/DTD/svg11.dtd">
<svg xmlns:xlink="http://www.w3.org/1999/xlink" width="179.02395pt" height="177.96186pt" viewBox="0 0 179.02395 177.96186" xmlns="http://www.w3.org/2000/svg" version="1.1">
 <metadata>
  <rdf:RDF xmlns:dc="http://purl.org/dc/elements/1.1/" xmlns:cc="http://creativecommons.org/ns#" xmlns:rdf="http://www.w3.org/1999/02/22-rdf-syntax-ns#">
   <cc:Work>
    <dc:type rdf:resource="http://purl.org/dc/dcmitype/StillImage"/>
    <dc:date>2022-01-14T17:05:55.254920</dc:date>
    <dc:format>image/svg+xml</dc:format>
    <dc:creator>
     <cc:Agent>
      <dc:title>Matplotlib v3.5.1, https://matplotlib.org/</dc:title>
     </cc:Agent>
    </dc:creator>
   </cc:Work>
  </rdf:RDF>
 </metadata>
 <defs>
  <style type="text/css">*{stroke-linejoin: round; stroke-linecap: butt}</style>
 </defs>
 <g id="figure_1">
  <g id="patch_1">
   <path d="M 0 177.96186 
L 179.02395 177.96186 
L 179.02395 0 
L 0 0 
L 0 177.96186 
z
" style="fill: none"/>
  </g>
  <g id="axes_1">
   <g id="patch_2">
    <path d="M 89.604669 14.258475 
C 70.086731 14.258475 51.328545 21.922541 37.394738 35.589981 
C 23.460931 49.257421 15.436272 67.864202 15.059589 87.378505 
C 14.682907 106.892807 21.983526 125.795411 35.379507 139.990395 
C 48.775489 154.185379 67.223934 162.567641 86.727333 163.320866 
L 89.604669 88.817441 
L 89.604669 14.258475 
z
" style="fill: #0000ff; stroke: #000000; stroke-linejoin: miter"/>
   </g>
   <g id="patch_3">
    <path d="M 86.727333 163.320866 
C 96.632025 163.703387 106.514284 162.106959 115.794719 158.625181 
C 125.075154 155.143403 133.568782 149.845675 140.777625 143.0426 
C 147.986469 136.239525 153.766837 128.066706 157.77983 119.00331 
C 161.792824 109.939915 163.958453 100.1666 164.149748 90.25637 
C 164.341043 80.34614 162.554192 70.496531 158.893955 61.285021 
C 155.233719 52.07351 149.773055 43.683708 142.832121 36.607502 
C 135.891187 29.531297 127.608332 23.909736 118.469176 20.072408 
C 109.33002 16.23508 99.516731 14.258473 89.604655 14.258475 
L 89.604669 88.817441 
L 86.727333 163.320866 
z
" style="fill: #ff0000; stroke: #000000; stroke-linejoin: miter"/>
   </g>
   <g id="matplotlib.axis_1"/>
   <g id="matplotlib.axis_2"/>
  </g>
 </g>
</svg>
