<?xml version="1.0" encoding="utf-8" standalone="no"?>
<!DOCTYPE svg PUBLIC "-//W3C//DTD SVG 1.1//EN"
  "http://www.w3.org/Graphics/SVG/1.1/DTD/svg11.dtd">
<svg xmlns:xlink="http://www.w3.org/1999/xlink" width="371.52pt" height="280.512pt" viewBox="0 0 371.52 280.512" xmlns="http://www.w3.org/2000/svg" version="1.1">
 <metadata>
  <rdf:RDF xmlns:dc="http://purl.org/dc/elements/1.1/" xmlns:cc="http://creativecommons.org/ns#" xmlns:rdf="http://www.w3.org/1999/02/22-rdf-syntax-ns#">
   <cc:Work>
    <dc:type rdf:resource="http://purl.org/dc/dcmitype/StillImage"/>
    <dc:date>2021-12-03T16:10:08.474992</dc:date>
    <dc:format>image/svg+xml</dc:format>
    <dc:creator>
     <cc:Agent>
      <dc:title>Matplotlib v3.5.0, https://matplotlib.org/</dc:title>
     </cc:Agent>
    </dc:creator>
   </cc:Work>
  </rdf:RDF>
 </metadata>
 <defs>
  <style type="text/css">*{stroke-linejoin: round; stroke-linecap: butt}</style>
 </defs>
 <g id="figure_1">
  <g id="patch_1">
   <path d="M 0 280.512 
L 371.52 280.512 
L 371.52 0 
L 0 0 
L 0 280.512 
z
" style="fill: none"/>
  </g>
  <g id="axes_1">
   <g id="patch_2">
    <path d="M 185.910052 19.296003 
C 154.3146 19.296003 123.949027 31.70252 101.393113 53.827241 
C 78.837199 75.951963 65.846959 106.072443 65.237189 137.662009 
C 64.627418 169.251576 76.44559 199.850931 98.130877 222.829635 
C 119.816165 245.80834 149.680332 259.377465 181.252247 260.596779 
L 185.910052 139.991345 
L 185.910052 19.296003 
z
" style="fill: #0000ff"/>
   </g>
   <g id="patch_3">
    <path d="M 181.252247 260.596779 
C 197.285869 261.216 213.283176 258.631719 228.306256 252.995449 
C 243.329336 247.35918 257.078739 238.783269 268.748346 227.770515 
C 280.417953 216.757762 289.775157 203.527681 296.271353 188.855943 
C 302.767548 174.184204 306.273248 158.363256 306.582915 142.32067 
C 306.892582 126.278084 304.000043 110.333632 298.074887 95.422126 
C 292.149731 80.510621 283.310062 66.929289 272.074144 55.474395 
C 260.838225 44.019501 247.43002 34.919372 232.635641 28.707542 
C 217.841263 22.495712 201.955603 19.296 185.910029 19.296003 
L 185.910052 139.991345 
L 181.252247 260.596779 
z
" style="fill: #bf00bf"/>
   </g>
   <g id="matplotlib.axis_1"/>
   <g id="matplotlib.axis_2"/>
  </g>
 </g>
</svg>
