<?xml version="1.0" encoding="utf-8" standalone="no"?>
<!DOCTYPE svg PUBLIC "-//W3C//DTD SVG 1.1//EN"
  "http://www.w3.org/Graphics/SVG/1.1/DTD/svg11.dtd">
<svg xmlns:xlink="http://www.w3.org/1999/xlink" width="17.7759pt" height="17.75412pt" viewBox="0 0 17.7759 17.75412" xmlns="http://www.w3.org/2000/svg" version="1.1">
 <metadata>
  <rdf:RDF xmlns:dc="http://purl.org/dc/elements/1.1/" xmlns:cc="http://creativecommons.org/ns#" xmlns:rdf="http://www.w3.org/1999/02/22-rdf-syntax-ns#">
   <cc:Work>
    <dc:type rdf:resource="http://purl.org/dc/dcmitype/StillImage"/>
    <dc:date>2021-12-14T09:21:03.859040</dc:date>
    <dc:format>image/svg+xml</dc:format>
    <dc:creator>
     <cc:Agent>
      <dc:title>Matplotlib v3.5.0, https://matplotlib.org/</dc:title>
     </cc:Agent>
    </dc:creator>
   </cc:Work>
  </rdf:RDF>
 </metadata>
 <defs>
  <style type="text/css">*{stroke-linejoin: round; stroke-linecap: butt}</style>
 </defs>
 <g id="figure_1">
  <g id="patch_1">
   <path d="M 0 17.75412 
L 17.7759 17.75412 
L 17.7759 0 
L 0 0 
L 0 17.75412 
z
" style="fill: none"/>
  </g>
  <g id="axes_1">
   <g id="patch_2">
    <path d="M 8.892705 7.35246 
C 8.503087 7.35246 8.127983 7.501856 7.845422 7.769571 
C 7.562861 8.037287 7.393895 8.403374 7.373673 8.791682 
C 7.35345 9.17999 7.483477 9.561586 7.736706 9.857092 
C 7.989935 10.152599 8.347499 10.339997 8.735018 10.380307 
L 8.892705 8.870473 
L 8.892705 7.35246 
z
" style="fill: #0000ff"/>
   </g>
   <g id="patch_3">
    <path d="M 8.735018 10.380307 
C 8.9403 10.40166 9.147805 10.381094 9.344869 10.319864 
C 9.541933 10.258634 9.724463 10.158012 9.88132 10.024139 
C 10.038176 9.890266 10.166101 9.725921 10.257286 9.541136 
C 10.348472 9.356352 10.401025 9.154964 10.411737 8.949264 
C 10.42245 8.743564 10.3911 8.537824 10.319601 8.344601 
C 10.248101 8.151378 10.137938 7.974684 9.995833 7.825304 
C 9.853728 7.675924 9.682634 7.556959 9.492992 7.475671 
C 9.30335 7.394383 9.099099 7.35246 8.892705 7.35246 
L 8.892705 8.870473 
L 8.735018 10.380307 
z
" style="fill: #ff0000"/>
   </g>
   <g id="matplotlib.axis_1"/>
   <g id="matplotlib.axis_2"/>
  </g>
 </g>
</svg>
