<?xml version="1.0" encoding="utf-8" standalone="no"?>
<!DOCTYPE svg PUBLIC "-//W3C//DTD SVG 1.1//EN"
  "http://www.w3.org/Graphics/SVG/1.1/DTD/svg11.dtd">
<svg xmlns:xlink="http://www.w3.org/1999/xlink" width="371.52pt" height="280.512pt" viewBox="0 0 371.52 280.512" xmlns="http://www.w3.org/2000/svg" version="1.1">
 <metadata>
  <rdf:RDF xmlns:dc="http://purl.org/dc/elements/1.1/" xmlns:cc="http://creativecommons.org/ns#" xmlns:rdf="http://www.w3.org/1999/02/22-rdf-syntax-ns#">
   <cc:Work>
    <dc:type rdf:resource="http://purl.org/dc/dcmitype/StillImage"/>
    <dc:date>2021-12-03T16:10:14.287673</dc:date>
    <dc:format>image/svg+xml</dc:format>
    <dc:creator>
     <cc:Agent>
      <dc:title>Matplotlib v3.5.0, https://matplotlib.org/</dc:title>
     </cc:Agent>
    </dc:creator>
   </cc:Work>
  </rdf:RDF>
 </metadata>
 <defs>
  <style type="text/css">*{stroke-linejoin: round; stroke-linecap: butt}</style>
 </defs>
 <g id="figure_1">
  <g id="patch_1">
   <path d="M 0 280.512 
L 371.52 280.512 
L 371.52 0 
L 0 0 
L 0 280.512 
z
" style="fill: none"/>
  </g>
  <g id="axes_1">
   <g id="patch_2">
    <path d="M 186.136496 19.296 
C 155.287027 19.296 125.586788 31.148918 103.213969 52.389132 
C 80.84115 73.629346 67.462652 102.67434 65.861446 133.482226 
C 64.26024 164.290112 74.555625 194.56553 94.605973 218.010641 
C 114.656321 241.455752 142.96777 256.323764 173.651021 259.52186 
L 186.136496 139.733389 
L 186.136496 19.296 
z
" style="fill: #0000ff"/>
   </g>
   <g id="patch_3">
    <path d="M 173.651021 259.52186 
C 189.904986 261.216 206.334994 259.584325 221.938272 254.726422 
C 237.54155 249.868518 251.994067 241.885269 264.413743 231.263916 
C 276.833419 220.642562 286.962337 207.603677 294.182299 192.943061 
C 301.402261 178.282445 305.56333 162.304553 306.411545 145.984564 
C 307.25976 129.664575 304.777506 113.341403 299.116282 98.011301 
C 293.455058 82.681198 284.732429 68.662522 273.480765 56.810875 
C 262.2291 44.959227 248.682061 35.520729 233.666463 29.07144 
C 218.650865 22.622151 202.478535 19.296003 186.136518 19.296 
L 186.136496 139.733389 
L 173.651021 259.52186 
z
" style="fill: #bf00bf"/>
   </g>
   <g id="matplotlib.axis_1"/>
   <g id="matplotlib.axis_2"/>
  </g>
 </g>
</svg>
