<?xml version="1.0" encoding="utf-8" standalone="no"?>
<!DOCTYPE svg PUBLIC "-//W3C//DTD SVG 1.1//EN"
  "http://www.w3.org/Graphics/SVG/1.1/DTD/svg11.dtd">
<svg xmlns:xlink="http://www.w3.org/1999/xlink" width="63.9783pt" height="63.65844pt" viewBox="0 0 63.9783 63.65844" xmlns="http://www.w3.org/2000/svg" version="1.1">
 <metadata>
  <rdf:RDF xmlns:dc="http://purl.org/dc/elements/1.1/" xmlns:cc="http://creativecommons.org/ns#" xmlns:rdf="http://www.w3.org/1999/02/22-rdf-syntax-ns#">
   <cc:Work>
    <dc:type rdf:resource="http://purl.org/dc/dcmitype/StillImage"/>
    <dc:date>2021-12-14T09:20:59.195665</dc:date>
    <dc:format>image/svg+xml</dc:format>
    <dc:creator>
     <cc:Agent>
      <dc:title>Matplotlib v3.5.0, https://matplotlib.org/</dc:title>
     </cc:Agent>
    </dc:creator>
   </cc:Work>
  </rdf:RDF>
 </metadata>
 <defs>
  <style type="text/css">*{stroke-linejoin: round; stroke-linecap: butt}</style>
 </defs>
 <g id="figure_1">
  <g id="patch_1">
   <path d="M 0 63.65844 
L 63.9783 63.65844 
L 63.9783 -0 
L 0 -0 
L 0 63.65844 
z
" style="fill: none"/>
  </g>
  <g id="axes_1">
   <g id="patch_2">
    <path d="M 31.803298 9.43902 
C 28.475765 9.43902 25.189856 10.182189 22.186178 11.61411 
C 19.182499 13.04603 16.536199 15.130878 14.441048 17.715993 
C 12.345896 20.301108 10.854312 23.321815 10.075512 26.556928 
C 9.296713 29.79204 9.250184 33.16062 9.939331 36.416008 
C 10.628479 39.671397 12.036062 42.73215 14.059012 45.374147 
C 16.081963 48.016145 18.669669 50.173289 21.632652 51.687625 
C 24.595634 53.201962 27.859762 54.035605 31.186026 54.127513 
C 34.51229 54.21942 37.817472 53.567292 40.859554 52.21888 
L 31.803298 31.787529 
L 31.803298 9.43902 
z
" style="fill: #0000ff"/>
   </g>
   <g id="patch_3">
    <path d="M 40.859554 52.21888 
C 45.542436 50.143179 49.372274 46.519294 51.703394 41.958176 
C 54.034515 37.397058 54.728116 32.170289 53.667265 27.15905 
C 52.606414 22.147812 49.854276 17.650486 45.874834 14.425279 
C 41.895393 11.200072 36.925594 9.43902 31.803298 9.43902 
L 31.803298 31.787529 
L 40.859554 52.21888 
z
" style="fill: #ff0000"/>
   </g>
   <g id="matplotlib.axis_1"/>
   <g id="matplotlib.axis_2"/>
  </g>
 </g>
</svg>
