<?xml version="1.0" encoding="utf-8" standalone="no"?>
<!DOCTYPE svg PUBLIC "-//W3C//DTD SVG 1.1//EN"
  "http://www.w3.org/Graphics/SVG/1.1/DTD/svg11.dtd">
<svg xmlns:xlink="http://www.w3.org/1999/xlink" width="371.52pt" height="280.512pt" viewBox="0 0 371.52 280.512" xmlns="http://www.w3.org/2000/svg" version="1.1">
 <metadata>
  <rdf:RDF xmlns:dc="http://purl.org/dc/elements/1.1/" xmlns:cc="http://creativecommons.org/ns#" xmlns:rdf="http://www.w3.org/1999/02/22-rdf-syntax-ns#">
   <cc:Work>
    <dc:type rdf:resource="http://purl.org/dc/dcmitype/StillImage"/>
    <dc:date>2021-12-03T16:10:09.460796</dc:date>
    <dc:format>image/svg+xml</dc:format>
    <dc:creator>
     <cc:Agent>
      <dc:title>Matplotlib v3.5.0, https://matplotlib.org/</dc:title>
     </cc:Agent>
    </dc:creator>
   </cc:Work>
  </rdf:RDF>
 </metadata>
 <defs>
  <style type="text/css">*{stroke-linejoin: round; stroke-linecap: butt}</style>
 </defs>
 <g id="figure_1">
  <g id="patch_1">
   <path d="M 0 280.512 
L 371.52 280.512 
L 371.52 0 
L 0 0 
L 0 280.512 
z
" style="fill: none"/>
  </g>
  <g id="axes_1">
   <g id="patch_2">
    <path d="M 184.755961 19.296 
C 166.779415 19.296 149.027742 23.310869 132.80078 31.046625 
C 116.573818 38.78238 102.277541 50.045486 90.958772 64.011218 
C 79.640003 77.97695 71.58192 94.295907 67.374563 111.77316 
C 63.167206 129.250412 62.915837 147.448706 66.638863 165.035499 
C 70.361888 182.622292 77.966163 199.15759 88.894877 213.430621 
C 99.82359 227.703652 113.803323 239.357328 129.81043 247.538325 
C 145.817538 255.719323 163.451547 260.222966 181.421234 260.719483 
C 199.390922 261.216 217.246715 257.692969 233.681149 250.408357 
L 184.755961 140.030772 
L 184.755961 19.296 
z
" style="fill: #0000ff"/>
   </g>
   <g id="patch_3">
    <path d="M 233.681149 250.408357 
C 258.97978 239.194665 279.669954 219.61712 292.263514 194.976303 
C 304.857074 170.335486 308.604163 142.098579 302.873059 115.026046 
C 297.141956 87.953512 282.273906 63.657326 260.775515 46.233584 
C 239.277125 28.809841 212.428467 19.296 184.755961 19.296 
L 184.755961 140.030772 
L 233.681149 250.408357 
z
" style="fill: #bf00bf"/>
   </g>
   <g id="matplotlib.axis_1"/>
   <g id="matplotlib.axis_2"/>
  </g>
 </g>
</svg>
