<?xml version="1.0" encoding="utf-8" standalone="no"?>
<!DOCTYPE svg PUBLIC "-//W3C//DTD SVG 1.1//EN"
  "http://www.w3.org/Graphics/SVG/1.1/DTD/svg11.dtd">
<svg xmlns:xlink="http://www.w3.org/1999/xlink" width="26.46675pt" height="26.3889pt" viewBox="0 0 26.46675 26.3889" xmlns="http://www.w3.org/2000/svg" version="1.1">
 <metadata>
  <rdf:RDF xmlns:dc="http://purl.org/dc/elements/1.1/" xmlns:cc="http://creativecommons.org/ns#" xmlns:rdf="http://www.w3.org/1999/02/22-rdf-syntax-ns#">
   <cc:Work>
    <dc:type rdf:resource="http://purl.org/dc/dcmitype/StillImage"/>
    <dc:date>2022-01-14T17:05:57.138244</dc:date>
    <dc:format>image/svg+xml</dc:format>
    <dc:creator>
     <cc:Agent>
      <dc:title>Matplotlib v3.5.1, https://matplotlib.org/</dc:title>
     </cc:Agent>
    </dc:creator>
   </cc:Work>
  </rdf:RDF>
 </metadata>
 <defs>
  <style type="text/css">*{stroke-linejoin: round; stroke-linecap: butt}</style>
 </defs>
 <g id="figure_1">
  <g id="patch_1">
   <path d="M 0 26.3889 
L 26.46675 26.3889 
L 26.46675 0 
L 0 0 
L 0 26.3889 
z
" style="fill: none"/>
  </g>
  <g id="axes_1">
   <g id="patch_2">
    <path d="M 13.260902 7.74495 
C 11.912867 7.74495 10.612313 8.250147 9.616006 9.160801 
C 8.619699 10.071454 7.997824 11.323414 7.873156 12.669507 
C 7.748489 14.015601 8.12981 15.361003 8.941838 16.440093 
C 9.753866 17.519183 10.939396 18.255945 12.264372 18.504922 
L 13.260902 13.171346 
L 13.260902 7.74495 
z
" style="fill: #0000ff; stroke: #000000; stroke-linejoin: miter"/>
   </g>
   <g id="patch_3">
    <path d="M 12.264372 18.504922 
C 13.004238 18.64395 13.764957 18.62663 14.497768 18.454072 
C 15.23058 18.281513 15.919488 17.957484 16.520334 17.502752 
C 17.12118 17.048021 17.620848 16.472515 17.987311 15.813122 
C 18.353775 15.153728 18.579032 14.424844 18.648647 13.673186 
C 18.718261 12.921528 18.630713 12.163507 18.391612 11.447709 
C 18.152512 10.731911 17.76708 10.073963 17.26002 9.516036 
C 16.752961 8.958109 16.135344 8.512384 15.446757 8.20743 
C 14.75817 7.902476 14.013645 7.74495 13.260903 7.74495 
L 13.260902 13.171346 
L 12.264372 18.504922 
z
" style="fill: #ff0000; stroke: #000000; stroke-linejoin: miter"/>
   </g>
   <g id="matplotlib.axis_1"/>
   <g id="matplotlib.axis_2"/>
  </g>
 </g>
</svg>
