<?xml version="1.0" encoding="utf-8" standalone="no"?>
<!DOCTYPE svg PUBLIC "-//W3C//DTD SVG 1.1//EN"
  "http://www.w3.org/Graphics/SVG/1.1/DTD/svg11.dtd">
<svg xmlns:xlink="http://www.w3.org/1999/xlink" width="54.45045pt" height="54.19206pt" viewBox="0 0 54.45045 54.19206" xmlns="http://www.w3.org/2000/svg" version="1.1">
 <metadata>
  <rdf:RDF xmlns:dc="http://purl.org/dc/elements/1.1/" xmlns:cc="http://creativecommons.org/ns#" xmlns:rdf="http://www.w3.org/1999/02/22-rdf-syntax-ns#">
   <cc:Work>
    <dc:type rdf:resource="http://purl.org/dc/dcmitype/StillImage"/>
    <dc:date>2022-01-14T17:05:58.086992</dc:date>
    <dc:format>image/svg+xml</dc:format>
    <dc:creator>
     <cc:Agent>
      <dc:title>Matplotlib v3.5.1, https://matplotlib.org/</dc:title>
     </cc:Agent>
    </dc:creator>
   </cc:Work>
  </rdf:RDF>
 </metadata>
 <defs>
  <style type="text/css">*{stroke-linejoin: round; stroke-linecap: butt}</style>
 </defs>
 <g id="figure_1">
  <g id="patch_1">
   <path d="M 0 54.19206 
L 54.45045 54.19206 
L 54.45045 0 
L 0 0 
L 0 54.19206 
z
" style="fill: none"/>
  </g>
  <g id="axes_1">
   <g id="patch_2">
    <path d="M 27.276375 9.00873 
C 22.633602 9.00873 18.165062 10.794474 14.806683 13.991942 
C 11.448303 17.18941 9.45215 21.558612 9.236312 26.184429 
C 9.020475 30.810246 10.601154 35.345483 13.647279 38.840244 
C 16.693404 42.335005 20.976346 44.526987 25.599051 44.957085 
L 27.276375 27.021838 
L 27.276375 9.00873 
z
" style="fill: #0000ff; stroke: #000000; stroke-linejoin: miter"/>
   </g>
   <g id="patch_3">
    <path d="M 25.599051 44.957085 
C 28.030738 45.18333 30.483358 44.915246 32.808207 44.169088 
C 35.133057 43.42293 37.282181 42.214088 39.125278 40.615855 
C 40.968375 39.017623 42.467427 37.062965 43.531546 34.870396 
C 44.595665 32.677826 45.202901 30.292569 45.316438 27.859245 
C 45.429975 25.425921 45.04747 22.994722 44.192116 20.713051 
C 43.336761 18.431381 42.0262 16.346303 40.339892 14.584238 
C 38.653584 12.822172 36.626312 11.419465 34.380992 10.461163 
C 32.135671 9.502861 29.718615 9.00873 27.276372 9.00873 
L 27.276375 27.021838 
L 25.599051 44.957085 
z
" style="fill: #ff0000; stroke: #000000; stroke-linejoin: miter"/>
   </g>
   <g id="matplotlib.axis_1"/>
   <g id="matplotlib.axis_2"/>
  </g>
 </g>
</svg>
