<?xml version="1.0" encoding="utf-8" standalone="no"?>
<!DOCTYPE svg PUBLIC "-//W3C//DTD SVG 1.1//EN"
  "http://www.w3.org/Graphics/SVG/1.1/DTD/svg11.dtd">
<svg xmlns:xlink="http://www.w3.org/1999/xlink" width="371.52pt" height="280.512pt" viewBox="0 0 371.52 280.512" xmlns="http://www.w3.org/2000/svg" version="1.1">
 <metadata>
  <rdf:RDF xmlns:dc="http://purl.org/dc/elements/1.1/" xmlns:cc="http://creativecommons.org/ns#" xmlns:rdf="http://www.w3.org/1999/02/22-rdf-syntax-ns#">
   <cc:Work>
    <dc:type rdf:resource="http://purl.org/dc/dcmitype/StillImage"/>
    <dc:date>2021-12-03T16:10:11.370695</dc:date>
    <dc:format>image/svg+xml</dc:format>
    <dc:creator>
     <cc:Agent>
      <dc:title>Matplotlib v3.5.0, https://matplotlib.org/</dc:title>
     </cc:Agent>
    </dc:creator>
   </cc:Work>
  </rdf:RDF>
 </metadata>
 <defs>
  <style type="text/css">*{stroke-linejoin: round; stroke-linecap: butt}</style>
 </defs>
 <g id="figure_1">
  <g id="patch_1">
   <path d="M 0 280.512 
L 371.52 280.512 
L 371.52 0 
L 0 0 
L 0 280.512 
z
" style="fill: none"/>
  </g>
  <g id="axes_1">
   <g id="patch_2">
    <path d="M 186.10119 19.296003 
C 155.132252 19.296003 125.325517 31.238282 102.923938 52.621555 
C 80.52236 74.004829 67.207312 103.224154 65.767601 134.159609 
C 64.327891 165.095063 74.871576 195.424754 95.190306 218.796196 
C 115.509037 242.167639 144.077769 256.826664 174.912845 259.702972 
L 186.10119 139.759836 
L 186.10119 19.296003 
z
" style="fill: #0000ff"/>
   </g>
   <g id="patch_3">
    <path d="M 174.912845 259.702972 
C 191.133057 261.216 207.492898 259.423173 223.000464 254.433192 
C 238.50803 249.44321 252.843448 241.359002 265.137554 230.670715 
C 277.431661 219.982429 287.430867 206.910532 294.528916 192.247578 
C 301.626966 177.584624 305.677447 161.633065 306.434778 145.360051 
C 307.192109 129.087038 304.640669 112.828232 298.935152 97.569412 
C 293.229635 82.310591 284.487729 68.3665 273.239458 56.582572 
C 261.991188 44.798645 248.468571 35.41795 233.49149 29.00924 
C 218.514408 22.600531 202.391794 19.296 186.101167 19.296003 
L 186.10119 139.759836 
L 174.912845 259.702972 
z
" style="fill: #bf00bf"/>
   </g>
   <g id="matplotlib.axis_1"/>
   <g id="matplotlib.axis_2"/>
  </g>
 </g>
</svg>
