<?xml version="1.0" encoding="utf-8" standalone="no"?>
<!DOCTYPE svg PUBLIC "-//W3C//DTD SVG 1.1//EN"
  "http://www.w3.org/Graphics/SVG/1.1/DTD/svg11.dtd">
<svg xmlns:xlink="http://www.w3.org/1999/xlink" width="371.52pt" height="280.512pt" viewBox="0 0 371.52 280.512" xmlns="http://www.w3.org/2000/svg" version="1.1">
 <metadata>
  <rdf:RDF xmlns:dc="http://purl.org/dc/elements/1.1/" xmlns:cc="http://creativecommons.org/ns#" xmlns:rdf="http://www.w3.org/1999/02/22-rdf-syntax-ns#">
   <cc:Work>
    <dc:type rdf:resource="http://purl.org/dc/dcmitype/StillImage"/>
    <dc:date>2021-12-03T16:10:12.352240</dc:date>
    <dc:format>image/svg+xml</dc:format>
    <dc:creator>
     <cc:Agent>
      <dc:title>Matplotlib v3.5.0, https://matplotlib.org/</dc:title>
     </cc:Agent>
    </dc:creator>
   </cc:Work>
  </rdf:RDF>
 </metadata>
 <defs>
  <style type="text/css">*{stroke-linejoin: round; stroke-linecap: butt}</style>
 </defs>
 <g id="figure_1">
  <g id="patch_1">
   <path d="M 0 280.512 
L 371.52 280.512 
L 371.52 0 
L 0 0 
L 0 280.512 
z
" style="fill: none"/>
  </g>
  <g id="axes_1">
   <g id="patch_2">
    <path d="M 186.234409 19.296003 
C 155.723927 19.296003 126.325717 30.893702 104.033138 51.724699 
C 81.740559 72.555696 68.17898 101.101185 66.113177 131.541651 
C 64.047373 161.982117 73.627964 192.098121 92.901771 215.749968 
C 112.175578 239.401814 139.737334 254.865029 169.968073 258.987155 
L 186.234409 139.693526 
L 186.234409 19.296003 
z
" style="fill: #0000ff"/>
   </g>
   <g id="patch_3">
    <path d="M 169.968073 258.987155 
C 186.313915 261.216 202.944773 260.061635 218.825936 255.595882 
C 234.707099 251.130128 249.502238 243.447561 262.290855 233.026161 
C 275.079472 222.604761 285.59073 209.665231 293.170658 195.012621 
C 300.750587 180.360011 305.238659 164.304632 306.355643 147.84539 
C 307.472627 131.386148 305.194868 114.871616 299.664079 99.329265 
C 294.133291 83.786913 285.466603 69.545899 274.203225 57.492243 
C 262.939848 45.438587 249.318315 35.827561 234.186107 29.257127 
C 219.0539 22.686693 202.731487 19.296 186.234387 19.296003 
L 186.234409 139.693526 
L 169.968073 258.987155 
z
" style="fill: #bf00bf"/>
   </g>
   <g id="matplotlib.axis_1"/>
   <g id="matplotlib.axis_2"/>
  </g>
 </g>
</svg>
