<?xml version="1.0" encoding="utf-8" standalone="no"?>
<!DOCTYPE svg PUBLIC "-//W3C//DTD SVG 1.1//EN"
  "http://www.w3.org/Graphics/SVG/1.1/DTD/svg11.dtd">
<svg xmlns:xlink="http://www.w3.org/1999/xlink" width="21.5145pt" height="21.4686pt" viewBox="0 0 21.5145 21.4686" xmlns="http://www.w3.org/2000/svg" version="1.1">
 <metadata>
  <rdf:RDF xmlns:dc="http://purl.org/dc/elements/1.1/" xmlns:cc="http://creativecommons.org/ns#" xmlns:rdf="http://www.w3.org/1999/02/22-rdf-syntax-ns#">
   <cc:Work>
    <dc:type rdf:resource="http://purl.org/dc/dcmitype/StillImage"/>
    <dc:date>2021-12-14T09:21:01.940248</dc:date>
    <dc:format>image/svg+xml</dc:format>
    <dc:creator>
     <cc:Agent>
      <dc:title>Matplotlib v3.5.0, https://matplotlib.org/</dc:title>
     </cc:Agent>
    </dc:creator>
   </cc:Work>
  </rdf:RDF>
 </metadata>
 <defs>
  <style type="text/css">*{stroke-linejoin: round; stroke-linecap: butt}</style>
 </defs>
 <g id="figure_1">
  <g id="patch_1">
   <path d="M 0 21.4686 
L 21.5145 21.4686 
L 21.5145 0 
L 0 0 
L 0 21.4686 
z
" style="fill: none"/>
  </g>
  <g id="axes_1">
   <g id="patch_2">
    <path d="M 10.769855 7.5213 
C 9.959202 7.5213 9.178101 7.829364 8.585795 8.382687 
C 7.993488 8.936011 7.633162 9.69425 7.578274 10.502825 
C 7.523386 11.3114 7.777939 12.111356 8.290038 12.739609 
C 8.802137 13.367861 9.534443 13.778602 10.337664 13.888096 
L 10.769855 10.719359 
L 10.769855 7.5213 
z
" style="fill: #0000ff"/>
   </g>
   <g id="patch_3">
    <path d="M 10.337664 13.888096 
C 10.771967 13.9473 11.213844 13.916637 11.635801 13.798016 
C 12.057758 13.679394 12.45086 13.475326 12.790649 13.198507 
C 13.130438 12.921689 13.409719 12.577983 13.611115 12.188773 
C 13.812511 11.799563 13.931758 11.373092 13.961436 10.935893 
C 13.991114 10.498695 13.930594 10.060027 13.783643 9.647184 
C 13.636692 9.23434 13.406421 8.856063 13.107157 8.535888 
C 12.807893 8.215712 12.445973 7.96042 12.043915 7.785892 
C 11.641858 7.611365 11.208177 7.5213 10.769854 7.5213 
L 10.769855 10.719359 
L 10.337664 13.888096 
z
" style="fill: #ff0000"/>
   </g>
   <g id="matplotlib.axis_1"/>
   <g id="matplotlib.axis_2"/>
  </g>
 </g>
</svg>
