<?xml version="1.0" encoding="utf-8" standalone="no"?>
<!DOCTYPE svg PUBLIC "-//W3C//DTD SVG 1.1//EN"
  "http://www.w3.org/Graphics/SVG/1.1/DTD/svg11.dtd">
<svg xmlns:xlink="http://www.w3.org/1999/xlink" width="371.52pt" height="280.512pt" viewBox="0 0 371.52 280.512" xmlns="http://www.w3.org/2000/svg" version="1.1">
 <metadata>
  <rdf:RDF xmlns:dc="http://purl.org/dc/elements/1.1/" xmlns:cc="http://creativecommons.org/ns#" xmlns:rdf="http://www.w3.org/1999/02/22-rdf-syntax-ns#">
   <cc:Work>
    <dc:type rdf:resource="http://purl.org/dc/dcmitype/StillImage"/>
    <dc:date>2021-12-10T18:14:58.747653</dc:date>
    <dc:format>image/svg+xml</dc:format>
    <dc:creator>
     <cc:Agent>
      <dc:title>Matplotlib v3.5.0, https://matplotlib.org/</dc:title>
     </cc:Agent>
    </dc:creator>
   </cc:Work>
  </rdf:RDF>
 </metadata>
 <defs>
  <style type="text/css">*{stroke-linejoin: round; stroke-linecap: butt}</style>
 </defs>
 <g id="figure_1">
  <g id="patch_1">
   <path d="M 0 280.512 
L 371.52 280.512 
L 371.52 0 
L 0 0 
L 0 280.512 
z
" style="fill: none"/>
  </g>
  <g id="axes_1">
   <g id="patch_2">
    <path d="M 186.078726 19.296 
C 161.016235 19.296 136.57017 27.132879 116.178976 41.704347 
C 95.787782 56.275814 80.454524 76.865083 72.335893 100.576183 
C 64.217261 124.287283 63.71262 149.953839 70.892948 173.965739 
C 78.073277 197.977639 92.585368 219.15371 112.388032 234.515446 
L 186.078726 139.521494 
L 186.078726 19.296 
z
" style="fill: #0000ff"/>
   </g>
   <g id="patch_3">
    <path d="M 112.388032 234.515446 
C 127.504562 246.241956 145.204083 254.19256 164.010686 257.70428 
C 182.817289 261.216 202.193287 260.188435 220.522971 254.707271 
C 238.852656 249.226107 255.611975 239.448052 269.40342 226.188469 
C 283.194865 212.928886 293.624134 196.566871 299.821559 178.466805 
C 306.018984 160.366738 307.80738 141.046106 305.037618 122.116 
C 302.267856 103.185894 295.019124 85.187532 283.895873 69.621744 
C 272.772621 54.055955 258.092868 41.367772 241.080714 32.615223 
C 224.068559 23.862675 205.210388 19.296 186.078726 19.296 
L 186.078726 139.521494 
L 112.388032 234.515446 
z
" style="fill: #ff0000"/>
   </g>
   <g id="matplotlib.axis_1"/>
   <g id="matplotlib.axis_2"/>
  </g>
 </g>
</svg>
