<?xml version="1.0" encoding="utf-8" standalone="no"?>
<!DOCTYPE svg PUBLIC "-//W3C//DTD SVG 1.1//EN"
  "http://www.w3.org/Graphics/SVG/1.1/DTD/svg11.dtd">
<svg xmlns:xlink="http://www.w3.org/1999/xlink" width="371.52pt" height="280.512pt" viewBox="0 0 371.52 280.512" xmlns="http://www.w3.org/2000/svg" version="1.1">
 <metadata>
  <rdf:RDF xmlns:dc="http://purl.org/dc/elements/1.1/" xmlns:cc="http://creativecommons.org/ns#" xmlns:rdf="http://www.w3.org/1999/02/22-rdf-syntax-ns#">
   <cc:Work>
    <dc:type rdf:resource="http://purl.org/dc/dcmitype/StillImage"/>
    <dc:date>2021-12-10T18:12:45.254133</dc:date>
    <dc:format>image/svg+xml</dc:format>
    <dc:creator>
     <cc:Agent>
      <dc:title>Matplotlib v3.5.0, https://matplotlib.org/</dc:title>
     </cc:Agent>
    </dc:creator>
   </cc:Work>
  </rdf:RDF>
 </metadata>
 <defs>
  <style type="text/css">*{stroke-linejoin: round; stroke-linecap: butt}</style>
 </defs>
 <g id="figure_1">
  <g id="patch_1">
   <path d="M 0 280.512 
L 371.52 280.512 
L 371.52 0 
L 0 0 
L 0 280.512 
z
" style="fill: none"/>
  </g>
  <g id="axes_1">
   <g id="patch_2">
    <path d="M 186.33995 19.296 
C 156.21034 19.296 127.15118 30.603658 104.946027 50.968446 
C 82.740874 71.333233 68.967544 99.308102 66.367303 129.3253 
C 63.767062 159.342497 72.524672 189.26911 90.897133 213.148936 
C 109.269594 237.028762 135.951426 253.164986 165.632225 258.346066 
L 186.33995 139.717937 
L 186.33995 19.296 
z
" style="fill: #0000ff"/>
   </g>
   <g id="patch_3">
    <path d="M 165.632225 258.346066 
C 182.073183 261.216 198.932651 260.636953 215.137961 256.645768 
C 231.34327 252.654582 246.543294 245.337736 259.770944 235.160758 
C 272.998595 224.983779 283.967263 212.167178 291.979076 197.526396 
C 299.99089 182.885615 304.872254 166.737884 306.312596 150.110586 
C 307.752938 133.483287 305.72105 116.736695 300.346209 100.936292 
C 294.971367 85.13589 286.370031 70.624034 275.089453 58.324027 
C 263.808875 46.024019 250.093476 36.202371 234.815885 29.483974 
C 219.538294 22.765577 203.029539 19.296003 186.339973 19.296 
L 186.33995 139.717937 
L 165.632225 258.346066 
z
" style="fill: #ff0000"/>
   </g>
   <g id="matplotlib.axis_1"/>
   <g id="matplotlib.axis_2"/>
  </g>
 </g>
</svg>
