<?xml version="1.0" encoding="utf-8" standalone="no"?>
<!DOCTYPE svg PUBLIC "-//W3C//DTD SVG 1.1//EN"
  "http://www.w3.org/Graphics/SVG/1.1/DTD/svg11.dtd">
<svg xmlns:xlink="http://www.w3.org/1999/xlink" width="371.52pt" height="280.512pt" viewBox="0 0 371.52 280.512" xmlns="http://www.w3.org/2000/svg" version="1.1">
 <metadata>
  <rdf:RDF xmlns:dc="http://purl.org/dc/elements/1.1/" xmlns:cc="http://creativecommons.org/ns#" xmlns:rdf="http://www.w3.org/1999/02/22-rdf-syntax-ns#">
   <cc:Work>
    <dc:type rdf:resource="http://purl.org/dc/dcmitype/StillImage"/>
    <dc:date>2021-12-10T18:12:48.545152</dc:date>
    <dc:format>image/svg+xml</dc:format>
    <dc:creator>
     <cc:Agent>
      <dc:title>Matplotlib v3.5.0, https://matplotlib.org/</dc:title>
     </cc:Agent>
    </dc:creator>
   </cc:Work>
  </rdf:RDF>
 </metadata>
 <defs>
  <style type="text/css">*{stroke-linejoin: round; stroke-linecap: butt}</style>
 </defs>
 <g id="figure_1">
  <g id="patch_1">
   <path d="M 0 280.512 
L 371.52 280.512 
L 371.52 0 
L 0 0 
L 0 280.512 
z
" style="fill: none"/>
  </g>
  <g id="axes_1">
   <g id="patch_2">
    <path d="M 184.965627 19.296 
C 167.814412 19.296 150.859653 22.961966 135.240496 30.047593 
C 119.621338 37.13322 105.695597 47.476184 94.398906 60.381569 
C 83.102215 73.286954 74.693368 88.459114 69.737331 104.878672 
C 64.781294 121.29823 63.391605 138.589035 65.661633 155.589363 
C 67.931661 172.589691 73.809403 188.910087 82.899948 203.454026 
C 91.990494 217.997966 104.08559 230.432265 118.3726 239.921497 
C 132.659611 249.41073 148.811237 255.737508 165.742295 258.476754 
C 182.673353 261.216 199.995972 260.30496 216.546294 255.804845 
L 184.965627 139.658882 
L 184.965627 19.296 
z
" style="fill: #0000ff"/>
   </g>
   <g id="patch_3">
    <path d="M 216.546294 255.804845 
C 244.67985 248.155191 269.097686 230.538111 285.22824 206.251914 
C 301.358794 181.965716 308.128395 152.626924 304.269623 123.728412 
C 300.410852 94.829899 286.180552 68.29519 264.242953 49.092172 
C 242.305354 29.889154 214.120652 19.296005 184.96565 19.296 
L 184.965627 139.658882 
L 216.546294 255.804845 
z
" style="fill: #ff0000"/>
   </g>
   <g id="matplotlib.axis_1"/>
   <g id="matplotlib.axis_2"/>
  </g>
 </g>
</svg>
