<?xml version="1.0" encoding="utf-8" standalone="no"?>
<!DOCTYPE svg PUBLIC "-//W3C//DTD SVG 1.1//EN"
  "http://www.w3.org/Graphics/SVG/1.1/DTD/svg11.dtd">
<svg xmlns:xlink="http://www.w3.org/1999/xlink" width="371.52pt" height="280.512pt" viewBox="0 0 371.52 280.512" xmlns="http://www.w3.org/2000/svg" version="1.1">
 <metadata>
  <rdf:RDF xmlns:dc="http://purl.org/dc/elements/1.1/" xmlns:cc="http://creativecommons.org/ns#" xmlns:rdf="http://www.w3.org/1999/02/22-rdf-syntax-ns#">
   <cc:Work>
    <dc:type rdf:resource="http://purl.org/dc/dcmitype/StillImage"/>
    <dc:date>2021-11-24T20:23:15.147364</dc:date>
    <dc:format>image/svg+xml</dc:format>
    <dc:creator>
     <cc:Agent>
      <dc:title>Matplotlib v3.5.0, https://matplotlib.org/</dc:title>
     </cc:Agent>
    </dc:creator>
   </cc:Work>
  </rdf:RDF>
 </metadata>
 <defs>
  <style type="text/css">*{stroke-linejoin: round; stroke-linecap: butt}</style>
 </defs>
 <g id="figure_1">
  <g id="patch_1">
   <path d="M 0 280.512 
L 371.52 280.512 
L 371.52 0 
L 0 0 
L 0 280.512 
z
" style="fill: none"/>
  </g>
  <g id="axes_1">
   <g id="patch_2">
    <path d="M 186.637074 19.296 
C 159.715864 19.296 133.553629 28.304558 112.339628 44.879168 
C 91.125626 61.453779 76.056009 84.659883 69.543815 110.781577 
C 63.031621 136.903271 65.44404 164.467684 76.394782 189.061034 
C 87.345523 213.654383 106.217129 233.889974 129.987763 246.527558 
L 186.637074 139.973176 
L 186.637074 19.296 
z
" style="fill: #0000ff"/>
   </g>
   <g id="patch_3">
    <path d="M 129.987763 246.527558 
C 146.173983 255.132913 164.110226 259.938037 182.43064 260.577018 
C 200.751053 261.216 218.978491 257.672197 235.724927 250.215471 
C 252.471362 242.758746 267.300642 231.583304 279.083511 217.540162 
C 290.86638 203.497019 299.295958 186.951922 303.730331 169.164786 
C 308.164704 151.377651 308.488379 132.811734 304.676709 114.880838 
C 300.86504 96.949942 293.017298 80.121069 281.731093 65.675743 
C 270.444887 51.230418 256.014163 39.544862 239.537824 31.508935 
C 223.061485 23.473009 204.968651 19.296003 186.637097 19.296 
L 186.637074 139.973176 
L 129.987763 246.527558 
z
" style="fill: #bf00bf"/>
   </g>
   <g id="matplotlib.axis_1"/>
   <g id="matplotlib.axis_2"/>
  </g>
 </g>
</svg>
