<?xml version="1.0" encoding="utf-8" standalone="no"?>
<!DOCTYPE svg PUBLIC "-//W3C//DTD SVG 1.1//EN"
  "http://www.w3.org/Graphics/SVG/1.1/DTD/svg11.dtd">
<svg xmlns:xlink="http://www.w3.org/1999/xlink" width="371.52pt" height="280.512pt" viewBox="0 0 371.52 280.512" xmlns="http://www.w3.org/2000/svg" version="1.1">
 <metadata>
  <rdf:RDF xmlns:dc="http://purl.org/dc/elements/1.1/" xmlns:cc="http://creativecommons.org/ns#" xmlns:rdf="http://www.w3.org/1999/02/22-rdf-syntax-ns#">
   <cc:Work>
    <dc:type rdf:resource="http://purl.org/dc/dcmitype/StillImage"/>
    <dc:date>2021-12-10T18:12:55.133201</dc:date>
    <dc:format>image/svg+xml</dc:format>
    <dc:creator>
     <cc:Agent>
      <dc:title>Matplotlib v3.5.0, https://matplotlib.org/</dc:title>
     </cc:Agent>
    </dc:creator>
   </cc:Work>
  </rdf:RDF>
 </metadata>
 <defs>
  <style type="text/css">*{stroke-linejoin: round; stroke-linecap: butt}</style>
 </defs>
 <g id="figure_1">
  <g id="patch_1">
   <path d="M 0 280.512 
L 371.52 280.512 
L 371.52 0 
L 0 0 
L 0 280.512 
z
" style="fill: none"/>
  </g>
  <g id="axes_1">
   <g id="patch_2">
    <path d="M 185.618287 19.296 
C 169.582307 19.296 153.705922 22.491545 138.918662 28.695542 
C 124.131401 34.899538 110.727599 43.988499 99.492022 55.430284 
C 88.256444 66.872069 79.41273 80.438935 73.478661 95.336567 
C 67.544592 110.2342 64.638282 126.166071 64.929892 142.199399 
C 65.221501 158.232726 68.705224 174.048377 75.177097 188.720374 
C 81.648969 203.392371 90.980172 216.628677 102.62438 227.654332 
C 114.268588 238.679986 127.99403 247.275529 142.997109 252.937708 
C 158.000188 258.599887 173.982274 261.216 190.007648 260.632878 
L 185.618287 140.004355 
L 185.618287 19.296 
z
" style="fill: #0000ff"/>
   </g>
   <g id="patch_3">
    <path d="M 190.007648 260.632878 
C 221.608841 259.482992 251.526249 245.960031 273.26826 222.998266 
C 295.01027 200.036502 306.881718 169.426202 306.306683 137.809323 
C 305.731648 106.192445 292.754964 76.034072 270.19237 53.878102 
C 247.629776 31.722132 217.240417 19.296006 185.61831 19.296 
L 185.618287 140.004355 
L 190.007648 260.632878 
z
" style="fill: #ff0000"/>
   </g>
   <g id="matplotlib.axis_1"/>
   <g id="matplotlib.axis_2"/>
  </g>
 </g>
</svg>
