<?xml version="1.0" encoding="utf-8" standalone="no"?>
<!DOCTYPE svg PUBLIC "-//W3C//DTD SVG 1.1//EN"
  "http://www.w3.org/Graphics/SVG/1.1/DTD/svg11.dtd">
<svg xmlns:xlink="http://www.w3.org/1999/xlink" width="371.52pt" height="280.512pt" viewBox="0 0 371.52 280.512" xmlns="http://www.w3.org/2000/svg" version="1.1">
 <metadata>
  <rdf:RDF xmlns:dc="http://purl.org/dc/elements/1.1/" xmlns:cc="http://creativecommons.org/ns#" xmlns:rdf="http://www.w3.org/1999/02/22-rdf-syntax-ns#">
   <cc:Work>
    <dc:type rdf:resource="http://purl.org/dc/dcmitype/StillImage"/>
    <dc:date>2021-11-24T20:23:19.648159</dc:date>
    <dc:format>image/svg+xml</dc:format>
    <dc:creator>
     <cc:Agent>
      <dc:title>Matplotlib v3.5.0, https://matplotlib.org/</dc:title>
     </cc:Agent>
    </dc:creator>
   </cc:Work>
  </rdf:RDF>
 </metadata>
 <defs>
  <style type="text/css">*{stroke-linejoin: round; stroke-linecap: butt}</style>
 </defs>
 <g id="figure_1">
  <g id="patch_1">
   <path d="M 0 280.512 
L 371.52 280.512 
L 371.52 0 
L 0 0 
L 0 280.512 
z
" style="fill: none"/>
  </g>
  <g id="axes_1">
   <g id="patch_2">
    <path d="M 186.442905 19.296 
C 156.714304 19.296 128.012313 30.297125 105.899686 50.16724 
C 83.787059 70.037354 69.791015 97.404119 66.624137 126.963561 
C 63.45726 156.523003 71.338271 186.233585 88.739746 210.337078 
C 106.141222 234.440571 131.86132 251.272256 160.915209 257.569971 
L 186.442905 139.800452 
L 186.442905 19.296 
z
" style="fill: #0000ff"/>
   </g>
   <g id="patch_3">
    <path d="M 160.915209 257.569971 
C 177.43874 261.151608 194.532574 261.216 211.08262 257.75895 
C 227.632665 254.301901 243.271386 247.400182 256.979527 237.503614 
C 270.687668 227.607046 282.160806 214.935407 290.651177 200.314573 
C 299.141549 185.693739 304.460603 169.448402 306.261672 152.637354 
C 308.06274 135.826306 306.305825 118.822878 301.105433 102.73527 
C 295.905041 86.647663 287.37666 71.833142 276.076129 59.257245 
C 264.775597 46.681348 250.953872 36.623355 235.511785 29.738797 
C 220.069698 22.854238 203.35018 19.296003 186.442928 19.296 
L 186.442905 139.800452 
L 160.915209 257.569971 
z
" style="fill: #bf00bf"/>
   </g>
   <g id="matplotlib.axis_1"/>
   <g id="matplotlib.axis_2"/>
  </g>
 </g>
</svg>
