<?xml version="1.0" encoding="utf-8" standalone="no"?>
<!DOCTYPE svg PUBLIC "-//W3C//DTD SVG 1.1//EN"
  "http://www.w3.org/Graphics/SVG/1.1/DTD/svg11.dtd">
<svg xmlns:xlink="http://www.w3.org/1999/xlink" width="371.52pt" height="280.512pt" viewBox="0 0 371.52 280.512" xmlns="http://www.w3.org/2000/svg" version="1.1">
 <metadata>
  <rdf:RDF xmlns:dc="http://purl.org/dc/elements/1.1/" xmlns:cc="http://creativecommons.org/ns#" xmlns:rdf="http://www.w3.org/1999/02/22-rdf-syntax-ns#">
   <cc:Work>
    <dc:type rdf:resource="http://purl.org/dc/dcmitype/StillImage"/>
    <dc:date>2022-01-14T17:15:35.639554</dc:date>
    <dc:format>image/svg+xml</dc:format>
    <dc:creator>
     <cc:Agent>
      <dc:title>Matplotlib v3.5.1, https://matplotlib.org/</dc:title>
     </cc:Agent>
    </dc:creator>
   </cc:Work>
  </rdf:RDF>
 </metadata>
 <defs>
  <style type="text/css">*{stroke-linejoin: round; stroke-linecap: butt}</style>
 </defs>
 <g id="figure_1">
  <g id="patch_1">
   <path d="M 0 280.512 
L 371.52 280.512 
L 371.52 0 
L 0 0 
L 0 280.512 
z
" style="fill: none"/>
  </g>
  <g id="axes_1">
   <g id="patch_2">
    <path d="M 185.705705 19.296 
C 169.765699 19.296 153.982046 22.449523 139.265799 28.574543 
C 124.549552 34.699564 111.189411 43.675922 99.956538 54.985493 
C 88.723666 66.295064 79.838428 79.715978 73.813689 94.473563 
C 67.788951 109.231149 64.742905 125.035895 64.851372 140.975533 
C 64.95984 156.91517 68.220693 172.676998 74.445712 187.351225 
C 80.670731 202.025453 89.737794 215.324203 101.12354 226.479856 
C 112.509286 237.63551 125.99035 246.429217 140.788591 252.353394 
C 155.586832 258.277572 171.411939 261.216 187.35047 260.99907 
L 185.705705 140.153131 
L 185.705705 19.296 
z
" style="fill: #0000ff; stroke: #000000; stroke-width: 2; stroke-linejoin: miter"/>
   </g>
   <g id="patch_3">
    <path d="M 187.35047 260.99907 
C 219.246324 260.564954 249.707959 247.520219 272.032422 224.735304 
C 294.356885 201.95039 306.777095 171.228822 306.560038 139.330752 
C 306.342981 107.432682 293.505838 76.882984 270.873367 54.403988 
C 248.240896 31.924993 217.604559 19.296012 185.70575 19.296 
L 185.705705 140.153131 
L 187.35047 260.99907 
z
" style="fill: #ff0000; stroke: #000000; stroke-width: 2; stroke-linejoin: miter"/>
   </g>
   <g id="matplotlib.axis_1"/>
   <g id="matplotlib.axis_2"/>
  </g>
 </g>
</svg>
