<?xml version="1.0" encoding="utf-8" standalone="no"?>
<!DOCTYPE svg PUBLIC "-//W3C//DTD SVG 1.1//EN"
  "http://www.w3.org/Graphics/SVG/1.1/DTD/svg11.dtd">
<svg xmlns:xlink="http://www.w3.org/1999/xlink" width="371.52pt" height="280.512pt" viewBox="0 0 371.52 280.512" xmlns="http://www.w3.org/2000/svg" version="1.1">
 <metadata>
  <rdf:RDF xmlns:dc="http://purl.org/dc/elements/1.1/" xmlns:cc="http://creativecommons.org/ns#" xmlns:rdf="http://www.w3.org/1999/02/22-rdf-syntax-ns#">
   <cc:Work>
    <dc:type rdf:resource="http://purl.org/dc/dcmitype/StillImage"/>
    <dc:date>2022-01-14T17:15:38.617033</dc:date>
    <dc:format>image/svg+xml</dc:format>
    <dc:creator>
     <cc:Agent>
      <dc:title>Matplotlib v3.5.1, https://matplotlib.org/</dc:title>
     </cc:Agent>
    </dc:creator>
   </cc:Work>
  </rdf:RDF>
 </metadata>
 <defs>
  <style type="text/css">*{stroke-linejoin: round; stroke-linecap: butt}</style>
 </defs>
 <g id="figure_1">
  <g id="patch_1">
   <path d="M 0 280.512 
L 371.52 280.512 
L 371.52 0 
L 0 0 
L 0 280.512 
z
" style="fill: none"/>
  </g>
  <g id="axes_1">
   <g id="patch_2">
    <path d="M 186.053463 19.296 
C 154.925066 19.296 124.976151 31.35711 102.535829 52.930451 
C 80.095508 74.503793 66.864346 103.954502 65.63849 135.058752 
C 64.412633 166.163002 75.284979 196.56366 95.957872 219.836146 
C 116.630764 243.108633 145.537576 257.489318 176.569423 259.939129 
L 186.053463 139.804454 
L 186.053463 19.296 
z
" style="fill: #0000ff; stroke: #000000; stroke-width: 2; stroke-linejoin: miter"/>
   </g>
   <g id="patch_3">
    <path d="M 176.569423 259.939129 
C 192.743588 261.216 209.010284 259.213439 224.391818 254.051807 
C 239.773352 248.890176 253.955261 240.675001 266.085156 229.900045 
C 278.21505 219.125089 288.044945 206.010638 294.984025 191.344923 
C 301.923105 176.679208 305.829505 160.762058 306.468436 144.550155 
C 307.107367 128.338252 304.465766 112.163037 298.702404 96.996703 
C 292.939041 81.830369 284.171746 67.982981 272.927465 56.28682 
C 261.683184 44.590659 248.191799 35.284845 233.264195 28.928694 
C 218.336591 22.572542 202.277951 19.296 186.053463 19.296 
L 186.053463 139.804454 
L 176.569423 259.939129 
z
" style="fill: #ff0000; stroke: #000000; stroke-width: 2; stroke-linejoin: miter"/>
   </g>
   <g id="matplotlib.axis_1"/>
   <g id="matplotlib.axis_2"/>
  </g>
 </g>
</svg>
