<?xml version="1.0" encoding="utf-8" standalone="no"?>
<!DOCTYPE svg PUBLIC "-//W3C//DTD SVG 1.1//EN"
  "http://www.w3.org/Graphics/SVG/1.1/DTD/svg11.dtd">
<svg xmlns:xlink="http://www.w3.org/1999/xlink" width="371.52pt" height="280.512pt" viewBox="0 0 371.52 280.512" xmlns="http://www.w3.org/2000/svg" version="1.1">
 <metadata>
  <rdf:RDF xmlns:dc="http://purl.org/dc/elements/1.1/" xmlns:cc="http://creativecommons.org/ns#" xmlns:rdf="http://www.w3.org/1999/02/22-rdf-syntax-ns#">
   <cc:Work>
    <dc:type rdf:resource="http://purl.org/dc/dcmitype/StillImage"/>
    <dc:date>2021-11-24T20:23:24.118614</dc:date>
    <dc:format>image/svg+xml</dc:format>
    <dc:creator>
     <cc:Agent>
      <dc:title>Matplotlib v3.5.0, https://matplotlib.org/</dc:title>
     </cc:Agent>
    </dc:creator>
   </cc:Work>
  </rdf:RDF>
 </metadata>
 <defs>
  <style type="text/css">*{stroke-linejoin: round; stroke-linecap: butt}</style>
 </defs>
 <g id="figure_1">
  <g id="patch_1">
   <path d="M 0 280.512 
L 371.52 280.512 
L 371.52 0 
L 0 0 
L 0 280.512 
z
" style="fill: none"/>
  </g>
  <g id="axes_1">
   <g id="patch_2">
    <path d="M 185.824209 19.296 
C 153.956527 19.296 123.347973 31.902207 100.723398 54.344974 
C 78.098824 76.787742 65.246074 107.293592 64.988962 139.160237 
C 64.731851 171.026882 77.090695 201.736148 99.350194 224.541057 
C 121.609693 247.345965 152.010853 260.444421 183.874387 260.958628 
L 185.824209 140.13518 
L 185.824209 19.296 
z
" style="fill: #0000ff"/>
   </g>
   <g id="patch_3">
    <path d="M 183.874387 260.958628 
C 199.822793 261.216 215.665468 258.313116 230.486505 252.4178 
C 245.307542 246.522484 258.815714 237.750576 270.230078 226.609203 
C 281.644442 215.467831 290.740711 202.175917 296.993005 187.501902 
C 303.245299 172.827887 306.530763 157.060109 306.659456 141.110146 
C 306.788149 125.160182 303.757543 109.341443 297.742844 94.568451 
C 291.728144 79.79546 282.847539 66.358498 271.614439 55.034393 
C 260.381339 43.710288 247.016469 34.721553 232.292489 28.587852 
C 217.568509 22.45415 201.774737 19.296006 185.824255 19.296 
L 185.824209 140.13518 
L 183.874387 260.958628 
z
" style="fill: #bf00bf"/>
   </g>
   <g id="matplotlib.axis_1"/>
   <g id="matplotlib.axis_2"/>
  </g>
 </g>
</svg>
