<?xml version="1.0" encoding="utf-8" standalone="no"?>
<!DOCTYPE svg PUBLIC "-//W3C//DTD SVG 1.1//EN"
  "http://www.w3.org/Graphics/SVG/1.1/DTD/svg11.dtd">
<svg xmlns:xlink="http://www.w3.org/1999/xlink" width="371.52pt" height="280.512pt" viewBox="0 0 371.52 280.512" xmlns="http://www.w3.org/2000/svg" version="1.1">
 <metadata>
  <rdf:RDF xmlns:dc="http://purl.org/dc/elements/1.1/" xmlns:cc="http://creativecommons.org/ns#" xmlns:rdf="http://www.w3.org/1999/02/22-rdf-syntax-ns#">
   <cc:Work>
    <dc:type rdf:resource="http://purl.org/dc/dcmitype/StillImage"/>
    <dc:date>2021-11-24T20:23:09.522395</dc:date>
    <dc:format>image/svg+xml</dc:format>
    <dc:creator>
     <cc:Agent>
      <dc:title>Matplotlib v3.5.0, https://matplotlib.org/</dc:title>
     </cc:Agent>
    </dc:creator>
   </cc:Work>
  </rdf:RDF>
 </metadata>
 <defs>
  <style type="text/css">*{stroke-linejoin: round; stroke-linecap: butt}</style>
 </defs>
 <g id="figure_1">
  <g id="patch_1">
   <path d="M 0 280.512 
L 371.52 280.512 
L 371.52 0 
L 0 0 
L 0 280.512 
z
" style="fill: none"/>
  </g>
  <g id="axes_1">
   <g id="patch_2">
    <path d="M 186.331993 19.296003 
C 156.173 19.296003 127.087696 30.626173 104.875913 51.027191 
C 82.664129 71.428208 68.907387 99.447482 66.348886 129.497755 
C 63.790385 159.548029 72.612295 189.489664 91.05546 213.352072 
C 109.498625 237.214481 136.249857 253.298611 165.974755 258.397167 
L 186.331993 139.7132 
L 186.331993 19.296003 
z
" style="fill: #0000ff"/>
   </g>
   <g id="patch_3">
    <path d="M 165.974755 258.397167 
C 182.408726 261.216 199.250452 260.590972 215.43028 256.561781 
C 231.610108 252.53259 246.778088 245.186381 259.97087 234.989729 
C 273.163652 224.793077 284.095892 211.966521 292.073261 197.324705 
C 300.05063 182.682888 304.900587 166.542493 306.315101 149.928633 
C 307.729615 133.314773 305.678092 116.586782 300.290828 100.807093 
C 294.903565 85.027403 286.29708 70.537309 275.017991 58.257107 
C 263.738902 45.976905 250.03116 36.1722 234.765375 29.465711 
C 219.499589 22.759222 203.005938 19.296 186.33197 19.296003 
L 186.331993 139.7132 
L 165.974755 258.397167 
z
" style="fill: #bf00bf"/>
   </g>
   <g id="matplotlib.axis_1"/>
   <g id="matplotlib.axis_2"/>
  </g>
 </g>
</svg>
