<?xml version="1.0" encoding="utf-8" standalone="no"?>
<!DOCTYPE svg PUBLIC "-//W3C//DTD SVG 1.1//EN"
  "http://www.w3.org/Graphics/SVG/1.1/DTD/svg11.dtd">
<svg xmlns:xlink="http://www.w3.org/1999/xlink" width="371.52pt" height="280.512pt" viewBox="0 0 371.52 280.512" xmlns="http://www.w3.org/2000/svg" version="1.1">
 <metadata>
  <rdf:RDF xmlns:dc="http://purl.org/dc/elements/1.1/" xmlns:cc="http://creativecommons.org/ns#" xmlns:rdf="http://www.w3.org/1999/02/22-rdf-syntax-ns#">
   <cc:Work>
    <dc:type rdf:resource="http://purl.org/dc/dcmitype/StillImage"/>
    <dc:date>2022-01-14T17:15:23.926747</dc:date>
    <dc:format>image/svg+xml</dc:format>
    <dc:creator>
     <cc:Agent>
      <dc:title>Matplotlib v3.5.1, https://matplotlib.org/</dc:title>
     </cc:Agent>
    </dc:creator>
   </cc:Work>
  </rdf:RDF>
 </metadata>
 <defs>
  <style type="text/css">*{stroke-linejoin: round; stroke-linecap: butt}</style>
 </defs>
 <g id="figure_1">
  <g id="patch_1">
   <path d="M 0 280.512 
L 371.52 280.512 
L 371.52 0 
L 0 0 
L 0 280.512 
z
" style="fill: none"/>
  </g>
  <g id="axes_1">
   <g id="patch_2">
    <path d="M 185.916816 19.296003 
C 154.343032 19.296003 123.996794 31.686577 101.446307 53.785884 
C 78.895819 75.885191 65.894548 105.974847 65.256515 137.542185 
C 64.618482 169.109522 76.3933 199.699947 98.032401 222.692406 
C 119.671502 245.684864 149.492289 259.291523 181.040287 260.567328 
L 185.916816 139.980947 
L 185.916816 19.296003 
z
" style="fill: #0000ff; stroke: #000000; stroke-width: 2; stroke-linejoin: miter"/>
   </g>
   <g id="patch_3">
    <path d="M 181.040287 260.567328 
C 197.080595 261.216 213.090285 258.657695 228.129657 253.042576 
C 243.169028 247.427456 256.937961 238.867574 268.628278 227.865358 
C 280.318596 216.863143 289.69701 203.638149 296.213048 188.966629 
C 302.729086 174.295108 306.252716 158.46984 306.577117 142.419698 
C 306.901518 126.369557 304.020215 110.414834 298.10233 95.492003 
C 292.184444 80.569171 283.348071 66.976026 272.111867 55.510426 
C 260.875662 44.044826 247.463853 34.935575 232.663654 28.717346 
C 217.863454 22.499117 201.970213 19.296 185.916793 19.296003 
L 185.916816 139.980947 
L 181.040287 260.567328 
z
" style="fill: #ff0000; stroke: #000000; stroke-width: 2; stroke-linejoin: miter"/>
   </g>
   <g id="matplotlib.axis_1"/>
   <g id="matplotlib.axis_2"/>
  </g>
 </g>
</svg>
