<?xml version="1.0" encoding="utf-8" standalone="no"?>
<!DOCTYPE svg PUBLIC "-//W3C//DTD SVG 1.1//EN"
  "http://www.w3.org/Graphics/SVG/1.1/DTD/svg11.dtd">
<svg xmlns:xlink="http://www.w3.org/1999/xlink" width="371.52pt" height="280.512pt" viewBox="0 0 371.52 280.512" xmlns="http://www.w3.org/2000/svg" version="1.1">
 <metadata>
  <rdf:RDF xmlns:dc="http://purl.org/dc/elements/1.1/" xmlns:cc="http://creativecommons.org/ns#" xmlns:rdf="http://www.w3.org/1999/02/22-rdf-syntax-ns#">
   <cc:Work>
    <dc:type rdf:resource="http://purl.org/dc/dcmitype/StillImage"/>
    <dc:date>2021-11-24T20:23:12.294610</dc:date>
    <dc:format>image/svg+xml</dc:format>
    <dc:creator>
     <cc:Agent>
      <dc:title>Matplotlib v3.5.0, https://matplotlib.org/</dc:title>
     </cc:Agent>
    </dc:creator>
   </cc:Work>
  </rdf:RDF>
 </metadata>
 <defs>
  <style type="text/css">*{stroke-linejoin: round; stroke-linecap: butt}</style>
 </defs>
 <g id="figure_1">
  <g id="patch_1">
   <path d="M 0 280.512 
L 371.52 280.512 
L 371.52 0 
L 0 0 
L 0 280.512 
z
" style="fill: none"/>
  </g>
  <g id="axes_1">
   <g id="patch_2">
    <path d="M 185.472467 19.296006 
C 169.255946 19.296006 153.205012 22.569162 138.283361 28.918954 
C 123.36171 35.268747 109.874071 44.5655 98.63024 56.251038 
C 87.38641 67.936577 78.616009 81.772258 72.845611 96.927391 
C 67.075213 112.082524 64.422661 128.247609 65.047214 144.452098 
C 65.671767 160.656588 69.560671 176.569553 76.480435 191.235581 
C 83.4002 205.90161 93.209511 219.021192 105.319417 229.806631 
C 117.429324 240.59207 131.592519 248.823106 146.958645 254.005547 
C 162.324771 259.187988 178.580023 261.216 194.748436 259.96782 
L 185.472467 139.81067 
L 185.472467 19.296006 
z
" style="fill: #0000ff"/>
   </g>
   <g id="patch_3">
    <path d="M 194.748436 259.96782 
C 225.804093 257.570366 254.752182 243.223953 275.468432 219.963715 
C 296.184681 196.703478 307.097339 166.294182 305.897719 135.169231 
C 304.698099 104.04428 291.477216 74.565141 269.032086 52.968432 
C 246.586957 31.371724 216.620504 19.296 185.472444 19.296006 
L 185.472467 139.81067 
L 194.748436 259.96782 
z
" style="fill: #bf00bf"/>
   </g>
   <g id="matplotlib.axis_1"/>
   <g id="matplotlib.axis_2"/>
  </g>
 </g>
</svg>
