<?xml version="1.0" encoding="utf-8" standalone="no"?>
<!DOCTYPE svg PUBLIC "-//W3C//DTD SVG 1.1//EN"
  "http://www.w3.org/Graphics/SVG/1.1/DTD/svg11.dtd">
<svg xmlns:xlink="http://www.w3.org/1999/xlink" width="371.52pt" height="280.512pt" viewBox="0 0 371.52 280.512" xmlns="http://www.w3.org/2000/svg" version="1.1">
 <metadata>
  <rdf:RDF xmlns:dc="http://purl.org/dc/elements/1.1/" xmlns:cc="http://creativecommons.org/ns#" xmlns:rdf="http://www.w3.org/1999/02/22-rdf-syntax-ns#">
   <cc:Work>
    <dc:type rdf:resource="http://purl.org/dc/dcmitype/StillImage"/>
    <dc:date>2021-11-24T20:23:15.023752</dc:date>
    <dc:format>image/svg+xml</dc:format>
    <dc:creator>
     <cc:Agent>
      <dc:title>Matplotlib v3.5.0, https://matplotlib.org/</dc:title>
     </cc:Agent>
    </dc:creator>
   </cc:Work>
  </rdf:RDF>
 </metadata>
 <defs>
  <style type="text/css">*{stroke-linejoin: round; stroke-linecap: butt}</style>
 </defs>
 <g id="figure_1">
  <g id="patch_1">
   <path d="M 0 280.512 
L 371.52 280.512 
L 371.52 0 
L 0 0 
L 0 280.512 
z
" style="fill: none"/>
  </g>
  <g id="axes_1">
   <g id="patch_2">
    <path d="M 186.517535 19.296 
C 157.164909 19.296 128.801995 30.030197 106.804329 49.46417 
C 84.806663 68.898143 70.65768 95.721345 67.038992 124.850055 
C 63.420305 153.978764 70.575943 183.448659 87.149721 207.6744 
C 103.723498 231.900141 128.597747 249.248041 157.058125 256.430206 
L 186.517535 139.692988 
L 186.517535 19.296 
z
" style="fill: #0000ff"/>
   </g>
   <g id="patch_3">
    <path d="M 157.058125 256.430206 
C 173.602732 260.605347 190.847465 261.216 207.645954 258.22157 
C 224.444442 255.227141 240.416017 248.695485 254.498942 239.060806 
C 268.581867 229.426126 280.45701 216.906754 289.334953 202.334933 
C 298.212896 187.763113 303.892456 171.469055 305.996076 154.535933 
C 308.099695 137.602811 306.579704 120.414346 301.537147 104.113167 
C 296.494589 87.811988 288.043734 72.767496 276.746364 59.979795 
C 265.448995 47.192095 251.561121 36.950969 236.00596 29.937211 
C 220.450799 22.923454 203.580846 19.296003 186.517557 19.296 
L 186.517535 139.692988 
L 157.058125 256.430206 
z
" style="fill: #bf00bf"/>
   </g>
   <g id="matplotlib.axis_1"/>
   <g id="matplotlib.axis_2"/>
  </g>
 </g>
</svg>
