<?xml version="1.0" encoding="utf-8" standalone="no"?>
<!DOCTYPE svg PUBLIC "-//W3C//DTD SVG 1.1//EN"
  "http://www.w3.org/Graphics/SVG/1.1/DTD/svg11.dtd">
<svg xmlns:xlink="http://www.w3.org/1999/xlink" width="371.52pt" height="280.512pt" viewBox="0 0 371.52 280.512" xmlns="http://www.w3.org/2000/svg" version="1.1">
 <metadata>
  <rdf:RDF xmlns:dc="http://purl.org/dc/elements/1.1/" xmlns:cc="http://creativecommons.org/ns#" xmlns:rdf="http://www.w3.org/1999/02/22-rdf-syntax-ns#">
   <cc:Work>
    <dc:type rdf:resource="http://purl.org/dc/dcmitype/StillImage"/>
    <dc:date>2022-01-14T17:15:31.519895</dc:date>
    <dc:format>image/svg+xml</dc:format>
    <dc:creator>
     <cc:Agent>
      <dc:title>Matplotlib v3.5.1, https://matplotlib.org/</dc:title>
     </cc:Agent>
    </dc:creator>
   </cc:Work>
  </rdf:RDF>
 </metadata>
 <defs>
  <style type="text/css">*{stroke-linejoin: round; stroke-linecap: butt}</style>
 </defs>
 <g id="figure_1">
  <g id="patch_1">
   <path d="M 0 280.512 
L 371.52 280.512 
L 371.52 0 
L 0 0 
L 0 280.512 
z
" style="fill: none"/>
  </g>
  <g id="axes_1">
   <g id="patch_2">
    <path d="M 185.363256 19.296 
C 168.990749 19.296 152.788917 22.634914 137.750434 29.108168 
C 122.711951 35.581423 109.150355 45.054058 97.896553 56.945691 
C 86.642752 68.837324 77.931376 82.900029 72.296166 98.272191 
C 66.660955 113.644354 64.219398 130.005482 65.121086 146.353141 
C 66.022775 162.7008 70.24891 178.694158 77.54056 193.353313 
C 84.83221 208.012468 95.03735 221.031793 107.53072 231.613603 
C 120.024091 242.195412 134.545217 250.119087 150.204399 254.899148 
C 165.863581 259.67921 182.334343 261.216 198.607532 259.41536 
L 185.363256 139.720937 
L 185.363256 19.296 
z
" style="fill: #0000ff; stroke: #000000; stroke-width: 2; stroke-linejoin: miter"/>
   </g>
   <g id="patch_3">
    <path d="M 198.607532 259.41536 
C 229.201149 256.030153 257.362106 241.041026 277.255922 217.553473 
C 297.149737 194.065921 307.300602 163.822354 305.605426 133.088734 
C 303.91025 102.355114 290.494789 73.411396 268.138503 52.254234 
C 245.782216 31.097073 216.143591 19.296 185.363256 19.296 
L 185.363256 139.720937 
L 198.607532 259.41536 
z
" style="fill: #ff0000; stroke: #000000; stroke-width: 2; stroke-linejoin: miter"/>
   </g>
   <g id="matplotlib.axis_1"/>
   <g id="matplotlib.axis_2"/>
  </g>
 </g>
</svg>
