<?xml version="1.0" encoding="utf-8" standalone="no"?>
<!DOCTYPE svg PUBLIC "-//W3C//DTD SVG 1.1//EN"
  "http://www.w3.org/Graphics/SVG/1.1/DTD/svg11.dtd">
<svg xmlns:xlink="http://www.w3.org/1999/xlink" width="371.52pt" height="280.512pt" viewBox="0 0 371.52 280.512" xmlns="http://www.w3.org/2000/svg" version="1.1">
 <metadata>
  <rdf:RDF xmlns:dc="http://purl.org/dc/elements/1.1/" xmlns:cc="http://creativecommons.org/ns#" xmlns:rdf="http://www.w3.org/1999/02/22-rdf-syntax-ns#">
   <cc:Work>
    <dc:type rdf:resource="http://purl.org/dc/dcmitype/StillImage"/>
    <dc:date>2021-12-10T18:12:56.099524</dc:date>
    <dc:format>image/svg+xml</dc:format>
    <dc:creator>
     <cc:Agent>
      <dc:title>Matplotlib v3.5.0, https://matplotlib.org/</dc:title>
     </cc:Agent>
    </dc:creator>
   </cc:Work>
  </rdf:RDF>
 </metadata>
 <defs>
  <style type="text/css">*{stroke-linejoin: round; stroke-linecap: butt}</style>
 </defs>
 <g id="figure_1">
  <g id="patch_1">
   <path d="M 0 280.512 
L 371.52 280.512 
L 371.52 0 
L 0 0 
L 0 280.512 
z
" style="fill: none"/>
  </g>
  <g id="axes_1">
   <g id="patch_2">
    <path d="M 186.616766 19.296003 
C 157.82153 19.296003 129.961205 29.63089 108.132196 48.410134 
C 86.303187 67.189378 71.922964 93.193547 67.622057 121.665776 
C 63.32115 150.138005 69.37884 179.229447 84.687011 203.618492 
C 99.995182 228.007538 123.559797 246.110481 151.070251 254.615804 
L 186.616766 139.640665 
L 186.616766 19.296003 
z
" style="fill: #0000ff"/>
   </g>
   <g id="patch_3">
    <path d="M 151.070251 254.615804 
C 167.620209 259.732505 185.08149 261.216 202.257434 258.964623 
C 219.433378 256.713246 235.922443 250.779629 250.594599 241.570417 
C 265.266755 232.361205 277.778993 220.091691 287.273824 205.602732 
C 296.768654 191.113773 303.024105 174.744093 305.611478 157.615542 
C 308.19885 140.486992 307.057655 123.000003 302.266102 106.352999 
C 297.474549 89.705994 289.144655 74.288149 277.847286 61.156081 
C 266.549917 48.024014 252.549184 37.484727 236.804588 30.260501 
C 221.059992 23.036276 203.939612 19.296 186.616744 19.296003 
L 186.616766 139.640665 
L 151.070251 254.615804 
z
" style="fill: #ff0000"/>
   </g>
   <g id="matplotlib.axis_1"/>
   <g id="matplotlib.axis_2"/>
  </g>
 </g>
</svg>
