<?xml version="1.0" encoding="utf-8" standalone="no"?>
<!DOCTYPE svg PUBLIC "-//W3C//DTD SVG 1.1//EN"
  "http://www.w3.org/Graphics/SVG/1.1/DTD/svg11.dtd">
<svg xmlns:xlink="http://www.w3.org/1999/xlink" width="371.52pt" height="280.512pt" viewBox="0 0 371.52 280.512" xmlns="http://www.w3.org/2000/svg" version="1.1">
 <metadata>
  <rdf:RDF xmlns:dc="http://purl.org/dc/elements/1.1/" xmlns:cc="http://creativecommons.org/ns#" xmlns:rdf="http://www.w3.org/1999/02/22-rdf-syntax-ns#">
   <cc:Work>
    <dc:type rdf:resource="http://purl.org/dc/dcmitype/StillImage"/>
    <dc:date>2021-12-10T18:13:04.859068</dc:date>
    <dc:format>image/svg+xml</dc:format>
    <dc:creator>
     <cc:Agent>
      <dc:title>Matplotlib v3.5.0, https://matplotlib.org/</dc:title>
     </cc:Agent>
    </dc:creator>
   </cc:Work>
  </rdf:RDF>
 </metadata>
 <defs>
  <style type="text/css">*{stroke-linejoin: round; stroke-linecap: butt}</style>
 </defs>
 <g id="figure_1">
  <g id="patch_1">
   <path d="M 0 280.512 
L 371.52 280.512 
L 371.52 0 
L 0 0 
L 0 280.512 
z
" style="fill: none"/>
  </g>
  <g id="axes_1">
   <g id="patch_2">
    <path d="M 186.301594 19.296 
C 160.263554 19.296 134.916027 27.748321 114.089084 43.375797 
C 93.262141 59.003273 78.06042 80.977041 70.780935 105.976815 
C 63.501449 130.976588 64.530296 157.676406 73.712014 182.041866 
C 82.893732 206.407325 99.741332 227.14611 121.709105 241.124541 
L 186.301594 139.614357 
L 186.301594 19.296 
z
" style="fill: #0000ff"/>
   </g>
   <g id="patch_3">
    <path d="M 121.709105 241.124541 
C 137.463514 251.149314 155.33751 257.370164 173.911682 259.293082 
C 192.485854 261.216 211.255162 258.7887 228.729097 252.20394 
C 246.203033 245.619179 261.906471 235.056 274.59237 221.353247 
C 287.278268 207.650494 296.601693 191.180749 301.822251 173.251911 
C 307.042809 155.323072 308.018551 136.422632 304.671991 118.051513 
C 301.325431 99.680393 293.747565 82.338114 282.540165 67.401861 
C 271.332765 52.465607 256.800566 40.341503 240.097599 31.992348 
C 223.394633 23.643192 204.97506 19.296003 186.301617 19.296 
L 186.301594 139.614357 
L 121.709105 241.124541 
z
" style="fill: #ff0000"/>
   </g>
   <g id="matplotlib.axis_1"/>
   <g id="matplotlib.axis_2"/>
  </g>
 </g>
</svg>
