<?xml version="1.0" encoding="utf-8" standalone="no"?>
<!DOCTYPE svg PUBLIC "-//W3C//DTD SVG 1.1//EN"
  "http://www.w3.org/Graphics/SVG/1.1/DTD/svg11.dtd">
<svg xmlns:xlink="http://www.w3.org/1999/xlink" width="371.52pt" height="280.512pt" viewBox="0 0 371.52 280.512" xmlns="http://www.w3.org/2000/svg" version="1.1">
 <metadata>
  <rdf:RDF xmlns:dc="http://purl.org/dc/elements/1.1/" xmlns:cc="http://creativecommons.org/ns#" xmlns:rdf="http://www.w3.org/1999/02/22-rdf-syntax-ns#">
   <cc:Work>
    <dc:type rdf:resource="http://purl.org/dc/dcmitype/StillImage"/>
    <dc:date>2021-11-24T20:23:21.297377</dc:date>
    <dc:format>image/svg+xml</dc:format>
    <dc:creator>
     <cc:Agent>
      <dc:title>Matplotlib v3.5.0, https://matplotlib.org/</dc:title>
     </cc:Agent>
    </dc:creator>
   </cc:Work>
  </rdf:RDF>
 </metadata>
 <defs>
  <style type="text/css">*{stroke-linejoin: round; stroke-linecap: butt}</style>
 </defs>
 <g id="figure_1">
  <g id="patch_1">
   <path d="M 0 280.512 
L 371.52 280.512 
L 371.52 0 
L 0 0 
L 0 280.512 
z
" style="fill: none"/>
  </g>
  <g id="axes_1">
   <g id="patch_2">
    <path d="M 185.747322 19.296 
C 169.85025 19.296 154.108069 22.43053 139.423481 28.519847 
C 124.738893 34.609164 111.398053 43.534607 100.165964 54.784365 
C 88.933874 66.034123 80.029411 79.388976 73.963183 94.083117 
C 67.896955 108.777258 64.787173 124.524346 64.81216 140.421398 
C 64.837147 156.318451 67.996416 172.055686 74.108807 186.730684 
C 80.221198 201.405683 89.167599 214.732477 100.434998 225.94687 
C 111.702397 237.161264 125.071229 246.044724 139.774887 252.087849 
C 154.478545 258.130973 170.230501 261.216 186.127495 261.166026 
L 185.747322 140.231312 
L 185.747322 19.296 
z
" style="fill: #0000ff"/>
   </g>
   <g id="patch_3">
    <path d="M 186.127495 261.166026 
C 218.156204 261.06534 248.868512 248.244799 271.462881 225.543636 
C 294.05725 202.842473 306.732827 172.070052 306.682484 140.041225 
C 306.632141 108.012398 293.85989 77.279976 271.194269 54.649953 
C 248.528648 32.01993 217.776189 19.296 185.747322 19.296 
L 185.747322 140.231312 
L 186.127495 261.166026 
z
" style="fill: #bf00bf"/>
   </g>
   <g id="matplotlib.axis_1"/>
   <g id="matplotlib.axis_2"/>
  </g>
 </g>
</svg>
