<?xml version="1.0" encoding="utf-8" standalone="no"?>
<!DOCTYPE svg PUBLIC "-//W3C//DTD SVG 1.1//EN"
  "http://www.w3.org/Graphics/SVG/1.1/DTD/svg11.dtd">
<svg xmlns:xlink="http://www.w3.org/1999/xlink" width="371.52pt" height="280.512pt" viewBox="0 0 371.52 280.512" xmlns="http://www.w3.org/2000/svg" version="1.1">
 <metadata>
  <rdf:RDF xmlns:dc="http://purl.org/dc/elements/1.1/" xmlns:cc="http://creativecommons.org/ns#" xmlns:rdf="http://www.w3.org/1999/02/22-rdf-syntax-ns#">
   <cc:Work>
    <dc:type rdf:resource="http://purl.org/dc/dcmitype/StillImage"/>
    <dc:date>2021-11-24T20:23:22.210617</dc:date>
    <dc:format>image/svg+xml</dc:format>
    <dc:creator>
     <cc:Agent>
      <dc:title>Matplotlib v3.5.0, https://matplotlib.org/</dc:title>
     </cc:Agent>
    </dc:creator>
   </cc:Work>
  </rdf:RDF>
 </metadata>
 <defs>
  <style type="text/css">*{stroke-linejoin: round; stroke-linecap: butt}</style>
 </defs>
 <g id="figure_1">
  <g id="patch_1">
   <path d="M 0 280.512 
L 371.52 280.512 
L 371.52 0 
L 0 0 
L 0 280.512 
z
" style="fill: none"/>
  </g>
  <g id="axes_1">
   <g id="patch_2">
    <path d="M 186.158975 19.296 
C 155.386289 19.296 125.754481 31.091331 103.400019 52.23929 
C 81.045556 73.387249 67.625994 102.319744 65.920397 133.045126 
C 64.2148 163.770508 74.349636 194.010531 94.226076 217.502771 
C 114.102516 240.99501 142.246747 255.997548 172.830365 259.403498 
L 186.158975 139.719691 
L 186.158975 19.296 
z
" style="fill: #0000ff"/>
   </g>
   <g id="patch_3">
    <path d="M 172.830365 259.403498 
C 189.105665 261.216 205.580942 259.689784 221.246333 254.918401 
C 236.911724 250.147018 251.440479 242.229989 263.94205 231.652594 
C 276.443621 221.075199 286.65725 208.058061 293.956884 193.399074 
C 301.256519 178.740087 305.489905 162.745009 306.397552 146.394268 
C 307.3052 130.043526 304.868178 113.678166 299.235866 98.301313 
C 293.603554 82.924459 284.893431 68.856843 273.639388 56.960747 
C 262.385345 45.064652 248.822121 35.588206 233.781081 29.112275 
C 218.740041 22.636344 202.534912 19.296003 186.158998 19.296 
L 186.158975 139.719691 
L 172.830365 259.403498 
z
" style="fill: #bf00bf"/>
   </g>
   <g id="matplotlib.axis_1"/>
   <g id="matplotlib.axis_2"/>
  </g>
 </g>
</svg>
