<?xml version="1.0" encoding="utf-8" standalone="no"?>
<!DOCTYPE svg PUBLIC "-//W3C//DTD SVG 1.1//EN"
  "http://www.w3.org/Graphics/SVG/1.1/DTD/svg11.dtd">
<svg xmlns:xlink="http://www.w3.org/1999/xlink" width="371.52pt" height="280.512pt" viewBox="0 0 371.52 280.512" xmlns="http://www.w3.org/2000/svg" version="1.1">
 <metadata>
  <rdf:RDF xmlns:dc="http://purl.org/dc/elements/1.1/" xmlns:cc="http://creativecommons.org/ns#" xmlns:rdf="http://www.w3.org/1999/02/22-rdf-syntax-ns#">
   <cc:Work>
    <dc:type rdf:resource="http://purl.org/dc/dcmitype/StillImage"/>
    <dc:date>2022-01-14T17:15:38.490029</dc:date>
    <dc:format>image/svg+xml</dc:format>
    <dc:creator>
     <cc:Agent>
      <dc:title>Matplotlib v3.5.1, https://matplotlib.org/</dc:title>
     </cc:Agent>
    </dc:creator>
   </cc:Work>
  </rdf:RDF>
 </metadata>
 <defs>
  <style type="text/css">*{stroke-linejoin: round; stroke-linecap: butt}</style>
 </defs>
 <g id="figure_1">
  <g id="patch_1">
   <path d="M 0 280.512 
L 371.52 280.512 
L 371.52 0 
L 0 0 
L 0 280.512 
z
" style="fill: none"/>
  </g>
  <g id="axes_1">
   <g id="patch_2">
    <path d="M 186.310824 19.296006 
C 156.074235 19.296006 126.919878 30.685513 104.690488 51.18199 
C 82.461098 71.678468 68.747951 99.81469 66.299256 129.951963 
C 63.850561 160.089237 72.841606 190.070206 91.470524 213.886477 
C 110.099442 237.702748 137.032694 253.649451 166.872672 258.530755 
L 186.310824 139.703069 
L 186.310824 19.296006 
z
" style="fill: #0000ff; stroke: #000000; stroke-width: 2; stroke-linejoin: miter"/>
   </g>
   <g id="patch_3">
    <path d="M 166.872672 258.530755 
C 183.287889 261.216 200.082844 260.470871 216.195766 256.342474 
C 232.308688 252.214078 247.392716 244.791285 260.494242 234.543362 
C 273.595768 224.29544 284.432758 211.442993 292.320101 196.798549 
C 300.207444 182.154106 304.975351 166.032915 306.322395 149.454152 
C 307.669439 132.875389 305.566624 116.195943 300.146888 100.470283 
C 294.727151 84.744624 286.107165 70.311275 274.83188 58.082707 
C 263.556595 45.85414 249.868734 36.093597 234.633639 29.418136 
C 219.398543 22.742676 202.944177 19.296 186.310779 19.296006 
L 186.310824 139.703069 
L 166.872672 258.530755 
z
" style="fill: #ff0000; stroke: #000000; stroke-width: 2; stroke-linejoin: miter"/>
   </g>
   <g id="matplotlib.axis_1"/>
   <g id="matplotlib.axis_2"/>
  </g>
 </g>
</svg>
