<?xml version="1.0" encoding="utf-8" standalone="no"?>
<!DOCTYPE svg PUBLIC "-//W3C//DTD SVG 1.1//EN"
  "http://www.w3.org/Graphics/SVG/1.1/DTD/svg11.dtd">
<svg xmlns:xlink="http://www.w3.org/1999/xlink" width="371.52pt" height="280.512pt" viewBox="0 0 371.52 280.512" xmlns="http://www.w3.org/2000/svg" version="1.1">
 <metadata>
  <rdf:RDF xmlns:dc="http://purl.org/dc/elements/1.1/" xmlns:cc="http://creativecommons.org/ns#" xmlns:rdf="http://www.w3.org/1999/02/22-rdf-syntax-ns#">
   <cc:Work>
    <dc:type rdf:resource="http://purl.org/dc/dcmitype/StillImage"/>
    <dc:date>2022-01-14T17:15:39.521880</dc:date>
    <dc:format>image/svg+xml</dc:format>
    <dc:creator>
     <cc:Agent>
      <dc:title>Matplotlib v3.5.1, https://matplotlib.org/</dc:title>
     </cc:Agent>
    </dc:creator>
   </cc:Work>
  </rdf:RDF>
 </metadata>
 <defs>
  <style type="text/css">*{stroke-linejoin: round; stroke-linecap: butt}</style>
 </defs>
 <g id="figure_1">
  <g id="patch_1">
   <path d="M 0 280.512 
L 371.52 280.512 
L 371.52 0 
L 0 0 
L 0 280.512 
z
" style="fill: none"/>
  </g>
  <g id="axes_1">
   <g id="patch_2">
    <path d="M 186.170391 19.296003 
C 155.436923 19.296003 125.840062 31.061872 103.494935 52.162616 
C 81.149809 73.263361 67.709185 102.138254 65.950085 132.821338 
C 64.190984 163.504422 74.243521 193.726209 94.030698 217.242452 
C 113.817875 240.758695 141.876127 255.830005 172.408223 259.342438 
L 186.170391 139.713722 
L 186.170391 19.296003 
z
" style="fill: #0000ff; stroke: #000000; stroke-width: 2; stroke-linejoin: miter"/>
   </g>
   <g id="patch_3">
    <path d="M 172.408223 259.342438 
C 188.694308 261.216 205.192759 259.744232 220.890059 255.017545 
C 236.58736 250.290858 251.155357 242.408064 263.699125 231.853411 
C 276.242893 221.298758 286.500203 208.292891 293.84094 193.634774 
C 301.181676 178.976657 305.45238 162.972718 306.390698 146.606094 
C 307.329016 130.23947 304.915332 113.852307 299.297922 98.451284 
C 293.680511 83.050261 284.976807 68.957337 273.721485 57.038254 
C 262.466162 45.119171 248.894516 35.623098 233.840265 29.133389 
C 218.786014 22.643679 202.563867 19.296 186.170368 19.296003 
L 186.170391 139.713722 
L 172.408223 259.342438 
z
" style="fill: #ff0000; stroke: #000000; stroke-width: 2; stroke-linejoin: miter"/>
   </g>
   <g id="matplotlib.axis_1"/>
   <g id="matplotlib.axis_2"/>
  </g>
 </g>
</svg>
