<?xml version="1.0" encoding="utf-8" standalone="no"?>
<!DOCTYPE svg PUBLIC "-//W3C//DTD SVG 1.1//EN"
  "http://www.w3.org/Graphics/SVG/1.1/DTD/svg11.dtd">
<svg xmlns:xlink="http://www.w3.org/1999/xlink" width="829.37295pt" height="824.11506pt" viewBox="0 0 829.37295 824.11506" xmlns="http://www.w3.org/2000/svg" version="1.1">
 <metadata>
  <rdf:RDF xmlns:dc="http://purl.org/dc/elements/1.1/" xmlns:cc="http://creativecommons.org/ns#" xmlns:rdf="http://www.w3.org/1999/02/22-rdf-syntax-ns#">
   <cc:Work>
    <dc:type rdf:resource="http://purl.org/dc/dcmitype/StillImage"/>
    <dc:date>2022-01-14T17:05:43.264732</dc:date>
    <dc:format>image/svg+xml</dc:format>
    <dc:creator>
     <cc:Agent>
      <dc:title>Matplotlib v3.5.1, https://matplotlib.org/</dc:title>
     </cc:Agent>
    </dc:creator>
   </cc:Work>
  </rdf:RDF>
 </metadata>
 <defs>
  <style type="text/css">*{stroke-linejoin: round; stroke-linecap: butt}</style>
 </defs>
 <g id="figure_1">
  <g id="patch_1">
   <path d="M 0 824.11506 
L 829.37295 824.11506 
L 829.37295 0 
L 0 0 
L 0 824.11506 
z
" style="fill: none"/>
  </g>
  <g id="axes_1">
   <g id="patch_2">
    <path d="M 413.013725 44.00523 
C 362.471919 44.00523 312.474075 54.491861 266.180808 74.80221 
C 219.887542 95.11256 178.295326 124.809443 144.033413 162.015569 
C 109.771501 199.221696 83.577389 243.136196 67.106937 290.983014 
C 50.636485 338.829831 44.244225 389.579051 48.334243 440.022561 
C 52.424261 490.466071 66.908519 539.518062 90.871394 584.077712 
C 114.834269 628.637362 147.759954 667.745512 187.567051 698.929942 
C 227.374149 730.114371 273.205802 752.703827 322.164761 765.270316 
C 371.123719 777.836805 422.156131 780.10983 472.03598 771.945703 
L 413.013725 410.374676 
L 413.013725 44.00523 
z
" style="fill: #0000ff; stroke: #000000; stroke-linejoin: miter"/>
   </g>
   <g id="patch_3">
    <path d="M 472.03598 771.945703 
C 562.715969 757.103577 644.566568 708.588247 701.183056 636.123287 
C 757.799544 563.658328 785.128725 472.431532 777.69321 380.726825 
C 770.257695 289.022118 728.589795 203.404673 661.040705 141.034173 
C 593.491615 78.663674 504.897199 44.005247 413.013794 44.00523 
L 413.013725 410.374676 
L 472.03598 771.945703 
z
" style="fill: #ff0000; stroke: #000000; stroke-linejoin: miter"/>
   </g>
   <g id="matplotlib.axis_1"/>
   <g id="matplotlib.axis_2"/>
  </g>
 </g>
</svg>
