<?xml version="1.0" encoding="utf-8" standalone="no"?>
<!DOCTYPE svg PUBLIC "-//W3C//DTD SVG 1.1//EN"
  "http://www.w3.org/Graphics/SVG/1.1/DTD/svg11.dtd">
<svg xmlns:xlink="http://www.w3.org/1999/xlink" width="371.52pt" height="280.512pt" viewBox="0 0 371.52 280.512" xmlns="http://www.w3.org/2000/svg" version="1.1">
 <metadata>
  <rdf:RDF xmlns:dc="http://purl.org/dc/elements/1.1/" xmlns:cc="http://creativecommons.org/ns#" xmlns:rdf="http://www.w3.org/1999/02/22-rdf-syntax-ns#">
   <cc:Work>
    <dc:type rdf:resource="http://purl.org/dc/dcmitype/StillImage"/>
    <dc:date>2021-12-03T16:09:56.561122</dc:date>
    <dc:format>image/svg+xml</dc:format>
    <dc:creator>
     <cc:Agent>
      <dc:title>Matplotlib v3.5.0, https://matplotlib.org/</dc:title>
     </cc:Agent>
    </dc:creator>
   </cc:Work>
  </rdf:RDF>
 </metadata>
 <defs>
  <style type="text/css">*{stroke-linejoin: round; stroke-linecap: butt}</style>
 </defs>
 <g id="figure_1">
  <g id="patch_1">
   <path d="M 0 280.512 
L 371.52 280.512 
L 371.52 0 
L 0 0 
L 0 280.512 
z
" style="fill: none"/>
  </g>
  <g id="axes_1">
   <g id="patch_2">
    <path d="M 185.209516 19.296 
C 168.57676 19.296 152.123015 22.74242 136.888407 29.417395 
C 121.653798 36.09237 107.966254 45.852219 96.691033 58.079974 
C 85.415812 70.307728 76.795615 84.740182 71.375369 100.464988 
C 65.955124 116.189794 63.851501 132.868472 65.197481 149.446678 
C 66.543461 166.024884 71.310072 182.145769 79.195993 196.790251 
C 87.081913 211.434733 97.917397 224.287586 111.017478 234.536315 
C 124.117559 244.785045 139.200255 252.209046 155.312114 256.339009 
C 171.423973 260.468973 188.218182 261.216 204.633096 258.532868 
L 185.209516 139.702932 
L 185.209516 19.296 
z
" style="fill: #0000ff"/>
   </g>
   <g id="patch_3">
    <path d="M 204.633096 258.532868 
C 234.47489 253.655019 261.411029 237.710507 280.042896 213.894975 
C 298.674764 190.079442 307.668499 160.097852 305.221553 129.959197 
C 302.774606 99.820542 289.062155 71.682459 266.832487 51.18446 
C 244.602819 30.686461 215.447364 19.296006 185.209539 19.296 
L 185.209516 139.702932 
L 204.633096 258.532868 
z
" style="fill: #bf00bf"/>
   </g>
   <g id="matplotlib.axis_1"/>
   <g id="matplotlib.axis_2"/>
  </g>
 </g>
</svg>
