<?xml version="1.0" encoding="utf-8" standalone="no"?>
<!DOCTYPE svg PUBLIC "-//W3C//DTD SVG 1.1//EN"
  "http://www.w3.org/Graphics/SVG/1.1/DTD/svg11.dtd">
<svg xmlns:xlink="http://www.w3.org/1999/xlink" width="92.6316pt" height="92.12688pt" viewBox="0 0 92.6316 92.12688" xmlns="http://www.w3.org/2000/svg" version="1.1">
 <metadata>
  <rdf:RDF xmlns:dc="http://purl.org/dc/elements/1.1/" xmlns:cc="http://creativecommons.org/ns#" xmlns:rdf="http://www.w3.org/1999/02/22-rdf-syntax-ns#">
   <cc:Work>
    <dc:type rdf:resource="http://purl.org/dc/dcmitype/StillImage"/>
    <dc:date>2021-12-14T09:20:47.975541</dc:date>
    <dc:format>image/svg+xml</dc:format>
    <dc:creator>
     <cc:Agent>
      <dc:title>Matplotlib v3.5.0, https://matplotlib.org/</dc:title>
     </cc:Agent>
    </dc:creator>
   </cc:Work>
  </rdf:RDF>
 </metadata>
 <defs>
  <style type="text/css">*{stroke-linejoin: round; stroke-linecap: butt}</style>
 </defs>
 <g id="figure_1">
  <g id="patch_1">
   <path d="M 0 92.12688 
L 92.6316 92.12688 
L 92.6316 0 
L 0 0 
L 0 92.12688 
z
" style="fill: none"/>
  </g>
  <g id="axes_1">
   <g id="patch_2">
    <path d="M 46.191936 10.733042 
C 41.391805 10.733042 36.641979 11.713351 32.234993 13.613594 
C 27.828007 15.513837 23.856232 18.294184 20.564284 21.783398 
C 17.272335 25.272612 14.729212 29.39756 13.091543 33.90419 
C 11.453873 38.410821 10.755982 43.204676 11.040851 47.990509 
C 11.325721 52.776342 12.58738 57.453842 14.748126 61.734928 
C 16.908871 66.016014 19.923413 69.810955 23.606091 72.886026 
C 27.288769 75.961097 31.562393 78.251845 36.163758 79.617185 
C 40.765122 80.982525 45.597783 81.39384 50.364102 80.825798 
L 46.191936 45.903288 
L 46.191936 10.733042 
z
" style="fill: #0000ff"/>
   </g>
   <g id="patch_3">
    <path d="M 50.364102 80.825798 
C 59.275291 79.763778 67.451374 75.33842 73.20759 68.461615 
C 78.963805 61.584809 81.875618 52.763736 81.343021 43.816065 
C 80.810423 34.868394 76.872695 26.454037 70.341245 20.306856 
C 63.809795 14.159676 55.166333 10.73304 46.191929 10.733042 
L 46.191936 45.903288 
L 50.364102 80.825798 
z
" style="fill: #ff0000"/>
   </g>
   <g id="matplotlib.axis_1"/>
   <g id="matplotlib.axis_2"/>
  </g>
 </g>
</svg>
