<?xml version="1.0" encoding="utf-8" standalone="no"?>
<!DOCTYPE svg PUBLIC "-//W3C//DTD SVG 1.1//EN"
  "http://www.w3.org/Graphics/SVG/1.1/DTD/svg11.dtd">
<svg xmlns:xlink="http://www.w3.org/1999/xlink" width="371.52pt" height="280.512pt" viewBox="0 0 371.52 280.512" xmlns="http://www.w3.org/2000/svg" version="1.1">
 <metadata>
  <rdf:RDF xmlns:dc="http://purl.org/dc/elements/1.1/" xmlns:cc="http://creativecommons.org/ns#" xmlns:rdf="http://www.w3.org/1999/02/22-rdf-syntax-ns#">
   <cc:Work>
    <dc:type rdf:resource="http://purl.org/dc/dcmitype/StillImage"/>
    <dc:date>2021-12-03T16:09:57.772720</dc:date>
    <dc:format>image/svg+xml</dc:format>
    <dc:creator>
     <cc:Agent>
      <dc:title>Matplotlib v3.5.0, https://matplotlib.org/</dc:title>
     </cc:Agent>
    </dc:creator>
   </cc:Work>
  </rdf:RDF>
 </metadata>
 <defs>
  <style type="text/css">*{stroke-linejoin: round; stroke-linecap: butt}</style>
 </defs>
 <g id="figure_1">
  <g id="patch_1">
   <path d="M 0 280.512 
L 371.52 280.512 
L 371.52 0 
L 0 0 
L 0 280.512 
z
" style="fill: none"/>
  </g>
  <g id="axes_1">
   <g id="patch_2">
    <path d="M 185.336446 19.296006 
C 168.922353 19.296006 152.680279 22.652272 137.610551 29.158096 
C 122.540824 35.66392 108.959302 45.182942 97.702454 57.128896 
C 86.445606 69.07485 77.749374 83.197351 72.149348 98.626614 
C 66.549321 114.055877 64.162876 130.468505 65.13699 146.853668 
C 66.111104 163.23883 70.42536 179.253095 77.814048 193.910166 
C 85.202737 208.567237 95.510992 221.559903 108.103942 232.087964 
C 120.696892 242.616024 135.31059 250.458812 151.044998 255.1333 
C 166.779407 259.807788 183.304734 261.216 199.603207 259.271206 
L 185.336446 139.707692 
L 185.336446 19.296006 
z
" style="fill: #0000ff"/>
   </g>
   <g id="patch_3">
    <path d="M 199.603207 259.271206 
C 230.075097 255.635187 258.033289 240.484178 277.716721 216.940192 
C 297.400153 193.396207 307.357124 163.195672 305.535902 132.561706 
C 303.71468 101.927739 290.249584 73.119671 267.915231 52.073688 
C 245.580877 31.027705 216.024479 19.296 185.336424 19.296006 
L 185.336446 139.707692 
L 199.603207 259.271206 
z
" style="fill: #bf00bf"/>
   </g>
   <g id="matplotlib.axis_1"/>
   <g id="matplotlib.axis_2"/>
  </g>
 </g>
</svg>
