<?xml version="1.0" encoding="utf-8" standalone="no"?>
<!DOCTYPE svg PUBLIC "-//W3C//DTD SVG 1.1//EN"
  "http://www.w3.org/Graphics/SVG/1.1/DTD/svg11.dtd">
<svg xmlns:xlink="http://www.w3.org/1999/xlink" width="79.9929pt" height="79.56972pt" viewBox="0 0 79.9929 79.56972" xmlns="http://www.w3.org/2000/svg" version="1.1">
 <metadata>
  <rdf:RDF xmlns:dc="http://purl.org/dc/elements/1.1/" xmlns:cc="http://creativecommons.org/ns#" xmlns:rdf="http://www.w3.org/1999/02/22-rdf-syntax-ns#">
   <cc:Work>
    <dc:type rdf:resource="http://purl.org/dc/dcmitype/StillImage"/>
    <dc:date>2022-01-14T17:05:45.408061</dc:date>
    <dc:format>image/svg+xml</dc:format>
    <dc:creator>
     <cc:Agent>
      <dc:title>Matplotlib v3.5.1, https://matplotlib.org/</dc:title>
     </cc:Agent>
    </dc:creator>
   </cc:Work>
  </rdf:RDF>
 </metadata>
 <defs>
  <style type="text/css">*{stroke-linejoin: round; stroke-linecap: butt}</style>
 </defs>
 <g id="figure_1">
  <g id="patch_1">
   <path d="M 0 79.56972 
L 79.9929 79.56972 
L 79.9929 0 
L 0 0 
L 0 79.56972 
z
" style="fill: none"/>
  </g>
  <g id="axes_1">
   <g id="patch_2">
    <path d="M 39.867474 10.162261 
C 35.808113 10.162261 31.792219 11.001933 28.072389 12.628463 
C 24.352559 14.254992 21.008455 16.633545 18.250419 19.614513 
C 15.492384 22.59548 13.379481 26.115024 12.044612 29.951765 
C 10.709744 33.788507 10.181495 37.860281 10.493094 41.910975 
C 10.804693 45.96167 11.949465 49.904536 13.855406 53.491571 
C 15.761347 57.078606 18.38764 60.232992 21.569092 62.756318 
C 24.750544 65.279645 28.419023 67.117874 32.343784 68.155383 
C 36.268544 69.192891 40.365536 69.40746 44.37706 68.785593 
L 39.867474 39.647661 
L 39.867474 10.162261 
z
" style="fill: #0000ff; stroke: #000000; stroke-linejoin: miter"/>
   </g>
   <g id="patch_3">
    <path d="M 44.37706 68.785593 
C 51.70945 67.648925 58.348802 63.780922 62.957249 57.961007 
C 67.565695 52.141092 69.811405 44.78833 69.241854 37.384343 
C 68.672303 29.980356 65.328503 23.05827 59.884248 18.012923 
C 54.439993 12.967576 47.287297 10.16226 39.867469 10.162261 
L 39.867474 39.647661 
L 44.37706 68.785593 
z
" style="fill: #ff0000; stroke: #000000; stroke-linejoin: miter"/>
   </g>
   <g id="matplotlib.axis_1"/>
   <g id="matplotlib.axis_2"/>
  </g>
 </g>
</svg>
