<?xml version="1.0" encoding="utf-8" standalone="no"?>
<!DOCTYPE svg PUBLIC "-//W3C//DTD SVG 1.1//EN"
  "http://www.w3.org/Graphics/SVG/1.1/DTD/svg11.dtd">
<svg xmlns:xlink="http://www.w3.org/1999/xlink" width="90.44145pt" height="89.95086pt" viewBox="0 0 90.44145 89.95086" xmlns="http://www.w3.org/2000/svg" version="1.1">
 <metadata>
  <rdf:RDF xmlns:dc="http://purl.org/dc/elements/1.1/" xmlns:cc="http://creativecommons.org/ns#" xmlns:rdf="http://www.w3.org/1999/02/22-rdf-syntax-ns#">
   <cc:Work>
    <dc:type rdf:resource="http://purl.org/dc/dcmitype/StillImage"/>
    <dc:date>2021-12-14T09:20:49.742071</dc:date>
    <dc:format>image/svg+xml</dc:format>
    <dc:creator>
     <cc:Agent>
      <dc:title>Matplotlib v3.5.0, https://matplotlib.org/</dc:title>
     </cc:Agent>
    </dc:creator>
   </cc:Work>
  </rdf:RDF>
 </metadata>
 <defs>
  <style type="text/css">*{stroke-linejoin: round; stroke-linecap: butt}</style>
 </defs>
 <g id="figure_1">
  <g id="patch_1">
   <path d="M 0 89.95086 
L 90.44145 89.95086 
L 90.44145 0 
L 0 0 
L 0 89.95086 
z
" style="fill: none"/>
  </g>
  <g id="axes_1">
   <g id="patch_2">
    <path d="M 44.968821 10.63413 
C 40.022947 10.63413 35.135528 11.707921 30.645146 13.781115 
C 26.154763 15.854309 22.167561 18.877901 18.959755 22.642426 
C 15.75195 26.406952 13.399368 30.823426 12.064987 35.585894 
C 10.730606 40.348361 10.445968 45.344246 11.230792 50.227454 
C 12.015616 55.110662 13.851349 59.765764 16.610821 63.870272 
C 19.370292 67.97478 22.988272 71.431672 27.214123 74.001469 
C 31.439973 76.571266 36.173803 78.193223 41.087671 78.754976 
C 46.00154 79.31673 50.979292 78.805002 55.676091 77.255242 
L 44.968821 44.805116 
L 44.968821 10.63413 
z
" style="fill: #0000ff"/>
   </g>
   <g id="patch_3">
    <path d="M 55.676091 77.255242 
C 63.387946 74.710632 69.945724 69.498402 74.165173 62.559814 
C 78.384623 55.621226 79.995482 47.400707 78.706849 39.382779 
C 77.418217 31.36485 73.312632 24.063071 67.131511 18.796051 
C 60.95039 13.529031 53.089643 10.63413 44.968821 10.63413 
L 44.968821 44.805116 
L 55.676091 77.255242 
z
" style="fill: #ff0000"/>
   </g>
   <g id="matplotlib.axis_1"/>
   <g id="matplotlib.axis_2"/>
  </g>
 </g>
</svg>
