<?xml version="1.0" encoding="utf-8" standalone="no"?>
<!DOCTYPE svg PUBLIC "-//W3C//DTD SVG 1.1//EN"
  "http://www.w3.org/Graphics/SVG/1.1/DTD/svg11.dtd">
<svg xmlns:xlink="http://www.w3.org/1999/xlink" width="371.52pt" height="280.512pt" viewBox="0 0 371.52 280.512" xmlns="http://www.w3.org/2000/svg" version="1.1">
 <metadata>
  <rdf:RDF xmlns:dc="http://purl.org/dc/elements/1.1/" xmlns:cc="http://creativecommons.org/ns#" xmlns:rdf="http://www.w3.org/1999/02/22-rdf-syntax-ns#">
   <cc:Work>
    <dc:type rdf:resource="http://purl.org/dc/dcmitype/StillImage"/>
    <dc:date>2021-12-03T16:09:59.653317</dc:date>
    <dc:format>image/svg+xml</dc:format>
    <dc:creator>
     <cc:Agent>
      <dc:title>Matplotlib v3.5.0, https://matplotlib.org/</dc:title>
     </cc:Agent>
    </dc:creator>
   </cc:Work>
  </rdf:RDF>
 </metadata>
 <defs>
  <style type="text/css">*{stroke-linejoin: round; stroke-linecap: butt}</style>
 </defs>
 <g id="figure_1">
  <g id="patch_1">
   <path d="M 0 280.512 
L 371.52 280.512 
L 371.52 0 
L 0 0 
L 0 280.512 
z
" style="fill: none"/>
  </g>
  <g id="axes_1">
   <g id="patch_2">
    <path d="M 184.87272 19.296 
C 167.451921 19.296 150.237017 23.078203 134.42059 30.380593 
C 118.604164 37.682983 104.560081 48.332946 93.261263 61.592695 
C 81.962444 74.852444 73.67597 90.408546 68.975894 107.183335 
C 64.275818 123.958124 63.273241 141.555078 66.037617 158.75515 
C 68.801993 175.955222 75.267978 192.351837 84.987635 206.809103 
C 94.707291 221.266368 107.450866 233.442545 122.335535 242.494113 
C 137.220203 251.545682 153.894122 257.258682 171.202189 259.237341 
C 188.510255 261.216 206.043341 259.413545 222.586824 253.954844 
L 184.87272 139.656106 
L 184.87272 19.296 
z
" style="fill: #0000ff"/>
   </g>
   <g id="patch_3">
    <path d="M 222.586824 253.954844 
C 249.750212 244.991991 272.848605 226.633007 287.710727 202.193292 
C 302.572848 177.753576 308.246759 148.798529 303.707823 120.557063 
C 299.168886 92.315597 284.707828 66.596618 262.936131 48.044649 
C 241.164434 29.49268 213.476607 19.296 184.87272 19.296 
L 184.87272 139.656106 
L 222.586824 253.954844 
z
" style="fill: #bf00bf"/>
   </g>
   <g id="matplotlib.axis_1"/>
   <g id="matplotlib.axis_2"/>
  </g>
 </g>
</svg>
