<?xml version="1.0" encoding="utf-8" standalone="no"?>
<!DOCTYPE svg PUBLIC "-//W3C//DTD SVG 1.1//EN"
  "http://www.w3.org/Graphics/SVG/1.1/DTD/svg11.dtd">
<svg xmlns:xlink="http://www.w3.org/1999/xlink" width="371.52pt" height="280.512pt" viewBox="0 0 371.52 280.512" xmlns="http://www.w3.org/2000/svg" version="1.1">
 <metadata>
  <rdf:RDF xmlns:dc="http://purl.org/dc/elements/1.1/" xmlns:cc="http://creativecommons.org/ns#" xmlns:rdf="http://www.w3.org/1999/02/22-rdf-syntax-ns#">
   <cc:Work>
    <dc:type rdf:resource="http://purl.org/dc/dcmitype/StillImage"/>
    <dc:date>2021-12-10T18:14:47.467089</dc:date>
    <dc:format>image/svg+xml</dc:format>
    <dc:creator>
     <cc:Agent>
      <dc:title>Matplotlib v3.5.0, https://matplotlib.org/</dc:title>
     </cc:Agent>
    </dc:creator>
   </cc:Work>
  </rdf:RDF>
 </metadata>
 <defs>
  <style type="text/css">*{stroke-linejoin: round; stroke-linecap: butt}</style>
 </defs>
 <g id="figure_1">
  <g id="patch_1">
   <path d="M 0 280.512 
L 371.52 280.512 
L 371.52 0 
L 0 0 
L 0 280.512 
z
" style="fill: none"/>
  </g>
  <g id="axes_1">
   <g id="patch_2">
    <path d="M 185.523118 19.296 
C 169.37253 19.296 153.385354 22.541014 138.512894 28.837951 
C 123.640433 35.134888 110.183648 44.356322 98.943273 55.95354 
C 87.702898 67.550758 78.906394 81.289077 73.077189 96.351011 
C 67.247984 111.412946 64.504039 127.4937 65.00863 143.636404 
C 65.51322 159.779108 69.256135 175.657095 76.014656 190.325561 
C 82.773176 204.994027 92.410537 218.156139 104.353275 229.028697 
C 116.296012 239.901254 130.302453 248.26424 145.539155 253.620021 
C 160.775858 258.975803 176.934491 261.216 193.053549 260.207312 
L 185.523118 139.86935 
L 185.523118 19.296 
z
" style="fill: #0000ff"/>
   </g>
   <g id="patch_3">
    <path d="M 193.053549 260.207312 
C 224.307093 258.251548 253.60145 244.195197 274.682457 221.039201 
C 295.763465 197.883205 307.015961 167.401708 306.037607 136.102318 
C 305.059253 104.802927 291.925009 75.083708 269.438952 53.289528 
C 246.952895 31.495349 216.837841 19.296012 185.523163 19.296 
L 185.523118 139.86935 
L 193.053549 260.207312 
z
" style="fill: #ff0000"/>
   </g>
   <g id="matplotlib.axis_1"/>
   <g id="matplotlib.axis_2"/>
  </g>
 </g>
</svg>
