<?xml version="1.0" encoding="utf-8" standalone="no"?>
<!DOCTYPE svg PUBLIC "-//W3C//DTD SVG 1.1//EN"
  "http://www.w3.org/Graphics/SVG/1.1/DTD/svg11.dtd">
<svg xmlns:xlink="http://www.w3.org/1999/xlink" width="221.62725pt" height="220.2903pt" viewBox="0 0 221.62725 220.2903" xmlns="http://www.w3.org/2000/svg" version="1.1">
 <metadata>
  <rdf:RDF xmlns:dc="http://purl.org/dc/elements/1.1/" xmlns:cc="http://creativecommons.org/ns#" xmlns:rdf="http://www.w3.org/1999/02/22-rdf-syntax-ns#">
   <cc:Work>
    <dc:type rdf:resource="http://purl.org/dc/dcmitype/StillImage"/>
    <dc:date>2022-01-14T17:05:47.364802</dc:date>
    <dc:format>image/svg+xml</dc:format>
    <dc:creator>
     <cc:Agent>
      <dc:title>Matplotlib v3.5.1, https://matplotlib.org/</dc:title>
     </cc:Agent>
    </dc:creator>
   </cc:Work>
  </rdf:RDF>
 </metadata>
 <defs>
  <style type="text/css">*{stroke-linejoin: round; stroke-linecap: butt}</style>
 </defs>
 <g id="figure_1">
  <g id="patch_1">
   <path d="M 0 220.2903 
L 221.62725 220.2903 
L 221.62725 0 
L 0 0 
L 0 220.2903 
z
" style="fill: none"/>
  </g>
  <g id="axes_1">
   <g id="patch_2">
    <path d="M 110.135902 16.55865 
C 96.686609 16.55865 83.395605 19.472486 71.179861 25.099127 
C 58.964117 30.725768 48.111176 38.932771 39.369802 49.153919 
C 30.628428 59.375067 24.204381 71.369768 20.540868 84.310485 
C 16.877355 97.251202 16.060611 110.833329 18.146984 124.119808 
C 20.233357 137.406288 25.173737 150.084374 32.627277 161.279383 
C 40.080818 172.474392 49.872072 181.922808 61.325525 188.972766 
C 72.778977 196.022725 85.625028 200.50828 98.977404 202.119965 
C 112.329781 203.73165 125.874186 202.431528 138.676166 198.309296 
L 110.135902 109.674809 
L 110.135902 16.55865 
z
" style="fill: #0000ff; stroke: #000000; stroke-linejoin: miter"/>
   </g>
   <g id="patch_3">
    <path d="M 138.676166 198.309296 
C 159.795159 191.50899 177.803781 177.379559 189.43386 158.485186 
C 201.063938 139.590813 205.566639 117.148065 202.12482 95.229809 
C 198.683001 73.311554 187.518273 53.329058 170.656792 38.908708 
C 153.79531 24.488359 132.322746 16.55865 110.135902 16.55865 
L 110.135902 109.674809 
L 138.676166 198.309296 
z
" style="fill: #ff0000; stroke: #000000; stroke-linejoin: miter"/>
   </g>
   <g id="matplotlib.axis_1"/>
   <g id="matplotlib.axis_2"/>
  </g>
 </g>
</svg>
