<?xml version="1.0" encoding="utf-8" standalone="no"?>
<!DOCTYPE svg PUBLIC "-//W3C//DTD SVG 1.1//EN"
  "http://www.w3.org/Graphics/SVG/1.1/DTD/svg11.dtd">
<svg xmlns:xlink="http://www.w3.org/1999/xlink" width="46.3176pt" height="46.11168pt" viewBox="0 0 46.3176 46.11168" xmlns="http://www.w3.org/2000/svg" version="1.1">
 <metadata>
  <rdf:RDF xmlns:dc="http://purl.org/dc/elements/1.1/" xmlns:cc="http://creativecommons.org/ns#" xmlns:rdf="http://www.w3.org/1999/02/22-rdf-syntax-ns#">
   <cc:Work>
    <dc:type rdf:resource="http://purl.org/dc/dcmitype/StillImage"/>
    <dc:date>2021-12-14T09:20:51.554552</dc:date>
    <dc:format>image/svg+xml</dc:format>
    <dc:creator>
     <cc:Agent>
      <dc:title>Matplotlib v3.5.0, https://matplotlib.org/</dc:title>
     </cc:Agent>
    </dc:creator>
   </cc:Work>
  </rdf:RDF>
 </metadata>
 <defs>
  <style type="text/css">*{stroke-linejoin: round; stroke-linecap: butt}</style>
 </defs>
 <g id="figure_1">
  <g id="patch_1">
   <path d="M 0 46.11168 
L 46.3176 46.11168 
L 46.3176 -0 
L 0 -0 
L 0 46.11168 
z
" style="fill: none"/>
  </g>
  <g id="axes_1">
   <g id="patch_2">
    <path d="M 23.076081 8.64144 
C 21.067217 8.64144 19.080743 9.066966 17.246603 9.890182 
C 15.412463 10.713398 13.771542 11.915954 12.431181 13.419186 
C 11.090819 14.922417 10.080895 16.692815 9.467472 18.61457 
C 8.854048 20.536325 8.6508 22.566598 8.871022 24.572581 
C 9.091244 26.578564 9.730027 28.515541 10.745586 30.256806 
C 11.761145 31.99807 13.130842 33.504807 14.765078 34.678455 
C 16.399314 35.852102 18.261661 36.666498 20.230294 37.068369 
C 22.198928 37.47024 24.229964 37.450628 26.190544 37.010815 
L 23.076081 22.998668 
L 23.076081 8.64144 
z
" style="fill: #0000ff"/>
   </g>
   <g id="patch_3">
    <path d="M 26.190544 37.010815 
C 29.623976 36.240602 32.65627 34.223226 34.702147 31.348074 
C 36.748023 28.472922 37.6668 24.937698 37.28114 21.424755 
C 36.89548 17.911812 35.231902 14.662711 32.611503 12.30458 
C 29.991103 9.946449 26.594069 8.64144 23.076081 8.64144 
L 23.076081 22.998668 
L 26.190544 37.010815 
z
" style="fill: #ff0000"/>
   </g>
   <g id="matplotlib.axis_1"/>
   <g id="matplotlib.axis_2"/>
  </g>
 </g>
</svg>
