<?xml version="1.0" encoding="utf-8" standalone="no"?>
<!DOCTYPE svg PUBLIC "-//W3C//DTD SVG 1.1//EN"
  "http://www.w3.org/Graphics/SVG/1.1/DTD/svg11.dtd">
<svg xmlns:xlink="http://www.w3.org/1999/xlink" width="156.50865pt" height="155.59182pt" viewBox="0 0 156.50865 155.59182" xmlns="http://www.w3.org/2000/svg" version="1.1">
 <metadata>
  <rdf:RDF xmlns:dc="http://purl.org/dc/elements/1.1/" xmlns:cc="http://creativecommons.org/ns#" xmlns:rdf="http://www.w3.org/1999/02/22-rdf-syntax-ns#">
   <cc:Work>
    <dc:type rdf:resource="http://purl.org/dc/dcmitype/StillImage"/>
    <dc:date>2022-01-14T17:05:49.255533</dc:date>
    <dc:format>image/svg+xml</dc:format>
    <dc:creator>
     <cc:Agent>
      <dc:title>Matplotlib v3.5.1, https://matplotlib.org/</dc:title>
     </cc:Agent>
    </dc:creator>
   </cc:Work>
  </rdf:RDF>
 </metadata>
 <defs>
  <style type="text/css">*{stroke-linejoin: round; stroke-linecap: butt}</style>
 </defs>
 <g id="figure_1">
  <g id="patch_1">
   <path d="M -0 155.59182 
L 156.50865 155.59182 
L 156.50865 0 
L -0 0 
L -0 155.59182 
z
" style="fill: none"/>
  </g>
  <g id="axes_1">
   <g id="patch_2">
    <path d="M 78.115284 13.61781 
C 69.497788 13.61781 60.967863 15.346571 53.035237 18.700788 
C 45.102611 22.055004 37.928507 26.966504 31.941632 33.141788 
C 25.954758 39.317072 21.27679 46.630633 18.187274 54.64543 
C 15.097758 62.660228 13.659484 71.213369 13.958401 79.793738 
C 14.257317 88.374107 16.287349 96.807316 19.927187 104.589417 
C 23.567024 112.371518 28.74269 119.344347 35.1449 125.091224 
C 41.54711 130.838102 49.045745 135.242228 57.192705 138.040423 
C 65.339664 140.838617 73.969368 141.97401 82.566128 141.378752 
L 78.115284 77.575235 
L 78.115284 13.61781 
z
" style="fill: #0000ff; stroke: #000000; stroke-linejoin: miter"/>
   </g>
   <g id="patch_3">
    <path d="M 82.566128 141.378752 
C 99.160421 140.229729 114.673686 132.698578 125.808159 120.386249 
C 136.942632 108.07392 142.849166 91.919387 142.272168 75.356732 
C 141.69517 58.794076 134.678644 43.086414 122.714141 31.572833 
C 110.749639 20.059252 94.749607 13.61781 78.115284 13.61781 
L 78.115284 77.575235 
L 82.566128 141.378752 
z
" style="fill: #ff0000; stroke: #000000; stroke-linejoin: miter"/>
   </g>
   <g id="matplotlib.axis_1"/>
   <g id="matplotlib.axis_2"/>
  </g>
 </g>
</svg>
