<?xml version="1.0" encoding="utf-8" standalone="no"?>
<!DOCTYPE svg PUBLIC "-//W3C//DTD SVG 1.1//EN"
  "http://www.w3.org/Graphics/SVG/1.1/DTD/svg11.dtd">
<svg xmlns:xlink="http://www.w3.org/1999/xlink" width="371.52pt" height="280.512pt" viewBox="0 0 371.52 280.512" xmlns="http://www.w3.org/2000/svg" version="1.1">
 <metadata>
  <rdf:RDF xmlns:dc="http://purl.org/dc/elements/1.1/" xmlns:cc="http://creativecommons.org/ns#" xmlns:rdf="http://www.w3.org/1999/02/22-rdf-syntax-ns#">
   <cc:Work>
    <dc:type rdf:resource="http://purl.org/dc/dcmitype/StillImage"/>
    <dc:date>2021-12-10T18:14:49.286847</dc:date>
    <dc:format>image/svg+xml</dc:format>
    <dc:creator>
     <cc:Agent>
      <dc:title>Matplotlib v3.5.0, https://matplotlib.org/</dc:title>
     </cc:Agent>
    </dc:creator>
   </cc:Work>
  </rdf:RDF>
 </metadata>
 <defs>
  <style type="text/css">*{stroke-linejoin: round; stroke-linecap: butt}</style>
 </defs>
 <g id="figure_1">
  <g id="patch_1">
   <path d="M 0 280.512 
L 371.52 280.512 
L 371.52 0 
L 0 0 
L 0 280.512 
z
" style="fill: none"/>
  </g>
  <g id="axes_1">
   <g id="patch_2">
    <path d="M 186.520463 19.296003 
C 157.183217 19.296003 128.834173 30.019242 106.841191 49.435285 
C 84.84821 68.851328 70.692922 95.652149 67.055617 124.763041 
C 63.418312 153.873932 70.544029 183.333741 87.083522 207.564283 
C 103.623014 231.794825 128.462043 249.163729 156.897364 256.382211 
L 186.520463 139.689759 
L 186.520463 19.296003 
z
" style="fill: #0000ff"/>
   </g>
   <g id="patch_3">
    <path d="M 156.897364 256.382211 
C 173.442557 260.58231 190.693392 261.216 207.502149 258.24112 
C 224.310907 255.26624 240.296365 248.75026 254.394992 239.126697 
C 268.493619 229.503134 280.385658 216.99025 289.279917 202.420541 
C 298.174176 187.850833 303.868934 171.554742 305.985311 154.616466 
C 308.101688 137.67819 306.591685 120.481889 301.555765 104.171654 
C 296.519845 87.86142 288.072221 72.807167 276.774926 60.010474 
C 265.47763 47.213781 251.586884 36.964876 236.026857 29.945632 
C 220.466829 22.926388 203.590422 19.296 186.520441 19.296003 
L 186.520463 139.689759 
L 156.897364 256.382211 
z
" style="fill: #ff0000"/>
   </g>
   <g id="matplotlib.axis_1"/>
   <g id="matplotlib.axis_2"/>
  </g>
 </g>
</svg>
