<?xml version="1.0" encoding="utf-8" standalone="no"?>
<!DOCTYPE svg PUBLIC "-//W3C//DTD SVG 1.1//EN"
  "http://www.w3.org/Graphics/SVG/1.1/DTD/svg11.dtd">
<svg xmlns:xlink="http://www.w3.org/1999/xlink" width="184.4505pt" height="183.3534pt" viewBox="0 0 184.4505 183.3534" xmlns="http://www.w3.org/2000/svg" version="1.1">
 <metadata>
  <rdf:RDF xmlns:dc="http://purl.org/dc/elements/1.1/" xmlns:cc="http://creativecommons.org/ns#" xmlns:rdf="http://www.w3.org/1999/02/22-rdf-syntax-ns#">
   <cc:Work>
    <dc:type rdf:resource="http://purl.org/dc/dcmitype/StillImage"/>
    <dc:date>2022-01-14T17:05:50.241264</dc:date>
    <dc:format>image/svg+xml</dc:format>
    <dc:creator>
     <cc:Agent>
      <dc:title>Matplotlib v3.5.1, https://matplotlib.org/</dc:title>
     </cc:Agent>
    </dc:creator>
   </cc:Work>
  </rdf:RDF>
 </metadata>
 <defs>
  <style type="text/css">*{stroke-linejoin: round; stroke-linecap: butt}</style>
 </defs>
 <g id="figure_1">
  <g id="patch_1">
   <path d="M 0 183.3534 
L 184.4505 183.3534 
L 184.4505 0 
L 0 0 
L 0 183.3534 
z
" style="fill: none"/>
  </g>
  <g id="axes_1">
   <g id="patch_2">
    <path d="M 91.903029 14.8797 
C 81.396783 14.8797 71.002568 17.047507 61.371522 21.24732 
C 51.740476 25.447133 43.077997 31.589385 35.926738 39.289299 
C 28.775479 46.989213 23.287952 56.082575 19.80792 65.99974 
C 16.327888 75.916906 14.929568 86.446373 15.700556 96.928534 
C 16.471545 107.410695 19.395398 117.621998 24.288956 126.922767 
C 29.182513 136.223536 35.941411 144.415415 44.142243 150.985231 
C 52.343075 157.555047 61.810945 162.362688 71.952747 165.106983 
C 82.094549 167.851278 92.693992 168.4737 103.087082 166.935259 
L 91.903029 91.319119 
L 91.903029 14.8797 
z
" style="fill: #0000ff; stroke: #000000; stroke-linejoin: miter"/>
   </g>
   <g id="patch_3">
    <path d="M 103.087082 166.935259 
C 122.167411 164.110885 139.488566 154.160973 151.544994 139.099243 
C 163.601421 124.037513 169.520932 104.953563 168.105502 85.709712 
C 166.690072 66.465861 158.042097 48.454251 143.911803 35.320175 
C 129.781508 22.186098 111.191112 14.879704 91.903043 14.8797 
L 91.903029 91.319119 
L 103.087082 166.935259 
z
" style="fill: #ff0000; stroke: #000000; stroke-linejoin: miter"/>
   </g>
   <g id="matplotlib.axis_1"/>
   <g id="matplotlib.axis_2"/>
  </g>
 </g>
</svg>
