<?xml version="1.0" encoding="utf-8" standalone="no"?>
<!DOCTYPE svg PUBLIC "-//W3C//DTD SVG 1.1//EN"
  "http://www.w3.org/Graphics/SVG/1.1/DTD/svg11.dtd">
<svg xmlns:xlink="http://www.w3.org/1999/xlink" width="371.52pt" height="280.512pt" viewBox="0 0 371.52 280.512" xmlns="http://www.w3.org/2000/svg" version="1.1">
 <metadata>
  <rdf:RDF xmlns:dc="http://purl.org/dc/elements/1.1/" xmlns:cc="http://creativecommons.org/ns#" xmlns:rdf="http://www.w3.org/1999/02/22-rdf-syntax-ns#">
   <cc:Work>
    <dc:type rdf:resource="http://purl.org/dc/dcmitype/StillImage"/>
    <dc:date>2021-12-10T18:14:51.309074</dc:date>
    <dc:format>image/svg+xml</dc:format>
    <dc:creator>
     <cc:Agent>
      <dc:title>Matplotlib v3.5.0, https://matplotlib.org/</dc:title>
     </cc:Agent>
    </dc:creator>
   </cc:Work>
  </rdf:RDF>
 </metadata>
 <defs>
  <style type="text/css">*{stroke-linejoin: round; stroke-linecap: butt}</style>
 </defs>
 <g id="figure_1">
  <g id="patch_1">
   <path d="M 0 280.512 
L 371.52 280.512 
L 371.52 0 
L 0 0 
L 0 280.512 
z
" style="fill: none"/>
  </g>
  <g id="axes_1">
   <g id="patch_2">
    <path d="M 185.429319 19.296 
C 169.153571 19.296 153.045352 22.594254 138.079412 28.991175 
C 123.113473 35.388097 109.597905 44.751998 98.350572 56.516243 
C 87.10324 68.280488 78.355683 82.202896 72.637239 97.440985 
C 66.918795 112.679073 64.347186 128.919149 65.078026 145.178479 
C 65.808866 161.437809 69.827111 177.381677 76.889605 192.045276 
C 83.9521 206.708874 93.913454 219.790336 106.170878 230.498066 
C 118.428303 241.205796 132.729466 249.319363 148.208963 254.347793 
C 163.68846 259.376223 180.027629 261.216 196.237742 259.755794 
L 185.429319 139.768811 
L 185.429319 19.296 
z
" style="fill: #0000ff"/>
   </g>
   <g id="patch_3">
    <path d="M 196.237742 259.755794 
C 227.116951 256.974196 255.761045 242.376847 276.158574 219.027251 
C 296.556103 195.677654 307.172814 165.332108 305.780611 134.359142 
C 304.388408 103.386176 291.092008 74.115501 268.681887 52.690065 
C 246.271765 31.264628 216.433558 19.296 185.429319 19.296 
L 185.429319 139.768811 
L 196.237742 259.755794 
z
" style="fill: #ff0000"/>
   </g>
   <g id="matplotlib.axis_1"/>
   <g id="matplotlib.axis_2"/>
  </g>
 </g>
</svg>
