<?xml version="1.0" encoding="utf-8" standalone="no"?>
<!DOCTYPE svg PUBLIC "-//W3C//DTD SVG 1.1//EN"
  "http://www.w3.org/Graphics/SVG/1.1/DTD/svg11.dtd">
<svg xmlns:xlink="http://www.w3.org/1999/xlink" width="512.81955pt" height="509.60394pt" viewBox="0 0 512.81955 509.60394" xmlns="http://www.w3.org/2000/svg" version="1.1">
 <metadata>
  <rdf:RDF xmlns:dc="http://purl.org/dc/elements/1.1/" xmlns:cc="http://creativecommons.org/ns#" xmlns:rdf="http://www.w3.org/1999/02/22-rdf-syntax-ns#">
   <cc:Work>
    <dc:type rdf:resource="http://purl.org/dc/dcmitype/StillImage"/>
    <dc:date>2022-01-14T17:05:51.198997</dc:date>
    <dc:format>image/svg+xml</dc:format>
    <dc:creator>
     <cc:Agent>
      <dc:title>Matplotlib v3.5.1, https://matplotlib.org/</dc:title>
     </cc:Agent>
    </dc:creator>
   </cc:Work>
  </rdf:RDF>
 </metadata>
 <defs>
  <style type="text/css">*{stroke-linejoin: round; stroke-linecap: butt}</style>
 </defs>
 <g id="figure_1">
  <g id="patch_1">
   <path d="M 0 509.60394 
L 512.81955 509.60394 
L 512.81955 -0 
L 0 -0 
L 0 509.60394 
z
" style="fill: none"/>
  </g>
  <g id="axes_1">
   <g id="patch_2">
    <path d="M 254.824073 29.70927 
C 222.61422 29.70927 190.780265 36.658312 161.500435 50.080911 
C 132.220604 63.50351 106.178306 83.086374 85.155475 107.489554 
C 64.132644 131.892734 48.619964 160.546645 39.678885 191.490654 
C 30.737805 222.434664 28.577017 254.946521 33.34437 286.801614 
C 38.111723 318.656707 49.695945 349.111521 67.304391 376.082195 
C 84.912836 403.05287 108.134513 425.909894 135.380487 443.089286 
C 162.626462 460.268678 193.260797 471.369459 225.187351 475.632065 
C 257.113904 479.89467 289.587492 477.219607 320.386121 467.789916 
L 254.824073 253.655519 
L 254.824073 29.70927 
z
" style="fill: #0000ff; stroke: #000000; stroke-linejoin: miter"/>
   </g>
   <g id="patch_3">
    <path d="M 320.386121 467.789916 
C 371.673041 452.087275 415.650135 418.470023 444.25784 373.099104 
C 472.865545 327.728185 484.242533 273.555603 476.303775 220.509423 
C 468.365017 167.463243 441.627039 118.994852 400.990037 83.986921 
C 360.353036 48.97899 308.46101 29.70927 254.824073 29.70927 
L 254.824073 253.655519 
L 320.386121 467.789916 
z
" style="fill: #ff0000; stroke: #000000; stroke-linejoin: miter"/>
   </g>
   <g id="matplotlib.axis_1"/>
   <g id="matplotlib.axis_2"/>
  </g>
 </g>
</svg>
