<?xml version="1.0" encoding="utf-8" standalone="no"?>
<!DOCTYPE svg PUBLIC "-//W3C//DTD SVG 1.1//EN"
  "http://www.w3.org/Graphics/SVG/1.1/DTD/svg11.dtd">
<svg xmlns:xlink="http://www.w3.org/1999/xlink" width="371.52pt" height="280.512pt" viewBox="0 0 371.52 280.512" xmlns="http://www.w3.org/2000/svg" version="1.1">
 <metadata>
  <rdf:RDF xmlns:dc="http://purl.org/dc/elements/1.1/" xmlns:cc="http://creativecommons.org/ns#" xmlns:rdf="http://www.w3.org/1999/02/22-rdf-syntax-ns#">
   <cc:Work>
    <dc:type rdf:resource="http://purl.org/dc/dcmitype/StillImage"/>
    <dc:date>2021-12-03T16:10:04.364150</dc:date>
    <dc:format>image/svg+xml</dc:format>
    <dc:creator>
     <cc:Agent>
      <dc:title>Matplotlib v3.5.0, https://matplotlib.org/</dc:title>
     </cc:Agent>
    </dc:creator>
   </cc:Work>
  </rdf:RDF>
 </metadata>
 <defs>
  <style type="text/css">*{stroke-linejoin: round; stroke-linecap: butt}</style>
 </defs>
 <g id="figure_1">
  <g id="patch_1">
   <path d="M 0 280.512 
L 371.52 280.512 
L 371.52 0 
L 0 0 
L 0 280.512 
z
" style="fill: none"/>
  </g>
  <g id="axes_1">
   <g id="patch_2">
    <path d="M 184.907877 19.296 
C 167.598992 19.296 150.492106 23.030267 134.757752 30.243284 
C 119.023397 37.456301 105.028824 47.979713 93.731604 61.09346 
C 82.434384 74.207207 74.098202 89.605205 69.293458 106.233854 
C 64.488713 122.862502 63.327551 140.333679 65.889425 157.451924 
C 68.451299 174.570169 74.676412 190.935934 84.138813 205.429398 
C 93.601215 219.922861 106.080047 232.205737 120.721451 241.437574 
C 135.362854 250.669412 151.825091 256.634734 168.981737 258.925367 
C 186.138384 261.216 203.588995 259.778478 220.139519 254.711164 
L 184.907877 139.639922 
L 184.907877 19.296 
z
" style="fill: #0000ff"/>
   </g>
   <g id="patch_3">
    <path d="M 220.139519 254.711164 
C 247.700012 246.272901 271.332362 228.207709 286.70553 203.826348 
C 302.078698 179.444987 308.192449 150.333801 303.92633 121.827919 
C 299.660211 93.322037 285.291794 67.276161 263.454339 48.463648 
C 241.616884 29.651135 213.73122 19.296 184.907877 19.296 
L 184.907877 139.639922 
L 220.139519 254.711164 
z
" style="fill: #bf00bf"/>
   </g>
   <g id="matplotlib.axis_1"/>
   <g id="matplotlib.axis_2"/>
  </g>
 </g>
</svg>
