<?xml version="1.0" encoding="utf-8" standalone="no"?>
<!DOCTYPE svg PUBLIC "-//W3C//DTD SVG 1.1//EN"
  "http://www.w3.org/Graphics/SVG/1.1/DTD/svg11.dtd">
<svg xmlns:xlink="http://www.w3.org/1999/xlink" width="371.52pt" height="280.512pt" viewBox="0 0 371.52 280.512" xmlns="http://www.w3.org/2000/svg" version="1.1">
 <metadata>
  <rdf:RDF xmlns:dc="http://purl.org/dc/elements/1.1/" xmlns:cc="http://creativecommons.org/ns#" xmlns:rdf="http://www.w3.org/1999/02/22-rdf-syntax-ns#">
   <cc:Work>
    <dc:type rdf:resource="http://purl.org/dc/dcmitype/StillImage"/>
    <dc:date>2021-12-03T16:10:13.010067</dc:date>
    <dc:format>image/svg+xml</dc:format>
    <dc:creator>
     <cc:Agent>
      <dc:title>Matplotlib v3.5.0, https://matplotlib.org/</dc:title>
     </cc:Agent>
    </dc:creator>
   </cc:Work>
  </rdf:RDF>
 </metadata>
 <defs>
  <style type="text/css">*{stroke-linejoin: round; stroke-linecap: butt}</style>
 </defs>
 <g id="figure_1">
  <g id="patch_1">
   <path d="M 0 280.512 
L 371.52 280.512 
L 371.52 0 
L 0 0 
L 0 280.512 
z
" style="fill: none"/>
  </g>
  <g id="axes_1">
   <g id="patch_2">
    <path d="M 185.894774 19.296003 
C 154.250505 19.296003 123.841367 31.738412 101.273205 53.920337 
C 78.705044 76.102262 65.739607 106.292107 65.193407 137.931661 
C 64.647206 169.571215 76.562881 200.190587 98.35196 223.138261 
C 120.14104 246.085934 150.102595 259.570536 181.728008 260.662774 
L 185.894774 140.015354 
L 185.894774 19.296003 
z
" style="fill: #0000ff"/>
   </g>
   <g id="patch_3">
    <path d="M 181.728008 260.662774 
C 197.74651 261.216 213.715959 258.573533 228.702448 252.889907 
C 243.688938 247.206281 257.394521 238.594492 269.017684 227.558163 
C 280.640848 216.521835 289.950511 203.280382 296.402238 188.608173 
C 302.853965 173.935965 306.319488 158.124701 306.596141 142.099036 
C 306.872794 126.073371 303.955076 110.151913 298.013619 95.265759 
C 292.072162 80.379606 283.225087 66.824711 271.989779 55.393774 
C 260.75447 43.962837 247.354298 34.883118 232.572914 28.685605 
C 217.791529 22.488093 201.922804 19.296 185.894751 19.296003 
L 185.894774 140.015354 
L 181.728008 260.662774 
z
" style="fill: #bf00bf"/>
   </g>
   <g id="matplotlib.axis_1"/>
   <g id="matplotlib.axis_2"/>
  </g>
 </g>
</svg>
