<?xml version="1.0" encoding="utf-8" standalone="no"?>
<!DOCTYPE svg PUBLIC "-//W3C//DTD SVG 1.1//EN"
  "http://www.w3.org/Graphics/SVG/1.1/DTD/svg11.dtd">
<svg xmlns:xlink="http://www.w3.org/1999/xlink" width="371.52pt" height="280.512pt" viewBox="0 0 371.52 280.512" xmlns="http://www.w3.org/2000/svg" version="1.1">
 <metadata>
  <rdf:RDF xmlns:dc="http://purl.org/dc/elements/1.1/" xmlns:cc="http://creativecommons.org/ns#" xmlns:rdf="http://www.w3.org/1999/02/22-rdf-syntax-ns#">
   <cc:Work>
    <dc:type rdf:resource="http://purl.org/dc/dcmitype/StillImage"/>
    <dc:date>2021-12-10T18:14:59.305086</dc:date>
    <dc:format>image/svg+xml</dc:format>
    <dc:creator>
     <cc:Agent>
      <dc:title>Matplotlib v3.5.0, https://matplotlib.org/</dc:title>
     </cc:Agent>
    </dc:creator>
   </cc:Work>
  </rdf:RDF>
 </metadata>
 <defs>
  <style type="text/css">*{stroke-linejoin: round; stroke-linecap: butt}</style>
 </defs>
 <g id="figure_1">
  <g id="patch_1">
   <path d="M 0 280.512 
L 371.52 280.512 
L 371.52 0 
L 0 0 
L 0 280.512 
z
" style="fill: none"/>
  </g>
  <g id="axes_1">
   <g id="patch_2">
    <path d="M 186.05469 19.296 
C 160.892885 19.296 136.354969 27.195596 115.918994 41.875085 
C 95.483019 56.554574 80.16241 77.285996 72.128739 101.13084 
C 64.095067 124.975684 63.746726 150.751478 71.133088 174.804713 
C 78.51945 198.857948 93.274225 219.995818 113.306043 235.222201 
L 186.05469 139.514134 
L 186.05469 19.296 
z
" style="fill: #0000ff"/>
   </g>
   <g id="patch_3">
    <path d="M 113.306043 235.222201 
C 128.496451 246.768579 146.219739 254.534322 165.005535 257.875161 
C 183.791332 261.216 203.105354 260.03692 221.345259 254.435739 
C 239.585164 248.834559 256.232195 238.970581 269.905268 225.662148 
C 283.578342 212.353714 293.888586 195.979326 299.980635 177.897449 
C 306.072683 159.815572 307.773274 140.540466 304.941322 121.671248 
C 302.109369 102.80203 294.825416 84.875354 283.693759 69.378465 
C 272.562102 53.881577 257.899333 41.255219 240.921916 32.546909 
C 223.944499 23.838599 205.135284 19.296007 186.054735 19.296 
L 186.05469 139.514134 
L 113.306043 235.222201 
z
" style="fill: #ff0000"/>
   </g>
   <g id="matplotlib.axis_1"/>
   <g id="matplotlib.axis_2"/>
  </g>
 </g>
</svg>
