<?xml version="1.0" encoding="utf-8" standalone="no"?>
<!DOCTYPE svg PUBLIC "-//W3C//DTD SVG 1.1//EN"
  "http://www.w3.org/Graphics/SVG/1.1/DTD/svg11.dtd">
<svg xmlns:xlink="http://www.w3.org/1999/xlink" width="22.0167pt" height="21.96756pt" viewBox="0 0 22.0167 21.96756" xmlns="http://www.w3.org/2000/svg" version="1.1">
 <metadata>
  <rdf:RDF xmlns:dc="http://purl.org/dc/elements/1.1/" xmlns:cc="http://creativecommons.org/ns#" xmlns:rdf="http://www.w3.org/1999/02/22-rdf-syntax-ns#">
   <cc:Work>
    <dc:type rdf:resource="http://purl.org/dc/dcmitype/StillImage"/>
    <dc:date>2022-01-14T17:05:59.635540</dc:date>
    <dc:format>image/svg+xml</dc:format>
    <dc:creator>
     <cc:Agent>
      <dc:title>Matplotlib v3.5.1, https://matplotlib.org/</dc:title>
     </cc:Agent>
    </dc:creator>
   </cc:Work>
  </rdf:RDF>
 </metadata>
 <defs>
  <style type="text/css">*{stroke-linejoin: round; stroke-linecap: butt}</style>
 </defs>
 <g id="figure_1">
  <g id="patch_1">
   <path d="M -0 21.96756 
L 22.0167 21.96756 
L 22.0167 -0 
L -0 -0 
L -0 21.96756 
z
" style="fill: none"/>
  </g>
  <g id="axes_1">
   <g id="patch_2">
    <path d="M 11.012203 7.526011 
C 10.107618 7.526011 9.238341 7.881691 8.593206 8.515784 
C 7.948072 9.149878 7.577441 10.012886 7.561827 10.917336 
C 7.546214 11.821786 7.886836 12.697073 8.509699 13.353056 
C 9.132563 14.00904 9.989046 14.394511 10.893091 14.425734 
L 11.012203 10.976901 
L 11.012203 7.526011 
z
" style="fill: #0000ff; stroke: #000000; stroke-linejoin: miter"/>
   </g>
   <g id="patch_3">
    <path d="M 10.893091 14.425734 
C 11.350997 14.441549 11.8075 14.366011 12.235905 14.203538 
C 12.66431 14.041066 13.056098 13.794889 13.388358 13.479404 
C 13.720619 13.163919 13.986745 12.785398 14.171175 12.365978 
C 14.355604 11.946557 14.45467 11.494576 14.462578 11.036465 
C 14.470486 10.578355 14.38708 10.123223 14.217238 9.697687 
C 14.047395 9.27215 13.794492 8.884669 13.473319 8.557904 
C 13.152146 8.231139 12.769088 7.971586 12.346546 7.794423 
C 11.924005 7.617261 11.470381 7.526011 11.012202 7.526011 
L 11.012203 10.976901 
L 10.893091 14.425734 
z
" style="fill: #ff0000; stroke: #000000; stroke-linejoin: miter"/>
   </g>
   <g id="matplotlib.axis_1"/>
   <g id="matplotlib.axis_2"/>
  </g>
 </g>
</svg>
