<?xml version="1.0" encoding="utf-8" standalone="no"?>
<!DOCTYPE svg PUBLIC "-//W3C//DTD SVG 1.1//EN"
  "http://www.w3.org/Graphics/SVG/1.1/DTD/svg11.dtd">
<svg xmlns:xlink="http://www.w3.org/1999/xlink" width="371.52pt" height="280.512pt" viewBox="0 0 371.52 280.512" xmlns="http://www.w3.org/2000/svg" version="1.1">
 <metadata>
  <rdf:RDF xmlns:dc="http://purl.org/dc/elements/1.1/" xmlns:cc="http://creativecommons.org/ns#" xmlns:rdf="http://www.w3.org/1999/02/22-rdf-syntax-ns#">
   <cc:Work>
    <dc:type rdf:resource="http://purl.org/dc/dcmitype/StillImage"/>
    <dc:date>2021-12-03T16:10:05.286227</dc:date>
    <dc:format>image/svg+xml</dc:format>
    <dc:creator>
     <cc:Agent>
      <dc:title>Matplotlib v3.5.0, https://matplotlib.org/</dc:title>
     </cc:Agent>
    </dc:creator>
   </cc:Work>
  </rdf:RDF>
 </metadata>
 <defs>
  <style type="text/css">*{stroke-linejoin: round; stroke-linecap: butt}</style>
 </defs>
 <g id="figure_1">
  <g id="patch_1">
   <path d="M 0 280.512 
L 371.52 280.512 
L 371.52 0 
L 0 0 
L 0 280.512 
z
" style="fill: none"/>
  </g>
  <g id="axes_1">
   <g id="patch_2">
    <path d="M 185.186576 19.296 
C 168.509818 19.296 152.013465 22.760361 136.745569 29.468983 
C 121.477672 36.177605 107.768563 45.985345 96.48921 58.269093 
C 85.209857 70.552841 76.604297 85.046832 71.21926 100.83023 
C 65.834223 116.613628 63.786218 133.344949 65.205359 149.961216 
C 66.6245 166.577482 71.480083 182.719191 79.463622 197.360822 
C 87.447161 212.002454 98.385928 224.827228 111.584958 235.020357 
C 124.783987 245.213487 139.95771 252.554438 156.142107 256.576823 
C 172.326504 260.599208 189.171414 261.216 205.606643 258.388013 
L 185.186576 139.714012 
L 185.186576 19.296 
z
" style="fill: #0000ff"/>
   </g>
   <g id="patch_3">
    <path d="M 205.606643 258.388013 
C 235.323645 253.274651 262.062436 237.181169 280.492921 213.315631 
C 298.923407 189.450093 307.733782 159.511149 305.167793 129.466809 
C 302.601804 99.422468 288.842087 71.411162 266.631495 51.016646 
C 244.420903 30.62213 215.340294 19.296 185.186576 19.296 
L 185.186576 139.714012 
L 205.606643 258.388013 
z
" style="fill: #bf00bf"/>
   </g>
   <g id="matplotlib.axis_1"/>
   <g id="matplotlib.axis_2"/>
  </g>
 </g>
</svg>
