<?xml version="1.0" encoding="utf-8" standalone="no"?>
<!DOCTYPE svg PUBLIC "-//W3C//DTD SVG 1.1//EN"
  "http://www.w3.org/Graphics/SVG/1.1/DTD/svg11.dtd">
<svg xmlns:xlink="http://www.w3.org/1999/xlink" width="399.6711pt" height="397.18548pt" viewBox="0 0 399.6711 397.18548" xmlns="http://www.w3.org/2000/svg" version="1.1">
 <metadata>
  <rdf:RDF xmlns:dc="http://purl.org/dc/elements/1.1/" xmlns:cc="http://creativecommons.org/ns#" xmlns:rdf="http://www.w3.org/1999/02/22-rdf-syntax-ns#">
   <cc:Work>
    <dc:type rdf:resource="http://purl.org/dc/dcmitype/StillImage"/>
    <dc:date>2021-12-14T09:20:55.249154</dc:date>
    <dc:format>image/svg+xml</dc:format>
    <dc:creator>
     <cc:Agent>
      <dc:title>Matplotlib v3.5.0, https://matplotlib.org/</dc:title>
     </cc:Agent>
    </dc:creator>
   </cc:Work>
  </rdf:RDF>
 </metadata>
 <defs>
  <style type="text/css">*{stroke-linejoin: round; stroke-linecap: butt}</style>
 </defs>
 <g id="figure_1">
  <g id="patch_1">
   <path d="M 0 397.18548 
L 399.6711 397.18548 
L 399.6711 0 
L 0 0 
L 0 397.18548 
z
" style="fill: none"/>
  </g>
  <g id="axes_1">
   <g id="patch_2">
    <path d="M 199.01226 24.59934 
C 175.06869 24.59934 151.384137 29.582606 129.463334 39.23254 
C 107.542531 48.882474 87.859747 62.990294 71.665474 80.659698 
C 55.471202 98.329102 43.115813 119.177803 35.384274 141.881234 
C 27.652736 164.584666 24.712323 188.651626 26.749847 212.553086 
C 28.787371 236.454547 35.75875 259.673386 47.221075 280.734458 
C 58.6834 301.79553 74.388678 320.243166 93.339116 334.905345 
C 112.289555 349.567525 134.07515 360.127024 157.311813 365.912974 
C 180.548477 371.698923 204.73347 372.58614 228.330266 368.518258 
L 199.01226 197.813125 
L 199.01226 24.59934 
z
" style="fill: #0000ff"/>
   </g>
   <g id="patch_3">
    <path d="M 228.330266 368.518258 
C 270.996298 361.163006 309.386378 338.013537 335.847852 303.684453 
C 362.309326 269.355368 374.958777 226.290069 371.274672 183.073163 
C 367.590567 139.856257 347.835124 99.563744 315.946382 70.227507 
C 284.057639 40.89127 242.305304 24.59934 199.01226 24.59934 
L 199.01226 197.813125 
L 228.330266 368.518258 
z
" style="fill: #ff0000"/>
   </g>
   <g id="matplotlib.axis_1"/>
   <g id="matplotlib.axis_2"/>
  </g>
 </g>
</svg>
