<?xml version="1.0" encoding="utf-8" standalone="no"?>
<!DOCTYPE svg PUBLIC "-//W3C//DTD SVG 1.1//EN"
  "http://www.w3.org/Graphics/SVG/1.1/DTD/svg11.dtd">
<svg xmlns:xlink="http://www.w3.org/1999/xlink" width="111.4641pt" height="110.83788pt" viewBox="0 0 111.4641 110.83788" xmlns="http://www.w3.org/2000/svg" version="1.1">
 <metadata>
  <rdf:RDF xmlns:dc="http://purl.org/dc/elements/1.1/" xmlns:cc="http://creativecommons.org/ns#" xmlns:rdf="http://www.w3.org/1999/02/22-rdf-syntax-ns#">
   <cc:Work>
    <dc:type rdf:resource="http://purl.org/dc/dcmitype/StillImage"/>
    <dc:date>2021-12-14T09:20:56.171128</dc:date>
    <dc:format>image/svg+xml</dc:format>
    <dc:creator>
     <cc:Agent>
      <dc:title>Matplotlib v3.5.0, https://matplotlib.org/</dc:title>
     </cc:Agent>
    </dc:creator>
   </cc:Work>
  </rdf:RDF>
 </metadata>
 <defs>
  <style type="text/css">*{stroke-linejoin: round; stroke-linecap: butt}</style>
 </defs>
 <g id="figure_1">
  <g id="patch_1">
   <path d="M 0 110.83788 
L 111.4641 110.83788 
L 111.4641 0 
L 0 0 
L 0 110.83788 
z
" style="fill: none"/>
  </g>
  <g id="axes_1">
   <g id="patch_2">
    <path d="M 55.509064 11.58354 
C 49.451437 11.58354 43.460003 12.852009 37.919173 15.307561 
C 32.378344 17.763114 27.409209 21.352086 23.330591 25.844207 
C 19.251973 30.336329 16.153006 35.633428 14.232521 41.395642 
C 12.312037 47.157857 11.612005 53.259256 12.17734 59.308374 
C 12.742675 65.357492 14.561022 71.222129 17.515715 76.526009 
C 20.470408 81.829888 24.496876 86.457098 29.336777 90.110755 
C 34.176679 93.764412 39.724243 96.364668 45.623535 97.74469 
C 51.522828 99.124711 57.644925 99.25434 63.59703 98.125258 
L 55.509064 55.23459 
L 55.509064 11.58354 
z
" style="fill: #0000ff"/>
   </g>
   <g id="patch_3">
    <path d="M 63.59703 98.125258 
C 74.244532 96.105486 83.765339 90.168339 90.281859 81.48468 
C 96.798378 72.801021 99.852095 61.981848 98.840789 51.160805 
C 97.829482 40.339762 92.824308 30.278237 84.812335 22.960458 
C 76.800363 15.64268 66.345328 11.58354 55.509064 11.58354 
L 55.509064 55.23459 
L 63.59703 98.125258 
z
" style="fill: #ff0000"/>
   </g>
   <g id="matplotlib.axis_1"/>
   <g id="matplotlib.axis_2"/>
  </g>
 </g>
</svg>
