<?xml version="1.0" encoding="utf-8" standalone="no"?>
<!DOCTYPE svg PUBLIC "-//W3C//DTD SVG 1.1//EN"
  "http://www.w3.org/Graphics/SVG/1.1/DTD/svg11.dtd">
<svg xmlns:xlink="http://www.w3.org/1999/xlink" width="173.19285pt" height="172.16838pt" viewBox="0 0 173.19285 172.16838" xmlns="http://www.w3.org/2000/svg" version="1.1">
 <metadata>
  <rdf:RDF xmlns:dc="http://purl.org/dc/elements/1.1/" xmlns:cc="http://creativecommons.org/ns#" xmlns:rdf="http://www.w3.org/1999/02/22-rdf-syntax-ns#">
   <cc:Work>
    <dc:type rdf:resource="http://purl.org/dc/dcmitype/StillImage"/>
    <dc:date>2022-01-14T17:05:54.040102</dc:date>
    <dc:format>image/svg+xml</dc:format>
    <dc:creator>
     <cc:Agent>
      <dc:title>Matplotlib v3.5.1, https://matplotlib.org/</dc:title>
     </cc:Agent>
    </dc:creator>
   </cc:Work>
  </rdf:RDF>
 </metadata>
 <defs>
  <style type="text/css">*{stroke-linejoin: round; stroke-linecap: butt}</style>
 </defs>
 <g id="figure_1">
  <g id="patch_1">
   <path d="M 0 172.16838 
L 173.19285 172.16838 
L 173.19285 0 
L 0 0 
L 0 172.16838 
z
" style="fill: none"/>
  </g>
  <g id="axes_1">
   <g id="patch_2">
    <path d="M 86.177148 14.37129 
C 76.167702 14.37129 66.270205 16.495308 57.134305 20.603929 
C 47.998405 24.71255 39.828459 30.71387 33.160722 38.213976 
C 26.492985 45.714082 21.476606 54.545208 18.440848 64.127699 
C 15.405089 73.710191 14.417857 83.829701 15.54395 93.822009 
C 16.670044 103.814318 19.884274 113.45591 24.975667 122.113937 
C 30.06706 130.771963 36.921727 138.252754 45.089746 144.06529 
C 53.257765 149.877826 62.556428 153.892088 72.375392 155.844589 
C 82.194357 157.79709 92.313987 157.644156 102.070054 155.395825 
L 86.177148 85.787468 
L 86.177148 14.37129 
z
" style="fill: #0000ff; stroke: #000000; stroke-linejoin: miter"/>
   </g>
   <g id="patch_3">
    <path d="M 102.070054 155.395825 
C 119.091064 151.473253 134.090503 141.383494 144.184297 127.066593 
C 154.27809 112.749692 158.774993 95.186103 156.810346 77.752933 
C 154.845698 60.319764 146.554044 44.210875 133.529692 32.523666 
C 120.505341 20.836457 103.640229 14.371293 86.177161 14.37129 
L 86.177148 85.787468 
L 102.070054 155.395825 
z
" style="fill: #ff0000; stroke: #000000; stroke-linejoin: miter"/>
   </g>
   <g id="matplotlib.axis_1"/>
   <g id="matplotlib.axis_2"/>
  </g>
 </g>
</svg>
