<?xml version="1.0" encoding="utf-8" standalone="no"?>
<!DOCTYPE svg PUBLIC "-//W3C//DTD SVG 1.1//EN"
  "http://www.w3.org/Graphics/SVG/1.1/DTD/svg11.dtd">
<svg xmlns:xlink="http://www.w3.org/1999/xlink" width="387.99495pt" height="385.58466pt" viewBox="0 0 387.99495 385.58466" xmlns="http://www.w3.org/2000/svg" version="1.1">
 <metadata>
  <rdf:RDF xmlns:dc="http://purl.org/dc/elements/1.1/" xmlns:cc="http://creativecommons.org/ns#" xmlns:rdf="http://www.w3.org/1999/02/22-rdf-syntax-ns#">
   <cc:Work>
    <dc:type rdf:resource="http://purl.org/dc/dcmitype/StillImage"/>
    <dc:date>2022-01-14T17:05:54.947584</dc:date>
    <dc:format>image/svg+xml</dc:format>
    <dc:creator>
     <cc:Agent>
      <dc:title>Matplotlib v3.5.1, https://matplotlib.org/</dc:title>
     </cc:Agent>
    </dc:creator>
   </cc:Work>
  </rdf:RDF>
 </metadata>
 <defs>
  <style type="text/css">*{stroke-linejoin: round; stroke-linecap: butt}</style>
 </defs>
 <g id="figure_1">
  <g id="patch_1">
   <path d="M 0 385.58466 
L 387.99495 385.58466 
L 387.99495 0 
L 0 0 
L 0 385.58466 
z
" style="fill: none"/>
  </g>
  <g id="axes_1">
   <g id="patch_2">
    <path d="M 193.900026 23.080373 
C 171.512993 23.080373 149.346097 27.514822 128.681942 36.127137 
C 108.017787 44.739452 89.262765 57.360259 73.502065 73.259302 
C 57.741364 89.158346 45.284943 108.022948 36.853545 128.761578 
C 28.422147 149.500208 24.181589 171.705012 24.377233 194.09119 
C 24.572878 216.477368 29.200879 238.604665 37.993453 259.192766 
C 46.786027 279.780866 59.570256 298.424877 75.606428 314.046031 
C 91.6426 329.667184 110.615341 341.958268 131.426862 350.208105 
C 152.238384 358.457942 174.479399 362.504287 196.863013 362.113012 
L 193.900026 192.60964 
L 193.900026 23.080373 
z
" style="fill: #0000ff; stroke: #000000; stroke-linejoin: miter"/>
   </g>
   <g id="patch_3">
    <path d="M 196.863013 362.113012 
C 241.54474 361.331958 284.153778 342.914329 315.336416 310.903239 
C 346.519055 278.892149 363.813361 235.814937 363.422819 191.128091 
C 363.032277 146.441244 344.98772 103.672877 313.250364 72.211679 
C 281.513008 40.75048 238.58858 23.080373 193.900026 23.080373 
L 193.900026 192.60964 
L 196.863013 362.113012 
z
" style="fill: #ff0000; stroke: #000000; stroke-linejoin: miter"/>
   </g>
   <g id="matplotlib.axis_1"/>
   <g id="matplotlib.axis_2"/>
  </g>
 </g>
</svg>
