<?xml version="1.0" encoding="utf-8" standalone="no"?>
<!DOCTYPE svg PUBLIC "-//W3C//DTD SVG 1.1//EN"
  "http://www.w3.org/Graphics/SVG/1.1/DTD/svg11.dtd">
<svg xmlns:xlink="http://www.w3.org/1999/xlink" width="21.096pt" height="21.0528pt" viewBox="0 0 21.096 21.0528" xmlns="http://www.w3.org/2000/svg" version="1.1">
 <metadata>
  <rdf:RDF xmlns:dc="http://purl.org/dc/elements/1.1/" xmlns:cc="http://creativecommons.org/ns#" xmlns:rdf="http://www.w3.org/1999/02/22-rdf-syntax-ns#">
   <cc:Work>
    <dc:type rdf:resource="http://purl.org/dc/dcmitype/StillImage"/>
    <dc:date>2021-12-14T09:21:03.573662</dc:date>
    <dc:format>image/svg+xml</dc:format>
    <dc:creator>
     <cc:Agent>
      <dc:title>Matplotlib v3.5.0, https://matplotlib.org/</dc:title>
     </cc:Agent>
    </dc:creator>
   </cc:Work>
  </rdf:RDF>
 </metadata>
 <defs>
  <style type="text/css">*{stroke-linejoin: round; stroke-linecap: butt}</style>
 </defs>
 <g id="figure_1">
  <g id="patch_1">
   <path d="M 0 21.0528 
L 21.096 21.0528 
L 21.096 0 
L 0 0 
L 0 21.0528 
z
" style="fill: none"/>
  </g>
  <g id="axes_1">
   <g id="patch_2">
    <path d="M 10.5412 7.5024 
C 10.066212 7.5024 9.597949 7.615447 9.175086 7.832202 
C 8.752222 8.048958 8.386731 8.363287 8.108799 8.749226 
C 7.830868 9.135166 7.648365 9.581789 7.576364 10.052208 
C 7.504364 10.522627 7.544904 11.003522 7.694636 11.455175 
C 7.844369 11.906828 8.099055 12.316452 8.437658 12.650212 
C 8.776261 12.983973 9.189196 13.232422 9.642355 13.375038 
C 10.095514 13.517654 10.576068 13.5504 11.044325 13.470571 
C 11.512583 13.390742 11.955287 13.200598 12.335872 12.915845 
L 10.5412 10.507776 
L 10.5412 7.5024 
z
" style="fill: #0000ff"/>
   </g>
   <g id="patch_3">
    <path d="M 12.335872 12.915845 
C 12.840648 12.538172 13.214069 12.010592 13.402853 11.408383 
C 13.591636 10.806174 13.586355 10.15941 13.387763 9.560376 
C 13.189171 8.961343 12.807184 8.439955 12.296309 8.070608 
C 11.785434 7.701261 11.171182 7.5024 10.5412 7.5024 
L 10.5412 10.507776 
L 12.335872 12.915845 
z
" style="fill: #ff0000"/>
   </g>
   <g id="matplotlib.axis_1"/>
   <g id="matplotlib.axis_2"/>
  </g>
 </g>
</svg>
