<?xml version="1.0" encoding="utf-8" standalone="no"?>
<!DOCTYPE svg PUBLIC "-//W3C//DTD SVG 1.1//EN"
  "http://www.w3.org/Graphics/SVG/1.1/DTD/svg11.dtd">
<svg xmlns:xlink="http://www.w3.org/1999/xlink" width="131.62185pt" height="130.86558pt" viewBox="0 0 131.62185 130.86558" xmlns="http://www.w3.org/2000/svg" version="1.1">
 <metadata>
  <rdf:RDF xmlns:dc="http://purl.org/dc/elements/1.1/" xmlns:cc="http://creativecommons.org/ns#" xmlns:rdf="http://www.w3.org/1999/02/22-rdf-syntax-ns#">
   <cc:Work>
    <dc:type rdf:resource="http://purl.org/dc/dcmitype/StillImage"/>
    <dc:date>2022-01-14T17:05:55.912649</dc:date>
    <dc:format>image/svg+xml</dc:format>
    <dc:creator>
     <cc:Agent>
      <dc:title>Matplotlib v3.5.1, https://matplotlib.org/</dc:title>
     </cc:Agent>
    </dc:creator>
   </cc:Work>
  </rdf:RDF>
 </metadata>
 <defs>
  <style type="text/css">*{stroke-linejoin: round; stroke-linecap: butt}</style>
 </defs>
 <g id="figure_1">
  <g id="patch_1">
   <path d="M 0 130.86558 
L 131.62185 130.86558 
L 131.62185 0 
L 0 0 
L 0 130.86558 
z
" style="fill: none"/>
  </g>
  <g id="axes_1">
   <g id="patch_2">
    <path d="M 65.39985 12.49389 
C 57.688472 12.49389 50.070206 14.186056 43.083966 17.450686 
C 36.097726 20.715315 29.912225 25.473569 24.965023 31.38885 
C 20.017822 37.304131 16.428391 44.233589 14.450646 51.687036 
C 12.472901 59.140484 12.154604 66.937925 13.51827 74.527771 
C 14.881936 82.117618 17.894634 89.31658 22.343246 95.615405 
C 26.791859 101.91423 32.568955 107.160806 39.265864 110.983993 
C 45.962774 114.807179 53.417772 117.114647 61.103493 117.743169 
C 68.789215 118.37169 76.520055 117.306086 83.749137 114.621737 
L 65.39985 65.20622 
L 65.39985 12.49389 
z
" style="fill: #0000ff; stroke: #000000; stroke-linejoin: miter"/>
   </g>
   <g id="patch_3">
    <path d="M 83.749137 114.621737 
C 95.336611 110.319002 105.049449 102.074662 111.177623 91.340205 
C 117.305797 80.605747 119.467246 68.050411 117.28143 55.884668 
C 115.095614 43.718925 108.698806 32.701248 99.21722 24.771393 
C 89.735633 16.841538 77.760396 12.49389 65.39985 12.49389 
L 65.39985 65.20622 
L 83.749137 114.621737 
z
" style="fill: #ff0000; stroke: #000000; stroke-linejoin: miter"/>
   </g>
   <g id="matplotlib.axis_1"/>
   <g id="matplotlib.axis_2"/>
  </g>
 </g>
</svg>
