<?xml version="1.0" encoding="utf-8" standalone="no"?>
<!DOCTYPE svg PUBLIC "-//W3C//DTD SVG 1.1//EN"
  "http://www.w3.org/Graphics/SVG/1.1/DTD/svg11.dtd">
<svg xmlns:xlink="http://www.w3.org/1999/xlink" width="371.52pt" height="280.512pt" viewBox="0 0 371.52 280.512" xmlns="http://www.w3.org/2000/svg" version="1.1">
 <metadata>
  <rdf:RDF xmlns:dc="http://purl.org/dc/elements/1.1/" xmlns:cc="http://creativecommons.org/ns#" xmlns:rdf="http://www.w3.org/1999/02/22-rdf-syntax-ns#">
   <cc:Work>
    <dc:type rdf:resource="http://purl.org/dc/dcmitype/StillImage"/>
    <dc:date>2021-12-10T18:14:55.743085</dc:date>
    <dc:format>image/svg+xml</dc:format>
    <dc:creator>
     <cc:Agent>
      <dc:title>Matplotlib v3.5.0, https://matplotlib.org/</dc:title>
     </cc:Agent>
    </dc:creator>
   </cc:Work>
  </rdf:RDF>
 </metadata>
 <defs>
  <style type="text/css">*{stroke-linejoin: round; stroke-linecap: butt}</style>
 </defs>
 <g id="figure_1">
  <g id="patch_1">
   <path d="M 0 280.512 
L 371.52 280.512 
L 371.52 0 
L 0 0 
L 0 280.512 
z
" style="fill: none"/>
  </g>
  <g id="axes_1">
   <g id="patch_2">
    <path d="M 185.962956 19.296 
C 154.537875 19.296 124.324323 31.576953 101.810917 53.501421 
C 79.297511 75.425888 66.220166 105.303364 65.387354 136.717408 
C 64.554542 168.131452 76.030477 198.659856 97.350605 221.746387 
C 118.670733 244.832917 148.191146 258.697466 179.572086 260.362505 
L 185.962956 139.913966 
L 185.962956 19.296 
z
" style="fill: #0000ff"/>
   </g>
   <g id="patch_3">
    <path d="M 179.572086 260.362505 
C 195.65787 261.216 211.752844 258.838549 226.904892 253.370794 
C 242.05694 247.903038 255.961274 239.454964 267.795368 228.526325 
C 279.629462 217.597687 289.155269 204.408318 295.80928 189.738449 
C 302.46329 175.06858 306.111658 159.2133 306.538558 143.110547 
C 306.965458 127.007793 304.162304 110.981478 298.29492 95.979654 
C 292.427535 80.97783 283.613945 67.302265 272.375526 55.761951 
C 261.137106 44.221637 247.699923 35.048712 232.858866 28.785809 
C 218.01781 22.522906 202.071413 19.296006 185.963001 19.296 
L 185.962956 139.913966 
L 179.572086 260.362505 
z
" style="fill: #ff0000"/>
   </g>
   <g id="matplotlib.axis_1"/>
   <g id="matplotlib.axis_2"/>
  </g>
 </g>
</svg>
