<?xml version="1.0" encoding="utf-8" standalone="no"?>
<!DOCTYPE svg PUBLIC "-//W3C//DTD SVG 1.1//EN"
  "http://www.w3.org/Graphics/SVG/1.1/DTD/svg11.dtd">
<svg xmlns:xlink="http://www.w3.org/1999/xlink" width="371.52pt" height="280.512pt" viewBox="0 0 371.52 280.512" xmlns="http://www.w3.org/2000/svg" version="1.1">
 <metadata>
  <rdf:RDF xmlns:dc="http://purl.org/dc/elements/1.1/" xmlns:cc="http://creativecommons.org/ns#" xmlns:rdf="http://www.w3.org/1999/02/22-rdf-syntax-ns#">
   <cc:Work>
    <dc:type rdf:resource="http://purl.org/dc/dcmitype/StillImage"/>
    <dc:date>2021-12-03T16:10:09.151723</dc:date>
    <dc:format>image/svg+xml</dc:format>
    <dc:creator>
     <cc:Agent>
      <dc:title>Matplotlib v3.5.0, https://matplotlib.org/</dc:title>
     </cc:Agent>
    </dc:creator>
   </cc:Work>
  </rdf:RDF>
 </metadata>
 <defs>
  <style type="text/css">*{stroke-linejoin: round; stroke-linecap: butt}</style>
 </defs>
 <g id="figure_1">
  <g id="patch_1">
   <path d="M 0 280.512 
L 371.52 280.512 
L 371.52 0 
L 0 0 
L 0 280.512 
z
" style="fill: none"/>
  </g>
  <g id="axes_1">
   <g id="patch_2">
    <path d="M 184.820735 19.296 
C 167.201021 19.296 149.794058 23.162428 133.831211 30.621774 
C 117.868364 38.08112 103.735123 48.953246 92.431271 62.469061 
C 81.127418 75.984876 72.925934 91.817982 68.406988 108.848351 
C 63.888043 125.87872 63.160765 143.69508 66.276603 161.037107 
C 69.392441 178.379134 76.276149 194.828029 86.440776 209.220204 
C 96.605403 223.612379 109.80548 235.600272 125.107238 244.335863 
C 140.408995 253.071454 157.442906 258.343785 175.003998 259.779892 
C 192.565089 261.216 210.229273 258.781203 226.746989 252.647739 
L 184.820735 139.73831 
L 184.820735 19.296 
z
" style="fill: #0000ff"/>
   </g>
   <g id="patch_3">
    <path d="M 226.746989 252.647739 
C 253.223189 242.816426 275.416035 223.97895 289.418288 199.451807 
C 303.420542 174.924664 308.359235 146.236997 303.364867 118.439512 
C 298.370499 90.642028 283.754445 65.467758 262.089984 47.348845 
C 240.425523 29.229933 213.063325 19.296 184.820735 19.296 
L 184.820735 139.73831 
L 226.746989 252.647739 
z
" style="fill: #bf00bf"/>
   </g>
   <g id="matplotlib.axis_1"/>
   <g id="matplotlib.axis_2"/>
  </g>
 </g>
</svg>
