<?xml version="1.0" encoding="utf-8" standalone="no"?>
<!DOCTYPE svg PUBLIC "-//W3C//DTD SVG 1.1//EN"
  "http://www.w3.org/Graphics/SVG/1.1/DTD/svg11.dtd">
<svg xmlns:xlink="http://www.w3.org/1999/xlink" width="45.82935pt" height="45.62658pt" viewBox="0 0 45.82935 45.62658" xmlns="http://www.w3.org/2000/svg" version="1.1">
 <metadata>
  <rdf:RDF xmlns:dc="http://purl.org/dc/elements/1.1/" xmlns:cc="http://creativecommons.org/ns#" xmlns:rdf="http://www.w3.org/1999/02/22-rdf-syntax-ns#">
   <cc:Work>
    <dc:type rdf:resource="http://purl.org/dc/dcmitype/StillImage"/>
    <dc:date>2021-12-14T09:20:59.777889</dc:date>
    <dc:format>image/svg+xml</dc:format>
    <dc:creator>
     <cc:Agent>
      <dc:title>Matplotlib v3.5.0, https://matplotlib.org/</dc:title>
     </cc:Agent>
    </dc:creator>
   </cc:Work>
  </rdf:RDF>
 </metadata>
 <defs>
  <style type="text/css">*{stroke-linejoin: round; stroke-linecap: butt}</style>
 </defs>
 <g id="figure_1">
  <g id="patch_1">
   <path d="M 0 45.62658 
L 45.82935 45.62658 
L 45.82935 0 
L 0 0 
L 0 45.62658 
z
" style="fill: none"/>
  </g>
  <g id="axes_1">
   <g id="patch_2">
    <path d="M 22.850701 8.61939 
C 20.902376 8.61939 18.974999 9.023389 17.190286 9.805874 
C 15.405574 10.588358 13.801905 11.732502 12.480552 13.166051 
C 11.1592 14.5996 10.148579 16.291728 9.512511 18.135573 
C 8.876443 19.979418 8.628607 21.935332 8.784653 23.879795 
C 8.940699 25.824258 9.497272 27.715457 10.419223 29.43396 
C 11.341174 31.152463 12.608679 32.661317 14.141691 33.865233 
C 15.674704 35.069149 17.440259 35.942241 19.32686 36.42937 
C 21.21346 36.916498 23.180538 37.00719 25.103867 36.695717 
L 22.850701 22.748187 
L 22.850701 8.61939 
z
" style="fill: #0000ff"/>
   </g>
   <g id="patch_3">
    <path d="M 25.103867 36.695717 
C 28.604198 36.128856 31.765698 34.261369 33.954045 31.467944 
C 36.142393 28.67452 37.200743 25.155372 36.91675 21.616578 
C 36.632757 18.077785 35.026775 14.772981 32.421026 12.36524 
C 29.815278 9.957499 26.396524 8.61939 22.850701 8.61939 
L 22.850701 22.748187 
L 25.103867 36.695717 
z
" style="fill: #ff0000"/>
   </g>
   <g id="matplotlib.axis_1"/>
   <g id="matplotlib.axis_2"/>
  </g>
 </g>
</svg>
