<?xml version="1.0" encoding="utf-8" standalone="no"?>
<!DOCTYPE svg PUBLIC "-//W3C//DTD SVG 1.1//EN"
  "http://www.w3.org/Graphics/SVG/1.1/DTD/svg11.dtd">
<svg xmlns:xlink="http://www.w3.org/1999/xlink" width="111.2409pt" height="110.61612pt" viewBox="0 0 111.2409 110.61612" xmlns="http://www.w3.org/2000/svg" version="1.1">
 <metadata>
  <rdf:RDF xmlns:dc="http://purl.org/dc/elements/1.1/" xmlns:cc="http://creativecommons.org/ns#" xmlns:rdf="http://www.w3.org/1999/02/22-rdf-syntax-ns#">
   <cc:Work>
    <dc:type rdf:resource="http://purl.org/dc/dcmitype/StillImage"/>
    <dc:date>2022-01-14T17:05:57.786645</dc:date>
    <dc:format>image/svg+xml</dc:format>
    <dc:creator>
     <cc:Agent>
      <dc:title>Matplotlib v3.5.1, https://matplotlib.org/</dc:title>
     </cc:Agent>
    </dc:creator>
   </cc:Work>
  </rdf:RDF>
 </metadata>
 <defs>
  <style type="text/css">*{stroke-linejoin: round; stroke-linecap: butt}</style>
 </defs>
 <g id="figure_1">
  <g id="patch_1">
   <path d="M 0 110.61612 
L 111.2409 110.61612 
L 111.2409 0 
L 0 0 
L 0 110.61612 
z
" style="fill: none"/>
  </g>
  <g id="axes_1">
   <g id="patch_2">
    <path d="M 55.361937 11.57346 
C 49.251983 11.57346 43.210507 12.8714 37.634875 15.38191 
C 32.059244 17.89242 27.074437 21.559225 23.008321 26.141151 
C 18.942204 30.723077 15.885922 36.117415 14.040494 41.969366 
C 12.195066 47.821317 11.601859 53.999705 12.29989 60.098161 
C 12.997921 66.196617 14.971543 72.078439 18.090945 77.356765 
C 21.210348 82.63509 25.405607 87.191601 30.40079 90.726604 
C 35.395972 94.261606 41.079108 96.695861 47.076401 97.869261 
C 53.073694 99.04266 59.250711 98.928901 65.201173 97.535467 
L 55.361937 55.122865 
L 55.361937 11.57346 
z
" style="fill: #0000ff; stroke: #000000; stroke-linejoin: miter"/>
   </g>
   <g id="patch_3">
    <path d="M 65.201173 97.535467 
C 75.559087 95.109928 84.674673 88.937135 90.799259 80.201233 
C 96.923844 71.465332 99.639041 60.763096 98.423985 50.14757 
C 97.208929 39.532044 92.146623 29.728403 84.208187 22.617313 
C 76.269751 15.506223 65.99748 11.57346 55.361937 11.57346 
L 55.361937 55.122865 
L 65.201173 97.535467 
z
" style="fill: #ff0000; stroke: #000000; stroke-linejoin: miter"/>
   </g>
   <g id="matplotlib.axis_1"/>
   <g id="matplotlib.axis_2"/>
  </g>
 </g>
</svg>
