<?xml version="1.0" encoding="utf-8" standalone="no"?>
<!DOCTYPE svg PUBLIC "-//W3C//DTD SVG 1.1//EN"
  "http://www.w3.org/Graphics/SVG/1.1/DTD/svg11.dtd">
<svg xmlns:xlink="http://www.w3.org/1999/xlink" width="371.52pt" height="280.512pt" viewBox="0 0 371.52 280.512" xmlns="http://www.w3.org/2000/svg" version="1.1">
 <metadata>
  <rdf:RDF xmlns:dc="http://purl.org/dc/elements/1.1/" xmlns:cc="http://creativecommons.org/ns#" xmlns:rdf="http://www.w3.org/1999/02/22-rdf-syntax-ns#">
   <cc:Work>
    <dc:type rdf:resource="http://purl.org/dc/dcmitype/StillImage"/>
    <dc:date>2021-12-03T16:10:11.983333</dc:date>
    <dc:format>image/svg+xml</dc:format>
    <dc:creator>
     <cc:Agent>
      <dc:title>Matplotlib v3.5.0, https://matplotlib.org/</dc:title>
     </cc:Agent>
    </dc:creator>
   </cc:Work>
  </rdf:RDF>
 </metadata>
 <defs>
  <style type="text/css">*{stroke-linejoin: round; stroke-linecap: butt}</style>
 </defs>
 <g id="figure_1">
  <g id="patch_1">
   <path d="M 0 280.512 
L 371.52 280.512 
L 371.52 0 
L 0 0 
L 0 280.512 
z
" style="fill: none"/>
  </g>
  <g id="axes_1">
   <g id="patch_2">
    <path d="M 185.322618 19.296006 
C 168.886507 19.296006 152.623125 22.661431 137.536838 29.184445 
C 122.450552 35.707458 108.858448 45.250959 97.599925 57.225574 
C 86.341402 69.20019 77.653095 83.354235 72.07156 98.813609 
C 66.490026 114.272982 64.132579 130.712755 65.144806 147.117667 
C 66.157034 163.522579 70.51766 179.547829 77.95739 194.203755 
C 85.397119 208.859682 95.759582 221.838243 108.40483 232.337932 
C 121.050077 242.83762 135.71233 250.637751 151.486101 255.256616 
C 167.259871 259.875481 183.813623 261.216 200.125057 259.195388 
L 185.322618 139.702372 
L 185.322618 19.296006 
z
" style="fill: #0000ff"/>
   </g>
   <g id="patch_3">
    <path d="M 200.125057 259.195388 
C 230.532744 255.428574 258.38472 240.19336 277.958181 216.620156 
C 297.531643 193.046952 307.387421 162.869015 305.500429 132.287066 
C 303.613438 101.705117 290.12242 72.967742 267.799404 51.979667 
C 245.476387 30.991593 215.962706 19.296 185.322596 19.296006 
L 185.322618 139.702372 
L 200.125057 259.195388 
z
" style="fill: #bf00bf"/>
   </g>
   <g id="matplotlib.axis_1"/>
   <g id="matplotlib.axis_2"/>
  </g>
 </g>
</svg>
