<?xml version="1.0" encoding="utf-8" standalone="no"?>
<!DOCTYPE svg PUBLIC "-//W3C//DTD SVG 1.1//EN"
  "http://www.w3.org/Graphics/SVG/1.1/DTD/svg11.dtd">
<svg xmlns:xlink="http://www.w3.org/1999/xlink" width="31.82355pt" height="31.71114pt" viewBox="0 0 31.82355 31.71114" xmlns="http://www.w3.org/2000/svg" version="1.1">
 <metadata>
  <rdf:RDF xmlns:dc="http://purl.org/dc/elements/1.1/" xmlns:cc="http://creativecommons.org/ns#" xmlns:rdf="http://www.w3.org/1999/02/22-rdf-syntax-ns#">
   <cc:Work>
    <dc:type rdf:resource="http://purl.org/dc/dcmitype/StillImage"/>
    <dc:date>2021-12-14T09:21:01.603275</dc:date>
    <dc:format>image/svg+xml</dc:format>
    <dc:creator>
     <cc:Agent>
      <dc:title>Matplotlib v3.5.0, https://matplotlib.org/</dc:title>
     </cc:Agent>
    </dc:creator>
   </cc:Work>
  </rdf:RDF>
 </metadata>
 <defs>
  <style type="text/css">*{stroke-linejoin: round; stroke-linecap: butt}</style>
 </defs>
 <g id="figure_1">
  <g id="patch_1">
   <path d="M 0 31.71114 
L 31.82355 31.71114 
L 31.82355 0 
L 0 0 
L 0 31.71114 
z
" style="fill: none"/>
  </g>
  <g id="axes_1">
   <g id="patch_2">
    <path d="M 15.883295 7.98687 
C 14.813054 7.98687 13.75406 8.205798 12.771714 8.630134 
C 11.789367 9.05447 10.904314 9.675294 10.171213 10.454268 
C 9.438112 11.233242 8.872371 12.153992 8.508928 13.159656 
C 8.145485 14.165321 7.99198 15.234762 8.057891 16.301936 
C 8.123802 17.369109 8.407745 18.411585 8.892185 19.364984 
C 9.376625 20.318382 10.051379 21.162665 10.874777 21.845691 
C 11.698175 22.528718 12.65291 23.036133 13.680023 23.3366 
C 14.707135 23.637066 15.785036 23.72427 16.847159 23.592825 
L 15.883295 15.819555 
L 15.883295 7.98687 
z
" style="fill: #0000ff"/>
   </g>
   <g id="patch_3">
    <path d="M 16.847159 23.592825 
C 18.827162 23.347786 20.640749 22.356703 21.915279 20.823217 
C 23.189809 19.289731 23.83157 17.326594 23.708699 15.337174 
C 23.585827 13.347755 22.707356 11.478329 21.253788 10.113011 
C 19.80022 8.747693 17.878431 7.98687 15.883293 7.98687 
L 15.883295 15.819555 
L 16.847159 23.592825 
z
" style="fill: #ff0000"/>
   </g>
   <g id="matplotlib.axis_1"/>
   <g id="matplotlib.axis_2"/>
  </g>
 </g>
</svg>
