<?xml version="1.0" encoding="utf-8" standalone="no"?>
<!DOCTYPE svg PUBLIC "-//W3C//DTD SVG 1.1//EN"
  "http://www.w3.org/Graphics/SVG/1.1/DTD/svg11.dtd">
<svg xmlns:xlink="http://www.w3.org/1999/xlink" width="371.52pt" height="280.512pt" viewBox="0 0 371.52 280.512" xmlns="http://www.w3.org/2000/svg" version="1.1">
 <metadata>
  <rdf:RDF xmlns:dc="http://purl.org/dc/elements/1.1/" xmlns:cc="http://creativecommons.org/ns#" xmlns:rdf="http://www.w3.org/1999/02/22-rdf-syntax-ns#">
   <cc:Work>
    <dc:type rdf:resource="http://purl.org/dc/dcmitype/StillImage"/>
    <dc:date>2021-11-24T20:23:11.433658</dc:date>
    <dc:format>image/svg+xml</dc:format>
    <dc:creator>
     <cc:Agent>
      <dc:title>Matplotlib v3.5.0, https://matplotlib.org/</dc:title>
     </cc:Agent>
    </dc:creator>
   </cc:Work>
  </rdf:RDF>
 </metadata>
 <defs>
  <style type="text/css">*{stroke-linejoin: round; stroke-linecap: butt}</style>
 </defs>
 <g id="figure_1">
  <g id="patch_1">
   <path d="M 0 280.512 
L 371.52 280.512 
L 371.52 0 
L 0 0 
L 0 280.512 
z
" style="fill: none"/>
  </g>
  <g id="axes_1">
   <g id="patch_2">
    <path d="M 186.313666 19.296003 
C 156.087444 19.296003 126.942314 30.677591 104.715285 51.161331 
C 82.488255 71.645072 68.7693 99.765694 66.305968 129.891372 
C 63.842636 160.01705 72.811137 189.992792 91.415315 213.81524 
C 110.019493 237.637688 136.928528 253.602742 166.753244 258.513018 
L 186.313666 139.704224 
L 186.313666 19.296003 
z
" style="fill: #0000ff"/>
   </g>
   <g id="patch_3">
    <path d="M 166.753244 258.513018 
C 183.170991 261.216 199.972188 260.486809 216.094017 256.371573 
C 232.215845 252.256336 247.311035 244.843698 260.424686 234.602571 
C 273.538337 224.361444 284.387976 211.512425 292.287271 196.868325 
C 300.186567 182.224225 304.965364 166.100484 306.321364 149.517065 
C 307.677364 132.933645 305.581358 116.247762 300.165936 100.514939 
C 294.750514 84.782115 286.132326 70.341243 274.856547 58.10583 
C 263.580767 45.870418 249.89028 36.10402 234.651126 29.424446 
C 219.411973 22.744871 202.952409 19.296 186.313643 19.296003 
L 186.313666 139.704224 
L 166.753244 258.513018 
z
" style="fill: #bf00bf"/>
   </g>
   <g id="matplotlib.axis_1"/>
   <g id="matplotlib.axis_2"/>
  </g>
 </g>
</svg>
