<?xml version="1.0" encoding="utf-8" standalone="no"?>
<!DOCTYPE svg PUBLIC "-//W3C//DTD SVG 1.1//EN"
  "http://www.w3.org/Graphics/SVG/1.1/DTD/svg11.dtd">
<svg xmlns:xlink="http://www.w3.org/1999/xlink" width="371.52pt" height="280.512pt" viewBox="0 0 371.52 280.512" xmlns="http://www.w3.org/2000/svg" version="1.1">
 <metadata>
  <rdf:RDF xmlns:dc="http://purl.org/dc/elements/1.1/" xmlns:cc="http://creativecommons.org/ns#" xmlns:rdf="http://www.w3.org/1999/02/22-rdf-syntax-ns#">
   <cc:Work>
    <dc:type rdf:resource="http://purl.org/dc/dcmitype/StillImage"/>
    <dc:date>2021-12-10T18:12:49.593431</dc:date>
    <dc:format>image/svg+xml</dc:format>
    <dc:creator>
     <cc:Agent>
      <dc:title>Matplotlib v3.5.0, https://matplotlib.org/</dc:title>
     </cc:Agent>
    </dc:creator>
   </cc:Work>
  </rdf:RDF>
 </metadata>
 <defs>
  <style type="text/css">*{stroke-linejoin: round; stroke-linecap: butt}</style>
 </defs>
 <g id="figure_1">
  <g id="patch_1">
   <path d="M 0 280.512 
L 371.52 280.512 
L 371.52 0 
L 0 0 
L 0 280.512 
z
" style="fill: none"/>
  </g>
  <g id="axes_1">
   <g id="patch_2">
    <path d="M 185.50281 19.296 
C 169.326232 19.296 153.313924 22.552134 138.422087 28.869957 
C 123.53025 35.18778 110.061334 44.438979 98.819654 56.071104 
C 87.577974 67.703229 78.791847 81.480035 72.98595 96.578818 
C 67.180053 111.677601 64.472302 127.791709 65.024394 143.958864 
C 65.576487 160.126018 69.37721 176.017868 76.199598 190.685408 
C 83.021986 205.352948 92.727477 218.498282 104.736495 229.336419 
C 116.745512 240.174555 130.814154 248.485373 146.102291 253.77258 
C 161.390429 259.059787 177.587562 261.216 193.726456 260.112458 
L 185.50281 139.844644 
L 185.50281 19.296 
z
" style="fill: #0000ff"/>
   </g>
   <g id="patch_3">
    <path d="M 193.726456 260.112458 
C 224.901811 257.980757 254.058655 243.80867 274.994585 220.61096 
C 295.930516 197.41325 307.047698 166.960371 305.981226 135.730424 
C 304.914754 104.500477 291.746021 74.876939 269.27635 53.161488 
C 246.806679 31.446036 216.750961 19.296 185.50281 19.296 
L 185.50281 139.844644 
L 193.726456 260.112458 
z
" style="fill: #ff0000"/>
   </g>
   <g id="matplotlib.axis_1"/>
   <g id="matplotlib.axis_2"/>
  </g>
 </g>
</svg>
