<?xml version="1.0" encoding="utf-8" standalone="no"?>
<!DOCTYPE svg PUBLIC "-//W3C//DTD SVG 1.1//EN"
  "http://www.w3.org/Graphics/SVG/1.1/DTD/svg11.dtd">
<svg xmlns:xlink="http://www.w3.org/1999/xlink" width="371.52pt" height="280.512pt" viewBox="0 0 371.52 280.512" xmlns="http://www.w3.org/2000/svg" version="1.1">
 <metadata>
  <rdf:RDF xmlns:dc="http://purl.org/dc/elements/1.1/" xmlns:cc="http://creativecommons.org/ns#" xmlns:rdf="http://www.w3.org/1999/02/22-rdf-syntax-ns#">
   <cc:Work>
    <dc:type rdf:resource="http://purl.org/dc/dcmitype/StillImage"/>
    <dc:date>2021-12-10T18:12:50.650761</dc:date>
    <dc:format>image/svg+xml</dc:format>
    <dc:creator>
     <cc:Agent>
      <dc:title>Matplotlib v3.5.0, https://matplotlib.org/</dc:title>
     </cc:Agent>
    </dc:creator>
   </cc:Work>
  </rdf:RDF>
 </metadata>
 <defs>
  <style type="text/css">*{stroke-linejoin: round; stroke-linecap: butt}</style>
 </defs>
 <g id="figure_1">
  <g id="patch_1">
   <path d="M 0 280.512 
L 371.52 280.512 
L 371.52 0 
L 0 0 
L 0 280.512 
z
" style="fill: none"/>
  </g>
  <g id="axes_1">
   <g id="patch_2">
    <path d="M 186.552535 19.296 
C 157.387444 19.296 129.193641 29.896358 107.252979 49.111193 
C 85.312317 68.326029 71.086181 94.875513 67.239707 123.785844 
C 63.393234 152.696174 70.182622 182.041741 86.335943 206.32492 
C 102.489263 230.6081 126.930603 248.21148 155.081101 255.837228 
L 186.552535 139.660226 
L 186.552535 19.296 
z
" style="fill: #0000ff"/>
   </g>
   <g id="patch_3">
    <path d="M 155.081101 255.837228 
C 171.631228 260.320527 188.949899 261.216 205.874157 258.463516 
C 222.798414 255.711033 238.940761 249.373613 253.21723 239.876818 
C 267.493698 230.380024 279.577415 217.941292 288.656951 203.395892 
C 297.736488 188.850491 303.60396 172.531453 305.865363 155.534608 
C 308.126766 138.537764 306.730324 121.252273 301.769807 104.838865 
C 296.809291 88.425458 288.398276 73.259935 277.101568 60.36067 
C 265.804859 47.461405 251.881106 37.123738 236.265296 30.04185 
C 220.649486 22.959962 203.699158 19.296 186.552535 19.296 
L 186.552535 139.660226 
L 155.081101 255.837228 
z
" style="fill: #ff0000"/>
   </g>
   <g id="matplotlib.axis_1"/>
   <g id="matplotlib.axis_2"/>
  </g>
 </g>
</svg>
