<?xml version="1.0" encoding="utf-8" standalone="no"?>
<!DOCTYPE svg PUBLIC "-//W3C//DTD SVG 1.1//EN"
  "http://www.w3.org/Graphics/SVG/1.1/DTD/svg11.dtd">
<svg xmlns:xlink="http://www.w3.org/1999/xlink" width="371.52pt" height="280.512pt" viewBox="0 0 371.52 280.512" xmlns="http://www.w3.org/2000/svg" version="1.1">
 <metadata>
  <rdf:RDF xmlns:dc="http://purl.org/dc/elements/1.1/" xmlns:cc="http://creativecommons.org/ns#" xmlns:rdf="http://www.w3.org/1999/02/22-rdf-syntax-ns#">
   <cc:Work>
    <dc:type rdf:resource="http://purl.org/dc/dcmitype/StillImage"/>
    <dc:date>2021-12-10T18:12:51.769477</dc:date>
    <dc:format>image/svg+xml</dc:format>
    <dc:creator>
     <cc:Agent>
      <dc:title>Matplotlib v3.5.0, https://matplotlib.org/</dc:title>
     </cc:Agent>
    </dc:creator>
   </cc:Work>
  </rdf:RDF>
 </metadata>
 <defs>
  <style type="text/css">*{stroke-linejoin: round; stroke-linecap: butt}</style>
 </defs>
 <g id="figure_1">
  <g id="patch_1">
   <path d="M 0 280.512 
L 371.52 280.512 
L 371.52 0 
L 0 0 
L 0 280.512 
z
" style="fill: none"/>
  </g>
  <g id="axes_1">
   <g id="patch_2">
    <path d="M 186.700435 19.296 
C 158.466656 19.296 131.112398 29.223494 109.450534 47.331777 
C 87.788671 65.44006 73.168795 90.600939 68.163216 118.387454 
C 63.157638 146.173969 68.078217 174.854947 82.059199 199.384081 
C 96.04018 223.913215 118.210511 242.762274 144.669407 252.614841 
L 186.700435 139.741243 
L 186.700435 19.296 
z
" style="fill: #0000ff"/>
   </g>
   <g id="patch_3">
    <path d="M 144.669407 252.614841 
C 161.186253 258.765261 178.853549 261.216 196.420867 259.793605 
C 213.988185 258.371209 231.031062 253.110047 246.343264 244.382484 
C 261.655465 235.654921 274.867017 223.671834 285.042852 209.281342 
C 295.218687 194.89085 302.112936 178.440659 305.237649 161.095053 
C 308.362362 143.749447 307.64204 125.927534 303.127663 108.890683 
C 298.613286 91.853832 290.413932 76.013691 279.109922 62.491368 
C 267.805912 48.969045 253.670374 38.091267 237.703772 30.627925 
C 221.737169 23.164583 204.325288 19.296007 186.70048 19.296 
L 186.700435 139.741243 
L 144.669407 252.614841 
z
" style="fill: #ff0000"/>
   </g>
   <g id="matplotlib.axis_1"/>
   <g id="matplotlib.axis_2"/>
  </g>
 </g>
</svg>
