<?xml version="1.0" encoding="utf-8" standalone="no"?>
<!DOCTYPE svg PUBLIC "-//W3C//DTD SVG 1.1//EN"
  "http://www.w3.org/Graphics/SVG/1.1/DTD/svg11.dtd">
<svg xmlns:xlink="http://www.w3.org/1999/xlink" width="371.52pt" height="280.512pt" viewBox="0 0 371.52 280.512" xmlns="http://www.w3.org/2000/svg" version="1.1">
 <metadata>
  <rdf:RDF xmlns:dc="http://purl.org/dc/elements/1.1/" xmlns:cc="http://creativecommons.org/ns#" xmlns:rdf="http://www.w3.org/1999/02/22-rdf-syntax-ns#">
   <cc:Work>
    <dc:type rdf:resource="http://purl.org/dc/dcmitype/StillImage"/>
    <dc:date>2022-01-14T17:15:30.393691</dc:date>
    <dc:format>image/svg+xml</dc:format>
    <dc:creator>
     <cc:Agent>
      <dc:title>Matplotlib v3.5.1, https://matplotlib.org/</dc:title>
     </cc:Agent>
    </dc:creator>
   </cc:Work>
  </rdf:RDF>
 </metadata>
 <defs>
  <style type="text/css">*{stroke-linejoin: round; stroke-linecap: butt}</style>
 </defs>
 <g id="figure_1">
  <g id="patch_1">
   <path d="M 0 280.512 
L 371.52 280.512 
L 371.52 0 
L 0 0 
L 0 280.512 
z
" style="fill: none"/>
  </g>
  <g id="axes_1">
   <g id="patch_2">
    <path d="M 186.701256 19.296003 
C 158.473696 19.296003 131.125042 29.218952 109.465011 47.319731 
C 87.804981 65.420511 73.182407 90.571935 68.168913 118.350704 
C 63.15542 146.129473 68.063212 174.805725 82.029171 199.336259 
C 95.995131 223.866793 118.149558 242.724024 144.596226 252.591592 
L 186.701256 139.743341 
L 186.701256 19.296003 
z
" style="fill: #0000ff; stroke: #000000; stroke-width: 2; stroke-linejoin: miter"/>
   </g>
   <g id="patch_3">
    <path d="M 144.596226 252.591592 
C 161.112455 258.753994 178.781949 261.216 196.353667 259.803294 
C 213.925385 258.390588 230.974597 253.137316 246.294179 244.415423 
C 261.613761 235.693531 274.83342 223.713835 285.017174 209.324528 
C 295.200928 194.93522 302.102622 178.484108 305.233601 161.135967 
C 308.36458 143.787827 307.649164 125.961984 303.138006 108.92055 
C 298.626849 91.879116 290.428989 76.034004 279.124856 62.507083 
C 267.820722 48.980163 253.683549 38.098397 237.714281 30.63224 
C 221.745014 23.166082 204.329649 19.296 186.701234 19.296003 
L 186.701256 139.743341 
L 144.596226 252.591592 
z
" style="fill: #ff0000; stroke: #000000; stroke-width: 2; stroke-linejoin: miter"/>
   </g>
   <g id="matplotlib.axis_1"/>
   <g id="matplotlib.axis_2"/>
  </g>
 </g>
</svg>
