<?xml version="1.0" encoding="utf-8" standalone="no"?>
<!DOCTYPE svg PUBLIC "-//W3C//DTD SVG 1.1//EN"
  "http://www.w3.org/Graphics/SVG/1.1/DTD/svg11.dtd">
<svg xmlns:xlink="http://www.w3.org/1999/xlink" width="371.52pt" height="280.512pt" viewBox="0 0 371.52 280.512" xmlns="http://www.w3.org/2000/svg" version="1.1">
 <metadata>
  <rdf:RDF xmlns:dc="http://purl.org/dc/elements/1.1/" xmlns:cc="http://creativecommons.org/ns#" xmlns:rdf="http://www.w3.org/1999/02/22-rdf-syntax-ns#">
   <cc:Work>
    <dc:type rdf:resource="http://purl.org/dc/dcmitype/StillImage"/>
    <dc:date>2021-12-10T18:13:03.811947</dc:date>
    <dc:format>image/svg+xml</dc:format>
    <dc:creator>
     <cc:Agent>
      <dc:title>Matplotlib v3.5.0, https://matplotlib.org/</dc:title>
     </cc:Agent>
    </dc:creator>
   </cc:Work>
  </rdf:RDF>
 </metadata>
 <defs>
  <style type="text/css">*{stroke-linejoin: round; stroke-linecap: butt}</style>
 </defs>
 <g id="figure_1">
  <g id="patch_1">
   <path d="M 0 280.512 
L 371.52 280.512 
L 371.52 0 
L 0 0 
L 0 280.512 
z
" style="fill: none"/>
  </g>
  <g id="axes_1">
   <g id="patch_2">
    <path d="M 186.783369 19.296 
C 159.343123 19.296 132.703569 28.636435 111.271506 45.77218 
C 89.839442 62.907926 74.865623 86.838957 68.827063 113.606529 
C 62.788504 140.374101 66.037608 168.416085 78.036899 193.093689 
C 90.03619 217.771293 110.085402 237.644356 134.867931 249.425415 
L 186.783369 140.216571 
L 186.783369 19.296 
z
" style="fill: #0000ff"/>
   </g>
   <g id="patch_3">
    <path d="M 134.867931 249.425415 
C 151.250552 257.213346 169.177559 261.216 187.3169 261.135964 
C 205.456241 261.055928 223.347229 256.895235 239.660487 248.963041 
C 255.973746 241.030847 270.294965 229.528607 281.560017 215.310988 
C 292.825069 201.093368 300.747854 184.521455 304.739675 166.826612 
C 308.731496 149.131769 308.690973 130.763394 304.621117 113.086337 
C 300.551261 95.409279 292.555433 78.872484 281.22776 64.704707 
C 269.900086 50.53693 255.528256 39.097991 239.180157 31.237852 
C 222.832059 23.377714 204.922887 19.296 186.783369 19.296 
L 186.783369 140.216571 
L 134.867931 249.425415 
z
" style="fill: #ff0000"/>
   </g>
   <g id="matplotlib.axis_1"/>
   <g id="matplotlib.axis_2"/>
  </g>
 </g>
</svg>
