<?xml version="1.0" encoding="utf-8" standalone="no"?>
<!DOCTYPE svg PUBLIC "-//W3C//DTD SVG 1.1//EN"
  "http://www.w3.org/Graphics/SVG/1.1/DTD/svg11.dtd">
<svg xmlns:xlink="http://www.w3.org/1999/xlink" width="371.52pt" height="280.512pt" viewBox="0 0 371.52 280.512" xmlns="http://www.w3.org/2000/svg" version="1.1">
 <metadata>
  <rdf:RDF xmlns:dc="http://purl.org/dc/elements/1.1/" xmlns:cc="http://creativecommons.org/ns#" xmlns:rdf="http://www.w3.org/1999/02/22-rdf-syntax-ns#">
   <cc:Work>
    <dc:type rdf:resource="http://purl.org/dc/dcmitype/StillImage"/>
    <dc:date>2021-12-10T18:12:56.171860</dc:date>
    <dc:format>image/svg+xml</dc:format>
    <dc:creator>
     <cc:Agent>
      <dc:title>Matplotlib v3.5.0, https://matplotlib.org/</dc:title>
     </cc:Agent>
    </dc:creator>
   </cc:Work>
  </rdf:RDF>
 </metadata>
 <defs>
  <style type="text/css">*{stroke-linejoin: round; stroke-linecap: butt}</style>
 </defs>
 <g id="figure_1">
  <g id="patch_1">
   <path d="M 0 280.512 
L 371.52 280.512 
L 371.52 0 
L 0 0 
L 0 280.512 
z
" style="fill: none"/>
  </g>
  <g id="axes_1">
   <g id="patch_2">
    <path d="M 186.732672 19.296 
C 158.75902 19.296 131.639132 29.032664 110.053544 46.825572 
C 88.467956 64.618479 73.734264 89.381542 68.39531 116.84098 
C 63.056355 144.300418 67.438031 172.780093 80.784117 197.364786 
C 94.130204 221.94948 115.626049 241.138529 141.561752 251.620156 
L 186.732672 139.849382 
L 186.732672 19.296 
z
" style="fill: #0000ff"/>
   </g>
   <g id="patch_3">
    <path d="M 141.561752 251.620156 
C 158.047316 258.282614 175.804539 261.216 193.556976 260.209453 
C 211.309414 259.202907 228.621257 254.281137 244.248076 245.797936 
C 259.874895 237.314736 273.433064 225.478361 283.94798 211.139646 
C 294.462895 196.800932 301.676424 180.311883 305.070034 162.857784 
C 308.463645 145.403685 307.954027 127.41302 303.577814 110.179015 
C 299.201601 92.94501 291.066225 76.890746 279.756482 63.170254 
C 268.44674 49.449762 254.240276 38.39987 238.158297 30.814878 
C 222.076317 23.229886 204.513622 19.296 186.732672 19.296 
L 186.732672 139.849382 
L 141.561752 251.620156 
z
" style="fill: #ff0000"/>
   </g>
   <g id="matplotlib.axis_1"/>
   <g id="matplotlib.axis_2"/>
  </g>
 </g>
</svg>
