<?xml version="1.0" encoding="utf-8" standalone="no"?>
<!DOCTYPE svg PUBLIC "-//W3C//DTD SVG 1.1//EN"
  "http://www.w3.org/Graphics/SVG/1.1/DTD/svg11.dtd">
<svg xmlns:xlink="http://www.w3.org/1999/xlink" width="371.52pt" height="280.512pt" viewBox="0 0 371.52 280.512" xmlns="http://www.w3.org/2000/svg" version="1.1">
 <metadata>
  <rdf:RDF xmlns:dc="http://purl.org/dc/elements/1.1/" xmlns:cc="http://creativecommons.org/ns#" xmlns:rdf="http://www.w3.org/1999/02/22-rdf-syntax-ns#">
   <cc:Work>
    <dc:type rdf:resource="http://purl.org/dc/dcmitype/StillImage"/>
    <dc:date>2021-11-24T20:23:19.588261</dc:date>
    <dc:format>image/svg+xml</dc:format>
    <dc:creator>
     <cc:Agent>
      <dc:title>Matplotlib v3.5.0, https://matplotlib.org/</dc:title>
     </cc:Agent>
    </dc:creator>
   </cc:Work>
  </rdf:RDF>
 </metadata>
 <defs>
  <style type="text/css">*{stroke-linejoin: round; stroke-linecap: butt}</style>
 </defs>
 <g id="figure_1">
  <g id="patch_1">
   <path d="M 0 280.512 
L 371.52 280.512 
L 371.52 0 
L 0 0 
L 0 280.512 
z
" style="fill: none"/>
  </g>
  <g id="axes_1">
   <g id="patch_2">
    <path d="M 186.314029 19.296 
C 156.089134 19.296 126.945185 30.676574 104.718457 51.158684 
C 82.491729 71.640793 68.77203 99.759418 66.306823 129.883611 
C 63.841617 160.007805 72.807231 189.982877 91.40824 213.806116 
C 110.00925 237.629355 136.915183 253.596758 166.737942 258.510745 
L 186.314029 139.704375 
L 186.314029 19.296 
z
" style="fill: #0000ff"/>
   </g>
   <g id="patch_3">
    <path d="M 166.737942 258.510745 
C 183.156012 261.216 199.958008 260.488852 216.080977 256.375303 
C 232.203946 252.261754 247.300565 244.850418 260.41577 234.610163 
C 273.530974 224.369908 284.382235 211.52133 292.283063 196.877276 
C 300.18389 182.233221 304.964085 166.109153 306.321234 149.525138 
C 307.678383 132.941123 305.583252 116.254415 300.168384 100.520673 
C 294.753517 84.786931 286.135561 70.345094 274.85972 58.108803 
C 263.583879 45.872512 249.893057 36.105363 234.653384 29.425259 
C 219.413711 22.745155 202.953482 19.296 186.314029 19.296 
L 186.314029 139.704375 
L 166.737942 258.510745 
z
" style="fill: #bf00bf"/>
   </g>
   <g id="matplotlib.axis_1"/>
   <g id="matplotlib.axis_2"/>
  </g>
 </g>
</svg>
