<?xml version="1.0" encoding="utf-8" standalone="no"?>
<!DOCTYPE svg PUBLIC "-//W3C//DTD SVG 1.1//EN"
  "http://www.w3.org/Graphics/SVG/1.1/DTD/svg11.dtd">
<svg xmlns:xlink="http://www.w3.org/1999/xlink" width="371.52pt" height="280.512pt" viewBox="0 0 371.52 280.512" xmlns="http://www.w3.org/2000/svg" version="1.1">
 <metadata>
  <rdf:RDF xmlns:dc="http://purl.org/dc/elements/1.1/" xmlns:cc="http://creativecommons.org/ns#" xmlns:rdf="http://www.w3.org/1999/02/22-rdf-syntax-ns#">
   <cc:Work>
    <dc:type rdf:resource="http://purl.org/dc/dcmitype/StillImage"/>
    <dc:date>2021-12-10T18:13:04.936086</dc:date>
    <dc:format>image/svg+xml</dc:format>
    <dc:creator>
     <cc:Agent>
      <dc:title>Matplotlib v3.5.0, https://matplotlib.org/</dc:title>
     </cc:Agent>
    </dc:creator>
   </cc:Work>
  </rdf:RDF>
 </metadata>
 <defs>
  <style type="text/css">*{stroke-linejoin: round; stroke-linecap: butt}</style>
 </defs>
 <g id="figure_1">
  <g id="patch_1">
   <path d="M 0 280.512 
L 371.52 280.512 
L 371.52 0 
L 0 0 
L 0 280.512 
z
" style="fill: none"/>
  </g>
  <g id="axes_1">
   <g id="patch_2">
    <path d="M 186.245299 19.296004 
C 162.799796 19.296004 139.859244 26.158968 120.265674 39.034666 
C 100.672104 51.910364 85.269498 70.244183 75.966034 91.764804 
C 66.66257 113.285425 63.85899 137.065862 67.90262 160.16003 
C 71.946251 183.254199 82.662915 204.667333 98.724959 221.746628 
L 186.245299 139.439039 
L 186.245299 19.296004 
z
" style="fill: #0000ff"/>
   </g>
   <g id="patch_3">
    <path d="M 98.724959 221.746628 
C 112.366562 236.252188 129.402771 247.141317 148.295728 253.431052 
C 167.188684 259.720788 187.352263 261.216 206.966295 257.781716 
C 226.580328 254.347433 245.036319 246.090197 260.668245 233.75539 
C 276.300171 221.420583 288.623075 205.390873 296.524568 187.113264 
C 304.426061 168.835655 307.66101 148.877182 305.937397 129.039497 
C 304.213784 109.201812 297.585082 90.10035 286.649662 73.459401 
C 275.714243 56.818452 260.811363 43.154276 243.286304 33.700339 
C 225.761246 24.246403 206.157699 19.296 186.245276 19.296004 
L 186.245299 139.439039 
L 98.724959 221.746628 
z
" style="fill: #ff0000"/>
   </g>
   <g id="matplotlib.axis_1"/>
   <g id="matplotlib.axis_2"/>
  </g>
 </g>
</svg>
