<?xml version="1.0" encoding="utf-8" standalone="no"?>
<!DOCTYPE svg PUBLIC "-//W3C//DTD SVG 1.1//EN"
  "http://www.w3.org/Graphics/SVG/1.1/DTD/svg11.dtd">
<svg xmlns:xlink="http://www.w3.org/1999/xlink" width="497.72565pt" height="494.60742pt" viewBox="0 0 497.72565 494.60742" xmlns="http://www.w3.org/2000/svg" version="1.1">
 <metadata>
  <rdf:RDF xmlns:dc="http://purl.org/dc/elements/1.1/" xmlns:cc="http://creativecommons.org/ns#" xmlns:rdf="http://www.w3.org/1999/02/22-rdf-syntax-ns#">
   <cc:Work>
    <dc:type rdf:resource="http://purl.org/dc/dcmitype/StillImage"/>
    <dc:date>2022-01-14T17:05:42.690229</dc:date>
    <dc:format>image/svg+xml</dc:format>
    <dc:creator>
     <cc:Agent>
      <dc:title>Matplotlib v3.5.1, https://matplotlib.org/</dc:title>
     </cc:Agent>
    </dc:creator>
   </cc:Work>
  </rdf:RDF>
 </metadata>
 <defs>
  <style type="text/css">*{stroke-linejoin: round; stroke-linecap: butt}</style>
 </defs>
 <g id="figure_1">
  <g id="patch_1">
   <path d="M 0 494.60742 
L 497.72565 494.60742 
L 497.72565 0 
L 0 0 
L 0 494.60742 
z
" style="fill: none"/>
  </g>
  <g id="axes_1">
   <g id="patch_2">
    <path d="M 250.101235 29.027616 
C 196.757582 29.027616 145.252401 48.83889 105.549552 84.628878 
C 65.846704 120.418866 40.682881 169.720586 34.926114 222.996444 
C 29.169348 276.272303 43.216448 329.850028 74.349953 373.364819 
C 105.483459 416.87961 151.557356 447.332018 203.658487 458.830919 
L 250.101235 246.461591 
L 250.101235 29.027616 
z
" style="fill: #0000ff; stroke: #000000; stroke-linejoin: miter"/>
   </g>
   <g id="patch_3">
    <path d="M 203.658487 458.830919 
C 233.343364 465.382475 264.071732 465.57981 293.837559 459.410043 
C 323.603387 453.240275 351.744533 440.840651 376.42387 423.020652 
C 401.103206 405.200652 421.771742 382.356682 437.080178 355.980058 
C 452.388614 329.603433 461.996415 300.280902 465.276359 269.926717 
C 468.556302 239.572532 465.435426 208.861921 456.117468 179.799757 
C 446.799511 150.737592 431.49175 123.970361 411.193518 101.245499 
C 390.895286 78.520637 366.058116 60.343659 338.303446 47.901207 
C 310.548775 35.458754 280.494006 29.02761 250.101195 29.027616 
L 250.101235 246.461591 
L 203.658487 458.830919 
z
" style="fill: #ff0000; stroke: #000000; stroke-linejoin: miter"/>
   </g>
   <g id="matplotlib.axis_1"/>
   <g id="matplotlib.axis_2"/>
  </g>
 </g>
</svg>
