<?xml version="1.0" encoding="utf-8" standalone="no"?>
<!DOCTYPE svg PUBLIC "-//W3C//DTD SVG 1.1//EN"
  "http://www.w3.org/Graphics/SVG/1.1/DTD/svg11.dtd">
<svg xmlns:xlink="http://www.w3.org/1999/xlink" width="56.57085pt" height="56.29878pt" viewBox="0 0 56.57085 56.29878" xmlns="http://www.w3.org/2000/svg" version="1.1">
 <metadata>
  <rdf:RDF xmlns:dc="http://purl.org/dc/elements/1.1/" xmlns:cc="http://creativecommons.org/ns#" xmlns:rdf="http://www.w3.org/1999/02/22-rdf-syntax-ns#">
   <cc:Work>
    <dc:type rdf:resource="http://purl.org/dc/dcmitype/StillImage"/>
    <dc:date>2021-12-14T09:20:47.560591</dc:date>
    <dc:format>image/svg+xml</dc:format>
    <dc:creator>
     <cc:Agent>
      <dc:title>Matplotlib v3.5.0, https://matplotlib.org/</dc:title>
     </cc:Agent>
    </dc:creator>
   </cc:Work>
  </rdf:RDF>
 </metadata>
 <defs>
  <style type="text/css">*{stroke-linejoin: round; stroke-linecap: butt}</style>
 </defs>
 <g id="figure_1">
  <g id="patch_1">
   <path d="M 0 56.29878 
L 56.57085 56.29878 
L 56.57085 -0 
L 0 -0 
L 0 56.29878 
z
" style="fill: none"/>
  </g>
  <g id="axes_1">
   <g id="patch_2">
    <path d="M 28.401768 9.10449 
C 23.790088 9.10449 19.334694 10.803336 15.884024 13.877519 
C 12.433355 16.951702 10.22129 21.192858 9.669074 25.793346 
C 9.116857 30.393834 10.261916 35.041839 12.886198 38.852246 
C 15.51048 42.662654 19.436115 45.377198 23.915547 46.478951 
L 28.401768 28.063563 
L 28.401768 9.10449 
z
" style="fill: #0000ff"/>
   </g>
   <g id="patch_3">
    <path d="M 23.915547 46.478951 
C 26.50749 47.116461 29.204782 47.19429 31.828862 46.707287 
C 34.452942 46.220283 36.944599 45.179436 39.138884 43.65365 
C 41.333169 42.127864 43.180568 40.151568 44.558784 37.855593 
C 45.936999 35.559618 46.814932 32.995772 47.134463 30.333783 
C 47.453993 27.671794 47.207911 24.971729 46.412508 22.412332 
C 45.617104 19.852936 44.290327 17.49196 42.520009 15.485703 
C 40.749691 13.479446 38.57578 11.873178 36.142188 10.773234 
C 33.708596 9.67329 31.070237 9.104491 28.401772 9.10449 
L 28.401768 28.063563 
L 23.915547 46.478951 
z
" style="fill: #ff0000"/>
   </g>
   <g id="matplotlib.axis_1"/>
   <g id="matplotlib.axis_2"/>
  </g>
 </g>
</svg>
