<?xml version="1.0" encoding="utf-8" standalone="no"?>
<!DOCTYPE svg PUBLIC "-//W3C//DTD SVG 1.1//EN"
  "http://www.w3.org/Graphics/SVG/1.1/DTD/svg11.dtd">
<svg xmlns:xlink="http://www.w3.org/1999/xlink" width="49.4145pt" height="49.1886pt" viewBox="0 0 49.4145 49.1886" xmlns="http://www.w3.org/2000/svg" version="1.1">
 <metadata>
  <rdf:RDF xmlns:dc="http://purl.org/dc/elements/1.1/" xmlns:cc="http://creativecommons.org/ns#" xmlns:rdf="http://www.w3.org/1999/02/22-rdf-syntax-ns#">
   <cc:Work>
    <dc:type rdf:resource="http://purl.org/dc/dcmitype/StillImage"/>
    <dc:date>2022-01-14T17:05:44.939493</dc:date>
    <dc:format>image/svg+xml</dc:format>
    <dc:creator>
     <cc:Agent>
      <dc:title>Matplotlib v3.5.1, https://matplotlib.org/</dc:title>
     </cc:Agent>
    </dc:creator>
   </cc:Work>
  </rdf:RDF>
 </metadata>
 <defs>
  <style type="text/css">*{stroke-linejoin: round; stroke-linecap: butt}</style>
 </defs>
 <g id="figure_1">
  <g id="patch_1">
   <path d="M -0 49.1886 
L 49.4145 49.1886 
L 49.4145 0 
L -0 0 
L -0 49.1886 
z
" style="fill: none"/>
  </g>
  <g id="axes_1">
   <g id="patch_2">
    <path d="M 24.693016 8.694359 
C 22.590073 8.694359 20.507941 9.112248 18.567856 9.923692 
C 16.627771 10.735136 14.868133 11.924075 13.391399 13.421282 
C 11.914666 14.918489 10.750065 16.694329 9.965408 18.645402 
C 9.180751 20.596474 8.791568 22.684162 8.820521 24.786906 
C 8.849473 26.88965 9.295987 28.965831 10.134065 30.89456 
C 10.972142 32.82329 12.185195 34.566392 13.702591 36.022373 
C 15.219987 37.478354 17.011692 38.618396 18.973383 39.376117 
C 20.935073 40.133838 23.027921 40.494241 25.130067 40.436342 
L 24.693016 24.56836 
L 24.693016 8.694359 
z
" style="fill: #0000ff; stroke: #000000; stroke-linejoin: miter"/>
   </g>
   <g id="patch_3">
    <path d="M 25.130067 40.436342 
C 29.299135 40.321513 33.259466 38.56815 36.14703 35.558784 
C 39.034595 32.549418 40.622932 28.520066 40.565512 24.349812 
C 40.508092 20.179558 38.809418 16.195464 35.840092 13.266741 
C 32.870766 10.338019 28.863662 8.694359 24.693013 8.694359 
L 24.693016 24.56836 
L 25.130067 40.436342 
z
" style="fill: #ff0000; stroke: #000000; stroke-linejoin: miter"/>
   </g>
   <g id="matplotlib.axis_1"/>
   <g id="matplotlib.axis_2"/>
  </g>
 </g>
</svg>
