<?xml version="1.0" encoding="utf-8" standalone="no"?>
<!DOCTYPE svg PUBLIC "-//W3C//DTD SVG 1.1//EN"
  "http://www.w3.org/Graphics/SVG/1.1/DTD/svg11.dtd">
<svg xmlns:xlink="http://www.w3.org/1999/xlink" width="371.52pt" height="280.512pt" viewBox="0 0 371.52 280.512" xmlns="http://www.w3.org/2000/svg" version="1.1">
 <metadata>
  <rdf:RDF xmlns:dc="http://purl.org/dc/elements/1.1/" xmlns:cc="http://creativecommons.org/ns#" xmlns:rdf="http://www.w3.org/1999/02/22-rdf-syntax-ns#">
   <cc:Work>
    <dc:type rdf:resource="http://purl.org/dc/dcmitype/StillImage"/>
    <dc:date>2021-12-03T16:09:58.268087</dc:date>
    <dc:format>image/svg+xml</dc:format>
    <dc:creator>
     <cc:Agent>
      <dc:title>Matplotlib v3.5.0, https://matplotlib.org/</dc:title>
     </cc:Agent>
    </dc:creator>
   </cc:Work>
  </rdf:RDF>
 </metadata>
 <defs>
  <style type="text/css">*{stroke-linejoin: round; stroke-linecap: butt}</style>
 </defs>
 <g id="figure_1">
  <g id="patch_1">
   <path d="M 0 280.512 
L 371.52 280.512 
L 371.52 0 
L 0 0 
L 0 280.512 
z
" style="fill: none"/>
  </g>
  <g id="axes_1">
   <g id="patch_2">
    <path d="M 185.651715 19.296006 
C 169.653415 19.296006 153.813441 22.475121 139.0541 28.648244 
C 124.294758 34.821367 110.908179 43.866312 99.673815 55.256425 
C 88.439451 66.646538 79.579664 80.156376 73.610326 94.999307 
C 67.640989 109.842239 64.680253 125.72448 64.90051 141.721264 
C 65.120768 157.718048 68.51766 173.512752 74.893398 188.185706 
C 81.269136 202.85866 90.497524 216.119443 102.041228 227.195928 
C 113.584932 238.272413 127.215466 246.945363 142.139174 252.709784 
C 157.062883 258.474204 172.98438 261.216 188.976616 260.775526 
L 185.651715 140.058656 
L 185.651715 19.296006 
z
" style="fill: #0000ff"/>
   </g>
   <g id="patch_3">
    <path d="M 188.976616 260.775526 
C 220.693114 259.90196 250.821624 246.563117 272.788991 223.669139 
C 294.756358 200.775162 306.839747 170.121557 306.40292 138.396037 
C 305.966092 106.670518 293.043306 76.361221 270.453934 54.080744 
C 247.864562 31.800267 217.380219 19.296 185.651693 19.296006 
L 185.651715 140.058656 
L 188.976616 260.775526 
z
" style="fill: #bf00bf"/>
   </g>
   <g id="matplotlib.axis_1"/>
   <g id="matplotlib.axis_2"/>
  </g>
 </g>
</svg>
