<?xml version="1.0" encoding="utf-8" standalone="no"?>
<!DOCTYPE svg PUBLIC "-//W3C//DTD SVG 1.1//EN"
  "http://www.w3.org/Graphics/SVG/1.1/DTD/svg11.dtd">
<svg xmlns:xlink="http://www.w3.org/1999/xlink" width="371.52pt" height="280.512pt" viewBox="0 0 371.52 280.512" xmlns="http://www.w3.org/2000/svg" version="1.1">
 <metadata>
  <rdf:RDF xmlns:dc="http://purl.org/dc/elements/1.1/" xmlns:cc="http://creativecommons.org/ns#" xmlns:rdf="http://www.w3.org/1999/02/22-rdf-syntax-ns#">
   <cc:Work>
    <dc:type rdf:resource="http://purl.org/dc/dcmitype/StillImage"/>
    <dc:date>2021-12-10T18:14:46.089185</dc:date>
    <dc:format>image/svg+xml</dc:format>
    <dc:creator>
     <cc:Agent>
      <dc:title>Matplotlib v3.5.0, https://matplotlib.org/</dc:title>
     </cc:Agent>
    </dc:creator>
   </cc:Work>
  </rdf:RDF>
 </metadata>
 <defs>
  <style type="text/css">*{stroke-linejoin: round; stroke-linecap: butt}</style>
 </defs>
 <g id="figure_1">
  <g id="patch_1">
   <path d="M 0 280.512 
L 371.52 280.512 
L 371.52 0 
L 0 0 
L 0 280.512 
z
" style="fill: none"/>
  </g>
  <g id="axes_1">
   <g id="patch_2">
    <path d="M 186.510616 19.296 
C 157.121864 19.296 128.726371 30.055924 106.717697 49.531986 
C 84.709023 69.008047 70.574832 95.883773 66.999833 125.054274 
C 63.424834 154.224775 70.650677 183.718286 87.304855 207.932684 
C 103.959033 232.147083 128.915815 249.445609 157.434804 256.542509 
L 186.510616 139.700952 
L 186.510616 19.296 
z
" style="fill: #0000ff"/>
   </g>
   <g id="patch_3">
    <path d="M 157.434804 256.542509 
C 173.97795 260.659241 191.20833 261.216 207.982734 258.175846 
C 224.757138 255.135691 240.696187 248.567381 254.742349 238.906713 
C 268.78851 229.246045 280.624109 216.711509 289.463871 202.134754 
C 298.303632 187.557999 303.947632 171.2687 306.021399 154.347629 
C 308.095166 137.426558 306.551798 120.256409 301.493696 103.976398 
C 296.435594 87.696387 287.977154 72.674709 276.679582 59.908032 
C 265.38201 47.141356 251.500817 36.918417 235.957 29.917494 
C 220.413184 22.916571 203.558289 19.296 186.510616 19.296 
L 186.510616 139.700952 
L 157.434804 256.542509 
z
" style="fill: #ff0000"/>
   </g>
   <g id="matplotlib.axis_1"/>
   <g id="matplotlib.axis_2"/>
  </g>
 </g>
</svg>
