<?xml version="1.0" encoding="utf-8" standalone="no"?>
<!DOCTYPE svg PUBLIC "-//W3C//DTD SVG 1.1//EN"
  "http://www.w3.org/Graphics/SVG/1.1/DTD/svg11.dtd">
<svg xmlns:xlink="http://www.w3.org/1999/xlink" width="71.0928pt" height="70.72704pt" viewBox="0 0 71.0928 70.72704" xmlns="http://www.w3.org/2000/svg" version="1.1">
 <metadata>
  <rdf:RDF xmlns:dc="http://purl.org/dc/elements/1.1/" xmlns:cc="http://creativecommons.org/ns#" xmlns:rdf="http://www.w3.org/1999/02/22-rdf-syntax-ns#">
   <cc:Work>
    <dc:type rdf:resource="http://purl.org/dc/dcmitype/StillImage"/>
    <dc:date>2021-12-14T09:20:49.335182</dc:date>
    <dc:format>image/svg+xml</dc:format>
    <dc:creator>
     <cc:Agent>
      <dc:title>Matplotlib v3.5.0, https://matplotlib.org/</dc:title>
     </cc:Agent>
    </dc:creator>
   </cc:Work>
  </rdf:RDF>
 </metadata>
 <defs>
  <style type="text/css">*{stroke-linejoin: round; stroke-linecap: butt}</style>
 </defs>
 <g id="figure_1">
  <g id="patch_1">
   <path d="M 0 70.72704 
L 71.0928 70.72704 
L 71.0928 0 
L 0 0 
L 0 70.72704 
z
" style="fill: none"/>
  </g>
  <g id="axes_1">
   <g id="patch_2">
    <path d="M 35.565901 9.615297 
C 28.800751 9.615297 22.301654 12.285266 17.490317 17.041134 
C 12.67898 21.797002 9.933832 28.264704 9.855389 35.029398 
C 9.776945 41.794093 12.371376 48.323712 17.071136 53.189871 
C 21.770896 58.05603 28.206332 60.875987 34.969662 61.032864 
L 35.565901 35.327537 
L 35.565901 9.615297 
z
" style="fill: #0000ff"/>
   </g>
   <g id="patch_3">
    <path d="M 34.969662 61.032864 
C 38.370333 61.111743 41.753096 60.515009 44.921517 59.277313 
C 48.089939 58.039617 50.98148 56.185389 53.428234 53.822302 
C 55.874989 51.459215 57.828661 48.633912 59.175804 45.510454 
C 60.522947 42.386996 61.23697 39.027034 61.276412 35.625677 
C 61.315855 32.22432 60.679937 28.848704 59.405585 25.694847 
C 58.131234 22.54099 56.243603 19.671143 53.852304 17.251953 
C 51.461006 14.832764 48.613239 12.911984 45.47437 11.601149 
C 42.335502 10.290313 38.967486 9.615297 35.565901 9.615297 
L 35.565901 35.327537 
L 34.969662 61.032864 
z
" style="fill: #ff0000"/>
   </g>
   <g id="matplotlib.axis_1"/>
   <g id="matplotlib.axis_2"/>
  </g>
 </g>
</svg>
