<?xml version="1.0" encoding="utf-8" standalone="no"?>
<!DOCTYPE svg PUBLIC "-//W3C//DTD SVG 1.1//EN"
  "http://www.w3.org/Graphics/SVG/1.1/DTD/svg11.dtd">
<svg xmlns:xlink="http://www.w3.org/1999/xlink" width="371.52pt" height="280.512pt" viewBox="0 0 371.52 280.512" xmlns="http://www.w3.org/2000/svg" version="1.1">
 <metadata>
  <rdf:RDF xmlns:dc="http://purl.org/dc/elements/1.1/" xmlns:cc="http://creativecommons.org/ns#" xmlns:rdf="http://www.w3.org/1999/02/22-rdf-syntax-ns#">
   <cc:Work>
    <dc:type rdf:resource="http://purl.org/dc/dcmitype/StillImage"/>
    <dc:date>2021-12-10T18:14:47.012604</dc:date>
    <dc:format>image/svg+xml</dc:format>
    <dc:creator>
     <cc:Agent>
      <dc:title>Matplotlib v3.5.0, https://matplotlib.org/</dc:title>
     </cc:Agent>
    </dc:creator>
   </cc:Work>
  </rdf:RDF>
 </metadata>
 <defs>
  <style type="text/css">*{stroke-linejoin: round; stroke-linecap: butt}</style>
 </defs>
 <g id="figure_1">
  <g id="patch_1">
   <path d="M 0 280.512 
L 371.52 280.512 
L 371.52 0 
L 0 0 
L 0 280.512 
z
" style="fill: none"/>
  </g>
  <g id="axes_1">
   <g id="patch_2">
    <path d="M 186.338665 19.296006 
C 156.204302 19.296006 127.140912 30.607308 104.934688 50.977961 
C 82.728464 71.348614 68.957822 99.330672 66.364341 129.353226 
C 63.77086 159.37578 72.538884 189.304828 90.922799 213.181836 
C 109.306715 237.058845 135.999793 253.186638 165.687747 258.354354 
L 186.338665 139.717139 
L 186.338665 19.296006 
z
" style="fill: #0000ff"/>
   </g>
   <g id="patch_3">
    <path d="M 165.687747 258.354354 
C 182.127581 261.216 198.984179 260.629493 215.185362 256.63214 
C 231.386544 252.634786 246.581375 245.313173 259.803371 235.132999 
C 273.025368 224.952824 283.988127 212.134603 291.994352 197.493649 
C 300.000577 182.852695 304.876844 166.706151 306.312992 150.08103 
C 307.74914 133.455909 305.714062 116.712333 300.3372 100.915292 
C 294.960338 85.118251 286.358162 70.609927 275.077821 58.313137 
C 263.797479 46.016346 250.083319 36.197452 234.80764 29.480994 
C 219.531962 22.764536 203.025656 19.296 186.33862 19.296006 
L 186.338665 139.717139 
L 165.687747 258.354354 
z
" style="fill: #ff0000"/>
   </g>
   <g id="matplotlib.axis_1"/>
   <g id="matplotlib.axis_2"/>
  </g>
 </g>
</svg>
