<?xml version="1.0" encoding="utf-8" standalone="no"?>
<!DOCTYPE svg PUBLIC "-//W3C//DTD SVG 1.1//EN"
  "http://www.w3.org/Graphics/SVG/1.1/DTD/svg11.dtd">
<svg xmlns:xlink="http://www.w3.org/1999/xlink" width="153.02115pt" height="152.12682pt" viewBox="0 0 153.02115 152.12682" xmlns="http://www.w3.org/2000/svg" version="1.1">
 <metadata>
  <rdf:RDF xmlns:dc="http://purl.org/dc/elements/1.1/" xmlns:cc="http://creativecommons.org/ns#" xmlns:rdf="http://www.w3.org/1999/02/22-rdf-syntax-ns#">
   <cc:Work>
    <dc:type rdf:resource="http://purl.org/dc/dcmitype/StillImage"/>
    <dc:date>2022-01-14T17:05:46.894175</dc:date>
    <dc:format>image/svg+xml</dc:format>
    <dc:creator>
     <cc:Agent>
      <dc:title>Matplotlib v3.5.1, https://matplotlib.org/</dc:title>
     </cc:Agent>
    </dc:creator>
   </cc:Work>
  </rdf:RDF>
 </metadata>
 <defs>
  <style type="text/css">*{stroke-linejoin: round; stroke-linecap: butt}</style>
 </defs>
 <g id="figure_1">
  <g id="patch_1">
   <path d="M 0 152.12682 
L 153.02115 152.12682 
L 153.02115 0 
L 0 0 
L 0 152.12682 
z
" style="fill: none"/>
  </g>
  <g id="axes_1">
   <g id="patch_2">
    <path d="M 76.504595 13.059842 
C 68.225032 13.059842 60.026125 14.692222 52.377933 17.863394 
C 44.729742 21.034566 37.781277 25.682746 31.930908 31.541445 
C 26.080539 37.400143 21.44225 44.355214 18.281962 52.00791 
C 15.121675 59.660605 13.500961 67.861827 13.512741 76.141381 
C 13.524521 84.420936 15.168564 92.617512 18.350615 100.261184 
C 21.532665 107.904856 26.190727 114.846701 32.057743 120.688728 
C 37.924759 126.530756 44.886422 131.159145 52.543606 134.308542 
C 60.20079 137.457938 68.404309 139.066982 76.683839 139.043422 
L 76.504595 76.051759 
L 76.504595 13.059842 
z
" style="fill: #0000ff; stroke: #000000; stroke-linejoin: miter"/>
   </g>
   <g id="patch_3">
    <path d="M 76.683839 139.043422 
C 93.368362 138.995946 109.368984 132.321549 121.141566 120.49861 
C 132.914148 108.675671 139.520189 92.646706 139.496449 75.962132 
C 139.472709 59.277557 132.821082 43.267456 121.014904 31.478066 
C 109.208725 19.688676 93.189174 13.059838 76.504583 13.059842 
L 76.504595 76.051759 
L 76.683839 139.043422 
z
" style="fill: #ff0000; stroke: #000000; stroke-linejoin: miter"/>
   </g>
   <g id="matplotlib.axis_1"/>
   <g id="matplotlib.axis_2"/>
  </g>
 </g>
</svg>
