<?xml version="1.0" encoding="utf-8" standalone="no"?>
<!DOCTYPE svg PUBLIC "-//W3C//DTD SVG 1.1//EN"
  "http://www.w3.org/Graphics/SVG/1.1/DTD/svg11.dtd">
<svg xmlns:xlink="http://www.w3.org/1999/xlink" width="32.49315pt" height="32.37642pt" viewBox="0 0 32.49315 32.37642" xmlns="http://www.w3.org/2000/svg" version="1.1">
 <metadata>
  <rdf:RDF xmlns:dc="http://purl.org/dc/elements/1.1/" xmlns:cc="http://creativecommons.org/ns#" xmlns:rdf="http://www.w3.org/1999/02/22-rdf-syntax-ns#">
   <cc:Work>
    <dc:type rdf:resource="http://purl.org/dc/dcmitype/StillImage"/>
    <dc:date>2021-12-14T09:20:51.132919</dc:date>
    <dc:format>image/svg+xml</dc:format>
    <dc:creator>
     <cc:Agent>
      <dc:title>Matplotlib v3.5.0, https://matplotlib.org/</dc:title>
     </cc:Agent>
    </dc:creator>
   </cc:Work>
  </rdf:RDF>
 </metadata>
 <defs>
  <style type="text/css">*{stroke-linejoin: round; stroke-linecap: butt}</style>
 </defs>
 <g id="figure_1">
  <g id="patch_1">
   <path d="M 0 32.37642 
L 32.49315 32.37642 
L 32.49315 0 
L 0 0 
L 0 32.37642 
z
" style="fill: none"/>
  </g>
  <g id="axes_1">
   <g id="patch_2">
    <path d="M 16.226421 8.01711 
C 15.12653 8.01711 14.037889 8.238599 13.025978 8.668256 
C 12.014067 9.097912 11.099587 9.726946 10.337542 10.517522 
C 9.575497 11.308099 8.981478 12.244043 8.591211 13.269063 
C 8.200945 14.294083 8.022416 15.387207 8.066363 16.482687 
C 8.11031 17.578167 8.375833 18.653591 8.846963 19.644277 
C 9.318092 20.634962 9.985189 21.52064 10.80813 22.248041 
C 11.631071 22.975441 12.593019 23.529682 13.636117 23.877428 
C 14.679215 24.225174 15.782122 24.35931 16.878502 24.271769 
L 16.226421 16.157435 
L 16.226421 8.01711 
z
" style="fill: #0000ff"/>
   </g>
   <g id="patch_3">
    <path d="M 16.878502 24.271769 
C 18.980458 24.103937 20.937617 23.130959 22.336671 21.558307 
C 23.735725 19.985655 24.470734 17.932414 24.38648 15.832183 
C 24.302226 13.731953 23.405089 11.743767 21.884525 10.287488 
C 20.36396 8.831209 18.33511 8.01711 16.226421 8.01711 
L 16.226421 16.157435 
L 16.878502 24.271769 
z
" style="fill: #ff0000"/>
   </g>
   <g id="matplotlib.axis_1"/>
   <g id="matplotlib.axis_2"/>
  </g>
 </g>
</svg>
