<?xml version="1.0" encoding="utf-8" standalone="no"?>
<!DOCTYPE svg PUBLIC "-//W3C//DTD SVG 1.1//EN"
  "http://www.w3.org/Graphics/SVG/1.1/DTD/svg11.dtd">
<svg xmlns:xlink="http://www.w3.org/1999/xlink" width="110.11095pt" height="109.49346pt" viewBox="0 0 110.11095 109.49346" xmlns="http://www.w3.org/2000/svg" version="1.1">
 <metadata>
  <rdf:RDF xmlns:dc="http://purl.org/dc/elements/1.1/" xmlns:cc="http://creativecommons.org/ns#" xmlns:rdf="http://www.w3.org/1999/02/22-rdf-syntax-ns#">
   <cc:Work>
    <dc:type rdf:resource="http://purl.org/dc/dcmitype/StillImage"/>
    <dc:date>2022-01-14T17:05:49.742946</dc:date>
    <dc:format>image/svg+xml</dc:format>
    <dc:creator>
     <cc:Agent>
      <dc:title>Matplotlib v3.5.1, https://matplotlib.org/</dc:title>
     </cc:Agent>
    </dc:creator>
   </cc:Work>
  </rdf:RDF>
 </metadata>
 <defs>
  <style type="text/css">*{stroke-linejoin: round; stroke-linecap: butt}</style>
 </defs>
 <g id="figure_1">
  <g id="patch_1">
   <path d="M 0 109.49346 
L 110.11095 109.49346 
L 110.11095 0 
L 0 0 
L 0 109.49346 
z
" style="fill: none"/>
  </g>
  <g id="axes_1">
   <g id="patch_2">
    <path d="M 55.410836 11.52243 
C 45.486767 11.52243 35.860624 14.948473 28.168088 21.218404 
C 20.475552 27.488335 15.17849 36.2257 13.176985 45.94584 
C 11.17548 55.66598 12.589702 65.785287 17.179347 74.584282 
C 21.768992 83.383276 29.258492 90.333657 38.375226 94.25441 
L 55.410836 54.642349 
L 55.410836 11.52243 
z
" style="fill: #0000ff; stroke: #000000; stroke-linejoin: miter"/>
   </g>
   <g id="patch_3">
    <path d="M 38.375226 94.25441 
C 44.254669 96.78293 50.623972 97.97103 57.019615 97.732246 
C 63.415257 97.493462 69.678236 95.833731 75.352767 92.873838 
C 81.027297 89.913946 85.972305 85.727478 89.827919 80.619103 
C 93.683534 75.510728 96.353901 69.607445 97.644686 63.338862 
C 98.93547 57.070278 98.814583 50.592239 97.290821 44.376178 
C 95.767059 38.160118 92.878304 32.360574 88.834784 27.399605 
C 84.791264 22.438637 79.693506 18.439579 73.912495 15.693459 
C 68.131484 12.94734 61.810942 11.522431 55.410844 11.52243 
L 55.410836 54.642349 
L 38.375226 94.25441 
z
" style="fill: #ff0000; stroke: #000000; stroke-linejoin: miter"/>
   </g>
   <g id="matplotlib.axis_1"/>
   <g id="matplotlib.axis_2"/>
  </g>
 </g>
</svg>
