<?xml version="1.0" encoding="utf-8" standalone="no"?>
<!DOCTYPE svg PUBLIC "-//W3C//DTD SVG 1.1//EN"
  "http://www.w3.org/Graphics/SVG/1.1/DTD/svg11.dtd">
<svg xmlns:xlink="http://www.w3.org/1999/xlink" width="88.23735pt" height="87.76098pt" viewBox="0 0 88.23735 87.76098" xmlns="http://www.w3.org/2000/svg" version="1.1">
 <metadata>
  <rdf:RDF xmlns:dc="http://purl.org/dc/elements/1.1/" xmlns:cc="http://creativecommons.org/ns#" xmlns:rdf="http://www.w3.org/1999/02/22-rdf-syntax-ns#">
   <cc:Work>
    <dc:type rdf:resource="http://purl.org/dc/dcmitype/StillImage"/>
    <dc:date>2021-12-14T09:20:52.018266</dc:date>
    <dc:format>image/svg+xml</dc:format>
    <dc:creator>
     <cc:Agent>
      <dc:title>Matplotlib v3.5.0, https://matplotlib.org/</dc:title>
     </cc:Agent>
    </dc:creator>
   </cc:Work>
  </rdf:RDF>
 </metadata>
 <defs>
  <style type="text/css">*{stroke-linejoin: round; stroke-linecap: butt}</style>
 </defs>
 <g id="figure_1">
  <g id="patch_1">
   <path d="M 0 87.76098 
L 88.23735 87.76098 
L 88.23735 0 
L 0 0 
L 0 87.76098 
z
" style="fill: none"/>
  </g>
  <g id="axes_1">
   <g id="patch_2">
    <path d="M 44.256479 10.53459 
C 35.872491 10.53459 27.792319 13.712861 21.654082 19.425063 
C 15.515845 25.137265 11.764414 32.969402 11.160329 41.333643 
C 10.556243 49.697884 13.143284 57.988025 18.396973 64.523381 
C 23.650661 71.058737 31.190235 75.365656 39.487171 76.570981 
L 44.256479 43.725095 
L 44.256479 10.53459 
z
" style="fill: #0000ff"/>
   </g>
   <g id="patch_3">
    <path d="M 39.487171 76.570981 
C 43.998719 77.22639 48.597273 76.944841 52.995223 75.743944 
C 57.393174 74.543046 61.49688 72.44837 65.049682 69.590922 
C 68.602483 66.733475 71.528735 63.174097 73.645419 59.135404 
C 75.762102 55.096712 77.02415 50.664696 77.352628 46.116551 
C 77.681107 41.568405 77.069022 37.000969 75.554657 32.699905 
C 74.040291 28.398841 71.655888 24.455726 68.550577 21.117178 
C 65.445266 17.77863 61.685163 15.115732 57.505441 13.295031 
C 53.325718 11.474329 48.815368 10.534591 44.256485 10.53459 
L 44.256479 43.725095 
L 39.487171 76.570981 
z
" style="fill: #ff0000"/>
   </g>
   <g id="matplotlib.axis_1"/>
   <g id="matplotlib.axis_2"/>
  </g>
 </g>
</svg>
