<?xml version="1.0" encoding="utf-8" standalone="no"?>
<!DOCTYPE svg PUBLIC "-//W3C//DTD SVG 1.1//EN"
  "http://www.w3.org/Graphics/SVG/1.1/DTD/svg11.dtd">
<svg xmlns:xlink="http://www.w3.org/1999/xlink" width="283.4955pt" height="281.7594pt" viewBox="0 0 283.4955 281.7594" xmlns="http://www.w3.org/2000/svg" version="1.1">
 <metadata>
  <rdf:RDF xmlns:dc="http://purl.org/dc/elements/1.1/" xmlns:cc="http://creativecommons.org/ns#" xmlns:rdf="http://www.w3.org/1999/02/22-rdf-syntax-ns#">
   <cc:Work>
    <dc:type rdf:resource="http://purl.org/dc/dcmitype/StillImage"/>
    <dc:date>2022-01-14T17:05:50.764665</dc:date>
    <dc:format>image/svg+xml</dc:format>
    <dc:creator>
     <cc:Agent>
      <dc:title>Matplotlib v3.5.1, https://matplotlib.org/</dc:title>
     </cc:Agent>
    </dc:creator>
   </cc:Work>
  </rdf:RDF>
 </metadata>
 <defs>
  <style type="text/css">*{stroke-linejoin: round; stroke-linecap: butt}</style>
 </defs>
 <g id="figure_1">
  <g id="patch_1">
   <path d="M 0 281.7594 
L 283.4955 281.7594 
L 283.4955 0 
L 0 0 
L 0 281.7594 
z
" style="fill: none"/>
  </g>
  <g id="axes_1">
   <g id="patch_2">
    <path d="M 141.892506 18.729007 
C 109.964379 18.729007 79.280567 31.27358 56.497189 53.641481 
C 33.713811 76.009381 20.606712 106.457149 20.019163 138.37987 
C 19.431614 170.30259 31.409411 201.212054 53.354259 224.403194 
C 75.299107 247.594333 105.500519 261.25952 137.407022 262.434419 
L 141.892506 140.622991 
L 141.892506 18.729007 
z
" style="fill: #0000ff; stroke: #000000; stroke-linejoin: miter"/>
   </g>
   <g id="patch_3">
    <path d="M 137.407022 262.434419 
C 153.591773 263.030393 169.734184 260.394798 184.888892 254.681986 
C 200.043599 248.969173 213.908873 240.292885 225.672708 229.161238 
C 237.436543 218.029591 246.864722 204.664217 253.405094 189.847844 
C 259.945466 175.03147 263.467811 159.059092 263.765849 142.866113 
C 264.063886 126.673135 261.131682 110.581958 255.140956 95.534946 
C 249.15023 80.487933 240.220259 66.78467 228.874017 55.227675 
C 217.527774 43.670679 203.991163 34.490049 189.056941 28.223439 
C 174.12272 21.956829 158.088227 18.729007 141.892506 18.729007 
L 141.892506 140.622991 
L 137.407022 262.434419 
z
" style="fill: #ff0000; stroke: #000000; stroke-linejoin: miter"/>
   </g>
   <g id="matplotlib.axis_1"/>
   <g id="matplotlib.axis_2"/>
  </g>
 </g>
</svg>
