<?xml version="1.0" encoding="utf-8" standalone="no"?>
<!DOCTYPE svg PUBLIC "-//W3C//DTD SVG 1.1//EN"
  "http://www.w3.org/Graphics/SVG/1.1/DTD/svg11.dtd">
<svg xmlns:xlink="http://www.w3.org/1999/xlink" width="19.49175pt" height="19.4589pt" viewBox="0 0 19.49175 19.4589" xmlns="http://www.w3.org/2000/svg" version="1.1">
 <metadata>
  <rdf:RDF xmlns:dc="http://purl.org/dc/elements/1.1/" xmlns:cc="http://creativecommons.org/ns#" xmlns:rdf="http://www.w3.org/1999/02/22-rdf-syntax-ns#">
   <cc:Work>
    <dc:type rdf:resource="http://purl.org/dc/dcmitype/StillImage"/>
    <dc:date>2022-01-14T17:05:59.214870</dc:date>
    <dc:format>image/svg+xml</dc:format>
    <dc:creator>
     <cc:Agent>
      <dc:title>Matplotlib v3.5.1, https://matplotlib.org/</dc:title>
     </cc:Agent>
    </dc:creator>
   </cc:Work>
  </rdf:RDF>
 </metadata>
 <defs>
  <style type="text/css">*{stroke-linejoin: round; stroke-linecap: butt}</style>
 </defs>
 <g id="figure_1">
  <g id="patch_1">
   <path d="M 0 19.4589 
L 19.49175 19.4589 
L 19.49175 0 
L 0 0 
L 0 19.4589 
z
" style="fill: none"/>
  </g>
  <g id="axes_1">
   <g id="patch_2">
    <path d="M 9.740363 7.42995 
C 9.431013 7.42995 9.124823 7.49219 8.84018 7.612931 
C 8.555538 7.733672 8.298257 7.910449 8.083791 8.132644 
C 7.869324 8.35484 7.702052 8.617915 7.59202 8.906072 
C 7.481988 9.194229 7.431443 9.50158 7.443422 9.809668 
C 7.455401 10.117756 7.529658 10.420287 7.661734 10.699093 
C 7.79381 10.977899 7.981007 11.227284 8.212083 11.432272 
C 8.443159 11.63726 8.713393 11.793663 9.006557 11.892088 
C 9.299721 11.990513 9.609826 12.02895 9.918249 12.00509 
L 9.740363 9.720955 
L 9.740363 7.42995 
z
" style="fill: #0000ff; stroke: #000000; stroke-linejoin: miter"/>
   </g>
   <g id="patch_3">
    <path d="M 9.918249 12.00509 
C 10.510494 11.959274 11.06246 11.686386 11.457402 11.244143 
C 11.852344 10.8019 12.060307 10.223846 12.037305 9.632243 
C 12.014303 9.040639 11.762081 8.480359 11.333985 8.069903 
C 10.90589 7.659448 10.334391 7.42995 9.740364 7.42995 
L 9.740363 9.720955 
L 9.918249 12.00509 
z
" style="fill: #ff0000; stroke: #000000; stroke-linejoin: miter"/>
   </g>
   <g id="matplotlib.axis_1"/>
   <g id="matplotlib.axis_2"/>
  </g>
 </g>
</svg>
