<?xml version="1.0" encoding="utf-8" standalone="no"?>
<!DOCTYPE svg PUBLIC "-//W3C//DTD SVG 1.1//EN"
  "http://www.w3.org/Graphics/SVG/1.1/DTD/svg11.dtd">
<svg xmlns:xlink="http://www.w3.org/1999/xlink" width="232.1595pt" height="230.7546pt" viewBox="0 0 232.1595 230.7546" xmlns="http://www.w3.org/2000/svg" version="1.1">
 <metadata>
  <rdf:RDF xmlns:dc="http://purl.org/dc/elements/1.1/" xmlns:cc="http://creativecommons.org/ns#" xmlns:rdf="http://www.w3.org/1999/02/22-rdf-syntax-ns#">
   <cc:Work>
    <dc:type rdf:resource="http://purl.org/dc/dcmitype/StillImage"/>
    <dc:date>2021-12-14T09:20:54.808139</dc:date>
    <dc:format>image/svg+xml</dc:format>
    <dc:creator>
     <cc:Agent>
      <dc:title>Matplotlib v3.5.0, https://matplotlib.org/</dc:title>
     </cc:Agent>
    </dc:creator>
   </cc:Work>
  </rdf:RDF>
 </metadata>
 <defs>
  <style type="text/css">*{stroke-linejoin: round; stroke-linecap: butt}</style>
 </defs>
 <g id="figure_1">
  <g id="patch_1">
   <path d="M 0 230.7546 
L 232.1595 230.7546 
L 232.1595 -0 
L 0 -0 
L 0 230.7546 
z
" style="fill: none"/>
  </g>
  <g id="axes_1">
   <g id="patch_2">
    <path d="M 116.473532 17.0343 
C 91.69448 17.0343 67.816684 26.441941 49.697646 43.343409 
C 31.578607 60.244878 20.536365 83.410705 18.817262 108.128226 
C 17.098159 132.845747 24.827249 157.316927 40.432189 176.563551 
C 56.037129 195.810175 78.382763 208.432179 102.923282 211.861847 
L 116.473532 114.919214 
L 116.473532 17.0343 
z
" style="fill: #0000ff"/>
   </g>
   <g id="patch_3">
    <path d="M 102.923282 211.861847 
C 116.221187 213.7203 129.760384 212.823268 142.696815 209.226675 
C 155.633245 205.630082 167.692377 199.410252 178.122421 190.954942 
C 188.552464 182.499632 197.132077 171.988278 203.32639 160.076176 
C 209.520702 148.164074 213.198262 135.10402 214.129801 121.710201 
C 215.061341 108.316383 213.227092 94.873039 208.741406 82.218253 
C 204.255719 69.563468 197.213789 57.965796 188.054621 48.148258 
C 178.895454 38.33072 167.813422 30.501661 155.4994 25.149159 
C 143.185379 19.796656 129.900692 17.0343 116.473532 17.0343 
L 116.473532 114.919214 
L 102.923282 211.861847 
z
" style="fill: #ff0000"/>
   </g>
   <g id="matplotlib.axis_1"/>
   <g id="matplotlib.axis_2"/>
  </g>
 </g>
</svg>
