<?xml version="1.0" encoding="utf-8" standalone="no"?>
<!DOCTYPE svg PUBLIC "-//W3C//DTD SVG 1.1//EN"
  "http://www.w3.org/Graphics/SVG/1.1/DTD/svg11.dtd">
<svg xmlns:xlink="http://www.w3.org/1999/xlink" width="371.52pt" height="280.512pt" viewBox="0 0 371.52 280.512" xmlns="http://www.w3.org/2000/svg" version="1.1">
 <metadata>
  <rdf:RDF xmlns:dc="http://purl.org/dc/elements/1.1/" xmlns:cc="http://creativecommons.org/ns#" xmlns:rdf="http://www.w3.org/1999/02/22-rdf-syntax-ns#">
   <cc:Work>
    <dc:type rdf:resource="http://purl.org/dc/dcmitype/StillImage"/>
    <dc:date>2021-12-03T16:10:05.816919</dc:date>
    <dc:format>image/svg+xml</dc:format>
    <dc:creator>
     <cc:Agent>
      <dc:title>Matplotlib v3.5.0, https://matplotlib.org/</dc:title>
     </cc:Agent>
    </dc:creator>
   </cc:Work>
  </rdf:RDF>
 </metadata>
 <defs>
  <style type="text/css">*{stroke-linejoin: round; stroke-linecap: butt}</style>
 </defs>
 <g id="figure_1">
  <g id="patch_1">
   <path d="M 0 280.512 
L 371.52 280.512 
L 371.52 0 
L 0 0 
L 0 280.512 
z
" style="fill: none"/>
  </g>
  <g id="axes_1">
   <g id="patch_2">
    <path d="M 186.63969 19.296 
C 157.987035 19.296 130.255247 29.527963 108.468975 48.137987 
C 86.682703 66.748011 72.242324 92.539882 67.764252 120.840438 
C 63.28618 149.140995 69.058256 178.131136 84.034653 202.558215 
C 99.01105 226.985293 122.229117 245.279187 149.482032 254.125273 
L 186.63969 139.650414 
L 186.63969 19.296 
z
" style="fill: #0000ff"/>
   </g>
   <g id="patch_3">
    <path d="M 149.482032 254.125273 
C 166.027609 259.49584 183.542538 261.216 200.816807 259.166916 
C 218.091075 257.117832 234.717514 251.347804 249.547491 242.255451 
C 264.377468 233.163097 277.061427 220.962735 286.723103 206.497219 
C 296.384779 192.031704 302.796436 175.642002 305.515128 158.460389 
C 308.23382 141.278776 307.195465 123.71024 302.471797 106.968493 
C 297.748129 90.226747 289.450489 74.70641 278.152117 61.479699 
C 266.853744 48.252988 252.820953 37.631668 237.023191 30.349509 
C 221.225429 23.06735 204.035066 19.296 186.63969 19.296 
L 186.63969 139.650414 
L 149.482032 254.125273 
z
" style="fill: #bf00bf"/>
   </g>
   <g id="matplotlib.axis_1"/>
   <g id="matplotlib.axis_2"/>
  </g>
 </g>
</svg>
