<?xml version="1.0" encoding="utf-8" standalone="no"?>
<!DOCTYPE svg PUBLIC "-//W3C//DTD SVG 1.1//EN"
  "http://www.w3.org/Graphics/SVG/1.1/DTD/svg11.dtd">
<svg xmlns:xlink="http://www.w3.org/1999/xlink" width="73.6038pt" height="73.22184pt" viewBox="0 0 73.6038 73.22184" xmlns="http://www.w3.org/2000/svg" version="1.1">
 <metadata>
  <rdf:RDF xmlns:dc="http://purl.org/dc/elements/1.1/" xmlns:cc="http://creativecommons.org/ns#" xmlns:rdf="http://www.w3.org/1999/02/22-rdf-syntax-ns#">
   <cc:Work>
    <dc:type rdf:resource="http://purl.org/dc/dcmitype/StillImage"/>
    <dc:date>2022-01-14T17:05:52.665377</dc:date>
    <dc:format>image/svg+xml</dc:format>
    <dc:creator>
     <cc:Agent>
      <dc:title>Matplotlib v3.5.1, https://matplotlib.org/</dc:title>
     </cc:Agent>
    </dc:creator>
   </cc:Work>
  </rdf:RDF>
 </metadata>
 <defs>
  <style type="text/css">*{stroke-linejoin: round; stroke-linecap: butt}</style>
 </defs>
 <g id="figure_1">
  <g id="patch_1">
   <path d="M 0 73.22184 
L 73.6038 73.22184 
L 73.6038 -0 
L 0 -0 
L 0 73.22184 
z
" style="fill: none"/>
  </g>
  <g id="axes_1">
   <g id="patch_2">
    <path d="M 36.996348 9.87372 
C 30.662918 9.87372 24.533037 12.13541 19.717363 16.249001 
C 14.901689 20.362592 11.709764 26.06367 10.719923 32.319272 
C 9.730083 38.574874 11.005952 44.982903 14.31636 50.382305 
C 17.626768 55.781707 22.758928 59.82542 28.782957 61.780774 
L 36.996348 36.47706 
L 36.996348 9.87372 
z
" style="fill: #0000ff; stroke: #000000; stroke-linejoin: miter"/>
   </g>
   <g id="patch_3">
    <path d="M 28.782957 61.780774 
C 32.440219 62.967893 36.311748 63.34812 40.130082 62.895187 
C 43.948415 62.442254 47.62355 61.166838 50.901593 59.157049 
C 54.179636 57.14726 56.98332 54.450471 59.118953 51.25299 
C 61.254585 48.055508 62.671829 44.432701 63.272773 40.634849 
C 63.873717 36.836996 63.644198 32.953618 62.60007 29.252994 
C 61.555943 25.55237 59.721819 22.121729 57.224407 19.198075 
C 54.726996 16.274421 51.625165 13.926667 48.133201 12.317006 
C 44.641238 10.707346 40.841451 9.87372 36.996348 9.87372 
L 36.996348 36.47706 
L 28.782957 61.780774 
z
" style="fill: #ff0000; stroke: #000000; stroke-linejoin: miter"/>
   </g>
   <g id="matplotlib.axis_1"/>
   <g id="matplotlib.axis_2"/>
  </g>
 </g>
</svg>
