<?xml version="1.0" encoding="utf-8" standalone="no"?>
<!DOCTYPE svg PUBLIC "-//W3C//DTD SVG 1.1//EN"
  "http://www.w3.org/Graphics/SVG/1.1/DTD/svg11.dtd">
<svg xmlns:xlink="http://www.w3.org/1999/xlink" width="96.2586pt" height="95.73048pt" viewBox="0 0 96.2586 95.73048" xmlns="http://www.w3.org/2000/svg" version="1.1">
 <metadata>
  <rdf:RDF xmlns:dc="http://purl.org/dc/elements/1.1/" xmlns:cc="http://creativecommons.org/ns#" xmlns:rdf="http://www.w3.org/1999/02/22-rdf-syntax-ns#">
   <cc:Work>
    <dc:type rdf:resource="http://purl.org/dc/dcmitype/StillImage"/>
    <dc:date>2022-01-14T17:05:53.570588</dc:date>
    <dc:format>image/svg+xml</dc:format>
    <dc:creator>
     <cc:Agent>
      <dc:title>Matplotlib v3.5.1, https://matplotlib.org/</dc:title>
     </cc:Agent>
    </dc:creator>
   </cc:Work>
  </rdf:RDF>
 </metadata>
 <defs>
  <style type="text/css">*{stroke-linejoin: round; stroke-linecap: butt}</style>
 </defs>
 <g id="figure_1">
  <g id="patch_1">
   <path d="M 0 95.73048 
L 96.2586 95.73048 
L 96.2586 0 
L 0 0 
L 0 95.73048 
z
" style="fill: none"/>
  </g>
  <g id="axes_1">
   <g id="patch_2">
    <path d="M 48.297033 10.896841 
C 39.066709 10.896841 30.166865 14.37885 23.381623 20.64484 
C 16.596381 26.91083 12.411615 35.512112 11.66623 44.724413 
C 10.920845 53.936714 13.668218 63.100367 19.35759 70.378364 
C 25.046962 77.656361 33.270934 82.527544 42.380872 84.015402 
L 48.297033 47.696097 
L 48.297033 10.896841 
z
" style="fill: #0000ff; stroke: #000000; stroke-linejoin: miter"/>
   </g>
   <g id="patch_3">
    <path d="M 42.380872 84.015402 
C 47.390822 84.83364 52.516166 84.603718 57.432972 83.340166 
C 62.349779 82.076615 66.952234 79.806628 70.949452 76.673672 
C 74.94667 73.540717 78.252629 69.612217 80.658384 65.136462 
C 83.064139 60.660708 84.517917 55.73402 84.927836 50.667777 
C 85.337755 45.601533 84.694993 40.504763 83.040174 35.699594 
C 81.385355 30.894425 78.754092 26.484267 75.312687 22.747852 
C 71.871281 19.011437 67.693795 16.029175 63.044255 13.989552 
C 58.394714 11.94993 53.373181 10.89684 48.297026 10.896841 
L 48.297033 47.696097 
L 42.380872 84.015402 
z
" style="fill: #ff0000; stroke: #000000; stroke-linejoin: miter"/>
   </g>
   <g id="matplotlib.axis_1"/>
   <g id="matplotlib.axis_2"/>
  </g>
 </g>
</svg>
