<?xml version="1.0" encoding="utf-8" standalone="no"?>
<!DOCTYPE svg PUBLIC "-//W3C//DTD SVG 1.1//EN"
  "http://www.w3.org/Graphics/SVG/1.1/DTD/svg11.dtd">
<svg xmlns:xlink="http://www.w3.org/1999/xlink" width="257.1021pt" height="255.53628pt" viewBox="0 0 257.1021 255.53628" xmlns="http://www.w3.org/2000/svg" version="1.1">
 <metadata>
  <rdf:RDF xmlns:dc="http://purl.org/dc/elements/1.1/" xmlns:cc="http://creativecommons.org/ns#" xmlns:rdf="http://www.w3.org/1999/02/22-rdf-syntax-ns#">
   <cc:Work>
    <dc:type rdf:resource="http://purl.org/dc/dcmitype/StillImage"/>
    <dc:date>2022-01-14T17:05:54.518967</dc:date>
    <dc:format>image/svg+xml</dc:format>
    <dc:creator>
     <cc:Agent>
      <dc:title>Matplotlib v3.5.1, https://matplotlib.org/</dc:title>
     </cc:Agent>
    </dc:creator>
   </cc:Work>
  </rdf:RDF>
 </metadata>
 <defs>
  <style type="text/css">*{stroke-linejoin: round; stroke-linecap: butt}</style>
 </defs>
 <g id="figure_1">
  <g id="patch_1">
   <path d="M 0 255.53628 
L 257.1021 255.53628 
L 257.1021 0 
L 0 0 
L 0 255.53628 
z
" style="fill: none"/>
  </g>
  <g id="axes_1">
   <g id="patch_2">
    <path d="M 129.10978 18.16074 
C 102.019873 18.16074 75.882675 28.30687 55.850978 46.59888 
C 35.819281 64.890891 23.30205 90.042181 20.766982 117.094324 
C 18.231914 144.146468 25.857317 171.196703 42.139891 192.912239 
C 58.422464 214.627775 82.216942 229.481209 108.832386 234.544277 
L 129.10978 127.308334 
L 129.10978 18.16074 
z
" style="fill: #0000ff; stroke: #000000; stroke-linejoin: miter"/>
   </g>
   <g id="patch_3">
    <path d="M 108.832386 234.544277 
C 123.715716 237.37554 139.025792 237.058694 153.780018 233.614073 
C 168.534244 230.169453 182.410079 223.672362 194.516974 214.539781 
C 206.62387 205.4072 216.697158 193.838776 224.090339 180.576969 
C 231.483519 167.315161 236.034969 152.649884 237.452578 137.522353 
C 238.870186 122.394822 237.122964 107.135738 232.323046 92.724426 
C 227.523129 78.313114 219.775447 65.064618 209.577245 53.829223 
C 199.379043 42.593829 186.953263 33.617152 173.097389 27.475314 
C 159.241515 21.333476 144.258449 18.160743 129.1098 18.16074 
L 129.10978 127.308334 
L 108.832386 234.544277 
z
" style="fill: #ff0000; stroke: #000000; stroke-linejoin: miter"/>
   </g>
   <g id="matplotlib.axis_1"/>
   <g id="matplotlib.axis_2"/>
  </g>
 </g>
</svg>
