<?xml version="1.0" encoding="utf-8" standalone="no"?>
<!DOCTYPE svg PUBLIC "-//W3C//DTD SVG 1.1//EN"
  "http://www.w3.org/Graphics/SVG/1.1/DTD/svg11.dtd">
<svg xmlns:xlink="http://www.w3.org/1999/xlink" width="371.52pt" height="280.512pt" viewBox="0 0 371.52 280.512" xmlns="http://www.w3.org/2000/svg" version="1.1">
 <metadata>
  <rdf:RDF xmlns:dc="http://purl.org/dc/elements/1.1/" xmlns:cc="http://creativecommons.org/ns#" xmlns:rdf="http://www.w3.org/1999/02/22-rdf-syntax-ns#">
   <cc:Work>
    <dc:type rdf:resource="http://purl.org/dc/dcmitype/StillImage"/>
    <dc:date>2021-12-03T16:10:07.714756</dc:date>
    <dc:format>image/svg+xml</dc:format>
    <dc:creator>
     <cc:Agent>
      <dc:title>Matplotlib v3.5.0, https://matplotlib.org/</dc:title>
     </cc:Agent>
    </dc:creator>
   </cc:Work>
  </rdf:RDF>
 </metadata>
 <defs>
  <style type="text/css">*{stroke-linejoin: round; stroke-linecap: butt}</style>
 </defs>
 <g id="figure_1">
  <g id="patch_1">
   <path d="M 0 280.512 
L 371.52 280.512 
L 371.52 0 
L 0 0 
L 0 280.512 
z
" style="fill: none"/>
  </g>
  <g id="axes_1">
   <g id="patch_2">
    <path d="M 186.378455 19.296 
C 156.392799 19.296 127.461691 30.493016 105.288724 50.679624 
C 83.115758 70.866232 69.260509 98.62257 66.454458 128.476642 
C 63.648406 158.330715 72.08892 188.182682 90.112003 212.147407 
C 108.135086 236.112132 134.473052 252.504013 163.933529 258.091489 
L 186.378455 139.748569 
L 186.378455 19.296 
z
" style="fill: #0000ff"/>
   </g>
   <g id="patch_3">
    <path d="M 163.933529 258.091489 
C 180.407797 261.216 197.354429 260.866336 213.685794 257.064939 
C 230.017159 253.263542 245.376238 246.093513 258.777288 236.015024 
C 272.178339 225.936535 283.328401 213.169911 291.511868 198.534509 
C 299.695335 183.899108 304.733308 167.714874 306.302451 151.020507 
C 307.871594 134.32614 305.937604 117.486595 300.624603 101.582629 
C 295.311603 85.678663 286.73574 71.057953 275.447411 58.658851 
C 264.159083 46.259749 250.405061 36.353312 235.068077 29.575332 
C 219.731092 22.797352 203.146426 19.296003 186.378477 19.296 
L 186.378455 139.748569 
L 163.933529 258.091489 
z
" style="fill: #bf00bf"/>
   </g>
   <g id="matplotlib.axis_1"/>
   <g id="matplotlib.axis_2"/>
  </g>
 </g>
</svg>
