<?xml version="1.0" encoding="utf-8" standalone="no"?>
<!DOCTYPE svg PUBLIC "-//W3C//DTD SVG 1.1//EN"
  "http://www.w3.org/Graphics/SVG/1.1/DTD/svg11.dtd">
<svg xmlns:xlink="http://www.w3.org/1999/xlink" width="19.5894pt" height="19.55592pt" viewBox="0 0 19.5894 19.55592" xmlns="http://www.w3.org/2000/svg" version="1.1">
 <metadata>
  <rdf:RDF xmlns:dc="http://purl.org/dc/elements/1.1/" xmlns:cc="http://creativecommons.org/ns#" xmlns:rdf="http://www.w3.org/1999/02/22-rdf-syntax-ns#">
   <cc:Work>
    <dc:type rdf:resource="http://purl.org/dc/dcmitype/StillImage"/>
    <dc:date>2022-01-14T17:06:00.107944</dc:date>
    <dc:format>image/svg+xml</dc:format>
    <dc:creator>
     <cc:Agent>
      <dc:title>Matplotlib v3.5.1, https://matplotlib.org/</dc:title>
     </cc:Agent>
    </dc:creator>
   </cc:Work>
  </rdf:RDF>
 </metadata>
 <defs>
  <style type="text/css">*{stroke-linejoin: round; stroke-linecap: butt}</style>
 </defs>
 <g id="figure_1">
  <g id="patch_1">
   <path d="M -0 19.55592 
L 19.5894 19.55592 
L 19.5894 0 
L -0 0 
L -0 19.55592 
z
" style="fill: none"/>
  </g>
  <g id="axes_1">
   <g id="patch_2">
    <path d="M 9.802885 7.43436 
C 9.207451 7.43436 8.633982 7.661745 8.200687 8.069644 
C 7.767393 8.477542 7.50624 9.035861 7.471061 9.629513 
C 7.435882 10.223166 7.629271 10.808353 8.011367 11.26445 
C 8.393462 11.720548 8.936072 12.013905 9.527349 12.084053 
L 9.802885 9.76735 
L 9.802885 7.43436 
z
" style="fill: #0000ff; stroke: #000000; stroke-linejoin: miter"/>
   </g>
   <g id="patch_3">
    <path d="M 9.527349 12.084053 
C 9.843496 12.12156 10.164009 12.094121 10.469154 12.003426 
C 10.774298 11.912731 11.057681 11.760679 11.301855 11.556633 
C 11.546028 11.352587 11.745876 11.100822 11.889094 10.816839 
C 12.032311 10.532856 12.115899 10.222604 12.134708 9.905187 
C 12.153518 9.58777 12.107157 9.269837 11.998478 8.970964 
C 11.8898 8.672091 11.721082 8.398539 11.502712 8.167152 
C 11.284342 7.935764 11.020895 7.751389 10.728593 7.625378 
C 10.43629 7.499367 10.121255 7.43436 9.802885 7.43436 
L 9.802885 9.76735 
L 9.527349 12.084053 
z
" style="fill: #ff0000; stroke: #000000; stroke-linejoin: miter"/>
   </g>
   <g id="matplotlib.axis_1"/>
   <g id="matplotlib.axis_2"/>
  </g>
 </g>
</svg>
