<?xml version="1.0" encoding="utf-8" standalone="no"?>
<!DOCTYPE svg PUBLIC "-//W3C//DTD SVG 1.1//EN"
  "http://www.w3.org/Graphics/SVG/1.1/DTD/svg11.dtd">
<svg xmlns:xlink="http://www.w3.org/1999/xlink" width="371.52pt" height="280.512pt" viewBox="0 0 371.52 280.512" xmlns="http://www.w3.org/2000/svg" version="1.1">
 <metadata>
  <rdf:RDF xmlns:dc="http://purl.org/dc/elements/1.1/" xmlns:cc="http://creativecommons.org/ns#" xmlns:rdf="http://www.w3.org/1999/02/22-rdf-syntax-ns#">
   <cc:Work>
    <dc:type rdf:resource="http://purl.org/dc/dcmitype/StillImage"/>
    <dc:date>2021-12-03T16:10:13.500872</dc:date>
    <dc:format>image/svg+xml</dc:format>
    <dc:creator>
     <cc:Agent>
      <dc:title>Matplotlib v3.5.0, https://matplotlib.org/</dc:title>
     </cc:Agent>
    </dc:creator>
   </cc:Work>
  </rdf:RDF>
 </metadata>
 <defs>
  <style type="text/css">*{stroke-linejoin: round; stroke-linecap: butt}</style>
 </defs>
 <g id="figure_1">
  <g id="patch_1">
   <path d="M 0 280.512 
L 371.52 280.512 
L 371.52 0 
L 0 0 
L 0 280.512 
z
" style="fill: none"/>
  </g>
  <g id="axes_1">
   <g id="patch_2">
    <path d="M 186.181908 19.296 
C 155.48817 19.296 125.926711 31.031988 103.591015 52.084831 
C 81.255318 73.137675 67.793293 101.954114 65.979858 132.594235 
C 64.166423 163.234356 74.135371 193.437557 93.83181 216.978072 
C 113.528249 240.518587 141.498992 255.659617 171.978449 259.280152 
L 186.181908 139.708392 
L 186.181908 19.296 
z
" style="fill: #0000ff"/>
   </g>
   <g id="patch_3">
    <path d="M 171.978449 259.280152 
C 188.275377 261.216 204.797337 259.799804 220.527091 255.118758 
C 236.256845 250.437711 250.864808 242.589896 263.451584 232.058494 
C 276.03836 221.527091 286.340218 208.532766 293.722885 193.875563 
C 301.105552 179.21836 305.414339 163.205393 306.383958 146.82256 
C 307.353577 130.439728 304.963713 114.0303 299.361506 98.604586 
C 293.759299 83.178872 285.062132 69.060088 273.805481 57.11751 
C 262.548829 45.174933 248.968553 35.658795 233.900775 29.154994 
C 218.832997 22.651193 202.593432 19.296003 186.181931 19.296 
L 186.181908 139.708392 
L 171.978449 259.280152 
z
" style="fill: #bf00bf"/>
   </g>
   <g id="matplotlib.axis_1"/>
   <g id="matplotlib.axis_2"/>
  </g>
 </g>
</svg>
