<?xml version="1.0" encoding="utf-8" standalone="no"?>
<!DOCTYPE svg PUBLIC "-//W3C//DTD SVG 1.1//EN"
  "http://www.w3.org/Graphics/SVG/1.1/DTD/svg11.dtd">
<svg xmlns:xlink="http://www.w3.org/1999/xlink" width="79.83945pt" height="79.41726pt" viewBox="0 0 79.83945 79.41726" xmlns="http://www.w3.org/2000/svg" version="1.1">
 <metadata>
  <rdf:RDF xmlns:dc="http://purl.org/dc/elements/1.1/" xmlns:cc="http://creativecommons.org/ns#" xmlns:rdf="http://www.w3.org/1999/02/22-rdf-syntax-ns#">
   <cc:Work>
    <dc:type rdf:resource="http://purl.org/dc/dcmitype/StillImage"/>
    <dc:date>2022-01-14T17:05:55.436867</dc:date>
    <dc:format>image/svg+xml</dc:format>
    <dc:creator>
     <cc:Agent>
      <dc:title>Matplotlib v3.5.1, https://matplotlib.org/</dc:title>
     </cc:Agent>
    </dc:creator>
   </cc:Work>
  </rdf:RDF>
 </metadata>
 <defs>
  <style type="text/css">*{stroke-linejoin: round; stroke-linecap: butt}</style>
 </defs>
 <g id="figure_1">
  <g id="patch_1">
   <path d="M 0 79.41726 
L 79.83945 79.41726 
L 79.83945 0 
L 0 0 
L 0 79.41726 
z
" style="fill: none"/>
  </g>
  <g id="axes_1">
   <g id="patch_2">
    <path d="M 40.066666 10.155331 
C 32.745347 10.155331 25.682576 12.901963 20.276139 17.851644 
C 14.869701 22.801325 11.501447 29.604464 10.837984 36.914661 
C 10.17452 44.224858 12.262708 51.525801 16.689275 57.372569 
C 21.115842 63.219338 27.568146 67.19898 34.769218 68.523891 
L 40.066666 39.58126 
L 40.066666 10.155331 
z
" style="fill: #0000ff; stroke: #000000; stroke-linejoin: miter"/>
   </g>
   <g id="patch_3">
    <path d="M 34.769218 68.523891 
C 38.780563 69.26193 42.901654 69.153642 46.868934 68.205952 
C 50.836213 67.258261 54.563265 65.491812 57.811731 63.019574 
C 61.060198 60.547336 63.75932 57.42316 65.736479 53.846848 
C 67.713638 50.270536 68.925768 46.319989 69.295349 42.247856 
C 69.66493 38.175723 69.183911 34.070706 67.883055 30.195333 
C 66.582199 26.319961 64.489842 22.758648 61.739797 19.739153 
C 58.989752 16.719658 55.641922 14.307752 51.910411 12.657684 
C 48.1789 11.007617 44.144989 10.15533 40.066661 10.155331 
L 40.066666 39.58126 
L 34.769218 68.523891 
z
" style="fill: #ff0000; stroke: #000000; stroke-linejoin: miter"/>
   </g>
   <g id="matplotlib.axis_1"/>
   <g id="matplotlib.axis_2"/>
  </g>
 </g>
</svg>
