<?xml version="1.0" encoding="utf-8" standalone="no"?>
<!DOCTYPE svg PUBLIC "-//W3C//DTD SVG 1.1//EN"
  "http://www.w3.org/Graphics/SVG/1.1/DTD/svg11.dtd">
<svg xmlns:xlink="http://www.w3.org/1999/xlink" width="31.9212pt" height="31.80816pt" viewBox="0 0 31.9212 31.80816" xmlns="http://www.w3.org/2000/svg" version="1.1">
 <metadata>
  <rdf:RDF xmlns:dc="http://purl.org/dc/elements/1.1/" xmlns:cc="http://creativecommons.org/ns#" xmlns:rdf="http://www.w3.org/1999/02/22-rdf-syntax-ns#">
   <cc:Work>
    <dc:type rdf:resource="http://purl.org/dc/dcmitype/StillImage"/>
    <dc:date>2022-01-14T17:05:56.419561</dc:date>
    <dc:format>image/svg+xml</dc:format>
    <dc:creator>
     <cc:Agent>
      <dc:title>Matplotlib v3.5.1, https://matplotlib.org/</dc:title>
     </cc:Agent>
    </dc:creator>
   </cc:Work>
  </rdf:RDF>
 </metadata>
 <defs>
  <style type="text/css">*{stroke-linejoin: round; stroke-linecap: butt}</style>
 </defs>
 <g id="figure_1">
  <g id="patch_1">
   <path d="M 0 31.80816 
L 31.9212 31.80816 
L 31.9212 0 
L 0 0 
L 0 31.80816 
z
" style="fill: none"/>
  </g>
  <g id="axes_1">
   <g id="patch_2">
    <path d="M 15.915129 7.99128 
C 14.81224 7.99128 13.721646 8.224929 12.714706 8.676938 
C 11.707766 9.128948 10.806931 9.78924 10.071144 10.614611 
C 9.335357 11.439982 8.781022 12.412029 8.444411 13.467151 
C 8.1078 14.522272 7.996418 15.636943 8.117553 16.738228 
C 8.238687 17.839513 8.589637 18.902858 9.14744 19.858688 
C 9.705243 20.814518 10.457462 21.641521 11.354878 22.285584 
C 12.252294 22.929648 13.274898 23.376413 14.355781 23.596647 
C 15.436663 23.81688 16.551724 23.805672 17.628003 23.563755 
L 15.915129 15.872593 
L 15.915129 7.99128 
z
" style="fill: #0000ff; stroke: #000000; stroke-linejoin: miter"/>
   </g>
   <g id="patch_3">
    <path d="M 17.628003 23.563755 
C 19.512306 23.140218 21.176195 22.032351 22.298603 20.45393 
C 23.421012 18.87551 23.924782 16.93504 23.712705 15.006959 
C 23.500628 13.078878 22.587283 11.295727 21.148911 10.001587 
C 19.710539 8.707447 17.846018 7.99128 15.915129 7.99128 
L 15.915129 15.872593 
L 17.628003 23.563755 
z
" style="fill: #ff0000; stroke: #000000; stroke-linejoin: miter"/>
   </g>
   <g id="matplotlib.axis_1"/>
   <g id="matplotlib.axis_2"/>
  </g>
 </g>
</svg>
