<?xml version="1.0" encoding="utf-8" standalone="no"?>
<!DOCTYPE svg PUBLIC "-//W3C//DTD SVG 1.1//EN"
  "http://www.w3.org/Graphics/SVG/1.1/DTD/svg11.dtd">
<svg xmlns:xlink="http://www.w3.org/1999/xlink" width="68.6376pt" height="68.28768pt" viewBox="0 0 68.6376 68.28768" xmlns="http://www.w3.org/2000/svg" version="1.1">
 <metadata>
  <rdf:RDF xmlns:dc="http://purl.org/dc/elements/1.1/" xmlns:cc="http://creativecommons.org/ns#" xmlns:rdf="http://www.w3.org/1999/02/22-rdf-syntax-ns#">
   <cc:Work>
    <dc:type rdf:resource="http://purl.org/dc/dcmitype/StillImage"/>
    <dc:date>2021-12-14T09:21:00.307425</dc:date>
    <dc:format>image/svg+xml</dc:format>
    <dc:creator>
     <cc:Agent>
      <dc:title>Matplotlib v3.5.0, https://matplotlib.org/</dc:title>
     </cc:Agent>
    </dc:creator>
   </cc:Work>
  </rdf:RDF>
 </metadata>
 <defs>
  <style type="text/css">*{stroke-linejoin: round; stroke-linecap: butt}</style>
 </defs>
 <g id="figure_1">
  <g id="patch_1">
   <path d="M 0 68.28768 
L 68.6376 68.28768 
L 68.6376 0 
L 0 0 
L 0 68.28768 
z
" style="fill: none"/>
  </g>
  <g id="axes_1">
   <g id="patch_2">
    <path d="M 34.443676 9.64944 
C 28.389852 9.64944 22.548928 11.916794 18.072386 16.004514 
C 13.595844 20.092235 10.798542 25.712811 10.231944 31.758198 
C 9.665345 37.803586 11.369301 43.848581 15.007893 48.70147 
C 18.646485 53.554358 23.963791 56.873811 29.911554 58.005429 
L 34.443676 34.041099 
L 34.443676 9.64944 
z
" style="fill: #0000ff"/>
   </g>
   <g id="patch_3">
    <path d="M 29.911554 58.005429 
C 33.237597 58.63824 36.659027 58.567521 39.956255 57.797811 
C 43.253482 57.0281 46.354424 55.576226 49.060061 53.535369 
C 51.765698 51.494513 54.016881 48.909291 55.669127 45.945624 
C 57.321372 42.981957 58.338561 39.704635 58.655408 36.324 
C 58.972255 32.943365 58.581834 29.533321 57.509202 26.312728 
C 56.436571 23.092135 54.705178 20.131399 52.426146 17.620543 
C 50.147114 15.109687 47.370266 13.103602 44.273821 11.731038 
C 41.177377 10.358475 37.829028 9.64944 34.443676 9.64944 
L 34.443676 34.041099 
L 29.911554 58.005429 
z
" style="fill: #ff0000"/>
   </g>
   <g id="matplotlib.axis_1"/>
   <g id="matplotlib.axis_2"/>
  </g>
 </g>
</svg>
