<?xml version="1.0" encoding="utf-8" standalone="no"?>
<!DOCTYPE svg PUBLIC "-//W3C//DTD SVG 1.1//EN"
  "http://www.w3.org/Graphics/SVG/1.1/DTD/svg11.dtd">
<svg xmlns:xlink="http://www.w3.org/1999/xlink" width="371.52pt" height="280.512pt" viewBox="0 0 371.52 280.512" xmlns="http://www.w3.org/2000/svg" version="1.1">
 <metadata>
  <rdf:RDF xmlns:dc="http://purl.org/dc/elements/1.1/" xmlns:cc="http://creativecommons.org/ns#" xmlns:rdf="http://www.w3.org/1999/02/22-rdf-syntax-ns#">
   <cc:Work>
    <dc:type rdf:resource="http://purl.org/dc/dcmitype/StillImage"/>
    <dc:date>2021-12-03T16:10:11.556713</dc:date>
    <dc:format>image/svg+xml</dc:format>
    <dc:creator>
     <cc:Agent>
      <dc:title>Matplotlib v3.5.0, https://matplotlib.org/</dc:title>
     </cc:Agent>
    </dc:creator>
   </cc:Work>
  </rdf:RDF>
 </metadata>
 <defs>
  <style type="text/css">*{stroke-linejoin: round; stroke-linecap: butt}</style>
 </defs>
 <g id="figure_1">
  <g id="patch_1">
   <path d="M 0 280.512 
L 371.52 280.512 
L 371.52 0 
L 0 0 
L 0 280.512 
z
" style="fill: none"/>
  </g>
  <g id="axes_1">
   <g id="patch_2">
    <path d="M 186.584255 19.296003 
C 157.59705 19.296003 129.563647 29.768941 107.676821 48.774858 
C 85.789995 67.780775 71.490085 94.068922 67.425939 122.769807 
C 63.361792 151.470691 69.800864 180.695551 85.550412 205.030912 
C 101.299959 229.366273 125.323529 247.210662 153.171108 255.258668 
L 186.584255 139.643045 
L 186.584255 19.296003 
z
" style="fill: #0000ff"/>
   </g>
   <g id="patch_3">
    <path d="M 153.171108 255.258668 
C 169.723078 260.04222 187.110915 261.216 204.155619 258.700417 
C 221.200323 256.184834 237.507739 250.038061 251.972126 240.676886 
C 266.436513 231.315711 278.723386 218.956608 287.999619 204.437601 
C 297.275853 189.918593 303.326938 173.575429 305.742573 156.516273 
C 308.158208 139.457117 306.882533 122.076458 302.002046 105.552811 
C 297.121559 89.029163 288.74912 73.744631 277.452431 60.735599 
C 266.155743 47.726567 252.196037 37.293865 236.519867 30.144894 
C 220.843697 22.995923 203.81357 19.296 186.584232 19.296003 
L 186.584255 139.643045 
L 153.171108 255.258668 
z
" style="fill: #bf00bf"/>
   </g>
   <g id="matplotlib.axis_1"/>
   <g id="matplotlib.axis_2"/>
  </g>
 </g>
</svg>
