<?xml version="1.0" encoding="utf-8" standalone="no"?>
<!DOCTYPE svg PUBLIC "-//W3C//DTD SVG 1.1//EN"
  "http://www.w3.org/Graphics/SVG/1.1/DTD/svg11.dtd">
<svg xmlns:xlink="http://www.w3.org/1999/xlink" width="23.7465pt" height="23.6862pt" viewBox="0 0 23.7465 23.6862" xmlns="http://www.w3.org/2000/svg" version="1.1">
 <metadata>
  <rdf:RDF xmlns:dc="http://purl.org/dc/elements/1.1/" xmlns:cc="http://creativecommons.org/ns#" xmlns:rdf="http://www.w3.org/1999/02/22-rdf-syntax-ns#">
   <cc:Work>
    <dc:type rdf:resource="http://purl.org/dc/dcmitype/StillImage"/>
    <dc:date>2021-12-14T09:21:01.200549</dc:date>
    <dc:format>image/svg+xml</dc:format>
    <dc:creator>
     <cc:Agent>
      <dc:title>Matplotlib v3.5.0, https://matplotlib.org/</dc:title>
     </cc:Agent>
    </dc:creator>
   </cc:Work>
  </rdf:RDF>
 </metadata>
 <defs>
  <style type="text/css">*{stroke-linejoin: round; stroke-linecap: butt}</style>
 </defs>
 <g id="figure_1">
  <g id="patch_1">
   <path d="M 0 23.6862 
L 23.7465 23.6862 
L 23.7465 0 
L 0 0 
L 0 23.6862 
z
" style="fill: none"/>
  </g>
  <g id="axes_1">
   <g id="patch_2">
    <path d="M 11.902013 7.6221 
C 10.89048 7.6221 9.912231 7.987562 9.148472 8.650789 
C 8.384713 9.314017 7.885706 10.231363 7.743884 11.232905 
C 7.602063 12.234446 7.826759 13.254272 8.376353 14.103475 
C 8.925946 14.952677 9.764269 15.575372 10.736033 15.856214 
L 11.902013 11.82171 
L 11.902013 7.6221 
z
" style="fill: #0000ff"/>
   </g>
   <g id="patch_3">
    <path d="M 10.736033 15.856214 
C 11.313628 16.02314 11.920391 16.0641 12.51518 15.976317 
C 13.10997 15.888533 13.67903 15.674036 14.183777 15.34737 
C 14.688524 15.020704 15.117285 14.589423 15.440987 14.08277 
C 15.764689 13.576118 15.975846 13.005809 16.060142 12.410516 
C 16.144437 11.815222 16.099922 11.20871 15.929613 10.632103 
C 15.759304 10.055497 15.467141 9.52213 15.072934 9.068169 
C 14.678726 8.614208 14.191591 8.25015 13.644558 8.000681 
C 13.097525 7.751212 12.503244 7.6221 11.902012 7.6221 
L 11.902013 11.82171 
L 10.736033 15.856214 
z
" style="fill: #ff0000"/>
   </g>
   <g id="matplotlib.axis_1"/>
   <g id="matplotlib.axis_2"/>
  </g>
 </g>
</svg>
