<?xml version="1.0" encoding="utf-8" standalone="no"?>
<!DOCTYPE svg PUBLIC "-//W3C//DTD SVG 1.1//EN"
  "http://www.w3.org/Graphics/SVG/1.1/DTD/svg11.dtd">
<svg xmlns:xlink="http://www.w3.org/1999/xlink" width="371.52pt" height="280.512pt" viewBox="0 0 371.52 280.512" xmlns="http://www.w3.org/2000/svg" version="1.1">
 <metadata>
  <rdf:RDF xmlns:dc="http://purl.org/dc/elements/1.1/" xmlns:cc="http://creativecommons.org/ns#" xmlns:rdf="http://www.w3.org/1999/02/22-rdf-syntax-ns#">
   <cc:Work>
    <dc:type rdf:resource="http://purl.org/dc/dcmitype/StillImage"/>
    <dc:date>2021-12-10T18:12:45.423014</dc:date>
    <dc:format>image/svg+xml</dc:format>
    <dc:creator>
     <cc:Agent>
      <dc:title>Matplotlib v3.5.0, https://matplotlib.org/</dc:title>
     </cc:Agent>
    </dc:creator>
   </cc:Work>
  </rdf:RDF>
 </metadata>
 <defs>
  <style type="text/css">*{stroke-linejoin: round; stroke-linecap: butt}</style>
 </defs>
 <g id="figure_1">
  <g id="patch_1">
   <path d="M 0 280.512 
L 371.52 280.512 
L 371.52 0 
L 0 0 
L 0 280.512 
z
" style="fill: none"/>
  </g>
  <g id="axes_1">
   <g id="patch_2">
    <path d="M 186.144753 19.296 
C 163.684783 19.296 141.667791 25.588922 122.60035 37.458335 
C 103.532909 49.327747 88.167153 66.305449 78.252432 86.458577 
C 68.33771 106.611705 64.265119 129.145298 66.498311 151.493969 
C 68.731503 173.842641 77.182387 195.124825 90.888855 212.917604 
L 186.144753 139.538294 
L 186.144753 19.296 
z
" style="fill: #0000ff"/>
   </g>
   <g id="patch_3">
    <path d="M 90.888855 212.917604 
C 103.355974 229.101548 119.744306 241.844398 138.501347 249.938996 
C 157.258388 258.033594 177.772528 261.216 198.100417 259.184737 
C 218.428306 257.153474 237.907113 249.974775 254.691568 238.328695 
C 271.476023 226.682615 285.018835 210.948897 294.037064 192.618031 
C 303.055293 174.287164 307.254881 153.956865 306.237993 133.553065 
C 305.221104 113.149265 299.020897 93.337272 288.22473 75.993919 
C 277.428562 58.650567 262.388466 44.341369 244.529222 34.421868 
C 226.669978 24.502367 206.573922 19.296008 186.144798 19.296 
L 186.144753 139.538294 
L 90.888855 212.917604 
z
" style="fill: #ff0000"/>
   </g>
   <g id="matplotlib.axis_1"/>
   <g id="matplotlib.axis_2"/>
  </g>
 </g>
</svg>
