<?xml version="1.0" encoding="utf-8" standalone="no"?>
<!DOCTYPE svg PUBLIC "-//W3C//DTD SVG 1.1//EN"
  "http://www.w3.org/Graphics/SVG/1.1/DTD/svg11.dtd">
<svg xmlns:xlink="http://www.w3.org/1999/xlink" width="371.52pt" height="280.512pt" viewBox="0 0 371.52 280.512" xmlns="http://www.w3.org/2000/svg" version="1.1">
 <metadata>
  <rdf:RDF xmlns:dc="http://purl.org/dc/elements/1.1/" xmlns:cc="http://creativecommons.org/ns#" xmlns:rdf="http://www.w3.org/1999/02/22-rdf-syntax-ns#">
   <cc:Work>
    <dc:type rdf:resource="http://purl.org/dc/dcmitype/StillImage"/>
    <dc:date>2022-01-14T17:15:28.307454</dc:date>
    <dc:format>image/svg+xml</dc:format>
    <dc:creator>
     <cc:Agent>
      <dc:title>Matplotlib v3.5.1, https://matplotlib.org/</dc:title>
     </cc:Agent>
    </dc:creator>
   </cc:Work>
  </rdf:RDF>
 </metadata>
 <defs>
  <style type="text/css">*{stroke-linejoin: round; stroke-linecap: butt}</style>
 </defs>
 <g id="figure_1">
  <g id="patch_1">
   <path d="M 0 280.512 
L 371.52 280.512 
L 371.52 0 
L 0 0 
L 0 280.512 
z
" style="fill: none"/>
  </g>
  <g id="axes_1">
   <g id="patch_2">
    <path d="M 186.183796 19.296 
C 163.489296 19.296 141.252288 25.724133 122.058152 37.833033 
C 102.864016 49.941933 87.48661 67.243401 77.713785 87.725886 
C 67.940959 108.208371 64.166728 131.046072 66.829903 153.58377 
C 69.493078 176.121468 78.486286 197.4505 92.763933 215.091053 
L 186.183796 139.480276 
L 186.183796 19.296 
z
" style="fill: #0000ff; stroke: #000000; stroke-width: 2; stroke-linejoin: miter"/>
   </g>
   <g id="patch_3">
    <path d="M 92.763933 215.091053 
C 105.533263 230.868023 122.093582 243.156085 140.894315 250.804681 
C 159.695047 258.453277 180.130506 261.216 200.287278 258.83417 
C 220.444051 256.45234 239.672762 249.002691 256.17299 237.182747 
C 272.673218 225.362804 285.913388 209.553361 294.653797 191.234686 
C 303.394206 172.916012 307.353272 152.678265 306.160298 132.416345 
C 304.967324 112.154425 298.660745 92.521095 287.831057 75.354661 
C 277.001369 58.188228 261.997464 44.041728 244.224188 34.239727 
C 226.450911 24.437726 206.48085 19.296008 186.183841 19.296 
L 186.183796 139.480276 
L 92.763933 215.091053 
z
" style="fill: #ff0000; stroke: #000000; stroke-width: 2; stroke-linejoin: miter"/>
   </g>
   <g id="matplotlib.axis_1"/>
   <g id="matplotlib.axis_2"/>
  </g>
 </g>
</svg>
