<?xml version="1.0" encoding="utf-8" standalone="no"?>
<!DOCTYPE svg PUBLIC "-//W3C//DTD SVG 1.1//EN"
  "http://www.w3.org/Graphics/SVG/1.1/DTD/svg11.dtd">
<svg xmlns:xlink="http://www.w3.org/1999/xlink" width="371.52pt" height="280.512pt" viewBox="0 0 371.52 280.512" xmlns="http://www.w3.org/2000/svg" version="1.1">
 <metadata>
  <rdf:RDF xmlns:dc="http://purl.org/dc/elements/1.1/" xmlns:cc="http://creativecommons.org/ns#" xmlns:rdf="http://www.w3.org/1999/02/22-rdf-syntax-ns#">
   <cc:Work>
    <dc:type rdf:resource="http://purl.org/dc/dcmitype/StillImage"/>
    <dc:date>2021-12-10T18:12:53.086974</dc:date>
    <dc:format>image/svg+xml</dc:format>
    <dc:creator>
     <cc:Agent>
      <dc:title>Matplotlib v3.5.0, https://matplotlib.org/</dc:title>
     </cc:Agent>
    </dc:creator>
   </cc:Work>
  </rdf:RDF>
 </metadata>
 <defs>
  <style type="text/css">*{stroke-linejoin: round; stroke-linecap: butt}</style>
 </defs>
 <g id="figure_1">
  <g id="patch_1">
   <path d="M 0 280.512 
L 371.52 280.512 
L 371.52 0 
L 0 0 
L 0 280.512 
z
" style="fill: none"/>
  </g>
  <g id="axes_1">
   <g id="patch_2">
    <path d="M 185.970585 19.296 
C 166.303446 19.296 146.933851 24.124954 129.568414 33.357393 
C 112.202977 42.589832 97.36714 55.946402 86.368057 72.250283 
C 75.368975 88.554164 68.539457 107.312034 66.481237 126.871177 
C 64.423018 146.43032 67.198374 166.198917 74.562776 184.435197 
L 185.970585 139.445107 
L 185.970585 19.296 
z
" style="fill: #0000ff"/>
   </g>
   <g id="patch_3">
    <path d="M 74.562776 184.435197 
C 82.726244 204.650182 96.239842 222.267143 113.649059 235.389909 
C 131.058276 248.512675 151.715266 256.65291 173.396649 258.934455 
C 195.078032 261.216 216.976983 257.553952 236.736447 248.342469 
C 256.49591 239.130986 273.380581 224.712853 285.573107 206.639941 
C 297.765633 188.56703 304.812295 167.511883 305.954639 145.740735 
C 307.096982 123.969587 302.292498 102.292605 292.058307 83.042951 
C 281.824117 63.793298 266.541063 47.687307 247.854112 36.45852 
C 229.16716 25.229733 207.771705 19.296004 185.970608 19.296 
L 185.970585 139.445107 
L 74.562776 184.435197 
z
" style="fill: #ff0000"/>
   </g>
   <g id="matplotlib.axis_1"/>
   <g id="matplotlib.axis_2"/>
  </g>
 </g>
</svg>
