<?xml version="1.0" encoding="utf-8" standalone="no"?>
<!DOCTYPE svg PUBLIC "-//W3C//DTD SVG 1.1//EN"
  "http://www.w3.org/Graphics/SVG/1.1/DTD/svg11.dtd">
<svg xmlns:xlink="http://www.w3.org/1999/xlink" width="371.52pt" height="280.512pt" viewBox="0 0 371.52 280.512" xmlns="http://www.w3.org/2000/svg" version="1.1">
 <metadata>
  <rdf:RDF xmlns:dc="http://purl.org/dc/elements/1.1/" xmlns:cc="http://creativecommons.org/ns#" xmlns:rdf="http://www.w3.org/1999/02/22-rdf-syntax-ns#">
   <cc:Work>
    <dc:type rdf:resource="http://purl.org/dc/dcmitype/StillImage"/>
    <dc:date>2022-01-14T17:15:33.901934</dc:date>
    <dc:format>image/svg+xml</dc:format>
    <dc:creator>
     <cc:Agent>
      <dc:title>Matplotlib v3.5.1, https://matplotlib.org/</dc:title>
     </cc:Agent>
    </dc:creator>
   </cc:Work>
  </rdf:RDF>
 </metadata>
 <defs>
  <style type="text/css">*{stroke-linejoin: round; stroke-linecap: butt}</style>
 </defs>
 <g id="figure_1">
  <g id="patch_1">
   <path d="M 0 280.512 
L 371.52 280.512 
L 371.52 0 
L 0 0 
L 0 280.512 
z
" style="fill: none"/>
  </g>
  <g id="axes_1">
   <g id="patch_2">
    <path d="M 185.771935 19.296 
C 164.513865 19.296 143.626887 24.901092 125.224881 35.544009 
C 106.822874 46.186926 91.548309 61.496092 80.947057 79.922133 
C 70.345805 98.348174 64.787987 119.247781 64.836088 140.505797 
C 64.884188 161.763812 70.536526 182.638054 81.221054 201.015932 
L 185.771935 140.232157 
L 185.771935 19.296 
z
" style="fill: #0000ff; stroke: #000000; stroke-width: 2; stroke-linejoin: miter"/>
   </g>
   <g id="patch_3">
    <path d="M 81.221054 201.015932 
C 91.88227 219.353713 107.182747 234.567884 125.580542 245.1252 
C 143.978337 255.682515 164.833939 261.216 186.045574 261.168005 
C 207.25721 261.12001 228.087557 255.492202 246.437389 244.851739 
C 264.78722 234.211276 280.018691 218.928021 290.596814 200.542181 
C 301.174936 182.156342 306.732013 161.307013 306.708015 140.095337 
C 306.684017 118.883662 301.07978 98.04696 290.460083 79.685103 
C 279.840386 61.323245 264.574373 46.074493 246.200513 35.475577 
C 227.826653 24.876661 206.983624 19.296 185.771935 19.296 
L 185.771935 140.232157 
L 81.221054 201.015932 
z
" style="fill: #ff0000; stroke: #000000; stroke-width: 2; stroke-linejoin: miter"/>
   </g>
   <g id="matplotlib.axis_1"/>
   <g id="matplotlib.axis_2"/>
  </g>
 </g>
</svg>
