<?xml version="1.0" encoding="utf-8" standalone="no"?>
<!DOCTYPE svg PUBLIC "-//W3C//DTD SVG 1.1//EN"
  "http://www.w3.org/Graphics/SVG/1.1/DTD/svg11.dtd">
<svg xmlns:xlink="http://www.w3.org/1999/xlink" width="371.52pt" height="280.512pt" viewBox="0 0 371.52 280.512" xmlns="http://www.w3.org/2000/svg" version="1.1">
 <metadata>
  <rdf:RDF xmlns:dc="http://purl.org/dc/elements/1.1/" xmlns:cc="http://creativecommons.org/ns#" xmlns:rdf="http://www.w3.org/1999/02/22-rdf-syntax-ns#">
   <cc:Work>
    <dc:type rdf:resource="http://purl.org/dc/dcmitype/StillImage"/>
    <dc:date>2022-01-14T17:15:34.822349</dc:date>
    <dc:format>image/svg+xml</dc:format>
    <dc:creator>
     <cc:Agent>
      <dc:title>Matplotlib v3.5.1, https://matplotlib.org/</dc:title>
     </cc:Agent>
    </dc:creator>
   </cc:Work>
  </rdf:RDF>
 </metadata>
 <defs>
  <style type="text/css">*{stroke-linejoin: round; stroke-linecap: butt}</style>
 </defs>
 <g id="figure_1">
  <g id="patch_1">
   <path d="M 0 280.512 
L 371.52 280.512 
L 371.52 0 
L 0 0 
L 0 280.512 
z
" style="fill: none"/>
  </g>
  <g id="axes_1">
   <g id="patch_2">
    <path d="M 186.236604 19.296 
C 163.014433 19.296 140.282947 26.029373 120.807195 38.677073 
C 101.331443 51.324773 85.934472 69.352308 76.489163 90.566817 
C 67.043853 111.781325 63.949365 135.28628 67.582111 158.222548 
C 71.214856 181.158816 81.421315 202.557109 96.959978 219.814547 
L 186.236604 139.429535 
L 186.236604 19.296 
z
" style="fill: #0000ff; stroke: #000000; stroke-width: 2; stroke-linejoin: miter"/>
   </g>
   <g id="patch_3">
    <path d="M 96.959978 219.814547 
C 110.356638 234.693049 127.262569 245.989235 146.13519 252.672383 
C 165.007811 259.355532 185.255106 261.216 205.029612 258.084029 
C 224.804117 254.952058 243.485525 246.925895 259.369252 234.737887 
C 275.252978 222.549879 287.840765 206.582352 295.984041 188.292263 
C 304.127317 170.002174 307.570635 149.963265 305.999809 130.003986 
C 304.428983 110.044708 297.893289 90.791162 286.989075 74.00014 
C 276.084862 57.209117 261.154185 43.407336 243.559392 33.854139 
C 225.964599 24.300942 206.257623 19.296004 186.236627 19.296 
L 186.236604 139.429535 
L 96.959978 219.814547 
z
" style="fill: #ff0000; stroke: #000000; stroke-width: 2; stroke-linejoin: miter"/>
   </g>
   <g id="matplotlib.axis_1"/>
   <g id="matplotlib.axis_2"/>
  </g>
 </g>
</svg>
