<?xml version="1.0" encoding="utf-8" standalone="no"?>
<!DOCTYPE svg PUBLIC "-//W3C//DTD SVG 1.1//EN"
  "http://www.w3.org/Graphics/SVG/1.1/DTD/svg11.dtd">
<svg xmlns:xlink="http://www.w3.org/1999/xlink" width="371.52pt" height="280.512pt" viewBox="0 0 371.52 280.512" xmlns="http://www.w3.org/2000/svg" version="1.1">
 <metadata>
  <rdf:RDF xmlns:dc="http://purl.org/dc/elements/1.1/" xmlns:cc="http://creativecommons.org/ns#" xmlns:rdf="http://www.w3.org/1999/02/22-rdf-syntax-ns#">
   <cc:Work>
    <dc:type rdf:resource="http://purl.org/dc/dcmitype/StillImage"/>
    <dc:date>2021-11-24T20:23:21.542147</dc:date>
    <dc:format>image/svg+xml</dc:format>
    <dc:creator>
     <cc:Agent>
      <dc:title>Matplotlib v3.5.0, https://matplotlib.org/</dc:title>
     </cc:Agent>
    </dc:creator>
   </cc:Work>
  </rdf:RDF>
 </metadata>
 <defs>
  <style type="text/css">*{stroke-linejoin: round; stroke-linecap: butt}</style>
 </defs>
 <g id="figure_1">
  <g id="patch_1">
   <path d="M 0 280.512 
L 371.52 280.512 
L 371.52 0 
L 0 0 
L 0 280.512 
z
" style="fill: none"/>
  </g>
  <g id="axes_1">
   <g id="patch_2">
    <path d="M 186.240135 19.296004 
C 162.345887 19.296004 138.985626 26.420034 119.157667 39.753717 
C 99.329707 53.0874 83.920277 72.034775 74.907192 94.163928 
C 65.894108 116.293081 63.680217 140.614928 68.549675 164.007736 
C 73.419133 187.400544 85.154295 208.81875 102.248941 225.513306 
L 186.240135 139.509235 
L 186.240135 19.296004 
z
" style="fill: #0000ff"/>
   </g>
   <g id="patch_3">
    <path d="M 102.248941 225.513306 
C 116.348522 239.282895 133.620231 249.376275 152.537735 254.901475 
C 171.455239 260.426676 191.444366 261.216 210.738642 257.199694 
C 230.032918 253.183387 248.046735 244.48335 263.18818 231.868421 
C 278.329625 219.253492 290.139135 203.106551 297.573082 184.854531 
C 305.007029 166.602511 307.839783 146.799387 305.821009 127.195195 
C 303.802234 107.591003 296.993204 88.780757 285.995644 72.426753 
C 274.998083 56.072748 260.145784 42.671351 242.75127 33.406866 
C 225.356756 24.142382 205.947974 19.296 186.240112 19.296004 
L 186.240135 139.509235 
L 102.248941 225.513306 
z
" style="fill: #bf00bf"/>
   </g>
   <g id="matplotlib.axis_1"/>
   <g id="matplotlib.axis_2"/>
  </g>
 </g>
</svg>
