<?xml version="1.0" encoding="utf-8" standalone="no"?>
<!DOCTYPE svg PUBLIC "-//W3C//DTD SVG 1.1//EN"
  "http://www.w3.org/Graphics/SVG/1.1/DTD/svg11.dtd">
<svg xmlns:xlink="http://www.w3.org/1999/xlink" width="371.52pt" height="280.512pt" viewBox="0 0 371.52 280.512" xmlns="http://www.w3.org/2000/svg" version="1.1">
 <metadata>
  <rdf:RDF xmlns:dc="http://purl.org/dc/elements/1.1/" xmlns:cc="http://creativecommons.org/ns#" xmlns:rdf="http://www.w3.org/1999/02/22-rdf-syntax-ns#">
   <cc:Work>
    <dc:type rdf:resource="http://purl.org/dc/dcmitype/StillImage"/>
    <dc:date>2021-12-10T18:13:00.778749</dc:date>
    <dc:format>image/svg+xml</dc:format>
    <dc:creator>
     <cc:Agent>
      <dc:title>Matplotlib v3.5.0, https://matplotlib.org/</dc:title>
     </cc:Agent>
    </dc:creator>
   </cc:Work>
  </rdf:RDF>
 </metadata>
 <defs>
  <style type="text/css">*{stroke-linejoin: round; stroke-linecap: butt}</style>
 </defs>
 <g id="figure_1">
  <g id="patch_1">
   <path d="M 0 280.512 
L 371.52 280.512 
L 371.52 0 
L 0 0 
L 0 280.512 
z
" style="fill: none"/>
  </g>
  <g id="axes_1">
   <g id="patch_2">
    <path d="M 185.978646 19.296008 
C 166.198673 19.296008 146.721206 24.178908 129.280476 33.509946 
C 111.839746 42.840984 96.969214 56.33475 85.99292 72.789788 
C 75.016626 89.244827 68.270303 108.157827 66.354629 127.844815 
C 64.438954 147.531804 67.412523 167.390614 75.010575 185.65306 
L 185.978646 139.485026 
L 185.978646 19.296008 
z
" style="fill: #0000ff"/>
   </g>
   <g id="patch_3">
    <path d="M 75.010575 185.65306 
C 83.367301 205.73903 97.022845 223.184171 114.514372 236.119687 
C 132.005898 249.055204 152.685691 257.00209 174.338446 259.109045 
C 195.991202 261.216 217.815113 257.405002 237.472316 248.0843 
C 257.129518 238.763597 273.892099 224.27834 285.964384 206.180246 
C 298.03667 188.082151 304.971619 167.041398 306.026333 145.311956 
C 307.081046 123.582514 302.216468 101.969029 291.953711 82.786827 
C 281.690953 63.604624 266.41005 47.564025 247.747952 36.383363 
C 229.085855 25.202702 207.733626 19.296 185.978601 19.296008 
L 185.978646 139.485026 
L 75.010575 185.65306 
z
" style="fill: #ff0000"/>
   </g>
   <g id="matplotlib.axis_1"/>
   <g id="matplotlib.axis_2"/>
  </g>
 </g>
</svg>
