<?xml version="1.0" encoding="utf-8" standalone="no"?>
<!DOCTYPE svg PUBLIC "-//W3C//DTD SVG 1.1//EN"
  "http://www.w3.org/Graphics/SVG/1.1/DTD/svg11.dtd">
<svg xmlns:xlink="http://www.w3.org/1999/xlink" width="371.52pt" height="280.512pt" viewBox="0 0 371.52 280.512" xmlns="http://www.w3.org/2000/svg" version="1.1">
 <metadata>
  <rdf:RDF xmlns:dc="http://purl.org/dc/elements/1.1/" xmlns:cc="http://creativecommons.org/ns#" xmlns:rdf="http://www.w3.org/1999/02/22-rdf-syntax-ns#">
   <cc:Work>
    <dc:type rdf:resource="http://purl.org/dc/dcmitype/StillImage"/>
    <dc:date>2021-12-03T16:09:56.210311</dc:date>
    <dc:format>image/svg+xml</dc:format>
    <dc:creator>
     <cc:Agent>
      <dc:title>Matplotlib v3.5.0, https://matplotlib.org/</dc:title>
     </cc:Agent>
    </dc:creator>
   </cc:Work>
  </rdf:RDF>
 </metadata>
 <defs>
  <style type="text/css">*{stroke-linejoin: round; stroke-linecap: butt}</style>
 </defs>
 <g id="figure_1">
  <g id="patch_1">
   <path d="M 0 280.512 
L 371.52 280.512 
L 371.52 0 
L 0 0 
L 0 280.512 
z
" style="fill: none"/>
  </g>
  <g id="axes_1">
   <g id="patch_2">
    <path d="M 185.897756 19.296003 
C 154.263004 19.296003 123.862358 31.731419 101.296586 53.902199 
C 78.730814 76.072979 65.760548 106.249311 65.201967 137.879131 
C 64.643386 169.508952 76.540074 200.124433 98.308949 223.07816 
C 120.077825 246.031887 150.020434 259.532961 181.635461 260.649948 
L 185.897756 140.010611 
L 185.897756 19.296003 
z
" style="fill: #0000ff"/>
   </g>
   <g id="patch_3">
    <path d="M 181.635461 260.649948 
C 197.656916 261.216 213.631791 258.584839 228.6254 252.910412 
C 243.61901 247.235986 257.333115 238.631165 268.965309 227.599414 
C 280.597502 216.567663 289.916406 203.328417 296.376776 188.656298 
C 302.837145 173.984179 306.310476 158.171032 306.593545 142.14208 
C 306.876614 126.113127 303.96379 110.187202 298.025502 95.296125 
C 292.087213 80.405048 283.24158 66.845019 272.006156 55.409429 
C 260.770733 43.97384 247.369004 34.890158 232.5851 28.689865 
C 217.801196 22.489572 201.929185 19.296 185.897733 19.296003 
L 185.897756 140.010611 
L 181.635461 260.649948 
z
" style="fill: #bf00bf"/>
   </g>
   <g id="matplotlib.axis_1"/>
   <g id="matplotlib.axis_2"/>
  </g>
 </g>
</svg>
