<?xml version="1.0" encoding="utf-8" standalone="no"?>
<!DOCTYPE svg PUBLIC "-//W3C//DTD SVG 1.1//EN"
  "http://www.w3.org/Graphics/SVG/1.1/DTD/svg11.dtd">
<svg xmlns:xlink="http://www.w3.org/1999/xlink" width="577.7847pt" height="574.14996pt" viewBox="0 0 577.7847 574.14996" xmlns="http://www.w3.org/2000/svg" version="1.1">
 <metadata>
  <rdf:RDF xmlns:dc="http://purl.org/dc/elements/1.1/" xmlns:cc="http://creativecommons.org/ns#" xmlns:rdf="http://www.w3.org/1999/02/22-rdf-syntax-ns#">
   <cc:Work>
    <dc:type rdf:resource="http://purl.org/dc/dcmitype/StillImage"/>
    <dc:date>2021-12-14T09:20:46.770516</dc:date>
    <dc:format>image/svg+xml</dc:format>
    <dc:creator>
     <cc:Agent>
      <dc:title>Matplotlib v3.5.0, https://matplotlib.org/</dc:title>
     </cc:Agent>
    </dc:creator>
   </cc:Work>
  </rdf:RDF>
 </metadata>
 <defs>
  <style type="text/css">*{stroke-linejoin: round; stroke-linecap: butt}</style>
 </defs>
 <g id="figure_1">
  <g id="patch_1">
   <path d="M 0 574.14996 
L 577.7847 574.14996 
L 577.7847 0 
L 0 0 
L 0 574.14996 
z
" style="fill: none"/>
  </g>
  <g id="axes_1">
   <g id="patch_2">
    <path d="M 289.183615 31.322169 
C 222.296405 31.322169 158.018537 57.615097 110.306403 104.492077 
C 62.59427 151.369057 35.170475 215.172645 33.989435 282.049427 
C 32.808395 348.92621 57.962258 413.658316 103.989468 462.190727 
C 150.016678 510.723137 213.326092 539.269249 280.171595 541.63096 
L 289.183615 286.55614 
L 289.183615 31.322169 
z
" style="fill: #0000ff"/>
   </g>
   <g id="patch_3">
    <path d="M 280.171595 541.63096 
C 314.046697 542.827797 347.82331 537.264579 379.525178 525.266806 
C 411.227046 513.269034 440.223582 495.075356 464.81821 471.750279 
C 489.412839 448.425202 509.116344 420.432687 522.775882 389.410566 
C 536.43542 358.388445 543.779287 324.953783 544.377796 291.062829 
C 544.976305 257.171875 538.81755 223.498759 526.26188 192.013682 
C 513.706209 160.528604 495.003368 131.85784 471.247653 107.678903 
C 447.491938 83.499966 419.155877 64.293804 387.897403 51.184162 
C 356.638928 38.07452 323.079806 31.322163 289.183567 31.322169 
L 289.183615 286.55614 
L 280.171595 541.63096 
z
" style="fill: #ff0000"/>
   </g>
   <g id="matplotlib.axis_1"/>
   <g id="matplotlib.axis_2"/>
  </g>
 </g>
</svg>
