<?xml version="1.0" encoding="utf-8" standalone="no"?>
<!DOCTYPE svg PUBLIC "-//W3C//DTD SVG 1.1//EN"
  "http://www.w3.org/Graphics/SVG/1.1/DTD/svg11.dtd">
<svg xmlns:xlink="http://www.w3.org/1999/xlink" width="56.04075pt" height="55.7721pt" viewBox="0 0 56.04075 55.7721" xmlns="http://www.w3.org/2000/svg" version="1.1">
 <metadata>
  <rdf:RDF xmlns:dc="http://purl.org/dc/elements/1.1/" xmlns:cc="http://creativecommons.org/ns#" xmlns:rdf="http://www.w3.org/1999/02/22-rdf-syntax-ns#">
   <cc:Work>
    <dc:type rdf:resource="http://purl.org/dc/dcmitype/StillImage"/>
    <dc:date>2022-01-14T17:05:44.131125</dc:date>
    <dc:format>image/svg+xml</dc:format>
    <dc:creator>
     <cc:Agent>
      <dc:title>Matplotlib v3.5.1, https://matplotlib.org/</dc:title>
     </cc:Agent>
    </dc:creator>
   </cc:Work>
  </rdf:RDF>
 </metadata>
 <defs>
  <style type="text/css">*{stroke-linejoin: round; stroke-linecap: butt}</style>
 </defs>
 <g id="figure_1">
  <g id="patch_1">
   <path d="M 0 55.7721 
L 56.04075 55.7721 
L 56.04075 0 
L 0 0 
L 0 55.7721 
z
" style="fill: none"/>
  </g>
  <g id="axes_1">
   <g id="patch_2">
    <path d="M 28.144406 9.080551 
C 23.994569 9.080551 19.959954 10.458707 16.677329 12.99751 
C 13.394705 15.536312 11.046356 19.094781 10.002916 23.111294 
C 8.959476 27.127807 9.278887 31.379326 10.910738 35.194848 
C 12.542588 39.01037 15.39626 42.178018 19.021369 44.197851 
L 28.144406 27.824226 
L 28.144406 9.080551 
z
" style="fill: #0000ff; stroke: #000000; stroke-linejoin: miter"/>
   </g>
   <g id="patch_3">
    <path d="M 19.021369 44.197851 
C 21.522226 45.591276 24.309398 46.393395 27.168364 46.542472 
C 30.027331 46.69155 32.882812 46.18366 35.515028 45.057895 
C 38.147245 43.932129 40.486888 42.218129 42.353881 40.047819 
C 44.220875 37.877508 45.566058 35.308032 46.285896 32.537158 
C 47.005735 29.766283 47.081274 26.86697 46.5067 24.06237 
C 45.932125 21.257771 44.722567 18.621734 42.971121 16.357148 
C 41.219675 14.092561 38.97246 12.259055 36.402436 10.99775 
C 33.832413 9.736444 31.007253 9.08055 28.144402 9.080551 
L 28.144406 27.824226 
L 19.021369 44.197851 
z
" style="fill: #ff0000; stroke: #000000; stroke-linejoin: miter"/>
   </g>
   <g id="matplotlib.axis_1"/>
   <g id="matplotlib.axis_2"/>
  </g>
 </g>
</svg>
