<?xml version="1.0" encoding="utf-8" standalone="no"?>
<!DOCTYPE svg PUBLIC "-//W3C//DTD SVG 1.1//EN"
  "http://www.w3.org/Graphics/SVG/1.1/DTD/svg11.dtd">
<svg xmlns:xlink="http://www.w3.org/1999/xlink" width="49.4703pt" height="49.24404pt" viewBox="0 0 49.4703 49.24404" xmlns="http://www.w3.org/2000/svg" version="1.1">
 <metadata>
  <rdf:RDF xmlns:dc="http://purl.org/dc/elements/1.1/" xmlns:cc="http://creativecommons.org/ns#" xmlns:rdf="http://www.w3.org/1999/02/22-rdf-syntax-ns#">
   <cc:Work>
    <dc:type rdf:resource="http://purl.org/dc/dcmitype/StillImage"/>
    <dc:date>2022-01-14T17:05:45.151066</dc:date>
    <dc:format>image/svg+xml</dc:format>
    <dc:creator>
     <cc:Agent>
      <dc:title>Matplotlib v3.5.1, https://matplotlib.org/</dc:title>
     </cc:Agent>
    </dc:creator>
   </cc:Work>
  </rdf:RDF>
 </metadata>
 <defs>
  <style type="text/css">*{stroke-linejoin: round; stroke-linecap: butt}</style>
 </defs>
 <g id="figure_1">
  <g id="patch_1">
   <path d="M 0 49.24404 
L 49.4703 49.24404 
L 49.4703 0 
L 0 0 
L 0 49.24404 
z
" style="fill: none"/>
  </g>
  <g id="axes_1">
   <g id="patch_2">
    <path d="M 24.702859 8.78382 
C 22.578375 8.78382 20.475421 9.209339 18.519323 10.035019 
C 16.563225 10.860699 14.793629 12.069805 13.315994 13.590279 
C 11.838358 15.110754 10.682633 16.91178 9.917694 18.886025 
C 9.152754 20.86027 8.794105 22.96772 8.863118 25.082782 
C 8.932131 27.197843 9.42741 29.277647 10.319436 31.198248 
C 11.211462 33.118849 12.482158 34.84132 14.055794 36.26301 
C 15.629431 37.684699 17.474114 38.776793 19.47991 39.474207 
C 21.485706 40.171621 23.611962 40.46022 25.731961 40.322805 
L 24.702859 24.569971 
L 24.702859 8.78382 
z
" style="fill: #0000ff; stroke: #000000; stroke-linejoin: miter"/>
   </g>
   <g id="patch_3">
    <path d="M 25.731961 40.322805 
C 29.835867 40.056797 33.678871 38.20976 36.441787 35.175414 
C 39.204702 32.141069 40.676195 28.151509 40.542599 24.057162 
C 40.409003 19.962815 38.680536 16.076854 35.725642 13.227621 
C 32.770749 10.378389 28.815448 8.783821 24.702862 8.78382 
L 24.702859 24.569971 
L 25.731961 40.322805 
z
" style="fill: #ff0000; stroke: #000000; stroke-linejoin: miter"/>
   </g>
   <g id="matplotlib.axis_1"/>
   <g id="matplotlib.axis_2"/>
  </g>
 </g>
</svg>
