<?xml version="1.0" encoding="utf-8" standalone="no"?>
<!DOCTYPE svg PUBLIC "-//W3C//DTD SVG 1.1//EN"
  "http://www.w3.org/Graphics/SVG/1.1/DTD/svg11.dtd">
<svg xmlns:xlink="http://www.w3.org/1999/xlink" width="371.52pt" height="280.512pt" viewBox="0 0 371.52 280.512" xmlns="http://www.w3.org/2000/svg" version="1.1">
 <metadata>
  <rdf:RDF xmlns:dc="http://purl.org/dc/elements/1.1/" xmlns:cc="http://creativecommons.org/ns#" xmlns:rdf="http://www.w3.org/1999/02/22-rdf-syntax-ns#">
   <cc:Work>
    <dc:type rdf:resource="http://purl.org/dc/dcmitype/StillImage"/>
    <dc:date>2021-12-03T16:09:58.451062</dc:date>
    <dc:format>image/svg+xml</dc:format>
    <dc:creator>
     <cc:Agent>
      <dc:title>Matplotlib v3.5.0, https://matplotlib.org/</dc:title>
     </cc:Agent>
    </dc:creator>
   </cc:Work>
  </rdf:RDF>
 </metadata>
 <defs>
  <style type="text/css">*{stroke-linejoin: round; stroke-linecap: butt}</style>
 </defs>
 <g id="figure_1">
  <g id="patch_1">
   <path d="M 0 280.512 
L 371.52 280.512 
L 371.52 0 
L 0 0 
L 0 280.512 
z
" style="fill: none"/>
  </g>
  <g id="axes_1">
   <g id="patch_2">
    <path d="M 185.514347 19.296 
C 169.352605 19.296 153.354643 22.545791 138.47387 28.8517 
C 123.593096 35.157609 110.131109 44.391829 98.890184 56.004043 
C 87.649258 67.616256 78.857222 81.37111 73.03804 96.448877 
C 67.218859 111.526643 64.490474 127.62173 65.015486 143.774943 
C 65.540497 159.928155 69.308264 175.812104 76.094244 190.480178 
C 82.880224 205.148252 92.546881 218.303162 104.518126 229.160934 
C 116.48937 240.018706 130.522572 248.359278 145.781417 253.68559 
C 161.040261 259.011901 177.215484 261.216 193.343117 260.166531 
L 185.514347 139.858491 
L 185.514347 19.296 
z
" style="fill: #0000ff"/>
   </g>
   <g id="patch_3">
    <path d="M 193.343117 260.166531 
C 224.563075 258.134964 253.798251 244.028716 274.816786 220.854716 
C 295.835322 197.680717 307.029526 167.211527 306.013209 135.94205 
C 304.996892 104.672573 291.847791 74.994587 269.368808 53.234339 
C 246.889824 31.474091 216.800358 19.296006 185.51437 19.296 
L 185.514347 139.858491 
L 193.343117 260.166531 
z
" style="fill: #bf00bf"/>
   </g>
   <g id="matplotlib.axis_1"/>
   <g id="matplotlib.axis_2"/>
  </g>
 </g>
</svg>
