<?xml version="1.0" encoding="utf-8" standalone="no"?>
<!DOCTYPE svg PUBLIC "-//W3C//DTD SVG 1.1//EN"
  "http://www.w3.org/Graphics/SVG/1.1/DTD/svg11.dtd">
<svg xmlns:xlink="http://www.w3.org/1999/xlink" width="56.98935pt" height="56.71458pt" viewBox="0 0 56.98935 56.71458" xmlns="http://www.w3.org/2000/svg" version="1.1">
 <metadata>
  <rdf:RDF xmlns:dc="http://purl.org/dc/elements/1.1/" xmlns:cc="http://creativecommons.org/ns#" xmlns:rdf="http://www.w3.org/1999/02/22-rdf-syntax-ns#">
   <cc:Work>
    <dc:type rdf:resource="http://purl.org/dc/dcmitype/StillImage"/>
    <dc:date>2021-12-14T09:20:49.510915</dc:date>
    <dc:format>image/svg+xml</dc:format>
    <dc:creator>
     <cc:Agent>
      <dc:title>Matplotlib v3.5.0, https://matplotlib.org/</dc:title>
     </cc:Agent>
    </dc:creator>
   </cc:Work>
  </rdf:RDF>
 </metadata>
 <defs>
  <style type="text/css">*{stroke-linejoin: round; stroke-linecap: butt}</style>
 </defs>
 <g id="figure_1">
  <g id="patch_1">
   <path d="M 0 56.71458 
L 56.98935 56.71458 
L 56.98935 0 
L 0 0 
L 0 56.71458 
z
" style="fill: none"/>
  </g>
  <g id="axes_1">
   <g id="patch_2">
    <path d="M 28.373206 9.12339 
C 25.6696 9.12339 22.996717 9.701826 20.532751 10.820137 
C 18.068784 11.938447 15.869734 13.571214 14.082204 15.609587 
C 12.294674 17.64796 10.95929 20.045612 10.165079 22.642698 
C 9.370868 25.239783 9.13588 27.977278 9.47578 30.67268 
C 9.815681 33.368083 10.722745 35.960134 12.136502 38.276029 
C 13.550259 40.591924 15.438577 42.579029 17.675568 44.104869 
C 19.912558 45.630708 22.447381 46.660605 25.111046 47.125897 
C 27.77471 47.59119 30.506679 47.481304 33.12482 46.803566 
L 28.373206 28.266043 
L 28.373206 9.12339 
z
" style="fill: #0000ff"/>
   </g>
   <g id="patch_3">
    <path d="M 33.12482 46.803566 
C 37.614234 45.641425 41.530632 42.871312 44.134181 39.016521 
C 46.73773 35.161731 47.85347 30.481304 47.270631 25.859406 
C 46.687792 21.237508 44.445541 16.984731 40.967453 13.904452 
C 37.489366 10.824174 33.00917 9.12339 28.373206 9.12339 
L 28.373206 28.266043 
L 33.12482 46.803566 
z
" style="fill: #ff0000"/>
   </g>
   <g id="matplotlib.axis_1"/>
   <g id="matplotlib.axis_2"/>
  </g>
 </g>
</svg>
