<?xml version="1.0" encoding="utf-8" standalone="no"?>
<!DOCTYPE svg PUBLIC "-//W3C//DTD SVG 1.1//EN"
  "http://www.w3.org/Graphics/SVG/1.1/DTD/svg11.dtd">
<svg xmlns:xlink="http://www.w3.org/1999/xlink" width="371.52pt" height="280.512pt" viewBox="0 0 371.52 280.512" xmlns="http://www.w3.org/2000/svg" version="1.1">
 <metadata>
  <rdf:RDF xmlns:dc="http://purl.org/dc/elements/1.1/" xmlns:cc="http://creativecommons.org/ns#" xmlns:rdf="http://www.w3.org/1999/02/22-rdf-syntax-ns#">
   <cc:Work>
    <dc:type rdf:resource="http://purl.org/dc/dcmitype/StillImage"/>
    <dc:date>2021-12-03T16:09:59.406516</dc:date>
    <dc:format>image/svg+xml</dc:format>
    <dc:creator>
     <cc:Agent>
      <dc:title>Matplotlib v3.5.0, https://matplotlib.org/</dc:title>
     </cc:Agent>
    </dc:creator>
   </cc:Work>
  </rdf:RDF>
 </metadata>
 <defs>
  <style type="text/css">*{stroke-linejoin: round; stroke-linecap: butt}</style>
 </defs>
 <g id="figure_1">
  <g id="patch_1">
   <path d="M 0 280.512 
L 371.52 280.512 
L 371.52 0 
L 0 0 
L 0 280.512 
z
" style="fill: none"/>
  </g>
  <g id="axes_1">
   <g id="patch_2">
    <path d="M 184.992319 19.296 
C 167.90564 19.296 151.013129 22.933727 135.44096 29.966663 
C 119.868792 36.999599 105.970882 47.267905 94.673765 60.087022 
C 83.376647 72.906138 74.937076 87.98472 69.917693 104.317522 
C 64.89831 120.650324 63.413194 137.866143 65.561351 154.81725 
C 67.709509 171.768357 73.442119 188.069497 82.377005 202.633921 
C 91.311891 217.198344 103.245986 229.695039 117.383678 239.290886 
C 131.52137 248.886734 147.541345 255.363645 164.375599 258.289822 
C 181.209853 261.216 198.475785 260.52494 215.022327 256.262713 
L 184.992319 139.682158 
L 184.992319 19.296 
z
" style="fill: #0000ff"/>
   </g>
   <g id="patch_3">
    <path d="M 215.022327 256.262713 
C 243.395243 248.954128 268.146722 231.53318 284.601047 207.2908 
C 301.055372 183.04842 308.106806 153.613706 304.423287 124.547067 
C 300.739768 95.480428 286.56883 68.735155 264.587456 49.363604 
C 242.606082 29.992053 214.291429 19.296 184.992319 19.296 
L 184.992319 139.682158 
L 215.022327 256.262713 
z
" style="fill: #bf00bf"/>
   </g>
   <g id="matplotlib.axis_1"/>
   <g id="matplotlib.axis_2"/>
  </g>
 </g>
</svg>
