<?xml version="1.0" encoding="utf-8" standalone="no"?>
<!DOCTYPE svg PUBLIC "-//W3C//DTD SVG 1.1//EN"
  "http://www.w3.org/Graphics/SVG/1.1/DTD/svg11.dtd">
<svg xmlns:xlink="http://www.w3.org/1999/xlink" width="371.52pt" height="280.512pt" viewBox="0 0 371.52 280.512" xmlns="http://www.w3.org/2000/svg" version="1.1">
 <metadata>
  <rdf:RDF xmlns:dc="http://purl.org/dc/elements/1.1/" xmlns:cc="http://creativecommons.org/ns#" xmlns:rdf="http://www.w3.org/1999/02/22-rdf-syntax-ns#">
   <cc:Work>
    <dc:type rdf:resource="http://purl.org/dc/dcmitype/StillImage"/>
    <dc:date>2021-12-03T16:10:00.327230</dc:date>
    <dc:format>image/svg+xml</dc:format>
    <dc:creator>
     <cc:Agent>
      <dc:title>Matplotlib v3.5.0, https://matplotlib.org/</dc:title>
     </cc:Agent>
    </dc:creator>
   </cc:Work>
  </rdf:RDF>
 </metadata>
 <defs>
  <style type="text/css">*{stroke-linejoin: round; stroke-linecap: butt}</style>
 </defs>
 <g id="figure_1">
  <g id="patch_1">
   <path d="M 0 280.512 
L 371.52 280.512 
L 371.52 0 
L 0 0 
L 0 280.512 
z
" style="fill: none"/>
  </g>
  <g id="axes_1">
   <g id="patch_2">
    <path d="M 186.219801 19.296 
C 155.65796 19.296 126.214003 30.932534 103.909405 51.82586 
C 81.604806 72.719185 68.071271 101.340837 66.076493 131.837509 
C 64.081715 162.334182 73.771623 192.474871 93.16457 216.09562 
C 112.557517 239.716369 140.2348 255.089186 170.536243 259.070235 
L 186.219801 139.696046 
L 186.219801 19.296 
z
" style="fill: #0000ff"/>
   </g>
   <g id="patch_3">
    <path d="M 170.536243 259.070235 
C 186.868565 261.216 203.468828 259.987322 219.307269 255.460421 
C 235.14571 250.93352 249.887913 243.203976 262.619376 232.751277 
C 275.350839 222.298578 285.802746 209.343424 293.326736 194.689461 
C 300.850725 180.035498 305.287934 163.992133 306.363109 147.554583 
C 307.438285 131.117033 305.128724 114.632363 299.577697 99.123167 
C 294.026671 83.613972 285.351383 69.407714 274.089988 57.385649 
C 262.828592 45.363585 249.218865 35.77955 234.105057 29.228072 
C 218.99125 22.676593 202.692478 19.296 186.219801 19.296 
L 186.219801 139.696046 
L 170.536243 259.070235 
z
" style="fill: #bf00bf"/>
   </g>
   <g id="matplotlib.axis_1"/>
   <g id="matplotlib.axis_2"/>
  </g>
 </g>
</svg>
