<?xml version="1.0" encoding="utf-8" standalone="no"?>
<!DOCTYPE svg PUBLIC "-//W3C//DTD SVG 1.1//EN"
  "http://www.w3.org/Graphics/SVG/1.1/DTD/svg11.dtd">
<svg xmlns:xlink="http://www.w3.org/1999/xlink" width="158.32215pt" height="157.39362pt" viewBox="0 0 158.32215 157.39362" xmlns="http://www.w3.org/2000/svg" version="1.1">
 <metadata>
  <rdf:RDF xmlns:dc="http://purl.org/dc/elements/1.1/" xmlns:cc="http://creativecommons.org/ns#" xmlns:rdf="http://www.w3.org/1999/02/22-rdf-syntax-ns#">
   <cc:Work>
    <dc:type rdf:resource="http://purl.org/dc/dcmitype/StillImage"/>
    <dc:date>2021-12-14T09:20:50.394658</dc:date>
    <dc:format>image/svg+xml</dc:format>
    <dc:creator>
     <cc:Agent>
      <dc:title>Matplotlib v3.5.0, https://matplotlib.org/</dc:title>
     </cc:Agent>
    </dc:creator>
   </cc:Work>
  </rdf:RDF>
 </metadata>
 <defs>
  <style type="text/css">*{stroke-linejoin: round; stroke-linecap: butt}</style>
 </defs>
 <g id="figure_1">
  <g id="patch_1">
   <path d="M 0 157.39362 
L 158.32215 157.39362 
L 158.32215 0 
L 0 0 
L 0 157.39362 
z
" style="fill: none"/>
  </g>
  <g id="axes_1">
   <g id="patch_2">
    <path d="M 79.408283 13.69971 
C 62.977003 13.69971 47.146743 19.952529 35.15489 31.179427 
C 23.163037 42.406325 15.886862 57.78599 14.814389 74.173187 
C 13.741916 90.560383 18.951601 106.756294 29.378033 119.448756 
C 39.804464 132.141218 54.684889 140.401705 70.976168 142.540897 
L 79.408283 78.395922 
L 79.408283 13.69971 
z
" style="fill: #0000ff"/>
   </g>
   <g id="patch_3">
    <path d="M 70.976168 142.540897 
C 79.757084 143.69391 88.682056 143.033688 97.197442 140.601186 
C 105.712827 138.168683 113.638831 134.015262 120.483779 128.398569 
C 127.328727 122.781877 132.948095 115.820506 136.993296 107.94629 
C 141.038496 100.072075 143.424119 91.451273 144.002177 82.618658 
C 144.580234 73.786043 143.338521 64.928109 140.354065 56.59434 
C 137.369609 48.26057 132.705424 40.626926 126.650843 34.166945 
C 120.596262 27.706964 113.279123 22.557043 105.15333 19.036647 
C 97.027537 15.516251 88.264659 13.69971 79.408283 13.69971 
L 79.408283 78.395922 
L 70.976168 142.540897 
z
" style="fill: #ff0000"/>
   </g>
   <g id="matplotlib.axis_1"/>
   <g id="matplotlib.axis_2"/>
  </g>
 </g>
</svg>
