<?xml version="1.0" encoding="utf-8" standalone="no"?>
<!DOCTYPE svg PUBLIC "-//W3C//DTD SVG 1.1//EN"
  "http://www.w3.org/Graphics/SVG/1.1/DTD/svg11.dtd">
<svg xmlns:xlink="http://www.w3.org/1999/xlink" width="35.17155pt" height="35.03754pt" viewBox="0 0 35.17155 35.03754" xmlns="http://www.w3.org/2000/svg" version="1.1">
 <metadata>
  <rdf:RDF xmlns:dc="http://purl.org/dc/elements/1.1/" xmlns:cc="http://creativecommons.org/ns#" xmlns:rdf="http://www.w3.org/1999/02/22-rdf-syntax-ns#">
   <cc:Work>
    <dc:type rdf:resource="http://purl.org/dc/dcmitype/StillImage"/>
    <dc:date>2022-01-14T17:05:48.022792</dc:date>
    <dc:format>image/svg+xml</dc:format>
    <dc:creator>
     <cc:Agent>
      <dc:title>Matplotlib v3.5.1, https://matplotlib.org/</dc:title>
     </cc:Agent>
    </dc:creator>
   </cc:Work>
  </rdf:RDF>
 </metadata>
 <defs>
  <style type="text/css">*{stroke-linejoin: round; stroke-linecap: butt}</style>
 </defs>
 <g id="figure_1">
  <g id="patch_1">
   <path d="M -0 35.03754 
L 35.17155 35.03754 
L 35.17155 0 
L -0 0 
L -0 35.03754 
z
" style="fill: none"/>
  </g>
  <g id="axes_1">
   <g id="patch_2">
    <path d="M 17.557689 8.13807 
C 16.289196 8.13807 15.033835 8.395292 13.868007 8.894082 
C 12.702179 9.392872 11.650023 10.122902 10.775573 11.039743 
C 9.901122 11.956585 9.222483 13.041252 8.780958 14.227736 
C 8.339432 15.414219 8.144161 16.67795 8.20703 17.94202 
C 8.269899 19.20609 8.589604 20.444324 9.146691 21.581366 
C 9.703777 22.718408 10.486709 23.730713 11.447838 24.556674 
C 12.408967 25.382635 13.528391 26.005149 14.737985 26.386331 
C 15.947578 26.767513 17.222295 26.89947 18.484557 26.774171 
L 17.557689 17.479065 
L 17.557689 8.13807 
z
" style="fill: #0000ff; stroke: #000000; stroke-linejoin: miter"/>
   </g>
   <g id="patch_3">
    <path d="M 18.484557 26.774171 
C 20.87462 26.536921 23.083855 25.390861 24.651337 23.575101 
C 26.218819 21.759341 27.027389 19.409597 26.908348 17.016111 
C 26.789308 14.622624 25.751556 12.364292 24.011605 10.712284 
C 22.271653 9.060277 19.959552 8.13807 17.557689 8.13807 
L 17.557689 17.479065 
L 18.484557 26.774171 
z
" style="fill: #ff0000; stroke: #000000; stroke-linejoin: miter"/>
   </g>
   <g id="matplotlib.axis_1"/>
   <g id="matplotlib.axis_2"/>
  </g>
 </g>
</svg>
