<?xml version="1.0" encoding="utf-8" standalone="no"?>
<!DOCTYPE svg PUBLIC "-//W3C//DTD SVG 1.1//EN"
  "http://www.w3.org/Graphics/SVG/1.1/DTD/svg11.dtd">
<svg xmlns:xlink="http://www.w3.org/1999/xlink" width="371.52pt" height="280.512pt" viewBox="0 0 371.52 280.512" xmlns="http://www.w3.org/2000/svg" version="1.1">
 <metadata>
  <rdf:RDF xmlns:dc="http://purl.org/dc/elements/1.1/" xmlns:cc="http://creativecommons.org/ns#" xmlns:rdf="http://www.w3.org/1999/02/22-rdf-syntax-ns#">
   <cc:Work>
    <dc:type rdf:resource="http://purl.org/dc/dcmitype/StillImage"/>
    <dc:date>2021-12-03T16:10:03.161029</dc:date>
    <dc:format>image/svg+xml</dc:format>
    <dc:creator>
     <cc:Agent>
      <dc:title>Matplotlib v3.5.0, https://matplotlib.org/</dc:title>
     </cc:Agent>
    </dc:creator>
   </cc:Work>
  </rdf:RDF>
 </metadata>
 <defs>
  <style type="text/css">*{stroke-linejoin: round; stroke-linecap: butt}</style>
 </defs>
 <g id="figure_1">
  <g id="patch_1">
   <path d="M 0 280.512 
L 371.52 280.512 
L 371.52 0 
L 0 0 
L 0 280.512 
z
" style="fill: none"/>
  </g>
  <g id="axes_1">
   <g id="patch_2">
    <path d="M 186.576072 19.296 
C 157.542166 19.296 129.466655 29.802435 107.565718 48.863302 
C 85.664782 67.92417 71.384298 94.281091 67.377453 123.037184 
C 63.370608 151.793277 69.901931 181.050094 85.757959 205.371978 
C 101.613987 229.693862 125.747922 247.475108 153.675893 255.412118 
L 186.576072 139.646198 
L 186.576072 19.296 
z
" style="fill: #0000ff"/>
   </g>
   <g id="patch_3">
    <path d="M 153.675893 255.412118 
C 170.227712 260.116075 187.597489 261.216 204.610463 258.637504 
C 221.623437 256.059008 237.88722 249.861561 252.301852 240.464311 
C 266.716485 231.067062 278.949507 218.686748 288.173569 204.160682 
C 297.397632 189.634616 303.39999 173.297827 305.774691 156.255212 
C 308.149392 139.212597 306.841664 121.857228 301.939953 105.362891 
C 297.038242 88.868554 288.655601 73.615675 277.358968 60.635844 
C 266.062335 47.656013 252.112257 37.248597 236.452211 30.117476 
C 220.792165 22.986355 203.783336 19.296 186.576072 19.296 
L 186.576072 139.646198 
L 153.675893 255.412118 
z
" style="fill: #bf00bf"/>
   </g>
   <g id="matplotlib.axis_1"/>
   <g id="matplotlib.axis_2"/>
  </g>
 </g>
</svg>
