<?xml version="1.0" encoding="utf-8" standalone="no"?>
<!DOCTYPE svg PUBLIC "-//W3C//DTD SVG 1.1//EN"
  "http://www.w3.org/Graphics/SVG/1.1/DTD/svg11.dtd">
<svg xmlns:xlink="http://www.w3.org/1999/xlink" width="371.52pt" height="280.512pt" viewBox="0 0 371.52 280.512" xmlns="http://www.w3.org/2000/svg" version="1.1">
 <metadata>
  <rdf:RDF xmlns:dc="http://purl.org/dc/elements/1.1/" xmlns:cc="http://creativecommons.org/ns#" xmlns:rdf="http://www.w3.org/1999/02/22-rdf-syntax-ns#">
   <cc:Work>
    <dc:type rdf:resource="http://purl.org/dc/dcmitype/StillImage"/>
    <dc:date>2021-12-10T18:14:49.969126</dc:date>
    <dc:format>image/svg+xml</dc:format>
    <dc:creator>
     <cc:Agent>
      <dc:title>Matplotlib v3.5.0, https://matplotlib.org/</dc:title>
     </cc:Agent>
    </dc:creator>
   </cc:Work>
  </rdf:RDF>
 </metadata>
 <defs>
  <style type="text/css">*{stroke-linejoin: round; stroke-linecap: butt}</style>
 </defs>
 <g id="figure_1">
  <g id="patch_1">
   <path d="M 0 280.512 
L 371.52 280.512 
L 371.52 0 
L 0 0 
L 0 280.512 
z
" style="fill: none"/>
  </g>
  <g id="axes_1">
   <g id="patch_2">
    <path d="M 186.118489 19.296007 
C 161.23503 19.296007 136.954586 27.019788 116.64437 41.396215 
C 96.334154 55.772642 80.978544 76.10493 72.707056 99.573399 
C 64.435568 123.041868 63.649098 148.509066 70.456713 172.443203 
C 77.264328 196.37734 91.336084 217.618396 110.720507 233.22066 
L 186.118489 139.545385 
L 186.118489 19.296007 
z
" style="fill: #0000ff"/>
   </g>
   <g id="patch_3">
    <path d="M 110.720507 233.22066 
C 125.698204 245.276009 143.351027 253.565207 162.193246 257.390604 
C 181.035464 261.216 200.52321 260.467177 219.016318 255.207158 
C 237.509426 249.947139 254.474106 240.327751 268.482543 227.1586 
C 282.49098 213.989449 293.13883 197.650653 299.52993 179.51735 
C 305.921029 161.384046 307.870902 141.97964 305.21544 122.937283 
C 302.559978 103.894925 295.37583 85.764262 284.26764 70.071238 
C 273.15945 54.378215 258.44785 41.575802 241.371025 32.741499 
C 224.2942 23.907196 205.345063 19.296 186.118444 19.296007 
L 186.118489 139.545385 
L 110.720507 233.22066 
z
" style="fill: #ff0000"/>
   </g>
   <g id="matplotlib.axis_1"/>
   <g id="matplotlib.axis_2"/>
  </g>
 </g>
</svg>
