<?xml version="1.0" encoding="utf-8" standalone="no"?>
<!DOCTYPE svg PUBLIC "-//W3C//DTD SVG 1.1//EN"
  "http://www.w3.org/Graphics/SVG/1.1/DTD/svg11.dtd">
<svg xmlns:xlink="http://www.w3.org/1999/xlink" width="103.1778pt" height="102.60504pt" viewBox="0 0 103.1778 102.60504" xmlns="http://www.w3.org/2000/svg" version="1.1">
 <metadata>
  <rdf:RDF xmlns:dc="http://purl.org/dc/elements/1.1/" xmlns:cc="http://creativecommons.org/ns#" xmlns:rdf="http://www.w3.org/1999/02/22-rdf-syntax-ns#">
   <cc:Work>
    <dc:type rdf:resource="http://purl.org/dc/dcmitype/StillImage"/>
    <dc:date>2021-12-14T09:20:52.239186</dc:date>
    <dc:format>image/svg+xml</dc:format>
    <dc:creator>
     <cc:Agent>
      <dc:title>Matplotlib v3.5.0, https://matplotlib.org/</dc:title>
     </cc:Agent>
    </dc:creator>
   </cc:Work>
  </rdf:RDF>
 </metadata>
 <defs>
  <style type="text/css">*{stroke-linejoin: round; stroke-linecap: butt}</style>
 </defs>
 <g id="figure_1">
  <g id="patch_1">
   <path d="M 0 102.60504 
L 103.1778 102.60504 
L 103.1778 0 
L 0 0 
L 0 102.60504 
z
" style="fill: none"/>
  </g>
  <g id="axes_1">
   <g id="patch_2">
    <path d="M 51.820082 11.20932 
C 42.040462 11.20932 32.596732 14.835286 25.309922 21.388025 
C 18.023113 27.940764 13.393767 36.970156 12.314561 46.735067 
C 11.235355 56.499978 13.78042 66.329639 19.458993 74.328601 
C 25.137567 82.327563 33.559577 87.946363 43.10101 90.101529 
L 51.820082 51.141709 
L 51.820082 11.20932 
z
" style="fill: #0000ff"/>
   </g>
   <g id="patch_3">
    <path d="M 43.10101 90.101529 
C 48.554601 91.333356 54.206002 91.39572 59.68521 90.284538 
C 65.164418 89.173356 70.34919 86.913419 74.900072 83.652688 
C 79.450955 80.391957 83.266416 76.203179 86.096654 71.3606 
C 88.926892 66.51802 90.708762 61.129678 91.325604 55.548355 
C 91.942445 49.967031 91.380497 44.317248 89.676549 38.968902 
C 87.972601 33.620556 85.16467 28.692972 81.436594 24.508764 
C 77.708517 20.324556 73.143471 16.977075 68.040334 14.685485 
C 62.937196 12.393894 57.409821 11.209321 51.82009 11.20932 
L 51.820082 51.141709 
L 43.10101 90.101529 
z
" style="fill: #ff0000"/>
   </g>
   <g id="matplotlib.axis_1"/>
   <g id="matplotlib.axis_2"/>
  </g>
 </g>
</svg>
