<?xml version="1.0" encoding="utf-8" standalone="no"?>
<!DOCTYPE svg PUBLIC "-//W3C//DTD SVG 1.1//EN"
  "http://www.w3.org/Graphics/SVG/1.1/DTD/svg11.dtd">
<svg xmlns:xlink="http://www.w3.org/1999/xlink" width="128.83185pt" height="128.09358pt" viewBox="0 0 128.83185 128.09358" xmlns="http://www.w3.org/2000/svg" version="1.1">
 <metadata>
  <rdf:RDF xmlns:dc="http://purl.org/dc/elements/1.1/" xmlns:cc="http://creativecommons.org/ns#" xmlns:rdf="http://www.w3.org/1999/02/22-rdf-syntax-ns#">
   <cc:Work>
    <dc:type rdf:resource="http://purl.org/dc/dcmitype/StillImage"/>
    <dc:date>2021-12-14T09:20:53.137106</dc:date>
    <dc:format>image/svg+xml</dc:format>
    <dc:creator>
     <cc:Agent>
      <dc:title>Matplotlib v3.5.0, https://matplotlib.org/</dc:title>
     </cc:Agent>
    </dc:creator>
   </cc:Work>
  </rdf:RDF>
 </metadata>
 <defs>
  <style type="text/css">*{stroke-linejoin: round; stroke-linecap: butt}</style>
 </defs>
 <g id="figure_1">
  <g id="patch_1">
   <path d="M -0 128.09358 
L 128.83185 128.09358 
L 128.83185 0 
L -0 0 
L -0 128.09358 
z
" style="fill: none"/>
  </g>
  <g id="axes_1">
   <g id="patch_2">
    <path d="M 64.764583 12.36789 
C 52.360149 12.36789 40.36518 16.856655 31.008233 25.000212 
C 21.651286 33.143769 15.550098 44.404489 13.838215 56.69023 
C 12.126332 68.975971 14.916772 81.475642 21.691095 91.866913 
C 28.465417 102.258185 38.77639 109.855037 50.708324 113.246042 
L 64.764583 63.786258 
L 64.764583 12.36789 
z
" style="fill: #0000ff"/>
   </g>
   <g id="patch_3">
    <path d="M 50.708324 113.246042 
C 57.779917 115.255758 65.200973 115.72569 72.469589 114.624054 
C 79.738205 113.522419 86.686737 110.874624 92.845238 106.859747 
C 99.00374 102.84487 104.230171 97.55551 108.171056 91.3494 
C 112.11194 85.143289 114.676386 78.163566 115.690952 70.882287 
C 116.705518 63.601007 116.146805 56.186106 114.0526 49.139073 
C 111.958395 42.092039 108.376999 35.575405 103.55063 30.029908 
C 98.724261 24.48441 92.764235 20.03795 86.073644 16.991253 
C 79.383053 13.944556 72.116208 12.36789 64.764583 12.36789 
L 64.764583 63.786258 
L 50.708324 113.246042 
z
" style="fill: #ff0000"/>
   </g>
   <g id="matplotlib.axis_1"/>
   <g id="matplotlib.axis_2"/>
  </g>
 </g>
</svg>
