<?xml version="1.0" encoding="utf-8" standalone="no"?>
<!DOCTYPE svg PUBLIC "-//W3C//DTD SVG 1.1//EN"
  "http://www.w3.org/Graphics/SVG/1.1/DTD/svg11.dtd">
<svg xmlns:xlink="http://www.w3.org/1999/xlink" width="297.4455pt" height="295.6194pt" viewBox="0 0 297.4455 295.6194" xmlns="http://www.w3.org/2000/svg" version="1.1">
 <metadata>
  <rdf:RDF xmlns:dc="http://purl.org/dc/elements/1.1/" xmlns:cc="http://creativecommons.org/ns#" xmlns:rdf="http://www.w3.org/1999/02/22-rdf-syntax-ns#">
   <cc:Work>
    <dc:type rdf:resource="http://purl.org/dc/dcmitype/StillImage"/>
    <dc:date>2021-12-14T09:20:54.049223</dc:date>
    <dc:format>image/svg+xml</dc:format>
    <dc:creator>
     <cc:Agent>
      <dc:title>Matplotlib v3.5.0, https://matplotlib.org/</dc:title>
     </cc:Agent>
    </dc:creator>
   </cc:Work>
  </rdf:RDF>
 </metadata>
 <defs>
  <style type="text/css">*{stroke-linejoin: round; stroke-linecap: butt}</style>
 </defs>
 <g id="figure_1">
  <g id="patch_1">
   <path d="M 0 295.6194 
L 297.4455 295.6194 
L 297.4455 0 
L 0 0 
L 0 295.6194 
z
" style="fill: none"/>
  </g>
  <g id="axes_1">
   <g id="patch_2">
    <path d="M 148.975467 19.9827 
C 115.754484 19.9827 83.805834 32.871275 59.948794 55.897424 
C 36.091754 78.923573 22.153727 110.323536 21.109716 143.395151 
C 20.065705 176.466766 31.995677 208.676809 54.353243 233.15021 
C 76.710808 257.62361 107.783417 272.485752 140.938781 274.564387 
L 148.975467 147.399382 
L 148.975467 19.9827 
z
" style="fill: #0000ff"/>
   </g>
   <g id="patch_3">
    <path d="M 140.938781 274.564387 
C 158.042762 275.6367 175.189987 273.274955 191.359894 267.619716 
C 207.529801 261.964478 222.395099 253.130213 235.071041 241.642716 
C 247.746983 230.155219 257.976998 216.247006 265.15222 200.74586 
C 272.327442 185.244713 276.302639 168.464389 276.841217 151.403612 
C 277.379795 134.342834 274.470853 117.346927 268.287524 101.427446 
C 262.104194 85.507965 252.771633 70.987131 240.845292 58.729192 
C 228.918951 46.471253 214.640228 36.724317 198.858959 30.068499 
C 183.077689 23.412681 166.113299 19.9827 148.975467 19.9827 
L 148.975467 147.399382 
L 140.938781 274.564387 
z
" style="fill: #ff0000"/>
   </g>
   <g id="matplotlib.axis_1"/>
   <g id="matplotlib.axis_2"/>
  </g>
 </g>
</svg>
