<?xml version="1.0" encoding="utf-8" standalone="no"?>
<!DOCTYPE svg PUBLIC "-//W3C//DTD SVG 1.1//EN"
  "http://www.w3.org/Graphics/SVG/1.1/DTD/svg11.dtd">
<svg xmlns:xlink="http://www.w3.org/1999/xlink" width="19.01745pt" height="18.98766pt" viewBox="0 0 19.01745 18.98766" xmlns="http://www.w3.org/2000/svg" version="1.1">
 <metadata>
  <rdf:RDF xmlns:dc="http://purl.org/dc/elements/1.1/" xmlns:cc="http://creativecommons.org/ns#" xmlns:rdf="http://www.w3.org/1999/02/22-rdf-syntax-ns#">
   <cc:Work>
    <dc:type rdf:resource="http://purl.org/dc/dcmitype/StillImage"/>
    <dc:date>2022-01-14T17:05:59.393493</dc:date>
    <dc:format>image/svg+xml</dc:format>
    <dc:creator>
     <cc:Agent>
      <dc:title>Matplotlib v3.5.1, https://matplotlib.org/</dc:title>
     </cc:Agent>
    </dc:creator>
   </cc:Work>
  </rdf:RDF>
 </metadata>
 <defs>
  <style type="text/css">*{stroke-linejoin: round; stroke-linecap: butt}</style>
 </defs>
 <g id="figure_1">
  <g id="patch_1">
   <path d="M 0 18.98766 
L 19.01745 18.98766 
L 19.01745 0 
L 0 0 
L 0 18.98766 
z
" style="fill: none"/>
  </g>
  <g id="axes_1">
   <g id="patch_2">
    <path d="M 9.525585 7.40853 
C 9.044139 7.40853 8.57733 7.575791 8.205439 7.881548 
C 7.833548 8.187306 7.579188 8.612967 7.486103 9.085329 
C 7.393018 9.557691 7.466868 10.04803 7.694953 10.47202 
C 7.923038 10.896011 8.291488 11.22787 8.736939 11.410528 
L 9.525585 9.487235 
L 9.525585 7.40853 
z
" style="fill: #0000ff; stroke: #000000; stroke-linejoin: miter"/>
   </g>
   <g id="patch_3">
    <path d="M 8.736939 11.410528 
C 9.021025 11.527017 9.327424 11.57913 9.634048 11.563109 
C 9.940671 11.547088 10.239971 11.463329 10.51037 11.317868 
C 10.78077 11.172407 11.015612 10.968826 11.197967 10.721802 
C 11.380323 10.474777 11.505702 10.19039 11.565067 9.889142 
C 11.624432 9.587894 11.616321 9.277201 11.541318 8.979461 
C 11.466316 8.68172 11.326269 8.404263 11.131272 8.16709 
C 10.936276 7.929916 10.691131 7.738867 10.41351 7.607713 
C 10.135889 7.476559 9.832627 7.40853 9.525585 7.40853 
L 9.525585 9.487235 
L 8.736939 11.410528 
z
" style="fill: #ff0000; stroke: #000000; stroke-linejoin: miter"/>
   </g>
   <g id="matplotlib.axis_1"/>
   <g id="matplotlib.axis_2"/>
  </g>
 </g>
</svg>
