<?xml version="1.0" encoding="utf-8" standalone="no"?>
<!DOCTYPE svg PUBLIC "-//W3C//DTD SVG 1.1//EN"
  "http://www.w3.org/Graphics/SVG/1.1/DTD/svg11.dtd">
<svg xmlns:xlink="http://www.w3.org/1999/xlink" width="371.52pt" height="280.512pt" viewBox="0 0 371.52 280.512" xmlns="http://www.w3.org/2000/svg" version="1.1">
 <metadata>
  <rdf:RDF xmlns:dc="http://purl.org/dc/elements/1.1/" xmlns:cc="http://creativecommons.org/ns#" xmlns:rdf="http://www.w3.org/1999/02/22-rdf-syntax-ns#">
   <cc:Work>
    <dc:type rdf:resource="http://purl.org/dc/dcmitype/StillImage"/>
    <dc:date>2021-12-03T16:10:12.722517</dc:date>
    <dc:format>image/svg+xml</dc:format>
    <dc:creator>
     <cc:Agent>
      <dc:title>Matplotlib v3.5.0, https://matplotlib.org/</dc:title>
     </cc:Agent>
    </dc:creator>
   </cc:Work>
  </rdf:RDF>
 </metadata>
 <defs>
  <style type="text/css">*{stroke-linejoin: round; stroke-linecap: butt}</style>
 </defs>
 <g id="figure_1">
  <g id="patch_1">
   <path d="M 0 280.512 
L 371.52 280.512 
L 371.52 0 
L 0 0 
L 0 280.512 
z
" style="fill: none"/>
  </g>
  <g id="axes_1">
   <g id="patch_2">
    <path d="M 186.737988 19.296 
C 158.811179 19.296 131.733488 28.998144 110.161545 46.733925 
C 88.589602 64.469707 73.835202 89.160609 68.435703 116.560465 
C 63.036204 143.96032 67.319951 172.402938 80.550254 196.996956 
C 93.780558 221.590974 115.152881 240.840825 140.991762 251.436056 
L 186.737988 139.873473 
L 186.737988 19.296 
z
" style="fill: #0000ff"/>
   </g>
   <g id="patch_3">
    <path d="M 140.991762 251.436056 
C 157.470473 258.19315 175.243443 261.216 193.029467 260.286697 
C 210.81549 259.357394 228.176663 254.498818 243.861466 246.06121 
C 259.546268 237.623602 273.168529 225.814703 283.746256 211.485784 
C 294.323984 197.156865 301.596747 180.660714 305.040271 163.186493 
C 308.483796 145.712273 308.013301 127.690211 303.662702 110.419468 
C 299.312103 93.148726 291.188516 77.054522 279.877547 63.297043 
C 268.566578 49.539564 254.346712 38.457529 238.24302 30.849812 
C 222.139329 23.242095 204.548296 19.296003 186.738011 19.296 
L 186.737988 139.873473 
L 140.991762 251.436056 
z
" style="fill: #bf00bf"/>
   </g>
   <g id="matplotlib.axis_1"/>
   <g id="matplotlib.axis_2"/>
  </g>
 </g>
</svg>
