<?xml version="1.0" encoding="utf-8" standalone="no"?>
<!DOCTYPE svg PUBLIC "-//W3C//DTD SVG 1.1//EN"
  "http://www.w3.org/Graphics/SVG/1.1/DTD/svg11.dtd">
<svg xmlns:xlink="http://www.w3.org/1999/xlink" width="261.0081pt" height="259.41708pt" viewBox="0 0 261.0081 259.41708" xmlns="http://www.w3.org/2000/svg" version="1.1">
 <metadata>
  <rdf:RDF xmlns:dc="http://purl.org/dc/elements/1.1/" xmlns:cc="http://creativecommons.org/ns#" xmlns:rdf="http://www.w3.org/1999/02/22-rdf-syntax-ns#">
   <cc:Work>
    <dc:type rdf:resource="http://purl.org/dc/dcmitype/StillImage"/>
    <dc:date>2022-01-14T17:05:51.884412</dc:date>
    <dc:format>image/svg+xml</dc:format>
    <dc:creator>
     <cc:Agent>
      <dc:title>Matplotlib v3.5.1, https://matplotlib.org/</dc:title>
     </cc:Agent>
    </dc:creator>
   </cc:Work>
  </rdf:RDF>
 </metadata>
 <defs>
  <style type="text/css">*{stroke-linejoin: round; stroke-linecap: butt}</style>
 </defs>
 <g id="figure_1">
  <g id="patch_1">
   <path d="M 0 259.41708 
L 261.0081 259.41708 
L 261.0081 0 
L 0 0 
L 0 259.41708 
z
" style="fill: none"/>
  </g>
  <g id="axes_1">
   <g id="patch_2">
    <path d="M 130.720909 18.33714 
C 101.764359 18.33714 73.917578 29.574559 53.128096 49.649301 
C 32.338614 69.724044 20.199958 97.097371 19.304709 125.92287 
C 18.409459 154.748369 28.826238 182.81655 48.330223 204.132594 
C 67.834208 225.448638 94.930408 238.378659 123.831601 240.161055 
L 130.720909 129.355215 
L 130.720909 18.33714 
z
" style="fill: #0000ff; stroke: #000000; stroke-linejoin: miter"/>
   </g>
   <g id="patch_3">
    <path d="M 123.831601 240.161055 
C 138.731146 241.07994 153.665336 239.008614 167.745883 234.07028 
C 181.82643 229.131945 194.768515 221.426494 205.802342 211.412248 
C 216.836169 201.398001 225.738547 189.277525 231.979962 175.771747 
C 238.221377 162.26597 241.675578 147.648083 242.137109 132.78756 
C 242.598641 117.927038 240.058167 103.124476 234.666795 89.260333 
C 229.275423 75.396189 221.142208 62.750906 210.750916 52.076626 
C 200.359625 41.402346 187.920448 32.914987 174.173271 27.119377 
C 160.426095 21.323767 145.648992 18.33714 130.720909 18.33714 
L 130.720909 129.355215 
L 123.831601 240.161055 
z
" style="fill: #ff0000; stroke: #000000; stroke-linejoin: miter"/>
   </g>
   <g id="matplotlib.axis_1"/>
   <g id="matplotlib.axis_2"/>
  </g>
 </g>
</svg>
