<?xml version="1.0" encoding="utf-8" standalone="no"?>
<!DOCTYPE svg PUBLIC "-//W3C//DTD SVG 1.1//EN"
  "http://www.w3.org/Graphics/SVG/1.1/DTD/svg11.dtd">
<svg xmlns:xlink="http://www.w3.org/1999/xlink" width="86.8284pt" height="86.36112pt" viewBox="0 0 86.8284 86.36112" xmlns="http://www.w3.org/2000/svg" version="1.1">
 <metadata>
  <rdf:RDF xmlns:dc="http://purl.org/dc/elements/1.1/" xmlns:cc="http://creativecommons.org/ns#" xmlns:rdf="http://www.w3.org/1999/02/22-rdf-syntax-ns#">
   <cc:Work>
    <dc:type rdf:resource="http://purl.org/dc/dcmitype/StillImage"/>
    <dc:date>2021-12-14T09:20:55.934227</dc:date>
    <dc:format>image/svg+xml</dc:format>
    <dc:creator>
     <cc:Agent>
      <dc:title>Matplotlib v3.5.0, https://matplotlib.org/</dc:title>
     </cc:Agent>
    </dc:creator>
   </cc:Work>
  </rdf:RDF>
 </metadata>
 <defs>
  <style type="text/css">*{stroke-linejoin: round; stroke-linecap: butt}</style>
 </defs>
 <g id="figure_1">
  <g id="patch_1">
   <path d="M 0 86.36112 
L 86.8284 86.36112 
L 86.8284 0 
L 0 0 
L 0 86.36112 
z
" style="fill: none"/>
  </g>
  <g id="axes_1">
   <g id="patch_2">
    <path d="M 43.508999 10.47096 
C 35.121759 10.47096 27.048722 13.69455 20.978007 19.467658 
C 14.907292 25.240767 11.293742 33.130849 10.892971 41.488043 
C 10.4922 49.845237 13.334236 58.043387 18.824792 64.368213 
C 24.315348 70.693039 32.043049 74.670659 40.39199 75.469329 
L 43.508999 43.044518 
L 43.508999 10.47096 
z
" style="fill: #0000ff"/>
   </g>
   <g id="patch_3">
    <path d="M 40.39199 75.469329 
C 44.791162 75.89016 49.230533 75.415738 53.440516 74.074875 
C 57.650498 72.734011 61.544112 70.554408 64.884912 67.668426 
C 68.225713 64.782443 70.944677 61.249706 72.876691 57.284746 
C 74.808706 53.319785 75.913856 49.004519 76.125028 44.600997 
C 76.3362 40.197476 75.649032 35.796677 74.105253 31.665848 
C 72.561475 27.535018 70.19298 23.759501 67.1436 20.568571 
C 64.09422 17.37764 60.426956 14.837223 56.364508 13.101588 
C 52.30206 11.365953 47.928359 10.470961 43.509006 10.47096 
L 43.508999 43.044518 
L 40.39199 75.469329 
z
" style="fill: #ff0000"/>
   </g>
   <g id="matplotlib.axis_1"/>
   <g id="matplotlib.axis_2"/>
  </g>
 </g>
</svg>
