<?xml version="1.0" encoding="utf-8" standalone="no"?>
<!DOCTYPE svg PUBLIC "-//W3C//DTD SVG 1.1//EN"
  "http://www.w3.org/Graphics/SVG/1.1/DTD/svg11.dtd">
<svg xmlns:xlink="http://www.w3.org/1999/xlink" width="371.52pt" height="280.512pt" viewBox="0 0 371.52 280.512" xmlns="http://www.w3.org/2000/svg" version="1.1">
 <metadata>
  <rdf:RDF xmlns:dc="http://purl.org/dc/elements/1.1/" xmlns:cc="http://creativecommons.org/ns#" xmlns:rdf="http://www.w3.org/1999/02/22-rdf-syntax-ns#">
   <cc:Work>
    <dc:type rdf:resource="http://purl.org/dc/dcmitype/StillImage"/>
    <dc:date>2021-12-03T16:10:06.931001</dc:date>
    <dc:format>image/svg+xml</dc:format>
    <dc:creator>
     <cc:Agent>
      <dc:title>Matplotlib v3.5.0, https://matplotlib.org/</dc:title>
     </cc:Agent>
    </dc:creator>
   </cc:Work>
  </rdf:RDF>
 </metadata>
 <defs>
  <style type="text/css">*{stroke-linejoin: round; stroke-linecap: butt}</style>
 </defs>
 <g id="figure_1">
  <g id="patch_1">
   <path d="M 0 280.512 
L 371.52 280.512 
L 371.52 0 
L 0 0 
L 0 280.512 
z
" style="fill: none"/>
  </g>
  <g id="axes_1">
   <g id="patch_2">
    <path d="M 185.820741 19.296 
C 153.942156 19.296 123.323868 31.910182 100.696527 54.365639 
C 78.069185 76.821096 65.221901 107.342308 64.978821 139.219966 
C 64.735741 171.097624 77.116087 201.811206 99.398354 224.609117 
C 121.680621 247.407027 152.102983 260.486668 183.97786 260.972813 
L 185.820741 140.141433 
L 185.820741 19.296 
z
" style="fill: #0000ff"/>
   </g>
   <g id="patch_3">
    <path d="M 183.97786 260.972813 
C 199.922811 261.216 215.759331 258.300647 230.572378 252.395206 
C 245.385424 246.489765 258.884092 237.710208 270.288421 226.563824 
C 281.692749 215.41744 290.778775 202.123126 297.021502 187.449035 
C 303.26423 172.774944 306.541061 157.009252 306.66266 141.062911 
C 306.784259 125.11657 303.748236 109.30274 297.730016 94.535153 
C 291.711795 79.767567 282.829566 66.336236 271.596547 55.017231 
C 260.363528 43.698226 247.000318 34.713835 232.279053 28.58318 
C 217.557787 22.452525 201.767568 19.296003 185.820763 19.296 
L 185.820741 140.141433 
L 183.97786 260.972813 
z
" style="fill: #bf00bf"/>
   </g>
   <g id="matplotlib.axis_1"/>
   <g id="matplotlib.axis_2"/>
  </g>
 </g>
</svg>
