<?xml version="1.0" encoding="utf-8" standalone="no"?>
<!DOCTYPE svg PUBLIC "-//W3C//DTD SVG 1.1//EN"
  "http://www.w3.org/Graphics/SVG/1.1/DTD/svg11.dtd">
<svg xmlns:xlink="http://www.w3.org/1999/xlink" width="123.6006pt" height="122.89608pt" viewBox="0 0 123.6006 122.89608" xmlns="http://www.w3.org/2000/svg" version="1.1">
 <metadata>
  <rdf:RDF xmlns:dc="http://purl.org/dc/elements/1.1/" xmlns:cc="http://creativecommons.org/ns#" xmlns:rdf="http://www.w3.org/1999/02/22-rdf-syntax-ns#">
   <cc:Work>
    <dc:type rdf:resource="http://purl.org/dc/dcmitype/StillImage"/>
    <dc:date>2022-01-14T17:05:53.748299</dc:date>
    <dc:format>image/svg+xml</dc:format>
    <dc:creator>
     <cc:Agent>
      <dc:title>Matplotlib v3.5.1, https://matplotlib.org/</dc:title>
     </cc:Agent>
    </dc:creator>
   </cc:Work>
  </rdf:RDF>
 </metadata>
 <defs>
  <style type="text/css">*{stroke-linejoin: round; stroke-linecap: butt}</style>
 </defs>
 <g id="figure_1">
  <g id="patch_1">
   <path d="M 0 122.89608 
L 123.6006 122.89608 
L 123.6006 0 
L 0 0 
L 0 122.89608 
z
" style="fill: none"/>
  </g>
  <g id="axes_1">
   <g id="patch_2">
    <path d="M 61.825212 11.837759 
C 48.750596 11.837759 36.192876 17.011313 26.912545 26.221147 
C 17.632214 35.430981 12.363056 47.948887 12.26336 61.023123 
C 12.163664 74.097359 17.241313 86.694164 26.380115 96.044451 
C 35.518917 105.394738 47.996281 110.759195 61.069377 110.958581 
L 61.825212 61.401052 
L 61.825212 11.837759 
z
" style="fill: #0000ff; stroke: #000000; stroke-linejoin: miter"/>
   </g>
   <g id="patch_3">
    <path d="M 61.069377 110.958581 
C 67.609006 111.058321 74.104163 109.862625 80.179555 107.440579 
C 86.254947 105.018534 91.791262 101.417705 96.46861 96.84615 
C 101.145957 92.274596 104.872481 86.822093 107.43286 80.803693 
C 109.993239 74.785292 111.337192 68.319184 111.387064 61.778985 
C 111.436936 55.238786 110.191748 48.752935 107.723448 42.696187 
C 105.255148 36.63944 101.612209 31.130743 97.005122 26.48839 
C 92.398035 21.846037 86.917276 18.161197 80.879527 15.646783 
C 74.841778 13.132369 68.365611 11.83776 61.825221 11.837759 
L 61.825212 61.401052 
L 61.069377 110.958581 
z
" style="fill: #ff0000; stroke: #000000; stroke-linejoin: miter"/>
   </g>
   <g id="matplotlib.axis_1"/>
   <g id="matplotlib.axis_2"/>
  </g>
 </g>
</svg>
