<?xml version="1.0" encoding="utf-8" standalone="no"?>
<!DOCTYPE svg PUBLIC "-//W3C//DTD SVG 1.1//EN"
  "http://www.w3.org/Graphics/SVG/1.1/DTD/svg11.dtd">
<svg xmlns:xlink="http://www.w3.org/1999/xlink" width="264.17475pt" height="262.5633pt" viewBox="0 0 264.17475 262.5633" xmlns="http://www.w3.org/2000/svg" version="1.1">
 <metadata>
  <rdf:RDF xmlns:dc="http://purl.org/dc/elements/1.1/" xmlns:cc="http://creativecommons.org/ns#" xmlns:rdf="http://www.w3.org/1999/02/22-rdf-syntax-ns#">
   <cc:Work>
    <dc:type rdf:resource="http://purl.org/dc/dcmitype/StillImage"/>
    <dc:date>2021-12-14T09:20:57.728232</dc:date>
    <dc:format>image/svg+xml</dc:format>
    <dc:creator>
     <cc:Agent>
      <dc:title>Matplotlib v3.5.0, https://matplotlib.org/</dc:title>
     </cc:Agent>
    </dc:creator>
   </cc:Work>
  </rdf:RDF>
 </metadata>
 <defs>
  <style type="text/css">*{stroke-linejoin: round; stroke-linecap: butt}</style>
 </defs>
 <g id="figure_1">
  <g id="patch_1">
   <path d="M 0 262.5633 
L 264.17475 262.5633 
L 264.17475 0 
L 0 0 
L 0 262.5633 
z
" style="fill: none"/>
  </g>
  <g id="axes_1">
   <g id="patch_2">
    <path d="M 132.250506 18.48015 
C 102.71722 18.48015 74.328573 29.996891 53.211297 50.544871 
C 32.094021 71.092851 19.885026 99.079292 19.219212 128.464262 
C 18.553398 157.849232 29.482375 186.354952 49.647492 207.829422 
C 69.812609 229.303892 97.650765 242.082515 127.15403 243.407456 
L 132.250506 131.000992 
L 132.250506 18.48015 
z
" style="fill: #0000ff"/>
   </g>
   <g id="patch_3">
    <path d="M 127.15403 243.407456 
C 142.200117 244.08315 157.231298 241.759853 171.362741 236.574328 
C 185.494184 231.388804 198.443051 223.44484 209.447089 213.21007 
C 220.451126 202.975299 229.290089 190.654569 235.44366 176.973157 
C 241.597232 163.291744 244.942248 148.523482 245.2818 133.537723 
C 245.621352 118.551964 242.948644 103.648647 237.421009 89.705076 
C 231.893374 75.761506 223.621446 63.056761 213.092164 52.338724 
C 202.562882 41.620687 189.986989 33.103878 176.104781 27.289651 
C 162.222574 21.475424 147.311903 18.48015 132.250506 18.48015 
L 132.250506 131.000992 
L 127.15403 243.407456 
z
" style="fill: #ff0000"/>
   </g>
   <g id="matplotlib.axis_1"/>
   <g id="matplotlib.axis_2"/>
  </g>
 </g>
</svg>
