<?xml version="1.0" encoding="utf-8" standalone="no"?>
<!DOCTYPE svg PUBLIC "-//W3C//DTD SVG 1.1//EN"
  "http://www.w3.org/Graphics/SVG/1.1/DTD/svg11.dtd">
<svg xmlns:xlink="http://www.w3.org/1999/xlink" width="20.18925pt" height="20.1519pt" viewBox="0 0 20.18925 20.1519" xmlns="http://www.w3.org/2000/svg" version="1.1">
 <metadata>
  <rdf:RDF xmlns:dc="http://purl.org/dc/elements/1.1/" xmlns:cc="http://creativecommons.org/ns#" xmlns:rdf="http://www.w3.org/1999/02/22-rdf-syntax-ns#">
   <cc:Work>
    <dc:type rdf:resource="http://purl.org/dc/dcmitype/StillImage"/>
    <dc:date>2021-12-14T09:21:03.239921</dc:date>
    <dc:format>image/svg+xml</dc:format>
    <dc:creator>
     <cc:Agent>
      <dc:title>Matplotlib v3.5.0, https://matplotlib.org/</dc:title>
     </cc:Agent>
    </dc:creator>
   </cc:Work>
  </rdf:RDF>
 </metadata>
 <defs>
  <style type="text/css">*{stroke-linejoin: round; stroke-linecap: butt}</style>
 </defs>
 <g id="figure_1">
  <g id="patch_1">
   <path d="M 0 20.1519 
L 20.18925 20.1519 
L 20.18925 -0 
L 0 -0 
L 0 20.1519 
z
" style="fill: none"/>
  </g>
  <g id="axes_1">
   <g id="patch_2">
    <path d="M 10.116021 7.46145 
C 9.514781 7.46145 8.931657 7.669395 8.466081 8.049827 
C 8.000505 8.43026 7.680534 8.960253 7.560728 9.549436 
C 7.440922 10.138619 7.528501 10.751485 7.808531 11.283531 
C 8.088561 11.815576 8.544167 12.23474 9.097661 12.469547 
L 10.116021 10.069036 
L 10.116021 7.46145 
z
" style="fill: #0000ff"/>
   </g>
   <g id="patch_3">
    <path d="M 9.097661 12.469547 
C 9.453458 12.620485 9.838403 12.69045 10.224558 12.674363 
C 10.610713 12.658276 10.988505 12.556536 11.330515 12.376526 
C 11.672526 12.196517 11.970276 11.942701 12.202157 11.6335 
C 12.434037 11.324298 12.5943 10.967376 12.671314 10.588637 
C 12.748328 10.209898 12.740184 9.818731 12.647472 9.443526 
C 12.55476 9.068321 12.37978 8.718378 12.13523 8.419096 
C 11.89068 8.119814 11.582623 7.878612 11.233417 7.712994 
C 10.88421 7.547377 10.502511 7.46145 10.116021 7.46145 
L 10.116021 10.069036 
L 9.097661 12.469547 
z
" style="fill: #ff0000"/>
   </g>
   <g id="matplotlib.axis_1"/>
   <g id="matplotlib.axis_2"/>
  </g>
 </g>
</svg>
