<?xml version="1.0" encoding="utf-8" standalone="no"?>
<!DOCTYPE svg PUBLIC "-//W3C//DTD SVG 1.1//EN"
  "http://www.w3.org/Graphics/SVG/1.1/DTD/svg11.dtd">
<svg xmlns:xlink="http://www.w3.org/1999/xlink" width="85.7961pt" height="85.33548pt" viewBox="0 0 85.7961 85.33548" xmlns="http://www.w3.org/2000/svg" version="1.1">
 <metadata>
  <rdf:RDF xmlns:dc="http://purl.org/dc/elements/1.1/" xmlns:cc="http://creativecommons.org/ns#" xmlns:rdf="http://www.w3.org/1999/02/22-rdf-syntax-ns#">
   <cc:Work>
    <dc:type rdf:resource="http://purl.org/dc/dcmitype/StillImage"/>
    <dc:date>2022-01-14T17:05:55.670676</dc:date>
    <dc:format>image/svg+xml</dc:format>
    <dc:creator>
     <cc:Agent>
      <dc:title>Matplotlib v3.5.1, https://matplotlib.org/</dc:title>
     </cc:Agent>
    </dc:creator>
   </cc:Work>
  </rdf:RDF>
 </metadata>
 <defs>
  <style type="text/css">*{stroke-linejoin: round; stroke-linecap: butt}</style>
 </defs>
 <g id="figure_1">
  <g id="patch_1">
   <path d="M 0 85.33548 
L 85.7961 85.33548 
L 85.7961 0 
L 0 0 
L 0 85.33548 
z
" style="fill: none"/>
  </g>
  <g id="axes_1">
   <g id="patch_2">
    <path d="M 43.061021 10.42434 
C 35.085489 10.42434 27.390847 13.413168 21.496082 18.800804 
C 15.601317 24.188441 11.921643 31.595392 11.18346 39.559462 
C 10.445277 47.523533 12.700581 55.483752 17.504155 61.868703 
C 22.307728 68.253655 29.321219 72.613598 37.160105 74.087843 
L 43.061021 42.531138 
L 43.061021 10.42434 
z
" style="fill: #0000ff; stroke: #000000; stroke-linejoin: miter"/>
   </g>
   <g id="patch_3">
    <path d="M 37.160105 74.087843 
C 41.53776 74.91114 46.038941 74.809292 50.375116 73.788828 
C 54.711291 72.768363 58.787785 70.851563 62.343289 68.161296 
C 65.898794 65.471028 68.855678 62.066033 71.024403 58.164575 
C 73.193127 54.263117 74.526341 49.950378 74.938582 45.502813 
C 75.350823 41.055247 74.833091 36.569961 73.418574 32.334468 
C 72.004056 28.098974 69.723637 24.205749 66.723495 20.904355 
C 63.723353 17.60296 60.068992 14.965477 55.994661 13.160973 
C 51.92033 11.356468 47.514987 10.42434 43.061021 10.42434 
L 43.061021 42.531138 
L 37.160105 74.087843 
z
" style="fill: #ff0000; stroke: #000000; stroke-linejoin: miter"/>
   </g>
   <g id="matplotlib.axis_1"/>
   <g id="matplotlib.axis_2"/>
  </g>
 </g>
</svg>
