<?xml version="1.0" encoding="utf-8" standalone="no"?>
<!DOCTYPE svg PUBLIC "-//W3C//DTD SVG 1.1//EN"
  "http://www.w3.org/Graphics/SVG/1.1/DTD/svg11.dtd">
<svg xmlns:xlink="http://www.w3.org/1999/xlink" width="32.26995pt" height="32.15466pt" viewBox="0 0 32.26995 32.15466" xmlns="http://www.w3.org/2000/svg" version="1.1">
 <metadata>
  <rdf:RDF xmlns:dc="http://purl.org/dc/elements/1.1/" xmlns:cc="http://creativecommons.org/ns#" xmlns:rdf="http://www.w3.org/1999/02/22-rdf-syntax-ns#">
   <cc:Work>
    <dc:type rdf:resource="http://purl.org/dc/dcmitype/StillImage"/>
    <dc:date>2021-12-14T09:20:59.545169</dc:date>
    <dc:format>image/svg+xml</dc:format>
    <dc:creator>
     <cc:Agent>
      <dc:title>Matplotlib v3.5.0, https://matplotlib.org/</dc:title>
     </cc:Agent>
    </dc:creator>
   </cc:Work>
  </rdf:RDF>
 </metadata>
 <defs>
  <style type="text/css">*{stroke-linejoin: round; stroke-linecap: butt}</style>
 </defs>
 <g id="figure_1">
  <g id="patch_1">
   <path d="M 0 32.15466 
L 32.26995 32.15466 
L 32.26995 0 
L 0 0 
L 0 32.15466 
z
" style="fill: none"/>
  </g>
  <g id="axes_1">
   <g id="patch_2">
    <path d="M 16.172516 8.00703 
C 14.439286 8.00703 12.752207 8.573298 11.367179 9.61994 
C 9.98215 10.666582 8.972931 12.137862 8.492601 13.810611 
C 8.01227 15.48336 8.086409 17.268499 8.703772 18.895254 
C 9.321134 20.522008 10.448843 21.903747 11.915844 22.830886 
L 16.172516 16.035558 
L 16.172516 8.00703 
z
" style="fill: #0000ff"/>
   </g>
   <g id="patch_3">
    <path d="M 11.915844 22.830886 
C 12.96436 23.493543 14.152032 23.902374 15.384799 24.025002 
C 16.617566 24.14763 17.862002 23.980729 19.019551 23.537517 
C 20.177099 23.094305 21.216373 22.3868 22.055065 21.471035 
C 22.893756 20.555269 23.509123 19.456075 23.852432 18.260504 
C 24.19574 17.064934 24.25768 15.805406 24.033346 14.581672 
C 23.809012 13.357938 23.304487 12.203179 22.559729 11.20885 
C 21.81497 10.214521 20.850172 9.407583 19.741744 8.851944 
C 18.633316 8.296305 17.411314 8.00703 16.172516 8.00703 
L 16.172516 16.035558 
L 11.915844 22.830886 
z
" style="fill: #ff0000"/>
   </g>
   <g id="matplotlib.axis_1"/>
   <g id="matplotlib.axis_2"/>
  </g>
 </g>
</svg>
