<?xml version="1.0" encoding="utf-8" standalone="no"?>
<!DOCTYPE svg PUBLIC "-//W3C//DTD SVG 1.1//EN"
  "http://www.w3.org/Graphics/SVG/1.1/DTD/svg11.dtd">
<svg xmlns:xlink="http://www.w3.org/1999/xlink" width="78.7374pt" height="78.32232pt" viewBox="0 0 78.7374 78.32232" xmlns="http://www.w3.org/2000/svg" version="1.1">
 <metadata>
  <rdf:RDF xmlns:dc="http://purl.org/dc/elements/1.1/" xmlns:cc="http://creativecommons.org/ns#" xmlns:rdf="http://www.w3.org/1999/02/22-rdf-syntax-ns#">
   <cc:Work>
    <dc:type rdf:resource="http://purl.org/dc/dcmitype/StillImage"/>
    <dc:date>2022-01-14T17:05:57.548079</dc:date>
    <dc:format>image/svg+xml</dc:format>
    <dc:creator>
     <cc:Agent>
      <dc:title>Matplotlib v3.5.1, https://matplotlib.org/</dc:title>
     </cc:Agent>
    </dc:creator>
   </cc:Work>
  </rdf:RDF>
 </metadata>
 <defs>
  <style type="text/css">*{stroke-linejoin: round; stroke-linecap: butt}</style>
 </defs>
 <g id="figure_1">
  <g id="patch_1">
   <path d="M -0 78.32232 
L 78.7374 78.32232 
L 78.7374 0 
L -0 0 
L -0 78.32232 
z
" style="fill: none"/>
  </g>
  <g id="axes_1">
   <g id="patch_2">
    <path d="M 39.423653 10.10556 
C 31.863251 10.10556 24.592972 13.041196 19.167449 18.28473 
C 13.741926 23.528264 10.577557 30.677263 10.350992 38.20303 
C 10.124427 45.728798 12.853054 53.053743 17.953401 58.611546 
C 23.053748 64.169349 30.134371 67.533458 37.681194 67.984512 
L 39.423653 39.071048 
L 39.423653 10.10556 
z
" style="fill: #0000ff; stroke: #000000; stroke-linejoin: miter"/>
   </g>
   <g id="patch_3">
    <path d="M 37.681194 67.984512 
C 41.56706 68.21676 45.460492 67.669756 49.130179 66.375997 
C 52.799866 65.082237 56.171668 63.067862 59.045264 60.452545 
C 61.918861 57.837229 64.236195 54.67381 65.859593 51.150228 
C 67.482992 47.626646 68.379656 43.81409 68.496314 39.939066 
C 68.612973 36.064042 67.947269 32.204839 66.538752 28.590733 
C 65.130235 24.976628 63.007363 21.680638 60.296256 18.89858 
C 57.585148 16.116522 54.34058 13.904603 50.755312 12.394233 
C 47.170044 10.883864 43.316511 10.10556 39.423653 10.10556 
L 39.423653 39.071048 
L 37.681194 67.984512 
z
" style="fill: #ff0000; stroke: #000000; stroke-linejoin: miter"/>
   </g>
   <g id="matplotlib.axis_1"/>
   <g id="matplotlib.axis_2"/>
  </g>
 </g>
</svg>
