<?xml version="1.0" encoding="utf-8" standalone="no"?>
<!DOCTYPE svg PUBLIC "-//W3C//DTD SVG 1.1//EN"
  "http://www.w3.org/Graphics/SVG/1.1/DTD/svg11.dtd">
<svg xmlns:xlink="http://www.w3.org/1999/xlink" width="371.52pt" height="280.512pt" viewBox="0 0 371.52 280.512" xmlns="http://www.w3.org/2000/svg" version="1.1">
 <metadata>
  <rdf:RDF xmlns:dc="http://purl.org/dc/elements/1.1/" xmlns:cc="http://creativecommons.org/ns#" xmlns:rdf="http://www.w3.org/1999/02/22-rdf-syntax-ns#">
   <cc:Work>
    <dc:type rdf:resource="http://purl.org/dc/dcmitype/StillImage"/>
    <dc:date>2021-12-03T16:10:10.815389</dc:date>
    <dc:format>image/svg+xml</dc:format>
    <dc:creator>
     <cc:Agent>
      <dc:title>Matplotlib v3.5.0, https://matplotlib.org/</dc:title>
     </cc:Agent>
    </dc:creator>
   </cc:Work>
  </rdf:RDF>
 </metadata>
 <defs>
  <style type="text/css">*{stroke-linejoin: round; stroke-linecap: butt}</style>
 </defs>
 <g id="figure_1">
  <g id="patch_1">
   <path d="M 0 280.512 
L 371.52 280.512 
L 371.52 0 
L 0 0 
L 0 280.512 
z
" style="fill: none"/>
  </g>
  <g id="axes_1">
   <g id="patch_2">
    <path d="M 185.987827 19.296 
C 154.643582 19.296 124.502146 31.517208 102.008775 53.346316 
C 79.515404 75.175425 66.396428 104.937087 65.457125 136.267256 
C 64.517822 167.597424 75.830283 198.091559 96.975523 221.228987 
C 118.120762 244.366416 147.475917 258.371377 178.763866 260.249139 
L 185.987827 139.880859 
L 185.987827 19.296 
z
" style="fill: #0000ff"/>
   </g>
   <g id="patch_3">
    <path d="M 178.763866 260.249139 
C 194.874057 261.216 211.015615 258.938792 226.229563 253.552804 
C 241.443511 248.166817 255.422474 239.780866 267.335955 228.893164 
C 279.249437 218.005463 288.856742 204.835981 295.587098 190.167123 
C 302.317453 175.498265 306.034882 159.626393 306.51853 143.494463 
C 307.002178 127.362533 304.242273 111.296467 298.402783 96.250755 
C 292.563294 81.205043 283.762197 67.483663 272.52237 55.901807 
C 261.282544 44.319952 247.831071 35.111615 232.967111 28.823868 
C 218.10315 22.536122 202.127006 19.296 185.987827 19.296 
L 185.987827 139.880859 
L 178.763866 260.249139 
z
" style="fill: #bf00bf"/>
   </g>
   <g id="matplotlib.axis_1"/>
   <g id="matplotlib.axis_2"/>
  </g>
 </g>
</svg>
