<?xml version="1.0" encoding="utf-8" standalone="no"?>
<!DOCTYPE svg PUBLIC "-//W3C//DTD SVG 1.1//EN"
  "http://www.w3.org/Graphics/SVG/1.1/DTD/svg11.dtd">
<svg xmlns:xlink="http://www.w3.org/1999/xlink" width="24.65325pt" height="24.5871pt" viewBox="0 0 24.65325 24.5871" xmlns="http://www.w3.org/2000/svg" version="1.1">
 <metadata>
  <rdf:RDF xmlns:dc="http://purl.org/dc/elements/1.1/" xmlns:cc="http://creativecommons.org/ns#" xmlns:rdf="http://www.w3.org/1999/02/22-rdf-syntax-ns#">
   <cc:Work>
    <dc:type rdf:resource="http://purl.org/dc/dcmitype/StillImage"/>
    <dc:date>2022-01-14T17:05:58.440893</dc:date>
    <dc:format>image/svg+xml</dc:format>
    <dc:creator>
     <cc:Agent>
      <dc:title>Matplotlib v3.5.1, https://matplotlib.org/</dc:title>
     </cc:Agent>
    </dc:creator>
   </cc:Work>
  </rdf:RDF>
 </metadata>
 <defs>
  <style type="text/css">*{stroke-linejoin: round; stroke-linecap: butt}</style>
 </defs>
 <g id="figure_1">
  <g id="patch_1">
   <path d="M 0 24.5871 
L 24.65325 24.5871 
L 24.65325 0 
L 0 0 
L 0 24.5871 
z
" style="fill: none"/>
  </g>
  <g id="axes_1">
   <g id="patch_2">
    <path d="M 12.36474 7.66305 
C 11.319914 7.66305 10.305262 8.016876 9.486994 8.666567 
C 8.668727 9.316257 8.094104 10.224289 7.857257 11.241915 
C 7.62041 12.259542 7.735017 13.327988 8.182305 14.27223 
C 8.629594 15.216472 9.383728 15.981974 10.321174 16.443337 
L 12.36474 12.291008 
L 12.36474 7.66305 
z
" style="fill: #0000ff; stroke: #000000; stroke-linejoin: miter"/>
   </g>
   <g id="patch_3">
    <path d="M 10.321174 16.443337 
C 10.946453 16.751068 11.633241 16.913625 12.330124 16.918837 
C 13.027006 16.92405 13.716149 16.771786 14.345962 16.473443 
C 14.975775 16.1751 15.530139 15.738314 15.967556 15.195783 
C 16.404972 14.653253 16.714245 14.018862 16.872223 13.340101 
C 17.030201 12.661341 17.03284 11.955582 16.879944 11.275659 
C 16.727047 10.595736 16.422527 9.95905 15.989181 9.413262 
C 15.555835 8.867475 15.004753 8.426555 14.377189 8.12351 
C 13.749626 7.820465 13.061641 7.66305 12.364739 7.66305 
L 12.36474 12.291008 
L 10.321174 16.443337 
z
" style="fill: #ff0000; stroke: #000000; stroke-linejoin: miter"/>
   </g>
   <g id="matplotlib.axis_1"/>
   <g id="matplotlib.axis_2"/>
  </g>
 </g>
</svg>
