<?xml version="1.0" encoding="utf-8" standalone="no"?>
<!DOCTYPE svg PUBLIC "-//W3C//DTD SVG 1.1//EN"
  "http://www.w3.org/Graphics/SVG/1.1/DTD/svg11.dtd">
<svg xmlns:xlink="http://www.w3.org/1999/xlink" width="371.52pt" height="280.512pt" viewBox="0 0 371.52 280.512" xmlns="http://www.w3.org/2000/svg" version="1.1">
 <metadata>
  <rdf:RDF xmlns:dc="http://purl.org/dc/elements/1.1/" xmlns:cc="http://creativecommons.org/ns#" xmlns:rdf="http://www.w3.org/1999/02/22-rdf-syntax-ns#">
   <cc:Work>
    <dc:type rdf:resource="http://purl.org/dc/dcmitype/StillImage"/>
    <dc:date>2021-12-03T16:10:11.740522</dc:date>
    <dc:format>image/svg+xml</dc:format>
    <dc:creator>
     <cc:Agent>
      <dc:title>Matplotlib v3.5.0, https://matplotlib.org/</dc:title>
     </cc:Agent>
    </dc:creator>
   </cc:Work>
  </rdf:RDF>
 </metadata>
 <defs>
  <style type="text/css">*{stroke-linejoin: round; stroke-linecap: butt}</style>
 </defs>
 <g id="figure_1">
  <g id="patch_1">
   <path d="M 0 280.512 
L 371.52 280.512 
L 371.52 0 
L 0 0 
L 0 280.512 
z
" style="fill: none"/>
  </g>
  <g id="axes_1">
   <g id="patch_2">
    <path d="M 186.755655 19.296003 
C 159.462255 19.296003 132.957053 28.538796 111.581894 45.510311 
C 90.206736 62.481825 75.196195 86.20183 69.009164 112.784725 
C 62.822134 139.367621 65.81596 167.278049 77.500222 191.943971 
C 89.184484 216.609894 108.884328 236.60667 133.372703 248.658609 
L 186.755655 140.189608 
L 186.755655 19.296003 
z
" style="fill: #0000ff"/>
   </g>
   <g id="patch_3">
    <path d="M 133.372703 248.658609 
C 149.706532 256.697293 167.647111 260.943663 185.851393 261.079831 
C 204.055675 261.216 222.057769 257.238482 238.510023 249.445039 
C 254.962277 241.651596 269.443639 230.241679 280.870022 216.069446 
C 292.296404 201.897213 300.37538 185.325363 304.502149 167.59448 
C 308.628918 149.863598 308.697866 131.427457 304.703833 113.666203 
C 300.7098 95.90495 292.755002 79.273136 281.434942 65.015834 
C 270.114883 50.758532 255.719267 39.240619 239.325766 31.324337 
C 222.932264 23.408055 204.960424 19.296 186.755633 19.296003 
L 186.755655 140.189608 
L 133.372703 248.658609 
z
" style="fill: #bf00bf"/>
   </g>
   <g id="matplotlib.axis_1"/>
   <g id="matplotlib.axis_2"/>
  </g>
 </g>
</svg>
