<?xml version="1.0" encoding="utf-8" standalone="no"?>
<!DOCTYPE svg PUBLIC "-//W3C//DTD SVG 1.1//EN"
  "http://www.w3.org/Graphics/SVG/1.1/DTD/svg11.dtd">
<svg xmlns:xlink="http://www.w3.org/1999/xlink" width="371.52pt" height="280.512pt" viewBox="0 0 371.52 280.512" xmlns="http://www.w3.org/2000/svg" version="1.1">
 <metadata>
  <rdf:RDF xmlns:dc="http://purl.org/dc/elements/1.1/" xmlns:cc="http://creativecommons.org/ns#" xmlns:rdf="http://www.w3.org/1999/02/22-rdf-syntax-ns#">
   <cc:Work>
    <dc:type rdf:resource="http://purl.org/dc/dcmitype/StillImage"/>
    <dc:date>2021-12-10T18:12:44.495184</dc:date>
    <dc:format>image/svg+xml</dc:format>
    <dc:creator>
     <cc:Agent>
      <dc:title>Matplotlib v3.5.0, https://matplotlib.org/</dc:title>
     </cc:Agent>
    </dc:creator>
   </cc:Work>
  </rdf:RDF>
 </metadata>
 <defs>
  <style type="text/css">*{stroke-linejoin: round; stroke-linecap: butt}</style>
 </defs>
 <g id="figure_1">
  <g id="patch_1">
   <path d="M 0 280.512 
L 371.52 280.512 
L 371.52 0 
L 0 0 
L 0 280.512 
z
" style="fill: none"/>
  </g>
  <g id="axes_1">
   <g id="patch_2">
    <path d="M 186.429645 19.296003 
C 160.079013 19.296003 134.44298 27.945282 113.47827 43.908889 
C 92.51356 59.872497 77.357252 82.284603 70.348604 107.686073 
C 63.339957 133.087543 64.859103 160.100658 74.671575 184.556153 
C 84.484046 209.011648 102.057637 229.583111 124.679999 243.095497 
L 186.429645 139.714578 
L 186.429645 19.296003 
z
" style="fill: #0000ff"/>
   </g>
   <g id="patch_3">
    <path d="M 124.679999 243.095497 
C 140.601402 252.605385 158.506563 258.309956 176.994878 259.762978 
C 195.483192 261.216 214.059681 258.378572 231.271225 251.472647 
C 248.482769 244.566722 263.868572 233.777189 276.225101 219.948045 
C 288.581631 206.118901 297.578071 189.620386 302.510689 171.743072 
C 307.443307 153.865759 308.180043 135.088269 304.663269 116.879443 
C 301.146494 98.670616 293.470361 81.517952 282.235324 66.76319 
C 271.000287 52.008428 256.507136 40.046592 239.889578 31.813379 
C 223.272019 23.580166 204.974947 19.296 186.429623 19.296003 
L 186.429645 139.714578 
L 124.679999 243.095497 
z
" style="fill: #ff0000"/>
   </g>
   <g id="matplotlib.axis_1"/>
   <g id="matplotlib.axis_2"/>
  </g>
 </g>
</svg>
