<?xml version="1.0" encoding="utf-8" standalone="no"?>
<!DOCTYPE svg PUBLIC "-//W3C//DTD SVG 1.1//EN"
  "http://www.w3.org/Graphics/SVG/1.1/DTD/svg11.dtd">
<svg xmlns:xlink="http://www.w3.org/1999/xlink" width="371.52pt" height="280.512pt" viewBox="0 0 371.52 280.512" xmlns="http://www.w3.org/2000/svg" version="1.1">
 <metadata>
  <rdf:RDF xmlns:dc="http://purl.org/dc/elements/1.1/" xmlns:cc="http://creativecommons.org/ns#" xmlns:rdf="http://www.w3.org/1999/02/22-rdf-syntax-ns#">
   <cc:Work>
    <dc:type rdf:resource="http://purl.org/dc/dcmitype/StillImage"/>
    <dc:date>2021-11-24T20:23:10.871577</dc:date>
    <dc:format>image/svg+xml</dc:format>
    <dc:creator>
     <cc:Agent>
      <dc:title>Matplotlib v3.5.0, https://matplotlib.org/</dc:title>
     </cc:Agent>
    </dc:creator>
   </cc:Work>
  </rdf:RDF>
 </metadata>
 <defs>
  <style type="text/css">*{stroke-linejoin: round; stroke-linecap: butt}</style>
 </defs>
 <g id="figure_1">
  <g id="patch_1">
   <path d="M 0 280.512 
L 371.52 280.512 
L 371.52 0 
L 0 0 
L 0 280.512 
z
" style="fill: none"/>
  </g>
  <g id="axes_1">
   <g id="patch_2">
    <path d="M 186.412883 19.296003 
C 156.558664 19.296003 127.744422 30.391462 105.60039 50.414354 
C 83.456358 70.437247 69.525317 97.992571 66.52936 127.696082 
C 63.533404 157.399594 71.681259 187.181841 89.380857 211.223443 
C 107.080454 235.265045 133.098656 251.891016 162.351569 257.852682 
L 186.412883 139.787779 
L 186.412883 19.296003 
z
" style="fill: #0000ff"/>
   </g>
   <g id="patch_3">
    <path d="M 162.351569 257.852682 
C 178.854815 261.216 195.881372 261.081987 212.329632 257.459315 
C 228.777892 253.836642 244.285305 246.805161 257.848551 236.819802 
C 271.411797 226.834444 282.731916 214.115305 291.076504 199.485306 
C 299.421092 184.855306 304.606217 168.636919 306.296407 151.879465 
C 307.986596 135.122011 306.144595 118.194854 300.889578 102.193172 
C 295.634561 86.191491 287.08236 71.46799 275.786297 58.975274 
C 264.490233 46.482557 250.699294 36.495986 235.305744 29.661687 
C 219.912195 22.827387 203.255337 19.296 186.412861 19.296003 
L 186.412883 139.787779 
L 162.351569 257.852682 
z
" style="fill: #bf00bf"/>
   </g>
   <g id="matplotlib.axis_1"/>
   <g id="matplotlib.axis_2"/>
  </g>
 </g>
</svg>
