<?xml version="1.0" encoding="utf-8" standalone="no"?>
<!DOCTYPE svg PUBLIC "-//W3C//DTD SVG 1.1//EN"
  "http://www.w3.org/Graphics/SVG/1.1/DTD/svg11.dtd">
<svg xmlns:xlink="http://www.w3.org/1999/xlink" width="371.52pt" height="280.512pt" viewBox="0 0 371.52 280.512" xmlns="http://www.w3.org/2000/svg" version="1.1">
 <metadata>
  <rdf:RDF xmlns:dc="http://purl.org/dc/elements/1.1/" xmlns:cc="http://creativecommons.org/ns#" xmlns:rdf="http://www.w3.org/1999/02/22-rdf-syntax-ns#">
   <cc:Work>
    <dc:type rdf:resource="http://purl.org/dc/dcmitype/StillImage"/>
    <dc:date>2021-11-24T20:23:13.598407</dc:date>
    <dc:format>image/svg+xml</dc:format>
    <dc:creator>
     <cc:Agent>
      <dc:title>Matplotlib v3.5.0, https://matplotlib.org/</dc:title>
     </cc:Agent>
    </dc:creator>
   </cc:Work>
  </rdf:RDF>
 </metadata>
 <defs>
  <style type="text/css">*{stroke-linejoin: round; stroke-linecap: butt}</style>
 </defs>
 <g id="figure_1">
  <g id="patch_1">
   <path d="M 0 280.512 
L 371.52 280.512 
L 371.52 0 
L 0 0 
L 0 280.512 
z
" style="fill: none"/>
  </g>
  <g id="axes_1">
   <g id="patch_2">
    <path d="M 186.434396 19.296006 
C 156.664637 19.296006 127.925525 30.326247 105.800264 50.243862 
C 83.675002 70.161477 69.695572 97.587346 66.577784 127.193392 
C 63.459995 156.799438 71.419729 186.535702 88.910631 210.625263 
C 106.401533 234.714823 132.212512 251.489689 161.329219 257.690974 
L 186.434396 139.815393 
L 186.434396 19.296006 
z
" style="fill: #0000ff"/>
   </g>
   <g id="patch_3">
    <path d="M 161.329219 257.690974 
C 177.849696 261.20951 194.926827 261.216 211.449974 257.710021 
C 227.97312 254.204043 243.576143 247.263285 257.244275 237.339152 
C 270.912408 227.415018 282.342774 214.72742 290.791984 200.101514 
C 299.241193 185.475609 304.522018 169.235494 306.291011 152.437371 
C 308.060005 135.639249 306.277967 118.655351 301.060796 102.590253 
C 295.843625 86.525154 287.306929 71.734845 276.005905 59.181235 
C 264.704881 46.627625 250.889951 36.588893 235.45959 29.717923 
C 220.029229 22.846953 203.325363 19.296 186.434351 19.296006 
L 186.434396 139.815393 
L 161.329219 257.690974 
z
" style="fill: #bf00bf"/>
   </g>
   <g id="matplotlib.axis_1"/>
   <g id="matplotlib.axis_2"/>
  </g>
 </g>
</svg>
