<?xml version="1.0" encoding="utf-8" standalone="no"?>
<!DOCTYPE svg PUBLIC "-//W3C//DTD SVG 1.1//EN"
  "http://www.w3.org/Graphics/SVG/1.1/DTD/svg11.dtd">
<svg xmlns:xlink="http://www.w3.org/1999/xlink" width="371.52pt" height="280.512pt" viewBox="0 0 371.52 280.512" xmlns="http://www.w3.org/2000/svg" version="1.1">
 <metadata>
  <rdf:RDF xmlns:dc="http://purl.org/dc/elements/1.1/" xmlns:cc="http://creativecommons.org/ns#" xmlns:rdf="http://www.w3.org/1999/02/22-rdf-syntax-ns#">
   <cc:Work>
    <dc:type rdf:resource="http://purl.org/dc/dcmitype/StillImage"/>
    <dc:date>2021-12-10T18:12:51.045120</dc:date>
    <dc:format>image/svg+xml</dc:format>
    <dc:creator>
     <cc:Agent>
      <dc:title>Matplotlib v3.5.0, https://matplotlib.org/</dc:title>
     </cc:Agent>
    </dc:creator>
   </cc:Work>
  </rdf:RDF>
 </metadata>
 <defs>
  <style type="text/css">*{stroke-linejoin: round; stroke-linecap: butt}</style>
 </defs>
 <g id="figure_1">
  <g id="patch_1">
   <path d="M 0 280.512 
L 371.52 280.512 
L 371.52 0 
L 0 0 
L 0 280.512 
z
" style="fill: none"/>
  </g>
  <g id="axes_1">
   <g id="patch_2">
    <path d="M 186.698353 19.296 
C 159.589712 19.296 133.254737 28.422526 111.959438 45.19717 
C 90.664139 61.971813 75.624029 85.437097 69.275459 111.79187 
C 62.92689 138.146644 65.632231 165.886607 76.953243 190.518154 
C 88.274255 215.149701 107.564748 235.26689 131.699848 247.610932 
L 186.698353 140.077728 
L 186.698353 19.296 
z
" style="fill: #0000ff"/>
   </g>
   <g id="patch_3">
    <path d="M 131.699848 247.610932 
C 147.962733 255.928683 165.902621 260.449774 184.16514 260.832887 
C 202.42766 261.216 220.54137 257.451244 237.138774 249.82284 
C 253.736179 242.194436 268.388822 230.899308 279.990502 216.790183 
C 291.592182 202.681057 299.843405 186.122157 304.121244 168.363596 
C 308.399084 150.605036 308.59311 132.105246 304.688673 114.260869 
C 300.784236 96.416493 292.882129 79.688177 281.578922 65.338825 
C 270.275714 50.989474 255.863194 39.389511 239.429436 31.414677 
C 222.995678 23.439842 204.964913 19.296003 186.698376 19.296 
L 186.698353 140.077728 
L 131.699848 247.610932 
z
" style="fill: #ff0000"/>
   </g>
   <g id="matplotlib.axis_1"/>
   <g id="matplotlib.axis_2"/>
  </g>
 </g>
</svg>
