<?xml version="1.0" encoding="utf-8" standalone="no"?>
<!DOCTYPE svg PUBLIC "-//W3C//DTD SVG 1.1//EN"
  "http://www.w3.org/Graphics/SVG/1.1/DTD/svg11.dtd">
<svg xmlns:xlink="http://www.w3.org/1999/xlink" width="371.52pt" height="280.512pt" viewBox="0 0 371.52 280.512" xmlns="http://www.w3.org/2000/svg" version="1.1">
 <metadata>
  <rdf:RDF xmlns:dc="http://purl.org/dc/elements/1.1/" xmlns:cc="http://creativecommons.org/ns#" xmlns:rdf="http://www.w3.org/1999/02/22-rdf-syntax-ns#">
   <cc:Work>
    <dc:type rdf:resource="http://purl.org/dc/dcmitype/StillImage"/>
    <dc:date>2021-12-10T18:12:52.160134</dc:date>
    <dc:format>image/svg+xml</dc:format>
    <dc:creator>
     <cc:Agent>
      <dc:title>Matplotlib v3.5.0, https://matplotlib.org/</dc:title>
     </cc:Agent>
    </dc:creator>
   </cc:Work>
  </rdf:RDF>
 </metadata>
 <defs>
  <style type="text/css">*{stroke-linejoin: round; stroke-linecap: butt}</style>
 </defs>
 <g id="figure_1">
  <g id="patch_1">
   <path d="M 0 280.512 
L 371.52 280.512 
L 371.52 0 
L 0 0 
L 0 280.512 
z
" style="fill: none"/>
  </g>
  <g id="axes_1">
   <g id="patch_2">
    <path d="M 186.230018 19.296 
C 163.109723 19.296 140.473648 25.970335 121.051907 38.514019 
C 101.630165 51.057704 86.236277 68.945321 76.726882 90.019463 
C 67.217488 111.093606 63.990908 134.47154 67.436296 157.333678 
C 70.881684 180.195816 80.854724 201.584531 96.152578 218.920152 
L 186.230018 139.431131 
L 186.230018 19.296 
z
" style="fill: #0000ff"/>
   </g>
   <g id="patch_3">
    <path d="M 96.152578 218.920152 
C 109.433554 233.970235 126.276999 245.454593 145.138427 252.320151 
C 163.999854 259.185709 184.284578 261.216 204.13256 258.224854 
C 223.980542 255.233709 242.76599 247.315435 258.766344 235.19611 
C 274.766697 223.076786 287.477477 207.138524 295.73315 188.842809 
C 303.988822 170.547093 307.529092 150.470774 306.029329 130.454779 
C 304.529566 110.438784 298.037056 91.114203 287.147139 74.253033 
C 276.257223 57.391863 261.313251 43.525724 243.685535 33.926091 
C 226.057818 24.326459 206.302144 19.296004 186.230041 19.296 
L 186.230018 139.431131 
L 96.152578 218.920152 
z
" style="fill: #ff0000"/>
   </g>
   <g id="matplotlib.axis_1"/>
   <g id="matplotlib.axis_2"/>
  </g>
 </g>
</svg>
