<?xml version="1.0" encoding="utf-8" standalone="no"?>
<!DOCTYPE svg PUBLIC "-//W3C//DTD SVG 1.1//EN"
  "http://www.w3.org/Graphics/SVG/1.1/DTD/svg11.dtd">
<svg xmlns:xlink="http://www.w3.org/1999/xlink" width="371.52pt" height="280.512pt" viewBox="0 0 371.52 280.512" xmlns="http://www.w3.org/2000/svg" version="1.1">
 <metadata>
  <rdf:RDF xmlns:dc="http://purl.org/dc/elements/1.1/" xmlns:cc="http://creativecommons.org/ns#" xmlns:rdf="http://www.w3.org/1999/02/22-rdf-syntax-ns#">
   <cc:Work>
    <dc:type rdf:resource="http://purl.org/dc/dcmitype/StillImage"/>
    <dc:date>2022-01-14T17:15:33.035508</dc:date>
    <dc:format>image/svg+xml</dc:format>
    <dc:creator>
     <cc:Agent>
      <dc:title>Matplotlib v3.5.1, https://matplotlib.org/</dc:title>
     </cc:Agent>
    </dc:creator>
   </cc:Work>
  </rdf:RDF>
 </metadata>
 <defs>
  <style type="text/css">*{stroke-linejoin: round; stroke-linecap: butt}</style>
 </defs>
 <g id="figure_1">
  <g id="patch_1">
   <path d="M 0 280.512 
L 371.52 280.512 
L 371.52 0 
L 0 0 
L 0 280.512 
z
" style="fill: none"/>
  </g>
  <g id="axes_1">
   <g id="patch_2">
    <path d="M 186.244727 19.296007 
C 162.4844 19.296007 139.249344 26.342035 119.491014 39.539062 
C 99.732684 52.736088 84.324677 71.50062 75.224209 93.449073 
C 66.12374 115.397526 63.733181 139.559471 68.356193 162.865712 
C 72.979204 186.171953 84.411385 207.592027 101.200552 224.405028 
L 186.244727 139.481414 
L 186.244727 19.296007 
z
" style="fill: #0000ff; stroke: #000000; stroke-width: 2; stroke-linejoin: miter"/>
   </g>
   <g id="patch_3">
    <path d="M 101.200552 224.405028 
C 115.168071 238.392376 132.373024 248.720185 151.285376 254.470004 
C 170.197728 260.219822 190.239726 261.216 209.629036 257.369946 
C 229.018346 253.523893 247.162645 244.953101 262.448361 232.419771 
C 277.734077 219.886441 289.694247 203.773453 297.265254 185.513734 
C 304.836261 167.254016 307.786819 147.405382 305.854535 127.732971 
C 303.92225 108.060561 297.166152 89.165344 286.187061 72.727673 
C 275.207969 56.290003 260.341284 42.812031 242.909099 33.492353 
C 225.476913 24.172676 206.011762 19.296 186.244682 19.296007 
L 186.244727 139.481414 
L 101.200552 224.405028 
z
" style="fill: #ff0000; stroke: #000000; stroke-width: 2; stroke-linejoin: miter"/>
   </g>
   <g id="matplotlib.axis_1"/>
   <g id="matplotlib.axis_2"/>
  </g>
 </g>
</svg>
