<?xml version="1.0" encoding="utf-8" standalone="no"?>
<!DOCTYPE svg PUBLIC "-//W3C//DTD SVG 1.1//EN"
  "http://www.w3.org/Graphics/SVG/1.1/DTD/svg11.dtd">
<svg xmlns:xlink="http://www.w3.org/1999/xlink" width="371.52pt" height="280.512pt" viewBox="0 0 371.52 280.512" xmlns="http://www.w3.org/2000/svg" version="1.1">
 <metadata>
  <rdf:RDF xmlns:dc="http://purl.org/dc/elements/1.1/" xmlns:cc="http://creativecommons.org/ns#" xmlns:rdf="http://www.w3.org/1999/02/22-rdf-syntax-ns#">
   <cc:Work>
    <dc:type rdf:resource="http://purl.org/dc/dcmitype/StillImage"/>
    <dc:date>2021-11-24T20:23:19.031594</dc:date>
    <dc:format>image/svg+xml</dc:format>
    <dc:creator>
     <cc:Agent>
      <dc:title>Matplotlib v3.5.0, https://matplotlib.org/</dc:title>
     </cc:Agent>
    </dc:creator>
   </cc:Work>
  </rdf:RDF>
 </metadata>
 <defs>
  <style type="text/css">*{stroke-linejoin: round; stroke-linecap: butt}</style>
 </defs>
 <g id="figure_1">
  <g id="patch_1">
   <path d="M 0 280.512 
L 371.52 280.512 
L 371.52 0 
L 0 0 
L 0 280.512 
z
" style="fill: none"/>
  </g>
  <g id="axes_1">
   <g id="patch_2">
    <path d="M 186.578742 19.296 
C 157.560006 19.296 129.498173 29.791557 107.601822 48.834583 
C 85.705471 67.877609 71.418681 94.212203 67.393235 122.95038 
C 63.367789 151.688557 69.869167 180.935015 85.690644 205.261294 
C 101.512121 229.587574 125.61026 247.389341 153.512185 255.362396 
L 186.578742 139.645066 
L 186.578742 19.296 
z
" style="fill: #0000ff"/>
   </g>
   <g id="patch_3">
    <path d="M 153.512185 255.362396 
C 170.064079 260.092147 187.439729 261.216 204.463001 258.657884 
C 221.486272 256.099768 237.764204 249.918733 252.194965 240.533166 
C 266.625726 231.147599 278.8762 218.774153 288.117168 204.250372 
C 297.358136 189.72659 303.376283 173.387735 305.764247 156.339763 
C 308.152211 139.29179 306.85487 121.928232 301.960039 105.424403 
C 297.065208 88.920574 288.685878 73.657446 277.389235 60.668158 
C 266.092592 47.678871 252.139405 37.263266 236.474146 30.126363 
C 220.808887 22.989459 203.793169 19.296003 186.578764 19.296 
L 186.578742 139.645066 
L 153.512185 255.362396 
z
" style="fill: #bf00bf"/>
   </g>
   <g id="matplotlib.axis_1"/>
   <g id="matplotlib.axis_2"/>
  </g>
 </g>
</svg>
