<?xml version="1.0" encoding="utf-8" standalone="no"?>
<!DOCTYPE svg PUBLIC "-//W3C//DTD SVG 1.1//EN"
  "http://www.w3.org/Graphics/SVG/1.1/DTD/svg11.dtd">
<svg xmlns:xlink="http://www.w3.org/1999/xlink" width="371.52pt" height="280.512pt" viewBox="0 0 371.52 280.512" xmlns="http://www.w3.org/2000/svg" version="1.1">
 <metadata>
  <rdf:RDF xmlns:dc="http://purl.org/dc/elements/1.1/" xmlns:cc="http://creativecommons.org/ns#" xmlns:rdf="http://www.w3.org/1999/02/22-rdf-syntax-ns#">
   <cc:Work>
    <dc:type rdf:resource="http://purl.org/dc/dcmitype/StillImage"/>
    <dc:date>2021-12-10T18:12:58.719990</dc:date>
    <dc:format>image/svg+xml</dc:format>
    <dc:creator>
     <cc:Agent>
      <dc:title>Matplotlib v3.5.0, https://matplotlib.org/</dc:title>
     </cc:Agent>
    </dc:creator>
   </cc:Work>
  </rdf:RDF>
 </metadata>
 <defs>
  <style type="text/css">*{stroke-linejoin: round; stroke-linecap: butt}</style>
 </defs>
 <g id="figure_1">
  <g id="patch_1">
   <path d="M 0 280.512 
L 371.52 280.512 
L 371.52 0 
L 0 0 
L 0 280.512 
z
" style="fill: none"/>
  </g>
  <g id="axes_1">
   <g id="patch_2">
    <path d="M 186.083291 19.296004 
C 161.040341 19.296004 136.612351 27.120541 116.22998 41.670739 
C 95.847609 56.220938 80.511884 76.782203 72.376549 100.466917 
C 64.241215 124.151631 63.705817 149.796581 70.845546 173.800197 
C 77.985276 197.803813 92.449484 218.987221 112.206821 234.37543 
L 186.083291 139.523432 
L 186.083291 19.296004 
z
" style="fill: #0000ff"/>
   </g>
   <g id="patch_3">
    <path d="M 112.206821 234.37543 
C 127.308554 246.137573 145.003223 254.124797 163.813834 257.670398 
C 182.624445 261.216 202.012639 260.218505 220.360062 254.761175 
C 238.707484 249.303845 255.489033 239.542868 269.303935 226.293005 
C 283.118836 213.043142 293.571707 196.683603 299.790036 178.579935 
C 306.008365 160.476268 307.814183 141.1466 305.056757 122.204399 
C 302.29933 103.262198 295.057577 85.24959 283.935973 69.670107 
C 272.81437 54.090623 258.131216 41.390149 241.112132 32.628805 
C 224.093047 23.867462 205.225117 19.296 186.083268 19.296004 
L 186.083291 139.523432 
L 112.206821 234.37543 
z
" style="fill: #ff0000"/>
   </g>
   <g id="matplotlib.axis_1"/>
   <g id="matplotlib.axis_2"/>
  </g>
 </g>
</svg>
