<?xml version="1.0" encoding="utf-8" standalone="no"?>
<!DOCTYPE svg PUBLIC "-//W3C//DTD SVG 1.1//EN"
  "http://www.w3.org/Graphics/SVG/1.1/DTD/svg11.dtd">
<svg xmlns:xlink="http://www.w3.org/1999/xlink" width="371.52pt" height="280.512pt" viewBox="0 0 371.52 280.512" xmlns="http://www.w3.org/2000/svg" version="1.1">
 <metadata>
  <rdf:RDF xmlns:dc="http://purl.org/dc/elements/1.1/" xmlns:cc="http://creativecommons.org/ns#" xmlns:rdf="http://www.w3.org/1999/02/22-rdf-syntax-ns#">
   <cc:Work>
    <dc:type rdf:resource="http://purl.org/dc/dcmitype/StillImage"/>
    <dc:date>2021-11-24T20:23:21.664877</dc:date>
    <dc:format>image/svg+xml</dc:format>
    <dc:creator>
     <cc:Agent>
      <dc:title>Matplotlib v3.5.0, https://matplotlib.org/</dc:title>
     </cc:Agent>
    </dc:creator>
   </cc:Work>
  </rdf:RDF>
 </metadata>
 <defs>
  <style type="text/css">*{stroke-linejoin: round; stroke-linecap: butt}</style>
 </defs>
 <g id="figure_1">
  <g id="patch_1">
   <path d="M 0 280.512 
L 371.52 280.512 
L 371.52 0 
L 0 0 
L 0 280.512 
z
" style="fill: none"/>
  </g>
  <g id="axes_1">
   <g id="patch_2">
    <path d="M 186.684643 19.296 
C 158.334797 19.296 130.875942 29.308192 109.17979 47.556226 
C 87.483638 65.80426 72.91394 91.141123 68.055633 119.071583 
C 63.197326 147.002043 68.355786 175.770481 82.615808 200.272839 
C 96.87583 224.775197 119.341073 243.471334 146.025784 253.044209 
L 186.684643 139.706266 
L 186.684643 19.296 
z
" style="fill: #0000ff"/>
   </g>
   <g id="patch_3">
    <path d="M 146.025784 253.044209 
C 162.55312 258.973226 180.179058 261.216 197.66455 259.614871 
C 215.150043 258.013743 232.075534 252.60713 247.251216 243.7751 
C 262.426897 234.943071 275.488636 222.897545 285.518233 208.485285 
C 295.547831 194.073025 302.304631 177.639846 305.313653 160.340948 
C 308.322674 143.042051 307.511717 125.292514 302.937789 108.340073 
C 298.363861 91.387633 290.136712 75.639054 278.834683 62.201413 
C 267.532654 48.763771 253.426933 37.959497 237.509106 30.548096 
C 221.59128 23.136695 204.243289 19.296 186.684643 19.296 
L 186.684643 139.706266 
L 146.025784 253.044209 
z
" style="fill: #bf00bf"/>
   </g>
   <g id="matplotlib.axis_1"/>
   <g id="matplotlib.axis_2"/>
  </g>
 </g>
</svg>
