<?xml version="1.0" encoding="utf-8" standalone="no"?>
<!DOCTYPE svg PUBLIC "-//W3C//DTD SVG 1.1//EN"
  "http://www.w3.org/Graphics/SVG/1.1/DTD/svg11.dtd">
<svg xmlns:xlink="http://www.w3.org/1999/xlink" width="371.52pt" height="280.512pt" viewBox="0 0 371.52 280.512" xmlns="http://www.w3.org/2000/svg" version="1.1">
 <metadata>
  <rdf:RDF xmlns:dc="http://purl.org/dc/elements/1.1/" xmlns:cc="http://creativecommons.org/ns#" xmlns:rdf="http://www.w3.org/1999/02/22-rdf-syntax-ns#">
   <cc:Work>
    <dc:type rdf:resource="http://purl.org/dc/dcmitype/StillImage"/>
    <dc:date>2021-11-24T20:23:23.494986</dc:date>
    <dc:format>image/svg+xml</dc:format>
    <dc:creator>
     <cc:Agent>
      <dc:title>Matplotlib v3.5.0, https://matplotlib.org/</dc:title>
     </cc:Agent>
    </dc:creator>
   </cc:Work>
  </rdf:RDF>
 </metadata>
 <defs>
  <style type="text/css">*{stroke-linejoin: round; stroke-linecap: butt}</style>
 </defs>
 <g id="figure_1">
  <g id="patch_1">
   <path d="M 0 280.512 
L 371.52 280.512 
L 371.52 0 
L 0 0 
L 0 280.512 
z
" style="fill: none"/>
  </g>
  <g id="axes_1">
   <g id="patch_2">
    <path d="M 185.548846 19.296012 
C 169.430387 19.296012 153.474275 22.527231 138.625741 28.798254 
C 123.777206 35.069278 110.335361 44.25378 99.096492 55.807677 
C 87.857623 67.361574 79.048128 81.052122 73.189877 96.0683 
C 67.331626 111.084478 64.542629 127.123798 64.988103 143.2361 
C 65.433578 159.348402 69.10455 175.209116 75.783555 189.878663 
C 82.46256 204.54821 92.015053 217.731083 103.875151 228.646338 
C 115.73525 239.561592 129.66404 247.989349 144.83639 253.430352 
C 160.00874 258.871355 176.119014 261.216 192.212849 260.325391 
L 185.548846 139.902825 
L 185.548846 19.296012 
z
" style="fill: #0000ff"/>
   </g>
   <g id="patch_3">
    <path d="M 192.212849 260.325391 
C 223.563388 258.5905 253.029623 244.679799 274.292366 221.576511 
C 295.555109 198.473224 306.977371 167.956039 306.109588 136.569528 
C 305.241805 105.183016 292.150786 75.343582 269.643969 53.450447 
C 247.137153 31.557313 216.947306 19.296 185.548801 19.296012 
L 185.548846 139.902825 
L 192.212849 260.325391 
z
" style="fill: #bf00bf"/>
   </g>
   <g id="matplotlib.axis_1"/>
   <g id="matplotlib.axis_2"/>
  </g>
 </g>
</svg>
