<?xml version="1.0" encoding="utf-8" standalone="no"?>
<!DOCTYPE svg PUBLIC "-//W3C//DTD SVG 1.1//EN"
  "http://www.w3.org/Graphics/SVG/1.1/DTD/svg11.dtd">
<svg xmlns:xlink="http://www.w3.org/1999/xlink" width="725.83605pt" height="721.24614pt" viewBox="0 0 725.83605 721.24614" xmlns="http://www.w3.org/2000/svg" version="1.1">
 <metadata>
  <rdf:RDF xmlns:dc="http://purl.org/dc/elements/1.1/" xmlns:cc="http://creativecommons.org/ns#" xmlns:rdf="http://www.w3.org/1999/02/22-rdf-syntax-ns#">
   <cc:Work>
    <dc:type rdf:resource="http://purl.org/dc/dcmitype/StillImage"/>
    <dc:date>2022-01-14T17:05:43.111876</dc:date>
    <dc:format>image/svg+xml</dc:format>
    <dc:creator>
     <cc:Agent>
      <dc:title>Matplotlib v3.5.1, https://matplotlib.org/</dc:title>
     </cc:Agent>
    </dc:creator>
   </cc:Work>
  </rdf:RDF>
 </metadata>
 <defs>
  <style type="text/css">*{stroke-linejoin: round; stroke-linecap: butt}</style>
 </defs>
 <g id="figure_1">
  <g id="patch_1">
   <path d="M 0 721.24614 
L 725.83605 721.24614 
L 725.83605 0 
L 0 0 
L 0 721.24614 
z
" style="fill: none"/>
  </g>
  <g id="axes_1">
   <g id="patch_2">
    <path d="M 362.683132 37.497915 
C 320.005913 37.497915 277.749624 45.964285 238.366565 62.405687 
C 198.983506 78.84709 163.250557 102.939198 133.241441 133.283852 
C 103.232325 163.628506 79.53901 199.627119 63.536512 239.190551 
C 47.534014 278.753983 39.538002 321.101794 40.012517 363.776376 
C 40.487032 406.450957 49.422714 448.610499 66.300988 487.808316 
C 83.179263 527.006134 107.667186 562.469002 138.343626 592.13887 
C 169.020067 621.808738 205.279894 645.100331 245.018807 660.661946 
C 284.75772 676.22356 327.191819 683.748225 369.858486 682.799254 
L 362.683132 360.188477 
L 362.683132 37.497915 
z
" style="fill: #0000ff; stroke: #000000; stroke-linejoin: miter"/>
   </g>
   <g id="patch_3">
    <path d="M 369.858486 682.799254 
C 454.767198 680.910755 535.589054 645.575577 594.633515 584.527994 
C 653.677976 523.480411 686.298048 441.525069 685.353748 356.600609 
C 684.409448 271.676148 649.975096 190.466403 589.58779 130.746817 
C 529.200484 71.027231 447.612904 37.497931 362.683193 37.497915 
L 362.683132 360.188477 
L 369.858486 682.799254 
z
" style="fill: #ff0000; stroke: #000000; stroke-linejoin: miter"/>
   </g>
   <g id="matplotlib.axis_1"/>
   <g id="matplotlib.axis_2"/>
  </g>
 </g>
</svg>
