<?xml version="1.0" encoding="utf-8" standalone="no"?>
<!DOCTYPE svg PUBLIC "-//W3C//DTD SVG 1.1//EN"
  "http://www.w3.org/Graphics/SVG/1.1/DTD/svg11.dtd">
<svg xmlns:xlink="http://www.w3.org/1999/xlink" width="73.14345pt" height="72.76446pt" viewBox="0 0 73.14345 72.76446" xmlns="http://www.w3.org/2000/svg" version="1.1">
 <metadata>
  <rdf:RDF xmlns:dc="http://purl.org/dc/elements/1.1/" xmlns:cc="http://creativecommons.org/ns#" xmlns:rdf="http://www.w3.org/1999/02/22-rdf-syntax-ns#">
   <cc:Work>
    <dc:type rdf:resource="http://purl.org/dc/dcmitype/StillImage"/>
    <dc:date>2021-12-14T09:20:47.856853</dc:date>
    <dc:format>image/svg+xml</dc:format>
    <dc:creator>
     <cc:Agent>
      <dc:title>Matplotlib v3.5.0, https://matplotlib.org/</dc:title>
     </cc:Agent>
    </dc:creator>
   </cc:Work>
  </rdf:RDF>
 </metadata>
 <defs>
  <style type="text/css">*{stroke-linejoin: round; stroke-linecap: butt}</style>
 </defs>
 <g id="figure_1">
  <g id="patch_1">
   <path d="M 0 72.76446 
L 73.14345 72.76446 
L 73.14345 0 
L 0 0 
L 0 72.76446 
z
" style="fill: none"/>
  </g>
  <g id="axes_1">
   <g id="patch_2">
    <path d="M 36.77392 9.85293 
C 30.551868 9.85293 24.525654 12.051951 19.765923 16.059306 
C 15.006191 20.06666 11.812566 25.630086 10.752441 31.76116 
C 9.692316 37.892234 10.832426 44.205007 13.970213 49.577922 
C 17.108 54.950838 22.045943 59.045674 27.906742 61.134922 
L 36.77392 36.260538 
L 36.77392 9.85293 
z
" style="fill: #0000ff"/>
   </g>
   <g id="patch_3">
    <path d="M 27.906742 61.134922 
C 31.531909 62.427215 35.39614 62.91153 39.228101 62.55386 
C 43.060063 62.19619 46.767915 61.005108 50.091303 59.064246 
C 53.414692 57.123385 56.273966 54.47926 58.468357 51.317536 
C 60.662748 48.155811 62.139664 44.552262 62.795399 40.759919 
C 63.451134 36.967576 63.269973 33.077329 62.264636 29.362338 
C 61.2593 25.647348 59.453883 22.196651 56.975155 19.252544 
C 54.496428 16.308437 51.403797 13.941481 47.914419 12.317876 
C 44.42504 10.694272 40.622542 9.852931 36.773925 9.85293 
L 36.77392 36.260538 
L 27.906742 61.134922 
z
" style="fill: #ff0000"/>
   </g>
   <g id="matplotlib.axis_1"/>
   <g id="matplotlib.axis_2"/>
  </g>
 </g>
</svg>
