<?xml version="1.0" encoding="utf-8" standalone="no"?>
<!DOCTYPE svg PUBLIC "-//W3C//DTD SVG 1.1//EN"
  "http://www.w3.org/Graphics/SVG/1.1/DTD/svg11.dtd">
<svg xmlns:xlink="http://www.w3.org/1999/xlink" width="371.52pt" height="280.512pt" viewBox="0 0 371.52 280.512" xmlns="http://www.w3.org/2000/svg" version="1.1">
 <metadata>
  <rdf:RDF xmlns:dc="http://purl.org/dc/elements/1.1/" xmlns:cc="http://creativecommons.org/ns#" xmlns:rdf="http://www.w3.org/1999/02/22-rdf-syntax-ns#">
   <cc:Work>
    <dc:type rdf:resource="http://purl.org/dc/dcmitype/StillImage"/>
    <dc:date>2021-12-03T16:09:58.573982</dc:date>
    <dc:format>image/svg+xml</dc:format>
    <dc:creator>
     <cc:Agent>
      <dc:title>Matplotlib v3.5.0, https://matplotlib.org/</dc:title>
     </cc:Agent>
    </dc:creator>
   </cc:Work>
  </rdf:RDF>
 </metadata>
 <defs>
  <style type="text/css">*{stroke-linejoin: round; stroke-linecap: butt}</style>
 </defs>
 <g id="figure_1">
  <g id="patch_1">
   <path d="M 0 280.512 
L 371.52 280.512 
L 371.52 0 
L 0 0 
L 0 280.512 
z
" style="fill: none"/>
  </g>
  <g id="axes_1">
   <g id="patch_2">
    <path d="M 185.130165 19.296 
C 168.338072 19.296 151.730018 22.807097 136.374717 29.603356 
C 121.019415 36.399615 107.253452 46.332063 95.962654 58.761556 
C 84.671856 71.191049 76.103715 85.845134 70.809583 101.780836 
C 65.515452 117.716538 63.611376 134.584547 65.219881 151.299425 
C 66.828386 168.014302 71.914214 184.20966 80.150097 198.843342 
C 88.38598 213.477024 99.591388 226.228262 113.045265 236.276527 
C 126.499141 246.324791 141.906579 253.449826 158.276124 257.193141 
C 174.645669 260.936457 191.618504 261.216 208.102442 258.013783 
L 185.130165 139.760225 
L 185.130165 19.296 
z
" style="fill: #0000ff"/>
   </g>
   <g id="patch_3">
    <path d="M 208.102442 258.013783 
C 237.495468 252.303809 263.729088 235.835157 281.646464 211.84513 
C 299.56384 187.855103 307.908624 158.025857 305.040451 128.221036 
C 302.172278 98.416215 288.292262 70.725703 266.128847 50.592725 
C 243.965432 30.459746 215.072696 19.296006 185.130188 19.296 
L 185.130165 139.760225 
L 208.102442 258.013783 
z
" style="fill: #bf00bf"/>
   </g>
   <g id="matplotlib.axis_1"/>
   <g id="matplotlib.axis_2"/>
  </g>
 </g>
</svg>
