<?xml version="1.0" encoding="utf-8" standalone="no"?>
<!DOCTYPE svg PUBLIC "-//W3C//DTD SVG 1.1//EN"
  "http://www.w3.org/Graphics/SVG/1.1/DTD/svg11.dtd">
<svg xmlns:xlink="http://www.w3.org/1999/xlink" width="63.96435pt" height="63.64458pt" viewBox="0 0 63.96435 63.64458" xmlns="http://www.w3.org/2000/svg" version="1.1">
 <metadata>
  <rdf:RDF xmlns:dc="http://purl.org/dc/elements/1.1/" xmlns:cc="http://creativecommons.org/ns#" xmlns:rdf="http://www.w3.org/1999/02/22-rdf-syntax-ns#">
   <cc:Work>
    <dc:type rdf:resource="http://purl.org/dc/dcmitype/StillImage"/>
    <dc:date>2021-12-14T09:20:48.729500</dc:date>
    <dc:format>image/svg+xml</dc:format>
    <dc:creator>
     <cc:Agent>
      <dc:title>Matplotlib v3.5.0, https://matplotlib.org/</dc:title>
     </cc:Agent>
    </dc:creator>
   </cc:Work>
  </rdf:RDF>
 </metadata>
 <defs>
  <style type="text/css">*{stroke-linejoin: round; stroke-linecap: butt}</style>
 </defs>
 <g id="figure_1">
  <g id="patch_1">
   <path d="M 0 63.64458 
L 63.96435 63.64458 
L 63.96435 0 
L 0 0 
L 0 63.64458 
z
" style="fill: none"/>
  </g>
  <g id="axes_1">
   <g id="patch_2">
    <path d="M 31.866008 9.43839 
C 28.768852 9.43839 25.705641 10.088126 22.87349 11.345788 
C 20.041338 12.60345 17.502326 14.44147 15.419837 16.741573 
C 13.337347 19.041677 11.757028 21.753446 10.780572 24.702381 
C 9.804115 27.651316 9.452925 30.772776 9.7496 33.865899 
C 10.046275 36.959022 10.984311 39.956006 12.503348 42.664 
C 14.022385 45.371993 16.089125 47.731636 18.570575 49.591089 
C 21.052026 51.450541 23.893793 52.769043 26.913013 53.461752 
C 29.932233 54.15446 33.062725 54.20619 36.103044 53.613613 
L 31.866008 31.730546 
L 31.866008 9.43839 
z
" style="fill: #0000ff"/>
   </g>
   <g id="patch_3">
    <path d="M 36.103044 53.613613 
C 41.524332 52.55697 46.362894 49.509412 49.667598 45.070008 
C 52.972302 40.630603 54.511425 35.110639 53.982415 29.595195 
C 53.453406 24.079751 50.893358 18.955564 46.805509 15.229914 
C 42.71766 11.504264 37.388647 9.438391 31.866012 9.43839 
L 31.866008 31.730546 
L 36.103044 53.613613 
z
" style="fill: #ff0000"/>
   </g>
   <g id="matplotlib.axis_1"/>
   <g id="matplotlib.axis_2"/>
  </g>
 </g>
</svg>
