<?xml version="1.0" encoding="utf-8" standalone="no"?>
<!DOCTYPE svg PUBLIC "-//W3C//DTD SVG 1.1//EN"
  "http://www.w3.org/Graphics/SVG/1.1/DTD/svg11.dtd">
<svg xmlns:xlink="http://www.w3.org/1999/xlink" width="73.9386pt" height="73.55448pt" viewBox="0 0 73.9386 73.55448" xmlns="http://www.w3.org/2000/svg" version="1.1">
 <metadata>
  <rdf:RDF xmlns:dc="http://purl.org/dc/elements/1.1/" xmlns:cc="http://creativecommons.org/ns#" xmlns:rdf="http://www.w3.org/1999/02/22-rdf-syntax-ns#">
   <cc:Work>
    <dc:type rdf:resource="http://purl.org/dc/dcmitype/StillImage"/>
    <dc:date>2021-12-14T09:20:49.625877</dc:date>
    <dc:format>image/svg+xml</dc:format>
    <dc:creator>
     <cc:Agent>
      <dc:title>Matplotlib v3.5.0, https://matplotlib.org/</dc:title>
     </cc:Agent>
    </dc:creator>
   </cc:Work>
  </rdf:RDF>
 </metadata>
 <defs>
  <style type="text/css">*{stroke-linejoin: round; stroke-linecap: butt}</style>
 </defs>
 <g id="figure_1">
  <g id="patch_1">
   <path d="M 0 73.55448 
L 73.9386 73.55448 
L 73.9386 0 
L 0 0 
L 0 73.55448 
z
" style="fill: none"/>
  </g>
  <g id="axes_1">
   <g id="patch_2">
    <path d="M 36.814425 9.888841 
C 33.066011 9.888841 29.359404 10.683122 25.937231 12.219691 
C 22.515058 13.75626 19.453654 16.000843 16.953414 18.806513 
C 14.453175 21.612183 12.569869 24.916357 11.426776 28.502748 
C 10.283683 32.08914 9.9063 35.877751 10.31933 39.620587 
C 10.73236 43.363422 11.92659 46.976993 13.823848 50.224762 
C 15.721106 53.472531 18.279071 56.282052 21.330303 58.46942 
C 24.381535 60.656788 27.857974 62.17321 31.532057 62.919425 
C 35.206141 63.66564 38.995914 63.625002 42.653306 62.800171 
L 36.814425 36.669663 
L 36.814425 9.888841 
z
" style="fill: #0000ff"/>
   </g>
   <g id="patch_3">
    <path d="M 42.653306 62.800171 
C 49.053542 61.356762 54.703596 57.589671 58.513732 52.225463 
C 62.323868 46.861255 64.0323 40.268493 63.309519 33.718736 
C 62.586739 27.168978 59.482406 21.112245 54.59526 16.716708 
C 49.708114 12.321172 43.373939 9.88884 36.81442 9.888841 
L 36.814425 36.669663 
L 42.653306 62.800171 
z
" style="fill: #ff0000"/>
   </g>
   <g id="matplotlib.axis_1"/>
   <g id="matplotlib.axis_2"/>
  </g>
 </g>
</svg>
