<?xml version="1.0" encoding="utf-8" standalone="no"?>
<!DOCTYPE svg PUBLIC "-//W3C//DTD SVG 1.1//EN"
  "http://www.w3.org/Graphics/SVG/1.1/DTD/svg11.dtd">
<svg xmlns:xlink="http://www.w3.org/1999/xlink" width="371.52pt" height="280.512pt" viewBox="0 0 371.52 280.512" xmlns="http://www.w3.org/2000/svg" version="1.1">
 <metadata>
  <rdf:RDF xmlns:dc="http://purl.org/dc/elements/1.1/" xmlns:cc="http://creativecommons.org/ns#" xmlns:rdf="http://www.w3.org/1999/02/22-rdf-syntax-ns#">
   <cc:Work>
    <dc:type rdf:resource="http://purl.org/dc/dcmitype/StillImage"/>
    <dc:date>2021-12-03T16:09:59.530991</dc:date>
    <dc:format>image/svg+xml</dc:format>
    <dc:creator>
     <cc:Agent>
      <dc:title>Matplotlib v3.5.0, https://matplotlib.org/</dc:title>
     </cc:Agent>
    </dc:creator>
   </cc:Work>
  </rdf:RDF>
 </metadata>
 <defs>
  <style type="text/css">*{stroke-linejoin: round; stroke-linecap: butt}</style>
 </defs>
 <g id="figure_1">
  <g id="patch_1">
   <path d="M 0 280.512 
L 371.52 280.512 
L 371.52 0 
L 0 0 
L 0 280.512 
z
" style="fill: none"/>
  </g>
  <g id="axes_1">
   <g id="patch_2">
    <path d="M 185.060054 19.296006 
C 168.119401 19.296006 151.367689 22.869152 135.901454 29.781553 
C 120.435219 36.693955 106.599453 46.791422 95.299822 59.412992 
C 84.00019 72.034563 75.488744 86.898699 70.322627 103.032419 
C 65.15651 119.16614 63.450958 136.209566 65.317614 153.047063 
C 67.18427 169.88456 72.581496 186.14055 81.155999 200.750944 
C 89.730502 215.361338 101.291018 228.000235 115.080816 237.840315 
C 128.870614 247.680395 144.582098 254.502165 161.186821 257.859082 
C 177.791543 261.216 194.919119 261.033186 211.448405 257.322607 
L 185.060054 139.772053 
L 185.060054 19.296006 
z
" style="fill: #0000ff"/>
   </g>
   <g id="patch_3">
    <path d="M 211.448405 257.322607 
C 240.373755 250.829296 265.908718 233.882681 283.12832 209.751286 
C 300.347922 185.619891 308.069042 155.961732 304.802493 126.497031 
C 301.535944 97.03233 287.506164 69.785544 265.419102 50.011809 
C 243.332039 30.238073 214.705249 19.296 185.060032 19.296006 
L 185.060054 139.772053 
L 211.448405 257.322607 
z
" style="fill: #bf00bf"/>
   </g>
   <g id="matplotlib.axis_1"/>
   <g id="matplotlib.axis_2"/>
  </g>
 </g>
</svg>
