<?xml version="1.0" encoding="utf-8" standalone="no"?>
<!DOCTYPE svg PUBLIC "-//W3C//DTD SVG 1.1//EN"
  "http://www.w3.org/Graphics/SVG/1.1/DTD/svg11.dtd">
<svg xmlns:xlink="http://www.w3.org/1999/xlink" width="194.95485pt" height="193.78998pt" viewBox="0 0 194.95485 193.78998" xmlns="http://www.w3.org/2000/svg" version="1.1">
 <metadata>
  <rdf:RDF xmlns:dc="http://purl.org/dc/elements/1.1/" xmlns:cc="http://creativecommons.org/ns#" xmlns:rdf="http://www.w3.org/1999/02/22-rdf-syntax-ns#">
   <cc:Work>
    <dc:type rdf:resource="http://purl.org/dc/dcmitype/StillImage"/>
    <dc:date>2021-12-14T09:20:50.510931</dc:date>
    <dc:format>image/svg+xml</dc:format>
    <dc:creator>
     <cc:Agent>
      <dc:title>Matplotlib v3.5.0, https://matplotlib.org/</dc:title>
     </cc:Agent>
    </dc:creator>
   </cc:Work>
  </rdf:RDF>
 </metadata>
 <defs>
  <style type="text/css">*{stroke-linejoin: round; stroke-linecap: butt}</style>
 </defs>
 <g id="figure_1">
  <g id="patch_1">
   <path d="M 0 193.78998 
L 194.95485 193.78998 
L 194.95485 0 
L 0 0 
L 0 193.78998 
z
" style="fill: none"/>
  </g>
  <g id="axes_1">
   <g id="patch_2">
    <path d="M 97.179696 15.35409 
C 86.08569 15.35409 75.108364 17.624524 64.926158 22.025069 
C 54.743953 26.425614 45.571047 32.863708 37.974361 40.94145 
C 30.377676 49.019193 24.517005 58.566671 20.75456 68.993816 
C 16.992115 79.42096 15.407039 90.508438 16.097294 101.571001 
C 16.787549 112.633564 19.738618 123.438515 24.768111 133.318067 
C 29.797604 143.197618 36.799729 151.943956 45.341728 159.016524 
C 53.883726 166.089092 63.78592 171.339121 74.436315 174.442138 
C 85.08671 177.545155 96.261279 178.43589 107.269391 177.059292 
L 97.179696 96.520902 
L 97.179696 15.35409 
z
" style="fill: #0000ff"/>
   </g>
   <g id="patch_3">
    <path d="M 107.269391 177.059292 
C 127.773805 174.495152 146.545852 164.208876 159.731517 148.312297 
C 172.917182 132.415718 179.547811 112.076642 178.262097 91.470803 
C 176.976383 70.864963 167.868778 51.50612 152.809127 37.36876 
C 137.749476 23.231399 117.844102 15.35409 97.179696 15.35409 
L 97.179696 96.520902 
L 107.269391 177.059292 
z
" style="fill: #ff0000"/>
   </g>
   <g id="matplotlib.axis_1"/>
   <g id="matplotlib.axis_2"/>
  </g>
 </g>
</svg>
