<?xml version="1.0" encoding="utf-8" standalone="no"?>
<!DOCTYPE svg PUBLIC "-//W3C//DTD SVG 1.1//EN"
  "http://www.w3.org/Graphics/SVG/1.1/DTD/svg11.dtd">
<svg xmlns:xlink="http://www.w3.org/1999/xlink" width="41.72805pt" height="41.55174pt" viewBox="0 0 41.72805 41.55174" xmlns="http://www.w3.org/2000/svg" version="1.1">
 <metadata>
  <rdf:RDF xmlns:dc="http://purl.org/dc/elements/1.1/" xmlns:cc="http://creativecommons.org/ns#" xmlns:rdf="http://www.w3.org/1999/02/22-rdf-syntax-ns#">
   <cc:Work>
    <dc:type rdf:resource="http://purl.org/dc/dcmitype/StillImage"/>
    <dc:date>2021-12-14T09:20:51.431749</dc:date>
    <dc:format>image/svg+xml</dc:format>
    <dc:creator>
     <cc:Agent>
      <dc:title>Matplotlib v3.5.0, https://matplotlib.org/</dc:title>
     </cc:Agent>
    </dc:creator>
   </cc:Work>
  </rdf:RDF>
 </metadata>
 <defs>
  <style type="text/css">*{stroke-linejoin: round; stroke-linecap: butt}</style>
 </defs>
 <g id="figure_1">
  <g id="patch_1">
   <path d="M 0 41.55174 
L 41.72805 41.55174 
L 41.72805 0 
L 0 0 
L 0 41.55174 
z
" style="fill: none"/>
  </g>
  <g id="axes_1">
   <g id="patch_2">
    <path d="M 20.853023 8.366184 
C 19.211824 8.366184 17.586863 8.692288 16.072742 9.325511 
C 14.55862 9.958735 13.185301 10.886546 12.032734 12.054932 
C 10.880167 13.223318 9.97116 14.609156 9.358634 16.131769 
C 8.746108 17.654381 8.442184 19.283635 8.464555 20.924682 
C 8.486925 22.56573 8.835149 24.186094 9.488952 25.691444 
C 10.142755 27.196794 11.089199 28.557338 12.273187 29.693873 
C 13.457175 30.830407 14.855275 31.720438 16.386095 32.312153 
C 17.916915 32.903868 19.55016 33.185556 21.19075 33.140819 
L 20.853023 20.755803 
L 20.853023 8.366184 
z
" style="fill: #0000ff"/>
   </g>
   <g id="patch_3">
    <path d="M 21.19075 33.140819 
C 24.445015 33.052078 27.536669 31.684191 29.791092 29.33564 
C 32.045515 26.987089 33.285866 23.842097 33.241492 20.586925 
C 33.197118 17.331753 31.871499 14.221741 29.553896 11.935515 
C 27.236293 9.649289 24.1085 8.366184 20.853026 8.366184 
L 20.853023 20.755803 
L 21.19075 33.140819 
z
" style="fill: #ff0000"/>
   </g>
   <g id="matplotlib.axis_1"/>
   <g id="matplotlib.axis_2"/>
  </g>
 </g>
</svg>
