<?xml version="1.0" encoding="utf-8" standalone="no"?>
<!DOCTYPE svg PUBLIC "-//W3C//DTD SVG 1.1//EN"
  "http://www.w3.org/Graphics/SVG/1.1/DTD/svg11.dtd">
<svg xmlns:xlink="http://www.w3.org/1999/xlink" width="371.52pt" height="280.512pt" viewBox="0 0 371.52 280.512" xmlns="http://www.w3.org/2000/svg" version="1.1">
 <metadata>
  <rdf:RDF xmlns:dc="http://purl.org/dc/elements/1.1/" xmlns:cc="http://creativecommons.org/ns#" xmlns:rdf="http://www.w3.org/1999/02/22-rdf-syntax-ns#">
   <cc:Work>
    <dc:type rdf:resource="http://purl.org/dc/dcmitype/StillImage"/>
    <dc:date>2021-12-03T16:10:02.364593</dc:date>
    <dc:format>image/svg+xml</dc:format>
    <dc:creator>
     <cc:Agent>
      <dc:title>Matplotlib v3.5.0, https://matplotlib.org/</dc:title>
     </cc:Agent>
    </dc:creator>
   </cc:Work>
  </rdf:RDF>
 </metadata>
 <defs>
  <style type="text/css">*{stroke-linejoin: round; stroke-linecap: butt}</style>
 </defs>
 <g id="figure_1">
  <g id="patch_1">
   <path d="M 0 280.512 
L 371.52 280.512 
L 371.52 0 
L 0 0 
L 0 280.512 
z
" style="fill: none"/>
  </g>
  <g id="axes_1">
   <g id="patch_2">
    <path d="M 186.184517 19.296 
C 155.499798 19.296 125.946374 31.0252 103.612814 52.06716 
C 81.279255 73.109121 67.812363 101.912277 65.986575 132.542629 
C 64.160788 163.172981 74.110732 193.371948 93.78653 216.917966 
C 113.462327 240.463984 141.41315 255.620847 171.880595 259.265953 
L 186.184517 139.707284 
L 186.184517 19.296 
z
" style="fill: #0000ff"/>
   </g>
   <g id="patch_3">
    <path d="M 171.880595 259.265953 
C 188.179973 261.216 204.707277 259.812477 220.444417 255.14184 
C 236.181557 250.471203 250.798623 242.631368 263.395199 232.105271 
C 275.991774 221.579174 286.303786 208.587483 293.696011 193.93049 
C 301.088236 179.273497 305.405704 163.25847 306.382458 146.87194 
C 307.359212 130.485409 304.974776 114.070901 299.376031 98.639553 
C 293.777286 83.208206 285.081603 69.08352 273.824641 57.135582 
C 262.567678 45.187644 248.985425 35.666928 233.914553 29.159914 
C 218.84368 22.6529 202.600132 19.296 186.184517 19.296 
L 186.184517 139.707284 
L 171.880595 259.265953 
z
" style="fill: #bf00bf"/>
   </g>
   <g id="matplotlib.axis_1"/>
   <g id="matplotlib.axis_2"/>
  </g>
 </g>
</svg>
