<?xml version="1.0" encoding="utf-8" standalone="no"?>
<!DOCTYPE svg PUBLIC "-//W3C//DTD SVG 1.1//EN"
  "http://www.w3.org/Graphics/SVG/1.1/DTD/svg11.dtd">
<svg xmlns:xlink="http://www.w3.org/1999/xlink" width="159.8985pt" height="158.9598pt" viewBox="0 0 159.8985 158.9598" xmlns="http://www.w3.org/2000/svg" version="1.1">
 <metadata>
  <rdf:RDF xmlns:dc="http://purl.org/dc/elements/1.1/" xmlns:cc="http://creativecommons.org/ns#" xmlns:rdf="http://www.w3.org/1999/02/22-rdf-syntax-ns#">
   <cc:Work>
    <dc:type rdf:resource="http://purl.org/dc/dcmitype/StillImage"/>
    <dc:date>2022-01-14T17:05:50.038554</dc:date>
    <dc:format>image/svg+xml</dc:format>
    <dc:creator>
     <cc:Agent>
      <dc:title>Matplotlib v3.5.1, https://matplotlib.org/</dc:title>
     </cc:Agent>
    </dc:creator>
   </cc:Work>
  </rdf:RDF>
 </metadata>
 <defs>
  <style type="text/css">*{stroke-linejoin: round; stroke-linecap: butt}</style>
 </defs>
 <g id="figure_1">
  <g id="patch_1">
   <path d="M 0 158.9598 
L 159.8985 158.9598 
L 159.8985 0 
L 0 0 
L 0 158.9598 
z
" style="fill: none"/>
  </g>
  <g id="axes_1">
   <g id="patch_2">
    <path d="M 80.158992 13.7709 
C 63.385698 13.7709 47.236079 20.197425 35.063657 31.715986 
C 22.891235 43.234547 15.601214 58.988563 14.707391 75.706662 
C 13.813568 92.42476 19.382413 108.863696 30.257537 121.609869 
C 41.13266 134.356042 56.505331 142.461581 73.183364 144.243344 
L 80.158992 79.192898 
L 80.158992 13.7709 
z
" style="fill: #0000ff; stroke: #000000; stroke-linejoin: miter"/>
   </g>
   <g id="patch_3">
    <path d="M 73.183364 144.243344 
C 82.034154 145.1889 90.985863 144.325016 99.491217 141.704507 
C 107.996572 139.083998 115.878638 134.761378 122.655537 129.000914 
C 129.432435 123.240451 134.963189 116.161977 138.909668 108.198245 
C 142.856147 100.234512 145.136254 91.551187 145.610593 82.679135 
C 146.084932 73.807083 144.743634 64.930866 141.668703 56.593142 
C 138.593771 48.255419 133.849171 40.629636 127.724971 34.182003 
C 121.60077 27.734371 114.224369 22.599019 106.046731 19.089901 
C 97.869093 15.580783 89.060335 13.7709 80.158992 13.7709 
L 80.158992 79.192898 
L 73.183364 144.243344 
z
" style="fill: #ff0000; stroke: #000000; stroke-linejoin: miter"/>
   </g>
   <g id="matplotlib.axis_1"/>
   <g id="matplotlib.axis_2"/>
  </g>
 </g>
</svg>
