<?xml version="1.0" encoding="utf-8" standalone="no"?>
<!DOCTYPE svg PUBLIC "-//W3C//DTD SVG 1.1//EN"
  "http://www.w3.org/Graphics/SVG/1.1/DTD/svg11.dtd">
<svg xmlns:xlink="http://www.w3.org/1999/xlink" width="131.4405pt" height="130.6854pt" viewBox="0 0 131.4405 130.6854" xmlns="http://www.w3.org/2000/svg" version="1.1">
 <metadata>
  <rdf:RDF xmlns:dc="http://purl.org/dc/elements/1.1/" xmlns:cc="http://creativecommons.org/ns#" xmlns:rdf="http://www.w3.org/1999/02/22-rdf-syntax-ns#">
   <cc:Work>
    <dc:type rdf:resource="http://purl.org/dc/dcmitype/StillImage"/>
    <dc:date>2021-12-14T09:20:52.352741</dc:date>
    <dc:format>image/svg+xml</dc:format>
    <dc:creator>
     <cc:Agent>
      <dc:title>Matplotlib v3.5.0, https://matplotlib.org/</dc:title>
     </cc:Agent>
    </dc:creator>
   </cc:Work>
  </rdf:RDF>
 </metadata>
 <defs>
  <style type="text/css">*{stroke-linejoin: round; stroke-linecap: butt}</style>
 </defs>
 <g id="figure_1">
  <g id="patch_1">
   <path d="M 0 130.6854 
L 131.4405 130.6854 
L 131.4405 0 
L 0 0 
L 0 130.6854 
z
" style="fill: none"/>
  </g>
  <g id="axes_1">
   <g id="patch_2">
    <path d="M 65.905978 12.4857 
C 52.481269 12.4857 39.551507 17.611116 29.78047 26.806014 
C 20.009433 36.000913 14.117604 48.587292 13.318813 61.972118 
C 12.520023 75.356943 16.87317 88.553263 25.481424 98.842382 
C 34.089678 109.131501 46.318294 115.754735 59.647945 117.34757 
L 65.905978 65.102923 
L 65.905978 12.4857 
z
" style="fill: #0000ff"/>
   </g>
   <g id="patch_3">
    <path d="M 59.647945 117.34757 
C 66.779 118.1997 74.009773 117.586389 80.894846 115.545419 
C 87.779918 113.504448 94.174953 110.078603 99.686014 105.478918 
C 105.197075 100.879233 109.708629 95.202135 112.942762 88.797334 
C 116.176896 82.392533 118.065808 75.3943 118.493143 68.233728 
C 118.920477 61.073155 117.877275 53.900357 115.427798 47.15718 
C 112.97832 40.414002 109.173919 34.241809 104.248945 29.020809 
C 99.323971 23.799809 93.381671 19.639455 86.788093 16.796025 
C 80.194516 13.952595 73.087887 12.4857 65.905978 12.4857 
L 65.905978 65.102923 
L 59.647945 117.34757 
z
" style="fill: #ff0000"/>
   </g>
   <g id="matplotlib.axis_1"/>
   <g id="matplotlib.axis_2"/>
  </g>
 </g>
</svg>
