<?xml version="1.0" encoding="utf-8" standalone="no"?>
<!DOCTYPE svg PUBLIC "-//W3C//DTD SVG 1.1//EN"
  "http://www.w3.org/Graphics/SVG/1.1/DTD/svg11.dtd">
<svg xmlns:xlink="http://www.w3.org/1999/xlink" width="406.7577pt" height="404.22636pt" viewBox="0 0 406.7577 404.22636" xmlns="http://www.w3.org/2000/svg" version="1.1">
 <metadata>
  <rdf:RDF xmlns:dc="http://purl.org/dc/elements/1.1/" xmlns:cc="http://creativecommons.org/ns#" xmlns:rdf="http://www.w3.org/1999/02/22-rdf-syntax-ns#">
   <cc:Work>
    <dc:type rdf:resource="http://purl.org/dc/dcmitype/StillImage"/>
    <dc:date>2021-12-14T09:20:54.198561</dc:date>
    <dc:format>image/svg+xml</dc:format>
    <dc:creator>
     <cc:Agent>
      <dc:title>Matplotlib v3.5.0, https://matplotlib.org/</dc:title>
     </cc:Agent>
    </dc:creator>
   </cc:Work>
  </rdf:RDF>
 </metadata>
 <defs>
  <style type="text/css">*{stroke-linejoin: round; stroke-linecap: butt}</style>
 </defs>
 <g id="figure_1">
  <g id="patch_1">
   <path d="M 0 404.22636 
L 406.7577 404.22636 
L 406.7577 0 
L 0 0 
L 0 404.22636 
z
" style="fill: none"/>
  </g>
  <g id="axes_1">
   <g id="patch_2">
    <path d="M 203.110385 24.91938 
C 179.438932 24.91938 156.004709 29.630761 134.189147 38.775789 
C 112.373585 47.920818 92.613947 61.316195 76.075049 78.172274 
C 59.53615 95.028352 46.549491 115.007275 37.880625 136.931299 
C 29.211759 158.855323 25.034441 182.285013 25.594922 205.839204 
C 26.155402 229.393394 31.442447 252.599976 41.144389 274.090938 
C 50.846331 295.581899 64.768707 314.926484 82.090805 330.984343 
C 99.412903 347.042202 119.787524 359.491478 142.0136 367.598295 
C 164.239675 375.705112 187.871715 379.30698 211.516627 378.191572 
L 203.110385 201.654558 
L 203.110385 24.91938 
z
" style="fill: #0000ff"/>
   </g>
   <g id="patch_3">
    <path d="M 211.516627 378.191572 
C 257.813086 376.007615 301.458815 355.866324 333.047584 322.108412 
C 364.636353 288.3505 381.723259 243.588757 380.625849 197.469929 
C 379.528439 151.3511 360.331649 107.444684 327.172642 75.213092 
C 294.013635 42.981501 249.458845 24.919389 203.110418 24.91938 
L 203.110385 201.654558 
L 211.516627 378.191572 
z
" style="fill: #ff0000"/>
   </g>
   <g id="matplotlib.axis_1"/>
   <g id="matplotlib.axis_2"/>
  </g>
 </g>
</svg>
