<?xml version="1.0" encoding="utf-8" standalone="no"?>
<!DOCTYPE svg PUBLIC "-//W3C//DTD SVG 1.1//EN"
  "http://www.w3.org/Graphics/SVG/1.1/DTD/svg11.dtd">
<svg xmlns:xlink="http://www.w3.org/1999/xlink" width="20.2032pt" height="20.16576pt" viewBox="0 0 20.2032 20.16576" xmlns="http://www.w3.org/2000/svg" version="1.1">
 <metadata>
  <rdf:RDF xmlns:dc="http://purl.org/dc/elements/1.1/" xmlns:cc="http://creativecommons.org/ns#" xmlns:rdf="http://www.w3.org/1999/02/22-rdf-syntax-ns#">
   <cc:Work>
    <dc:type rdf:resource="http://purl.org/dc/dcmitype/StillImage"/>
    <dc:date>2022-01-14T17:05:59.514622</dc:date>
    <dc:format>image/svg+xml</dc:format>
    <dc:creator>
     <cc:Agent>
      <dc:title>Matplotlib v3.5.1, https://matplotlib.org/</dc:title>
     </cc:Agent>
    </dc:creator>
   </cc:Work>
  </rdf:RDF>
 </metadata>
 <defs>
  <style type="text/css">*{stroke-linejoin: round; stroke-linecap: butt}</style>
 </defs>
 <g id="figure_1">
  <g id="patch_1">
   <path d="M 0 20.16576 
L 20.2032 20.16576 
L 20.2032 0 
L 0 0 
L 0 20.16576 
z
" style="fill: none"/>
  </g>
  <g id="axes_1">
   <g id="patch_2">
    <path d="M 10.116227 7.46208 
C 9.474543 7.46208 8.855048 7.700787 8.377967 8.131877 
C 7.900887 8.562967 7.599216 9.156623 7.531499 9.797638 
C 7.463782 10.438652 7.634703 11.08269 8.011091 11.604766 
C 8.387479 12.126841 8.943303 12.490845 9.570695 12.626138 
L 10.116227 10.073188 
L 10.116227 7.46208 
z
" style="fill: #0000ff; stroke: #000000; stroke-linejoin: miter"/>
   </g>
   <g id="patch_3">
    <path d="M 9.570695 12.626138 
C 9.927042 12.702981 10.295526 12.70368 10.652159 12.628189 
C 11.008793 12.552698 11.345665 12.402691 11.640846 12.187934 
C 11.936027 11.973176 12.182971 11.698432 12.3656 11.381587 
C 12.548229 11.064741 12.662494 10.712821 12.700956 10.348737 
C 12.739418 9.984653 12.701224 9.616481 12.58886 9.268187 
C 12.476496 8.919893 12.292455 8.599202 12.048717 8.326993 
C 11.804979 8.054783 11.50695 7.837092 11.174032 7.68809 
C 10.841115 7.539088 10.480692 7.46208 10.116227 7.46208 
L 10.116227 10.073188 
L 9.570695 12.626138 
z
" style="fill: #ff0000; stroke: #000000; stroke-linejoin: miter"/>
   </g>
   <g id="matplotlib.axis_1"/>
   <g id="matplotlib.axis_2"/>
  </g>
 </g>
</svg>
