<?xml version="1.0" encoding="utf-8" standalone="no"?>
<!DOCTYPE svg PUBLIC "-//W3C//DTD SVG 1.1//EN"
  "http://www.w3.org/Graphics/SVG/1.1/DTD/svg11.dtd">
<svg xmlns:xlink="http://www.w3.org/1999/xlink" width="322.7508pt" height="320.76144pt" viewBox="0 0 322.7508 320.76144" xmlns="http://www.w3.org/2000/svg" version="1.1">
 <metadata>
  <rdf:RDF xmlns:dc="http://purl.org/dc/elements/1.1/" xmlns:cc="http://creativecommons.org/ns#" xmlns:rdf="http://www.w3.org/1999/02/22-rdf-syntax-ns#">
   <cc:Work>
    <dc:type rdf:resource="http://purl.org/dc/dcmitype/StillImage"/>
    <dc:date>2022-01-14T17:05:52.005380</dc:date>
    <dc:format>image/svg+xml</dc:format>
    <dc:creator>
     <cc:Agent>
      <dc:title>Matplotlib v3.5.1, https://matplotlib.org/</dc:title>
     </cc:Agent>
    </dc:creator>
   </cc:Work>
  </rdf:RDF>
 </metadata>
 <defs>
  <style type="text/css">*{stroke-linejoin: round; stroke-linecap: butt}</style>
 </defs>
 <g id="figure_1">
  <g id="patch_1">
   <path d="M 0 320.76144 
L 322.7508 320.76144 
L 322.7508 0 
L 0 0 
L 0 320.76144 
z
" style="fill: none"/>
  </g>
  <g id="axes_1">
   <g id="patch_2">
    <path d="M 160.85907 21.125527 
C 141.902321 21.125527 123.145224 25.008301 105.748628 32.53355 
C 88.352032 40.058799 72.68238 51.068011 59.709443 64.879843 
C 46.736505 78.691674 36.733544 95.015193 30.319629 112.84016 
C 23.905713 130.665127 21.215945 149.616077 22.416791 168.520165 
C 23.617637 187.424253 28.683802 205.883282 37.301749 222.754851 
C 45.919695 239.62642 57.907895 254.555145 72.524416 266.617111 
C 87.140937 278.679077 104.077897 287.62021 122.287092 292.887157 
C 140.496288 298.154103 159.59416 299.63592 178.39877 297.2409 
L 160.85907 159.739442 
L 160.85907 21.125527 
z
" style="fill: #0000ff; stroke: #000000; stroke-linejoin: miter"/>
   </g>
   <g id="patch_3">
    <path d="M 178.39877 297.2409 
C 213.374241 292.786304 245.367364 275.170881 267.819224 248.005974 
C 290.271084 220.841067 301.534855 186.119199 299.301348 150.958707 
C 297.067842 115.798215 281.500885 82.778092 255.791861 58.667801 
C 230.082838 34.55751 196.117484 21.12552 160.859044 21.125527 
L 160.85907 159.739442 
L 178.39877 297.2409 
z
" style="fill: #ff0000; stroke: #000000; stroke-linejoin: miter"/>
   </g>
   <g id="matplotlib.axis_1"/>
   <g id="matplotlib.axis_2"/>
  </g>
 </g>
</svg>
