<?xml version="1.0" encoding="utf-8" standalone="no"?>
<!DOCTYPE svg PUBLIC "-//W3C//DTD SVG 1.1//EN"
  "http://www.w3.org/Graphics/SVG/1.1/DTD/svg11.dtd">
<svg xmlns:xlink="http://www.w3.org/1999/xlink" width="96.1191pt" height="95.59188pt" viewBox="0 0 96.1191 95.59188" xmlns="http://www.w3.org/2000/svg" version="1.1">
 <metadata>
  <rdf:RDF xmlns:dc="http://purl.org/dc/elements/1.1/" xmlns:cc="http://creativecommons.org/ns#" xmlns:rdf="http://www.w3.org/1999/02/22-rdf-syntax-ns#">
   <cc:Work>
    <dc:type rdf:resource="http://purl.org/dc/dcmitype/StillImage"/>
    <dc:date>2021-12-14T09:20:56.052891</dc:date>
    <dc:format>image/svg+xml</dc:format>
    <dc:creator>
     <cc:Agent>
      <dc:title>Matplotlib v3.5.0, https://matplotlib.org/</dc:title>
     </cc:Agent>
    </dc:creator>
   </cc:Work>
  </rdf:RDF>
 </metadata>
 <defs>
  <style type="text/css">*{stroke-linejoin: round; stroke-linecap: butt}</style>
 </defs>
 <g id="figure_1">
  <g id="patch_1">
   <path d="M 0 95.59188 
L 96.1191 95.59188 
L 96.1191 0 
L 0 0 
L 0 95.59188 
z
" style="fill: none"/>
  </g>
  <g id="axes_1">
   <g id="patch_2">
    <path d="M 48.064856 10.656286 
C 38.23509 10.656286 28.796762 14.559841 21.838616 21.503076 
C 14.88047 28.446312 10.956678 37.876245 10.935591 47.705988 
C 10.914505 57.535732 14.797804 66.982412 21.726096 73.955436 
C 28.654389 80.928461 38.075883 84.872473 47.905559 84.914646 
L 48.064856 47.785637 
L 48.064856 10.656286 
z
" style="fill: #0000ff"/>
   </g>
   <g id="patch_3">
    <path d="M 47.905559 84.914646 
C 52.787997 84.935594 57.62696 83.993281 62.144768 82.141783 
C 66.662577 80.290285 70.771128 77.565707 74.234656 74.124397 
C 77.698184 70.683088 80.449146 66.592155 82.32968 62.086356 
C 84.210214 57.580556 85.183648 52.747758 85.194122 47.865286 
C 85.204595 42.982815 84.251905 38.145884 82.390719 33.632058 
C 80.529534 29.118231 77.796149 25.015534 74.347417 21.559397 
C 70.898685 18.103259 66.801861 15.361079 62.292038 13.490215 
C 57.782215 11.619351 52.947339 10.656286 48.064856 10.656286 
L 48.064856 47.785637 
L 47.905559 84.914646 
z
" style="fill: #ff0000"/>
   </g>
   <g id="matplotlib.axis_1"/>
   <g id="matplotlib.axis_2"/>
  </g>
 </g>
</svg>
