<?xml version="1.0" encoding="utf-8" standalone="no"?>
<!DOCTYPE svg PUBLIC "-//W3C//DTD SVG 1.1//EN"
  "http://www.w3.org/Graphics/SVG/1.1/DTD/svg11.dtd">
<svg xmlns:xlink="http://www.w3.org/1999/xlink" width="150.20325pt" height="149.3271pt" viewBox="0 0 150.20325 149.3271" xmlns="http://www.w3.org/2000/svg" version="1.1">
 <metadata>
  <rdf:RDF xmlns:dc="http://purl.org/dc/elements/1.1/" xmlns:cc="http://creativecommons.org/ns#" xmlns:rdf="http://www.w3.org/1999/02/22-rdf-syntax-ns#">
   <cc:Work>
    <dc:type rdf:resource="http://purl.org/dc/dcmitype/StillImage"/>
    <dc:date>2022-01-14T17:05:53.869371</dc:date>
    <dc:format>image/svg+xml</dc:format>
    <dc:creator>
     <cc:Agent>
      <dc:title>Matplotlib v3.5.1, https://matplotlib.org/</dc:title>
     </cc:Agent>
    </dc:creator>
   </cc:Work>
  </rdf:RDF>
 </metadata>
 <defs>
  <style type="text/css">*{stroke-linejoin: round; stroke-linecap: butt}</style>
 </defs>
 <g id="figure_1">
  <g id="patch_1">
   <path d="M 0 149.3271 
L 150.20325 149.3271 
L 150.20325 0 
L 0 0 
L 0 149.3271 
z
" style="fill: none"/>
  </g>
  <g id="axes_1">
   <g id="patch_2">
    <path d="M 75.01579 13.33305 
C 66.829732 13.33305 58.725515 14.960131 51.179755 18.118603 
C 43.633995 21.277075 36.797572 25.903784 31.072541 31.726628 
C 25.34751 37.549473 20.848346 44.452024 17.839647 52.028336 
C 14.830948 59.604649 13.372875 67.703232 13.551178 75.847803 
C 13.729481 83.992373 15.540595 92.020076 18.878006 99.458798 
C 22.215418 106.89752 27.012394 113.598519 32.986822 119.167705 
C 38.961251 124.736892 45.993668 129.062907 53.670495 131.891336 
C 61.347322 134.719764 69.515056 135.99405 77.693348 135.639251 
L 75.01579 74.515177 
L 75.01579 13.33305 
z
" style="fill: #0000ff; stroke: #000000; stroke-linejoin: miter"/>
   </g>
   <g id="patch_3">
    <path d="M 77.693348 135.639251 
C 93.745668 134.942854 108.900874 128.010981 119.88513 116.341059 
C 130.869385 104.671137 136.830375 89.168684 136.480403 73.182551 
C 136.13043 57.196418 129.496652 41.967035 118.012099 30.784264 
C 106.527547 19.601492 91.083356 13.33305 75.01579 13.33305 
L 75.01579 74.515177 
L 77.693348 135.639251 
z
" style="fill: #ff0000; stroke: #000000; stroke-linejoin: miter"/>
   </g>
   <g id="matplotlib.axis_1"/>
   <g id="matplotlib.axis_2"/>
  </g>
 </g>
</svg>
