<?xml version="1.0" encoding="utf-8" standalone="no"?>
<!DOCTYPE svg PUBLIC "-//W3C//DTD SVG 1.1//EN"
  "http://www.w3.org/Graphics/SVG/1.1/DTD/svg11.dtd">
<svg xmlns:xlink="http://www.w3.org/1999/xlink" width="371.52pt" height="280.512pt" viewBox="0 0 371.52 280.512" xmlns="http://www.w3.org/2000/svg" version="1.1">
 <metadata>
  <rdf:RDF xmlns:dc="http://purl.org/dc/elements/1.1/" xmlns:cc="http://creativecommons.org/ns#" xmlns:rdf="http://www.w3.org/1999/02/22-rdf-syntax-ns#">
   <cc:Work>
    <dc:type rdf:resource="http://purl.org/dc/dcmitype/StillImage"/>
    <dc:date>2021-12-03T16:10:07.053210</dc:date>
    <dc:format>image/svg+xml</dc:format>
    <dc:creator>
     <cc:Agent>
      <dc:title>Matplotlib v3.5.0, https://matplotlib.org/</dc:title>
     </cc:Agent>
    </dc:creator>
   </cc:Work>
  </rdf:RDF>
 </metadata>
 <defs>
  <style type="text/css">*{stroke-linejoin: round; stroke-linecap: butt}</style>
 </defs>
 <g id="figure_1">
  <g id="patch_1">
   <path d="M 0 280.512 
L 371.52 280.512 
L 371.52 0 
L 0 0 
L 0 280.512 
z
" style="fill: none"/>
  </g>
  <g id="axes_1">
   <g id="patch_2">
    <path d="M 185.591529 19.296 
C 169.524466 19.296 153.618037 22.505035 138.80771 28.734379 
C 123.997383 34.963723 110.579297 44.088818 99.342579 55.573011 
C 88.10586 67.057204 79.275194 80.670863 73.369915 95.61336 
C 67.464637 110.555857 64.602826 126.528409 64.952787 142.59166 
C 65.302749 158.654912 68.857485 174.48767 75.407939 189.158801 
C 81.958394 203.829931 91.373587 217.046077 103.099806 228.029989 
C 114.826024 239.013901 128.628797 247.54595 143.696373 253.12436 
C 158.76395 258.702771 174.795046 261.216 190.846864 260.516243 
L 185.591529 139.963369 
L 185.591529 19.296 
z
" style="fill: #0000ff"/>
   </g>
   <g id="patch_3">
    <path d="M 190.846864 260.516243 
C 222.353314 259.142763 252.098967 245.471272 273.658149 222.455093 
C 295.217331 199.438914 306.917174 168.863969 306.230271 137.335078 
C 305.543368 105.806187 292.523019 75.769808 269.981887 53.714419 
C 247.440755 31.659029 217.127902 19.296 185.591529 19.296 
L 185.591529 139.963369 
L 190.846864 260.516243 
z
" style="fill: #bf00bf"/>
   </g>
   <g id="matplotlib.axis_1"/>
   <g id="matplotlib.axis_2"/>
  </g>
 </g>
</svg>
