<?xml version="1.0" encoding="utf-8" standalone="no"?>
<!DOCTYPE svg PUBLIC "-//W3C//DTD SVG 1.1//EN"
  "http://www.w3.org/Graphics/SVG/1.1/DTD/svg11.dtd">
<svg xmlns:xlink="http://www.w3.org/1999/xlink" width="337.0914pt" height="335.00952pt" viewBox="0 0 337.0914 335.00952" xmlns="http://www.w3.org/2000/svg" version="1.1">
 <metadata>
  <rdf:RDF xmlns:dc="http://purl.org/dc/elements/1.1/" xmlns:cc="http://creativecommons.org/ns#" xmlns:rdf="http://www.w3.org/1999/02/22-rdf-syntax-ns#">
   <cc:Work>
    <dc:type rdf:resource="http://purl.org/dc/dcmitype/StillImage"/>
    <dc:date>2021-12-14T09:20:57.847870</dc:date>
    <dc:format>image/svg+xml</dc:format>
    <dc:creator>
     <cc:Agent>
      <dc:title>Matplotlib v3.5.0, https://matplotlib.org/</dc:title>
     </cc:Agent>
    </dc:creator>
   </cc:Work>
  </rdf:RDF>
 </metadata>
 <defs>
  <style type="text/css">*{stroke-linejoin: round; stroke-linecap: butt}</style>
 </defs>
 <g id="figure_1">
  <g id="patch_1">
   <path d="M -0 335.00952 
L 337.0914 335.00952 
L 337.0914 0 
L -0 0 
L -0 335.00952 
z
" style="fill: none"/>
  </g>
  <g id="axes_1">
   <g id="patch_2">
    <path d="M 168.258089 21.77316 
C 148.720314 21.77316 129.380254 25.683302 111.3889 33.270881 
C 93.397545 40.85846 77.119028 51.969909 63.522135 65.943949 
C 49.925243 79.917989 39.285166 96.471796 32.235131 114.620198 
C 25.185096 132.768601 21.867791 152.144289 22.480638 171.594151 
C 23.093486 191.044014 27.624082 210.174401 35.802798 227.846799 
C 43.981513 245.519198 55.642817 261.375932 70.092705 274.473316 
C 84.542593 287.5707 101.488612 297.643652 119.922247 304.092698 
C 138.355883 310.541744 157.904053 313.23636 177.403381 312.01618 
L 168.258089 167.037597 
L 168.258089 21.77316 
z
" style="fill: #0000ff"/>
   </g>
   <g id="patch_3">
    <path d="M 177.403381 312.01618 
C 215.20491 309.650732 250.633415 292.709721 276.126305 264.809387 
C 301.619196 236.909053 315.223609 200.186678 314.035539 162.481043 
C 312.847469 124.775408 296.957926 88.974923 269.758703 62.721582 
C 242.55948 36.468241 206.134151 21.77316 168.258089 21.77316 
L 168.258089 167.037597 
L 177.403381 312.01618 
z
" style="fill: #ff0000"/>
   </g>
   <g id="matplotlib.axis_1"/>
   <g id="matplotlib.axis_2"/>
  </g>
 </g>
</svg>
