<?xml version="1.0" encoding="utf-8" standalone="no"?>
<!DOCTYPE svg PUBLIC "-//W3C//DTD SVG 1.1//EN"
  "http://www.w3.org/Graphics/SVG/1.1/DTD/svg11.dtd">
<svg xmlns:xlink="http://www.w3.org/1999/xlink" width="21.13785pt" height="21.09438pt" viewBox="0 0 21.13785 21.09438" xmlns="http://www.w3.org/2000/svg" version="1.1">
 <metadata>
  <rdf:RDF xmlns:dc="http://purl.org/dc/elements/1.1/" xmlns:cc="http://creativecommons.org/ns#" xmlns:rdf="http://www.w3.org/1999/02/22-rdf-syntax-ns#">
   <cc:Work>
    <dc:type rdf:resource="http://purl.org/dc/dcmitype/StillImage"/>
    <dc:date>2021-12-14T09:21:03.405301</dc:date>
    <dc:format>image/svg+xml</dc:format>
    <dc:creator>
     <cc:Agent>
      <dc:title>Matplotlib v3.5.0, https://matplotlib.org/</dc:title>
     </cc:Agent>
    </dc:creator>
   </cc:Work>
  </rdf:RDF>
 </metadata>
 <defs>
  <style type="text/css">*{stroke-linejoin: round; stroke-linecap: butt}</style>
 </defs>
 <g id="figure_1">
  <g id="patch_1">
   <path d="M 0 21.09438 
L 21.13785 21.09438 
L 21.13785 0 
L 0 0 
L 0 21.09438 
z
" style="fill: none"/>
  </g>
  <g id="axes_1">
   <g id="patch_2">
    <path d="M 10.558898 7.50429 
C 10.146296 7.50429 9.737996 7.588303 9.35902 7.751182 
C 8.980045 7.91406 8.638296 8.152406 8.354718 8.451614 
C 8.07114 8.750822 7.851646 9.104652 7.709687 9.49142 
C 7.567729 9.878188 7.506266 10.289828 7.529066 10.701115 
C 7.551866 11.112402 7.658452 11.514757 7.842294 11.883524 
C 8.026136 12.252292 8.283399 12.57978 8.598318 12.84592 
C 8.913236 13.112061 9.279243 13.311303 9.673907 13.431436 
C 10.068572 13.55157 10.483665 13.59009 10.893747 13.544636 
L 10.558898 10.533713 
L 10.558898 7.50429 
z
" style="fill: #0000ff"/>
   </g>
   <g id="patch_3">
    <path d="M 10.893747 13.544636 
C 11.664517 13.459202 12.373899 13.081955 12.874956 12.491034 
C 13.376014 11.900113 13.631584 11.139345 13.588731 10.366311 
C 13.545877 9.593278 13.207778 8.865311 12.644465 8.333198 
C 12.081152 7.801085 11.334404 7.50429 10.558898 7.50429 
L 10.558898 10.533713 
L 10.893747 13.544636 
z
" style="fill: #ff0000"/>
   </g>
   <g id="matplotlib.axis_1"/>
   <g id="matplotlib.axis_2"/>
  </g>
 </g>
</svg>
