<?xml version="1.0" encoding="utf-8" standalone="no"?>
<!DOCTYPE svg PUBLIC "-//W3C//DTD SVG 1.1//EN"
  "http://www.w3.org/Graphics/SVG/1.1/DTD/svg11.dtd">
<svg xmlns:xlink="http://www.w3.org/1999/xlink" width="110.9898pt" height="110.36664pt" viewBox="0 0 110.9898 110.36664" xmlns="http://www.w3.org/2000/svg" version="1.1">
 <metadata>
  <rdf:RDF xmlns:dc="http://purl.org/dc/elements/1.1/" xmlns:cc="http://creativecommons.org/ns#" xmlns:rdf="http://www.w3.org/1999/02/22-rdf-syntax-ns#">
   <cc:Work>
    <dc:type rdf:resource="http://purl.org/dc/dcmitype/StillImage"/>
    <dc:date>2021-12-14T09:20:58.785966</dc:date>
    <dc:format>image/svg+xml</dc:format>
    <dc:creator>
     <cc:Agent>
      <dc:title>Matplotlib v3.5.0, https://matplotlib.org/</dc:title>
     </cc:Agent>
    </dc:creator>
   </cc:Work>
  </rdf:RDF>
 </metadata>
 <defs>
  <style type="text/css">*{stroke-linejoin: round; stroke-linecap: butt}</style>
 </defs>
 <g id="figure_1">
  <g id="patch_1">
   <path d="M 0 110.36664 
L 110.9898 110.36664 
L 110.9898 0 
L 0 0 
L 0 110.36664 
z
" style="fill: none"/>
  </g>
  <g id="axes_1">
   <g id="patch_2">
    <path d="M 55.50679 11.291122 
C 43.907355 11.291122 32.768649 15.891608 24.54988 24.076884 
C 16.331112 32.262159 11.685178 43.381986 11.637812 54.981324 
C 11.590445 66.580662 16.145409 77.738062 24.297054 85.990187 
C 32.448699 94.242311 43.549462 98.933614 55.14851 99.028346 
L 55.50679 55.160466 
L 55.50679 11.291122 
z
" style="fill: #0000ff"/>
   </g>
   <g id="patch_3">
    <path d="M 55.14851 99.028346 
C 60.924259 99.075518 66.652866 97.981556 72.004799 95.809389 
C 77.356732 93.637223 82.227362 90.429316 86.33651 86.370203 
C 90.445657 82.311089 93.71299 77.480123 95.950557 72.155202 
C 98.188124 66.83028 99.352181 61.115504 99.375768 55.339611 
C 99.399355 49.563718 98.282009 43.839625 96.088006 38.496607 
C 93.894004 33.153588 90.666235 28.296098 86.590376 24.20356 
C 82.514517 20.111022 77.670249 16.863444 72.336235 14.647639 
C 67.002221 12.431835 61.282739 11.291123 55.506798 11.291122 
L 55.50679 55.160466 
L 55.14851 99.028346 
z
" style="fill: #ff0000"/>
   </g>
   <g id="matplotlib.axis_1"/>
   <g id="matplotlib.axis_2"/>
  </g>
 </g>
</svg>
