<?xml version="1.0" encoding="utf-8" standalone="no"?>
<!DOCTYPE svg PUBLIC "-//W3C//DTD SVG 1.1//EN"
  "http://www.w3.org/Graphics/SVG/1.1/DTD/svg11.dtd">
<svg xmlns:xlink="http://www.w3.org/1999/xlink" width="38.0592pt" height="37.90656pt" viewBox="0 0 38.0592 37.90656" xmlns="http://www.w3.org/2000/svg" version="1.1">
 <metadata>
  <rdf:RDF xmlns:dc="http://purl.org/dc/elements/1.1/" xmlns:cc="http://creativecommons.org/ns#" xmlns:rdf="http://www.w3.org/1999/02/22-rdf-syntax-ns#">
   <cc:Work>
    <dc:type rdf:resource="http://purl.org/dc/dcmitype/StillImage"/>
    <dc:date>2022-01-14T17:05:56.719014</dc:date>
    <dc:format>image/svg+xml</dc:format>
    <dc:creator>
     <cc:Agent>
      <dc:title>Matplotlib v3.5.1, https://matplotlib.org/</dc:title>
     </cc:Agent>
    </dc:creator>
   </cc:Work>
  </rdf:RDF>
 </metadata>
 <defs>
  <style type="text/css">*{stroke-linejoin: round; stroke-linecap: butt}</style>
 </defs>
 <g id="figure_1">
  <g id="patch_1">
   <path d="M 0 37.90656 
L 38.0592 37.90656 
L 38.0592 0 
L 0 0 
L 0 37.90656 
z
" style="fill: none"/>
  </g>
  <g id="axes_1">
   <g id="patch_2">
    <path d="M 19.044845 8.26848 
C 16.246646 8.26848 13.556944 9.359861 11.55645 11.306992 
C 9.555957 13.254123 8.399806 15.906008 8.337612 18.6901 
C 8.275418 21.474193 9.312005 24.174593 11.223571 26.208279 
C 13.135137 28.241965 15.773444 29.45123 18.568879 29.57499 
L 19.044845 18.927001 
L 19.044845 8.26848 
z
" style="fill: #0000ff; stroke: #000000; stroke-linejoin: miter"/>
   </g>
   <g id="patch_3">
    <path d="M 18.568879 29.57499 
C 19.993909 29.63808 21.417349 29.417206 22.755439 28.925365 
C 24.09353 28.433524 25.319499 27.680556 26.361208 26.710769 
C 27.402917 25.740981 28.239524 24.573776 28.8218 23.277836 
C 29.404077 21.981896 29.720373 20.583149 29.752077 19.1639 
C 29.783782 17.744651 29.53026 16.333296 29.00643 15.012884 
C 28.4826 13.692471 27.698942 12.489418 26.701569 11.474515 
C 25.704196 10.459613 24.513062 9.653166 23.198258 9.102629 
C 21.883453 8.552093 20.471282 8.26848 19.044843 8.26848 
L 19.044845 18.927001 
L 18.568879 29.57499 
z
" style="fill: #ff0000; stroke: #000000; stroke-linejoin: miter"/>
   </g>
   <g id="matplotlib.axis_1"/>
   <g id="matplotlib.axis_2"/>
  </g>
 </g>
</svg>
