<?xml version="1.0" encoding="utf-8" standalone="no"?>
<!DOCTYPE svg PUBLIC "-//W3C//DTD SVG 1.1//EN"
  "http://www.w3.org/Graphics/SVG/1.1/DTD/svg11.dtd">
<svg xmlns:xlink="http://www.w3.org/1999/xlink" width="99.14625pt" height="98.5995pt" viewBox="0 0 99.14625 98.5995" xmlns="http://www.w3.org/2000/svg" version="1.1">
 <metadata>
  <rdf:RDF xmlns:dc="http://purl.org/dc/elements/1.1/" xmlns:cc="http://creativecommons.org/ns#" xmlns:rdf="http://www.w3.org/1999/02/22-rdf-syntax-ns#">
   <cc:Work>
    <dc:type rdf:resource="http://purl.org/dc/dcmitype/StillImage"/>
    <dc:date>2021-12-14T09:21:00.600461</dc:date>
    <dc:format>image/svg+xml</dc:format>
    <dc:creator>
     <cc:Agent>
      <dc:title>Matplotlib v3.5.0, https://matplotlib.org/</dc:title>
     </cc:Agent>
    </dc:creator>
   </cc:Work>
  </rdf:RDF>
 </metadata>
 <defs>
  <style type="text/css">*{stroke-linejoin: round; stroke-linecap: butt}</style>
 </defs>
 <g id="figure_1">
  <g id="patch_1">
   <path d="M 0 98.5995 
L 99.14625 98.5995 
L 99.14625 0 
L 0 0 
L 0 98.5995 
z
" style="fill: none"/>
  </g>
  <g id="axes_1">
   <g id="patch_2">
    <path d="M 49.366478 11.02725 
C 44.056808 11.02725 38.805696 12.145417 33.953119 14.309358 
C 29.100542 16.473299 24.753534 19.635282 21.193535 23.59059 
C 17.633537 27.545898 14.939072 32.207287 13.28459 37.272962 
C 11.630108 42.338637 11.052102 47.696864 11.587995 53.00073 
C 12.123888 58.304597 13.761859 63.437115 16.39586 68.065987 
C 19.029861 72.694859 22.601793 76.717985 26.880397 79.874892 
C 31.159 83.0318 36.049901 85.252856 41.236444 86.394263 
C 46.422988 87.53567 51.790773 87.57225 56.99227 86.501636 
L 49.366478 49.152805 
L 49.366478 11.02725 
z
" style="fill: #0000ff"/>
   </g>
   <g id="patch_3">
    <path d="M 56.99227 86.501636 
C 66.205301 84.605335 74.395999 79.338541 79.965133 71.729592 
C 85.534267 64.120644 88.094148 54.699231 87.14496 45.30488 
C 86.195772 35.910529 81.803592 27.197217 74.825991 20.866216 
C 67.848391 14.535215 58.771107 11.02725 49.366478 11.02725 
L 49.366478 49.152805 
L 56.99227 86.501636 
z
" style="fill: #ff0000"/>
   </g>
   <g id="matplotlib.axis_1"/>
   <g id="matplotlib.axis_2"/>
  </g>
 </g>
</svg>
