<?xml version="1.0" encoding="utf-8" standalone="no"?>
<!DOCTYPE svg PUBLIC "-//W3C//DTD SVG 1.1//EN"
  "http://www.w3.org/Graphics/SVG/1.1/DTD/svg11.dtd">
<svg xmlns:xlink="http://www.w3.org/1999/xlink" width="27.5967pt" height="27.51156pt" viewBox="0 0 27.5967 27.51156" xmlns="http://www.w3.org/2000/svg" version="1.1">
 <metadata>
  <rdf:RDF xmlns:dc="http://purl.org/dc/elements/1.1/" xmlns:cc="http://creativecommons.org/ns#" xmlns:rdf="http://www.w3.org/1999/02/22-rdf-syntax-ns#">
   <cc:Work>
    <dc:type rdf:resource="http://purl.org/dc/dcmitype/StillImage"/>
    <dc:date>2022-01-14T17:05:58.561278</dc:date>
    <dc:format>image/svg+xml</dc:format>
    <dc:creator>
     <cc:Agent>
      <dc:title>Matplotlib v3.5.1, https://matplotlib.org/</dc:title>
     </cc:Agent>
    </dc:creator>
   </cc:Work>
  </rdf:RDF>
 </metadata>
 <defs>
  <style type="text/css">*{stroke-linejoin: round; stroke-linecap: butt}</style>
 </defs>
 <g id="figure_1">
  <g id="patch_1">
   <path d="M 0 27.51156 
L 27.5967 27.51156 
L 27.5967 0 
L 0 0 
L 0 27.51156 
z
" style="fill: none"/>
  </g>
  <g id="axes_1">
   <g id="patch_2">
    <path d="M 13.79835 7.75728 
C 12.208059 7.75728 10.681276 8.389694 9.55677 9.5142 
C 8.432264 10.638706 7.79985 12.165489 7.79985 13.75578 
C 7.79985 15.346071 8.432264 16.872854 9.55677 17.99736 
C 10.681276 19.121866 12.208059 19.75428 13.79835 19.75428 
L 13.79835 13.75578 
L 13.79835 7.75728 
z
" style="fill: #0000ff; stroke: #000000; stroke-linejoin: miter"/>
   </g>
   <g id="patch_3">
    <path d="M 13.79835 19.75428 
C 15.388641 19.75428 16.915424 19.121866 18.03993 17.99736 
C 19.164436 16.872854 19.79685 15.346071 19.79685 13.75578 
C 19.79685 12.165489 19.164436 10.638706 18.03993 9.5142 
C 16.915424 8.389694 15.388641 7.75728 13.79835 7.75728 
L 13.79835 13.75578 
L 13.79835 19.75428 
z
" style="fill: #ff0000; stroke: #000000; stroke-linejoin: miter"/>
   </g>
   <g id="matplotlib.axis_1"/>
   <g id="matplotlib.axis_2"/>
  </g>
 </g>
</svg>
