<?xml version="1.0" encoding="utf-8" standalone="no"?>
<!DOCTYPE svg PUBLIC "-//W3C//DTD SVG 1.1//EN"
  "http://www.w3.org/Graphics/SVG/1.1/DTD/svg11.dtd">
<svg xmlns:xlink="http://www.w3.org/1999/xlink" width="278.65485pt" height="276.94998pt" viewBox="0 0 278.65485 276.94998" xmlns="http://www.w3.org/2000/svg" version="1.1">
 <metadata>
  <rdf:RDF xmlns:dc="http://purl.org/dc/elements/1.1/" xmlns:cc="http://creativecommons.org/ns#" xmlns:rdf="http://www.w3.org/1999/02/22-rdf-syntax-ns#">
   <cc:Work>
    <dc:type rdf:resource="http://purl.org/dc/dcmitype/StillImage"/>
    <dc:date>2022-01-14T17:05:43.813412</dc:date>
    <dc:format>image/svg+xml</dc:format>
    <dc:creator>
     <cc:Agent>
      <dc:title>Matplotlib v3.5.1, https://matplotlib.org/</dc:title>
     </cc:Agent>
    </dc:creator>
   </cc:Work>
  </rdf:RDF>
 </metadata>
 <defs>
  <style type="text/css">*{stroke-linejoin: round; stroke-linecap: butt}</style>
 </defs>
 <g id="figure_1">
  <g id="patch_1">
   <path d="M 0 276.94998 
L 278.65485 276.94998 
L 278.65485 0 
L 0 0 
L 0 276.94998 
z
" style="fill: none"/>
  </g>
  <g id="axes_1">
   <g id="patch_2">
    <path d="M 140.249721 19.13409 
C 112.352373 19.13409 85.326874 28.959007 63.942724 46.874926 
C 42.558574 64.790845 28.152369 89.677947 23.266537 117.14412 
C 18.380706 144.610294 23.320632 172.93879 37.214511 197.130155 
C 51.10839 221.321521 73.087797 239.863696 99.273775 249.48433 
L 140.249721 137.953722 
L 140.249721 19.13409 
z
" style="fill: #0000ff; stroke: #000000; stroke-linejoin: miter"/>
   </g>
   <g id="patch_3">
    <path d="M 99.273775 249.48433 
C 115.57352 255.472798 132.98963 257.81589 150.292499 256.348179 
C 167.595368 254.880468 184.367978 249.637327 199.426155 240.988932 
C 214.484333 232.340537 227.465159 220.495322 237.452167 206.289579 
C 247.439175 192.083837 254.191667 175.85994 257.232905 158.763323 
C 260.274144 141.666706 259.530833 124.109415 255.05545 107.331025 
C 250.580067 90.552634 242.480475 74.95752 231.328517 61.646724 
C 220.176559 48.335928 206.241011 37.630255 190.505744 30.285541 
C 174.770477 22.940828 157.614728 19.13409 140.249721 19.13409 
L 140.249721 137.953722 
L 99.273775 249.48433 
z
" style="fill: #ff0000; stroke: #000000; stroke-linejoin: miter"/>
   </g>
   <g id="matplotlib.axis_1"/>
   <g id="matplotlib.axis_2"/>
  </g>
 </g>
</svg>
