<?xml version="1.0" encoding="utf-8" standalone="no"?>
<!DOCTYPE svg PUBLIC "-//W3C//DTD SVG 1.1//EN"
  "http://www.w3.org/Graphics/SVG/1.1/DTD/svg11.dtd">
<svg xmlns:xlink="http://www.w3.org/1999/xlink" width="371.52pt" height="280.512pt" viewBox="0 0 371.52 280.512" xmlns="http://www.w3.org/2000/svg" version="1.1">
 <metadata>
  <rdf:RDF xmlns:dc="http://purl.org/dc/elements/1.1/" xmlns:cc="http://creativecommons.org/ns#" xmlns:rdf="http://www.w3.org/1999/02/22-rdf-syntax-ns#">
   <cc:Work>
    <dc:type rdf:resource="http://purl.org/dc/dcmitype/StillImage"/>
    <dc:date>2021-12-10T18:14:45.078552</dc:date>
    <dc:format>image/svg+xml</dc:format>
    <dc:creator>
     <cc:Agent>
      <dc:title>Matplotlib v3.5.0, https://matplotlib.org/</dc:title>
     </cc:Agent>
    </dc:creator>
   </cc:Work>
  </rdf:RDF>
 </metadata>
 <defs>
  <style type="text/css">*{stroke-linejoin: round; stroke-linecap: butt}</style>
 </defs>
 <g id="figure_1">
  <g id="patch_1">
   <path d="M 0 280.512 
L 371.52 280.512 
L 371.52 0 
L 0 0 
L 0 280.512 
z
" style="fill: none"/>
  </g>
  <g id="axes_1">
   <g id="patch_2">
    <path d="M 186.125895 19.296008 
C 163.761641 19.296008 141.834486 25.533833 122.819033 37.305511 
C 103.803579 49.077188 88.443124 65.922574 78.471181 85.94057 
C 68.499238 105.958567 64.3056 128.366691 66.363544 150.636058 
C 68.421488 172.905425 76.65057 194.165547 90.122092 212.0171 
L 186.125895 139.568649 
L 186.125895 19.296008 
z
" style="fill: #0000ff"/>
   </g>
   <g id="patch_3">
    <path d="M 90.122092 212.0171 
C 102.461504 228.368456 118.77618 241.299431 137.513155 249.579147 
C 156.250129 257.858863 176.795406 261.216 197.193315 259.330998 
C 217.591224 257.445997 237.173341 250.380626 254.075678 238.807427 
C 270.978014 227.234229 284.646694 211.532446 293.780618 193.196707 
C 302.914543 174.860968 307.2144 154.492119 306.270894 134.029037 
C 305.327388 113.565956 299.171437 93.6792 288.389015 76.261758 
C 277.606593 58.844316 262.551032 44.466943 244.655445 34.498197 
C 226.759859 24.529451 206.610671 19.296 186.12585 19.296008 
L 186.125895 139.568649 
L 90.122092 212.0171 
z
" style="fill: #ff0000"/>
   </g>
   <g id="matplotlib.axis_1"/>
   <g id="matplotlib.axis_2"/>
  </g>
 </g>
</svg>
