<?xml version="1.0" encoding="utf-8" standalone="no"?>
<!DOCTYPE svg PUBLIC "-//W3C//DTD SVG 1.1//EN"
  "http://www.w3.org/Graphics/SVG/1.1/DTD/svg11.dtd">
<svg xmlns:xlink="http://www.w3.org/1999/xlink" width="33.86025pt" height="33.7347pt" viewBox="0 0 33.86025 33.7347" xmlns="http://www.w3.org/2000/svg" version="1.1">
 <metadata>
  <rdf:RDF xmlns:dc="http://purl.org/dc/elements/1.1/" xmlns:cc="http://creativecommons.org/ns#" xmlns:rdf="http://www.w3.org/1999/02/22-rdf-syntax-ns#">
   <cc:Work>
    <dc:type rdf:resource="http://purl.org/dc/dcmitype/StillImage"/>
    <dc:date>2021-12-14T09:20:48.323351</dc:date>
    <dc:format>image/svg+xml</dc:format>
    <dc:creator>
     <cc:Agent>
      <dc:title>Matplotlib v3.5.0, https://matplotlib.org/</dc:title>
     </cc:Agent>
    </dc:creator>
   </cc:Work>
  </rdf:RDF>
 </metadata>
 <defs>
  <style type="text/css">*{stroke-linejoin: round; stroke-linecap: butt}</style>
 </defs>
 <g id="figure_1">
  <g id="patch_1">
   <path d="M 0 33.7347 
L 33.86025 33.7347 
L 33.86025 0 
L 0 0 
L 0 33.7347 
z
" style="fill: none"/>
  </g>
  <g id="axes_1">
   <g id="patch_2">
    <path d="M 16.998877 8.07885 
C 15.027453 8.07885 13.112383 8.743089 11.564362 9.963804 
C 10.016341 11.184518 8.923871 12.891919 8.464191 14.809002 
C 8.004511 16.726085 8.203901 18.743249 9.030013 20.533235 
C 9.856124 22.323222 11.261728 23.783696 13.018783 24.677715 
L 16.998877 16.855458 
L 16.998877 8.07885 
z
" style="fill: #0000ff"/>
   </g>
   <g id="patch_3">
    <path d="M 13.018783 24.677715 
C 14.201098 25.279296 15.504562 25.605066 16.830882 25.630458 
C 18.157202 25.65585 19.47218 25.38021 20.676654 24.824322 
C 21.881129 24.268435 22.944044 23.446635 23.785245 22.420892 
C 24.626447 21.395149 25.224246 20.191911 25.533563 18.901914 
C 25.84288 17.611917 25.855739 16.268422 25.571171 14.972741 
C 25.286603 13.677059 24.711945 12.4626 23.890531 11.420943 
C 23.069117 10.379286 22.022128 9.537291 20.828514 8.95845 
C 19.634901 8.37961 18.32544 8.07885 16.998877 8.07885 
L 16.998877 16.855458 
L 13.018783 24.677715 
z
" style="fill: #ff0000"/>
   </g>
   <g id="matplotlib.axis_1"/>
   <g id="matplotlib.axis_2"/>
  </g>
 </g>
</svg>
