<?xml version="1.0" encoding="utf-8" standalone="no"?>
<!DOCTYPE svg PUBLIC "-//W3C//DTD SVG 1.1//EN"
  "http://www.w3.org/Graphics/SVG/1.1/DTD/svg11.dtd">
<svg xmlns:xlink="http://www.w3.org/1999/xlink" width="371.52pt" height="280.512pt" viewBox="0 0 371.52 280.512" xmlns="http://www.w3.org/2000/svg" version="1.1">
 <metadata>
  <rdf:RDF xmlns:dc="http://purl.org/dc/elements/1.1/" xmlns:cc="http://creativecommons.org/ns#" xmlns:rdf="http://www.w3.org/1999/02/22-rdf-syntax-ns#">
   <cc:Work>
    <dc:type rdf:resource="http://purl.org/dc/dcmitype/StillImage"/>
    <dc:date>2021-12-03T16:09:59.101564</dc:date>
    <dc:format>image/svg+xml</dc:format>
    <dc:creator>
     <cc:Agent>
      <dc:title>Matplotlib v3.5.0, https://matplotlib.org/</dc:title>
     </cc:Agent>
    </dc:creator>
   </cc:Work>
  </rdf:RDF>
 </metadata>
 <defs>
  <style type="text/css">*{stroke-linejoin: round; stroke-linecap: butt}</style>
 </defs>
 <g id="figure_1">
  <g id="patch_1">
   <path d="M 0 280.512 
L 371.52 280.512 
L 371.52 0 
L 0 0 
L 0 280.512 
z
" style="fill: none"/>
  </g>
  <g id="axes_1">
   <g id="patch_2">
    <path d="M 186.774634 19.296 
C 159.222697 19.296 132.482599 28.720002 111.018748 45.994616 
C 89.554896 63.26923 74.632188 87.376437 68.742053 114.291405 
C 62.851918 141.206373 66.34147 169.342963 78.628109 194.003614 
C 90.914748 218.664265 111.274404 238.395688 136.307919 249.903613 
L 186.774634 140.121934 
L 186.774634 19.296 
z
" style="fill: #0000ff"/>
   </g>
   <g id="patch_3">
    <path d="M 136.307919 249.903613 
C 152.716895 257.44683 170.610227 261.216 188.667761 260.933036 
C 206.725295 260.650072 224.491744 256.322108 240.656314 248.268459 
C 256.820884 240.214809 270.976017 228.638531 282.077357 214.393713 
C 293.178698 200.148895 300.946347 183.594693 304.807215 165.952463 
C 308.668082 148.310232 308.524823 130.024788 304.388007 112.445216 
C 300.251191 94.865644 292.225121 78.435179 280.901952 64.366048 
C 269.578783 50.296917 255.244009 38.943845 238.955237 31.144455 
C 222.666464 23.345064 204.834385 19.296 186.774634 19.296 
L 186.774634 140.121934 
L 136.307919 249.903613 
z
" style="fill: #bf00bf"/>
   </g>
   <g id="matplotlib.axis_1"/>
   <g id="matplotlib.axis_2"/>
  </g>
 </g>
</svg>
