<?xml version="1.0" encoding="utf-8" standalone="no"?>
<!DOCTYPE svg PUBLIC "-//W3C//DTD SVG 1.1//EN"
  "http://www.w3.org/Graphics/SVG/1.1/DTD/svg11.dtd">
<svg xmlns:xlink="http://www.w3.org/1999/xlink" width="36.7758pt" height="36.63144pt" viewBox="0 0 36.7758 36.63144" xmlns="http://www.w3.org/2000/svg" version="1.1">
 <metadata>
  <rdf:RDF xmlns:dc="http://purl.org/dc/elements/1.1/" xmlns:cc="http://creativecommons.org/ns#" xmlns:rdf="http://www.w3.org/1999/02/22-rdf-syntax-ns#">
   <cc:Work>
    <dc:type rdf:resource="http://purl.org/dc/dcmitype/StillImage"/>
    <dc:date>2021-12-14T09:20:49.220180</dc:date>
    <dc:format>image/svg+xml</dc:format>
    <dc:creator>
     <cc:Agent>
      <dc:title>Matplotlib v3.5.0, https://matplotlib.org/</dc:title>
     </cc:Agent>
    </dc:creator>
   </cc:Work>
  </rdf:RDF>
 </metadata>
 <defs>
  <style type="text/css">*{stroke-linejoin: round; stroke-linecap: butt}</style>
 </defs>
 <g id="figure_1">
  <g id="patch_1">
   <path d="M 0 36.63144 
L 36.7758 36.63144 
L 36.7758 0 
L 0 0 
L 0 36.63144 
z
" style="fill: none"/>
  </g>
  <g id="axes_1">
   <g id="patch_2">
    <path d="M 18.472664 8.21052 
C 16.17093 8.21052 13.937017 8.997817 12.143891 10.440967 
C 10.350765 11.884117 9.104097 13.898073 8.612026 16.146594 
C 8.119954 18.395116 8.411477 20.745693 9.437923 22.805885 
C 10.46437 24.866077 12.165249 26.514473 14.256591 27.475864 
L 18.472664 18.30452 
L 18.472664 8.21052 
z
" style="fill: #0000ff"/>
   </g>
   <g id="patch_3">
    <path d="M 14.256591 27.475864 
C 15.627424 28.106037 17.122263 28.42092 18.630819 28.397281 
C 20.139376 28.373641 21.623614 28.012076 22.97403 27.339261 
C 24.324445 26.666446 25.506988 25.699344 26.434413 24.509308 
C 27.361837 23.319272 28.010759 21.936307 28.333303 20.462445 
C 28.655846 18.988584 28.643878 17.460987 28.298281 15.992361 
C 27.952685 14.523734 27.282174 13.151106 26.336217 11.975747 
C 25.390261 10.800388 24.19271 9.851934 22.831919 9.20036 
C 21.471128 8.548786 19.981406 8.21052 18.472664 8.21052 
L 18.472664 18.30452 
L 14.256591 27.475864 
z
" style="fill: #ff0000"/>
   </g>
   <g id="matplotlib.axis_1"/>
   <g id="matplotlib.axis_2"/>
  </g>
 </g>
</svg>
