<?xml version="1.0" encoding="utf-8" standalone="no"?>
<!DOCTYPE svg PUBLIC "-//W3C//DTD SVG 1.1//EN"
  "http://www.w3.org/Graphics/SVG/1.1/DTD/svg11.dtd">
<svg xmlns:xlink="http://www.w3.org/1999/xlink" width="371.52pt" height="280.512pt" viewBox="0 0 371.52 280.512" xmlns="http://www.w3.org/2000/svg" version="1.1">
 <metadata>
  <rdf:RDF xmlns:dc="http://purl.org/dc/elements/1.1/" xmlns:cc="http://creativecommons.org/ns#" xmlns:rdf="http://www.w3.org/1999/02/22-rdf-syntax-ns#">
   <cc:Work>
    <dc:type rdf:resource="http://purl.org/dc/dcmitype/StillImage"/>
    <dc:date>2021-12-10T18:14:46.025098</dc:date>
    <dc:format>image/svg+xml</dc:format>
    <dc:creator>
     <cc:Agent>
      <dc:title>Matplotlib v3.5.0, https://matplotlib.org/</dc:title>
     </cc:Agent>
    </dc:creator>
   </cc:Work>
  </rdf:RDF>
 </metadata>
 <defs>
  <style type="text/css">*{stroke-linejoin: round; stroke-linecap: butt}</style>
 </defs>
 <g id="figure_1">
  <g id="patch_1">
   <path d="M 0 280.512 
L 371.52 280.512 
L 371.52 0 
L 0 0 
L 0 280.512 
z
" style="fill: none"/>
  </g>
  <g id="axes_1">
   <g id="patch_2">
    <path d="M 186.246415 19.296 
C 162.579212 19.296 139.431244 26.287833 119.721491 39.389821 
C 100.011738 52.49181 84.605024 71.129065 75.444149 92.951413 
C 66.283275 114.773761 63.770201 138.82368 68.221829 162.068453 
C 72.673457 185.313226 83.894458 206.73292 100.469854 223.626491 
L 186.246415 139.465456 
L 186.246415 19.296 
z
" style="fill: #0000ff"/>
   </g>
   <g id="patch_3">
    <path d="M 100.469854 223.626491 
C 114.343258 237.766204 131.50005 248.258547 150.407748 254.16632 
C 169.315446 260.074093 189.393814 261.216 208.849406 257.490043 
C 228.304998 253.764085 246.540766 245.284605 261.927848 232.809009 
C 277.314931 220.333412 289.381134 204.244548 297.048676 185.97951 
C 304.716217 167.714471 307.749799 147.833773 305.878453 128.113202 
C 304.007107 108.392632 297.288262 89.437371 286.322059 72.940547 
C 275.355857 56.443722 260.478826 42.911584 243.019816 33.552855 
C 225.560807 24.194126 206.055597 19.296004 186.246437 19.296 
L 186.246415 139.465456 
L 100.469854 223.626491 
z
" style="fill: #ff0000"/>
   </g>
   <g id="matplotlib.axis_1"/>
   <g id="matplotlib.axis_2"/>
  </g>
 </g>
</svg>
