<?xml version="1.0" encoding="utf-8" standalone="no"?>
<!DOCTYPE svg PUBLIC "-//W3C//DTD SVG 1.1//EN"
  "http://www.w3.org/Graphics/SVG/1.1/DTD/svg11.dtd">
<svg xmlns:xlink="http://www.w3.org/1999/xlink" width="36.3573pt" height="36.21564pt" viewBox="0 0 36.3573 36.21564" xmlns="http://www.w3.org/2000/svg" version="1.1">
 <metadata>
  <rdf:RDF xmlns:dc="http://purl.org/dc/elements/1.1/" xmlns:cc="http://creativecommons.org/ns#" xmlns:rdf="http://www.w3.org/1999/02/22-rdf-syntax-ns#">
   <cc:Work>
    <dc:type rdf:resource="http://purl.org/dc/dcmitype/StillImage"/>
    <dc:date>2022-01-14T17:05:46.774729</dc:date>
    <dc:format>image/svg+xml</dc:format>
    <dc:creator>
     <cc:Agent>
      <dc:title>Matplotlib v3.5.1, https://matplotlib.org/</dc:title>
     </cc:Agent>
    </dc:creator>
   </cc:Work>
  </rdf:RDF>
 </metadata>
 <defs>
  <style type="text/css">*{stroke-linejoin: round; stroke-linecap: butt}</style>
 </defs>
 <g id="figure_1">
  <g id="patch_1">
   <path d="M -0 36.21564 
L 36.3573 36.21564 
L 36.3573 0 
L -0 0 
L -0 36.21564 
z
" style="fill: none"/>
  </g>
  <g id="axes_1">
   <g id="patch_2">
    <path d="M 18.212655 8.19162 
C 15.690747 8.19162 13.262029 9.155362 11.427915 10.883878 
C 9.593802 12.612394 8.489842 14.977941 8.34395 17.492145 
C 8.198059 20.006348 9.021019 22.483399 10.642926 24.411903 
C 12.264834 26.340408 14.565825 27.577841 17.070853 27.868733 
L 18.212655 18.063212 
L 18.212655 8.19162 
z
" style="fill: #0000ff; stroke: #000000; stroke-linejoin: miter"/>
   </g>
   <g id="patch_3">
    <path d="M 17.070853 27.868733 
C 18.408118 28.02402 19.763161 27.904877 21.052679 27.518628 
C 22.342197 27.132379 23.539212 26.487105 24.570135 25.622476 
C 25.601058 24.757846 26.444322 23.69195 27.048084 22.490314 
C 27.651847 21.288678 28.003478 19.976443 28.081359 18.63428 
C 28.159241 17.292117 27.961744 15.948106 27.50101 14.684872 
C 27.040276 13.421637 26.325944 12.265608 25.401929 11.287853 
C 24.477914 10.310098 23.363546 9.531072 22.127335 8.998668 
C 20.891124 8.466264 19.558931 8.19162 18.212655 8.19162 
L 18.212655 18.063212 
L 17.070853 27.868733 
z
" style="fill: #ff0000; stroke: #000000; stroke-linejoin: miter"/>
   </g>
   <g id="matplotlib.axis_1"/>
   <g id="matplotlib.axis_2"/>
  </g>
 </g>
</svg>
