<?xml version="1.0" encoding="utf-8" standalone="no"?>
<!DOCTYPE svg PUBLIC "-//W3C//DTD SVG 1.1//EN"
  "http://www.w3.org/Graphics/SVG/1.1/DTD/svg11.dtd">
<svg xmlns:xlink="http://www.w3.org/1999/xlink" width="371.52pt" height="280.512pt" viewBox="0 0 371.52 280.512" xmlns="http://www.w3.org/2000/svg" version="1.1">
 <metadata>
  <rdf:RDF xmlns:dc="http://purl.org/dc/elements/1.1/" xmlns:cc="http://creativecommons.org/ns#" xmlns:rdf="http://www.w3.org/1999/02/22-rdf-syntax-ns#">
   <cc:Work>
    <dc:type rdf:resource="http://purl.org/dc/dcmitype/StillImage"/>
    <dc:date>2021-12-03T16:10:00.020639</dc:date>
    <dc:format>image/svg+xml</dc:format>
    <dc:creator>
     <cc:Agent>
      <dc:title>Matplotlib v3.5.0, https://matplotlib.org/</dc:title>
     </cc:Agent>
    </dc:creator>
   </cc:Work>
  </rdf:RDF>
 </metadata>
 <defs>
  <style type="text/css">*{stroke-linejoin: round; stroke-linecap: butt}</style>
 </defs>
 <g id="figure_1">
  <g id="patch_1">
   <path d="M 0 280.512 
L 371.52 280.512 
L 371.52 0 
L 0 0 
L 0 280.512 
z
" style="fill: none"/>
  </g>
  <g id="axes_1">
   <g id="patch_2">
    <path d="M 186.174226 19.296 
C 155.45397 19.296 125.868882 31.051936 103.526895 52.136758 
C 81.184908 73.221581 67.737174 102.077046 65.960018 132.745855 
C 64.182863 163.414664 74.207625 193.630283 93.964662 217.154603 
C 113.721698 240.678923 141.750893 255.773414 172.265534 259.321772 
L 186.174226 139.711867 
L 186.174226 19.296 
z
" style="fill: #0000ff"/>
   </g>
   <g id="patch_3">
    <path d="M 172.265534 259.321772 
C 188.555234 261.216 205.061499 259.762667 220.769578 255.051118 
C 236.477656 250.339569 251.05892 242.468375 263.616962 231.921432 
C 276.175003 221.374488 286.447096 208.372446 293.801744 193.71463 
C 301.156393 179.056814 305.439731 163.049879 306.388434 146.677879 
C 307.337137 130.305879 304.931356 113.911332 299.318991 98.502121 
C 293.706627 83.09291 285.005094 68.99141 273.749335 57.064536 
C 262.493576 45.137662 248.919073 35.634936 233.860341 29.140553 
C 218.801608 22.64617 202.57369 19.296 186.174226 19.296 
L 186.174226 139.711867 
L 172.265534 259.321772 
z
" style="fill: #bf00bf"/>
   </g>
   <g id="matplotlib.axis_1"/>
   <g id="matplotlib.axis_2"/>
  </g>
 </g>
</svg>
