<?xml version="1.0" encoding="utf-8" standalone="no"?>
<!DOCTYPE svg PUBLIC "-//W3C//DTD SVG 1.1//EN"
  "http://www.w3.org/Graphics/SVG/1.1/DTD/svg11.dtd">
<svg xmlns:xlink="http://www.w3.org/1999/xlink" width="371.52pt" height="280.512pt" viewBox="0 0 371.52 280.512" xmlns="http://www.w3.org/2000/svg" version="1.1">
 <metadata>
  <rdf:RDF xmlns:dc="http://purl.org/dc/elements/1.1/" xmlns:cc="http://creativecommons.org/ns#" xmlns:rdf="http://www.w3.org/1999/02/22-rdf-syntax-ns#">
   <cc:Work>
    <dc:type rdf:resource="http://purl.org/dc/dcmitype/StillImage"/>
    <dc:date>2021-12-10T18:14:47.866017</dc:date>
    <dc:format>image/svg+xml</dc:format>
    <dc:creator>
     <cc:Agent>
      <dc:title>Matplotlib v3.5.0, https://matplotlib.org/</dc:title>
     </cc:Agent>
    </dc:creator>
   </cc:Work>
  </rdf:RDF>
 </metadata>
 <defs>
  <style type="text/css">*{stroke-linejoin: round; stroke-linecap: butt}</style>
 </defs>
 <g id="figure_1">
  <g id="patch_1">
   <path d="M 0 280.512 
L 371.52 280.512 
L 371.52 0 
L 0 0 
L 0 280.512 
z
" style="fill: none"/>
  </g>
  <g id="axes_1">
   <g id="patch_2">
    <path d="M 186.002355 19.296 
C 160.607061 19.296 135.853278 27.342983 115.312408 42.275954 
C 94.771537 57.208925 79.481347 78.27344 71.647859 102.430373 
C 63.814371 126.587307 63.83335 152.616202 71.702057 176.761686 
C 79.570764 200.907171 94.891656 221.949366 115.454281 236.852367 
L 186.002355 139.512669 
L 186.002355 19.296 
z
" style="fill: #0000ff"/>
   </g>
   <g id="patch_3">
    <path d="M 115.454281 236.852367 
C 130.809952 247.981567 148.583414 255.320812 167.317538 258.268406 
C 186.051663 261.216 205.220103 259.689128 223.251367 253.812969 
C 241.282631 247.93681 257.670119 237.876457 271.07033 224.456693 
C 284.470541 211.036928 294.506987 194.634788 300.356848 176.594975 
C 306.206709 158.555162 307.705629 139.384515 304.730721 120.654709 
C 301.755813 101.924902 294.39066 84.162161 283.23908 68.822735 
C 272.087501 53.483308 257.462806 40.998167 240.563978 32.390884 
C 223.665149 23.783601 204.966969 19.296004 186.002378 19.296 
L 186.002355 139.512669 
L 115.454281 236.852367 
z
" style="fill: #ff0000"/>
   </g>
   <g id="matplotlib.axis_1"/>
   <g id="matplotlib.axis_2"/>
  </g>
 </g>
</svg>
