<?xml version="1.0" encoding="utf-8" standalone="no"?>
<!DOCTYPE svg PUBLIC "-//W3C//DTD SVG 1.1//EN"
  "http://www.w3.org/Graphics/SVG/1.1/DTD/svg11.dtd">
<svg xmlns:xlink="http://www.w3.org/1999/xlink" width="72.432pt" height="72.0576pt" viewBox="0 0 72.432 72.0576" xmlns="http://www.w3.org/2000/svg" version="1.1">
 <metadata>
  <rdf:RDF xmlns:dc="http://purl.org/dc/elements/1.1/" xmlns:cc="http://creativecommons.org/ns#" xmlns:rdf="http://www.w3.org/1999/02/22-rdf-syntax-ns#">
   <cc:Work>
    <dc:type rdf:resource="http://purl.org/dc/dcmitype/StillImage"/>
    <dc:date>2022-01-14T17:05:47.726949</dc:date>
    <dc:format>image/svg+xml</dc:format>
    <dc:creator>
     <cc:Agent>
      <dc:title>Matplotlib v3.5.1, https://matplotlib.org/</dc:title>
     </cc:Agent>
    </dc:creator>
   </cc:Work>
  </rdf:RDF>
 </metadata>
 <defs>
  <style type="text/css">*{stroke-linejoin: round; stroke-linecap: butt}</style>
 </defs>
 <g id="figure_1">
  <g id="patch_1">
   <path d="M 0 72.0576 
L 72.432 72.0576 
L 72.432 0 
L 0 0 
L 0 72.0576 
z
" style="fill: none"/>
  </g>
  <g id="axes_1">
   <g id="patch_2">
    <path d="M 36.339293 9.8208 
C 29.815023 9.8208 23.523138 12.276846 18.718863 16.698958 
C 13.914588 21.12107 10.940166 27.194231 10.388992 33.70685 
C 9.837818 40.219469 11.749156 46.707606 15.741695 51.876883 
C 19.734234 57.046161 25.523558 60.528335 31.954701 61.628714 
L 36.339293 35.910962 
L 36.339293 9.8208 
z
" style="fill: #0000ff; stroke: #000000; stroke-linejoin: miter"/>
   </g>
   <g id="patch_3">
    <path d="M 31.954701 61.628714 
C 35.508646 62.2368 39.150222 62.098984 42.648242 61.224015 
C 46.146261 60.349045 49.4251 58.75584 52.2766 56.545542 
C 55.1281 54.335245 57.490614 51.555641 59.214156 48.383194 
C 60.937698 45.210748 61.985007 41.714045 62.289595 38.115076 
C 62.594182 34.516106 62.149462 30.892676 60.983669 27.474822 
C 59.817876 24.056967 57.956213 20.918578 55.516868 18.258898 
C 53.077523 15.599217 50.113233 13.475745 46.812188 12.023291 
C 43.511142 10.570836 39.944707 9.820801 36.339298 9.8208 
L 36.339293 35.910962 
L 31.954701 61.628714 
z
" style="fill: #ff0000; stroke: #000000; stroke-linejoin: miter"/>
   </g>
   <g id="matplotlib.axis_1"/>
   <g id="matplotlib.axis_2"/>
  </g>
 </g>
</svg>
