<?xml version="1.0" encoding="utf-8" standalone="no"?>
<!DOCTYPE svg PUBLIC "-//W3C//DTD SVG 1.1//EN"
  "http://www.w3.org/Graphics/SVG/1.1/DTD/svg11.dtd">
<svg xmlns:xlink="http://www.w3.org/1999/xlink" width="23.6349pt" height="23.57532pt" viewBox="0 0 23.6349 23.57532" xmlns="http://www.w3.org/2000/svg" version="1.1">
 <metadata>
  <rdf:RDF xmlns:dc="http://purl.org/dc/elements/1.1/" xmlns:cc="http://creativecommons.org/ns#" xmlns:rdf="http://www.w3.org/1999/02/22-rdf-syntax-ns#">
   <cc:Work>
    <dc:type rdf:resource="http://purl.org/dc/dcmitype/StillImage"/>
    <dc:date>2021-12-14T09:20:51.900887</dc:date>
    <dc:format>image/svg+xml</dc:format>
    <dc:creator>
     <cc:Agent>
      <dc:title>Matplotlib v3.5.0, https://matplotlib.org/</dc:title>
     </cc:Agent>
    </dc:creator>
   </cc:Work>
  </rdf:RDF>
 </metadata>
 <defs>
  <style type="text/css">*{stroke-linejoin: round; stroke-linecap: butt}</style>
 </defs>
 <g id="figure_1">
  <g id="patch_1">
   <path d="M 0 23.57532 
L 23.6349 23.57532 
L 23.6349 0 
L 0 0 
L 0 23.57532 
z
" style="fill: none"/>
  </g>
  <g id="axes_1">
   <g id="patch_2">
    <path d="M 11.849569 7.61706 
C 10.91562 7.61706 10.008288 7.931273 9.274361 8.508867 
C 8.540435 9.08646 8.021748 9.89451 7.802214 10.802291 
C 7.582679 11.710072 7.674811 12.66584 8.063704 13.514972 
C 8.452597 14.364104 9.116083 15.058198 9.946825 15.484964 
L 11.849569 11.781088 
L 11.849569 7.61706 
z
" style="fill: #0000ff"/>
   </g>
   <g id="patch_3">
    <path d="M 9.946825 15.484964 
C 10.507264 15.772871 11.125808 15.929857 11.755713 15.944058 
C 12.385618 15.95826 13.010608 15.82931 13.583453 15.566954 
C 14.156298 15.304597 14.662195 14.915613 15.062915 14.429397 
C 15.463634 13.943181 15.748822 13.372297 15.896925 12.759886 
C 16.045028 12.147474 16.052221 11.509361 15.917959 10.893767 
C 15.783697 10.278173 15.51145 9.701005 15.121791 9.205881 
C 14.732133 8.710756 14.235132 8.310468 13.668346 8.035266 
C 13.10156 7.760064 12.479635 7.61706 11.84957 7.61706 
L 11.849569 11.781088 
L 9.946825 15.484964 
z
" style="fill: #ff0000"/>
   </g>
   <g id="matplotlib.axis_1"/>
   <g id="matplotlib.axis_2"/>
  </g>
 </g>
</svg>
