<?xml version="1.0" encoding="utf-8" standalone="no"?>
<!DOCTYPE svg PUBLIC "-//W3C//DTD SVG 1.1//EN"
  "http://www.w3.org/Graphics/SVG/1.1/DTD/svg11.dtd">
<svg xmlns:xlink="http://www.w3.org/1999/xlink" width="371.52pt" height="280.512pt" viewBox="0 0 371.52 280.512" xmlns="http://www.w3.org/2000/svg" version="1.1">
 <metadata>
  <rdf:RDF xmlns:dc="http://purl.org/dc/elements/1.1/" xmlns:cc="http://creativecommons.org/ns#" xmlns:rdf="http://www.w3.org/1999/02/22-rdf-syntax-ns#">
   <cc:Work>
    <dc:type rdf:resource="http://purl.org/dc/dcmitype/StillImage"/>
    <dc:date>2021-12-03T16:10:01.903207</dc:date>
    <dc:format>image/svg+xml</dc:format>
    <dc:creator>
     <cc:Agent>
      <dc:title>Matplotlib v3.5.0, https://matplotlib.org/</dc:title>
     </cc:Agent>
    </dc:creator>
   </cc:Work>
  </rdf:RDF>
 </metadata>
 <defs>
  <style type="text/css">*{stroke-linejoin: round; stroke-linecap: butt}</style>
 </defs>
 <g id="figure_1">
  <g id="patch_1">
   <path d="M 0 280.512 
L 371.52 280.512 
L 371.52 0 
L 0 0 
L 0 280.512 
z
" style="fill: none"/>
  </g>
  <g id="axes_1">
   <g id="patch_2">
    <path d="M 186.691558 19.296 
C 159.604197 19.296 133.28883 28.409134 112.002747 45.161083 
C 90.716664 61.913032 75.673178 85.34893 69.306019 111.677325 
C 62.938861 138.005721 65.610958 165.725887 76.890022 190.353268 
C 88.169086 214.980648 107.412205 235.111473 131.506235 247.488986 
L 186.691558 140.065397 
L 186.691558 19.296 
z
" style="fill: #0000ff"/>
   </g>
   <g id="patch_3">
    <path d="M 131.506235 247.488986 
C 147.760658 255.839159 165.700285 260.392224 183.969439 260.804112 
C 202.238593 261.216 220.36519 257.476067 236.979424 249.866935 
C 253.593657 242.257804 268.266207 230.976098 279.888286 216.874362 
C 291.510364 202.772627 299.781651 186.215259 304.077094 168.45348 
C 308.372537 150.6917 308.581139 132.184483 304.687138 114.330396 
C 300.793137 96.47631 292.897155 79.736714 281.595882 65.376599 
C 270.294609 51.016485 255.880077 39.406926 239.441574 31.425243 
C 223.003071 23.44356 204.965377 19.296003 186.691581 19.296 
L 186.691558 140.065397 
L 131.506235 247.488986 
z
" style="fill: #bf00bf"/>
   </g>
   <g id="matplotlib.axis_1"/>
   <g id="matplotlib.axis_2"/>
  </g>
 </g>
</svg>
