<?xml version="1.0" encoding="utf-8" standalone="no"?>
<!DOCTYPE svg PUBLIC "-//W3C//DTD SVG 1.1//EN"
  "http://www.w3.org/Graphics/SVG/1.1/DTD/svg11.dtd">
<svg xmlns:xlink="http://www.w3.org/1999/xlink" width="54.45045pt" height="54.19206pt" viewBox="0 0 54.45045 54.19206" xmlns="http://www.w3.org/2000/svg" version="1.1">
 <metadata>
  <rdf:RDF xmlns:dc="http://purl.org/dc/elements/1.1/" xmlns:cc="http://creativecommons.org/ns#" xmlns:rdf="http://www.w3.org/1999/02/22-rdf-syntax-ns#">
   <cc:Work>
    <dc:type rdf:resource="http://purl.org/dc/dcmitype/StillImage"/>
    <dc:date>2021-12-14T09:20:53.719811</dc:date>
    <dc:format>image/svg+xml</dc:format>
    <dc:creator>
     <cc:Agent>
      <dc:title>Matplotlib v3.5.0, https://matplotlib.org/</dc:title>
     </cc:Agent>
    </dc:creator>
   </cc:Work>
  </rdf:RDF>
 </metadata>
 <defs>
  <style type="text/css">*{stroke-linejoin: round; stroke-linecap: butt}</style>
 </defs>
 <g id="figure_1">
  <g id="patch_1">
   <path d="M 0 54.19206 
L 54.45045 54.19206 
L 54.45045 0 
L 0 0 
L 0 54.19206 
z
" style="fill: none"/>
  </g>
  <g id="axes_1">
   <g id="patch_2">
    <path d="M 27.342866 9.00873 
C 23.356118 9.00873 19.479833 10.331355 16.324584 12.768272 
C 13.169335 15.205189 10.90997 18.621356 9.902374 22.478675 
C 8.894777 26.335993 9.194786 30.420712 10.755142 34.089423 
C 12.315498 37.758135 15.049737 40.80754 18.527172 42.75731 
L 27.342866 27.034423 
L 27.342866 9.00873 
z
" style="fill: #0000ff"/>
   </g>
   <g id="patch_3">
    <path d="M 18.527172 42.75731 
C 20.930413 44.104787 23.610909 44.883495 26.362052 45.033413 
C 29.113194 45.18333 31.862435 44.700503 34.397866 43.622147 
C 36.933297 42.543792 39.188058 40.898344 40.988356 38.812633 
C 42.788654 36.726922 44.087013 34.255948 44.783358 31.590172 
C 45.479704 28.924395 45.555673 26.134113 45.005409 23.434396 
C 44.455145 20.734679 43.29316 18.19672 41.609017 16.016141 
C 39.924875 13.835562 37.762986 12.069866 35.289986 10.85515 
C 32.816987 9.640433 30.09809 9.00873 27.342866 9.00873 
L 27.342866 27.034423 
L 18.527172 42.75731 
z
" style="fill: #ff0000"/>
   </g>
   <g id="matplotlib.axis_1"/>
   <g id="matplotlib.axis_2"/>
  </g>
 </g>
</svg>
