<?xml version="1.0" encoding="utf-8" standalone="no"?>
<!DOCTYPE svg PUBLIC "-//W3C//DTD SVG 1.1//EN"
  "http://www.w3.org/Graphics/SVG/1.1/DTD/svg11.dtd">
<svg xmlns:xlink="http://www.w3.org/1999/xlink" width="60.81165pt" height="60.51222pt" viewBox="0 0 60.81165 60.51222" xmlns="http://www.w3.org/2000/svg" version="1.1">
 <metadata>
  <rdf:RDF xmlns:dc="http://purl.org/dc/elements/1.1/" xmlns:cc="http://creativecommons.org/ns#" xmlns:rdf="http://www.w3.org/1999/02/22-rdf-syntax-ns#">
   <cc:Work>
    <dc:type rdf:resource="http://purl.org/dc/dcmitype/StillImage"/>
    <dc:date>2021-12-14T09:20:52.843705</dc:date>
    <dc:format>image/svg+xml</dc:format>
    <dc:creator>
     <cc:Agent>
      <dc:title>Matplotlib v3.5.0, https://matplotlib.org/</dc:title>
     </cc:Agent>
    </dc:creator>
   </cc:Work>
  </rdf:RDF>
 </metadata>
 <defs>
  <style type="text/css">*{stroke-linejoin: round; stroke-linecap: butt}</style>
 </defs>
 <g id="figure_1">
  <g id="patch_1">
   <path d="M 0 60.51222 
L 60.81165 60.51222 
L 60.81165 0 
L 0 0 
L 0 60.51222 
z
" style="fill: none"/>
  </g>
  <g id="axes_1">
   <g id="patch_2">
    <path d="M 30.457065 9.29601 
C 26.107811 9.29601 21.866338 10.664126 18.33353 13.206539 
C 14.800721 15.748952 12.151675 19.339652 10.761676 23.46995 
C 9.371678 27.600249 9.30962 32.065434 10.584296 36.23293 
C 11.858971 40.400427 14.407201 44.06368 17.867983 46.703722 
L 30.457065 30.127622 
L 30.457065 9.29601 
z
" style="fill: #0000ff"/>
   </g>
   <g id="patch_3">
    <path d="M 17.867983 46.703722 
C 20.493516 48.706598 23.557561 50.054414 26.80583 50.635312 
C 30.054098 51.21621 33.394173 51.013663 36.548858 50.044482 
C 39.703543 49.0753 42.583084 47.367058 44.948505 45.061523 
C 47.313925 42.755989 49.097927 39.918758 50.152454 36.785294 
C 51.206981 33.651831 51.50203 30.311286 51.013114 27.040894 
C 50.524199 23.770503 49.26523 20.663312 47.34069 17.97719 
C 45.416151 15.291067 42.880795 13.102437 39.945036 11.592936 
C 37.009278 10.083435 33.75664 9.29601 30.457065 9.29601 
L 30.457065 30.127622 
L 17.867983 46.703722 
z
" style="fill: #ff0000"/>
   </g>
   <g id="matplotlib.axis_1"/>
   <g id="matplotlib.axis_2"/>
  </g>
 </g>
</svg>
