<?xml version="1.0" encoding="utf-8" standalone="no"?>
<!DOCTYPE svg PUBLIC "-//W3C//DTD SVG 1.1//EN"
  "http://www.w3.org/Graphics/SVG/1.1/DTD/svg11.dtd">
<svg xmlns:xlink="http://www.w3.org/1999/xlink" width="152.49105pt" height="151.60014pt" viewBox="0 0 152.49105 151.60014" xmlns="http://www.w3.org/2000/svg" version="1.1">
 <metadata>
  <rdf:RDF xmlns:dc="http://purl.org/dc/elements/1.1/" xmlns:cc="http://creativecommons.org/ns#" xmlns:rdf="http://www.w3.org/1999/02/22-rdf-syntax-ns#">
   <cc:Work>
    <dc:type rdf:resource="http://purl.org/dc/dcmitype/StillImage"/>
    <dc:date>2022-01-14T17:05:51.576927</dc:date>
    <dc:format>image/svg+xml</dc:format>
    <dc:creator>
     <cc:Agent>
      <dc:title>Matplotlib v3.5.1, https://matplotlib.org/</dc:title>
     </cc:Agent>
    </dc:creator>
   </cc:Work>
  </rdf:RDF>
 </metadata>
 <defs>
  <style type="text/css">*{stroke-linejoin: round; stroke-linecap: butt}</style>
 </defs>
 <g id="figure_1">
  <g id="patch_1">
   <path d="M 0 151.60014 
L 152.49105 151.60014 
L 152.49105 0 
L 0 0 
L 0 151.60014 
z
" style="fill: none"/>
  </g>
  <g id="axes_1">
   <g id="patch_2">
    <path d="M 76.363544 13.43637 
C 60.136477 13.43637 44.532095 19.737124 32.88706 30.99135 
C 21.242025 42.245576 14.450052 57.589553 13.963459 73.742301 
C 13.476866 89.895048 19.332997 105.6169 30.279645 117.546076 
C 41.226292 129.475252 56.42334 136.69623 72.621225 137.664958 
L 76.363544 75.606567 
L 76.363544 13.43637 
z
" style="fill: #0000ff; stroke: #000000; stroke-linejoin: miter"/>
   </g>
   <g id="patch_3">
    <path d="M 72.621225 137.664958 
C 80.961736 138.16377 89.31855 136.98999 97.195173 134.213355 
C 105.071796 131.43672 112.309089 127.113329 118.477071 121.500043 
C 124.645053 115.886757 129.619106 109.096987 133.103712 101.534124 
C 136.588319 93.971262 138.513076 85.788108 138.76363 77.470839 
C 139.014184 69.15357 137.585473 60.870228 134.562379 53.112941 
C 131.539285 45.355654 126.982888 38.28115 121.163889 32.30974 
C 115.344891 26.338329 108.38086 21.590658 100.685542 18.348794 
C 92.990223 15.10693 84.719094 13.436372 76.363556 13.43637 
L 76.363544 75.606567 
L 72.621225 137.664958 
z
" style="fill: #ff0000; stroke: #000000; stroke-linejoin: miter"/>
   </g>
   <g id="matplotlib.axis_1"/>
   <g id="matplotlib.axis_2"/>
  </g>
 </g>
</svg>
