<?xml version="1.0" encoding="utf-8" standalone="no"?>
<!DOCTYPE svg PUBLIC "-//W3C//DTD SVG 1.1//EN"
  "http://www.w3.org/Graphics/SVG/1.1/DTD/svg11.dtd">
<svg xmlns:xlink="http://www.w3.org/1999/xlink" width="371.52pt" height="280.512pt" viewBox="0 0 371.52 280.512" xmlns="http://www.w3.org/2000/svg" version="1.1">
 <metadata>
  <rdf:RDF xmlns:dc="http://purl.org/dc/elements/1.1/" xmlns:cc="http://creativecommons.org/ns#" xmlns:rdf="http://www.w3.org/1999/02/22-rdf-syntax-ns#">
   <cc:Work>
    <dc:type rdf:resource="http://purl.org/dc/dcmitype/StillImage"/>
    <dc:date>2021-12-03T16:10:04.732165</dc:date>
    <dc:format>image/svg+xml</dc:format>
    <dc:creator>
     <cc:Agent>
      <dc:title>Matplotlib v3.5.0, https://matplotlib.org/</dc:title>
     </cc:Agent>
    </dc:creator>
   </cc:Work>
  </rdf:RDF>
 </metadata>
 <defs>
  <style type="text/css">*{stroke-linejoin: round; stroke-linecap: butt}</style>
 </defs>
 <g id="figure_1">
  <g id="patch_1">
   <path d="M 0 280.512 
L 371.52 280.512 
L 371.52 0 
L 0 0 
L 0 280.512 
z
" style="fill: none"/>
  </g>
  <g id="axes_1">
   <g id="patch_2">
    <path d="M 185.987964 19.296 
C 154.644163 19.296 124.503125 31.516878 102.009864 53.345461 
C 79.516604 75.174044 66.397397 104.935067 65.457506 136.264772 
C 64.517616 167.594477 75.829174 198.088422 96.973446 221.22613 
C 118.117719 244.363839 147.471959 258.369574 178.759392 260.24851 
L 185.987964 139.880684 
L 185.987964 19.296 
z
" style="fill: #0000ff"/>
   </g>
   <g id="patch_3">
    <path d="M 178.759392 260.24851 
C 194.869716 261.216 211.01153 258.939348 226.22582 253.553815 
C 241.44011 248.168282 255.419485 239.782677 267.333406 228.895205 
C 279.247327 218.007732 288.855084 204.838362 295.585864 190.169511 
C 302.316644 175.50066 306.034456 159.628698 306.51842 143.496607 
C 307.002384 127.364516 304.242722 111.298229 298.403389 96.252274 
C 292.564056 81.206319 283.763031 67.484684 272.523198 55.902597 
C 261.283366 44.320509 247.831816 35.111974 232.967729 28.824088 
C 218.103643 22.536201 202.127335 19.296003 185.987986 19.296 
L 185.987964 139.880684 
L 178.759392 260.24851 
z
" style="fill: #bf00bf"/>
   </g>
   <g id="matplotlib.axis_1"/>
   <g id="matplotlib.axis_2"/>
  </g>
 </g>
</svg>
