<?xml version="1.0" encoding="utf-8" standalone="no"?>
<!DOCTYPE svg PUBLIC "-//W3C//DTD SVG 1.1//EN"
  "http://www.w3.org/Graphics/SVG/1.1/DTD/svg11.dtd">
<svg xmlns:xlink="http://www.w3.org/1999/xlink" width="18.0828pt" height="18.05904pt" viewBox="0 0 18.0828 18.05904" xmlns="http://www.w3.org/2000/svg" version="1.1">
 <metadata>
  <rdf:RDF xmlns:dc="http://purl.org/dc/elements/1.1/" xmlns:cc="http://creativecommons.org/ns#" xmlns:rdf="http://www.w3.org/1999/02/22-rdf-syntax-ns#">
   <cc:Work>
    <dc:type rdf:resource="http://purl.org/dc/dcmitype/StillImage"/>
    <dc:date>2021-12-14T09:21:02.874637</dc:date>
    <dc:format>image/svg+xml</dc:format>
    <dc:creator>
     <cc:Agent>
      <dc:title>Matplotlib v3.5.0, https://matplotlib.org/</dc:title>
     </cc:Agent>
    </dc:creator>
   </cc:Work>
  </rdf:RDF>
 </metadata>
 <defs>
  <style type="text/css">*{stroke-linejoin: round; stroke-linecap: butt}</style>
 </defs>
 <g id="figure_1">
  <g id="patch_1">
   <path d="M 0 18.05904 
L 18.0828 18.05904 
L 18.0828 -0 
L 0 -0 
L 0 18.05904 
z
" style="fill: none"/>
  </g>
  <g id="axes_1">
   <g id="patch_2">
    <path d="M 9.047241 7.36632 
C 8.624806 7.36632 8.217947 7.527605 7.910487 7.816945 
C 7.603027 8.106285 7.41764 8.502344 7.39252 8.923523 
C 7.3674 9.344702 7.5044 9.759943 7.775293 10.083694 
C 8.046187 10.407445 8.430998 10.615833 8.850446 10.665924 
L 9.047241 9.021976 
L 9.047241 7.36632 
z
" style="fill: #0000ff"/>
   </g>
   <g id="patch_3">
    <path d="M 8.850446 10.665924 
C 9.07483 10.69272 9.302348 10.673406 9.518986 10.609173 
C 9.735624 10.544939 9.93684 10.437131 10.11024 10.292391 
C 10.28364 10.147651 10.425589 9.969012 10.527343 9.767478 
C 10.629098 9.565944 10.688524 9.34574 10.701962 9.12043 
C 10.7154 8.89512 10.682568 8.669426 10.605488 8.457252 
C 10.528408 8.245078 10.408697 8.05087 10.253727 7.886593 
C 10.098757 7.722315 9.911779 7.591411 9.704308 7.501943 
C 9.496837 7.412475 9.273223 7.36632 9.047241 7.36632 
L 9.047241 9.021976 
L 8.850446 10.665924 
z
" style="fill: #ff0000"/>
   </g>
   <g id="matplotlib.axis_1"/>
   <g id="matplotlib.axis_2"/>
  </g>
 </g>
</svg>
