<?xml version="1.0" encoding="utf-8" standalone="no"?>
<!DOCTYPE svg PUBLIC "-//W3C//DTD SVG 1.1//EN"
  "http://www.w3.org/Graphics/SVG/1.1/DTD/svg11.dtd">
<svg xmlns:xlink="http://www.w3.org/1999/xlink" width="371.52pt" height="280.512pt" viewBox="0 0 371.52 280.512" xmlns="http://www.w3.org/2000/svg" version="1.1">
 <metadata>
  <rdf:RDF xmlns:dc="http://purl.org/dc/elements/1.1/" xmlns:cc="http://creativecommons.org/ns#" xmlns:rdf="http://www.w3.org/1999/02/22-rdf-syntax-ns#">
   <cc:Work>
    <dc:type rdf:resource="http://purl.org/dc/dcmitype/StillImage"/>
    <dc:date>2021-12-03T16:10:05.694404</dc:date>
    <dc:format>image/svg+xml</dc:format>
    <dc:creator>
     <cc:Agent>
      <dc:title>Matplotlib v3.5.0, https://matplotlib.org/</dc:title>
     </cc:Agent>
    </dc:creator>
   </cc:Work>
  </rdf:RDF>
 </metadata>
 <defs>
  <style type="text/css">*{stroke-linejoin: round; stroke-linecap: butt}</style>
 </defs>
 <g id="figure_1">
  <g id="patch_1">
   <path d="M 0 280.512 
L 371.52 280.512 
L 371.52 0 
L 0 0 
L 0 280.512 
z
" style="fill: none"/>
  </g>
  <g id="axes_1">
   <g id="patch_2">
    <path d="M 186.564628 19.296 
C 157.466381 19.296 129.332854 29.848532 107.41245 48.984985 
C 85.492046 68.121439 71.238257 94.572919 67.310176 123.404813 
C 63.382096 152.236708 70.040184 181.537239 86.042354 205.840295 
C 102.044524 230.143351 126.329707 247.837451 154.367422 255.621701 
L 186.564628 139.652137 
L 186.564628 19.296 
z
" style="fill: #0000ff"/>
   </g>
   <g id="patch_3">
    <path d="M 154.367422 255.621701 
C 170.918642 260.216899 188.26342 261.216 205.232807 258.551671 
C 222.202193 255.887341 238.406209 249.620811 252.752786 240.174412 
C 267.099363 230.728013 279.258799 218.318835 288.411608 203.783196 
C 297.564417 189.247556 303.500256 172.919502 305.81908 155.899462 
C 308.137904 138.879421 306.786424 121.558536 301.855722 105.104148 
C 296.92502 88.649759 288.528409 73.440009 277.231781 60.499959 
C 265.935152 47.559909 251.998115 37.186937 236.359956 30.080129 
C 220.721798 22.97332 203.741902 19.296 186.564628 19.296 
L 186.564628 139.652137 
L 154.367422 255.621701 
z
" style="fill: #bf00bf"/>
   </g>
   <g id="matplotlib.axis_1"/>
   <g id="matplotlib.axis_2"/>
  </g>
 </g>
</svg>
