<?xml version="1.0" encoding="utf-8" standalone="no"?>
<!DOCTYPE svg PUBLIC "-//W3C//DTD SVG 1.1//EN"
  "http://www.w3.org/Graphics/SVG/1.1/DTD/svg11.dtd">
<svg xmlns:xlink="http://www.w3.org/1999/xlink" width="133.5051pt" height="132.73668pt" viewBox="0 0 133.5051 132.73668" xmlns="http://www.w3.org/2000/svg" version="1.1">
 <metadata>
  <rdf:RDF xmlns:dc="http://purl.org/dc/elements/1.1/" xmlns:cc="http://creativecommons.org/ns#" xmlns:rdf="http://www.w3.org/1999/02/22-rdf-syntax-ns#">
   <cc:Work>
    <dc:type rdf:resource="http://purl.org/dc/dcmitype/StillImage"/>
    <dc:date>2022-01-14T17:05:52.545241</dc:date>
    <dc:format>image/svg+xml</dc:format>
    <dc:creator>
     <cc:Agent>
      <dc:title>Matplotlib v3.5.1, https://matplotlib.org/</dc:title>
     </cc:Agent>
    </dc:creator>
   </cc:Work>
  </rdf:RDF>
 </metadata>
 <defs>
  <style type="text/css">*{stroke-linejoin: round; stroke-linecap: butt}</style>
 </defs>
 <g id="figure_1">
  <g id="patch_1">
   <path d="M 0 132.73668 
L 133.5051 132.73668 
L 133.5051 0 
L 0 0 
L 0 132.73668 
z
" style="fill: none"/>
  </g>
  <g id="axes_1">
   <g id="patch_2">
    <path d="M 67.110358 12.57894 
C 54.170731 12.57894 41.660104 17.271519 31.912374 25.781261 
C 22.164644 34.291002 15.826163 46.053645 14.079394 58.874828 
C 12.332626 71.696011 15.293394 84.725591 22.409359 95.532856 
C 29.525324 106.340122 40.324642 114.208467 52.792663 117.670025 
L 67.110358 66.09981 
L 67.110358 12.57894 
z
" style="fill: #0000ff; stroke: #000000; stroke-linejoin: miter"/>
   </g>
   <g id="patch_3">
    <path d="M 52.792663 117.670025 
C 60.152783 119.713452 67.86579 120.15774 75.411864 118.972946 
C 82.957938 117.788152 90.163661 115.001504 96.543405 110.800809 
C 102.923148 106.600113 108.330297 101.081907 112.400437 94.61809 
C 116.470576 88.154273 119.11017 80.893391 120.141322 73.324792 
C 121.172474 65.756193 120.571488 58.053812 118.378866 50.736751 
C 116.186245 43.41969 112.452377 36.656104 107.428907 30.901826 
C 102.405438 25.147547 96.207812 20.534816 89.253718 17.374507 
C 82.299624 14.214198 74.748877 12.57894 67.110358 12.57894 
L 67.110358 66.09981 
L 52.792663 117.670025 
z
" style="fill: #ff0000; stroke: #000000; stroke-linejoin: miter"/>
   </g>
   <g id="matplotlib.axis_1"/>
   <g id="matplotlib.axis_2"/>
  </g>
 </g>
</svg>
