<?xml version="1.0" encoding="utf-8" standalone="no"?>
<!DOCTYPE svg PUBLIC "-//W3C//DTD SVG 1.1//EN"
  "http://www.w3.org/Graphics/SVG/1.1/DTD/svg11.dtd">
<svg xmlns:xlink="http://www.w3.org/1999/xlink" width="48.92625pt" height="48.7035pt" viewBox="0 0 48.92625 48.7035" xmlns="http://www.w3.org/2000/svg" version="1.1">
 <metadata>
  <rdf:RDF xmlns:dc="http://purl.org/dc/elements/1.1/" xmlns:cc="http://creativecommons.org/ns#" xmlns:rdf="http://www.w3.org/1999/02/22-rdf-syntax-ns#">
   <cc:Work>
    <dc:type rdf:resource="http://purl.org/dc/dcmitype/StillImage"/>
    <dc:date>2022-01-14T17:05:53.447448</dc:date>
    <dc:format>image/svg+xml</dc:format>
    <dc:creator>
     <cc:Agent>
      <dc:title>Matplotlib v3.5.1, https://matplotlib.org/</dc:title>
     </cc:Agent>
    </dc:creator>
   </cc:Work>
  </rdf:RDF>
 </metadata>
 <defs>
  <style type="text/css">*{stroke-linejoin: round; stroke-linecap: butt}</style>
 </defs>
 <g id="figure_1">
  <g id="patch_1">
   <path d="M 0 48.7035 
L 48.92625 48.7035 
L 48.92625 -0 
L 0 -0 
L 0 48.7035 
z
" style="fill: none"/>
  </g>
  <g id="axes_1">
   <g id="patch_2">
    <path d="M 24.588651 8.75925 
C 21.079602 8.75925 17.67143 9.944889 14.920028 12.122781 
C 12.168627 14.300673 10.232188 17.345601 9.426558 20.760917 
C 8.620928 24.176233 8.992425 27.765574 10.480458 30.943495 
C 11.96849 34.121417 14.487502 36.705204 17.626627 38.273425 
L 24.588651 24.337465 
L 24.588651 8.75925 
z
" style="fill: #0000ff; stroke: #000000; stroke-linejoin: miter"/>
   </g>
   <g id="patch_3">
    <path d="M 17.626627 38.273425 
C 19.72868 39.323553 22.041341 39.884599 24.390917 39.914424 
C 26.740492 39.94425 29.06665 39.44209 31.194682 38.445658 
C 33.322714 37.449227 35.197977 35.984112 36.679627 34.16035 
C 38.161278 32.336588 39.21127 30.201011 39.750745 27.914013 
C 40.290219 25.627014 40.305322 23.247319 39.79492 20.953658 
C 39.284519 18.659996 38.261717 16.511263 36.803335 14.668842 
C 35.344953 12.82642 33.488438 11.33762 31.373225 10.314258 
C 29.258012 9.290896 26.938416 8.75925 24.588651 8.75925 
L 24.588651 24.337465 
L 17.626627 38.273425 
z
" style="fill: #ff0000; stroke: #000000; stroke-linejoin: miter"/>
   </g>
   <g id="matplotlib.axis_1"/>
   <g id="matplotlib.axis_2"/>
  </g>
 </g>
</svg>
