<?xml version="1.0" encoding="utf-8" standalone="no"?>
<!DOCTYPE svg PUBLIC "-//W3C//DTD SVG 1.1//EN"
  "http://www.w3.org/Graphics/SVG/1.1/DTD/svg11.dtd">
<svg xmlns:xlink="http://www.w3.org/1999/xlink" width="68.9724pt" height="68.62032pt" viewBox="0 0 68.9724 68.62032" xmlns="http://www.w3.org/2000/svg" version="1.1">
 <metadata>
  <rdf:RDF xmlns:dc="http://purl.org/dc/elements/1.1/" xmlns:cc="http://creativecommons.org/ns#" xmlns:rdf="http://www.w3.org/1999/02/22-rdf-syntax-ns#">
   <cc:Work>
    <dc:type rdf:resource="http://purl.org/dc/dcmitype/StillImage"/>
    <dc:date>2022-01-14T17:05:54.402421</dc:date>
    <dc:format>image/svg+xml</dc:format>
    <dc:creator>
     <cc:Agent>
      <dc:title>Matplotlib v3.5.1, https://matplotlib.org/</dc:title>
     </cc:Agent>
    </dc:creator>
   </cc:Work>
  </rdf:RDF>
 </metadata>
 <defs>
  <style type="text/css">*{stroke-linejoin: round; stroke-linecap: butt}</style>
 </defs>
 <g id="figure_1">
  <g id="patch_1">
   <path d="M 0 68.62032 
L 68.9724 68.62032 
L 68.9724 0 
L 0 0 
L 0 68.62032 
z
" style="fill: none"/>
  </g>
  <g id="axes_1">
   <g id="patch_2">
    <path d="M 34.650763 9.66456 
C 29.206531 9.66456 23.913743 11.474265 19.609224 14.807548 
C 15.304705 18.140832 12.227935 22.812248 10.865373 28.083214 
C 9.502811 33.35418 9.930261 38.931449 12.080142 43.933216 
C 14.230023 48.934983 17.982726 53.082978 22.744923 55.721373 
L 34.650763 34.231816 
L 34.650763 9.66456 
z
" style="fill: #0000ff; stroke: #000000; stroke-linejoin: miter"/>
   </g>
   <g id="patch_3">
    <path d="M 22.744923 55.721373 
C 26.024988 57.538625 29.677992 58.581002 33.423138 58.768381 
C 37.168284 58.95576 40.907089 58.283213 44.352162 56.802437 
C 47.797236 55.321661 50.857985 53.071595 53.299139 50.225194 
C 55.740293 47.378794 57.497659 44.010909 58.436153 40.380419 
C 59.374646 36.749928 59.469589 32.952302 58.713683 29.27945 
C 57.957778 25.606599 56.3709 22.155106 54.075031 19.190277 
C 51.779161 16.225448 48.834671 13.825247 45.467896 12.174171 
C 42.101121 10.523095 38.400593 9.66456 34.650763 9.66456 
L 34.650763 34.231816 
L 22.744923 55.721373 
z
" style="fill: #ff0000; stroke: #000000; stroke-linejoin: miter"/>
   </g>
   <g id="matplotlib.axis_1"/>
   <g id="matplotlib.axis_2"/>
  </g>
 </g>
</svg>
