<?xml version="1.0" encoding="utf-8" standalone="no"?>
<!DOCTYPE svg PUBLIC "-//W3C//DTD SVG 1.1//EN"
  "http://www.w3.org/Graphics/SVG/1.1/DTD/svg11.dtd">
<svg xmlns:xlink="http://www.w3.org/1999/xlink" width="130.5756pt" height="129.82608pt" viewBox="0 0 130.5756 129.82608" xmlns="http://www.w3.org/2000/svg" version="1.1">
 <metadata>
  <rdf:RDF xmlns:dc="http://purl.org/dc/elements/1.1/" xmlns:cc="http://creativecommons.org/ns#" xmlns:rdf="http://www.w3.org/1999/02/22-rdf-syntax-ns#">
   <cc:Work>
    <dc:type rdf:resource="http://purl.org/dc/dcmitype/StillImage"/>
    <dc:date>2021-12-14T09:20:58.329192</dc:date>
    <dc:format>image/svg+xml</dc:format>
    <dc:creator>
     <cc:Agent>
      <dc:title>Matplotlib v3.5.0, https://matplotlib.org/</dc:title>
     </cc:Agent>
    </dc:creator>
   </cc:Work>
  </rdf:RDF>
 </metadata>
 <defs>
  <style type="text/css">*{stroke-linejoin: round; stroke-linecap: butt}</style>
 </defs>
 <g id="figure_1">
  <g id="patch_1">
   <path d="M -0 129.82608 
L 130.5756 129.82608 
L 130.5756 0 
L -0 0 
L -0 129.82608 
z
" style="fill: none"/>
  </g>
  <g id="axes_1">
   <g id="patch_2">
    <path d="M 65.729489 12.44664 
C 53.79847 12.44664 42.217628 16.519628 32.913281 23.988118 
C 23.608934 31.456608 17.127249 41.882197 14.546369 53.530727 
C 11.965488 65.179258 13.43691 77.366959 18.715883 88.066569 
C 23.994855 98.766179 32.771502 107.349629 43.585945 112.389176 
L 65.729489 64.871 
L 65.729489 12.44664 
z
" style="fill: #0000ff"/>
   </g>
   <g id="patch_3">
    <path d="M 43.585945 112.389176 
C 50.698848 115.7038 58.466058 117.37944 66.312872 117.292114 
C 74.159687 117.204789 81.887682 115.356706 88.925057 111.884606 
C 95.962432 108.412507 102.131232 103.404191 106.975022 97.230227 
C 111.818811 91.056263 115.215105 83.872775 116.912608 76.211273 
C 118.610112 68.549772 118.5659 60.603995 116.783243 52.961858 
C 115.000587 45.319721 111.524565 38.174472 106.612371 32.054792 
C 101.700176 25.935113 95.476026 20.995754 88.400449 17.602183 
C 81.324871 14.208611 73.576789 12.44664 65.729489 12.44664 
L 65.729489 64.871 
L 43.585945 112.389176 
z
" style="fill: #ff0000"/>
   </g>
   <g id="matplotlib.axis_1"/>
   <g id="matplotlib.axis_2"/>
  </g>
 </g>
</svg>
