<?xml version="1.0" encoding="utf-8" standalone="no"?>
<!DOCTYPE svg PUBLIC "-//W3C//DTD SVG 1.1//EN"
  "http://www.w3.org/Graphics/SVG/1.1/DTD/svg11.dtd">
<svg xmlns:xlink="http://www.w3.org/1999/xlink" width="17.5248pt" height="17.50464pt" viewBox="0 0 17.5248 17.50464" xmlns="http://www.w3.org/2000/svg" version="1.1">
 <metadata>
  <rdf:RDF xmlns:dc="http://purl.org/dc/elements/1.1/" xmlns:cc="http://creativecommons.org/ns#" xmlns:rdf="http://www.w3.org/1999/02/22-rdf-syntax-ns#">
   <cc:Work>
    <dc:type rdf:resource="http://purl.org/dc/dcmitype/StillImage"/>
    <dc:date>2021-12-14T09:21:03.916160</dc:date>
    <dc:format>image/svg+xml</dc:format>
    <dc:creator>
     <cc:Agent>
      <dc:title>Matplotlib v3.5.0, https://matplotlib.org/</dc:title>
     </cc:Agent>
    </dc:creator>
   </cc:Work>
  </rdf:RDF>
 </metadata>
 <defs>
  <style type="text/css">*{stroke-linejoin: round; stroke-linecap: butt}</style>
 </defs>
 <g id="figure_1">
  <g id="patch_1">
   <path d="M 0 17.50464 
L 17.5248 17.50464 
L 17.5248 0 
L 0 0 
L 0 17.50464 
z
" style="fill: none"/>
  </g>
  <g id="axes_1">
   <g id="patch_2">
    <path d="M 8.767459 7.34112 
C 8.467468 7.34112 8.175292 7.437953 7.934337 7.617233 
C 7.693382 7.796513 7.516202 8.0489 7.429119 8.336898 
C 7.342036 8.624896 7.349588 8.933501 7.450652 9.216866 
C 7.551716 9.500231 7.741026 9.743592 7.99046 9.910794 
L 8.767459 8.744187 
L 8.767459 7.34112 
z
" style="fill: #0000ff"/>
   </g>
   <g id="patch_3">
    <path d="M 7.99046 9.910794 
C 8.172034 10.032509 8.379525 10.109884 8.59626 10.136702 
C 8.812995 10.16352 9.033008 10.139042 9.23862 10.065236 
C 9.444231 9.99143 9.629782 9.870327 9.780362 9.711658 
C 9.930942 9.55299 10.042406 9.361123 10.105798 9.151476 
C 10.16919 8.941829 10.182764 8.720171 10.145429 8.504316 
C 10.108095 8.288461 10.02088 8.084348 9.890793 7.908381 
C 9.760706 7.732414 9.591327 7.589435 9.396267 7.490933 
C 9.201208 7.392432 8.985836 7.34112 8.767459 7.34112 
L 8.767459 8.744187 
L 7.99046 9.910794 
z
" style="fill: #ff0000"/>
   </g>
   <g id="matplotlib.axis_1"/>
   <g id="matplotlib.axis_2"/>
  </g>
 </g>
</svg>
