<?xml version="1.0" encoding="utf-8" standalone="no"?>
<!DOCTYPE svg PUBLIC "-//W3C//DTD SVG 1.1//EN"
  "http://www.w3.org/Graphics/SVG/1.1/DTD/svg11.dtd">
<svg xmlns:xlink="http://www.w3.org/1999/xlink" width="43.45785pt" height="43.27038pt" viewBox="0 0 43.45785 43.27038" xmlns="http://www.w3.org/2000/svg" version="1.1">
 <metadata>
  <rdf:RDF xmlns:dc="http://purl.org/dc/elements/1.1/" xmlns:cc="http://creativecommons.org/ns#" xmlns:rdf="http://www.w3.org/1999/02/22-rdf-syntax-ns#">
   <cc:Work>
    <dc:type rdf:resource="http://purl.org/dc/dcmitype/StillImage"/>
    <dc:date>2021-12-14T09:20:59.253187</dc:date>
    <dc:format>image/svg+xml</dc:format>
    <dc:creator>
     <cc:Agent>
      <dc:title>Matplotlib v3.5.0, https://matplotlib.org/</dc:title>
     </cc:Agent>
    </dc:creator>
   </cc:Work>
  </rdf:RDF>
 </metadata>
 <defs>
  <style type="text/css">*{stroke-linejoin: round; stroke-linecap: butt}</style>
 </defs>
 <g id="figure_1">
  <g id="patch_1">
   <path d="M 0 43.27038 
L 43.45785 43.27038 
L 43.45785 0 
L 0 0 
L 0 43.27038 
z
" style="fill: none"/>
  </g>
  <g id="axes_1">
   <g id="patch_2">
    <path d="M 21.773032 8.51229 
C 18.432007 8.51229 15.214662 9.790015 12.786347 12.081231 
C 10.358032 14.372447 8.898531 17.507518 8.709671 20.838109 
C 8.520811 24.168701 9.616575 27.448225 11.770357 29.998475 
C 13.924139 32.548724 16.976479 34.180885 20.296153 34.557425 
L 21.773032 21.576603 
L 21.773032 8.51229 
z
" style="fill: #0000ff"/>
   </g>
   <g id="patch_3">
    <path d="M 20.296153 34.557425 
C 22.065266 34.75809 23.856927 34.596102 25.561165 34.081405 
C 27.265404 33.566707 28.846625 32.710049 30.207776 31.564012 
C 31.568928 30.417974 32.68158 29.006493 33.47744 27.416203 
C 34.2733 25.825912 34.735745 24.090029 34.836392 22.315096 
C 34.937039 20.540163 34.673785 18.763255 34.062788 17.093432 
C 33.451791 15.42361 32.505814 13.895752 31.282917 12.603633 
C 30.06002 11.311515 28.585747 10.282125 26.950585 9.578646 
C 25.315422 8.875166 23.553524 8.51229 21.773032 8.51229 
L 21.773032 21.576603 
L 20.296153 34.557425 
z
" style="fill: #ff0000"/>
   </g>
   <g id="matplotlib.axis_1"/>
   <g id="matplotlib.axis_2"/>
  </g>
 </g>
</svg>
