<?xml version="1.0" encoding="utf-8" standalone="no"?>
<!DOCTYPE svg PUBLIC "-//W3C//DTD SVG 1.1//EN"
  "http://www.w3.org/Graphics/SVG/1.1/DTD/svg11.dtd">
<svg xmlns:xlink="http://www.w3.org/1999/xlink" width="371.52pt" height="280.512pt" viewBox="0 0 371.52 280.512" xmlns="http://www.w3.org/2000/svg" version="1.1">
 <metadata>
  <rdf:RDF xmlns:dc="http://purl.org/dc/elements/1.1/" xmlns:cc="http://creativecommons.org/ns#" xmlns:rdf="http://www.w3.org/1999/02/22-rdf-syntax-ns#">
   <cc:Work>
    <dc:type rdf:resource="http://purl.org/dc/dcmitype/StillImage"/>
    <dc:date>2021-12-03T16:10:09.522553</dc:date>
    <dc:format>image/svg+xml</dc:format>
    <dc:creator>
     <cc:Agent>
      <dc:title>Matplotlib v3.5.0, https://matplotlib.org/</dc:title>
     </cc:Agent>
    </dc:creator>
   </cc:Work>
  </rdf:RDF>
 </metadata>
 <defs>
  <style type="text/css">*{stroke-linejoin: round; stroke-linecap: butt}</style>
 </defs>
 <g id="figure_1">
  <g id="patch_1">
   <path d="M 0 280.512 
L 371.52 280.512 
L 371.52 0 
L 0 0 
L 0 280.512 
z
" style="fill: none"/>
  </g>
  <g id="axes_1">
   <g id="patch_2">
    <path d="M 186.16593 19.296 
C 155.41712 19.296 125.806587 31.073399 103.457811 52.192622 
C 81.109036 73.311845 67.676659 102.209284 65.938504 132.908929 
C 64.20035 163.608574 74.285107 193.837507 94.10724 217.344366 
C 113.929374 240.851224 142.021308 255.895624 172.573612 259.366374 
L 186.16593 139.715973 
L 186.16593 19.296 
z
" style="fill: #0000ff"/>
   </g>
   <g id="patch_3">
    <path d="M 172.573612 259.366374 
C 188.855487 261.216 205.344868 259.722884 221.02967 254.97867 
C 236.714472 250.234456 251.267093 242.338236 263.794323 231.774662 
C 276.321553 221.211089 286.561741 208.2008 293.886365 193.542339 
C 301.210989 178.883878 305.467062 162.883412 306.393356 146.523016 
C 307.31965 130.16262 304.896817 113.784007 299.273566 98.392463 
C 293.650315 83.000919 284.944097 68.917921 273.689281 57.007854 
C 262.434465 45.097787 248.866126 35.609412 233.81706 29.125107 
C 218.767995 22.640801 202.552528 19.296 186.16593 19.296 
L 186.16593 139.715973 
L 172.573612 259.366374 
z
" style="fill: #bf00bf"/>
   </g>
   <g id="matplotlib.axis_1"/>
   <g id="matplotlib.axis_2"/>
  </g>
 </g>
</svg>
