<?xml version="1.0" encoding="utf-8" standalone="no"?>
<!DOCTYPE svg PUBLIC "-//W3C//DTD SVG 1.1//EN"
  "http://www.w3.org/Graphics/SVG/1.1/DTD/svg11.dtd">
<svg xmlns:xlink="http://www.w3.org/1999/xlink" width="22.56075pt" height="22.5081pt" viewBox="0 0 22.56075 22.5081" xmlns="http://www.w3.org/2000/svg" version="1.1">
 <metadata>
  <rdf:RDF xmlns:dc="http://purl.org/dc/elements/1.1/" xmlns:cc="http://creativecommons.org/ns#" xmlns:rdf="http://www.w3.org/1999/02/22-rdf-syntax-ns#">
   <cc:Work>
    <dc:type rdf:resource="http://purl.org/dc/dcmitype/StillImage"/>
    <dc:date>2022-01-14T17:05:57.195953</dc:date>
    <dc:format>image/svg+xml</dc:format>
    <dc:creator>
     <cc:Agent>
      <dc:title>Matplotlib v3.5.1, https://matplotlib.org/</dc:title>
     </cc:Agent>
    </dc:creator>
   </cc:Work>
  </rdf:RDF>
 </metadata>
 <defs>
  <style type="text/css">*{stroke-linejoin: round; stroke-linecap: butt}</style>
 </defs>
 <g id="figure_1">
  <g id="patch_1">
   <path d="M 0 22.5081 
L 22.56075 22.5081 
L 22.56075 0 
L 0 0 
L 0 22.5081 
z
" style="fill: none"/>
  </g>
  <g id="axes_1">
   <g id="patch_2">
    <path d="M 11.293662 7.56855 
C 10.552759 7.56855 9.829115 7.795049 9.219365 8.217799 
C 8.609614 8.64055 8.142163 9.239858 7.879435 9.935692 
C 7.616708 10.631526 7.570943 11.391469 7.748253 12.114039 
C 7.925562 12.836608 8.317686 13.488142 8.872259 13.981634 
L 11.293662 11.236291 
L 11.293662 7.56855 
z
" style="fill: #0000ff; stroke: #000000; stroke-linejoin: miter"/>
   </g>
   <g id="patch_3">
    <path d="M 8.872259 13.981634 
C 9.314729 14.37537 9.845841 14.655358 10.419797 14.797454 
C 10.993754 14.93955 11.59357 14.93955 12.167527 14.797454 
C 12.741483 14.655358 13.272595 14.37537 13.715065 13.981634 
C 14.157535 13.587898 14.498269 13.092065 14.707888 12.536889 
C 14.917507 11.981714 14.989807 11.383624 14.918553 10.794193 
C 14.8473 10.204762 14.634602 9.641431 14.2988 9.152776 
C 13.962997 8.664121 13.514028 8.264602 12.990605 7.988667 
C 12.467182 7.712733 11.884795 7.56855 11.293661 7.56855 
L 11.293662 11.236291 
L 8.872259 13.981634 
z
" style="fill: #ff0000; stroke: #000000; stroke-linejoin: miter"/>
   </g>
   <g id="matplotlib.axis_1"/>
   <g id="matplotlib.axis_2"/>
  </g>
 </g>
</svg>
