<?xml version="1.0" encoding="utf-8" standalone="no"?>
<!DOCTYPE svg PUBLIC "-//W3C//DTD SVG 1.1//EN"
  "http://www.w3.org/Graphics/SVG/1.1/DTD/svg11.dtd">
<svg xmlns:xlink="http://www.w3.org/1999/xlink" width="371.52pt" height="280.512pt" viewBox="0 0 371.52 280.512" xmlns="http://www.w3.org/2000/svg" version="1.1">
 <metadata>
  <rdf:RDF xmlns:dc="http://purl.org/dc/elements/1.1/" xmlns:cc="http://creativecommons.org/ns#" xmlns:rdf="http://www.w3.org/1999/02/22-rdf-syntax-ns#">
   <cc:Work>
    <dc:type rdf:resource="http://purl.org/dc/dcmitype/StillImage"/>
    <dc:date>2021-12-03T16:10:11.433645</dc:date>
    <dc:format>image/svg+xml</dc:format>
    <dc:creator>
     <cc:Agent>
      <dc:title>Matplotlib v3.5.0, https://matplotlib.org/</dc:title>
     </cc:Agent>
    </dc:creator>
   </cc:Work>
  </rdf:RDF>
 </metadata>
 <defs>
  <style type="text/css">*{stroke-linejoin: round; stroke-linecap: butt}</style>
 </defs>
 <g id="figure_1">
  <g id="patch_1">
   <path d="M 0 280.512 
L 371.52 280.512 
L 371.52 0 
L 0 0 
L 0 280.512 
z
" style="fill: none"/>
  </g>
  <g id="axes_1">
   <g id="patch_2">
    <path d="M 186.631258 19.296 
C 157.92537 19.296 130.145593 29.56643 108.343387 48.239721 
C 86.541181 66.913012 72.123313 92.784285 67.711521 121.149124 
C 63.299728 149.513963 69.178678 178.54215 84.279346 202.955217 
C 99.380014 227.368283 122.728042 245.590997 150.077838 254.309751 
L 186.631258 139.645587 
L 186.631258 19.296 
z
" style="fill: #0000ff"/>
   </g>
   <g id="patch_3">
    <path d="M 150.077838 254.309751 
C 166.62535 259.584879 184.120344 261.216 201.357818 259.090768 
C 218.595293 256.965536 235.170192 251.133891 249.940888 241.997498 
C 264.711583 232.861105 277.330986 220.634656 286.92991 206.160272 
C 296.528833 191.685888 302.881717 175.303695 305.550995 158.142049 
C 308.220272 140.980403 307.143218 123.442577 302.394018 106.736524 
C 297.644817 90.030471 289.335069 74.548757 278.037123 61.357716 
C 266.739178 48.166675 252.71852 37.576277 236.94085 30.315957 
C 221.16318 23.055636 203.999249 19.296 186.631258 19.296 
L 186.631258 139.645587 
L 150.077838 254.309751 
z
" style="fill: #bf00bf"/>
   </g>
   <g id="matplotlib.axis_1"/>
   <g id="matplotlib.axis_2"/>
  </g>
 </g>
</svg>
