<?xml version="1.0" encoding="utf-8" standalone="no"?>
<!DOCTYPE svg PUBLIC "-//W3C//DTD SVG 1.1//EN"
  "http://www.w3.org/Graphics/SVG/1.1/DTD/svg11.dtd">
<svg xmlns:xlink="http://www.w3.org/1999/xlink" width="51.46515pt" height="51.22602pt" viewBox="0 0 51.46515 51.22602" xmlns="http://www.w3.org/2000/svg" version="1.1">
 <metadata>
  <rdf:RDF xmlns:dc="http://purl.org/dc/elements/1.1/" xmlns:cc="http://creativecommons.org/ns#" xmlns:rdf="http://www.w3.org/1999/02/22-rdf-syntax-ns#">
   <cc:Work>
    <dc:type rdf:resource="http://purl.org/dc/dcmitype/StillImage"/>
    <dc:date>2022-01-14T17:05:58.146603</dc:date>
    <dc:format>image/svg+xml</dc:format>
    <dc:creator>
     <cc:Agent>
      <dc:title>Matplotlib v3.5.1, https://matplotlib.org/</dc:title>
     </cc:Agent>
    </dc:creator>
   </cc:Work>
  </rdf:RDF>
 </metadata>
 <defs>
  <style type="text/css">*{stroke-linejoin: round; stroke-linecap: butt}</style>
 </defs>
 <g id="figure_1">
  <g id="patch_1">
   <path d="M 0 51.22602 
L 51.46515 51.22602 
L 51.46515 -0 
L 0 -0 
L 0 51.22602 
z
" style="fill: none"/>
  </g>
  <g id="axes_1">
   <g id="patch_2">
    <path d="M 25.853144 8.87391 
C 21.880668 8.87391 18.036352 10.295188 15.019245 12.879299 
C 12.002137 15.46341 10.006915 19.043617 9.396387 22.968897 
C 8.785859 26.894177 9.59942 30.911255 11.689132 34.289667 
C 13.778845 37.66808 17.009871 40.189837 20.794684 41.396386 
L 25.853144 25.528538 
L 25.853144 8.87391 
z
" style="fill: #0000ff; stroke: #000000; stroke-linejoin: miter"/>
   </g>
   <g id="patch_3">
    <path d="M 20.794684 41.396386 
C 23.084618 42.126387 25.505671 42.35211 27.891086 42.058009 
C 30.276501 41.763908 32.570225 40.956893 34.614274 39.69255 
C 36.658323 38.428206 38.404664 36.736244 39.733015 34.7332 
C 41.061366 32.730156 41.940513 30.4631 42.309902 28.088178 
C 42.679291 25.713257 42.530242 23.286278 41.873022 20.974403 
C 41.215802 18.662529 40.065854 16.520086 38.502383 14.694638 
C 36.938912 12.86919 34.998658 11.403634 32.815258 10.398911 
C 30.631859 9.394189 28.256621 8.87391 25.853144 8.87391 
L 25.853144 25.528538 
L 20.794684 41.396386 
z
" style="fill: #ff0000; stroke: #000000; stroke-linejoin: miter"/>
   </g>
   <g id="matplotlib.axis_1"/>
   <g id="matplotlib.axis_2"/>
  </g>
 </g>
</svg>
