<?xml version="1.0" encoding="utf-8" standalone="no"?>
<!DOCTYPE svg PUBLIC "-//W3C//DTD SVG 1.1//EN"
  "http://www.w3.org/Graphics/SVG/1.1/DTD/svg11.dtd">
<svg xmlns:xlink="http://www.w3.org/1999/xlink" width="19.3941pt" height="19.36188pt" viewBox="0 0 19.3941 19.36188" xmlns="http://www.w3.org/2000/svg" version="1.1">
 <metadata>
  <rdf:RDF xmlns:dc="http://purl.org/dc/elements/1.1/" xmlns:cc="http://creativecommons.org/ns#" xmlns:rdf="http://www.w3.org/1999/02/22-rdf-syntax-ns#">
   <cc:Work>
    <dc:type rdf:resource="http://purl.org/dc/dcmitype/StillImage"/>
    <dc:date>2022-01-14T17:05:59.097818</dc:date>
    <dc:format>image/svg+xml</dc:format>
    <dc:creator>
     <cc:Agent>
      <dc:title>Matplotlib v3.5.1, https://matplotlib.org/</dc:title>
     </cc:Agent>
    </dc:creator>
   </cc:Work>
  </rdf:RDF>
 </metadata>
 <defs>
  <style type="text/css">*{stroke-linejoin: round; stroke-linecap: butt}</style>
 </defs>
 <g id="figure_1">
  <g id="patch_1">
   <path d="M 0 19.36188 
L 19.3941 19.36188 
L 19.3941 0 
L 0 0 
L 0 19.36188 
z
" style="fill: none"/>
  </g>
  <g id="axes_1">
   <g id="patch_2">
    <path d="M 9.711877 7.42554 
C 9.214311 7.42554 8.730553 7.590741 8.336917 7.895081 
C 7.943282 8.199421 7.661616 8.62601 7.536355 9.107551 
C 7.411093 9.589091 7.449188 10.098858 7.644629 10.556433 
C 7.84007 11.014007 8.182011 11.393994 8.616508 11.636448 
L 9.711877 9.673461 
L 9.711877 7.42554 
z
" style="fill: #0000ff; stroke: #000000; stroke-linejoin: miter"/>
   </g>
   <g id="patch_3">
    <path d="M 8.616508 11.636448 
C 8.916381 11.803781 9.250648 11.900195 9.593573 11.918268 
C 9.936498 11.93634 10.279048 11.875595 10.594848 11.740709 
C 10.910648 11.605823 11.191381 11.400349 11.415431 11.140108 
C 11.639481 10.879867 11.800948 10.571713 11.887398 10.239372 
C 11.973849 9.907031 11.983007 9.559258 11.914166 9.222828 
C 11.845326 8.886398 11.700301 8.570174 11.490257 8.298502 
C 11.280213 8.02683 11.010683 7.806867 10.702419 7.655548 
C 10.394155 7.504229 10.055277 7.42554 9.711877 7.42554 
L 9.711877 9.673461 
L 8.616508 11.636448 
z
" style="fill: #ff0000; stroke: #000000; stroke-linejoin: miter"/>
   </g>
   <g id="matplotlib.axis_1"/>
   <g id="matplotlib.axis_2"/>
  </g>
 </g>
</svg>
