<?xml version="1.0" encoding="utf-8" standalone="no"?>
<!DOCTYPE svg PUBLIC "-//W3C//DTD SVG 1.1//EN"
  "http://www.w3.org/Graphics/SVG/1.1/DTD/svg11.dtd">
<svg xmlns:xlink="http://www.w3.org/1999/xlink" width="371.52pt" height="280.512pt" viewBox="0 0 371.52 280.512" xmlns="http://www.w3.org/2000/svg" version="1.1">
 <metadata>
  <rdf:RDF xmlns:dc="http://purl.org/dc/elements/1.1/" xmlns:cc="http://creativecommons.org/ns#" xmlns:rdf="http://www.w3.org/1999/02/22-rdf-syntax-ns#">
   <cc:Work>
    <dc:type rdf:resource="http://purl.org/dc/dcmitype/StillImage"/>
    <dc:date>2021-11-24T20:23:11.307817</dc:date>
    <dc:format>image/svg+xml</dc:format>
    <dc:creator>
     <cc:Agent>
      <dc:title>Matplotlib v3.5.0, https://matplotlib.org/</dc:title>
     </cc:Agent>
    </dc:creator>
   </cc:Work>
  </rdf:RDF>
 </metadata>
 <defs>
  <style type="text/css">*{stroke-linejoin: round; stroke-linecap: butt}</style>
 </defs>
 <g id="figure_1">
  <g id="patch_1">
   <path d="M 0 280.512 
L 371.52 280.512 
L 371.52 0 
L 0 0 
L 0 280.512 
z
" style="fill: none"/>
  </g>
  <g id="axes_1">
   <g id="patch_2">
    <path d="M 185.719644 19.296 
C 169.794207 19.296 154.024629 22.443092 139.319133 28.556023 
C 124.613637 34.668955 111.260062 43.628075 100.027487 54.917396 
C 88.794911 66.206718 79.903196 79.60527 73.864445 94.341383 
C 67.825694 109.077496 64.758108 124.862733 64.838359 140.787967 
C 64.91861 156.713202 68.145127 172.466721 74.332084 187.141227 
C 80.519041 201.815732 89.545338 215.12399 100.891119 226.299535 
C 112.2369 237.475079 125.680088 246.299164 140.446445 252.263581 
C 155.212801 258.227997 171.013295 261.216 186.937924 261.0555 
L 185.719644 140.17882 
L 185.719644 19.296 
z
" style="fill: #0000ff"/>
   </g>
   <g id="patch_3">
    <path d="M 186.937924 261.0555 
C 218.878793 260.733578 249.424978 247.764178 271.840359 225.007344 
C 294.25574 202.25051 306.761892 171.511759 306.600929 139.569672 
C 306.439966 107.627586 293.624657 77.016434 270.981067 54.486663 
C 248.337477 31.956891 217.662136 19.296 185.719644 19.296 
L 185.719644 140.17882 
L 186.937924 261.0555 
z
" style="fill: #bf00bf"/>
   </g>
   <g id="matplotlib.axis_1"/>
   <g id="matplotlib.axis_2"/>
  </g>
 </g>
</svg>
