<?xml version="1.0" encoding="utf-8" standalone="no"?>
<!DOCTYPE svg PUBLIC "-//W3C//DTD SVG 1.1//EN"
  "http://www.w3.org/Graphics/SVG/1.1/DTD/svg11.dtd">
<svg xmlns:xlink="http://www.w3.org/1999/xlink" width="371.52pt" height="280.512pt" viewBox="0 0 371.52 280.512" xmlns="http://www.w3.org/2000/svg" version="1.1">
 <metadata>
  <rdf:RDF xmlns:dc="http://purl.org/dc/elements/1.1/" xmlns:cc="http://creativecommons.org/ns#" xmlns:rdf="http://www.w3.org/1999/02/22-rdf-syntax-ns#">
   <cc:Work>
    <dc:type rdf:resource="http://purl.org/dc/dcmitype/StillImage"/>
    <dc:date>2021-12-10T18:12:50.501450</dc:date>
    <dc:format>image/svg+xml</dc:format>
    <dc:creator>
     <cc:Agent>
      <dc:title>Matplotlib v3.5.0, https://matplotlib.org/</dc:title>
     </cc:Agent>
    </dc:creator>
   </cc:Work>
  </rdf:RDF>
 </metadata>
 <defs>
  <style type="text/css">*{stroke-linejoin: round; stroke-linecap: butt}</style>
 </defs>
 <g id="figure_1">
  <g id="patch_1">
   <path d="M 0 280.512 
L 371.52 280.512 
L 371.52 0 
L 0 0 
L 0 280.512 
z
" style="fill: none"/>
  </g>
  <g id="axes_1">
   <g id="patch_2">
    <path d="M 185.522112 19.296006 
C 169.370256 19.296006 153.381854 22.541564 138.508449 28.839521 
C 123.635044 35.137479 110.177668 44.360368 98.937231 55.959292 
C 87.696795 67.558216 78.9008 81.298417 73.072737 96.362153 
C 67.244673 111.425888 64.5025 127.508274 65.009415 143.652173 
C 65.516331 159.796073 69.262075 175.674739 76.023722 190.343161 
C 82.785369 205.011582 92.426066 218.172874 104.37205 229.043749 
C 116.318034 239.914624 130.327523 248.275059 145.566748 253.627486 
C 160.805973 258.979912 176.966497 261.216 193.086535 260.202669 
L 185.522112 139.868098 
L 185.522112 19.296006 
z
" style="fill: #0000ff"/>
   </g>
   <g id="patch_3">
    <path d="M 193.086535 260.202669 
C 224.336262 258.238261 253.62388 244.176214 274.697767 221.018156 
C 295.771655 197.860099 307.0175 167.379996 306.034809 136.084011 
C 305.052118 104.788027 291.916168 75.073509 269.430906 53.283205 
C 246.945645 31.492901 216.833499 19.296 185.52209 19.296006 
L 185.522112 139.868098 
L 193.086535 260.202669 
z
" style="fill: #ff0000"/>
   </g>
   <g id="matplotlib.axis_1"/>
   <g id="matplotlib.axis_2"/>
  </g>
 </g>
</svg>
