<?xml version="1.0" encoding="utf-8" standalone="no"?>
<!DOCTYPE svg PUBLIC "-//W3C//DTD SVG 1.1//EN"
  "http://www.w3.org/Graphics/SVG/1.1/DTD/svg11.dtd">
<svg xmlns:xlink="http://www.w3.org/1999/xlink" width="371.52pt" height="280.512pt" viewBox="0 0 371.52 280.512" xmlns="http://www.w3.org/2000/svg" version="1.1">
 <metadata>
  <rdf:RDF xmlns:dc="http://purl.org/dc/elements/1.1/" xmlns:cc="http://creativecommons.org/ns#" xmlns:rdf="http://www.w3.org/1999/02/22-rdf-syntax-ns#">
   <cc:Work>
    <dc:type rdf:resource="http://purl.org/dc/dcmitype/StillImage"/>
    <dc:date>2021-11-24T20:23:14.961100</dc:date>
    <dc:format>image/svg+xml</dc:format>
    <dc:creator>
     <cc:Agent>
      <dc:title>Matplotlib v3.5.0, https://matplotlib.org/</dc:title>
     </cc:Agent>
    </dc:creator>
   </cc:Work>
  </rdf:RDF>
 </metadata>
 <defs>
  <style type="text/css">*{stroke-linejoin: round; stroke-linecap: butt}</style>
 </defs>
 <g id="figure_1">
  <g id="patch_1">
   <path d="M 0 280.512 
L 371.52 280.512 
L 371.52 0 
L 0 0 
L 0 280.512 
z
" style="fill: none"/>
  </g>
  <g id="axes_1">
   <g id="patch_2">
    <path d="M 186.64275 19.296003 
C 158.009657 19.296003 130.295502 29.513819 108.515079 48.100567 
C 86.734657 66.687316 72.28599 92.449966 67.783521 120.726843 
C 63.281052 149.003721 69.013783 177.979813 83.944393 202.411983 
C 98.875003 226.844153 122.045138 245.164168 149.262231 254.057078 
L 186.64275 139.652552 
L 186.64275 19.296003 
z
" style="fill: #0000ff"/>
   </g>
   <g id="patch_3">
    <path d="M 149.262231 254.057078 
C 165.807006 259.462915 183.329231 261.216 200.617047 259.195087 
C 217.904863 257.174174 234.550316 251.426952 249.402186 242.350906 
C 264.254056 233.27486 276.961873 221.084164 286.646747 206.621942 
C 296.331622 192.15972 302.765014 175.767248 305.501981 158.578249 
C 308.238948 141.38925 307.214904 123.809347 302.500673 107.054387 
C 297.786443 90.299426 289.493271 74.764789 278.194723 61.524868 
C 266.896176 48.284948 252.858874 37.652177 237.053653 30.361932 
C 221.248433 23.071687 204.048263 19.296 186.642727 19.296003 
L 186.64275 139.652552 
L 149.262231 254.057078 
z
" style="fill: #bf00bf"/>
   </g>
   <g id="matplotlib.axis_1"/>
   <g id="matplotlib.axis_2"/>
  </g>
 </g>
</svg>
