<?xml version="1.0" encoding="utf-8" standalone="no"?>
<!DOCTYPE svg PUBLIC "-//W3C//DTD SVG 1.1//EN"
  "http://www.w3.org/Graphics/SVG/1.1/DTD/svg11.dtd">
<svg xmlns:xlink="http://www.w3.org/1999/xlink" width="371.52pt" height="280.512pt" viewBox="0 0 371.52 280.512" xmlns="http://www.w3.org/2000/svg" version="1.1">
 <metadata>
  <rdf:RDF xmlns:dc="http://purl.org/dc/elements/1.1/" xmlns:cc="http://creativecommons.org/ns#" xmlns:rdf="http://www.w3.org/1999/02/22-rdf-syntax-ns#">
   <cc:Work>
    <dc:type rdf:resource="http://purl.org/dc/dcmitype/StillImage"/>
    <dc:date>2021-12-10T18:12:52.707537</dc:date>
    <dc:format>image/svg+xml</dc:format>
    <dc:creator>
     <cc:Agent>
      <dc:title>Matplotlib v3.5.0, https://matplotlib.org/</dc:title>
     </cc:Agent>
    </dc:creator>
   </cc:Work>
  </rdf:RDF>
 </metadata>
 <defs>
  <style type="text/css">*{stroke-linejoin: round; stroke-linecap: butt}</style>
 </defs>
 <g id="figure_1">
  <g id="patch_1">
   <path d="M 0 280.512 
L 371.52 280.512 
L 371.52 0 
L 0 0 
L 0 280.512 
z
" style="fill: none"/>
  </g>
  <g id="axes_1">
   <g id="patch_2">
    <path d="M 186.692586 19.296 
C 158.400359 19.296 130.993431 29.266178 109.314319 47.444908 
C 87.635208 65.623638 73.040645 90.873251 68.109338 118.732402 
C 63.178031 146.591554 68.218593 175.316751 82.34041 199.83255 
C 96.462226 224.348349 118.78152 243.120491 145.354703 252.832136 
L 186.692586 139.722646 
L 186.692586 19.296 
z
" style="fill: #0000ff"/>
   </g>
   <g id="patch_3">
    <path d="M 145.354703 252.832136 
C 161.877087 258.870536 179.523646 261.216 197.049701 259.703092 
C 214.575755 258.190185 231.559323 252.855332 246.802489 244.074823 
C 262.045656 235.294314 275.181405 223.279559 285.283223 208.878005 
C 295.38504 194.476451 302.209701 178.03485 305.275835 160.712891 
C 308.341969 143.390931 307.575753 125.60568 303.03123 108.611599 
C 298.486707 91.617519 290.273297 75.823781 278.970324 62.344379 
C 267.667352 48.864977 253.546961 38.02446 237.605119 30.58745 
C 221.663276 23.150439 204.283819 19.296 186.692586 19.296 
L 186.692586 139.722646 
L 145.354703 252.832136 
z
" style="fill: #ff0000"/>
   </g>
   <g id="matplotlib.axis_1"/>
   <g id="matplotlib.axis_2"/>
  </g>
 </g>
</svg>
