<?xml version="1.0" encoding="utf-8" standalone="no"?>
<!DOCTYPE svg PUBLIC "-//W3C//DTD SVG 1.1//EN"
  "http://www.w3.org/Graphics/SVG/1.1/DTD/svg11.dtd">
<svg xmlns:xlink="http://www.w3.org/1999/xlink" width="371.52pt" height="280.512pt" viewBox="0 0 371.52 280.512" xmlns="http://www.w3.org/2000/svg" version="1.1">
 <metadata>
  <rdf:RDF xmlns:dc="http://purl.org/dc/elements/1.1/" xmlns:cc="http://creativecommons.org/ns#" xmlns:rdf="http://www.w3.org/1999/02/22-rdf-syntax-ns#">
   <cc:Work>
    <dc:type rdf:resource="http://purl.org/dc/dcmitype/StillImage"/>
    <dc:date>2021-11-24T20:23:24.795478</dc:date>
    <dc:format>image/svg+xml</dc:format>
    <dc:creator>
     <cc:Agent>
      <dc:title>Matplotlib v3.5.0, https://matplotlib.org/</dc:title>
     </cc:Agent>
    </dc:creator>
   </cc:Work>
  </rdf:RDF>
 </metadata>
 <defs>
  <style type="text/css">*{stroke-linejoin: round; stroke-linecap: butt}</style>
 </defs>
 <g id="figure_1">
  <g id="patch_1">
   <path d="M 0 280.512 
L 371.52 280.512 
L 371.52 0 
L 0 0 
L 0 280.512 
z
" style="fill: none"/>
  </g>
  <g id="axes_1">
   <g id="patch_2">
    <path d="M 186.230848 19.296004 
C 162.168572 19.296004 138.651282 26.518007 118.736337 40.023119 
C 98.821391 53.528231 83.410895 72.704699 74.508288 95.05949 
C 65.60568 117.414281 63.614229 141.934771 68.792834 165.433178 
C 73.971438 188.931586 86.085518 210.343484 103.560186 226.885222 
L 186.230848 139.552061 
L 186.230848 19.296004 
z
" style="fill: #0000ff"/>
   </g>
   <g id="patch_3">
    <path d="M 103.560186 226.885222 
C 117.820133 240.383867 135.17155 250.186717 154.093043 255.434247 
C 173.014537 260.681777 192.936438 261.216 212.111971 256.990074 
C 231.287503 252.764149 249.13935 243.905304 264.102238 231.190296 
C 279.065127 218.475287 290.688571 202.286924 297.953413 184.044622 
C 305.218254 165.80232 307.905771 146.055301 305.780318 126.535005 
C 303.654864 107.014709 296.780433 88.308835 285.759781 72.057536 
C 274.739129 55.806237 259.904055 42.49879 242.555317 33.302009 
C 225.206579 24.105228 205.866495 19.296 186.230826 19.296004 
L 186.230848 139.552061 
L 103.560186 226.885222 
z
" style="fill: #bf00bf"/>
   </g>
   <g id="matplotlib.axis_1"/>
   <g id="matplotlib.axis_2"/>
  </g>
 </g>
</svg>
