<?xml version="1.0" encoding="utf-8" standalone="no"?>
<!DOCTYPE svg PUBLIC "-//W3C//DTD SVG 1.1//EN"
  "http://www.w3.org/Graphics/SVG/1.1/DTD/svg11.dtd">
<svg xmlns:xlink="http://www.w3.org/1999/xlink" width="371.52pt" height="280.512pt" viewBox="0 0 371.52 280.512" xmlns="http://www.w3.org/2000/svg" version="1.1">
 <metadata>
  <rdf:RDF xmlns:dc="http://purl.org/dc/elements/1.1/" xmlns:cc="http://creativecommons.org/ns#" xmlns:rdf="http://www.w3.org/1999/02/22-rdf-syntax-ns#">
   <cc:Work>
    <dc:type rdf:resource="http://purl.org/dc/dcmitype/StillImage"/>
    <dc:date>2021-12-10T18:12:57.085362</dc:date>
    <dc:format>image/svg+xml</dc:format>
    <dc:creator>
     <cc:Agent>
      <dc:title>Matplotlib v3.5.0, https://matplotlib.org/</dc:title>
     </cc:Agent>
    </dc:creator>
   </cc:Work>
  </rdf:RDF>
 </metadata>
 <defs>
  <style type="text/css">*{stroke-linejoin: round; stroke-linecap: butt}</style>
 </defs>
 <g id="figure_1">
  <g id="patch_1">
   <path d="M 0 280.512 
L 371.52 280.512 
L 371.52 0 
L 0 0 
L 0 280.512 
z
" style="fill: none"/>
  </g>
  <g id="axes_1">
   <g id="patch_2">
    <path d="M 185.591242 19.296 
C 169.52384 19.296 153.617084 22.505181 138.806505 28.734801 
C 123.995927 34.964421 110.577685 44.089909 99.340954 55.574562 
C 88.104222 67.059216 79.273697 80.673383 73.36873 95.616367 
C 67.463764 110.559352 64.602436 126.532345 64.95303 142.595922 
C 65.303624 158.659498 68.859131 174.492442 75.410438 189.163563 
C 81.961745 203.834683 91.377849 217.05061 103.104956 228.034068 
C 114.832064 239.017526 128.635673 247.548885 143.703947 253.126386 
C 158.772222 258.703887 174.803847 261.216 190.855949 260.514978 
L 185.591242 139.962941 
L 185.591242 19.296 
z
" style="fill: #0000ff"/>
   </g>
   <g id="patch_3">
    <path d="M 190.855949 260.514978 
C 222.361369 259.139084 252.105163 245.465991 273.662369 222.449227 
C 295.219574 199.432463 306.917564 168.857902 306.229454 137.329961 
C 305.541343 105.80202 292.520522 75.766957 269.979621 53.712653 
C 247.43872 31.658349 217.126691 19.296 185.591242 19.296 
L 185.591242 139.962941 
L 190.855949 260.514978 
z
" style="fill: #ff0000"/>
   </g>
   <g id="matplotlib.axis_1"/>
   <g id="matplotlib.axis_2"/>
  </g>
 </g>
</svg>
