<?xml version="1.0" encoding="utf-8" standalone="no"?>
<!DOCTYPE svg PUBLIC "-//W3C//DTD SVG 1.1//EN"
  "http://www.w3.org/Graphics/SVG/1.1/DTD/svg11.dtd">
<svg xmlns:xlink="http://www.w3.org/1999/xlink" width="371.52pt" height="280.512pt" viewBox="0 0 371.52 280.512" xmlns="http://www.w3.org/2000/svg" version="1.1">
 <metadata>
  <rdf:RDF xmlns:dc="http://purl.org/dc/elements/1.1/" xmlns:cc="http://creativecommons.org/ns#" xmlns:rdf="http://www.w3.org/1999/02/22-rdf-syntax-ns#">
   <cc:Work>
    <dc:type rdf:resource="http://purl.org/dc/dcmitype/StillImage"/>
    <dc:date>2021-11-24T20:23:20.370305</dc:date>
    <dc:format>image/svg+xml</dc:format>
    <dc:creator>
     <cc:Agent>
      <dc:title>Matplotlib v3.5.0, https://matplotlib.org/</dc:title>
     </cc:Agent>
    </dc:creator>
   </cc:Work>
  </rdf:RDF>
 </metadata>
 <defs>
  <style type="text/css">*{stroke-linejoin: round; stroke-linecap: butt}</style>
 </defs>
 <g id="figure_1">
  <g id="patch_1">
   <path d="M 0 280.512 
L 371.52 280.512 
L 371.52 0 
L 0 0 
L 0 280.512 
z
" style="fill: none"/>
  </g>
  <g id="axes_1">
   <g id="patch_2">
    <path d="M 185.392668 19.296 
C 169.0642 19.296 152.904978 22.616459 137.89954 29.055069 
C 122.894103 35.49368 109.353515 44.91697 98.102768 56.750801 
C 86.852022 68.584633 78.124347 82.58369 72.451498 97.895047 
C 66.778649 113.206404 64.278225 129.512654 65.102569 145.8203 
C 65.926914 162.127946 70.058938 178.098928 77.24689 192.760177 
C 84.434841 207.421426 94.529712 220.469012 106.916449 231.107979 
C 119.303185 241.746946 133.725009 249.756748 149.303235 254.649367 
C 164.881461 259.541987 181.293152 261.216 197.538386 259.569413 
L 185.392668 139.739687 
L 185.392668 19.296 
z
" style="fill: #0000ff"/>
   </g>
   <g id="patch_3">
    <path d="M 197.538386 259.569413 
C 228.261574 256.455368 256.640408 241.64186 276.760956 218.215911 
C 296.881504 194.789962 307.241775 164.500309 305.682768 133.659086 
C 304.12376 102.817862 290.761853 73.727353 268.381566 52.449799 
C 246.001279 31.172245 216.273292 19.296006 185.392691 19.296 
L 185.392668 139.739687 
L 197.538386 259.569413 
z
" style="fill: #bf00bf"/>
   </g>
   <g id="matplotlib.axis_1"/>
   <g id="matplotlib.axis_2"/>
  </g>
 </g>
</svg>
