<?xml version="1.0" encoding="utf-8" standalone="no"?>
<!DOCTYPE svg PUBLIC "-//W3C//DTD SVG 1.1//EN"
  "http://www.w3.org/Graphics/SVG/1.1/DTD/svg11.dtd">
<svg xmlns:xlink="http://www.w3.org/1999/xlink" width="371.52pt" height="280.512pt" viewBox="0 0 371.52 280.512" xmlns="http://www.w3.org/2000/svg" version="1.1">
 <metadata>
  <rdf:RDF xmlns:dc="http://purl.org/dc/elements/1.1/" xmlns:cc="http://creativecommons.org/ns#" xmlns:rdf="http://www.w3.org/1999/02/22-rdf-syntax-ns#">
   <cc:Work>
    <dc:type rdf:resource="http://purl.org/dc/dcmitype/StillImage"/>
    <dc:date>2021-12-10T18:12:59.254149</dc:date>
    <dc:format>image/svg+xml</dc:format>
    <dc:creator>
     <cc:Agent>
      <dc:title>Matplotlib v3.5.0, https://matplotlib.org/</dc:title>
     </cc:Agent>
    </dc:creator>
   </cc:Work>
  </rdf:RDF>
 </metadata>
 <defs>
  <style type="text/css">*{stroke-linejoin: round; stroke-linecap: butt}</style>
 </defs>
 <g id="figure_1">
  <g id="patch_1">
   <path d="M 0 280.512 
L 371.52 280.512 
L 371.52 0 
L 0 0 
L 0 280.512 
z
" style="fill: none"/>
  </g>
  <g id="axes_1">
   <g id="patch_2">
    <path d="M 185.667787 19.296006 
C 169.687161 19.296006 153.864265 22.467385 139.118003 28.625967 
C 124.37174 34.784549 110.993204 43.808763 99.759343 55.174535 
C 88.525482 66.540307 79.658055 80.023274 73.67203 94.840423 
C 67.686004 109.657572 64.699547 125.516409 64.886094 141.495946 
C 65.072641 157.475483 68.428509 173.26028 74.758809 187.933647 
C 81.08911 202.607014 90.268881 215.879296 101.765014 226.979715 
C 113.261148 238.080135 126.846708 246.789567 141.732724 252.602219 
C 156.61874 258.414871 172.511359 261.216 188.48763 260.842932 
L 185.667787 140.085929 
L 185.667787 19.296006 
z
" style="fill: #0000ff"/>
   </g>
   <g id="patch_3">
    <path d="M 188.48763 260.842932 
C 220.258385 260.101041 250.487045 246.850157 272.561577 223.988697 
C 294.636109 201.127237 306.820453 170.453151 306.449479 138.675899 
C 306.078505 106.898648 293.181389 76.517368 270.579168 54.177473 
C 247.976946 31.837578 217.44718 19.296 185.667764 19.296006 
L 185.667787 140.085929 
L 188.48763 260.842932 
z
" style="fill: #ff0000"/>
   </g>
   <g id="matplotlib.axis_1"/>
   <g id="matplotlib.axis_2"/>
  </g>
 </g>
</svg>
