<?xml version="1.0" encoding="utf-8" standalone="no"?>
<!DOCTYPE svg PUBLIC "-//W3C//DTD SVG 1.1//EN"
  "http://www.w3.org/Graphics/SVG/1.1/DTD/svg11.dtd">
<svg xmlns:xlink="http://www.w3.org/1999/xlink" width="371.52pt" height="280.512pt" viewBox="0 0 371.52 280.512" xmlns="http://www.w3.org/2000/svg" version="1.1">
 <metadata>
  <rdf:RDF xmlns:dc="http://purl.org/dc/elements/1.1/" xmlns:cc="http://creativecommons.org/ns#" xmlns:rdf="http://www.w3.org/1999/02/22-rdf-syntax-ns#">
   <cc:Work>
    <dc:type rdf:resource="http://purl.org/dc/dcmitype/StillImage"/>
    <dc:date>2021-12-10T18:13:00.400970</dc:date>
    <dc:format>image/svg+xml</dc:format>
    <dc:creator>
     <cc:Agent>
      <dc:title>Matplotlib v3.5.0, https://matplotlib.org/</dc:title>
     </cc:Agent>
    </dc:creator>
   </cc:Work>
  </rdf:RDF>
 </metadata>
 <defs>
  <style type="text/css">*{stroke-linejoin: round; stroke-linecap: butt}</style>
 </defs>
 <g id="figure_1">
  <g id="patch_1">
   <path d="M 0 280.512 
L 371.52 280.512 
L 371.52 0 
L 0 0 
L 0 280.512 
z
" style="fill: none"/>
  </g>
  <g id="axes_1">
   <g id="patch_2">
    <path d="M 185.357057 19.296012 
C 168.975063 19.296012 152.76405 22.63889 137.718443 29.119587 
C 122.672836 35.600284 109.106702 45.083519 97.852219 56.987567 
C 86.597737 68.891615 77.889837 82.967987 72.262684 98.353203 
C 66.635531 113.738419 64.206588 130.111323 65.124851 146.467561 
C 66.043115 162.823799 70.289417 178.821945 77.60328 193.480633 
C 84.917142 208.139321 95.145893 221.152561 107.662075 231.722088 
C 120.178257 242.291616 134.720604 250.196799 150.397051 254.952714 
C 166.073498 259.708629 182.556811 261.216 198.835861 259.38236 
L 185.357057 139.717546 
L 185.357057 19.296012 
z
" style="fill: #0000ff"/>
   </g>
   <g id="patch_3">
    <path d="M 198.835861 259.38236 
C 229.401655 255.939491 257.516103 240.913095 277.361606 217.412519 
C 297.20711 193.911942 307.313412 163.67823 305.589261 132.967509 
C 303.86511 102.256787 290.438239 73.344267 268.087011 52.212685 
C 245.735783 31.081104 216.116093 19.296 185.357012 19.296012 
L 185.357057 139.717546 
L 198.835861 259.38236 
z
" style="fill: #ff0000"/>
   </g>
   <g id="matplotlib.axis_1"/>
   <g id="matplotlib.axis_2"/>
  </g>
 </g>
</svg>
