<?xml version="1.0" encoding="utf-8" standalone="no"?>
<!DOCTYPE svg PUBLIC "-//W3C//DTD SVG 1.1//EN"
  "http://www.w3.org/Graphics/SVG/1.1/DTD/svg11.dtd">
<svg xmlns:xlink="http://www.w3.org/1999/xlink" width="371.52pt" height="280.512pt" viewBox="0 0 371.52 280.512" xmlns="http://www.w3.org/2000/svg" version="1.1">
 <metadata>
  <rdf:RDF xmlns:dc="http://purl.org/dc/elements/1.1/" xmlns:cc="http://creativecommons.org/ns#" xmlns:rdf="http://www.w3.org/1999/02/22-rdf-syntax-ns#">
   <cc:Work>
    <dc:type rdf:resource="http://purl.org/dc/dcmitype/StillImage"/>
    <dc:date>2022-01-14T17:15:39.454995</dc:date>
    <dc:format>image/svg+xml</dc:format>
    <dc:creator>
     <cc:Agent>
      <dc:title>Matplotlib v3.5.1, https://matplotlib.org/</dc:title>
     </cc:Agent>
    </dc:creator>
   </cc:Work>
  </rdf:RDF>
 </metadata>
 <defs>
  <style type="text/css">*{stroke-linejoin: round; stroke-linecap: butt}</style>
 </defs>
 <g id="figure_1">
  <g id="patch_1">
   <path d="M 0 280.512 
L 371.52 280.512 
L 371.52 0 
L 0 0 
L 0 280.512 
z
" style="fill: none"/>
  </g>
  <g id="axes_1">
   <g id="patch_2">
    <path d="M 186.540897 19.296 
C 157.312516 19.296 129.061642 29.941581 107.10177 49.230497 
C 85.141897 68.519413 70.941868 95.161474 67.172458 124.145777 
C 63.403048 153.130081 70.316385 182.517936 86.612191 206.782004 
C 102.907997 231.046072 127.496284 248.563388 155.75243 256.039252 
L 186.540897 139.669647 
L 186.540897 19.296 
z
" style="fill: #0000ff; stroke: #000000; stroke-width: 2; stroke-linejoin: miter"/>
   </g>
   <g id="patch_3">
    <path d="M 155.75243 256.039252 
C 172.301089 260.417611 189.594916 261.216 206.476589 258.38099 
C 223.358262 255.54598 239.442608 249.142255 253.653245 239.59836 
C 267.863882 230.054464 279.876581 217.588151 288.887437 203.03368 
C 297.898293 188.479209 303.701716 172.168655 305.909334 155.193539 
C 308.116952 138.218422 306.678395 120.966047 301.689934 104.590962 
C 296.701474 88.215877 288.276925 73.091695 276.98007 60.230544 
C 265.683214 47.369393 251.771799 37.064713 236.176794 30.006104 
C 220.581789 22.947495 203.659008 19.296006 186.540942 19.296 
L 186.540897 139.669647 
L 155.75243 256.039252 
z
" style="fill: #ff0000; stroke: #000000; stroke-width: 2; stroke-linejoin: miter"/>
   </g>
   <g id="matplotlib.axis_1"/>
   <g id="matplotlib.axis_2"/>
  </g>
 </g>
</svg>
