<?xml version="1.0" encoding="utf-8" standalone="no"?>
<!DOCTYPE svg PUBLIC "-//W3C//DTD SVG 1.1//EN"
  "http://www.w3.org/Graphics/SVG/1.1/DTD/svg11.dtd">
<svg xmlns:xlink="http://www.w3.org/1999/xlink" width="371.52pt" height="280.512pt" viewBox="0 0 371.52 280.512" xmlns="http://www.w3.org/2000/svg" version="1.1">
 <metadata>
  <rdf:RDF xmlns:dc="http://purl.org/dc/elements/1.1/" xmlns:cc="http://creativecommons.org/ns#" xmlns:rdf="http://www.w3.org/1999/02/22-rdf-syntax-ns#">
   <cc:Work>
    <dc:type rdf:resource="http://purl.org/dc/dcmitype/StillImage"/>
    <dc:date>2022-01-14T17:15:22.351094</dc:date>
    <dc:format>image/svg+xml</dc:format>
    <dc:creator>
     <cc:Agent>
      <dc:title>Matplotlib v3.5.1, https://matplotlib.org/</dc:title>
     </cc:Agent>
    </dc:creator>
   </cc:Work>
  </rdf:RDF>
 </metadata>
 <defs>
  <style type="text/css">*{stroke-linejoin: round; stroke-linecap: butt}</style>
 </defs>
 <g id="figure_1">
  <g id="patch_1">
   <path d="M 0 280.512 
L 371.52 280.512 
L 371.52 0 
L 0 0 
L 0 280.512 
z
" style="fill: none"/>
  </g>
  <g id="axes_1">
   <g id="patch_2">
    <path d="M 186.558002 19.296 
C 157.422987 19.296 129.256307 29.874846 107.324764 49.054432 
C 85.393221 68.234017 71.154652 94.739433 67.271487 123.61451 
C 63.388321 152.489588 70.118681 181.814938 86.204075 206.107101 
C 102.28947 230.399263 126.660668 248.043486 154.760573 255.740527 
L 186.558002 139.656347 
L 186.558002 19.296 
z
" style="fill: #0000ff; stroke: #000000; stroke-width: 2; stroke-linejoin: miter"/>
   </g>
   <g id="patch_3">
    <path d="M 154.760573 255.740527 
C 171.31125 260.274039 188.641685 261.216 205.586229 258.503055 
C 222.530773 255.790109 238.700815 249.484476 253.008755 240.010274 
C 267.316695 230.536072 279.43439 218.110585 288.546802 203.569553 
C 297.659214 189.028522 303.557356 172.705434 305.844517 155.698184 
C 308.131679 138.690935 306.755405 121.389572 301.808266 104.95779 
C 296.861127 88.526008 288.45658 73.340658 277.159918 60.423109 
C 265.863256 47.50556 251.933559 37.152067 236.307741 30.059009 
C 220.681924 22.96595 203.718353 19.296 186.558002 19.296 
L 186.558002 139.656347 
L 154.760573 255.740527 
z
" style="fill: #ff0000; stroke: #000000; stroke-width: 2; stroke-linejoin: miter"/>
   </g>
   <g id="matplotlib.axis_1"/>
   <g id="matplotlib.axis_2"/>
  </g>
 </g>
</svg>
