<?xml version="1.0" encoding="utf-8" standalone="no"?>
<!DOCTYPE svg PUBLIC "-//W3C//DTD SVG 1.1//EN"
  "http://www.w3.org/Graphics/SVG/1.1/DTD/svg11.dtd">
<svg xmlns:xlink="http://www.w3.org/1999/xlink" width="371.52pt" height="280.512pt" viewBox="0 0 371.52 280.512" xmlns="http://www.w3.org/2000/svg" version="1.1">
 <metadata>
  <rdf:RDF xmlns:dc="http://purl.org/dc/elements/1.1/" xmlns:cc="http://creativecommons.org/ns#" xmlns:rdf="http://www.w3.org/1999/02/22-rdf-syntax-ns#">
   <cc:Work>
    <dc:type rdf:resource="http://purl.org/dc/dcmitype/StillImage"/>
    <dc:date>2022-01-14T17:15:24.548535</dc:date>
    <dc:format>image/svg+xml</dc:format>
    <dc:creator>
     <cc:Agent>
      <dc:title>Matplotlib v3.5.1, https://matplotlib.org/</dc:title>
     </cc:Agent>
    </dc:creator>
   </cc:Work>
  </rdf:RDF>
 </metadata>
 <defs>
  <style type="text/css">*{stroke-linejoin: round; stroke-linecap: butt}</style>
 </defs>
 <g id="figure_1">
  <g id="patch_1">
   <path d="M 0 280.512 
L 371.52 280.512 
L 371.52 0 
L 0 0 
L 0 280.512 
z
" style="fill: none"/>
  </g>
  <g id="axes_1">
   <g id="patch_2">
    <path d="M 185.457503 19.296 
C 169.220773 19.296 153.150293 22.577739 138.21354 28.943649 
C 123.276786 35.309559 109.779639 44.629278 98.534654 56.341738 
C 87.28967 68.054199 78.527125 81.91955 72.774545 97.103068 
C 67.021965 112.286587 64.397152 128.47734 65.058125 144.700611 
C 65.719099 160.923882 69.652323 176.847446 76.621009 191.512671 
C 83.589696 206.177896 93.451138 219.284463 105.611656 230.043329 
C 117.772174 240.802196 131.982742 248.993038 147.387853 254.122751 
C 162.792965 259.252464 179.077149 261.216 195.260065 259.895149 
L 185.457503 139.795264 
L 185.457503 19.296 
z
" style="fill: #0000ff; stroke: #000000; stroke-width: 2; stroke-linejoin: miter"/>
   </g>
   <g id="patch_3">
    <path d="M 195.260065 259.895149 
C 226.255372 257.36531 255.098995 242.932281 275.705565 219.641116 
C 296.312135 196.34995 307.122848 165.962528 305.856882 134.889928 
C 304.590916 103.817329 291.344035 74.410066 268.911041 52.872427 
C 246.478047 31.334788 216.555904 19.296006 185.457526 19.296 
L 185.457503 139.795264 
L 195.260065 259.895149 
z
" style="fill: #ff0000; stroke: #000000; stroke-width: 2; stroke-linejoin: miter"/>
   </g>
   <g id="matplotlib.axis_1"/>
   <g id="matplotlib.axis_2"/>
  </g>
 </g>
</svg>
