<?xml version="1.0" encoding="utf-8" standalone="no"?>
<!DOCTYPE svg PUBLIC "-//W3C//DTD SVG 1.1//EN"
  "http://www.w3.org/Graphics/SVG/1.1/DTD/svg11.dtd">
<svg xmlns:xlink="http://www.w3.org/1999/xlink" width="371.52pt" height="280.512pt" viewBox="0 0 371.52 280.512" xmlns="http://www.w3.org/2000/svg" version="1.1">
 <metadata>
  <rdf:RDF xmlns:dc="http://purl.org/dc/elements/1.1/" xmlns:cc="http://creativecommons.org/ns#" xmlns:rdf="http://www.w3.org/1999/02/22-rdf-syntax-ns#">
   <cc:Work>
    <dc:type rdf:resource="http://purl.org/dc/dcmitype/StillImage"/>
    <dc:date>2021-12-10T18:12:48.100925</dc:date>
    <dc:format>image/svg+xml</dc:format>
    <dc:creator>
     <cc:Agent>
      <dc:title>Matplotlib v3.5.0, https://matplotlib.org/</dc:title>
     </cc:Agent>
    </dc:creator>
   </cc:Work>
  </rdf:RDF>
 </metadata>
 <defs>
  <style type="text/css">*{stroke-linejoin: round; stroke-linecap: butt}</style>
 </defs>
 <g id="figure_1">
  <g id="patch_1">
   <path d="M 0 280.512 
L 371.52 280.512 
L 371.52 0 
L 0 0 
L 0 280.512 
z
" style="fill: none"/>
  </g>
  <g id="axes_1">
   <g id="patch_2">
    <path d="M 185.730826 19.296012 
C 169.816941 19.296012 154.058521 22.437995 139.361544 28.541322 
C 124.664567 34.644649 111.316187 43.590073 100.083825 54.863305 
C 88.851462 66.136538 79.954579 79.517319 73.90467 94.236366 
C 67.854762 108.955413 64.770034 124.72514 64.827833 140.63892 
C 64.885631 156.552701 68.084827 172.299605 74.241493 186.974318 
C 80.398159 201.649031 89.392004 214.964833 100.705958 226.156178 
C 112.019911 237.347522 125.432918 246.195749 140.173841 252.192158 
C 154.914764 258.188567 170.695591 261.216 186.609056 261.100404 
L 185.730826 140.199803 
L 185.730826 19.296012 
z
" style="fill: #0000ff"/>
   </g>
   <g id="patch_3">
    <path d="M 186.609056 261.100404 
C 218.585666 260.868123 249.199258 247.958989 271.687209 225.224663 
C 294.17516 202.490336 306.749966 171.737905 306.633819 139.760662 
C 306.517672 107.783419 293.719805 77.123146 271.067299 54.552778 
C 248.414794 31.982409 217.708234 19.296 185.730781 19.296012 
L 185.730826 140.199803 
L 186.609056 261.100404 
z
" style="fill: #ff0000"/>
   </g>
   <g id="matplotlib.axis_1"/>
   <g id="matplotlib.axis_2"/>
  </g>
 </g>
</svg>
