<?xml version="1.0" encoding="utf-8" standalone="no"?>
<!DOCTYPE svg PUBLIC "-//W3C//DTD SVG 1.1//EN"
  "http://www.w3.org/Graphics/SVG/1.1/DTD/svg11.dtd">
<svg xmlns:xlink="http://www.w3.org/1999/xlink" width="371.52pt" height="280.512pt" viewBox="0 0 371.52 280.512" xmlns="http://www.w3.org/2000/svg" version="1.1">
 <metadata>
  <rdf:RDF xmlns:dc="http://purl.org/dc/elements/1.1/" xmlns:cc="http://creativecommons.org/ns#" xmlns:rdf="http://www.w3.org/1999/02/22-rdf-syntax-ns#">
   <cc:Work>
    <dc:type rdf:resource="http://purl.org/dc/dcmitype/StillImage"/>
    <dc:date>2022-01-14T17:15:27.463266</dc:date>
    <dc:format>image/svg+xml</dc:format>
    <dc:creator>
     <cc:Agent>
      <dc:title>Matplotlib v3.5.1, https://matplotlib.org/</dc:title>
     </cc:Agent>
    </dc:creator>
   </cc:Work>
  </rdf:RDF>
 </metadata>
 <defs>
  <style type="text/css">*{stroke-linejoin: round; stroke-linecap: butt}</style>
 </defs>
 <g id="figure_1">
  <g id="patch_1">
   <path d="M 0 280.512 
L 371.52 280.512 
L 371.52 0 
L 0 0 
L 0 280.512 
z
" style="fill: none"/>
  </g>
  <g id="axes_1">
   <g id="patch_2">
    <path d="M 186.471055 19.29601 
C 156.880933 19.29601 128.303835 30.199027 106.233648 49.908979 
C 84.163462 69.618931 70.111343 96.786269 66.778781 126.188128 
C 63.446219 155.589988 71.061397 185.213212 88.160312 209.362796 
C 105.259227 233.512381 130.67111 250.534794 159.510578 257.157511 
L 186.471055 139.754682 
L 186.471055 19.29601 
z
" style="fill: #0000ff; stroke: #000000; stroke-width: 2; stroke-linejoin: miter"/>
   </g>
   <g id="patch_3">
    <path d="M 159.510578 257.157511 
C 176.043342 260.954108 193.193132 261.216 209.834115 257.925994 
C 226.475098 254.635989 242.234984 247.867689 256.079183 238.065415 
C 269.923382 228.26314 281.542175 215.646185 290.172821 201.042816 
C 298.803467 186.439447 304.252883 170.176368 306.163332 153.321201 
C 308.073781 136.466035 306.402521 119.395863 301.259267 103.231291 
C 296.116013 87.06672 287.615828 72.16938 276.316724 59.517238 
C 265.01762 46.865096 251.17238 36.741203 235.689901 29.810164 
C 220.207422 22.879125 203.434078 19.296 186.470987 19.29601 
L 186.471055 139.754682 
L 159.510578 257.157511 
z
" style="fill: #ff0000; stroke: #000000; stroke-width: 2; stroke-linejoin: miter"/>
   </g>
   <g id="matplotlib.axis_1"/>
   <g id="matplotlib.axis_2"/>
  </g>
 </g>
</svg>
