<?xml version="1.0" encoding="utf-8" standalone="no"?>
<!DOCTYPE svg PUBLIC "-//W3C//DTD SVG 1.1//EN"
  "http://www.w3.org/Graphics/SVG/1.1/DTD/svg11.dtd">
<svg xmlns:xlink="http://www.w3.org/1999/xlink" width="371.52pt" height="280.512pt" viewBox="0 0 371.52 280.512" xmlns="http://www.w3.org/2000/svg" version="1.1">
 <metadata>
  <rdf:RDF xmlns:dc="http://purl.org/dc/elements/1.1/" xmlns:cc="http://creativecommons.org/ns#" xmlns:rdf="http://www.w3.org/1999/02/22-rdf-syntax-ns#">
   <cc:Work>
    <dc:type rdf:resource="http://purl.org/dc/dcmitype/StillImage"/>
    <dc:date>2021-12-10T18:12:52.449431</dc:date>
    <dc:format>image/svg+xml</dc:format>
    <dc:creator>
     <cc:Agent>
      <dc:title>Matplotlib v3.5.0, https://matplotlib.org/</dc:title>
     </cc:Agent>
    </dc:creator>
   </cc:Work>
  </rdf:RDF>
 </metadata>
 <defs>
  <style type="text/css">*{stroke-linejoin: round; stroke-linecap: butt}</style>
 </defs>
 <g id="figure_1">
  <g id="patch_1">
   <path d="M 0 280.512 
L 371.52 280.512 
L 371.52 0 
L 0 0 
L 0 280.512 
z
" style="fill: none"/>
  </g>
  <g id="axes_1">
   <g id="patch_2">
    <path d="M 186.548193 19.296 
C 159.882504 19.296 133.955854 28.143694 112.853152 44.445072 
C 91.750449 60.74645 76.641416 83.597928 69.906578 109.399108 
C 63.171739 135.200288 65.184406 162.521014 75.627469 187.056731 
C 86.070533 211.592447 104.365136 231.983141 127.628846 245.016128 
L 186.548193 139.845873 
L 186.548193 19.296 
z
" style="fill: #0000ff"/>
   </g>
   <g id="patch_3">
    <path d="M 127.628846 245.016128 
C 143.702538 254.021064 161.628739 259.222358 180.025988 260.219179 
C 198.423237 261.216 216.806486 257.982066 233.75905 250.766597 
C 250.711614 243.551127 265.786535 232.54436 277.822081 218.594519 
C 289.857627 204.644678 298.536478 188.119555 303.189808 170.292638 
C 307.843138 152.465722 308.348261 133.807024 304.666251 115.754456 
C 300.98424 97.701887 293.212172 80.731409 281.948994 66.150832 
C 270.685815 51.570255 256.228482 39.763998 239.691132 31.6419 
C 223.153783 23.519801 204.972428 19.296 186.548193 19.296 
L 186.548193 139.845873 
L 127.628846 245.016128 
z
" style="fill: #ff0000"/>
   </g>
   <g id="matplotlib.axis_1"/>
   <g id="matplotlib.axis_2"/>
  </g>
 </g>
</svg>
