<?xml version="1.0" encoding="utf-8" standalone="no"?>
<!DOCTYPE svg PUBLIC "-//W3C//DTD SVG 1.1//EN"
  "http://www.w3.org/Graphics/SVG/1.1/DTD/svg11.dtd">
<svg xmlns:xlink="http://www.w3.org/1999/xlink" width="371.52pt" height="280.512pt" viewBox="0 0 371.52 280.512" xmlns="http://www.w3.org/2000/svg" version="1.1">
 <metadata>
  <rdf:RDF xmlns:dc="http://purl.org/dc/elements/1.1/" xmlns:cc="http://creativecommons.org/ns#" xmlns:rdf="http://www.w3.org/1999/02/22-rdf-syntax-ns#">
   <cc:Work>
    <dc:type rdf:resource="http://purl.org/dc/dcmitype/StillImage"/>
    <dc:date>2022-01-14T17:15:28.792895</dc:date>
    <dc:format>image/svg+xml</dc:format>
    <dc:creator>
     <cc:Agent>
      <dc:title>Matplotlib v3.5.1, https://matplotlib.org/</dc:title>
     </cc:Agent>
    </dc:creator>
   </cc:Work>
  </rdf:RDF>
 </metadata>
 <defs>
  <style type="text/css">*{stroke-linejoin: round; stroke-linecap: butt}</style>
 </defs>
 <g id="figure_1">
  <g id="patch_1">
   <path d="M 0 280.512 
L 371.52 280.512 
L 371.52 0 
L 0 0 
L 0 280.512 
z
" style="fill: none"/>
  </g>
  <g id="axes_1">
   <g id="patch_2">
    <path d="M 186.775837 19.296 
C 159.238508 19.296 132.511561 28.709091 111.051879 45.965582 
C 89.592197 63.222074 74.662831 87.306301 68.753344 114.202071 
C 62.843858 141.09784 66.302066 169.222149 78.55129 193.885096 
C 90.800515 218.548043 111.119804 238.298042 136.120791 249.841659 
L 186.775837 140.133744 
L 186.775837 19.296 
z
" style="fill: #0000ff; stroke: #000000; stroke-width: 2; stroke-linejoin: miter"/>
   </g>
   <g id="patch_3">
    <path d="M 136.120791 249.841659 
C 152.526474 257.416597 170.424273 261.216 188.492483 260.959293 
C 206.560693 260.702587 224.343328 256.396248 240.527189 248.35829 
C 256.71105 240.320331 270.887704 228.753607 282.010246 214.512287 
C 293.132787 200.270966 300.920515 183.714459 304.798329 166.065417 
C 308.676142 148.416375 308.546176 130.120207 304.418028 112.528035 
C 300.28988 94.935863 292.267732 78.49166 280.943998 64.409786 
C 269.620264 50.327913 255.28072 38.963752 238.984304 31.156516 
C 222.687888 23.34928 204.84587 19.296 186.775837 19.296 
L 186.775837 140.133744 
L 136.120791 249.841659 
z
" style="fill: #ff0000; stroke: #000000; stroke-width: 2; stroke-linejoin: miter"/>
   </g>
   <g id="matplotlib.axis_1"/>
   <g id="matplotlib.axis_2"/>
  </g>
 </g>
</svg>
