<?xml version="1.0" encoding="utf-8" standalone="no"?>
<!DOCTYPE svg PUBLIC "-//W3C//DTD SVG 1.1//EN"
  "http://www.w3.org/Graphics/SVG/1.1/DTD/svg11.dtd">
<svg xmlns:xlink="http://www.w3.org/1999/xlink" width="371.52pt" height="280.512pt" viewBox="0 0 371.52 280.512" xmlns="http://www.w3.org/2000/svg" version="1.1">
 <metadata>
  <rdf:RDF xmlns:dc="http://purl.org/dc/elements/1.1/" xmlns:cc="http://creativecommons.org/ns#" xmlns:rdf="http://www.w3.org/1999/02/22-rdf-syntax-ns#">
   <cc:Work>
    <dc:type rdf:resource="http://purl.org/dc/dcmitype/StillImage"/>
    <dc:date>2021-12-10T18:12:57.966247</dc:date>
    <dc:format>image/svg+xml</dc:format>
    <dc:creator>
     <cc:Agent>
      <dc:title>Matplotlib v3.5.0, https://matplotlib.org/</dc:title>
     </cc:Agent>
    </dc:creator>
   </cc:Work>
  </rdf:RDF>
 </metadata>
 <defs>
  <style type="text/css">*{stroke-linejoin: round; stroke-linecap: butt}</style>
 </defs>
 <g id="figure_1">
  <g id="patch_1">
   <path d="M 0 280.512 
L 371.52 280.512 
L 371.52 0 
L 0 0 
L 0 280.512 
z
" style="fill: none"/>
  </g>
  <g id="axes_1">
   <g id="patch_2">
    <path d="M 185.944207 19.296 
C 154.458508 19.296 124.19087 31.621684 101.662382 53.617514 
C 79.133894 75.613343 66.08764 105.577449 65.334401 137.054137 
C 64.581163 168.530826 76.17922 199.08467 97.629802 222.132921 
C 119.080383 245.181172 148.723804 258.94053 180.173464 260.446575 
L 185.944207 139.940335 
L 185.944207 19.296 
z
" style="fill: #0000ff"/>
   </g>
   <g id="patch_3">
    <path d="M 180.173464 260.446575 
C 196.240799 261.216 212.300944 258.764277 227.406876 253.235977 
C 242.512807 247.707678 256.361655 239.213644 268.136789 228.254744 
C 279.911924 217.295845 289.377256 204.091805 295.974642 189.42123 
C 302.572027 174.750655 306.169189 158.907687 306.554013 142.826544 
C 306.938837 126.7454 304.103608 110.748505 298.21551 95.77915 
C 292.327412 80.809796 283.504501 67.168116 272.26704 55.658522 
C 261.02958 44.148928 247.602879 35.002186 232.778672 28.757654 
C 217.954466 22.513123 202.029977 19.296003 185.94423 19.296 
L 185.944207 139.940335 
L 180.173464 260.446575 
z
" style="fill: #ff0000"/>
   </g>
   <g id="matplotlib.axis_1"/>
   <g id="matplotlib.axis_2"/>
  </g>
 </g>
</svg>
