<?xml version="1.0" encoding="utf-8" standalone="no"?>
<!DOCTYPE svg PUBLIC "-//W3C//DTD SVG 1.1//EN"
  "http://www.w3.org/Graphics/SVG/1.1/DTD/svg11.dtd">
<svg xmlns:xlink="http://www.w3.org/1999/xlink" width="371.52pt" height="280.512pt" viewBox="0 0 371.52 280.512" xmlns="http://www.w3.org/2000/svg" version="1.1">
 <metadata>
  <rdf:RDF xmlns:dc="http://purl.org/dc/elements/1.1/" xmlns:cc="http://creativecommons.org/ns#" xmlns:rdf="http://www.w3.org/1999/02/22-rdf-syntax-ns#">
   <cc:Work>
    <dc:type rdf:resource="http://purl.org/dc/dcmitype/StillImage"/>
    <dc:date>2021-12-03T16:09:56.719694</dc:date>
    <dc:format>image/svg+xml</dc:format>
    <dc:creator>
     <cc:Agent>
      <dc:title>Matplotlib v3.5.0, https://matplotlib.org/</dc:title>
     </cc:Agent>
    </dc:creator>
   </cc:Work>
  </rdf:RDF>
 </metadata>
 <defs>
  <style type="text/css">*{stroke-linejoin: round; stroke-linecap: butt}</style>
 </defs>
 <g id="figure_1">
  <g id="patch_1">
   <path d="M 0 280.512 
L 371.52 280.512 
L 371.52 0 
L 0 0 
L 0 280.512 
z
" style="fill: none"/>
  </g>
  <g id="axes_1">
   <g id="patch_2">
    <path d="M 185.073466 19.296 
C 168.159198 19.296 151.432917 22.857369 135.98576 29.747783 
C 120.538603 36.638196 106.713932 46.704492 95.413599 59.289997 
C 84.113265 71.875501 75.588455 86.700461 70.395283 102.797773 
C 65.202111 118.895084 63.456013 135.906932 65.270894 152.723551 
C 67.085776 169.54017 72.421295 185.787756 80.929391 200.4064 
C 89.437487 215.025045 100.929039 227.689801 114.654398 237.574486 
C 128.379757 247.459171 144.033831 254.344064 160.595431 257.780032 
C 177.157031 261.216 194.258021 261.126666 210.78282 257.517859 
L 185.073466 139.794231 
L 185.073466 19.296 
z
" style="fill: #0000ff"/>
   </g>
   <g id="patch_3">
    <path d="M 210.78282 257.517859 
C 239.809641 251.178768 265.490663 234.322737 282.853718 210.213304 
C 300.216774 186.103871 308.063987 156.404344 304.87604 126.864922 
C 301.688092 97.3255 287.68492 69.984106 265.577713 50.134374 
C 243.470506 30.284643 214.784437 19.296006 185.073489 19.296 
L 185.073466 139.794231 
L 210.78282 257.517859 
z
" style="fill: #bf00bf"/>
   </g>
   <g id="matplotlib.axis_1"/>
   <g id="matplotlib.axis_2"/>
  </g>
 </g>
</svg>
