<?xml version="1.0" encoding="utf-8" standalone="no"?>
<!DOCTYPE svg PUBLIC "-//W3C//DTD SVG 1.1//EN"
  "http://www.w3.org/Graphics/SVG/1.1/DTD/svg11.dtd">
<svg xmlns:xlink="http://www.w3.org/1999/xlink" width="687.64095pt" height="683.29746pt" viewBox="0 0 687.64095 683.29746" xmlns="http://www.w3.org/2000/svg" version="1.1">
 <metadata>
  <rdf:RDF xmlns:dc="http://purl.org/dc/elements/1.1/" xmlns:cc="http://creativecommons.org/ns#" xmlns:rdf="http://www.w3.org/1999/02/22-rdf-syntax-ns#">
   <cc:Work>
    <dc:type rdf:resource="http://purl.org/dc/dcmitype/StillImage"/>
    <dc:date>2022-01-14T17:05:43.447892</dc:date>
    <dc:format>image/svg+xml</dc:format>
    <dc:creator>
     <cc:Agent>
      <dc:title>Matplotlib v3.5.1, https://matplotlib.org/</dc:title>
     </cc:Agent>
    </dc:creator>
   </cc:Work>
  </rdf:RDF>
 </metadata>
 <defs>
  <style type="text/css">*{stroke-linejoin: round; stroke-linecap: butt}</style>
 </defs>
 <g id="figure_1">
  <g id="patch_1">
   <path d="M 0 683.29746 
L 687.64095 683.29746 
L 687.64095 0 
L 0 0 
L 0 683.29746 
z
" style="fill: none"/>
  </g>
  <g id="axes_1">
   <g id="patch_2">
    <path d="M 342.102689 37.60443 
C 299.781248 37.60443 257.930174 46.556266 219.279613 63.875966 
C 180.629053 81.195666 146.038141 106.498244 117.763409 138.13309 
C 89.488677 169.767936 68.158624 207.031862 55.164712 247.493964 
C 42.1708 287.956065 37.801861 330.716939 42.342903 372.987087 
C 46.883944 415.257236 60.234026 456.097066 81.522258 492.8424 
C 102.810491 529.587734 131.563673 561.421786 165.906096 586.267868 
C 200.24852 611.11395 239.416812 628.419775 280.855836 637.056403 
C 322.29486 645.69303 365.083498 645.468482 406.430442 636.397406 
L 342.102689 340.488029 
L 342.102689 37.60443 
z
" style="fill: #0000ff; stroke: #000000; stroke-linejoin: miter"/>
   </g>
   <g id="patch_3">
    <path d="M 406.430442 636.397406 
C 479.058882 620.463506 543.315745 578.094292 586.760103 517.492972 
C 630.204461 456.891651 649.839089 382.239106 641.862478 307.988999 
C 633.885868 233.738893 598.848325 165.013736 543.533554 115.119575 
C 488.218784 65.225414 416.442949 37.604444 342.102745 37.60443 
L 342.102689 340.488029 
L 406.430442 636.397406 
z
" style="fill: #ff0000; stroke: #000000; stroke-linejoin: miter"/>
   </g>
   <g id="matplotlib.axis_1"/>
   <g id="matplotlib.axis_2"/>
  </g>
 </g>
</svg>
