<?xml version="1.0" encoding="utf-8" standalone="no"?>
<!DOCTYPE svg PUBLIC "-//W3C//DTD SVG 1.1//EN"
  "http://www.w3.org/Graphics/SVG/1.1/DTD/svg11.dtd">
<svg xmlns:xlink="http://www.w3.org/1999/xlink" width="371.52pt" height="280.512pt" viewBox="0 0 371.52 280.512" xmlns="http://www.w3.org/2000/svg" version="1.1">
 <metadata>
  <rdf:RDF xmlns:dc="http://purl.org/dc/elements/1.1/" xmlns:cc="http://creativecommons.org/ns#" xmlns:rdf="http://www.w3.org/1999/02/22-rdf-syntax-ns#">
   <cc:Work>
    <dc:type rdf:resource="http://purl.org/dc/dcmitype/StillImage"/>
    <dc:date>2021-12-03T16:09:57.899095</dc:date>
    <dc:format>image/svg+xml</dc:format>
    <dc:creator>
     <cc:Agent>
      <dc:title>Matplotlib v3.5.0, https://matplotlib.org/</dc:title>
     </cc:Agent>
    </dc:creator>
   </cc:Work>
  </rdf:RDF>
 </metadata>
 <defs>
  <style type="text/css">*{stroke-linejoin: round; stroke-linecap: butt}</style>
 </defs>
 <g id="figure_1">
  <g id="patch_1">
   <path d="M 0 280.512 
L 371.52 280.512 
L 371.52 0 
L 0 0 
L 0 280.512 
z
" style="fill: none"/>
  </g>
  <g id="axes_1">
   <g id="patch_2">
    <path d="M 184.868645 19.296 
C 167.433878 19.296 150.205491 23.084157 134.378805 30.397645 
C 118.552118 37.711133 104.501822 48.376808 93.202738 61.654677 
C 81.903655 74.932547 73.623284 90.508262 68.936125 107.301167 
C 64.248966 124.094072 63.265986 141.706602 66.055385 158.916783 
C 68.844783 176.126965 75.340523 192.527356 85.091923 206.980083 
C 94.843324 221.432809 107.619525 233.595709 122.534103 242.62491 
C 137.448681 251.654111 154.14854 257.335851 171.475029 259.275925 
C 188.801517 261.216 206.34444 259.368479 222.886652 253.861545 
L 184.868645 139.659721 
L 184.868645 19.296 
z
" style="fill: #0000ff"/>
   </g>
   <g id="patch_3">
    <path d="M 222.886652 253.861545 
C 250.001019 244.83512 273.034056 226.440772 287.833834 201.994264 
C 302.633612 177.547755 308.254014 148.611896 303.681906 120.402659 
C 299.109798 92.193422 284.637466 66.514161 262.873689 47.993814 
C 241.109912 29.473467 213.446001 19.296 184.868645 19.296 
L 184.868645 139.659721 
L 222.886652 253.861545 
z
" style="fill: #bf00bf"/>
   </g>
   <g id="matplotlib.axis_1"/>
   <g id="matplotlib.axis_2"/>
  </g>
 </g>
</svg>
