<?xml version="1.0" encoding="utf-8" standalone="no"?>
<!DOCTYPE svg PUBLIC "-//W3C//DTD SVG 1.1//EN"
  "http://www.w3.org/Graphics/SVG/1.1/DTD/svg11.dtd">
<svg xmlns:xlink="http://www.w3.org/1999/xlink" width="77.6772pt" height="77.26896pt" viewBox="0 0 77.6772 77.26896" xmlns="http://www.w3.org/2000/svg" version="1.1">
 <metadata>
  <rdf:RDF xmlns:dc="http://purl.org/dc/elements/1.1/" xmlns:cc="http://creativecommons.org/ns#" xmlns:rdf="http://www.w3.org/1999/02/22-rdf-syntax-ns#">
   <cc:Work>
    <dc:type rdf:resource="http://purl.org/dc/dcmitype/StillImage"/>
    <dc:date>2022-01-14T17:05:44.528254</dc:date>
    <dc:format>image/svg+xml</dc:format>
    <dc:creator>
     <cc:Agent>
      <dc:title>Matplotlib v3.5.1, https://matplotlib.org/</dc:title>
     </cc:Agent>
    </dc:creator>
   </cc:Work>
  </rdf:RDF>
 </metadata>
 <defs>
  <style type="text/css">*{stroke-linejoin: round; stroke-linecap: butt}</style>
 </defs>
 <g id="figure_1">
  <g id="patch_1">
   <path d="M 0 77.26896 
L 77.6772 77.26896 
L 77.6772 0 
L 0 0 
L 0 77.26896 
z
" style="fill: none"/>
  </g>
  <g id="axes_1">
   <g id="patch_2">
    <path d="M 38.628017 10.05768 
C 34.509054 10.05768 30.438847 10.952632 26.699793 12.680444 
C 22.960738 14.408255 19.641355 16.928021 16.971947 20.064918 
C 14.302538 23.201814 12.346301 26.881577 11.23896 30.848901 
C 10.131618 34.816224 9.899389 38.977185 10.558385 43.04309 
C 11.21738 47.108996 12.751999 50.983588 15.055767 54.398045 
C 17.359535 57.812501 20.377913 60.685986 23.901482 62.819135 
C 27.425051 64.952284 31.370393 66.294595 35.463776 66.752937 
C 39.557158 67.21128 43.701674 66.774803 47.609772 65.47379 
L 38.628017 38.493609 
L 38.628017 10.05768 
z
" style="fill: #0000ff; stroke: #000000; stroke-linejoin: miter"/>
   </g>
   <g id="patch_3">
    <path d="M 47.609772 65.47379 
C 54.015541 63.341297 59.457096 58.995632 62.953543 53.220145 
C 66.449991 47.444657 67.777811 40.60856 66.69765 33.944128 
C 65.61749 27.279696 62.198401 21.21297 57.056709 16.837539 
C 51.915017 12.462107 45.379418 10.05768 38.628017 10.05768 
L 38.628017 38.493609 
L 47.609772 65.47379 
z
" style="fill: #ff0000; stroke: #000000; stroke-linejoin: miter"/>
   </g>
   <g id="matplotlib.axis_1"/>
   <g id="matplotlib.axis_2"/>
  </g>
 </g>
</svg>
