<?xml version="1.0" encoding="utf-8" standalone="no"?>
<!DOCTYPE svg PUBLIC "-//W3C//DTD SVG 1.1//EN"
  "http://www.w3.org/Graphics/SVG/1.1/DTD/svg11.dtd">
<svg xmlns:xlink="http://www.w3.org/1999/xlink" width="63.0297pt" height="62.71596pt" viewBox="0 0 63.0297 62.71596" xmlns="http://www.w3.org/2000/svg" version="1.1">
 <metadata>
  <rdf:RDF xmlns:dc="http://purl.org/dc/elements/1.1/" xmlns:cc="http://creativecommons.org/ns#" xmlns:rdf="http://www.w3.org/1999/02/22-rdf-syntax-ns#">
   <cc:Work>
    <dc:type rdf:resource="http://purl.org/dc/dcmitype/StillImage"/>
    <dc:date>2022-01-14T17:05:45.537899</dc:date>
    <dc:format>image/svg+xml</dc:format>
    <dc:creator>
     <cc:Agent>
      <dc:title>Matplotlib v3.5.1, https://matplotlib.org/</dc:title>
     </cc:Agent>
    </dc:creator>
   </cc:Work>
  </rdf:RDF>
 </metadata>
 <defs>
  <style type="text/css">*{stroke-linejoin: round; stroke-linecap: butt}</style>
 </defs>
 <g id="figure_1">
  <g id="patch_1">
   <path d="M 0 62.71596 
L 63.0297 62.71596 
L 63.0297 0 
L 0 0 
L 0 62.71596 
z
" style="fill: none"/>
  </g>
  <g id="axes_1">
   <g id="patch_2">
    <path d="M 31.356777 9.39618 
C 28.203769 9.39618 25.087798 10.078632 22.223434 11.39654 
C 19.359071 12.714448 16.813608 14.636852 14.76233 17.031371 
C 12.711052 19.425889 11.20215 22.236269 10.33953 25.268982 
C 9.476909 28.301694 9.280836 31.485493 9.764811 34.601135 
C 10.248787 37.716778 11.401442 40.691069 13.143401 43.319193 
C 14.885361 45.947317 17.175702 48.167532 19.856708 49.826951 
C 22.537714 51.486369 25.546399 52.546006 28.675581 52.932893 
C 31.804763 53.31978 34.980927 53.024828 37.985359 52.068348 
L 31.356777 31.247097 
L 31.356777 9.39618 
z
" style="fill: #0000ff; stroke: #000000; stroke-linejoin: miter"/>
   </g>
   <g id="patch_3">
    <path d="M 37.985359 52.068348 
C 42.95236 50.48707 47.193239 47.179473 49.936631 42.747166 
C 52.680024 38.31486 53.748864 33.043917 52.948743 27.893058 
C 52.148623 22.742199 49.531183 18.043874 45.572504 14.652649 
C 41.613825 11.261425 36.56941 9.39618 31.356777 9.39618 
L 31.356777 31.247097 
L 37.985359 52.068348 
z
" style="fill: #ff0000; stroke: #000000; stroke-linejoin: miter"/>
   </g>
   <g id="matplotlib.axis_1"/>
   <g id="matplotlib.axis_2"/>
  </g>
 </g>
</svg>
