<?xml version="1.0" encoding="utf-8" standalone="no"?>
<!DOCTYPE svg PUBLIC "-//W3C//DTD SVG 1.1//EN"
  "http://www.w3.org/Graphics/SVG/1.1/DTD/svg11.dtd">
<svg xmlns:xlink="http://www.w3.org/1999/xlink" width="86.9679pt" height="86.49972pt" viewBox="0 0 86.9679 86.49972" xmlns="http://www.w3.org/2000/svg" version="1.1">
 <metadata>
  <rdf:RDF xmlns:dc="http://purl.org/dc/elements/1.1/" xmlns:cc="http://creativecommons.org/ns#" xmlns:rdf="http://www.w3.org/1999/02/22-rdf-syntax-ns#">
   <cc:Work>
    <dc:type rdf:resource="http://purl.org/dc/dcmitype/StillImage"/>
    <dc:date>2021-12-14T09:20:49.856025</dc:date>
    <dc:format>image/svg+xml</dc:format>
    <dc:creator>
     <cc:Agent>
      <dc:title>Matplotlib v3.5.0, https://matplotlib.org/</dc:title>
     </cc:Agent>
    </dc:creator>
   </cc:Work>
  </rdf:RDF>
 </metadata>
 <defs>
  <style type="text/css">*{stroke-linejoin: round; stroke-linecap: butt}</style>
 </defs>
 <g id="figure_1">
  <g id="patch_1">
   <path d="M 0 86.49972 
L 86.9679 86.49972 
L 86.9679 0 
L 0 0 
L 0 86.49972 
z
" style="fill: none"/>
  </g>
  <g id="axes_1">
   <g id="patch_2">
    <path d="M 43.228378 10.477261 
C 38.449748 10.477261 33.728924 11.526834 29.400457 13.5516 
C 25.07199 15.576366 21.240601 18.527339 18.177809 22.195391 
C 15.115017 25.863444 12.894922 30.159832 11.674855 34.780086 
C 10.454788 39.400339 10.264268 44.232676 11.116795 48.934644 
C 11.969322 53.636612 13.844272 58.094453 16.608772 61.992253 
C 19.373271 65.890053 22.960438 69.13351 27.116059 71.492771 
C 31.271681 73.852032 35.895218 75.270018 40.659016 75.646239 
C 45.422813 76.02246 50.211615 75.347815 54.686057 73.670114 
L 43.228378 43.1124 
L 43.228378 10.477261 
z
" style="fill: #0000ff"/>
   </g>
   <g id="patch_3">
    <path d="M 54.686057 73.670114 
C 61.843209 70.986525 67.834963 65.871898 71.60875 59.224717 
C 75.382537 52.577537 76.703632 44.811249 75.33996 37.290153 
C 73.976288 29.769058 70.012666 22.960957 64.145383 18.061828 
C 58.2781 13.162699 50.872093 10.47726 43.228372 10.477261 
L 43.228378 43.1124 
L 54.686057 73.670114 
z
" style="fill: #ff0000"/>
   </g>
   <g id="matplotlib.axis_1"/>
   <g id="matplotlib.axis_2"/>
  </g>
 </g>
</svg>
