<?xml version="1.0" encoding="utf-8" standalone="no"?>
<!DOCTYPE svg PUBLIC "-//W3C//DTD SVG 1.1//EN"
  "http://www.w3.org/Graphics/SVG/1.1/DTD/svg11.dtd">
<svg xmlns:xlink="http://www.w3.org/1999/xlink" width="191.99745pt" height="190.85166pt" viewBox="0 0 191.99745 190.85166" xmlns="http://www.w3.org/2000/svg" version="1.1">
 <metadata>
  <rdf:RDF xmlns:dc="http://purl.org/dc/elements/1.1/" xmlns:cc="http://creativecommons.org/ns#" xmlns:rdf="http://www.w3.org/1999/02/22-rdf-syntax-ns#">
   <cc:Work>
    <dc:type rdf:resource="http://purl.org/dc/dcmitype/StillImage"/>
    <dc:date>2022-01-14T17:05:47.485722</dc:date>
    <dc:format>image/svg+xml</dc:format>
    <dc:creator>
     <cc:Agent>
      <dc:title>Matplotlib v3.5.1, https://matplotlib.org/</dc:title>
     </cc:Agent>
    </dc:creator>
   </cc:Work>
  </rdf:RDF>
 </metadata>
 <defs>
  <style type="text/css">*{stroke-linejoin: round; stroke-linecap: butt}</style>
 </defs>
 <g id="figure_1">
  <g id="patch_1">
   <path d="M 0 190.85166 
L 191.99745 190.85166 
L 191.99745 0 
L 0 0 
L 0 190.85166 
z
" style="fill: none"/>
  </g>
  <g id="axes_1">
   <g id="patch_2">
    <path d="M 95.419848 15.22053 
C 83.89985 15.22053 72.515291 17.71505 62.050792 22.532167 
C 51.586294 27.349284 42.287914 34.375731 34.796497 43.127246 
C 27.30508 51.878761 21.796775 62.149565 18.651215 73.231793 
C 15.505654 84.314022 14.796801 95.947094 16.57351 107.329257 
C 18.350219 118.711421 22.570713 129.575042 28.944116 139.1714 
C 35.317519 148.767757 43.693969 156.871208 53.496162 162.923261 
C 63.298355 168.975314 74.295808 172.833666 85.730574 174.232398 
C 97.165341 175.63113 108.768551 174.537353 119.740511 171.026451 
L 95.419848 95.021668 
L 95.419848 15.22053 
z
" style="fill: #0000ff; stroke: #000000; stroke-linejoin: miter"/>
   </g>
   <g id="patch_3">
    <path d="M 119.740511 171.026451 
C 137.862117 165.227744 153.325692 153.134942 163.321439 136.945357 
C 173.317185 120.755772 177.200649 101.513197 174.266187 82.714087 
C 171.331725 63.914977 161.768531 46.771368 147.314279 34.398325 
C 132.860026 22.025282 114.446623 15.220534 95.419863 15.22053 
L 95.419848 95.021668 
L 119.740511 171.026451 
z
" style="fill: #ff0000; stroke: #000000; stroke-linejoin: miter"/>
   </g>
   <g id="matplotlib.axis_1"/>
   <g id="matplotlib.axis_2"/>
  </g>
 </g>
</svg>
