<?xml version="1.0" encoding="utf-8" standalone="no"?>
<!DOCTYPE svg PUBLIC "-//W3C//DTD SVG 1.1//EN"
  "http://www.w3.org/Graphics/SVG/1.1/DTD/svg11.dtd">
<svg xmlns:xlink="http://www.w3.org/1999/xlink" width="38.63115pt" height="38.47482pt" viewBox="0 0 38.63115 38.47482" xmlns="http://www.w3.org/2000/svg" version="1.1">
 <metadata>
  <rdf:RDF xmlns:dc="http://purl.org/dc/elements/1.1/" xmlns:cc="http://creativecommons.org/ns#" xmlns:rdf="http://www.w3.org/1999/02/22-rdf-syntax-ns#">
   <cc:Work>
    <dc:type rdf:resource="http://purl.org/dc/dcmitype/StillImage"/>
    <dc:date>2022-01-14T17:05:48.389992</dc:date>
    <dc:format>image/svg+xml</dc:format>
    <dc:creator>
     <cc:Agent>
      <dc:title>Matplotlib v3.5.1, https://matplotlib.org/</dc:title>
     </cc:Agent>
    </dc:creator>
   </cc:Work>
  </rdf:RDF>
 </metadata>
 <defs>
  <style type="text/css">*{stroke-linejoin: round; stroke-linecap: butt}</style>
 </defs>
 <g id="figure_1">
  <g id="patch_1">
   <path d="M 0 38.47482 
L 38.63115 38.47482 
L 38.63115 0 
L 0 0 
L 0 38.47482 
z
" style="fill: none"/>
  </g>
  <g id="axes_1">
   <g id="patch_2">
    <path d="M 19.248835 8.29431 
C 17.577324 8.29431 15.927994 8.678782 14.428778 9.417903 
C 12.929561 10.157024 11.620248 11.231178 10.602397 12.557047 
C 9.584546 13.882916 8.88517 15.42531 8.558519 17.064594 
C 8.231867 18.703877 8.286609 20.39654 8.718498 22.011291 
C 9.150387 23.626043 9.94796 25.120025 11.049354 26.377356 
C 12.150748 27.634688 13.526729 28.621998 15.070571 29.262704 
C 16.614412 29.903411 18.285137 30.18051 19.953155 30.072508 
C 21.621174 29.964505 23.242215 29.474268 24.690541 28.639821 
L 19.248835 19.194798 
L 19.248835 8.29431 
z
" style="fill: #0000ff; stroke: #000000; stroke-linejoin: miter"/>
   </g>
   <g id="patch_3">
    <path d="M 24.690541 28.639821 
C 26.770064 27.441714 28.396808 25.589726 29.316741 23.373062 
C 30.236675 21.156399 30.399283 18.696781 29.779172 16.378304 
C 29.159061 14.059826 27.790282 12.009801 25.886585 10.548359 
C 23.982888 9.086917 21.648807 8.29431 19.248833 8.29431 
L 19.248835 19.194798 
L 24.690541 28.639821 
z
" style="fill: #ff0000; stroke: #000000; stroke-linejoin: miter"/>
   </g>
   <g id="matplotlib.axis_1"/>
   <g id="matplotlib.axis_2"/>
  </g>
 </g>
</svg>
