<?xml version="1.0" encoding="utf-8" standalone="no"?>
<!DOCTYPE svg PUBLIC "-//W3C//DTD SVG 1.1//EN"
  "http://www.w3.org/Graphics/SVG/1.1/DTD/svg11.dtd">
<svg xmlns:xlink="http://www.w3.org/1999/xlink" width="371.52pt" height="280.512pt" viewBox="0 0 371.52 280.512" xmlns="http://www.w3.org/2000/svg" version="1.1">
 <metadata>
  <rdf:RDF xmlns:dc="http://purl.org/dc/elements/1.1/" xmlns:cc="http://creativecommons.org/ns#" xmlns:rdf="http://www.w3.org/1999/02/22-rdf-syntax-ns#">
   <cc:Work>
    <dc:type rdf:resource="http://purl.org/dc/dcmitype/StillImage"/>
    <dc:date>2021-12-10T18:14:48.488990</dc:date>
    <dc:format>image/svg+xml</dc:format>
    <dc:creator>
     <cc:Agent>
      <dc:title>Matplotlib v3.5.0, https://matplotlib.org/</dc:title>
     </cc:Agent>
    </dc:creator>
   </cc:Work>
  </rdf:RDF>
 </metadata>
 <defs>
  <style type="text/css">*{stroke-linejoin: round; stroke-linecap: butt}</style>
 </defs>
 <g id="figure_1">
  <g id="patch_1">
   <path d="M 0 280.512 
L 371.52 280.512 
L 371.52 0 
L 0 0 
L 0 280.512 
z
" style="fill: none"/>
  </g>
  <g id="axes_1">
   <g id="patch_2">
    <path d="M 185.147735 19.296 
C 168.392725 19.296 151.82059 22.792114 136.493415 29.56028 
C 121.16624 36.328447 107.418607 46.220922 96.131582 58.60371 
C 84.844558 70.986499 76.26453 85.589293 70.94138 101.47622 
C 65.618231 117.363147 63.668161 134.187406 65.216147 150.870755 
C 66.764133 167.554103 71.776385 183.732354 79.931673 198.368667 
C 88.086961 213.004979 99.207262 225.779853 112.57989 235.874563 
C 125.952519 245.969273 141.28556 253.16346 157.596341 256.996057 
C 173.907121 260.828654 190.839589 261.216 207.308564 258.133269 
L 185.147735 139.742745 
L 185.147735 19.296 
z
" style="fill: #0000ff"/>
   </g>
   <g id="patch_3">
    <path d="M 207.308564 258.133269 
C 236.805268 252.611954 263.199455 236.261593 281.279553 212.31059 
C 299.359651 188.359587 307.851839 158.495393 305.079323 128.614736 
C 302.306808 98.734079 288.464923 70.942181 266.28677 50.726592 
C 244.108617 30.511004 215.156742 19.296 185.147735 19.296 
L 185.147735 139.742745 
L 207.308564 258.133269 
z
" style="fill: #ff0000"/>
   </g>
   <g id="matplotlib.axis_1"/>
   <g id="matplotlib.axis_2"/>
  </g>
 </g>
</svg>
