<?xml version="1.0" encoding="utf-8" standalone="no"?>
<!DOCTYPE svg PUBLIC "-//W3C//DTD SVG 1.1//EN"
  "http://www.w3.org/Graphics/SVG/1.1/DTD/svg11.dtd">
<svg xmlns:xlink="http://www.w3.org/1999/xlink" width="145.90665pt" height="145.05822pt" viewBox="0 0 145.90665 145.05822" xmlns="http://www.w3.org/2000/svg" version="1.1">
 <metadata>
  <rdf:RDF xmlns:dc="http://purl.org/dc/elements/1.1/" xmlns:cc="http://creativecommons.org/ns#" xmlns:rdf="http://www.w3.org/1999/02/22-rdf-syntax-ns#">
   <cc:Work>
    <dc:type rdf:resource="http://purl.org/dc/dcmitype/StillImage"/>
    <dc:date>2022-01-14T17:05:50.359949</dc:date>
    <dc:format>image/svg+xml</dc:format>
    <dc:creator>
     <cc:Agent>
      <dc:title>Matplotlib v3.5.1, https://matplotlib.org/</dc:title>
     </cc:Agent>
    </dc:creator>
   </cc:Work>
  </rdf:RDF>
 </metadata>
 <defs>
  <style type="text/css">*{stroke-linejoin: round; stroke-linecap: butt}</style>
 </defs>
 <g id="figure_1">
  <g id="patch_1">
   <path d="M 0 145.05822 
L 145.90665 145.05822 
L 145.90665 0 
L 0 0 
L 0 145.05822 
z
" style="fill: none"/>
  </g>
  <g id="axes_1">
   <g id="patch_2">
    <path d="M 72.712517 13.13901 
C 64.599548 13.13901 56.572775 14.809366 49.133237 18.045814 
C 41.693699 21.282262 34.999479 26.016029 29.468436 31.951631 
C 23.937393 37.887232 19.687056 44.898542 16.982736 52.547907 
C 14.278415 60.197272 13.177575 68.322152 13.748931 76.415383 
C 14.320287 84.508614 16.551698 92.398224 20.303877 99.591735 
C 24.056057 106.785247 29.249274 113.129805 35.559365 118.229377 
C 41.869456 123.328949 49.162336 127.075174 56.982777 129.234208 
C 64.803219 131.393243 72.985045 131.91921 81.017539 130.779278 
L 72.712517 72.252327 
L 72.712517 13.13901 
z
" style="fill: #0000ff; stroke: #000000; stroke-linejoin: miter"/>
   </g>
   <g id="patch_3">
    <path d="M 81.017539 130.779278 
C 95.820895 128.67846 109.289558 121.037007 118.687261 109.407343 
C 128.084965 97.777679 132.729075 83.004563 131.676104 68.089272 
C 130.623133 53.173981 123.949566 39.199936 113.011193 29.006077 
C 102.072819 18.812218 87.664184 13.13901 72.712517 13.13901 
L 72.712517 72.252327 
L 81.017539 130.779278 
z
" style="fill: #ff0000; stroke: #000000; stroke-linejoin: miter"/>
   </g>
   <g id="matplotlib.axis_1"/>
   <g id="matplotlib.axis_2"/>
  </g>
 </g>
</svg>
