<?xml version="1.0" encoding="utf-8" standalone="no"?>
<!DOCTYPE svg PUBLIC "-//W3C//DTD SVG 1.1//EN"
  "http://www.w3.org/Graphics/SVG/1.1/DTD/svg11.dtd">
<svg xmlns:xlink="http://www.w3.org/1999/xlink" width="371.52pt" height="280.512pt" viewBox="0 0 371.52 280.512" xmlns="http://www.w3.org/2000/svg" version="1.1">
 <metadata>
  <rdf:RDF xmlns:dc="http://purl.org/dc/elements/1.1/" xmlns:cc="http://creativecommons.org/ns#" xmlns:rdf="http://www.w3.org/1999/02/22-rdf-syntax-ns#">
   <cc:Work>
    <dc:type rdf:resource="http://purl.org/dc/dcmitype/StillImage"/>
    <dc:date>2021-12-03T16:10:02.610669</dc:date>
    <dc:format>image/svg+xml</dc:format>
    <dc:creator>
     <cc:Agent>
      <dc:title>Matplotlib v3.5.0, https://matplotlib.org/</dc:title>
     </cc:Agent>
    </dc:creator>
   </cc:Work>
  </rdf:RDF>
 </metadata>
 <defs>
  <style type="text/css">*{stroke-linejoin: round; stroke-linecap: butt}</style>
 </defs>
 <g id="figure_1">
  <g id="patch_1">
   <path d="M 0 280.512 
L 371.52 280.512 
L 371.52 0 
L 0 0 
L 0 280.512 
z
" style="fill: none"/>
  </g>
  <g id="axes_1">
   <g id="patch_2">
    <path d="M 185.273022 19.296 
C 168.754514 19.296 152.411379 22.695534 137.263035 29.282552 
C 122.114692 35.869571 108.482793 45.504209 97.217642 57.585495 
C 85.952491 69.666782 77.293286 83.93819 71.780154 99.509525 
C 66.267022 115.080861 64.017026 131.62149 65.170512 148.099676 
C 66.323997 164.577861 70.856472 180.643712 78.485218 195.295106 
C 86.113964 209.946501 96.676996 222.872337 109.515436 233.266354 
C 122.353875 243.660371 137.195116 251.301868 153.113422 255.714197 
C 169.031728 260.126526 185.689098 261.216 202.04651 258.914661 
L 185.273022 139.692409 
L 185.273022 19.296 
z
" style="fill: #0000ff"/>
   </g>
   <g id="patch_3">
    <path d="M 202.04651 258.914661 
C 232.215443 254.670166 259.676675 239.12868 278.846968 215.449996 
C 298.017261 191.771311 307.502974 161.676822 305.375533 131.285142 
C 303.248093 100.893462 289.662159 72.414005 267.379936 51.637029 
C 245.097713 30.860052 215.739073 19.296 185.273022 19.296 
L 185.273022 139.692409 
L 202.04651 258.914661 
z
" style="fill: #bf00bf"/>
   </g>
   <g id="matplotlib.axis_1"/>
   <g id="matplotlib.axis_2"/>
  </g>
 </g>
</svg>
