<?xml version="1.0" encoding="utf-8" standalone="no"?>
<!DOCTYPE svg PUBLIC "-//W3C//DTD SVG 1.1//EN"
  "http://www.w3.org/Graphics/SVG/1.1/DTD/svg11.dtd">
<svg xmlns:xlink="http://www.w3.org/1999/xlink" width="126.96255pt" height="126.23634pt" viewBox="0 0 126.96255 126.23634" xmlns="http://www.w3.org/2000/svg" version="1.1">
 <metadata>
  <rdf:RDF xmlns:dc="http://purl.org/dc/elements/1.1/" xmlns:cc="http://creativecommons.org/ns#" xmlns:rdf="http://www.w3.org/1999/02/22-rdf-syntax-ns#">
   <cc:Work>
    <dc:type rdf:resource="http://purl.org/dc/dcmitype/StillImage"/>
    <dc:date>2022-01-14T17:05:49.374267</dc:date>
    <dc:format>image/svg+xml</dc:format>
    <dc:creator>
     <cc:Agent>
      <dc:title>Matplotlib v3.5.1, https://matplotlib.org/</dc:title>
     </cc:Agent>
    </dc:creator>
   </cc:Work>
  </rdf:RDF>
 </metadata>
 <defs>
  <style type="text/css">*{stroke-linejoin: round; stroke-linecap: butt}</style>
 </defs>
 <g id="figure_1">
  <g id="patch_1">
   <path d="M 0 126.23634 
L 126.96255 126.23634 
L 126.96255 -0 
L 0 -0 
L 0 126.23634 
z
" style="fill: none"/>
  </g>
  <g id="axes_1">
   <g id="patch_2">
    <path d="M 63.276613 12.28347 
C 56.334397 12.28347 49.465884 13.71216 43.099505 16.480423 
C 36.733126 19.248686 31.004062 23.297743 26.269669 28.375029 
C 21.535275 33.452316 17.89608 39.450024 15.579081 45.99404 
C 13.262083 52.538056 12.31648 59.489427 12.801254 66.414556 
C 13.286028 73.339685 15.190886 80.091527 18.397012 86.248928 
C 21.603137 92.406329 26.042452 97.838546 31.43805 102.20674 
C 36.833647 106.574934 43.070961 109.786353 49.760931 111.64068 
C 56.450901 113.495007 63.451477 113.95287 70.32599 112.985708 
L 63.276613 62.881315 
L 63.276613 12.28347 
z
" style="fill: #0000ff; stroke: #000000; stroke-linejoin: miter"/>
   </g>
   <g id="patch_3">
    <path d="M 70.32599 112.985708 
C 83.005057 111.201915 94.546161 104.670444 102.60284 94.71923 
C 110.65952 84.768016 114.64607 72.120494 113.751973 59.348073 
C 112.857876 46.575653 107.148129 34.606865 97.783602 25.875124 
C 88.419075 17.143383 76.080549 12.28347 63.276613 12.28347 
L 63.276613 62.881315 
L 70.32599 112.985708 
z
" style="fill: #ff0000; stroke: #000000; stroke-linejoin: miter"/>
   </g>
   <g id="matplotlib.axis_1"/>
   <g id="matplotlib.axis_2"/>
  </g>
 </g>
</svg>
