<?xml version="1.0" encoding="utf-8" standalone="no"?>
<!DOCTYPE svg PUBLIC "-//W3C//DTD SVG 1.1//EN"
  "http://www.w3.org/Graphics/SVG/1.1/DTD/svg11.dtd">
<svg xmlns:xlink="http://www.w3.org/1999/xlink" width="438.48pt" height="435.744pt" viewBox="0 0 438.48 435.744" xmlns="http://www.w3.org/2000/svg" version="1.1">
 <metadata>
  <rdf:RDF xmlns:dc="http://purl.org/dc/elements/1.1/" xmlns:cc="http://creativecommons.org/ns#" xmlns:rdf="http://www.w3.org/1999/02/22-rdf-syntax-ns#">
   <cc:Work>
    <dc:type rdf:resource="http://purl.org/dc/dcmitype/StillImage"/>
    <dc:date>2021-12-14T09:20:54.444150</dc:date>
    <dc:format>image/svg+xml</dc:format>
    <dc:creator>
     <cc:Agent>
      <dc:title>Matplotlib v3.5.0, https://matplotlib.org/</dc:title>
     </cc:Agent>
    </dc:creator>
   </cc:Work>
  </rdf:RDF>
 </metadata>
 <defs>
  <style type="text/css">*{stroke-linejoin: round; stroke-linecap: butt}</style>
 </defs>
 <g id="figure_1">
  <g id="patch_1">
   <path d="M 0 435.744 
L 438.48 435.744 
L 438.48 0 
L 0 0 
L 0 435.744 
z
" style="fill: none"/>
  </g>
  <g id="axes_1">
   <g id="patch_2">
    <path d="M 217.713652 26.352 
C 189.632249 26.352 161.893973 32.550734 136.483924 44.504588 
C 111.073876 56.458441 88.613026 73.875285 70.708793 95.508677 
C 52.804561 117.142069 39.894491 142.463331 32.902496 169.660339 
C 25.910501 196.857346 25.007453 225.265456 30.257978 252.851634 
C 35.508503 280.437811 46.784289 306.527903 63.278381 329.254762 
C 79.772472 351.981622 101.081785 370.789849 125.681311 384.333427 
C 150.280838 397.877004 177.569413 405.824954 205.59412 407.608477 
C 233.618828 409.392 261.694799 404.967511 287.812766 394.651651 
L 217.713652 217.172869 
L 217.713652 26.352 
z
" style="fill: #0000ff"/>
   </g>
   <g id="patch_3">
    <path d="M 287.812766 394.651651 
C 329.115927 378.338067 363.456283 348.107103 384.874206 309.205217 
C 406.292129 270.303331 413.472547 225.119122 405.169329 181.494121 
C 396.866111 137.86912 373.589078 98.481928 339.377864 70.168027 
C 305.16665 41.854127 262.121841 26.352008 217.713688 26.352 
L 217.713652 217.172869 
L 287.812766 394.651651 
z
" style="fill: #ff0000"/>
   </g>
   <g id="matplotlib.axis_1"/>
   <g id="matplotlib.axis_2"/>
  </g>
 </g>
</svg>
