<?xml version="1.0" encoding="utf-8" standalone="no"?>
<!DOCTYPE svg PUBLIC "-//W3C//DTD SVG 1.1//EN"
  "http://www.w3.org/Graphics/SVG/1.1/DTD/svg11.dtd">
<svg xmlns:xlink="http://www.w3.org/1999/xlink" width="371.52pt" height="280.512pt" viewBox="0 0 371.52 280.512" xmlns="http://www.w3.org/2000/svg" version="1.1">
 <metadata>
  <rdf:RDF xmlns:dc="http://purl.org/dc/elements/1.1/" xmlns:cc="http://creativecommons.org/ns#" xmlns:rdf="http://www.w3.org/1999/02/22-rdf-syntax-ns#">
   <cc:Work>
    <dc:type rdf:resource="http://purl.org/dc/dcmitype/StillImage"/>
    <dc:date>2021-12-10T18:14:59.427947</dc:date>
    <dc:format>image/svg+xml</dc:format>
    <dc:creator>
     <cc:Agent>
      <dc:title>Matplotlib v3.5.0, https://matplotlib.org/</dc:title>
     </cc:Agent>
    </dc:creator>
   </cc:Work>
  </rdf:RDF>
 </metadata>
 <defs>
  <style type="text/css">*{stroke-linejoin: round; stroke-linecap: butt}</style>
 </defs>
 <g id="figure_1">
  <g id="patch_1">
   <path d="M 0 280.512 
L 371.52 280.512 
L 371.52 0 
L 0 0 
L 0 280.512 
z
" style="fill: none"/>
  </g>
  <g id="axes_1">
   <g id="patch_2">
    <path d="M 186.24539 19.296007 
C 162.514245 19.296007 139.306477 26.325048 119.563355 39.492295 
C 99.820233 52.659541 84.412604 71.384201 75.293175 93.293177 
C 66.173746 115.202154 63.744765 139.329068 68.314072 162.61616 
C 72.88338 185.903253 84.249429 207.323357 100.971727 224.161765 
L 186.24539 139.476112 
L 186.24539 19.296007 
z
" style="fill: #0000ff"/>
   </g>
   <g id="patch_3">
    <path d="M 100.971727 224.161765 
C 114.909957 238.196775 132.099975 248.576008 151.010965 254.375167 
C 169.921955 260.174325 189.975386 261.216 209.38545 257.407427 
C 228.795513 253.598854 246.968409 245.056546 262.285796 232.541218 
C 277.603183 220.02589 289.596467 203.920415 297.197614 185.659025 
C 304.798761 167.397636 307.775235 147.538991 305.861974 127.851553 
C 303.948712 108.164115 297.204247 89.250168 286.229188 72.794049 
C 275.25413 56.337929 260.384231 42.843066 242.943695 33.511214 
C 225.503159 24.179361 206.025531 19.296 186.245345 19.296007 
L 186.24539 139.476112 
L 100.971727 224.161765 
z
" style="fill: #ff0000"/>
   </g>
   <g id="matplotlib.axis_1"/>
   <g id="matplotlib.axis_2"/>
  </g>
 </g>
</svg>
