<?xml version="1.0" encoding="utf-8" standalone="no"?>
<!DOCTYPE svg PUBLIC "-//W3C//DTD SVG 1.1//EN"
  "http://www.w3.org/Graphics/SVG/1.1/DTD/svg11.dtd">
<svg xmlns:xlink="http://www.w3.org/1999/xlink" width="20.16135pt" height="20.12418pt" viewBox="0 0 20.16135 20.12418" xmlns="http://www.w3.org/2000/svg" version="1.1">
 <metadata>
  <rdf:RDF xmlns:dc="http://purl.org/dc/elements/1.1/" xmlns:cc="http://creativecommons.org/ns#" xmlns:rdf="http://www.w3.org/1999/02/22-rdf-syntax-ns#">
   <cc:Work>
    <dc:type rdf:resource="http://purl.org/dc/dcmitype/StillImage"/>
    <dc:date>2022-01-14T17:05:59.753505</dc:date>
    <dc:format>image/svg+xml</dc:format>
    <dc:creator>
     <cc:Agent>
      <dc:title>Matplotlib v3.5.1, https://matplotlib.org/</dc:title>
     </cc:Agent>
    </dc:creator>
   </cc:Work>
  </rdf:RDF>
 </metadata>
 <defs>
  <style type="text/css">*{stroke-linejoin: round; stroke-linecap: butt}</style>
 </defs>
 <g id="figure_1">
  <g id="patch_1">
   <path d="M -0 20.12418 
L 20.16135 20.12418 
L 20.16135 0 
L -0 0 
L -0 20.12418 
z
" style="fill: none"/>
  </g>
  <g id="axes_1">
   <g id="patch_2">
    <path d="M 10.077477 7.446966 
C 9.730628 7.446966 9.387236 7.51612 9.067424 7.650375 
C 8.747613 7.78463 8.457755 7.981311 8.214839 8.228891 
C 7.971924 8.476471 7.78079 8.770016 7.652641 9.092322 
C 7.524491 9.414629 7.46188 9.759275 7.468475 10.10606 
C 7.475071 10.452846 7.550742 10.794862 7.691054 11.112062 
C 7.831367 11.429263 8.033524 11.715328 8.285678 11.953492 
C 8.537832 12.191656 8.834959 12.377173 9.159644 12.49917 
C 9.484329 12.621168 9.830103 12.677214 10.176701 12.664025 
L 10.077477 10.056439 
L 10.077477 7.446966 
z
" style="fill: #0000ff; stroke: #000000; stroke-linejoin: miter"/>
   </g>
   <g id="patch_3">
    <path d="M 10.176701 12.664025 
C 10.859439 12.638046 11.505387 12.344938 11.97453 11.848238 
C 12.443672 11.351537 12.69947 10.689927 12.686478 10.006818 
C 12.673486 9.32371 12.392715 8.672304 11.905025 8.193802 
C 11.417335 7.715299 10.760709 7.446966 10.077477 7.446966 
L 10.077477 10.056439 
L 10.176701 12.664025 
z
" style="fill: #ff0000; stroke: #000000; stroke-linejoin: miter"/>
   </g>
   <g id="matplotlib.axis_1"/>
   <g id="matplotlib.axis_2"/>
  </g>
 </g>
</svg>
