<?xml version="1.0" encoding="utf-8" standalone="no"?>
<!DOCTYPE svg PUBLIC "-//W3C//DTD SVG 1.1//EN"
  "http://www.w3.org/Graphics/SVG/1.1/DTD/svg11.dtd">
<svg xmlns:xlink="http://www.w3.org/1999/xlink" width="347.2191pt" height="345.07188pt" viewBox="0 0 347.2191 345.07188" xmlns="http://www.w3.org/2000/svg" version="1.1">
 <metadata>
  <rdf:RDF xmlns:dc="http://purl.org/dc/elements/1.1/" xmlns:cc="http://creativecommons.org/ns#" xmlns:rdf="http://www.w3.org/1999/02/22-rdf-syntax-ns#">
   <cc:Work>
    <dc:type rdf:resource="http://purl.org/dc/dcmitype/StillImage"/>
    <dc:date>2022-01-14T17:05:52.259030</dc:date>
    <dc:format>image/svg+xml</dc:format>
    <dc:creator>
     <cc:Agent>
      <dc:title>Matplotlib v3.5.1, https://matplotlib.org/</dc:title>
     </cc:Agent>
    </dc:creator>
   </cc:Work>
  </rdf:RDF>
 </metadata>
 <defs>
  <style type="text/css">*{stroke-linejoin: round; stroke-linecap: butt}</style>
 </defs>
 <g id="figure_1">
  <g id="patch_1">
   <path d="M 0 345.07188 
L 347.2191 345.07188 
L 347.2191 0 
L 0 0 
L 0 345.07188 
z
" style="fill: none"/>
  </g>
  <g id="axes_1">
   <g id="patch_2">
    <path d="M 172.587284 22.23054 
C 151.183367 22.23054 130.026804 26.825774 110.551427 35.704811 
C 91.076049 44.583848 73.731989 57.541468 59.694697 73.699502 
C 45.657404 89.857536 35.251322 108.842524 29.181695 129.367808 
C 23.112068 149.893091 21.519183 171.484271 24.510995 192.67806 
C 27.502806 213.87185 35.010164 234.178398 46.524276 252.221481 
C 58.038388 270.264565 73.29313 285.627154 91.254651 297.268091 
C 109.216173 308.909027 129.469329 316.559254 150.641516 319.700297 
C 171.813703 322.84134 193.415568 321.4006 213.983101 315.47572 
L 172.587284 171.774941 
L 172.587284 22.23054 
z
" style="fill: #0000ff; stroke: #000000; stroke-linejoin: miter"/>
   </g>
   <g id="patch_3">
    <path d="M 213.983101 315.47572 
C 248.605999 305.501918 278.484358 283.343571 298.080434 253.107573 
C 317.67651 222.871575 325.699917 186.548943 320.663573 150.871821 
C 315.627229 115.194699 297.862773 82.512399 270.662722 58.882354 
C 243.462672 35.252309 208.618128 22.23054 172.587284 22.23054 
L 172.587284 171.774941 
L 213.983101 315.47572 
z
" style="fill: #ff0000; stroke: #000000; stroke-linejoin: miter"/>
   </g>
   <g id="matplotlib.axis_1"/>
   <g id="matplotlib.axis_2"/>
  </g>
 </g>
</svg>
