<?xml version="1.0" encoding="utf-8" standalone="no"?>
<!DOCTYPE svg PUBLIC "-//W3C//DTD SVG 1.1//EN"
  "http://www.w3.org/Graphics/SVG/1.1/DTD/svg11.dtd">
<svg xmlns:xlink="http://www.w3.org/1999/xlink" width="84.24765pt" height="83.79702pt" viewBox="0 0 84.24765 83.79702" xmlns="http://www.w3.org/2000/svg" version="1.1">
 <metadata>
  <rdf:RDF xmlns:dc="http://purl.org/dc/elements/1.1/" xmlns:cc="http://creativecommons.org/ns#" xmlns:rdf="http://www.w3.org/1999/02/22-rdf-syntax-ns#">
   <cc:Work>
    <dc:type rdf:resource="http://purl.org/dc/dcmitype/StillImage"/>
    <dc:date>2022-01-14T17:05:53.207988</dc:date>
    <dc:format>image/svg+xml</dc:format>
    <dc:creator>
     <cc:Agent>
      <dc:title>Matplotlib v3.5.1, https://matplotlib.org/</dc:title>
     </cc:Agent>
    </dc:creator>
   </cc:Work>
  </rdf:RDF>
 </metadata>
 <defs>
  <style type="text/css">*{stroke-linejoin: round; stroke-linecap: butt}</style>
 </defs>
 <g id="figure_1">
  <g id="patch_1">
   <path d="M 0 83.79702 
L 84.24765 83.79702 
L 84.24765 0 
L 0 0 
L 0 83.79702 
z
" style="fill: none"/>
  </g>
  <g id="axes_1">
   <g id="patch_2">
    <path d="M 41.960446 10.354411 
C 37.596399 10.354411 33.280168 11.269751 29.289414 13.041545 
C 25.298661 14.81334 21.720834 17.402765 18.786096 20.643243 
C 15.851358 23.88372 13.624018 27.704241 12.24736 31.859032 
C 10.870702 36.013824 10.374893 40.411841 10.791829 44.770159 
C 11.208764 49.128478 12.529308 53.351594 14.668509 57.167836 
C 16.80771 60.984077 19.718692 64.309817 23.214192 66.931113 
C 26.709693 69.552408 30.713113 71.411817 34.966916 72.389725 
C 39.220718 73.367633 43.631687 73.44261 47.916066 72.609833 
L 41.960446 41.768863 
L 41.960446 10.354411 
z
" style="fill: #0000ff; stroke: #000000; stroke-linejoin: miter"/>
   </g>
   <g id="patch_3">
    <path d="M 47.916066 72.609833 
C 55.558174 71.124398 62.380143 66.831948 67.040513 60.576544 
C 71.700882 54.321139 73.872757 46.541558 73.129062 38.767563 
C 72.385368 30.993568 68.77827 23.770457 63.017063 18.518571 
C 57.255855 13.266685 49.744651 10.35441 41.96044 10.354411 
L 41.960446 41.768863 
L 47.916066 72.609833 
z
" style="fill: #ff0000; stroke: #000000; stroke-linejoin: miter"/>
   </g>
   <g id="matplotlib.axis_1"/>
   <g id="matplotlib.axis_2"/>
  </g>
 </g>
</svg>
