<?xml version="1.0" encoding="utf-8" standalone="no"?>
<!DOCTYPE svg PUBLIC "-//W3C//DTD SVG 1.1//EN"
  "http://www.w3.org/Graphics/SVG/1.1/DTD/svg11.dtd">
<svg xmlns:xlink="http://www.w3.org/1999/xlink" width="371.52pt" height="280.512pt" viewBox="0 0 371.52 280.512" xmlns="http://www.w3.org/2000/svg" version="1.1">
 <metadata>
  <rdf:RDF xmlns:dc="http://purl.org/dc/elements/1.1/" xmlns:cc="http://creativecommons.org/ns#" xmlns:rdf="http://www.w3.org/1999/02/22-rdf-syntax-ns#">
   <cc:Work>
    <dc:type rdf:resource="http://purl.org/dc/dcmitype/StillImage"/>
    <dc:date>2021-12-03T16:10:06.371621</dc:date>
    <dc:format>image/svg+xml</dc:format>
    <dc:creator>
     <cc:Agent>
      <dc:title>Matplotlib v3.5.0, https://matplotlib.org/</dc:title>
     </cc:Agent>
    </dc:creator>
   </cc:Work>
  </rdf:RDF>
 </metadata>
 <defs>
  <style type="text/css">*{stroke-linejoin: round; stroke-linecap: butt}</style>
 </defs>
 <g id="figure_1">
  <g id="patch_1">
   <path d="M 0 280.512 
L 371.52 280.512 
L 371.52 0 
L 0 0 
L 0 280.512 
z
" style="fill: none"/>
  </g>
  <g id="axes_1">
   <g id="patch_2">
    <path d="M 185.131448 19.296006 
C 168.342102 19.296006 151.73671 22.805994 136.383493 29.600174 
C 121.030277 36.394354 107.265674 46.323844 95.975158 58.749881 
C 84.684643 71.175919 76.115626 85.826209 70.819352 101.758303 
C 65.523077 117.690397 63.615602 134.555171 65.219635 151.267717 
C 66.823668 167.980264 71.904059 184.174358 80.133987 198.808237 
C 88.363916 213.442116 99.563038 226.195105 113.010916 236.246807 
C 126.458795 246.298508 141.860744 253.428658 158.225959 257.178574 
C 174.591174 260.92849 191.561041 261.216 208.043893 258.022609 
L 185.131448 139.75885 
L 185.131448 19.296006 
z
" style="fill: #0000ff"/>
   </g>
   <g id="patch_3">
    <path d="M 208.043893 258.022609 
C 237.444588 252.326512 263.690047 235.866548 281.619408 211.879377 
C 299.548768 187.892205 307.904398 158.060376 305.043259 128.249971 
C 302.18212 98.439566 288.304904 70.741598 266.140404 50.602549 
C 243.975903 30.463501 215.078818 19.296 185.131425 19.296006 
L 185.131448 139.75885 
L 208.043893 258.022609 
z
" style="fill: #bf00bf"/>
   </g>
   <g id="matplotlib.axis_1"/>
   <g id="matplotlib.axis_2"/>
  </g>
 </g>
</svg>
