<?xml version="1.0" encoding="utf-8" standalone="no"?>
<!DOCTYPE svg PUBLIC "-//W3C//DTD SVG 1.1//EN"
  "http://www.w3.org/Graphics/SVG/1.1/DTD/svg11.dtd">
<svg xmlns:xlink="http://www.w3.org/1999/xlink" width="371.52pt" height="280.512pt" viewBox="0 0 371.52 280.512" xmlns="http://www.w3.org/2000/svg" version="1.1">
 <metadata>
  <rdf:RDF xmlns:dc="http://purl.org/dc/elements/1.1/" xmlns:cc="http://creativecommons.org/ns#" xmlns:rdf="http://www.w3.org/1999/02/22-rdf-syntax-ns#">
   <cc:Work>
    <dc:type rdf:resource="http://purl.org/dc/dcmitype/StillImage"/>
    <dc:date>2021-12-03T16:10:07.341180</dc:date>
    <dc:format>image/svg+xml</dc:format>
    <dc:creator>
     <cc:Agent>
      <dc:title>Matplotlib v3.5.0, https://matplotlib.org/</dc:title>
     </cc:Agent>
    </dc:creator>
   </cc:Work>
  </rdf:RDF>
 </metadata>
 <defs>
  <style type="text/css">*{stroke-linejoin: round; stroke-linecap: butt}</style>
 </defs>
 <g id="figure_1">
  <g id="patch_1">
   <path d="M 0 280.512 
L 371.52 280.512 
L 371.52 0 
L 0 0 
L 0 280.512 
z
" style="fill: none"/>
  </g>
  <g id="axes_1">
   <g id="patch_2">
    <path d="M 185.468776 19.296006 
C 169.247304 19.296006 153.191582 22.571267 138.266231 28.925012 
C 123.340881 35.278757 109.850915 44.581142 98.606805 56.273283 
C 87.362696 67.965424 78.594226 81.808382 72.828202 96.970477 
C 67.062179 112.132572 64.416435 128.303954 65.049926 144.513052 
C 65.683418 160.72215 69.583198 176.637716 76.514971 191.30355 
C 83.446743 205.969384 93.268851 219.085777 105.391185 229.8647 
C 117.513519 240.643623 131.688349 248.8648 147.064057 254.034305 
C 162.439764 259.20381 178.702133 261.216 194.874126 259.949984 
L 185.468776 139.806787 
L 185.468776 19.296006 
z
" style="fill: #0000ff"/>
   </g>
   <g id="patch_3">
    <path d="M 194.874126 259.949984 
C 225.914984 257.519966 254.837407 243.152233 275.526693 219.884374 
C 296.21598 196.616514 307.103565 166.212588 305.887626 135.100511 
C 304.671686 103.988433 291.444409 74.526977 269.002268 52.944804 
C 246.560128 31.362631 216.604583 19.296 185.468754 19.296006 
L 185.468776 139.806787 
L 194.874126 259.949984 
z
" style="fill: #bf00bf"/>
   </g>
   <g id="matplotlib.axis_1"/>
   <g id="matplotlib.axis_2"/>
  </g>
 </g>
</svg>
