<?xml version="1.0" encoding="utf-8" standalone="no"?>
<!DOCTYPE svg PUBLIC "-//W3C//DTD SVG 1.1//EN"
  "http://www.w3.org/Graphics/SVG/1.1/DTD/svg11.dtd">
<svg xmlns:xlink="http://www.w3.org/1999/xlink" width="141.1776pt" height="140.35968pt" viewBox="0 0 141.1776 140.35968" xmlns="http://www.w3.org/2000/svg" version="1.1">
 <metadata>
  <rdf:RDF xmlns:dc="http://purl.org/dc/elements/1.1/" xmlns:cc="http://creativecommons.org/ns#" xmlns:rdf="http://www.w3.org/1999/02/22-rdf-syntax-ns#">
   <cc:Work>
    <dc:type rdf:resource="http://purl.org/dc/dcmitype/StillImage"/>
    <dc:date>2022-01-14T17:05:54.160081</dc:date>
    <dc:format>image/svg+xml</dc:format>
    <dc:creator>
     <cc:Agent>
      <dc:title>Matplotlib v3.5.1, https://matplotlib.org/</dc:title>
     </cc:Agent>
    </dc:creator>
   </cc:Work>
  </rdf:RDF>
 </metadata>
 <defs>
  <style type="text/css">*{stroke-linejoin: round; stroke-linecap: butt}</style>
 </defs>
 <g id="figure_1">
  <g id="patch_1">
   <path d="M 0 140.35968 
L 141.1776 140.35968 
L 141.1776 0 
L 0 0 
L 0 140.35968 
z
" style="fill: none"/>
  </g>
  <g id="axes_1">
   <g id="patch_2">
    <path d="M 70.450498 12.925443 
C 62.746904 12.925443 55.122025 14.475733 48.033961 17.483172 
C 40.945897 20.490611 34.539499 24.89374 29.19966 30.42802 
C 23.859821 35.9623 19.695665 42.514634 16.957375 49.691359 
C 14.219085 56.868084 12.962618 64.522538 13.263464 72.194845 
C 13.56431 79.867151 15.416319 87.400519 18.708225 94.342347 
C 22.000131 101.284175 26.66466 107.492601 32.421568 112.594625 
C 38.178477 117.696648 44.910118 121.588005 52.212057 124.034904 
C 59.513996 126.481803 67.237012 127.43424 74.917108 126.834992 
L 70.450498 69.967212 
L 70.450498 12.925443 
z
" style="fill: #0000ff; stroke: #000000; stroke-linejoin: miter"/>
   </g>
   <g id="patch_3">
    <path d="M 74.917108 126.834992 
C 89.658443 125.684784 103.39373 118.884057 113.219093 107.870604 
C 123.044456 96.85715 128.214982 82.465958 127.637531 67.739575 
C 127.06008 53.013192 120.778433 39.068103 110.120637 28.852541 
C 99.462842 18.636979 85.236924 12.92544 70.450487 12.925443 
L 70.450498 69.967212 
L 74.917108 126.834992 
z
" style="fill: #ff0000; stroke: #000000; stroke-linejoin: miter"/>
   </g>
   <g id="matplotlib.axis_1"/>
   <g id="matplotlib.axis_2"/>
  </g>
 </g>
</svg>
