<?xml version="1.0" encoding="utf-8" standalone="no"?>
<!DOCTYPE svg PUBLIC "-//W3C//DTD SVG 1.1//EN"
  "http://www.w3.org/Graphics/SVG/1.1/DTD/svg11.dtd">
<svg xmlns:xlink="http://www.w3.org/1999/xlink" width="329.26545pt" height="327.23406pt" viewBox="0 0 329.26545 327.23406" xmlns="http://www.w3.org/2000/svg" version="1.1">
 <metadata>
  <rdf:RDF xmlns:dc="http://purl.org/dc/elements/1.1/" xmlns:cc="http://creativecommons.org/ns#" xmlns:rdf="http://www.w3.org/1999/02/22-rdf-syntax-ns#">
   <cc:Work>
    <dc:type rdf:resource="http://purl.org/dc/dcmitype/StillImage"/>
    <dc:date>2021-12-14T09:20:58.092423</dc:date>
    <dc:format>image/svg+xml</dc:format>
    <dc:creator>
     <cc:Agent>
      <dc:title>Matplotlib v3.5.0, https://matplotlib.org/</dc:title>
     </cc:Agent>
    </dc:creator>
   </cc:Work>
  </rdf:RDF>
 </metadata>
 <defs>
  <style type="text/css">*{stroke-linejoin: round; stroke-linecap: butt}</style>
 </defs>
 <g id="figure_1">
  <g id="patch_1">
   <path d="M 0 327.23406 
L 329.26545 327.23406 
L 329.26545 0 
L 0 0 
L 0 327.23406 
z
" style="fill: none"/>
  </g>
  <g id="axes_1">
   <g id="patch_2">
    <path d="M 163.935428 21.41973 
C 144.328236 21.41973 124.934174 25.512401 106.991206 33.4365 
C 89.048238 41.360599 72.946442 52.943856 59.713631 67.446887 
C 46.480819 81.949919 36.404673 99.057429 30.128373 117.67741 
C 23.852073 136.297391 21.512066 156.025046 23.25772 175.601116 
C 25.003373 195.177186 30.796737 214.176089 40.268009 231.385084 
C 49.73928 248.59408 62.682554 263.639046 78.271634 275.559629 
C 93.860714 287.480213 111.756695 296.017263 130.817238 300.625839 
C 149.87778 305.234416 169.68851 305.81433 188.984866 302.328564 
L 163.935428 162.996364 
L 163.935428 21.41973 
z
" style="fill: #0000ff"/>
   </g>
   <g id="patch_3">
    <path d="M 188.984866 302.328564 
C 223.696983 296.058038 254.837249 276.975424 276.229925 248.865188 
C 297.622601 220.754951 307.753384 185.606906 304.613136 150.391613 
C 301.472889 115.17632 285.283897 82.386532 259.256761 58.52512 
C 233.229625 34.663709 199.206706 21.41973 163.935428 21.41973 
L 163.935428 162.996364 
L 188.984866 302.328564 
z
" style="fill: #ff0000"/>
   </g>
   <g id="matplotlib.axis_1"/>
   <g id="matplotlib.axis_2"/>
  </g>
 </g>
</svg>
