<?xml version="1.0" encoding="utf-8" standalone="no"?>
<!DOCTYPE svg PUBLIC "-//W3C//DTD SVG 1.1//EN"
  "http://www.w3.org/Graphics/SVG/1.1/DTD/svg11.dtd">
<svg xmlns:xlink="http://www.w3.org/1999/xlink" width="371.52pt" height="280.512pt" viewBox="0 0 371.52 280.512" xmlns="http://www.w3.org/2000/svg" version="1.1">
 <metadata>
  <rdf:RDF xmlns:dc="http://purl.org/dc/elements/1.1/" xmlns:cc="http://creativecommons.org/ns#" xmlns:rdf="http://www.w3.org/1999/02/22-rdf-syntax-ns#">
   <cc:Work>
    <dc:type rdf:resource="http://purl.org/dc/dcmitype/StillImage"/>
    <dc:date>2021-12-10T18:14:54.998308</dc:date>
    <dc:format>image/svg+xml</dc:format>
    <dc:creator>
     <cc:Agent>
      <dc:title>Matplotlib v3.5.0, https://matplotlib.org/</dc:title>
     </cc:Agent>
    </dc:creator>
   </cc:Work>
  </rdf:RDF>
 </metadata>
 <defs>
  <style type="text/css">*{stroke-linejoin: round; stroke-linecap: butt}</style>
 </defs>
 <g id="figure_1">
  <g id="patch_1">
   <path d="M 0 280.512 
L 371.52 280.512 
L 371.52 0 
L 0 0 
L 0 280.512 
z
" style="fill: none"/>
  </g>
  <g id="axes_1">
   <g id="patch_2">
    <path d="M 185.710065 19.296012 
C 169.774642 19.296012 153.995418 22.447513 139.282554 28.568734 
C 124.56969 34.689954 111.211617 43.660894 99.978842 54.9641 
C 88.746067 66.267306 79.858797 79.681191 73.829658 94.432028 
C 67.80052 109.182865 64.747708 124.981479 64.847312 140.916591 
C 64.946916 156.851703 68.196983 172.61092 74.410047 187.285236 
C 80.62311 201.959552 89.677369 215.261291 101.050565 226.423196 
C 112.42376 237.585102 125.892933 246.388355 140.681167 252.325176 
C 155.469401 258.261997 171.286788 261.216 187.220966 261.016796 
L 185.710065 140.161126 
L 185.710065 19.296012 
z
" style="fill: #0000ff"/>
   </g>
   <g id="patch_3">
    <path d="M 187.220966 261.016796 
C 219.130977 260.617867 249.619155 247.596743 271.972143 224.820618 
C 294.325131 202.044492 306.772292 171.31752 306.572818 139.405638 
C 306.373343 107.493757 293.543034 76.924788 270.907066 54.429879 
C 248.271099 31.93497 217.622524 19.296 185.71002 19.296012 
L 185.710065 140.161126 
L 187.220966 261.016796 
z
" style="fill: #ff0000"/>
   </g>
   <g id="matplotlib.axis_1"/>
   <g id="matplotlib.axis_2"/>
  </g>
 </g>
</svg>
