<?xml version="1.0" encoding="utf-8" standalone="no"?>
<!DOCTYPE svg PUBLIC "-//W3C//DTD SVG 1.1//EN"
  "http://www.w3.org/Graphics/SVG/1.1/DTD/svg11.dtd">
<svg xmlns:xlink="http://www.w3.org/1999/xlink" width="18.6687pt" height="18.64116pt" viewBox="0 0 18.6687 18.64116" xmlns="http://www.w3.org/2000/svg" version="1.1">
 <metadata>
  <rdf:RDF xmlns:dc="http://purl.org/dc/elements/1.1/" xmlns:cc="http://creativecommons.org/ns#" xmlns:rdf="http://www.w3.org/1999/02/22-rdf-syntax-ns#">
   <cc:Work>
    <dc:type rdf:resource="http://purl.org/dc/dcmitype/StillImage"/>
    <dc:date>2021-12-14T09:21:03.684391</dc:date>
    <dc:format>image/svg+xml</dc:format>
    <dc:creator>
     <cc:Agent>
      <dc:title>Matplotlib v3.5.0, https://matplotlib.org/</dc:title>
     </cc:Agent>
    </dc:creator>
   </cc:Work>
  </rdf:RDF>
 </metadata>
 <defs>
  <style type="text/css">*{stroke-linejoin: round; stroke-linecap: butt}</style>
 </defs>
 <g id="figure_1">
  <g id="patch_1">
   <path d="M -0 18.64116 
L 18.6687 18.64116 
L 18.6687 0 
L -0 0 
L -0 18.64116 
z
" style="fill: none"/>
  </g>
  <g id="axes_1">
   <g id="patch_2">
    <path d="M 9.33435 7.380262 
C 8.819943 7.380262 8.326079 7.584827 7.962338 7.948568 
C 7.598597 8.312309 7.394032 8.806173 7.394032 9.32058 
C 7.394032 9.834987 7.598597 10.328851 7.962338 10.692592 
C 8.326079 11.056333 8.819943 11.260898 9.33435 11.260898 
L 9.33435 9.32058 
L 9.33435 7.380262 
z
" style="fill: #0000ff"/>
   </g>
   <g id="patch_3">
    <path d="M 9.33435 11.260898 
C 9.848757 11.260898 10.342621 11.056333 10.706362 10.692592 
C 11.070103 10.328851 11.274668 9.834987 11.274668 9.32058 
C 11.274668 8.806173 11.070103 8.312309 10.706362 7.948568 
C 10.342621 7.584827 9.848757 7.380262 9.33435 7.380262 
L 9.33435 9.32058 
L 9.33435 11.260898 
z
" style="fill: #ff0000"/>
   </g>
   <g id="matplotlib.axis_1"/>
   <g id="matplotlib.axis_2"/>
  </g>
 </g>
</svg>
