<?xml version="1.0" encoding="utf-8" standalone="no"?>
<!DOCTYPE svg PUBLIC "-//W3C//DTD SVG 1.1//EN"
  "http://www.w3.org/Graphics/SVG/1.1/DTD/svg11.dtd">
<svg xmlns:xlink="http://www.w3.org/1999/xlink" width="115.55145pt" height="114.89886pt" viewBox="0 0 115.55145 114.89886" xmlns="http://www.w3.org/2000/svg" version="1.1">
 <metadata>
  <rdf:RDF xmlns:dc="http://purl.org/dc/elements/1.1/" xmlns:cc="http://creativecommons.org/ns#" xmlns:rdf="http://www.w3.org/1999/02/22-rdf-syntax-ns#">
   <cc:Work>
    <dc:type rdf:resource="http://purl.org/dc/dcmitype/StillImage"/>
    <dc:date>2022-01-14T17:05:56.032583</dc:date>
    <dc:format>image/svg+xml</dc:format>
    <dc:creator>
     <cc:Agent>
      <dc:title>Matplotlib v3.5.1, https://matplotlib.org/</dc:title>
     </cc:Agent>
    </dc:creator>
   </cc:Work>
  </rdf:RDF>
 </metadata>
 <defs>
  <style type="text/css">*{stroke-linejoin: round; stroke-linecap: butt}</style>
 </defs>
 <g id="figure_1">
  <g id="patch_1">
   <path d="M 0 114.89886 
L 115.55145 114.89886 
L 115.55145 0 
L 0 0 
L 0 114.89886 
z
" style="fill: none"/>
  </g>
  <g id="axes_1">
   <g id="patch_2">
    <path d="M 57.388741 11.768132 
C 50.525556 11.768132 43.749796 13.314876 37.566465 16.293083 
C 31.383133 19.27129 25.94976 23.605086 21.671298 28.97147 
C 17.392837 34.337854 14.378288 40.600108 12.852328 47.291502 
C 11.326369 53.982896 11.327875 60.932956 12.856734 67.623689 
C 14.385593 74.314421 17.402855 80.575368 21.683642 85.939898 
C 25.964428 91.304427 31.39968 95.635868 37.584301 98.611395 
C 43.768923 101.586923 50.545352 103.13073 57.408537 103.127756 
C 64.271721 103.124782 71.04681 101.575102 77.22885 98.594215 
L 57.388741 57.447946 
L 57.388741 11.768132 
z
" style="fill: #0000ff; stroke: #000000; stroke-linejoin: miter"/>
   </g>
   <g id="patch_3">
    <path d="M 77.22885 98.594215 
C 86.546568 94.101353 94.067407 86.573993 98.552192 77.252384 
C 103.036976 67.930775 104.225081 57.356629 101.920748 47.272199 
C 99.616414 37.187769 93.953554 28.179097 85.865212 21.730499 
C 77.77687 15.281902 67.733088 11.76813 57.388733 11.768132 
L 57.388741 57.447946 
L 77.22885 98.594215 
z
" style="fill: #ff0000; stroke: #000000; stroke-linejoin: miter"/>
   </g>
   <g id="matplotlib.axis_1"/>
   <g id="matplotlib.axis_2"/>
  </g>
 </g>
</svg>
