<?xml version="1.0" encoding="utf-8" standalone="no"?>
<!DOCTYPE svg PUBLIC "-//W3C//DTD SVG 1.1//EN"
  "http://www.w3.org/Graphics/SVG/1.1/DTD/svg11.dtd">
<svg xmlns:xlink="http://www.w3.org/1999/xlink" width="37.6128pt" height="37.46304pt" viewBox="0 0 37.6128 37.46304" xmlns="http://www.w3.org/2000/svg" version="1.1">
 <metadata>
  <rdf:RDF xmlns:dc="http://purl.org/dc/elements/1.1/" xmlns:cc="http://creativecommons.org/ns#" xmlns:rdf="http://www.w3.org/1999/02/22-rdf-syntax-ns#">
   <cc:Work>
    <dc:type rdf:resource="http://purl.org/dc/dcmitype/StillImage"/>
    <dc:date>2022-01-14T17:05:56.958684</dc:date>
    <dc:format>image/svg+xml</dc:format>
    <dc:creator>
     <cc:Agent>
      <dc:title>Matplotlib v3.5.1, https://matplotlib.org/</dc:title>
     </cc:Agent>
    </dc:creator>
   </cc:Work>
  </rdf:RDF>
 </metadata>
 <defs>
  <style type="text/css">*{stroke-linejoin: round; stroke-linecap: butt}</style>
 </defs>
 <g id="figure_1">
  <g id="patch_1">
   <path d="M 0 37.46304 
L 37.6128 37.46304 
L 37.6128 -0 
L 0 -0 
L 0 37.46304 
z
" style="fill: none"/>
  </g>
  <g id="axes_1">
   <g id="patch_2">
    <path d="M 18.751033 8.24832 
C 17.298854 8.24832 15.862635 8.553471 14.535039 9.144086 
C 13.207443 9.7347 12.01765 10.597796 11.042427 11.677687 
C 10.067203 12.757578 9.327983 14.030528 8.872461 15.414408 
C 8.416939 16.798287 8.255127 18.262678 8.397466 19.713099 
C 8.539804 21.16352 8.983164 22.568091 9.69894 23.836189 
C 10.414717 25.104288 11.387177 26.208042 12.553578 27.076237 
C 13.719979 27.944432 15.054684 28.557986 16.471577 28.877313 
C 17.888471 29.19664 19.356412 29.21472 20.780687 28.930388 
L 18.751033 18.689668 
L 18.751033 8.24832 
z
" style="fill: #0000ff; stroke: #000000; stroke-linejoin: miter"/>
   </g>
   <g id="patch_3">
    <path d="M 20.780687 28.930388 
C 23.312995 28.424856 25.569287 26.990899 27.107334 24.909571 
C 28.645381 22.828243 29.357673 20.245029 29.1046 17.666237 
C 28.851528 15.087444 27.650782 12.69333 25.737707 10.953139 
C 23.824632 9.212949 21.332951 8.24832 18.751033 8.24832 
L 18.751033 18.689668 
L 20.780687 28.930388 
z
" style="fill: #ff0000; stroke: #000000; stroke-linejoin: miter"/>
   </g>
   <g id="matplotlib.axis_1"/>
   <g id="matplotlib.axis_2"/>
  </g>
 </g>
</svg>
