<?xml version="1.0" encoding="utf-8" standalone="no"?>
<!DOCTYPE svg PUBLIC "-//W3C//DTD SVG 1.1//EN"
  "http://www.w3.org/Graphics/SVG/1.1/DTD/svg11.dtd">
<svg xmlns:xlink="http://www.w3.org/1999/xlink" width="89.6184pt" height="89.13312pt" viewBox="0 0 89.6184 89.13312" xmlns="http://www.w3.org/2000/svg" version="1.1">
 <metadata>
  <rdf:RDF xmlns:dc="http://purl.org/dc/elements/1.1/" xmlns:cc="http://creativecommons.org/ns#" xmlns:rdf="http://www.w3.org/1999/02/22-rdf-syntax-ns#">
   <cc:Work>
    <dc:type rdf:resource="http://purl.org/dc/dcmitype/StillImage"/>
    <dc:date>2022-01-14T17:05:57.909895</dc:date>
    <dc:format>image/svg+xml</dc:format>
    <dc:creator>
     <cc:Agent>
      <dc:title>Matplotlib v3.5.1, https://matplotlib.org/</dc:title>
     </cc:Agent>
    </dc:creator>
   </cc:Work>
  </rdf:RDF>
 </metadata>
 <defs>
  <style type="text/css">*{stroke-linejoin: round; stroke-linecap: butt}</style>
 </defs>
 <g id="figure_1">
  <g id="patch_1">
   <path d="M 0 89.13312 
L 89.6184 89.13312 
L 89.6184 0 
L 0 0 
L 0 89.13312 
z
" style="fill: none"/>
  </g>
  <g id="axes_1">
   <g id="patch_2">
    <path d="M 44.731686 10.596962 
C 40.166126 10.596962 35.647079 11.514188 31.445263 13.293694 
C 27.243446 15.0732 23.444474 17.678727 20.275926 20.954189 
C 17.107379 24.229651 14.633817 28.108309 13.003422 32.357807 
C 11.373027 36.607306 10.619018 41.141061 10.786566 45.687472 
C 10.954113 50.233884 12.039803 54.700317 13.978596 58.819207 
C 15.917389 62.938096 18.669781 66.625518 22.070888 69.660573 
C 25.471995 72.695628 29.452517 75.016476 33.773999 76.484085 
C 38.09548 77.951694 42.669868 78.53616 47.22313 78.20247 
L 44.731686 44.445301 
L 44.731686 10.596962 
z
" style="fill: #0000ff; stroke: #000000; stroke-linejoin: miter"/>
   </g>
   <g id="patch_3">
    <path d="M 47.22313 78.20247 
C 55.989432 77.560025 64.172113 73.551283 70.0361 67.02627 
C 75.900086 60.501256 78.999382 51.95624 78.676805 43.203127 
C 78.354229 34.450015 74.634314 26.154539 68.30584 20.075691 
C 61.977367 13.996843 53.521656 10.59696 44.731679 10.596962 
L 44.731686 44.445301 
L 47.22313 78.20247 
z
" style="fill: #ff0000; stroke: #000000; stroke-linejoin: miter"/>
   </g>
   <g id="matplotlib.axis_1"/>
   <g id="matplotlib.axis_2"/>
  </g>
 </g>
</svg>
