<?xml version="1.0" encoding="utf-8" standalone="no"?>
<!DOCTYPE svg PUBLIC "-//W3C//DTD SVG 1.1//EN"
  "http://www.w3.org/Graphics/SVG/1.1/DTD/svg11.dtd">
<svg xmlns:xlink="http://www.w3.org/1999/xlink" width="371.52pt" height="280.512pt" viewBox="0 0 371.52 280.512" xmlns="http://www.w3.org/2000/svg" version="1.1">
 <metadata>
  <rdf:RDF xmlns:dc="http://purl.org/dc/elements/1.1/" xmlns:cc="http://creativecommons.org/ns#" xmlns:rdf="http://www.w3.org/1999/02/22-rdf-syntax-ns#">
   <cc:Work>
    <dc:type rdf:resource="http://purl.org/dc/dcmitype/StillImage"/>
    <dc:date>2021-12-03T16:10:11.186653</dc:date>
    <dc:format>image/svg+xml</dc:format>
    <dc:creator>
     <cc:Agent>
      <dc:title>Matplotlib v3.5.0, https://matplotlib.org/</dc:title>
     </cc:Agent>
    </dc:creator>
   </cc:Work>
  </rdf:RDF>
 </metadata>
 <defs>
  <style type="text/css">*{stroke-linejoin: round; stroke-linecap: butt}</style>
 </defs>
 <g id="figure_1">
  <g id="patch_1">
   <path d="M 0 280.512 
L 371.52 280.512 
L 371.52 0 
L 0 0 
L 0 280.512 
z
" style="fill: none"/>
  </g>
  <g id="axes_1">
   <g id="patch_2">
    <path d="M 185.484956 19.296006 
C 169.285042 19.296006 153.250167 22.562095 138.340917 28.898615 
C 123.431666 35.235135 109.951822 44.512976 98.708907 56.176342 
C 87.465992 67.839708 78.689085 81.650951 72.903975 96.782697 
C 67.118864 111.914443 64.443425 128.058376 65.037932 144.247378 
C 65.632438 160.436381 69.484777 176.340595 76.364171 191.007264 
C 83.243564 205.673933 93.009841 218.804218 105.077944 229.611536 
C 117.146047 240.418854 131.270083 248.683002 146.603939 253.908909 
C 161.937795 259.134815 178.169037 261.216 194.325317 260.027788 
L 185.484956 139.824219 
L 185.484956 19.296006 
z
" style="fill: #0000ff"/>
   </g>
   <g id="patch_3">
    <path d="M 194.325317 260.027788 
C 225.43067 257.740147 254.465172 243.465697 275.272278 220.231227 
C 296.079383 196.996756 307.076575 166.569399 305.931981 135.401047 
C 304.787386 104.232696 291.588061 74.693906 269.132821 53.048157 
C 246.677581 31.402408 216.674295 19.296 185.484934 19.296006 
L 185.484956 139.824219 
L 194.325317 260.027788 
z
" style="fill: #bf00bf"/>
   </g>
   <g id="matplotlib.axis_1"/>
   <g id="matplotlib.axis_2"/>
  </g>
 </g>
</svg>
