<?xml version="1.0" encoding="utf-8" standalone="no"?>
<!DOCTYPE svg PUBLIC "-//W3C//DTD SVG 1.1//EN"
  "http://www.w3.org/Graphics/SVG/1.1/DTD/svg11.dtd">
<svg xmlns:xlink="http://www.w3.org/1999/xlink" width="29.95425pt" height="29.8539pt" viewBox="0 0 29.95425 29.8539" xmlns="http://www.w3.org/2000/svg" version="1.1">
 <metadata>
  <rdf:RDF xmlns:dc="http://purl.org/dc/elements/1.1/" xmlns:cc="http://creativecommons.org/ns#" xmlns:rdf="http://www.w3.org/1999/02/22-rdf-syntax-ns#">
   <cc:Work>
    <dc:type rdf:resource="http://purl.org/dc/dcmitype/StillImage"/>
    <dc:date>2022-01-14T17:05:58.801977</dc:date>
    <dc:format>image/svg+xml</dc:format>
    <dc:creator>
     <cc:Agent>
      <dc:title>Matplotlib v3.5.1, https://matplotlib.org/</dc:title>
     </cc:Agent>
    </dc:creator>
   </cc:Work>
  </rdf:RDF>
 </metadata>
 <defs>
  <style type="text/css">*{stroke-linejoin: round; stroke-linecap: butt}</style>
 </defs>
 <g id="figure_1">
  <g id="patch_1">
   <path d="M 0 29.8539 
L 29.95425 29.8539 
L 29.95425 0 
L 0 0 
L 0 29.8539 
z
" style="fill: none"/>
  </g>
  <g id="axes_1">
   <g id="patch_2">
    <path d="M 14.934985 7.90245 
C 13.952366 7.90245 12.980791 8.111501 12.084347 8.515814 
C 11.187904 8.920128 10.386744 9.510614 9.733713 10.248323 
C 9.080682 10.986033 8.590461 11.854382 8.295385 12.796094 
C 8.000309 13.737805 7.907011 14.731708 8.021647 15.712245 
C 8.136282 16.692781 8.456273 17.637908 8.960512 18.485282 
C 9.464752 19.332657 10.141904 20.063231 10.947304 20.628814 
C 11.752704 21.194397 12.668245 21.582275 13.633537 21.766862 
C 14.59883 21.95145 15.592173 21.928598 16.548045 21.699814 
L 14.934985 14.89632 
L 14.934985 7.90245 
z
" style="fill: #0000ff; stroke: #000000; stroke-linejoin: miter"/>
   </g>
   <g id="patch_3">
    <path d="M 16.548045 21.699814 
C 18.20667 21.302828 19.663665 20.307057 20.640431 18.902906 
C 21.617197 17.498756 22.047239 15.781817 21.848324 14.080396 
C 21.64941 12.378974 20.835082 10.808898 19.561052 9.670391 
C 18.287022 8.531883 16.640023 7.90245 14.934987 7.90245 
L 14.934985 14.89632 
L 16.548045 21.699814 
z
" style="fill: #ff0000; stroke: #000000; stroke-linejoin: miter"/>
   </g>
   <g id="matplotlib.axis_1"/>
   <g id="matplotlib.axis_2"/>
  </g>
 </g>
</svg>
