<?xml version="1.0" encoding="utf-8" standalone="no"?>
<!DOCTYPE svg PUBLIC "-//W3C//DTD SVG 1.1//EN"
  "http://www.w3.org/Graphics/SVG/1.1/DTD/svg11.dtd">
<svg xmlns:xlink="http://www.w3.org/1999/xlink" width="371.52pt" height="280.512pt" viewBox="0 0 371.52 280.512" xmlns="http://www.w3.org/2000/svg" version="1.1">
 <metadata>
  <rdf:RDF xmlns:dc="http://purl.org/dc/elements/1.1/" xmlns:cc="http://creativecommons.org/ns#" xmlns:rdf="http://www.w3.org/1999/02/22-rdf-syntax-ns#">
   <cc:Work>
    <dc:type rdf:resource="http://purl.org/dc/dcmitype/StillImage"/>
    <dc:date>2021-12-10T18:12:49.903452</dc:date>
    <dc:format>image/svg+xml</dc:format>
    <dc:creator>
     <cc:Agent>
      <dc:title>Matplotlib v3.5.0, https://matplotlib.org/</dc:title>
     </cc:Agent>
    </dc:creator>
   </cc:Work>
  </rdf:RDF>
 </metadata>
 <defs>
  <style type="text/css">*{stroke-linejoin: round; stroke-linecap: butt}</style>
 </defs>
 <g id="figure_1">
  <g id="patch_1">
   <path d="M 0 280.512 
L 371.52 280.512 
L 371.52 0 
L 0 0 
L 0 280.512 
z
" style="fill: none"/>
  </g>
  <g id="axes_1">
   <g id="patch_2">
    <path d="M 186.203185 19.296006 
C 155.583274 19.296006 126.08759 30.976375 103.769341 51.940027 
C 81.451091 72.903679 67.94913 101.611229 66.034377 132.171214 
C 64.119624 162.731199 73.932682 192.899565 93.459681 216.485054 
C 112.986679 240.070543 140.793729 255.341247 171.17417 259.163258 
L 186.203185 139.700458 
L 186.203185 19.296006 
z
" style="fill: #0000ff"/>
   </g>
   <g id="patch_3">
    <path d="M 171.17417 259.163258 
C 187.491028 261.216 204.056771 259.904181 219.847182 255.308907 
C 235.637592 250.713632 250.320396 242.931601 262.987791 232.443955 
C 275.655186 221.95631 286.040615 208.983739 293.501974 194.328306 
C 300.963334 179.672872 305.343614 163.642967 306.371995 147.229679 
C 307.400376 130.81639 305.055216 114.3651 299.481512 98.892949 
C 293.907807 83.420799 285.222845 69.253367 273.963593 57.266588 
C 262.704341 45.27981 249.107726 35.725921 234.014393 29.195614 
C 218.92106 22.665308 202.648614 19.296 186.20314 19.296006 
L 186.203185 139.700458 
L 171.17417 259.163258 
z
" style="fill: #ff0000"/>
   </g>
   <g id="matplotlib.axis_1"/>
   <g id="matplotlib.axis_2"/>
  </g>
 </g>
</svg>
