<?xml version="1.0" encoding="utf-8" standalone="no"?>
<!DOCTYPE svg PUBLIC "-//W3C//DTD SVG 1.1//EN"
  "http://www.w3.org/Graphics/SVG/1.1/DTD/svg11.dtd">
<svg xmlns:xlink="http://www.w3.org/1999/xlink" width="371.52pt" height="280.512pt" viewBox="0 0 371.52 280.512" xmlns="http://www.w3.org/2000/svg" version="1.1">
 <metadata>
  <rdf:RDF xmlns:dc="http://purl.org/dc/elements/1.1/" xmlns:cc="http://creativecommons.org/ns#" xmlns:rdf="http://www.w3.org/1999/02/22-rdf-syntax-ns#">
   <cc:Work>
    <dc:type rdf:resource="http://purl.org/dc/dcmitype/StillImage"/>
    <dc:date>2022-01-14T17:15:29.542633</dc:date>
    <dc:format>image/svg+xml</dc:format>
    <dc:creator>
     <cc:Agent>
      <dc:title>Matplotlib v3.5.1, https://matplotlib.org/</dc:title>
     </cc:Agent>
    </dc:creator>
   </cc:Work>
  </rdf:RDF>
 </metadata>
 <defs>
  <style type="text/css">*{stroke-linejoin: round; stroke-linecap: butt}</style>
 </defs>
 <g id="figure_1">
  <g id="patch_1">
   <path d="M 0 280.512 
L 371.52 280.512 
L 371.52 0 
L 0 0 
L 0 280.512 
z
" style="fill: none"/>
  </g>
  <g id="axes_1">
   <g id="patch_2">
    <path d="M 186.24685 19.296004 
C 162.649125 19.296004 139.566144 26.247428 119.89272 39.278506 
C 100.219295 52.309583 84.813711 70.851812 75.607966 92.579833 
C 66.40222 114.307854 63.797928 138.273745 68.121692 161.471971 
C 72.445455 184.670197 83.508642 206.088698 99.923832 223.041402 
L 186.24685 139.455407 
L 186.24685 19.296004 
z
" style="fill: #0000ff; stroke: #000000; stroke-width: 2; stroke-linejoin: miter"/>
   </g>
   <g id="patch_3">
    <path d="M 99.923832 223.041402 
C 113.725781 237.295296 130.845696 247.911211 149.74934 253.93778 
C 168.652983 259.964349 188.75827 261.216 208.26342 257.580564 
C 227.76857 253.945127 246.072976 245.534546 261.53625 233.102554 
C 276.999524 220.670562 289.145517 204.599966 296.885738 186.33097 
C 304.62596 168.061973 307.722072 148.157118 305.896609 128.400221 
C 304.071147 108.643325 297.38032 89.642746 286.423741 73.101262 
C 275.467163 56.559779 260.582211 42.986741 243.102832 33.598525 
C 225.623454 24.210309 206.087877 19.296 186.246827 19.296004 
L 186.24685 139.455407 
L 99.923832 223.041402 
z
" style="fill: #ff0000; stroke: #000000; stroke-width: 2; stroke-linejoin: miter"/>
   </g>
   <g id="matplotlib.axis_1"/>
   <g id="matplotlib.axis_2"/>
  </g>
 </g>
</svg>
