<?xml version="1.0" encoding="utf-8" standalone="no"?>
<!DOCTYPE svg PUBLIC "-//W3C//DTD SVG 1.1//EN"
  "http://www.w3.org/Graphics/SVG/1.1/DTD/svg11.dtd">
<svg xmlns:xlink="http://www.w3.org/1999/xlink" width="371.52pt" height="280.512pt" viewBox="0 0 371.52 280.512" xmlns="http://www.w3.org/2000/svg" version="1.1">
 <metadata>
  <rdf:RDF xmlns:dc="http://purl.org/dc/elements/1.1/" xmlns:cc="http://creativecommons.org/ns#" xmlns:rdf="http://www.w3.org/1999/02/22-rdf-syntax-ns#">
   <cc:Work>
    <dc:type rdf:resource="http://purl.org/dc/dcmitype/StillImage"/>
    <dc:date>2021-11-24T20:23:16.207459</dc:date>
    <dc:format>image/svg+xml</dc:format>
    <dc:creator>
     <cc:Agent>
      <dc:title>Matplotlib v3.5.0, https://matplotlib.org/</dc:title>
     </cc:Agent>
    </dc:creator>
   </cc:Work>
  </rdf:RDF>
 </metadata>
 <defs>
  <style type="text/css">*{stroke-linejoin: round; stroke-linecap: butt}</style>
 </defs>
 <g id="figure_1">
  <g id="patch_1">
   <path d="M 0 280.512 
L 371.52 280.512 
L 371.52 0 
L 0 0 
L 0 280.512 
z
" style="fill: none"/>
  </g>
  <g id="axes_1">
   <g id="patch_2">
    <path d="M 186.378058 19.296 
C 156.390903 19.296 127.458462 30.494171 105.285163 50.682641 
C 83.111864 70.87111 69.257475 98.629732 66.453578 128.485512 
C 63.649681 158.341293 72.093515 188.194046 90.120262 212.157891 
C 108.147009 236.121736 134.488589 252.510951 163.951397 258.094177 
L 186.378058 139.748185 
L 186.378058 19.296 
z
" style="fill: #0000ff"/>
   </g>
   <g id="patch_3">
    <path d="M 163.951397 258.094177 
C 180.425328 261.216 197.371052 260.863911 213.701094 257.060506 
C 230.031137 253.2571 245.388542 246.085516 258.787764 236.005981 
C 272.186987 225.926447 283.335135 213.15929 291.516789 198.523829 
C 299.698442 183.888367 304.734759 167.704517 306.302539 151.010858 
C 307.870319 134.317199 305.935293 117.478636 300.621638 101.575767 
C 295.307983 85.672898 286.73185 71.053341 275.443603 58.65529 
C 264.155356 46.257239 250.401744 36.351702 235.06539 29.574356 
C 219.729035 22.79701 203.145175 19.296 186.378058 19.296 
L 186.378058 139.748185 
L 163.951397 258.094177 
z
" style="fill: #bf00bf"/>
   </g>
   <g id="matplotlib.axis_1"/>
   <g id="matplotlib.axis_2"/>
  </g>
 </g>
</svg>
