<?xml version="1.0" encoding="utf-8" standalone="no"?>
<!DOCTYPE svg PUBLIC "-//W3C//DTD SVG 1.1//EN"
  "http://www.w3.org/Graphics/SVG/1.1/DTD/svg11.dtd">
<svg xmlns:xlink="http://www.w3.org/1999/xlink" width="371.52pt" height="280.512pt" viewBox="0 0 371.52 280.512" xmlns="http://www.w3.org/2000/svg" version="1.1">
 <metadata>
  <rdf:RDF xmlns:dc="http://purl.org/dc/elements/1.1/" xmlns:cc="http://creativecommons.org/ns#" xmlns:rdf="http://www.w3.org/1999/02/22-rdf-syntax-ns#">
   <cc:Work>
    <dc:type rdf:resource="http://purl.org/dc/dcmitype/StillImage"/>
    <dc:date>2021-12-10T18:12:54.289847</dc:date>
    <dc:format>image/svg+xml</dc:format>
    <dc:creator>
     <cc:Agent>
      <dc:title>Matplotlib v3.5.0, https://matplotlib.org/</dc:title>
     </cc:Agent>
    </dc:creator>
   </cc:Work>
  </rdf:RDF>
 </metadata>
 <defs>
  <style type="text/css">*{stroke-linejoin: round; stroke-linecap: butt}</style>
 </defs>
 <g id="figure_1">
  <g id="patch_1">
   <path d="M 0 280.512 
L 371.52 280.512 
L 371.52 0 
L 0 0 
L 0 280.512 
z
" style="fill: none"/>
  </g>
  <g id="axes_1">
   <g id="patch_2">
    <path d="M 186.73695 19.296 
C 158.800887 19.296 131.714859 29.004968 110.140223 46.752043 
C 88.565586 64.499119 73.815283 89.20429 68.427758 116.615934 
C 63.040233 144.027578 67.343349 172.477536 80.596563 197.069729 
C 93.849776 221.661922 115.246554 240.899772 141.104627 251.472551 
L 186.73695 139.868598 
L 186.73695 19.296 
z
" style="fill: #0000ff"/>
   </g>
   <g id="patch_3">
    <path d="M 141.104627 251.472551 
C 157.584724 258.210888 175.354595 261.216 193.133979 260.271377 
C 210.913362 259.326754 228.264767 254.455641 243.938082 246.008985 
C 259.611396 237.562329 273.220953 225.747974 283.786227 211.417107 
C 294.351501 197.086239 301.612517 180.591493 305.046142 163.121261 
C 308.479767 145.651029 308.001512 127.635195 303.645832 110.371741 
C 299.290153 93.108288 291.164228 77.022009 279.853504 63.27187 
C 268.54278 49.521732 254.325576 38.446077 238.226196 30.842872 
C 222.126816 23.239667 204.541409 19.296 186.73695 19.296 
L 186.73695 139.868598 
L 141.104627 251.472551 
z
" style="fill: #ff0000"/>
   </g>
   <g id="matplotlib.axis_1"/>
   <g id="matplotlib.axis_2"/>
  </g>
 </g>
</svg>
