<?xml version="1.0" encoding="utf-8" standalone="no"?>
<!DOCTYPE svg PUBLIC "-//W3C//DTD SVG 1.1//EN"
  "http://www.w3.org/Graphics/SVG/1.1/DTD/svg11.dtd">
<svg xmlns:xlink="http://www.w3.org/1999/xlink" width="371.52pt" height="280.512pt" viewBox="0 0 371.52 280.512" xmlns="http://www.w3.org/2000/svg" version="1.1">
 <metadata>
  <rdf:RDF xmlns:dc="http://purl.org/dc/elements/1.1/" xmlns:cc="http://creativecommons.org/ns#" xmlns:rdf="http://www.w3.org/1999/02/22-rdf-syntax-ns#">
   <cc:Work>
    <dc:type rdf:resource="http://purl.org/dc/dcmitype/StillImage"/>
    <dc:date>2022-01-14T17:15:32.959437</dc:date>
    <dc:format>image/svg+xml</dc:format>
    <dc:creator>
     <cc:Agent>
      <dc:title>Matplotlib v3.5.1, https://matplotlib.org/</dc:title>
     </cc:Agent>
    </dc:creator>
   </cc:Work>
  </rdf:RDF>
 </metadata>
 <defs>
  <style type="text/css">*{stroke-linejoin: round; stroke-linecap: butt}</style>
 </defs>
 <g id="figure_1">
  <g id="patch_1">
   <path d="M 0 280.512 
L 371.52 280.512 
L 371.52 0 
L 0 0 
L 0 280.512 
z
" style="fill: none"/>
  </g>
  <g id="axes_1">
   <g id="patch_2">
    <path d="M 186.212206 19.296007 
C 160.377858 19.296007 135.218417 27.619929 114.481719 43.027812 
C 93.74502 58.435696 78.514532 80.122498 71.05904 104.857679 
C 63.603548 129.59286 64.312592 156.084036 73.08055 180.384992 
C 81.848509 204.685947 98.217267 225.526986 119.748479 239.803557 
L 186.212206 139.566281 
L 186.212206 19.296007 
z
" style="fill: #0000ff; stroke: #000000; stroke-width: 2; stroke-linejoin: miter"/>
   </g>
   <g id="patch_3">
    <path d="M 119.748479 239.803557 
C 135.384945 250.171535 153.232663 256.738302 171.860105 258.977151 
C 190.487547 261.216 209.38301 259.06543 227.030928 252.697933 
C 244.678846 246.330436 260.594425 235.920929 273.501109 222.304338 
C 286.407793 208.687747 295.951031 192.238125 301.365379 174.274861 
C 306.779727 156.311596 307.916452 137.328148 304.684379 118.847137 
C 301.452306 100.366127 293.940222 82.895235 282.750654 67.835766 
C 271.561087 52.776296 257.001418 40.541939 240.239448 32.113985 
C 223.477478 23.686031 204.973665 19.296 186.212161 19.296007 
L 186.212206 139.566281 
L 119.748479 239.803557 
z
" style="fill: #ff0000; stroke: #000000; stroke-width: 2; stroke-linejoin: miter"/>
   </g>
   <g id="matplotlib.axis_1"/>
   <g id="matplotlib.axis_2"/>
  </g>
 </g>
</svg>
