<?xml version="1.0" encoding="utf-8" standalone="no"?>
<!DOCTYPE svg PUBLIC "-//W3C//DTD SVG 1.1//EN"
  "http://www.w3.org/Graphics/SVG/1.1/DTD/svg11.dtd">
<svg xmlns:xlink="http://www.w3.org/1999/xlink" width="371.52pt" height="280.512pt" viewBox="0 0 371.52 280.512" xmlns="http://www.w3.org/2000/svg" version="1.1">
 <metadata>
  <rdf:RDF xmlns:dc="http://purl.org/dc/elements/1.1/" xmlns:cc="http://creativecommons.org/ns#" xmlns:rdf="http://www.w3.org/1999/02/22-rdf-syntax-ns#">
   <cc:Work>
    <dc:type rdf:resource="http://purl.org/dc/dcmitype/StillImage"/>
    <dc:date>2021-12-10T18:12:56.473722</dc:date>
    <dc:format>image/svg+xml</dc:format>
    <dc:creator>
     <cc:Agent>
      <dc:title>Matplotlib v3.5.0, https://matplotlib.org/</dc:title>
     </cc:Agent>
    </dc:creator>
   </cc:Work>
  </rdf:RDF>
 </metadata>
 <defs>
  <style type="text/css">*{stroke-linejoin: round; stroke-linecap: butt}</style>
 </defs>
 <g id="figure_1">
  <g id="patch_1">
   <path d="M 0 280.512 
L 371.52 280.512 
L 371.52 0 
L 0 0 
L 0 280.512 
z
" style="fill: none"/>
  </g>
  <g id="axes_1">
   <g id="patch_2">
    <path d="M 186.628864 19.296003 
C 157.908037 19.296003 130.114794 29.577219 108.308111 48.268246 
C 86.501429 66.959272 72.089867 92.852798 67.696646 121.235636 
C 63.303426 149.618474 69.212317 178.657289 84.347772 203.066383 
C 99.483228 227.475477 122.867603 245.678191 150.24443 254.361233 
L 186.628864 139.64449 
L 186.628864 19.296003 
z
" style="fill: #0000ff"/>
   </g>
   <g id="patch_3">
    <path d="M 150.24443 254.361233 
C 166.792421 259.609719 184.281801 261.216 201.508968 259.069532 
C 218.736135 256.923064 235.296625 251.074243 250.050762 241.925578 
C 264.804899 232.776914 277.40628 220.543201 286.987692 206.066352 
C 296.569104 191.589503 302.905591 175.209409 305.561083 158.053332 
C 308.216574 140.897255 307.128724 123.36799 302.372397 106.671884 
C 297.61607 89.975778 289.302936 74.504826 278.005097 61.323724 
C 266.707257 48.142623 252.689967 37.56084 236.917881 30.306606 
C 221.145796 23.052371 203.989216 19.296 186.628841 19.296003 
L 186.628864 139.64449 
L 150.24443 254.361233 
z
" style="fill: #ff0000"/>
   </g>
   <g id="matplotlib.axis_1"/>
   <g id="matplotlib.axis_2"/>
  </g>
 </g>
</svg>
