<?xml version="1.0" encoding="utf-8" standalone="no"?>
<!DOCTYPE svg PUBLIC "-//W3C//DTD SVG 1.1//EN"
  "http://www.w3.org/Graphics/SVG/1.1/DTD/svg11.dtd">
<svg xmlns:xlink="http://www.w3.org/1999/xlink" width="371.52pt" height="280.512pt" viewBox="0 0 371.52 280.512" xmlns="http://www.w3.org/2000/svg" version="1.1">
 <metadata>
  <rdf:RDF xmlns:dc="http://purl.org/dc/elements/1.1/" xmlns:cc="http://creativecommons.org/ns#" xmlns:rdf="http://www.w3.org/1999/02/22-rdf-syntax-ns#">
   <cc:Work>
    <dc:type rdf:resource="http://purl.org/dc/dcmitype/StillImage"/>
    <dc:date>2022-01-14T17:15:40.772410</dc:date>
    <dc:format>image/svg+xml</dc:format>
    <dc:creator>
     <cc:Agent>
      <dc:title>Matplotlib v3.5.1, https://matplotlib.org/</dc:title>
     </cc:Agent>
    </dc:creator>
   </cc:Work>
  </rdf:RDF>
 </metadata>
 <defs>
  <style type="text/css">*{stroke-linejoin: round; stroke-linecap: butt}</style>
 </defs>
 <g id="figure_1">
  <g id="patch_1">
   <path d="M 0 280.512 
L 371.52 280.512 
L 371.52 0 
L 0 0 
L 0 280.512 
z
" style="fill: none"/>
  </g>
  <g id="axes_1">
   <g id="patch_2">
    <path d="M 186.772647 19.296 
C 159.197032 19.296 132.435616 28.737675 110.965 46.041638 
C 89.494383 63.345602 74.582451 87.490019 68.723643 114.436056 
C 62.864836 141.382092 66.405128 169.538529 78.752306 194.195409 
C 91.099484 218.852289 111.524421 238.553571 136.610472 250.003662 
L 186.772647 140.103147 
L 186.772647 19.296 
z
" style="fill: #0000ff; stroke: #000000; stroke-width: 2; stroke-linejoin: miter"/>
   </g>
   <g id="patch_3">
    <path d="M 136.610472 250.003662 
C 153.024687 257.495644 170.910741 261.216 188.950985 260.890654 
C 206.991229 260.565308 224.731507 256.20245 240.864908 248.123489 
C 256.99831 240.044527 271.118682 228.452847 282.185792 214.202396 
C 293.252901 199.951945 300.988136 183.401473 304.82165 165.770239 
C 308.655164 148.139005 308.49045 129.870867 304.339641 112.311624 
C 300.188832 94.75238 292.156423 78.344077 280.834156 64.2955 
C 269.511889 50.246923 255.184796 38.91174 238.908341 31.125002 
C 222.631887 23.338264 204.815824 19.296 186.772647 19.296 
L 186.772647 140.103147 
L 136.610472 250.003662 
z
" style="fill: #ff0000; stroke: #000000; stroke-width: 2; stroke-linejoin: miter"/>
   </g>
   <g id="matplotlib.axis_1"/>
   <g id="matplotlib.axis_2"/>
  </g>
 </g>
</svg>
