<?xml version="1.0" encoding="utf-8" standalone="no"?>
<!DOCTYPE svg PUBLIC "-//W3C//DTD SVG 1.1//EN"
  "http://www.w3.org/Graphics/SVG/1.1/DTD/svg11.dtd">
<svg xmlns:xlink="http://www.w3.org/1999/xlink" width="371.52pt" height="280.512pt" viewBox="0 0 371.52 280.512" xmlns="http://www.w3.org/2000/svg" version="1.1">
 <metadata>
  <rdf:RDF xmlns:dc="http://purl.org/dc/elements/1.1/" xmlns:cc="http://creativecommons.org/ns#" xmlns:rdf="http://www.w3.org/1999/02/22-rdf-syntax-ns#">
   <cc:Work>
    <dc:type rdf:resource="http://purl.org/dc/dcmitype/StillImage"/>
    <dc:date>2021-12-10T18:12:58.645690</dc:date>
    <dc:format>image/svg+xml</dc:format>
    <dc:creator>
     <cc:Agent>
      <dc:title>Matplotlib v3.5.0, https://matplotlib.org/</dc:title>
     </cc:Agent>
    </dc:creator>
   </cc:Work>
  </rdf:RDF>
 </metadata>
 <defs>
  <style type="text/css">*{stroke-linejoin: round; stroke-linecap: butt}</style>
 </defs>
 <g id="figure_1">
  <g id="patch_1">
   <path d="M 0 280.512 
L 371.52 280.512 
L 371.52 0 
L 0 0 
L 0 280.512 
z
" style="fill: none"/>
  </g>
  <g id="axes_1">
   <g id="patch_2">
    <path d="M 186.343439 19.296003 
C 160.206107 19.296003 134.766921 27.810897 113.896124 43.545254 
C 93.025327 59.279611 77.837866 81.392879 70.644317 106.520812 
C 63.450768 131.648745 64.635419 158.448972 74.018043 182.844187 
C 83.400667 207.239403 100.480029 227.926378 122.657726 241.75786 
L 186.343439 139.642809 
L 186.343439 19.296003 
z
" style="fill: #0000ff"/>
   </g>
   <g id="patch_3">
    <path d="M 122.657726 241.75786 
C 138.466973 251.617554 156.352037 257.672532 174.899457 259.444266 
C 193.446878 261.216 212.154831 258.656555 229.544822 251.968204 
C 246.934814 245.279852 262.536336 234.643557 275.116396 220.899907 
C 287.696456 207.156256 296.914686 190.677102 302.042565 172.764796 
C 307.170444 154.852491 308.069232 135.991673 304.667898 117.672918 
C 301.266564 99.354164 293.657134 82.073109 282.440985 67.19548 
C 271.224835 52.317852 256.705432 40.246182 240.030248 31.934498 
C 223.355064 23.622815 204.975267 19.296 186.343417 19.296003 
L 186.343439 139.642809 
L 122.657726 241.75786 
z
" style="fill: #ff0000"/>
   </g>
   <g id="matplotlib.axis_1"/>
   <g id="matplotlib.axis_2"/>
  </g>
 </g>
</svg>
