<?xml version="1.0" encoding="utf-8" standalone="no"?>
<!DOCTYPE svg PUBLIC "-//W3C//DTD SVG 1.1//EN"
  "http://www.w3.org/Graphics/SVG/1.1/DTD/svg11.dtd">
<svg xmlns:xlink="http://www.w3.org/1999/xlink" width="371.52pt" height="280.512pt" viewBox="0 0 371.52 280.512" xmlns="http://www.w3.org/2000/svg" version="1.1">
 <metadata>
  <rdf:RDF xmlns:dc="http://purl.org/dc/elements/1.1/" xmlns:cc="http://creativecommons.org/ns#" xmlns:rdf="http://www.w3.org/1999/02/22-rdf-syntax-ns#">
   <cc:Work>
    <dc:type rdf:resource="http://purl.org/dc/dcmitype/StillImage"/>
    <dc:date>2021-11-24T20:23:22.521691</dc:date>
    <dc:format>image/svg+xml</dc:format>
    <dc:creator>
     <cc:Agent>
      <dc:title>Matplotlib v3.5.0, https://matplotlib.org/</dc:title>
     </cc:Agent>
    </dc:creator>
   </cc:Work>
  </rdf:RDF>
 </metadata>
 <defs>
  <style type="text/css">*{stroke-linejoin: round; stroke-linecap: butt}</style>
 </defs>
 <g id="figure_1">
  <g id="patch_1">
   <path d="M 0 280.512 
L 371.52 280.512 
L 371.52 0 
L 0 0 
L 0 280.512 
z
" style="fill: none"/>
  </g>
  <g id="axes_1">
   <g id="patch_2">
    <path d="M 186.600979 19.296 
C 157.711163 19.296 129.765568 29.698975 107.908111 48.590059 
C 86.050655 67.481143 71.710094 93.625483 67.526082 122.210716 
C 63.34207 150.795948 69.588103 179.953541 85.11448 204.316486 
C 100.640857 228.679431 124.432665 246.655194 152.110569 254.934995 
L 186.600979 139.639673 
L 186.600979 19.296 
z
" style="fill: #0000ff"/>
   </g>
   <g id="patch_3">
    <path d="M 152.110569 254.934995 
C 168.662056 259.886345 186.087316 261.216 203.198435 258.833314 
C 220.309554 256.450628 236.708658 250.411003 251.277788 241.126174 
C 265.846917 231.841345 278.247306 219.527206 287.633594 205.023235 
C 297.019883 190.519264 303.173818 174.162713 305.675874 157.068641 
C 308.17793 139.974569 306.969928 122.540453 302.13422 105.954811 
C 297.298511 89.36917 288.947539 74.017658 277.650604 60.946818 
C 266.353669 47.875978 252.373452 37.389739 236.663013 30.202968 
C 220.952573 23.016197 203.877216 19.296003 186.601001 19.296 
L 186.600979 139.639673 
L 152.110569 254.934995 
z
" style="fill: #bf00bf"/>
   </g>
   <g id="matplotlib.axis_1"/>
   <g id="matplotlib.axis_2"/>
  </g>
 </g>
</svg>
