<?xml version="1.0" encoding="utf-8" standalone="no"?>
<!DOCTYPE svg PUBLIC "-//W3C//DTD SVG 1.1//EN"
  "http://www.w3.org/Graphics/SVG/1.1/DTD/svg11.dtd">
<svg xmlns:xlink="http://www.w3.org/1999/xlink" width="267.41115pt" height="265.77882pt" viewBox="0 0 267.41115 265.77882" xmlns="http://www.w3.org/2000/svg" version="1.1">
 <metadata>
  <rdf:RDF xmlns:dc="http://purl.org/dc/elements/1.1/" xmlns:cc="http://creativecommons.org/ns#" xmlns:rdf="http://www.w3.org/1999/02/22-rdf-syntax-ns#">
   <cc:Work>
    <dc:type rdf:resource="http://purl.org/dc/dcmitype/StillImage"/>
    <dc:date>2021-12-14T09:20:47.502872</dc:date>
    <dc:format>image/svg+xml</dc:format>
    <dc:creator>
     <cc:Agent>
      <dc:title>Matplotlib v3.5.0, https://matplotlib.org/</dc:title>
     </cc:Agent>
    </dc:creator>
   </cc:Work>
  </rdf:RDF>
 </metadata>
 <defs>
  <style type="text/css">*{stroke-linejoin: round; stroke-linecap: butt}</style>
 </defs>
 <g id="figure_1">
  <g id="patch_1">
   <path d="M 0 265.77882 
L 267.41115 265.77882 
L 267.41115 0 
L 0 0 
L 0 265.77882 
z
" style="fill: none"/>
  </g>
  <g id="axes_1">
   <g id="patch_2">
    <path d="M 134.6074 18.62631 
C 108.041177 18.62631 82.295451 27.927746 61.863596 44.907248 
C 41.431742 61.88675 27.575831 85.495496 22.714124 111.613076 
C 17.852416 137.730655 22.285218 164.743789 35.238877 187.937902 
C 48.192537 211.132016 68.866907 229.074411 93.653712 238.63362 
L 134.6074 132.441667 
L 134.6074 18.62631 
z
" style="fill: #0000ff"/>
   </g>
   <g id="patch_3">
    <path d="M 93.653712 238.63362 
C 109.244839 244.646449 125.970549 247.15251 142.639285 245.973267 
C 159.308021 244.794023 175.514321 239.958161 190.103631 231.810192 
C 204.692941 223.662222 217.31038 212.400342 227.05707 198.82686 
C 236.803759 185.253378 243.442614 169.698465 246.500674 153.270268 
C 249.558734 136.842072 248.961613 119.940203 244.751852 103.768769 
C 240.54209 87.597335 232.822089 72.549701 222.141829 59.697875 
C 211.461568 46.84605 198.080843 36.502651 182.95291 29.404552 
C 167.824977 22.306453 151.317818 18.626313 134.607421 18.62631 
L 134.6074 132.441667 
L 93.653712 238.63362 
z
" style="fill: #ff0000"/>
   </g>
   <g id="matplotlib.axis_1"/>
   <g id="matplotlib.axis_2"/>
  </g>
 </g>
</svg>
