<?xml version="1.0" encoding="utf-8" standalone="no"?>
<!DOCTYPE svg PUBLIC "-//W3C//DTD SVG 1.1//EN"
  "http://www.w3.org/Graphics/SVG/1.1/DTD/svg11.dtd">
<svg xmlns:xlink="http://www.w3.org/1999/xlink" width="33.5952pt" height="33.47136pt" viewBox="0 0 33.5952 33.47136" xmlns="http://www.w3.org/2000/svg" version="1.1">
 <metadata>
  <rdf:RDF xmlns:dc="http://purl.org/dc/elements/1.1/" xmlns:cc="http://creativecommons.org/ns#" xmlns:rdf="http://www.w3.org/1999/02/22-rdf-syntax-ns#">
   <cc:Work>
    <dc:type rdf:resource="http://purl.org/dc/dcmitype/StillImage"/>
    <dc:date>2022-01-14T17:05:44.874988</dc:date>
    <dc:format>image/svg+xml</dc:format>
    <dc:creator>
     <cc:Agent>
      <dc:title>Matplotlib v3.5.1, https://matplotlib.org/</dc:title>
     </cc:Agent>
    </dc:creator>
   </cc:Work>
  </rdf:RDF>
 </metadata>
 <defs>
  <style type="text/css">*{stroke-linejoin: round; stroke-linecap: butt}</style>
 </defs>
 <g id="figure_1">
  <g id="patch_1">
   <path d="M -0 33.47136 
L 33.5952 33.47136 
L 33.5952 0 
L -0 0 
L -0 33.47136 
z
" style="fill: none"/>
  </g>
  <g id="axes_1">
   <g id="patch_2">
    <path d="M 16.837912 8.06688 
C 14.976172 8.06688 13.164003 8.675123 11.676271 9.799352 
C 10.188538 10.923581 9.104467 12.503929 8.588488 14.300691 
C 8.072509 16.097453 8.152098 18.014948 8.815184 19.762335 
C 9.478269 21.509721 10.689541 22.993948 12.265275 23.989889 
L 16.837912 16.690801 
L 16.837912 8.06688 
z
" style="fill: #0000ff; stroke: #000000; stroke-linejoin: miter"/>
   </g>
   <g id="patch_3">
    <path d="M 12.265275 23.989889 
C 13.391534 24.70174 14.667284 25.140943 15.991485 25.272711 
C 17.315686 25.40448 18.652431 25.225242 19.895853 24.749193 
C 21.139274 24.273144 22.255655 23.513193 23.156578 22.529526 
C 24.057502 21.545859 24.718539 20.36515 25.087337 19.08091 
C 25.456134 17.79667 25.522691 16.443722 25.281737 15.129219 
C 25.040782 13.814715 24.49885 12.5743 23.698861 11.506213 
C 22.898872 10.438126 21.862517 9.571328 20.671877 8.974471 
C 19.481236 8.377614 18.168594 8.06688 16.837911 8.06688 
L 16.837912 16.690801 
L 12.265275 23.989889 
z
" style="fill: #ff0000; stroke: #000000; stroke-linejoin: miter"/>
   </g>
   <g id="matplotlib.axis_1"/>
   <g id="matplotlib.axis_2"/>
  </g>
 </g>
</svg>
