<?xml version="1.0" encoding="utf-8" standalone="no"?>
<!DOCTYPE svg PUBLIC "-//W3C//DTD SVG 1.1//EN"
  "http://www.w3.org/Graphics/SVG/1.1/DTD/svg11.dtd">
<svg xmlns:xlink="http://www.w3.org/1999/xlink" width="371.52pt" height="280.512pt" viewBox="0 0 371.52 280.512" xmlns="http://www.w3.org/2000/svg" version="1.1">
 <metadata>
  <rdf:RDF xmlns:dc="http://purl.org/dc/elements/1.1/" xmlns:cc="http://creativecommons.org/ns#" xmlns:rdf="http://www.w3.org/1999/02/22-rdf-syntax-ns#">
   <cc:Work>
    <dc:type rdf:resource="http://purl.org/dc/dcmitype/StillImage"/>
    <dc:date>2021-12-03T16:09:58.205628</dc:date>
    <dc:format>image/svg+xml</dc:format>
    <dc:creator>
     <cc:Agent>
      <dc:title>Matplotlib v3.5.0, https://matplotlib.org/</dc:title>
     </cc:Agent>
    </dc:creator>
   </cc:Work>
  </rdf:RDF>
 </metadata>
 <defs>
  <style type="text/css">*{stroke-linejoin: round; stroke-linecap: butt}</style>
 </defs>
 <g id="figure_1">
  <g id="patch_1">
   <path d="M 0 280.512 
L 371.52 280.512 
L 371.52 0 
L 0 0 
L 0 280.512 
z
" style="fill: none"/>
  </g>
  <g id="axes_1">
   <g id="patch_2">
    <path d="M 186.324998 19.296003 
C 160.23175 19.296003 134.833258 27.783116 113.981921 43.470032 
C 93.130584 59.156948 77.936773 81.20831 70.705058 106.279406 
C 63.473343 131.350502 64.588826 158.106253 73.882313 182.488391 
C 83.175799 206.87053 100.152394 227.580664 122.237118 241.477518 
L 186.324998 139.629781 
L 186.324998 19.296003 
z
" style="fill: #0000ff"/>
   </g>
   <g id="patch_3">
    <path d="M 122.237118 241.477518 
C 138.022229 251.410328 155.902517 257.538733 174.461877 259.377366 
C 193.021237 261.216 211.756421 258.715007 229.183613 252.072464 
C 246.610806 245.429921 262.257459 234.825945 274.884368 221.100363 
C 287.511277 207.374782 296.776056 190.899772 301.94494 172.980144 
C 307.113825 155.060517 308.046657 136.182172 304.669558 117.840263 
C 301.292458 99.498355 293.696999 82.190233 282.484736 67.286691 
C 271.272473 52.383148 256.747433 40.288304 240.059989 31.96006 
C 223.372545 23.631817 204.975188 19.296 186.324975 19.296003 
L 186.324998 139.629781 
L 122.237118 241.477518 
z
" style="fill: #bf00bf"/>
   </g>
   <g id="matplotlib.axis_1"/>
   <g id="matplotlib.axis_2"/>
  </g>
 </g>
</svg>
