<?xml version="1.0" encoding="utf-8" standalone="no"?>
<!DOCTYPE svg PUBLIC "-//W3C//DTD SVG 1.1//EN"
  "http://www.w3.org/Graphics/SVG/1.1/DTD/svg11.dtd">
<svg xmlns:xlink="http://www.w3.org/1999/xlink" width="38.43585pt" height="38.28078pt" viewBox="0 0 38.43585 38.28078" xmlns="http://www.w3.org/2000/svg" version="1.1">
 <metadata>
  <rdf:RDF xmlns:dc="http://purl.org/dc/elements/1.1/" xmlns:cc="http://creativecommons.org/ns#" xmlns:rdf="http://www.w3.org/1999/02/22-rdf-syntax-ns#">
   <cc:Work>
    <dc:type rdf:resource="http://purl.org/dc/dcmitype/StillImage"/>
    <dc:date>2022-01-14T17:05:45.906854</dc:date>
    <dc:format>image/svg+xml</dc:format>
    <dc:creator>
     <cc:Agent>
      <dc:title>Matplotlib v3.5.1, https://matplotlib.org/</dc:title>
     </cc:Agent>
    </dc:creator>
   </cc:Work>
  </rdf:RDF>
 </metadata>
 <defs>
  <style type="text/css">*{stroke-linejoin: round; stroke-linecap: butt}</style>
 </defs>
 <g id="figure_1">
  <g id="patch_1">
   <path d="M 0 38.28078 
L 38.43585 38.28078 
L 38.43585 0 
L 0 0 
L 0 38.28078 
z
" style="fill: none"/>
  </g>
  <g id="axes_1">
   <g id="patch_2">
    <path d="M 19.295985 8.28549 
C 16.882012 8.28549 14.535999 9.092702 12.6331 10.578045 
C 10.730201 12.063387 9.377559 14.143227 8.791478 16.484973 
C 8.205398 18.826719 8.418877 21.29852 9.397779 23.505105 
C 10.376681 25.71169 12.065888 27.528818 14.195276 28.665907 
L 19.295985 19.113989 
L 19.295985 8.28549 
z
" style="fill: #0000ff; stroke: #000000; stroke-linejoin: miter"/>
   </g>
   <g id="patch_3">
    <path d="M 14.195276 28.665907 
C 15.647005 29.441129 17.256541 29.875287 18.901195 29.935289 
C 20.545849 29.99529 22.182742 29.67957 23.687101 29.012195 
C 25.191461 28.34482 26.524065 27.343189 27.583336 26.083652 
C 28.642606 24.824116 29.400926 23.339511 29.800492 21.743005 
C 30.200058 20.146498 30.230452 18.479712 29.889358 16.869699 
C 29.548264 15.259686 28.844575 13.748422 27.831929 12.451103 
C 26.819284 11.153785 25.524083 10.104235 24.045056 9.382457 
C 22.566028 8.660679 20.941733 8.28549 19.295985 8.28549 
L 19.295985 19.113989 
L 14.195276 28.665907 
z
" style="fill: #ff0000; stroke: #000000; stroke-linejoin: miter"/>
   </g>
   <g id="matplotlib.axis_1"/>
   <g id="matplotlib.axis_2"/>
  </g>
 </g>
</svg>
