<?xml version="1.0" encoding="utf-8" standalone="no"?>
<!DOCTYPE svg PUBLIC "-//W3C//DTD SVG 1.1//EN"
  "http://www.w3.org/Graphics/SVG/1.1/DTD/svg11.dtd">
<svg xmlns:xlink="http://www.w3.org/1999/xlink" width="371.52pt" height="280.512pt" viewBox="0 0 371.52 280.512" xmlns="http://www.w3.org/2000/svg" version="1.1">
 <metadata>
  <rdf:RDF xmlns:dc="http://purl.org/dc/elements/1.1/" xmlns:cc="http://creativecommons.org/ns#" xmlns:rdf="http://www.w3.org/1999/02/22-rdf-syntax-ns#">
   <cc:Work>
    <dc:type rdf:resource="http://purl.org/dc/dcmitype/StillImage"/>
    <dc:date>2021-12-03T16:09:59.163625</dc:date>
    <dc:format>image/svg+xml</dc:format>
    <dc:creator>
     <cc:Agent>
      <dc:title>Matplotlib v3.5.0, https://matplotlib.org/</dc:title>
     </cc:Agent>
    </dc:creator>
   </cc:Work>
  </rdf:RDF>
 </metadata>
 <defs>
  <style type="text/css">*{stroke-linejoin: round; stroke-linecap: butt}</style>
 </defs>
 <g id="figure_1">
  <g id="patch_1">
   <path d="M 0 280.512 
L 371.52 280.512 
L 371.52 0 
L 0 0 
L 0 280.512 
z
" style="fill: none"/>
  </g>
  <g id="axes_1">
   <g id="patch_2">
    <path d="M 186.629853 19.296 
C 159.730094 19.296 133.587633 28.291055 112.382955 44.842751 
C 91.178276 61.394447 76.105313 84.570838 69.574409 110.665747 
C 63.043505 136.760657 65.422382 164.304808 76.330632 188.893568 
C 87.238881 213.482328 106.062312 233.731223 129.790837 246.402218 
L 186.629853 139.961803 
L 186.629853 19.296 
z
" style="fill: #0000ff"/>
   </g>
   <g id="patch_3">
    <path d="M 129.790837 246.402218 
C 145.967973 255.040784 163.903603 259.878765 182.230564 260.547383 
C 200.557524 261.216 218.79801 257.697821 235.561619 250.261024 
C 252.325227 242.824227 267.174912 231.662696 278.978739 217.627234 
C 290.782566 203.591771 299.232795 187.048298 303.685298 169.257858 
C 308.137801 151.467418 308.476495 132.893829 304.675565 114.952886 
C 300.874634 97.011942 293.033173 80.171385 281.748905 65.714904 
C 270.464637 51.258423 256.031757 39.562917 239.550427 31.519888 
C 223.069098 23.47686 204.969006 19.296 186.629853 19.296 
L 186.629853 139.961803 
L 129.790837 246.402218 
z
" style="fill: #bf00bf"/>
   </g>
   <g id="matplotlib.axis_1"/>
   <g id="matplotlib.axis_2"/>
  </g>
 </g>
</svg>
