<?xml version="1.0" encoding="utf-8" standalone="no"?>
<!DOCTYPE svg PUBLIC "-//W3C//DTD SVG 1.1//EN"
  "http://www.w3.org/Graphics/SVG/1.1/DTD/svg11.dtd">
<svg xmlns:xlink="http://www.w3.org/1999/xlink" width="33.44175pt" height="33.3189pt" viewBox="0 0 33.44175 33.3189" xmlns="http://www.w3.org/2000/svg" version="1.1">
 <metadata>
  <rdf:RDF xmlns:dc="http://purl.org/dc/elements/1.1/" xmlns:cc="http://creativecommons.org/ns#" xmlns:rdf="http://www.w3.org/1999/02/22-rdf-syntax-ns#">
   <cc:Work>
    <dc:type rdf:resource="http://purl.org/dc/dcmitype/StillImage"/>
    <dc:date>2021-12-14T09:20:50.142944</dc:date>
    <dc:format>image/svg+xml</dc:format>
    <dc:creator>
     <cc:Agent>
      <dc:title>Matplotlib v3.5.0, https://matplotlib.org/</dc:title>
     </cc:Agent>
    </dc:creator>
   </cc:Work>
  </rdf:RDF>
 </metadata>
 <defs>
  <style type="text/css">*{stroke-linejoin: round; stroke-linecap: butt}</style>
 </defs>
 <g id="figure_1">
  <g id="patch_1">
   <path d="M 0 33.3189 
L 33.44175 33.3189 
L 33.44175 0 
L 0 0 
L 0 33.3189 
z
" style="fill: none"/>
  </g>
  <g id="axes_1">
   <g id="patch_2">
    <path d="M 16.771527 8.05995 
C 14.679349 8.05995 12.658689 8.833887 11.09747 10.233183 
C 9.536252 11.632479 8.54121 13.561466 8.303372 15.649823 
C 8.065534 17.738179 8.60116 19.843128 9.807421 21.560567 
C 11.013683 23.278005 12.808111 24.490515 14.846214 24.965322 
L 16.771527 16.623301 
L 16.771527 8.05995 
z
" style="fill: #0000ff"/>
   </g>
   <g id="patch_3">
    <path d="M 14.846214 24.965322 
C 16.016208 25.23789 17.230441 25.25895 18.409102 25.027117 
C 19.587763 24.795285 20.70445 24.315753 21.685764 23.620042 
C 22.667079 22.92433 23.491039 22.028022 24.103486 20.990032 
C 24.715934 19.952042 25.10315 18.795621 25.239683 17.596778 
C 25.376216 16.397936 25.259008 15.183528 24.895763 14.033374 
C 24.532518 12.883221 23.931372 11.823087 23.131839 10.922654 
C 22.332306 10.02222 21.352294 9.301657 20.25622 8.808327 
C 19.160146 8.314997 17.972562 8.05995 16.771526 8.05995 
L 16.771527 16.623301 
L 14.846214 24.965322 
z
" style="fill: #ff0000"/>
   </g>
   <g id="matplotlib.axis_1"/>
   <g id="matplotlib.axis_2"/>
  </g>
 </g>
</svg>
