<?xml version="1.0" encoding="utf-8" standalone="no"?>
<!DOCTYPE svg PUBLIC "-//W3C//DTD SVG 1.1//EN"
  "http://www.w3.org/Graphics/SVG/1.1/DTD/svg11.dtd">
<svg xmlns:xlink="http://www.w3.org/1999/xlink" width="77.46795pt" height="77.06106pt" viewBox="0 0 77.46795 77.06106" xmlns="http://www.w3.org/2000/svg" version="1.1">
 <metadata>
  <rdf:RDF xmlns:dc="http://purl.org/dc/elements/1.1/" xmlns:cc="http://creativecommons.org/ns#" xmlns:rdf="http://www.w3.org/1999/02/22-rdf-syntax-ns#">
   <cc:Work>
    <dc:type rdf:resource="http://purl.org/dc/dcmitype/StillImage"/>
    <dc:date>2021-12-14T09:20:51.074733</dc:date>
    <dc:format>image/svg+xml</dc:format>
    <dc:creator>
     <cc:Agent>
      <dc:title>Matplotlib v3.5.0, https://matplotlib.org/</dc:title>
     </cc:Agent>
    </dc:creator>
   </cc:Work>
  </rdf:RDF>
 </metadata>
 <defs>
  <style type="text/css">*{stroke-linejoin: round; stroke-linecap: butt}</style>
 </defs>
 <g id="figure_1">
  <g id="patch_1">
   <path d="M 0 77.06106 
L 77.46795 77.06106 
L 77.46795 0 
L 0 0 
L 0 77.06106 
z
" style="fill: none"/>
  </g>
  <g id="axes_1">
   <g id="patch_2">
    <path d="M 38.86865 10.048231 
C 31.781256 10.048231 24.946114 12.715454 19.725872 17.518167 
C 14.50563 22.320879 11.271881 28.917207 10.669303 35.992113 
C 10.066725 43.067018 12.138211 50.116887 16.470792 55.736263 
C 20.803373 61.355639 27.088641 65.144516 34.073572 66.347549 
L 38.86865 38.402854 
L 38.86865 10.048231 
z
" style="fill: #0000ff"/>
   </g>
   <g id="patch_3">
    <path d="M 34.073572 66.347549 
C 37.936263 67.01283 41.895112 66.867036 45.698626 65.919428 
C 49.50214 64.97182 53.068035 63.242898 56.169784 60.842495 
C 59.271532 58.442093 61.842032 55.422138 63.717987 51.974479 
C 65.593942 48.526819 66.73477 44.72604 67.067998 40.813592 
C 67.401225 36.901144 66.919643 32.961666 65.653845 29.245421 
C 64.388047 25.529176 62.365417 22.116558 59.714445 19.22436 
C 57.063473 16.332162 53.841509 14.022952 50.253234 12.443427 
C 46.664959 10.863901 42.787999 10.04823 38.868645 10.048231 
L 38.86865 38.402854 
L 34.073572 66.347549 
z
" style="fill: #ff0000"/>
   </g>
   <g id="matplotlib.axis_1"/>
   <g id="matplotlib.axis_2"/>
  </g>
 </g>
</svg>
