<?xml version="1.0" encoding="utf-8" standalone="no"?>
<!DOCTYPE svg PUBLIC "-//W3C//DTD SVG 1.1//EN"
  "http://www.w3.org/Graphics/SVG/1.1/DTD/svg11.dtd">
<svg xmlns:xlink="http://www.w3.org/1999/xlink" width="24.165pt" height="24.102pt" viewBox="0 0 24.165 24.102" xmlns="http://www.w3.org/2000/svg" version="1.1">
 <metadata>
  <rdf:RDF xmlns:dc="http://purl.org/dc/elements/1.1/" xmlns:cc="http://creativecommons.org/ns#" xmlns:rdf="http://www.w3.org/1999/02/22-rdf-syntax-ns#">
   <cc:Work>
    <dc:type rdf:resource="http://purl.org/dc/dcmitype/StillImage"/>
    <dc:date>2022-01-14T17:05:48.740211</dc:date>
    <dc:format>image/svg+xml</dc:format>
    <dc:creator>
     <cc:Agent>
      <dc:title>Matplotlib v3.5.1, https://matplotlib.org/</dc:title>
     </cc:Agent>
    </dc:creator>
   </cc:Work>
  </rdf:RDF>
 </metadata>
 <defs>
  <style type="text/css">*{stroke-linejoin: round; stroke-linecap: butt}</style>
 </defs>
 <g id="figure_1">
  <g id="patch_1">
   <path d="M -0 24.102 
L 24.165 24.102 
L 24.165 -0 
L -0 -0 
L -0 24.102 
z
" style="fill: none"/>
  </g>
  <g id="axes_1">
   <g id="patch_2">
    <path d="M 12.099737 7.641 
C 11.22715 7.641 10.374242 7.903156 9.651444 8.393524 
C 8.928645 8.883892 8.368558 9.580356 8.043699 10.392739 
C 7.718841 11.205122 7.643864 12.096783 7.828475 12.952274 
C 8.013087 13.807764 8.448961 14.588498 9.079663 15.193388 
L 12.099737 12.0248 
L 12.099737 7.641 
z
" style="fill: #0000ff; stroke: #000000; stroke-linejoin: miter"/>
   </g>
   <g id="patch_3">
    <path d="M 9.079663 15.193388 
C 9.596095 15.688686 10.225822 16.049465 10.91349 16.244011 
C 11.601159 16.438558 12.326011 16.461 13.02433 16.309365 
C 13.72265 16.15773 14.373359 15.836594 14.919259 15.374187 
C 15.465159 14.91178 15.889772 14.322059 16.155774 13.656861 
C 16.421775 12.991664 16.521136 12.271068 16.445123 11.558417 
C 16.369109 10.845765 16.120016 10.162569 15.719738 9.568882 
C 15.31946 8.975195 14.78008 8.488937 14.149011 8.152853 
C 13.517941 7.816768 12.814231 7.641 12.099737 7.641 
L 12.099737 12.0248 
L 9.079663 15.193388 
z
" style="fill: #ff0000; stroke: #000000; stroke-linejoin: miter"/>
   </g>
   <g id="matplotlib.axis_1"/>
   <g id="matplotlib.axis_2"/>
  </g>
 </g>
</svg>
