<?xml version="1.0" encoding="utf-8" standalone="no"?>
<!DOCTYPE svg PUBLIC "-//W3C//DTD SVG 1.1//EN"
  "http://www.w3.org/Graphics/SVG/1.1/DTD/svg11.dtd">
<svg xmlns:xlink="http://www.w3.org/1999/xlink" width="371.52pt" height="280.512pt" viewBox="0 0 371.52 280.512" xmlns="http://www.w3.org/2000/svg" version="1.1">
 <metadata>
  <rdf:RDF xmlns:dc="http://purl.org/dc/elements/1.1/" xmlns:cc="http://creativecommons.org/ns#" xmlns:rdf="http://www.w3.org/1999/02/22-rdf-syntax-ns#">
   <cc:Work>
    <dc:type rdf:resource="http://purl.org/dc/dcmitype/StillImage"/>
    <dc:date>2021-12-03T16:10:03.876885</dc:date>
    <dc:format>image/svg+xml</dc:format>
    <dc:creator>
     <cc:Agent>
      <dc:title>Matplotlib v3.5.0, https://matplotlib.org/</dc:title>
     </cc:Agent>
    </dc:creator>
   </cc:Work>
  </rdf:RDF>
 </metadata>
 <defs>
  <style type="text/css">*{stroke-linejoin: round; stroke-linecap: butt}</style>
 </defs>
 <g id="figure_1">
  <g id="patch_1">
   <path d="M 0 280.512 
L 371.52 280.512 
L 371.52 0 
L 0 0 
L 0 280.512 
z
" style="fill: none"/>
  </g>
  <g id="axes_1">
   <g id="patch_2">
    <path d="M 186.242117 19.296 
C 162.397083 19.296 139.082828 26.391356 119.280425 39.674822 
C 99.478022 52.958289 84.069055 71.838497 75.023787 93.901335 
C 65.97852 115.964172 63.699641 140.227421 68.478536 163.588667 
C 73.257432 186.949913 84.881351 208.369134 101.864004 225.107567 
L 186.242117 139.498348 
L 186.242117 19.296 
z
" style="fill: #0000ff"/>
   </g>
   <g id="patch_3">
    <path d="M 101.864004 225.107567 
C 115.915498 238.956993 133.163012 249.136225 152.078829 254.743626 
C 170.994646 260.351027 191.003277 261.216 210.332436 257.261929 
C 229.661595 253.307857 247.723218 244.655039 262.917478 232.069906 
C 278.111737 219.484774 289.976368 203.350213 297.460446 185.095361 
C 304.944525 166.840509 307.820359 147.020744 305.833219 127.391624 
C 303.846078 107.762504 297.056419 88.921219 286.065642 72.536656 
C 275.074866 56.152093 260.217352 42.72273 242.809121 33.438089 
C 225.40089 24.153448 205.971564 19.296 186.242117 19.296 
L 186.242117 139.498348 
L 101.864004 225.107567 
z
" style="fill: #bf00bf"/>
   </g>
   <g id="matplotlib.axis_1"/>
   <g id="matplotlib.axis_2"/>
  </g>
 </g>
</svg>
