<?xml version="1.0" encoding="utf-8" standalone="no"?>
<!DOCTYPE svg PUBLIC "-//W3C//DTD SVG 1.1//EN"
  "http://www.w3.org/Graphics/SVG/1.1/DTD/svg11.dtd">
<svg xmlns:xlink="http://www.w3.org/1999/xlink" width="371.52pt" height="280.512pt" viewBox="0 0 371.52 280.512" xmlns="http://www.w3.org/2000/svg" version="1.1">
 <metadata>
  <rdf:RDF xmlns:dc="http://purl.org/dc/elements/1.1/" xmlns:cc="http://creativecommons.org/ns#" xmlns:rdf="http://www.w3.org/1999/02/22-rdf-syntax-ns#">
   <cc:Work>
    <dc:type rdf:resource="http://purl.org/dc/dcmitype/StillImage"/>
    <dc:date>2021-12-03T16:10:02.915915</dc:date>
    <dc:format>image/svg+xml</dc:format>
    <dc:creator>
     <cc:Agent>
      <dc:title>Matplotlib v3.5.0, https://matplotlib.org/</dc:title>
     </cc:Agent>
    </dc:creator>
   </cc:Work>
  </rdf:RDF>
 </metadata>
 <defs>
  <style type="text/css">*{stroke-linejoin: round; stroke-linecap: butt}</style>
 </defs>
 <g id="figure_1">
  <g id="patch_1">
   <path d="M 0 280.512 
L 371.52 280.512 
L 371.52 0 
L 0 0 
L 0 280.512 
z
" style="fill: none"/>
  </g>
  <g id="axes_1">
   <g id="patch_2">
    <path d="M 186.215682 19.296 
C 161.962422 19.296 138.266727 26.629503 118.25341 40.329421 
C 98.240092 54.029339 82.829336 73.46577 74.053398 96.075581 
C 65.27746 118.685391 63.539844 143.429015 69.069695 167.043447 
C 74.599546 190.657878 87.142609 212.057359 105.044798 228.419886 
L 186.215682 139.611075 
L 186.215682 19.296 
z
" style="fill: #0000ff"/>
   </g>
   <g id="patch_3">
    <path d="M 105.044798 228.419886 
C 119.480042 241.613639 136.916783 251.091061 155.839609 256.028477 
C 174.762435 260.965893 194.606802 261.216 213.648054 256.757062 
C 232.689306 252.298124 250.359366 243.263168 265.122546 230.437416 
C 279.885725 217.611663 291.301579 201.377756 298.377966 183.146569 
C 305.454353 164.915383 307.980156 145.230826 305.735859 125.803666 
C 303.491563 106.376507 296.544123 87.786333 285.497336 71.648802 
C 274.450549 55.511271 259.633985 42.30783 242.335337 33.185976 
C 225.03669 24.064123 205.772047 19.296 186.215682 19.296 
L 186.215682 139.611075 
L 105.044798 228.419886 
z
" style="fill: #bf00bf"/>
   </g>
   <g id="matplotlib.axis_1"/>
   <g id="matplotlib.axis_2"/>
  </g>
 </g>
</svg>
