<?xml version="1.0" encoding="utf-8" standalone="no"?>
<!DOCTYPE svg PUBLIC "-//W3C//DTD SVG 1.1//EN"
  "http://www.w3.org/Graphics/SVG/1.1/DTD/svg11.dtd">
<svg xmlns:xlink="http://www.w3.org/1999/xlink" width="58.27275pt" height="57.9897pt" viewBox="0 0 58.27275 57.9897" xmlns="http://www.w3.org/2000/svg" version="1.1">
 <metadata>
  <rdf:RDF xmlns:dc="http://purl.org/dc/elements/1.1/" xmlns:cc="http://creativecommons.org/ns#" xmlns:rdf="http://www.w3.org/1999/02/22-rdf-syntax-ns#">
   <cc:Work>
    <dc:type rdf:resource="http://purl.org/dc/dcmitype/StillImage"/>
    <dc:date>2021-12-14T09:20:53.814676</dc:date>
    <dc:format>image/svg+xml</dc:format>
    <dc:creator>
     <cc:Agent>
      <dc:title>Matplotlib v3.5.0, https://matplotlib.org/</dc:title>
     </cc:Agent>
    </dc:creator>
   </cc:Work>
  </rdf:RDF>
 </metadata>
 <defs>
  <style type="text/css">*{stroke-linejoin: round; stroke-linecap: butt}</style>
 </defs>
 <g id="figure_1">
  <g id="patch_1">
   <path d="M 0 57.9897 
L 58.27275 57.9897 
L 58.27275 0 
L 0 0 
L 0 57.9897 
z
" style="fill: none"/>
  </g>
  <g id="axes_1">
   <g id="patch_2">
    <path d="M 29.215143 9.18135 
C 25.319354 9.18135 21.510283 10.343584 18.274976 12.519444 
C 15.03967 14.695303 12.52216 17.787921 11.044349 21.401859 
C 9.566538 25.015798 9.194216 28.990169 9.974989 32.816789 
C 10.755763 36.64341 12.654873 40.151923 15.42949 42.893714 
L 29.215143 28.870745 
L 29.215143 9.18135 
z
" style="fill: #0000ff"/>
   </g>
   <g id="patch_3">
    <path d="M 15.42949 42.893714 
C 17.725216 45.162278 20.543106 46.829658 23.633562 47.748162 
C 26.724019 48.666666 29.993019 48.80835 33.151007 48.160665 
C 36.308995 47.51298 39.259894 46.09563 41.742324 44.034159 
C 44.224755 41.972688 46.163192 39.329814 47.385937 36.339631 
C 48.608682 33.349448 49.078534 30.102929 48.753876 26.887638 
C 48.429218 23.672348 47.319927 20.586106 45.52426 17.90228 
C 43.728592 15.218455 41.301179 13.018697 38.457031 11.497854 
C 35.612883 9.97701 32.43853 9.18135 29.215143 9.18135 
L 29.215143 28.870745 
L 15.42949 42.893714 
z
" style="fill: #ff0000"/>
   </g>
   <g id="matplotlib.axis_1"/>
   <g id="matplotlib.axis_2"/>
  </g>
 </g>
</svg>
