<?xml version="1.0" encoding="utf-8" standalone="no"?>
<!DOCTYPE svg PUBLIC "-//W3C//DTD SVG 1.1//EN"
  "http://www.w3.org/Graphics/SVG/1.1/DTD/svg11.dtd">
<svg xmlns:xlink="http://www.w3.org/1999/xlink" width="66.1266pt" height="65.79288pt" viewBox="0 0 66.1266 65.79288" xmlns="http://www.w3.org/2000/svg" version="1.1">
 <metadata>
  <rdf:RDF xmlns:dc="http://purl.org/dc/elements/1.1/" xmlns:cc="http://creativecommons.org/ns#" xmlns:rdf="http://www.w3.org/1999/02/22-rdf-syntax-ns#">
   <cc:Work>
    <dc:type rdf:resource="http://purl.org/dc/dcmitype/StillImage"/>
    <dc:date>2022-01-14T17:05:49.682485</dc:date>
    <dc:format>image/svg+xml</dc:format>
    <dc:creator>
     <cc:Agent>
      <dc:title>Matplotlib v3.5.1, https://matplotlib.org/</dc:title>
     </cc:Agent>
    </dc:creator>
   </cc:Work>
  </rdf:RDF>
 </metadata>
 <defs>
  <style type="text/css">*{stroke-linejoin: round; stroke-linecap: butt}</style>
 </defs>
 <g id="figure_1">
  <g id="patch_1">
   <path d="M 0 65.79288 
L 66.1266 65.79288 
L 66.1266 0 
L 0 0 
L 0 65.79288 
z
" style="fill: none"/>
  </g>
  <g id="axes_1">
   <g id="patch_2">
    <path d="M 33.150962 9.53604 
C 28.485243 9.53604 23.926786 10.952323 20.076726 13.598119 
C 16.226666 16.243916 13.262023 19.997577 11.573753 24.364096 
C 9.885483 28.730616 9.551209 33.509228 10.615014 38.069766 
C 11.678818 42.630303 14.091789 46.763078 17.535721 49.92309 
L 33.150962 32.771889 
L 33.150962 9.53604 
z
" style="fill: #0000ff; stroke: #000000; stroke-linejoin: miter"/>
   </g>
   <g id="patch_3">
    <path d="M 17.535721 49.92309 
C 20.312699 52.471134 23.667091 54.301461 27.307368 55.255 
C 30.947644 56.208538 34.765203 56.25684 38.428262 55.395708 
C 42.091321 54.534575 45.490597 52.789699 48.330662 50.312726 
C 51.170727 47.835752 53.366851 44.700579 54.728171 41.179681 
C 56.08949 37.658783 56.575391 33.857203 56.143645 30.105333 
C 55.711898 26.353463 54.375385 22.763236 52.250261 19.646675 
C 50.125136 16.530114 47.274801 13.9802 43.946975 12.218542 
C 40.619149 10.456884 36.913116 9.53604 33.150962 9.53604 
L 33.150962 32.771889 
L 17.535721 49.92309 
z
" style="fill: #ff0000; stroke: #000000; stroke-linejoin: miter"/>
   </g>
   <g id="matplotlib.axis_1"/>
   <g id="matplotlib.axis_2"/>
  </g>
 </g>
</svg>
