<?xml version="1.0" encoding="utf-8" standalone="no"?>
<!DOCTYPE svg PUBLIC "-//W3C//DTD SVG 1.1//EN"
  "http://www.w3.org/Graphics/SVG/1.1/DTD/svg11.dtd">
<svg xmlns:xlink="http://www.w3.org/1999/xlink" width="371.52pt" height="280.512pt" viewBox="0 0 371.52 280.512" xmlns="http://www.w3.org/2000/svg" version="1.1">
 <metadata>
  <rdf:RDF xmlns:dc="http://purl.org/dc/elements/1.1/" xmlns:cc="http://creativecommons.org/ns#" xmlns:rdf="http://www.w3.org/1999/02/22-rdf-syntax-ns#">
   <cc:Work>
    <dc:type rdf:resource="http://purl.org/dc/dcmitype/StillImage"/>
    <dc:date>2021-12-03T16:10:04.792463</dc:date>
    <dc:format>image/svg+xml</dc:format>
    <dc:creator>
     <cc:Agent>
      <dc:title>Matplotlib v3.5.0, https://matplotlib.org/</dc:title>
     </cc:Agent>
    </dc:creator>
   </cc:Work>
  </rdf:RDF>
 </metadata>
 <defs>
  <style type="text/css">*{stroke-linejoin: round; stroke-linecap: butt}</style>
 </defs>
 <g id="figure_1">
  <g id="patch_1">
   <path d="M 0 280.512 
L 371.52 280.512 
L 371.52 0 
L 0 0 
L 0 280.512 
z
" style="fill: none"/>
  </g>
  <g id="axes_1">
   <g id="patch_2">
    <path d="M 186.520243 19.296 
C 157.181839 19.296 128.83175 30.020064 106.838416 49.437457 
C 84.845081 68.854851 70.690268 95.657358 67.054365 124.769591 
C 63.418462 153.881825 70.546432 183.342394 87.088507 207.572576 
C 103.630582 231.802757 128.472264 249.17008 156.909474 256.385828 
L 186.520243 139.689997 
L 186.520243 19.296 
z
" style="fill: #0000ff"/>
   </g>
   <g id="patch_3">
    <path d="M 156.909474 256.385828 
C 173.454624 260.584046 190.704998 261.216 207.512982 258.239647 
C 224.320966 255.263294 240.305378 248.746133 254.402821 239.121733 
C 268.500265 229.497333 280.391031 216.98396 289.284061 202.414094 
C 298.177091 187.844227 303.870704 171.54829 305.986121 154.610403 
C 308.101538 137.672516 306.590784 120.476807 301.554365 104.167255 
C 296.517947 87.857703 288.070082 72.804186 276.772783 60.00817 
C 265.475483 47.212154 251.584957 36.963834 236.025298 29.945001 
C 220.465639 22.926169 203.589719 19.296 186.520243 19.296 
L 186.520243 139.689997 
L 156.909474 256.385828 
z
" style="fill: #bf00bf"/>
   </g>
   <g id="matplotlib.axis_1"/>
   <g id="matplotlib.axis_2"/>
  </g>
 </g>
</svg>
