<?xml version="1.0" encoding="utf-8" standalone="no"?>
<!DOCTYPE svg PUBLIC "-//W3C//DTD SVG 1.1//EN"
  "http://www.w3.org/Graphics/SVG/1.1/DTD/svg11.dtd">
<svg xmlns:xlink="http://www.w3.org/1999/xlink" width="149.4918pt" height="148.62024pt" viewBox="0 0 149.4918 148.62024" xmlns="http://www.w3.org/2000/svg" version="1.1">
 <metadata>
  <rdf:RDF xmlns:dc="http://purl.org/dc/elements/1.1/" xmlns:cc="http://creativecommons.org/ns#" xmlns:rdf="http://www.w3.org/1999/02/22-rdf-syntax-ns#">
   <cc:Work>
    <dc:type rdf:resource="http://purl.org/dc/dcmitype/StillImage"/>
    <dc:date>2021-12-14T09:20:54.740735</dc:date>
    <dc:format>image/svg+xml</dc:format>
    <dc:creator>
     <cc:Agent>
      <dc:title>Matplotlib v3.5.0, https://matplotlib.org/</dc:title>
     </cc:Agent>
    </dc:creator>
   </cc:Work>
  </rdf:RDF>
 </metadata>
 <defs>
  <style type="text/css">*{stroke-linejoin: round; stroke-linecap: butt}</style>
 </defs>
 <g id="figure_1">
  <g id="patch_1">
   <path d="M 0 148.62024 
L 149.4918 148.62024 
L 149.4918 0 
L 0 0 
L 0 148.62024 
z
" style="fill: none"/>
  </g>
  <g id="axes_1">
   <g id="patch_2">
    <path d="M 75.127479 13.30092 
C 60.40202 13.30092 46.172613 18.70987 35.133773 28.503518 
C 24.094932 38.297165 16.990383 51.81568 15.16546 66.499163 
C 13.340536 81.182645 16.91819 96.04182 25.220947 108.262918 
C 33.523705 120.484016 45.992181 129.243659 60.265315 132.883102 
L 75.127479 74.024642 
L 75.127479 13.30092 
z
" style="fill: #0000ff"/>
   </g>
   <g id="patch_3">
    <path d="M 60.265315 132.883102 
C 68.569616 135.000578 77.227881 135.31932 85.664103 133.818122 
C 94.100325 132.316924 102.123182 129.029831 109.198936 124.175524 
C 116.27469 119.321217 122.242874 113.009785 126.706442 105.661109 
C 131.17001 98.312432 134.027734 90.093169 135.089499 81.550122 
C 136.151264 73.007075 135.39299 64.33399 132.865123 56.107859 
C 130.337256 47.881729 126.097125 40.289111 120.426812 33.835121 
C 114.756499 27.38113 107.7846 22.212134 99.974934 18.67201 
C 92.165269 15.131886 83.694949 13.30092 75.127479 13.30092 
L 75.127479 74.024642 
L 60.265315 132.883102 
z
" style="fill: #ff0000"/>
   </g>
   <g id="matplotlib.axis_1"/>
   <g id="matplotlib.axis_2"/>
  </g>
 </g>
</svg>
