<?xml version="1.0" encoding="utf-8" standalone="no"?>
<!DOCTYPE svg PUBLIC "-//W3C//DTD SVG 1.1//EN"
  "http://www.w3.org/Graphics/SVG/1.1/DTD/svg11.dtd">
<svg xmlns:xlink="http://www.w3.org/1999/xlink" width="371.52pt" height="280.512pt" viewBox="0 0 371.52 280.512" xmlns="http://www.w3.org/2000/svg" version="1.1">
 <metadata>
  <rdf:RDF xmlns:dc="http://purl.org/dc/elements/1.1/" xmlns:cc="http://creativecommons.org/ns#" xmlns:rdf="http://www.w3.org/1999/02/22-rdf-syntax-ns#">
   <cc:Work>
    <dc:type rdf:resource="http://purl.org/dc/dcmitype/StillImage"/>
    <dc:date>2021-12-03T16:10:13.438862</dc:date>
    <dc:format>image/svg+xml</dc:format>
    <dc:creator>
     <cc:Agent>
      <dc:title>Matplotlib v3.5.0, https://matplotlib.org/</dc:title>
     </cc:Agent>
    </dc:creator>
   </cc:Work>
  </rdf:RDF>
 </metadata>
 <defs>
  <style type="text/css">*{stroke-linejoin: round; stroke-linecap: butt}</style>
 </defs>
 <g id="figure_1">
  <g id="patch_1">
   <path d="M 0 280.512 
L 371.52 280.512 
L 371.52 0 
L 0 0 
L 0 280.512 
z
" style="fill: none"/>
  </g>
  <g id="axes_1">
   <g id="patch_2">
    <path d="M 186.399353 19.296003 
C 156.493152 19.296003 127.632697 30.43169 105.477275 50.519451 
C 83.321854 70.607212 69.420906 98.242209 66.500289 128.005456 
C 63.579672 157.768702 71.843639 187.578705 89.671697 211.589977 
C 107.499755 235.60125 133.645099 252.134563 162.980849 257.947875 
L 186.399353 139.770948 
L 186.399353 19.296003 
z
" style="fill: #0000ff"/>
   </g>
   <g id="patch_3">
    <path d="M 162.980849 257.947875 
C 179.472807 261.216 196.467718 260.995969 212.869538 257.301973 
C 229.271358 253.607976 244.719742 246.52117 258.218387 236.498601 
C 271.717032 226.476031 282.969374 213.737892 291.249723 199.105696 
C 299.530072 184.473501 304.656509 168.268717 306.298418 151.536429 
C 307.940328 134.804142 306.061637 117.911956 300.783507 101.949292 
C 295.505377 85.986627 286.943768 71.30418 275.650839 58.848858 
C 264.357909 46.393535 250.581763 36.438979 235.210858 29.627181 
C 219.839953 22.815384 203.211984 19.296 186.399331 19.296003 
L 186.399353 139.770948 
L 162.980849 257.947875 
z
" style="fill: #bf00bf"/>
   </g>
   <g id="matplotlib.axis_1"/>
   <g id="matplotlib.axis_2"/>
  </g>
 </g>
</svg>
