<?xml version="1.0" encoding="utf-8" standalone="no"?>
<!DOCTYPE svg PUBLIC "-//W3C//DTD SVG 1.1//EN"
  "http://www.w3.org/Graphics/SVG/1.1/DTD/svg11.dtd">
<svg xmlns:xlink="http://www.w3.org/1999/xlink" width="18.20835pt" height="18.18378pt" viewBox="0 0 18.20835 18.18378" xmlns="http://www.w3.org/2000/svg" version="1.1">
 <metadata>
  <rdf:RDF xmlns:dc="http://purl.org/dc/elements/1.1/" xmlns:cc="http://creativecommons.org/ns#" xmlns:rdf="http://www.w3.org/1999/02/22-rdf-syntax-ns#">
   <cc:Work>
    <dc:type rdf:resource="http://purl.org/dc/dcmitype/StillImage"/>
    <dc:date>2021-12-14T09:21:02.932570</dc:date>
    <dc:format>image/svg+xml</dc:format>
    <dc:creator>
     <cc:Agent>
      <dc:title>Matplotlib v3.5.0, https://matplotlib.org/</dc:title>
     </cc:Agent>
    </dc:creator>
   </cc:Work>
  </rdf:RDF>
 </metadata>
 <defs>
  <style type="text/css">*{stroke-linejoin: round; stroke-linecap: butt}</style>
 </defs>
 <g id="figure_1">
  <g id="patch_1">
   <path d="M 0 18.18378 
L 18.20835 18.18378 
L 18.20835 0 
L 0 0 
L 0 18.18378 
z
" style="fill: none"/>
  </g>
  <g id="axes_1">
   <g id="patch_2">
    <path d="M 9.113233 7.37199 
C 8.689518 7.37199 8.280619 7.530326 7.966718 7.815948 
C 7.652817 8.101571 7.455866 8.494506 7.414487 8.917703 
C 7.373107 9.340899 7.490192 9.76476 7.742782 10.10617 
C 7.995373 10.44758 8.365804 10.682663 8.781437 10.765321 
L 9.113233 9.084993 
L 9.113233 7.37199 
z
" style="fill: #0000ff"/>
   </g>
   <g id="patch_3">
    <path d="M 8.781437 10.765321 
C 9.015097 10.81179 9.255883 10.808661 9.488267 10.756137 
C 9.72065 10.703613 9.939525 10.602848 10.130776 10.460339 
C 10.322026 10.317831 10.481451 10.136711 10.598768 9.928659 
C 10.716085 9.720608 10.788718 9.490196 10.81198 9.252284 
C 10.835243 9.014371 10.808626 8.774186 10.733844 8.547216 
C 10.659063 8.320247 10.537761 8.111481 10.377761 7.934382 
C 10.217761 7.757283 10.022579 7.615742 9.804802 7.518886 
C 9.587025 7.422031 9.351437 7.37199 9.113233 7.37199 
L 9.113233 9.084993 
L 8.781437 10.765321 
z
" style="fill: #ff0000"/>
   </g>
   <g id="matplotlib.axis_1"/>
   <g id="matplotlib.axis_2"/>
  </g>
 </g>
</svg>
