<?xml version="1.0" encoding="utf-8" standalone="no"?>
<!DOCTYPE svg PUBLIC "-//W3C//DTD SVG 1.1//EN"
  "http://www.w3.org/Graphics/SVG/1.1/DTD/svg11.dtd">
<svg xmlns:xlink="http://www.w3.org/1999/xlink" width="124.2144pt" height="123.50592pt" viewBox="0 0 124.2144 123.50592" xmlns="http://www.w3.org/2000/svg" version="1.1">
 <metadata>
  <rdf:RDF xmlns:dc="http://purl.org/dc/elements/1.1/" xmlns:cc="http://creativecommons.org/ns#" xmlns:rdf="http://www.w3.org/1999/02/22-rdf-syntax-ns#">
   <cc:Work>
    <dc:type rdf:resource="http://purl.org/dc/dcmitype/StillImage"/>
    <dc:date>2021-12-14T09:20:55.705175</dc:date>
    <dc:format>image/svg+xml</dc:format>
    <dc:creator>
     <cc:Agent>
      <dc:title>Matplotlib v3.5.0, https://matplotlib.org/</dc:title>
     </cc:Agent>
    </dc:creator>
   </cc:Work>
  </rdf:RDF>
 </metadata>
 <defs>
  <style type="text/css">*{stroke-linejoin: round; stroke-linecap: butt}</style>
 </defs>
 <g id="figure_1">
  <g id="patch_1">
   <path d="M 0 123.50592 
L 124.2144 123.50592 
L 124.2144 0 
L 0 0 
L 0 123.50592 
z
" style="fill: none"/>
  </g>
  <g id="axes_1">
   <g id="patch_2">
    <path d="M 62.468272 12.15936 
C 50.723228 12.15936 39.355488 16.352625 30.423878 23.979708 
C 21.492267 31.606791 15.570634 42.177658 13.731452 53.777808 
C 11.89227 65.377957 14.253705 77.26209 20.388075 87.277855 
C 26.522445 97.293621 36.035622 104.797516 47.204663 108.430501 
L 62.468272 61.504939 
L 62.468272 12.15936 
z
" style="fill: #0000ff"/>
   </g>
   <g id="patch_3">
    <path d="M 47.204663 108.430501 
C 53.988247 110.637017 61.170317 111.34656 68.254529 110.510096 
C 75.33874 109.673631 82.158051 107.310883 88.241186 103.585137 
C 94.324322 99.85939 99.527845 94.858498 103.492147 88.928065 
C 107.456448 82.997632 110.088052 76.277495 111.205091 69.232075 
C 112.32213 62.186654 111.898264 54.982078 109.962788 48.116246 
C 108.027311 41.250414 104.625861 34.885218 99.993507 29.46055 
C 95.361154 24.035882 89.607125 19.679653 83.129075 16.692916 
C 76.651026 13.70618 69.601704 12.159361 62.468281 12.15936 
L 62.468272 61.504939 
L 47.204663 108.430501 
z
" style="fill: #ff0000"/>
   </g>
   <g id="matplotlib.axis_1"/>
   <g id="matplotlib.axis_2"/>
  </g>
 </g>
</svg>
