<?xml version="1.0" encoding="utf-8" standalone="no"?>
<!DOCTYPE svg PUBLIC "-//W3C//DTD SVG 1.1//EN"
  "http://www.w3.org/Graphics/SVG/1.1/DTD/svg11.dtd">
<svg xmlns:xlink="http://www.w3.org/1999/xlink" width="371.52pt" height="280.512pt" viewBox="0 0 371.52 280.512" xmlns="http://www.w3.org/2000/svg" version="1.1">
 <metadata>
  <rdf:RDF xmlns:dc="http://purl.org/dc/elements/1.1/" xmlns:cc="http://creativecommons.org/ns#" xmlns:rdf="http://www.w3.org/1999/02/22-rdf-syntax-ns#">
   <cc:Work>
    <dc:type rdf:resource="http://purl.org/dc/dcmitype/StillImage"/>
    <dc:date>2021-12-03T16:10:06.686255</dc:date>
    <dc:format>image/svg+xml</dc:format>
    <dc:creator>
     <cc:Agent>
      <dc:title>Matplotlib v3.5.0, https://matplotlib.org/</dc:title>
     </cc:Agent>
    </dc:creator>
   </cc:Work>
  </rdf:RDF>
 </metadata>
 <defs>
  <style type="text/css">*{stroke-linejoin: round; stroke-linecap: butt}</style>
 </defs>
 <g id="figure_1">
  <g id="patch_1">
   <path d="M 0 280.512 
L 371.52 280.512 
L 371.52 0 
L 0 0 
L 0 280.512 
z
" style="fill: none"/>
  </g>
  <g id="axes_1">
   <g id="patch_2">
    <path d="M 186.589457 19.296003 
C 157.632257 19.296003 129.625908 29.747401 107.748139 48.717974 
C 85.87037 67.688547 71.557955 93.932444 67.456933 122.597772 
C 63.35591 151.2631 69.735604 180.467327 85.416556 204.811262 
C 101.097508 229.155196 125.049906 247.040105 152.845503 255.159479 
L 186.589457 139.641541 
L 186.589457 19.296003 
z
" style="fill: #0000ff"/>
   </g>
   <g id="patch_3">
    <path d="M 152.845503 255.159479 
C 169.39744 259.994466 186.796843 261.216 203.861973 258.741115 
C 220.927104 256.26623 237.262668 250.152254 251.759182 240.814439 
C 266.255697 231.476623 278.577367 219.131267 287.887325 204.616846 
C 297.197283 190.102426 303.279876 173.75515 305.721983 156.685298 
C 308.16409 139.615446 306.909144 122.218421 302.042378 105.6758 
C 297.175611 89.133179 288.809758 73.828152 277.513012 60.80021 
C 266.216267 47.772268 252.250305 37.323188 236.56367 30.162655 
C 220.877036 23.002122 203.833092 19.296 186.589434 19.296003 
L 186.589457 139.641541 
L 152.845503 255.159479 
z
" style="fill: #bf00bf"/>
   </g>
   <g id="matplotlib.axis_1"/>
   <g id="matplotlib.axis_2"/>
  </g>
 </g>
</svg>
