<?xml version="1.0" encoding="utf-8" standalone="no"?>
<!DOCTYPE svg PUBLIC "-//W3C//DTD SVG 1.1//EN"
  "http://www.w3.org/Graphics/SVG/1.1/DTD/svg11.dtd">
<svg xmlns:xlink="http://www.w3.org/1999/xlink" width="48.6333pt" height="48.41244pt" viewBox="0 0 48.6333 48.41244" xmlns="http://www.w3.org/2000/svg" version="1.1">
 <metadata>
  <rdf:RDF xmlns:dc="http://purl.org/dc/elements/1.1/" xmlns:cc="http://creativecommons.org/ns#" xmlns:rdf="http://www.w3.org/1999/02/22-rdf-syntax-ns#">
   <cc:Work>
    <dc:type rdf:resource="http://purl.org/dc/dcmitype/StillImage"/>
    <dc:date>2022-01-14T17:05:53.508099</dc:date>
    <dc:format>image/svg+xml</dc:format>
    <dc:creator>
     <cc:Agent>
      <dc:title>Matplotlib v3.5.1, https://matplotlib.org/</dc:title>
     </cc:Agent>
    </dc:creator>
   </cc:Work>
  </rdf:RDF>
 </metadata>
 <defs>
  <style type="text/css">*{stroke-linejoin: round; stroke-linecap: butt}</style>
 </defs>
 <g id="figure_1">
  <g id="patch_1">
   <path d="M -0 48.41244 
L 48.6333 48.41244 
L 48.6333 0 
L -0 0 
L -0 48.41244 
z
" style="fill: none"/>
  </g>
  <g id="axes_1">
   <g id="patch_2">
    <path d="M 24.422665 8.74602 
C 20.721573 8.74602 17.142011 10.08184 14.345759 12.506516 
C 11.549507 14.931192 9.720201 18.285491 9.196039 21.949278 
C 8.671877 25.613065 9.487282 29.34573 11.491504 32.457189 
C 13.495725 35.568649 16.557141 37.854563 20.109766 38.892321 
L 24.422665 24.127684 
L 24.422665 8.74602 
z
" style="fill: #0000ff; stroke: #000000; stroke-linejoin: miter"/>
   </g>
   <g id="patch_3">
    <path d="M 20.109766 38.892321 
C 22.22531 39.510293 24.449171 39.66642 26.630308 39.350099 
C 28.811445 39.033778 30.899335 38.252335 32.752171 37.058845 
C 34.605006 35.865356 36.17987 34.287465 37.369799 32.432341 
C 38.559728 30.577216 39.337159 28.48783 39.649291 26.30609 
C 39.961423 24.124349 39.801025 21.900792 39.178991 19.786438 
C 38.556958 17.672084 37.487697 15.715911 36.043832 14.050777 
C 34.599967 12.385643 32.814942 11.05012 30.809994 10.134914 
C 28.805046 9.219709 26.626617 8.74602 24.422662 8.74602 
L 24.422665 24.127684 
L 20.109766 38.892321 
z
" style="fill: #ff0000; stroke: #000000; stroke-linejoin: miter"/>
   </g>
   <g id="matplotlib.axis_1"/>
   <g id="matplotlib.axis_2"/>
  </g>
 </g>
</svg>
