<?xml version="1.0" encoding="utf-8" standalone="no"?>
<!DOCTYPE svg PUBLIC "-//W3C//DTD SVG 1.1//EN"
  "http://www.w3.org/Graphics/SVG/1.1/DTD/svg11.dtd">
<svg xmlns:xlink="http://www.w3.org/1999/xlink" width="73.53405pt" height="73.15254pt" viewBox="0 0 73.53405 73.15254" xmlns="http://www.w3.org/2000/svg" version="1.1">
 <metadata>
  <rdf:RDF xmlns:dc="http://purl.org/dc/elements/1.1/" xmlns:cc="http://creativecommons.org/ns#" xmlns:rdf="http://www.w3.org/1999/02/22-rdf-syntax-ns#">
   <cc:Work>
    <dc:type rdf:resource="http://purl.org/dc/dcmitype/StillImage"/>
    <dc:date>2022-01-14T17:05:54.460717</dc:date>
    <dc:format>image/svg+xml</dc:format>
    <dc:creator>
     <cc:Agent>
      <dc:title>Matplotlib v3.5.1, https://matplotlib.org/</dc:title>
     </cc:Agent>
    </dc:creator>
   </cc:Work>
  </rdf:RDF>
 </metadata>
 <defs>
  <style type="text/css">*{stroke-linejoin: round; stroke-linecap: butt}</style>
 </defs>
 <g id="figure_1">
  <g id="patch_1">
   <path d="M 0 73.15254 
L 73.53405 73.15254 
L 73.53405 0 
L 0 0 
L 0 73.15254 
z
" style="fill: none"/>
  </g>
  <g id="axes_1">
   <g id="patch_2">
    <path d="M 36.835963 9.87057 
C 31.310618 9.87057 25.92144 11.604179 21.427871 14.827096 
C 16.934303 18.050014 13.557825 22.603387 11.774249 27.845557 
C 9.990674 33.087727 9.887911 38.760315 11.480442 44.06394 
C 13.072973 49.367566 16.282305 54.040822 20.656178 57.425155 
L 36.835963 36.413625 
L 36.835963 9.87057 
z
" style="fill: #0000ff; stroke: #000000; stroke-linejoin: miter"/>
   </g>
   <g id="patch_3">
    <path d="M 20.656178 57.425155 
C 23.989604 60.00443 27.889233 61.749792 32.030289 62.515881 
C 36.171346 63.28197 40.435589 63.046911 44.467877 61.830282 
C 48.500165 60.613652 52.185362 58.450191 55.216553 55.520078 
C 58.247743 52.589965 60.538375 48.976867 61.897677 44.981693 
C 63.256979 40.986519 63.646139 36.723347 63.032745 32.547228 
C 62.41935 28.371109 60.820918 24.401287 58.370569 20.968382 
C 55.92022 17.535476 52.687922 14.73751 48.942871 12.807506 
C 45.19782 10.877502 41.046952 9.87057 36.835963 9.87057 
L 36.835963 36.413625 
L 20.656178 57.425155 
z
" style="fill: #ff0000; stroke: #000000; stroke-linejoin: miter"/>
   </g>
   <g id="matplotlib.axis_1"/>
   <g id="matplotlib.axis_2"/>
  </g>
 </g>
</svg>
