<?xml version="1.0" encoding="utf-8" standalone="no"?>
<!DOCTYPE svg PUBLIC "-//W3C//DTD SVG 1.1//EN"
  "http://www.w3.org/Graphics/SVG/1.1/DTD/svg11.dtd">
<svg xmlns:xlink="http://www.w3.org/1999/xlink" width="371.52pt" height="280.512pt" viewBox="0 0 371.52 280.512" xmlns="http://www.w3.org/2000/svg" version="1.1">
 <metadata>
  <rdf:RDF xmlns:dc="http://purl.org/dc/elements/1.1/" xmlns:cc="http://creativecommons.org/ns#" xmlns:rdf="http://www.w3.org/1999/02/22-rdf-syntax-ns#">
   <cc:Work>
    <dc:type rdf:resource="http://purl.org/dc/dcmitype/StillImage"/>
    <dc:date>2021-12-03T16:10:07.650332</dc:date>
    <dc:format>image/svg+xml</dc:format>
    <dc:creator>
     <cc:Agent>
      <dc:title>Matplotlib v3.5.0, https://matplotlib.org/</dc:title>
     </cc:Agent>
    </dc:creator>
   </cc:Work>
  </rdf:RDF>
 </metadata>
 <defs>
  <style type="text/css">*{stroke-linejoin: round; stroke-linecap: butt}</style>
 </defs>
 <g id="figure_1">
  <g id="patch_1">
   <path d="M 0 280.512 
L 371.52 280.512 
L 371.52 0 
L 0 0 
L 0 280.512 
z
" style="fill: none"/>
  </g>
  <g id="axes_1">
   <g id="patch_2">
    <path d="M 186.073 19.296 
C 160.986321 19.296 136.517885 27.148155 116.115776 41.745941 
C 95.713667 56.343728 80.383474 76.967643 72.285523 100.711371 
C 64.187572 124.455099 63.720999 150.148347 70.951553 174.170431 
C 78.182108 198.192515 92.753406 219.359422 112.612066 234.688318 
L 186.073 139.519321 
L 186.073 19.296 
z
" style="fill: #0000ff"/>
   </g>
   <g id="patch_3">
    <path d="M 112.612066 234.688318 
C 127.746791 246.37081 145.452238 254.276199 164.253842 257.7461 
C 183.055445 261.216 202.416348 260.151333 220.72411 254.640767 
C 239.031872 249.130202 255.763739 239.331085 269.526226 226.059519 
C 283.288713 212.787953 293.688849 196.422892 299.860477 178.327271 
C 306.032104 160.231649 307.799001 140.922166 305.014013 122.006978 
C 302.229026 103.09179 294.971676 85.110997 283.846379 69.562097 
C 272.721083 54.013198 258.045509 41.340172 241.041887 32.59847 
C 224.038265 23.856769 205.192113 19.296 186.073 19.296 
L 186.073 139.519321 
L 112.612066 234.688318 
z
" style="fill: #bf00bf"/>
   </g>
   <g id="matplotlib.axis_1"/>
   <g id="matplotlib.axis_2"/>
  </g>
 </g>
</svg>
