<?xml version="1.0" encoding="utf-8" standalone="no"?>
<!DOCTYPE svg PUBLIC "-//W3C//DTD SVG 1.1//EN"
  "http://www.w3.org/Graphics/SVG/1.1/DTD/svg11.dtd">
<svg xmlns:xlink="http://www.w3.org/1999/xlink" width="127.953pt" height="127.2204pt" viewBox="0 0 127.953 127.2204" xmlns="http://www.w3.org/2000/svg" version="1.1">
 <metadata>
  <rdf:RDF xmlns:dc="http://purl.org/dc/elements/1.1/" xmlns:cc="http://creativecommons.org/ns#" xmlns:rdf="http://www.w3.org/1999/02/22-rdf-syntax-ns#">
   <cc:Work>
    <dc:type rdf:resource="http://purl.org/dc/dcmitype/StillImage"/>
    <dc:date>2022-01-14T17:05:55.375861</dc:date>
    <dc:format>image/svg+xml</dc:format>
    <dc:creator>
     <cc:Agent>
      <dc:title>Matplotlib v3.5.1, https://matplotlib.org/</dc:title>
     </cc:Agent>
    </dc:creator>
   </cc:Work>
  </rdf:RDF>
 </metadata>
 <defs>
  <style type="text/css">*{stroke-linejoin: round; stroke-linecap: butt}</style>
 </defs>
 <g id="figure_1">
  <g id="patch_1">
   <path d="M 0 127.2204 
L 127.953 127.2204 
L 127.953 0 
L 0 0 
L 0 127.2204 
z
" style="fill: none"/>
  </g>
  <g id="axes_1">
   <g id="patch_2">
    <path d="M 64.134864 12.328201 
C 53.282883 12.328201 42.710829 15.812162 33.974673 22.267321 
C 25.238518 28.722481 18.78896 37.815817 15.57523 48.208994 
C 12.3615 58.60217 12.549395 69.759002 16.111262 80.037452 
C 19.673129 90.315902 26.42521 99.185704 35.373749 105.34142 
L 64.134864 63.305534 
L 64.134864 12.328201 
z
" style="fill: #0000ff; stroke: #000000; stroke-linejoin: miter"/>
   </g>
   <g id="patch_3">
    <path d="M 35.373749 105.34142 
C 41.941436 109.859344 49.476959 112.767158 57.370852 113.829679 
C 65.264745 114.8922 73.298293 114.07999 80.82175 111.458739 
C 88.345208 108.837489 95.150123 104.479824 100.686122 98.73819 
C 106.22212 92.996556 110.335817 86.030033 112.6945 78.402069 
C 115.053183 70.774105 115.5915 62.696045 114.265913 54.821237 
C 112.940327 46.946428 109.787564 39.493056 105.062617 33.063942 
C 100.337671 26.634828 94.171454 21.408102 87.062684 17.806498 
C 79.953914 14.204894 72.099553 12.3282 64.134855 12.328201 
L 64.134864 63.305534 
L 35.373749 105.34142 
z
" style="fill: #ff0000; stroke: #000000; stroke-linejoin: miter"/>
   </g>
   <g id="matplotlib.axis_1"/>
   <g id="matplotlib.axis_2"/>
  </g>
 </g>
</svg>
