<?xml version="1.0" encoding="utf-8" standalone="no"?>
<!DOCTYPE svg PUBLIC "-//W3C//DTD SVG 1.1//EN"
  "http://www.w3.org/Graphics/SVG/1.1/DTD/svg11.dtd">
<svg xmlns:xlink="http://www.w3.org/1999/xlink" width="16.67385pt" height="16.65918pt" viewBox="0 0 16.67385 16.65918" xmlns="http://www.w3.org/2000/svg" version="1.1">
 <metadata>
  <rdf:RDF xmlns:dc="http://purl.org/dc/elements/1.1/" xmlns:cc="http://creativecommons.org/ns#" xmlns:rdf="http://www.w3.org/1999/02/22-rdf-syntax-ns#">
   <cc:Work>
    <dc:type rdf:resource="http://purl.org/dc/dcmitype/StillImage"/>
    <dc:date>2021-12-14T09:21:03.976716</dc:date>
    <dc:format>image/svg+xml</dc:format>
    <dc:creator>
     <cc:Agent>
      <dc:title>Matplotlib v3.5.0, https://matplotlib.org/</dc:title>
     </cc:Agent>
    </dc:creator>
   </cc:Work>
  </rdf:RDF>
 </metadata>
 <defs>
  <style type="text/css">*{stroke-linejoin: round; stroke-linecap: butt}</style>
 </defs>
 <g id="figure_1">
  <g id="patch_1">
   <path d="M 0 16.65918 
L 16.67385 16.65918 
L 16.67385 0 
L 0 0 
L 0 16.65918 
z
" style="fill: none"/>
  </g>
  <g id="axes_1">
   <g id="patch_2">
    <path d="M 8.340867 7.30269 
C 8.136722 7.30269 7.937225 7.364342 7.768447 7.479589 
C 7.599669 7.594836 7.469296 7.75843 7.394365 7.948992 
C 7.319434 8.139554 7.303357 8.348406 7.348235 8.548256 
C 7.393114 8.748106 7.496903 8.929851 7.646041 9.069743 
L 8.340867 8.323783 
L 8.340867 7.30269 
z
" style="fill: #0000ff"/>
   </g>
   <g id="patch_3">
    <path d="M 7.646041 9.069743 
C 7.767219 9.183407 7.914275 9.265632 8.074357 9.30923 
C 8.234438 9.352827 8.402741 9.35649 8.564555 9.319897 
C 8.726369 9.283305 8.876839 9.207555 9.002813 9.099269 
C 9.128787 8.990983 9.226486 8.85341 9.287369 8.698575 
C 9.348252 8.543739 9.370493 8.376287 9.352148 8.210854 
C 9.333804 8.045421 9.275423 7.886972 9.18211 7.749356 
C 9.088797 7.611739 8.963351 7.499084 8.816737 7.421238 
C 8.670122 7.343392 8.506739 7.30269 8.340867 7.30269 
L 8.340867 8.323783 
L 7.646041 9.069743 
z
" style="fill: #ff0000"/>
   </g>
   <g id="matplotlib.axis_1"/>
   <g id="matplotlib.axis_2"/>
  </g>
 </g>
</svg>
