<?xml version="1.0" encoding="utf-8" standalone="no"?>
<!DOCTYPE svg PUBLIC "-//W3C//DTD SVG 1.1//EN"
  "http://www.w3.org/Graphics/SVG/1.1/DTD/svg11.dtd">
<svg xmlns:xlink="http://www.w3.org/1999/xlink" width="43.37415pt" height="43.18722pt" viewBox="0 0 43.37415 43.18722" xmlns="http://www.w3.org/2000/svg" version="1.1">
 <metadata>
  <rdf:RDF xmlns:dc="http://purl.org/dc/elements/1.1/" xmlns:cc="http://creativecommons.org/ns#" xmlns:rdf="http://www.w3.org/1999/02/22-rdf-syntax-ns#">
   <cc:Work>
    <dc:type rdf:resource="http://purl.org/dc/dcmitype/StillImage"/>
    <dc:date>2022-01-14T17:05:56.360698</dc:date>
    <dc:format>image/svg+xml</dc:format>
    <dc:creator>
     <cc:Agent>
      <dc:title>Matplotlib v3.5.1, https://matplotlib.org/</dc:title>
     </cc:Agent>
    </dc:creator>
   </cc:Work>
  </rdf:RDF>
 </metadata>
 <defs>
  <style type="text/css">*{stroke-linejoin: round; stroke-linecap: butt}</style>
 </defs>
 <g id="figure_1">
  <g id="patch_1">
   <path d="M -0 43.18722 
L 43.37415 43.18722 
L 43.37415 0 
L -0 0 
L -0 43.18722 
z
" style="fill: none"/>
  </g>
  <g id="axes_1">
   <g id="patch_2">
    <path d="M 21.769819 8.50851 
C 18.616495 8.50851 15.569086 9.665169 13.203081 11.760057 
C 10.837075 13.854946 9.311414 16.747335 8.91421 19.891013 
C 8.517007 23.034691 9.274944 26.218474 11.044889 28.841122 
C 12.814834 31.463769 15.477888 33.349098 18.531146 34.141075 
L 21.769819 21.531424 
L 21.769819 8.50851 
z
" style="fill: #0000ff; stroke: #000000; stroke-linejoin: miter"/>
   </g>
   <g id="patch_3">
    <path d="M 18.531146 34.141075 
C 20.312313 34.603087 22.171125 34.67871 23.983626 34.3629 
C 25.796127 34.047089 27.521111 33.347026 29.043545 32.309394 
C 30.565979 31.271761 31.851253 29.92015 32.813656 28.344693 
C 33.776059 26.769236 34.393713 25.00575 34.625428 23.171835 
C 34.857143 21.33792 34.697652 19.475269 34.15759 17.708093 
C 33.617528 15.940917 32.709173 14.309393 31.493101 12.92232 
C 30.277028 11.535246 28.780883 10.424158 27.104438 9.663149 
C 25.427994 8.902139 23.609362 8.50851 21.769819 8.50851 
L 21.769819 21.531424 
L 18.531146 34.141075 
z
" style="fill: #ff0000; stroke: #000000; stroke-linejoin: miter"/>
   </g>
   <g id="matplotlib.axis_1"/>
   <g id="matplotlib.axis_2"/>
  </g>
 </g>
</svg>
