<?xml version="1.0" encoding="utf-8" standalone="no"?>
<!DOCTYPE svg PUBLIC "-//W3C//DTD SVG 1.1//EN"
  "http://www.w3.org/Graphics/SVG/1.1/DTD/svg11.dtd">
<svg xmlns:xlink="http://www.w3.org/1999/xlink" width="23.6628pt" height="23.60304pt" viewBox="0 0 23.6628 23.60304" xmlns="http://www.w3.org/2000/svg" version="1.1">
 <metadata>
  <rdf:RDF xmlns:dc="http://purl.org/dc/elements/1.1/" xmlns:cc="http://creativecommons.org/ns#" xmlns:rdf="http://www.w3.org/1999/02/22-rdf-syntax-ns#">
   <cc:Work>
    <dc:type rdf:resource="http://purl.org/dc/dcmitype/StillImage"/>
    <dc:date>2021-12-14T09:21:00.250054</dc:date>
    <dc:format>image/svg+xml</dc:format>
    <dc:creator>
     <cc:Agent>
      <dc:title>Matplotlib v3.5.0, https://matplotlib.org/</dc:title>
     </cc:Agent>
    </dc:creator>
   </cc:Work>
  </rdf:RDF>
 </metadata>
 <defs>
  <style type="text/css">*{stroke-linejoin: round; stroke-linecap: butt}</style>
 </defs>
 <g id="figure_1">
  <g id="patch_1">
   <path d="M 0 23.60304 
L 23.6628 23.60304 
L 23.6628 0 
L 0 0 
L 0 23.60304 
z
" style="fill: none"/>
  </g>
  <g id="axes_1">
   <g id="patch_2">
    <path d="M 11.860065 7.61832 
C 10.858512 7.61832 9.889853 7.979848 9.133212 8.636052 
C 8.37657 9.292256 7.881648 10.20003 7.739965 11.191511 
C 7.598282 12.182993 7.819145 13.193053 8.361712 14.034914 
C 8.90428 14.876775 9.732912 15.495137 10.69438 15.775653 
L 11.860065 11.780275 
L 11.860065 7.61832 
z
" style="fill: #0000ff"/>
   </g>
   <g id="patch_3">
    <path d="M 10.69438 15.775653 
C 11.266801 15.942662 11.868485 15.98472 12.458575 15.898971 
C 13.048664 15.813222 13.613492 15.601652 14.114704 15.278628 
C 14.615917 14.955604 15.041905 14.528606 15.363742 14.026631 
C 15.68558 13.524656 15.895813 12.959329 15.980166 12.369038 
C 16.064518 11.778748 16.021037 11.177165 15.852674 10.60514 
C 15.684312 10.033115 15.394967 9.503897 15.004288 9.053421 
C 14.613609 8.602945 14.130644 8.241645 13.588189 7.994056 
C 13.045734 7.746466 12.456351 7.61832 11.860064 7.61832 
L 11.860065 11.780275 
L 10.69438 15.775653 
z
" style="fill: #ff0000"/>
   </g>
   <g id="matplotlib.axis_1"/>
   <g id="matplotlib.axis_2"/>
  </g>
 </g>
</svg>
