<?xml version="1.0" encoding="utf-8" standalone="no"?>
<!DOCTYPE svg PUBLIC "-//W3C//DTD SVG 1.1//EN"
  "http://www.w3.org/Graphics/SVG/1.1/DTD/svg11.dtd">
<svg xmlns:xlink="http://www.w3.org/1999/xlink" width="371.52pt" height="280.512pt" viewBox="0 0 371.52 280.512" xmlns="http://www.w3.org/2000/svg" version="1.1">
 <metadata>
  <rdf:RDF xmlns:dc="http://purl.org/dc/elements/1.1/" xmlns:cc="http://creativecommons.org/ns#" xmlns:rdf="http://www.w3.org/1999/02/22-rdf-syntax-ns#">
   <cc:Work>
    <dc:type rdf:resource="http://purl.org/dc/dcmitype/StillImage"/>
    <dc:date>2021-12-03T16:10:10.570765</dc:date>
    <dc:format>image/svg+xml</dc:format>
    <dc:creator>
     <cc:Agent>
      <dc:title>Matplotlib v3.5.0, https://matplotlib.org/</dc:title>
     </cc:Agent>
    </dc:creator>
   </cc:Work>
  </rdf:RDF>
 </metadata>
 <defs>
  <style type="text/css">*{stroke-linejoin: round; stroke-linecap: butt}</style>
 </defs>
 <g id="figure_1">
  <g id="patch_1">
   <path d="M 0 280.512 
L 371.52 280.512 
L 371.52 0 
L 0 0 
L 0 280.512 
z
" style="fill: none"/>
  </g>
  <g id="axes_1">
   <g id="patch_2">
    <path d="M 186.588872 19.296003 
C 157.628286 19.296003 129.618883 29.749833 107.740093 48.724396 
C 85.861302 67.69896 71.5503 93.947853 67.453441 122.617197 
C 63.356582 151.286541 69.742982 180.4931 85.431682 204.836071 
C 101.120383 229.179041 125.080824 247.059379 152.8823 255.170696 
L 186.588872 139.64169 
L 186.588872 19.296003 
z
" style="fill: #0000ff"/>
   </g>
   <g id="patch_3">
    <path d="M 152.8823 255.170696 
C 169.434246 259.999868 186.832345 261.216 203.895169 258.736511 
C 220.957992 256.257022 237.290375 250.139336 251.783258 240.798877 
C 266.27614 231.458418 278.593875 219.111506 287.900019 204.596565 
C 297.206163 190.081625 303.285192 173.734814 305.724305 156.666172 
C 308.163418 139.59753 306.906127 122.202357 302.037809 105.661882 
C 297.169491 89.121408 288.802893 73.8187 277.506155 60.792898 
C 266.209416 47.767096 252.244163 37.31987 236.558714 30.160645 
C 220.873265 23.00142 203.830886 19.296 186.58885 19.296003 
L 186.588872 139.64169 
L 152.8823 255.170696 
z
" style="fill: #bf00bf"/>
   </g>
   <g id="matplotlib.axis_1"/>
   <g id="matplotlib.axis_2"/>
  </g>
 </g>
</svg>
