<?xml version="1.0" encoding="utf-8" standalone="no"?>
<!DOCTYPE svg PUBLIC "-//W3C//DTD SVG 1.1//EN"
  "http://www.w3.org/Graphics/SVG/1.1/DTD/svg11.dtd">
<svg xmlns:xlink="http://www.w3.org/1999/xlink" width="371.52pt" height="280.512pt" viewBox="0 0 371.52 280.512" xmlns="http://www.w3.org/2000/svg" version="1.1">
 <metadata>
  <rdf:RDF xmlns:dc="http://purl.org/dc/elements/1.1/" xmlns:cc="http://creativecommons.org/ns#" xmlns:rdf="http://www.w3.org/1999/02/22-rdf-syntax-ns#">
   <cc:Work>
    <dc:type rdf:resource="http://purl.org/dc/dcmitype/StillImage"/>
    <dc:date>2021-12-03T16:10:11.494945</dc:date>
    <dc:format>image/svg+xml</dc:format>
    <dc:creator>
     <cc:Agent>
      <dc:title>Matplotlib v3.5.0, https://matplotlib.org/</dc:title>
     </cc:Agent>
    </dc:creator>
   </cc:Work>
  </rdf:RDF>
 </metadata>
 <defs>
  <style type="text/css">*{stroke-linejoin: round; stroke-linecap: butt}</style>
 </defs>
 <g id="figure_1">
  <g id="patch_1">
   <path d="M 0 280.512 
L 371.52 280.512 
L 371.52 0 
L 0 0 
L 0 280.512 
z
" style="fill: none"/>
  </g>
  <g id="axes_1">
   <g id="patch_2">
    <path d="M 186.592304 19.296 
C 157.65163 19.296 129.660181 29.735528 107.787397 48.686621 
C 85.914613 67.637713 71.595304 93.857216 67.47395 122.502932 
C 63.352595 151.148647 69.699547 180.341474 85.342656 204.690103 
C 100.985764 229.038732 124.898874 246.945943 152.665727 255.104644 
L 186.592304 139.640887 
L 186.592304 19.296 
z
" style="fill: #0000ff"/>
   </g>
   <g id="patch_3">
    <path d="M 152.665727 255.104644 
C 169.217602 259.968061 186.623361 261.216 203.699756 258.763625 
C 220.77615 256.31125 237.127256 250.215422 251.64152 240.890534 
C 266.155785 231.565647 278.496688 219.227904 287.825291 204.716028 
C 297.153894 190.204152 303.25391 173.854608 305.710658 156.778842 
C 308.167405 139.703076 306.923923 122.296998 302.064744 105.743878 
C 297.205566 89.190759 288.843352 73.874389 277.54657 60.83598 
C 266.249787 47.797572 252.280357 37.339426 236.587925 30.172491 
C 220.895492 23.005556 203.843895 19.296 186.592304 19.296 
L 186.592304 139.640887 
L 152.665727 255.104644 
z
" style="fill: #bf00bf"/>
   </g>
   <g id="matplotlib.axis_1"/>
   <g id="matplotlib.axis_2"/>
  </g>
 </g>
</svg>
