<?xml version="1.0" encoding="utf-8" standalone="no"?>
<!DOCTYPE svg PUBLIC "-//W3C//DTD SVG 1.1//EN"
  "http://www.w3.org/Graphics/SVG/1.1/DTD/svg11.dtd">
<svg xmlns:xlink="http://www.w3.org/1999/xlink" width="57.18465pt" height="56.90862pt" viewBox="0 0 57.18465 56.90862" xmlns="http://www.w3.org/2000/svg" version="1.1">
 <metadata>
  <rdf:RDF xmlns:dc="http://purl.org/dc/elements/1.1/" xmlns:cc="http://creativecommons.org/ns#" xmlns:rdf="http://www.w3.org/1999/02/22-rdf-syntax-ns#">
   <cc:Work>
    <dc:type rdf:resource="http://purl.org/dc/dcmitype/StillImage"/>
    <dc:date>2021-12-14T09:21:01.136668</dc:date>
    <dc:format>image/svg+xml</dc:format>
    <dc:creator>
     <cc:Agent>
      <dc:title>Matplotlib v3.5.0, https://matplotlib.org/</dc:title>
     </cc:Agent>
    </dc:creator>
   </cc:Work>
  </rdf:RDF>
 </metadata>
 <defs>
  <style type="text/css">*{stroke-linejoin: round; stroke-linecap: butt}</style>
 </defs>
 <g id="figure_1">
  <g id="patch_1">
   <path d="M 0 56.90862 
L 57.18465 56.90862 
L 57.18465 0 
L 0 0 
L 0 56.90862 
z
" style="fill: none"/>
  </g>
  <g id="axes_1">
   <g id="patch_2">
    <path d="M 28.725277 9.13221 
C 24.102306 9.13221 19.630963 10.799816 16.137014 13.827056 
C 12.643065 16.854295 10.355704 21.042588 9.697361 25.618442 
C 9.039017 30.194297 10.052877 34.857547 12.5517 38.746987 
C 15.050524 42.636427 18.870394 45.496917 23.30586 46.800184 
L 28.725277 28.356052 
L 28.725277 9.13221 
z
" style="fill: #0000ff"/>
   </g>
   <g id="patch_3">
    <path d="M 23.30586 46.800184 
C 25.949849 47.577065 28.730238 47.77641 31.458014 47.384669 
C 34.18579 46.992927 36.797709 46.019182 39.116212 44.529629 
C 41.434714 43.040075 43.406045 41.069249 44.896192 38.751128 
C 46.386339 36.433007 47.360753 33.821338 47.753193 31.093662 
C 48.145633 28.365986 47.947 25.585546 47.170796 22.941358 
C 46.394593 20.29717 45.058817 17.850539 43.254273 15.767789 
C 41.44973 13.685039 39.218259 12.014459 36.711556 10.869616 
C 34.204854 9.724773 31.481039 9.13221 28.725277 9.13221 
L 28.725277 28.356052 
L 23.30586 46.800184 
z
" style="fill: #ff0000"/>
   </g>
   <g id="matplotlib.axis_1"/>
   <g id="matplotlib.axis_2"/>
  </g>
 </g>
</svg>
