<?xml version="1.0" encoding="utf-8" standalone="no"?>
<!DOCTYPE svg PUBLIC "-//W3C//DTD SVG 1.1//EN"
  "http://www.w3.org/Graphics/SVG/1.1/DTD/svg11.dtd">
<svg xmlns:xlink="http://www.w3.org/1999/xlink" width="19.71495pt" height="19.68066pt" viewBox="0 0 19.71495 19.68066" xmlns="http://www.w3.org/2000/svg" version="1.1">
 <metadata>
  <rdf:RDF xmlns:dc="http://purl.org/dc/elements/1.1/" xmlns:cc="http://creativecommons.org/ns#" xmlns:rdf="http://www.w3.org/1999/02/22-rdf-syntax-ns#">
   <cc:Work>
    <dc:type rdf:resource="http://purl.org/dc/dcmitype/StillImage"/>
    <dc:date>2022-01-14T17:05:59.155602</dc:date>
    <dc:format>image/svg+xml</dc:format>
    <dc:creator>
     <cc:Agent>
      <dc:title>Matplotlib v3.5.1, https://matplotlib.org/</dc:title>
     </cc:Agent>
    </dc:creator>
   </cc:Work>
  </rdf:RDF>
 </metadata>
 <defs>
  <style type="text/css">*{stroke-linejoin: round; stroke-linecap: butt}</style>
 </defs>
 <g id="figure_1">
  <g id="patch_1">
   <path d="M 0 19.68066 
L 19.71495 19.68066 
L 19.71495 0 
L 0 0 
L 0 19.68066 
z
" style="fill: none"/>
  </g>
  <g id="axes_1">
   <g id="patch_2">
    <path d="M 9.861857 7.44003 
C 9.236711 7.44003 8.635591 7.682924 8.187214 8.116701 
C 7.738837 8.550478 7.477667 9.141796 7.459628 9.764037 
C 7.441589 10.386278 7.668067 10.991614 8.090568 11.450425 
C 8.513068 11.909236 9.099116 12.186256 9.723221 12.222166 
L 9.861857 9.833091 
L 9.861857 7.44003 
z
" style="fill: #0000ff; stroke: #000000; stroke-linejoin: miter"/>
   </g>
   <g id="patch_3">
    <path d="M 9.723221 12.222166 
C 10.044111 12.24063 10.365484 12.194803 10.668273 12.087403 
C 10.971062 11.980004 11.249159 11.813199 11.486064 11.596885 
C 11.722969 11.380571 11.913903 11.119112 12.047538 10.82802 
C 12.181172 10.536928 12.254811 10.222077 12.264086 9.902145 
C 12.273361 9.582213 12.218085 9.263655 12.101537 8.965372 
C 11.984989 8.667088 11.80952 8.395097 11.585541 8.165534 
C 11.361562 7.935972 11.093592 7.75347 10.797529 7.628856 
C 10.501466 7.504242 10.183283 7.44003 9.861857 7.44003 
L 9.861857 9.833091 
L 9.723221 12.222166 
z
" style="fill: #ff0000; stroke: #000000; stroke-linejoin: miter"/>
   </g>
   <g id="matplotlib.axis_1"/>
   <g id="matplotlib.axis_2"/>
  </g>
 </g>
</svg>
