<?xml version="1.0" encoding="utf-8" standalone="no"?>
<!DOCTYPE svg PUBLIC "-//W3C//DTD SVG 1.1//EN"
  "http://www.w3.org/Graphics/SVG/1.1/DTD/svg11.dtd">
<svg xmlns:xlink="http://www.w3.org/1999/xlink" width="371.52pt" height="280.512pt" viewBox="0 0 371.52 280.512" xmlns="http://www.w3.org/2000/svg" version="1.1">
 <metadata>
  <rdf:RDF xmlns:dc="http://purl.org/dc/elements/1.1/" xmlns:cc="http://creativecommons.org/ns#" xmlns:rdf="http://www.w3.org/1999/02/22-rdf-syntax-ns#">
   <cc:Work>
    <dc:type rdf:resource="http://purl.org/dc/dcmitype/StillImage"/>
    <dc:date>2021-12-03T16:10:12.474065</dc:date>
    <dc:format>image/svg+xml</dc:format>
    <dc:creator>
     <cc:Agent>
      <dc:title>Matplotlib v3.5.0, https://matplotlib.org/</dc:title>
     </cc:Agent>
    </dc:creator>
   </cc:Work>
  </rdf:RDF>
 </metadata>
 <defs>
  <style type="text/css">*{stroke-linejoin: round; stroke-linecap: butt}</style>
 </defs>
 <g id="figure_1">
  <g id="patch_1">
   <path d="M 0 280.512 
L 371.52 280.512 
L 371.52 0 
L 0 0 
L 0 280.512 
z
" style="fill: none"/>
  </g>
  <g id="axes_1">
   <g id="patch_2">
    <path d="M 185.979892 19.296 
C 154.609802 19.296 124.445311 31.536321 101.945544 53.395942 
C 79.445778 75.255563 66.340133 105.05429 65.434925 136.411316 
C 64.529716 167.768343 75.89452 198.273478 97.09579 221.394652 
C 118.29706 244.515826 147.705204 258.475879 179.023053 260.285542 
L 185.979892 139.891185 
L 185.979892 19.296 
z
" style="fill: #0000ff"/>
   </g>
   <g id="patch_3">
    <path d="M 179.023053 260.285542 
C 195.125466 261.216 211.252113 258.906592 226.44622 253.494332 
C 241.640328 248.082073 255.595351 239.676155 267.483355 228.775291 
C 279.371359 217.874428 288.9525 204.698547 295.658343 190.029357 
C 302.364185 175.360167 306.059435 159.493622 306.52486 143.371066 
C 306.990284 127.248509 304.216492 111.195216 298.36805 96.16361 
C 292.519607 81.132004 283.714508 67.425351 272.475147 55.856849 
C 261.235787 44.288348 247.788922 35.091395 232.932338 28.811635 
C 218.075755 22.531875 202.109188 19.296003 185.979915 19.296 
L 185.979892 139.891185 
L 179.023053 260.285542 
z
" style="fill: #bf00bf"/>
   </g>
   <g id="matplotlib.axis_1"/>
   <g id="matplotlib.axis_2"/>
  </g>
 </g>
</svg>
