<?xml version="1.0" encoding="utf-8" standalone="no"?>
<!DOCTYPE svg PUBLIC "-//W3C//DTD SVG 1.1//EN"
  "http://www.w3.org/Graphics/SVG/1.1/DTD/svg11.dtd">
<svg xmlns:xlink="http://www.w3.org/1999/xlink" width="371.52pt" height="280.512pt" viewBox="0 0 371.52 280.512" xmlns="http://www.w3.org/2000/svg" version="1.1">
 <metadata>
  <rdf:RDF xmlns:dc="http://purl.org/dc/elements/1.1/" xmlns:cc="http://creativecommons.org/ns#" xmlns:rdf="http://www.w3.org/1999/02/22-rdf-syntax-ns#">
   <cc:Work>
    <dc:type rdf:resource="http://purl.org/dc/dcmitype/StillImage"/>
    <dc:date>2021-12-03T16:09:56.314922</dc:date>
    <dc:format>image/svg+xml</dc:format>
    <dc:creator>
     <cc:Agent>
      <dc:title>Matplotlib v3.5.0, https://matplotlib.org/</dc:title>
     </cc:Agent>
    </dc:creator>
   </cc:Work>
  </rdf:RDF>
 </metadata>
 <defs>
  <style type="text/css">*{stroke-linejoin: round; stroke-linecap: butt}</style>
 </defs>
 <g id="figure_1">
  <g id="patch_1">
   <path d="M 0 280.512 
L 371.52 280.512 
L 371.52 0 
L 0 0 
L 0 280.512 
z
" style="fill: none"/>
  </g>
  <g id="axes_1">
   <g id="patch_2">
    <path d="M 185.842943 19.296 
C 154.034254 19.296 123.478361 31.859028 100.868738 54.233068 
C 78.259116 76.607109 65.37674 107.029743 65.043581 138.836687 
C 64.710422 170.643631 76.952724 201.329431 99.088727 224.172156 
C 121.224731 247.01488 151.510768 260.215191 183.312478 260.881472 
L 185.842943 140.101989 
L 185.842943 19.296 
z
" style="fill: #0000ff"/>
   </g>
   <g id="patch_3">
    <path d="M 183.312478 260.881472 
C 199.279532 261.216 215.155567 258.380963 230.019978 252.540756 
C 244.884389 246.70055 258.444198 237.970285 269.91311 226.856205 
C 281.382022 215.742124 290.533984 202.463287 296.838301 187.789695 
C 303.142619 173.116103 306.475032 157.336973 306.642305 141.367291 
C 306.809578 125.397609 303.808414 109.552138 297.81284 94.749712 
C 291.817267 79.947285 282.945458 66.47966 271.711863 55.127784 
C 260.478269 43.775908 247.104304 34.763528 232.365487 28.613246 
C 217.626669 22.462963 201.813501 19.296 185.842943 19.296 
L 185.842943 140.101989 
L 183.312478 260.881472 
z
" style="fill: #bf00bf"/>
   </g>
   <g id="matplotlib.axis_1"/>
   <g id="matplotlib.axis_2"/>
  </g>
 </g>
</svg>
