<?xml version="1.0" encoding="utf-8" standalone="no"?>
<!DOCTYPE svg PUBLIC "-//W3C//DTD SVG 1.1//EN"
  "http://www.w3.org/Graphics/SVG/1.1/DTD/svg11.dtd">
<svg xmlns:xlink="http://www.w3.org/1999/xlink" width="656.67195pt" height="652.52826pt" viewBox="0 0 656.67195 652.52826" xmlns="http://www.w3.org/2000/svg" version="1.1">
 <metadata>
  <rdf:RDF xmlns:dc="http://purl.org/dc/elements/1.1/" xmlns:cc="http://creativecommons.org/ns#" xmlns:rdf="http://www.w3.org/1999/02/22-rdf-syntax-ns#">
   <cc:Work>
    <dc:type rdf:resource="http://purl.org/dc/dcmitype/StillImage"/>
    <dc:date>2022-01-14T17:05:43.038208</dc:date>
    <dc:format>image/svg+xml</dc:format>
    <dc:creator>
     <cc:Agent>
      <dc:title>Matplotlib v3.5.1, https://matplotlib.org/</dc:title>
     </cc:Agent>
    </dc:creator>
   </cc:Work>
  </rdf:RDF>
 </metadata>
 <defs>
  <style type="text/css">*{stroke-linejoin: round; stroke-linecap: butt}</style>
 </defs>
 <g id="figure_1">
  <g id="patch_1">
   <path d="M 0 652.52826 
L 656.67195 652.52826 
L 656.67195 0 
L 0 0 
L 0 652.52826 
z
" style="fill: none"/>
  </g>
  <g id="axes_1">
   <g id="patch_2">
    <path d="M 328.536013 34.538375 
C 251.821282 34.538375 178.127987 64.837308 123.599142 118.797987 
C 69.070296 172.758666 38.001174 246.130573 37.197677 322.841096 
C 36.39418 399.551619 65.919599 473.558218 119.306192 528.649247 
C 172.692786 583.740277 245.735255 615.57618 322.433154 617.183087 
L 328.536013 325.892693 
L 328.536013 34.538375 
z
" style="fill: #0000ff; stroke: #000000; stroke-linejoin: miter"/>
   </g>
   <g id="patch_3">
    <path d="M 322.433154 617.183087 
C 360.94176 617.989885 399.23085 611.152473 435.080152 597.067332 
C 470.929453 582.982191 503.632375 561.926941 531.292568 535.122514 
C 558.952761 508.318087 581.025043 476.292799 596.229504 440.903706 
C 611.433966 405.514612 619.470928 367.459233 619.874349 328.94429 
C 620.27777 290.429346 613.0397 252.21397 598.579852 216.51416 
C 584.120004 180.814351 562.723384 148.333752 535.630719 120.955821 
C 508.538054 93.577891 476.283341 71.842247 440.73694 57.009279 
C 405.190539 42.17631 367.053069 34.538375 328.536013 34.538375 
L 328.536013 325.892693 
L 322.433154 617.183087 
z
" style="fill: #ff0000; stroke: #000000; stroke-linejoin: miter"/>
   </g>
   <g id="matplotlib.axis_1"/>
   <g id="matplotlib.axis_2"/>
  </g>
 </g>
</svg>
