<?xml version="1.0" encoding="utf-8" standalone="no"?>
<!DOCTYPE svg PUBLIC "-//W3C//DTD SVG 1.1//EN"
  "http://www.w3.org/Graphics/SVG/1.1/DTD/svg11.dtd">
<svg xmlns:xlink="http://www.w3.org/1999/xlink" width="67.84245pt" height="67.49766pt" viewBox="0 0 67.84245 67.49766" xmlns="http://www.w3.org/2000/svg" version="1.1">
 <metadata>
  <rdf:RDF xmlns:dc="http://purl.org/dc/elements/1.1/" xmlns:cc="http://creativecommons.org/ns#" xmlns:rdf="http://www.w3.org/1999/02/22-rdf-syntax-ns#">
   <cc:Work>
    <dc:type rdf:resource="http://purl.org/dc/dcmitype/StillImage"/>
    <dc:date>2021-12-14T09:20:47.793071</dc:date>
    <dc:format>image/svg+xml</dc:format>
    <dc:creator>
     <cc:Agent>
      <dc:title>Matplotlib v3.5.0, https://matplotlib.org/</dc:title>
     </cc:Agent>
    </dc:creator>
   </cc:Work>
  </rdf:RDF>
 </metadata>
 <defs>
  <style type="text/css">*{stroke-linejoin: round; stroke-linecap: butt}</style>
 </defs>
 <g id="figure_1">
  <g id="patch_1">
   <path d="M 0 67.49766 
L 67.84245 67.49766 
L 67.84245 0 
L 0 0 
L 0 67.49766 
z
" style="fill: none"/>
  </g>
  <g id="axes_1">
   <g id="patch_2">
    <path d="M 34.108098 9.61353 
C 28.468782 9.61353 23.00553 11.598609 18.681602 15.218766 
C 14.357674 18.838923 11.443064 23.868109 10.451665 29.419597 
C 9.460265 34.971084 10.453981 40.698229 13.257604 45.591243 
C 16.061227 50.484257 20.499694 54.237612 25.790432 56.18953 
L 34.108098 33.644226 
L 34.108098 9.61353 
z
" style="fill: #0000ff"/>
   </g>
   <g id="patch_3">
    <path d="M 25.790432 56.18953 
C 29.086621 57.405597 32.609747 57.88413 36.110882 57.591317 
C 39.612017 57.298504 43.006713 56.241409 46.055116 54.49472 
C 49.103519 52.748031 51.732102 50.353879 53.755141 47.481424 
C 55.778179 44.608969 57.146879 41.327494 57.764532 37.868855 
C 58.382185 34.410215 58.233894 30.857833 57.330137 27.462703 
C 56.426381 24.067573 54.788956 20.911586 52.533558 18.21773 
C 50.278159 15.523874 47.459186 13.357124 44.275814 11.870575 
C 41.092443 10.384025 37.621456 9.61353 34.108098 9.61353 
L 34.108098 33.644226 
L 25.790432 56.18953 
z
" style="fill: #ff0000"/>
   </g>
   <g id="matplotlib.axis_1"/>
   <g id="matplotlib.axis_2"/>
  </g>
 </g>
</svg>
