<?xml version="1.0" encoding="utf-8" standalone="no"?>
<!DOCTYPE svg PUBLIC "-//W3C//DTD SVG 1.1//EN"
  "http://www.w3.org/Graphics/SVG/1.1/DTD/svg11.dtd">
<svg xmlns:xlink="http://www.w3.org/1999/xlink" width="60.50475pt" height="60.2073pt" viewBox="0 0 60.50475 60.2073" xmlns="http://www.w3.org/2000/svg" version="1.1">
 <metadata>
  <rdf:RDF xmlns:dc="http://purl.org/dc/elements/1.1/" xmlns:cc="http://creativecommons.org/ns#" xmlns:rdf="http://www.w3.org/1999/02/22-rdf-syntax-ns#">
   <cc:Work>
    <dc:type rdf:resource="http://purl.org/dc/dcmitype/StillImage"/>
    <dc:date>2021-12-14T09:20:48.671967</dc:date>
    <dc:format>image/svg+xml</dc:format>
    <dc:creator>
     <cc:Agent>
      <dc:title>Matplotlib v3.5.0, https://matplotlib.org/</dc:title>
     </cc:Agent>
    </dc:creator>
   </cc:Work>
  </rdf:RDF>
 </metadata>
 <defs>
  <style type="text/css">*{stroke-linejoin: round; stroke-linecap: butt}</style>
 </defs>
 <g id="figure_1">
  <g id="patch_1">
   <path d="M 0 60.2073 
L 60.50475 60.2073 
L 60.50475 0 
L 0 0 
L 0 60.2073 
z
" style="fill: none"/>
  </g>
  <g id="axes_1">
   <g id="patch_2">
    <path d="M 30.094417 9.28215 
C 27.076716 9.28215 24.095112 9.941256 21.358599 11.213269 
C 18.622086 12.485282 16.196131 14.33977 14.250781 16.646744 
C 12.30543 18.953719 10.887223 21.657988 10.095568 24.569998 
C 9.303914 27.482008 9.157751 30.532093 9.667325 33.50646 
C 10.176898 36.480826 11.330018 39.308315 13.045856 41.790738 
C 14.761695 44.27316 16.999202 46.351125 19.601543 47.878981 
C 22.203884 49.406837 25.1088 50.348031 28.112673 50.63659 
C 31.116546 50.92515 34.147512 50.554172 36.993118 49.54966 
L 30.094417 30.006854 
L 30.094417 9.28215 
z
" style="fill: #0000ff"/>
   </g>
   <g id="patch_3">
    <path d="M 36.993118 49.54966 
C 41.60289 47.922389 45.491478 44.715418 47.966544 40.499728 
C 50.441611 36.284038 51.346999 31.325605 50.521509 26.507248 
C 49.69602 21.688891 47.191735 17.314609 43.454527 14.163217 
C 39.717318 11.011825 34.982975 9.28215 30.094417 9.28215 
L 30.094417 30.006854 
L 36.993118 49.54966 
z
" style="fill: #ff0000"/>
   </g>
   <g id="matplotlib.axis_1"/>
   <g id="matplotlib.axis_2"/>
  </g>
 </g>
</svg>
