<?xml version="1.0" encoding="utf-8" standalone="no"?>
<!DOCTYPE svg PUBLIC "-//W3C//DTD SVG 1.1//EN"
  "http://www.w3.org/Graphics/SVG/1.1/DTD/svg11.dtd">
<svg xmlns:xlink="http://www.w3.org/1999/xlink" width="371.52pt" height="280.512pt" viewBox="0 0 371.52 280.512" xmlns="http://www.w3.org/2000/svg" version="1.1">
 <metadata>
  <rdf:RDF xmlns:dc="http://purl.org/dc/elements/1.1/" xmlns:cc="http://creativecommons.org/ns#" xmlns:rdf="http://www.w3.org/1999/02/22-rdf-syntax-ns#">
   <cc:Work>
    <dc:type rdf:resource="http://purl.org/dc/dcmitype/StillImage"/>
    <dc:date>2021-12-03T16:09:58.512532</dc:date>
    <dc:format>image/svg+xml</dc:format>
    <dc:creator>
     <cc:Agent>
      <dc:title>Matplotlib v3.5.0, https://matplotlib.org/</dc:title>
     </cc:Agent>
    </dc:creator>
   </cc:Work>
  </rdf:RDF>
 </metadata>
 <defs>
  <style type="text/css">*{stroke-linejoin: round; stroke-linecap: butt}</style>
 </defs>
 <g id="figure_1">
  <g id="patch_1">
   <path d="M 0 280.512 
L 371.52 280.512 
L 371.52 0 
L 0 0 
L 0 280.512 
z
" style="fill: none"/>
  </g>
  <g id="axes_1">
   <g id="patch_2">
    <path d="M 184.842363 19.296 
C 167.311391 19.296 149.990122 23.124998 134.092678 30.514603 
C 118.195235 37.904209 104.101943 48.677634 92.800661 62.079725 
C 81.49938 75.481815 73.260479 91.191941 68.661457 108.108914 
C 64.062435 125.025887 63.213319 142.74499 66.173626 160.024213 
C 69.133933 177.303436 75.832843 193.729397 85.800799 208.15073 
C 95.768755 222.572062 108.767287 234.643754 123.885272 243.519648 
C 139.003257 252.395543 155.879017 257.863295 173.329656 259.539648 
C 190.780296 261.216 208.388331 259.060848 224.919539 253.225254 
L 184.842363 139.693674 
L 184.842363 19.296 
z
" style="fill: #0000ff"/>
   </g>
   <g id="patch_3">
    <path d="M 224.919539 253.225254 
C 251.69945 243.771821 274.289734 225.14131 288.668337 200.650764 
C 303.046939 176.160218 308.306681 147.354802 303.511099 119.363135 
C 298.715517 91.371467 284.167175 65.959607 262.456312 47.651973 
C 240.745449 29.344338 213.241853 19.296 184.842363 19.296 
L 184.842363 139.693674 
L 224.919539 253.225254 
z
" style="fill: #bf00bf"/>
   </g>
   <g id="matplotlib.axis_1"/>
   <g id="matplotlib.axis_2"/>
  </g>
 </g>
</svg>
