<?xml version="1.0" encoding="utf-8" standalone="no"?>
<!DOCTYPE svg PUBLIC "-//W3C//DTD SVG 1.1//EN"
  "http://www.w3.org/Graphics/SVG/1.1/DTD/svg11.dtd">
<svg xmlns:xlink="http://www.w3.org/1999/xlink" width="62.17875pt" height="61.8705pt" viewBox="0 0 62.17875 61.8705" xmlns="http://www.w3.org/2000/svg" version="1.1">
 <metadata>
  <rdf:RDF xmlns:dc="http://purl.org/dc/elements/1.1/" xmlns:cc="http://creativecommons.org/ns#" xmlns:rdf="http://www.w3.org/1999/02/22-rdf-syntax-ns#">
   <cc:Work>
    <dc:type rdf:resource="http://purl.org/dc/dcmitype/StillImage"/>
    <dc:date>2022-01-14T17:05:46.214393</dc:date>
    <dc:format>image/svg+xml</dc:format>
    <dc:creator>
     <cc:Agent>
      <dc:title>Matplotlib v3.5.1, https://matplotlib.org/</dc:title>
     </cc:Agent>
    </dc:creator>
   </cc:Work>
  </rdf:RDF>
 </metadata>
 <defs>
  <style type="text/css">*{stroke-linejoin: round; stroke-linecap: butt}</style>
 </defs>
 <g id="figure_1">
  <g id="patch_1">
   <path d="M 0 61.8705 
L 62.17875 61.8705 
L 62.17875 0 
L 0 0 
L 0 61.8705 
z
" style="fill: none"/>
  </g>
  <g id="axes_1">
   <g id="patch_2">
    <path d="M 31.018042 9.357751 
C 28.091948 9.357751 25.196372 9.953647 22.508809 11.108912 
C 19.821246 12.264178 17.397755 13.954714 15.386894 16.076893 
C 13.376032 18.199073 11.819745 20.708629 10.813429 23.45173 
C 9.807114 26.194831 9.371761 29.114257 9.534058 32.031053 
C 9.696355 34.947849 10.452916 37.801173 11.757365 40.416119 
C 13.061814 43.031065 14.886942 45.353089 17.12087 47.239853 
C 19.354798 49.126618 21.950929 50.538767 24.750123 51.389737 
C 27.549318 52.240708 30.493188 52.51275 33.401277 52.189187 
L 31.018042 30.839556 
L 31.018042 9.357751 
z
" style="fill: #0000ff; stroke: #000000; stroke-linejoin: miter"/>
   </g>
   <g id="patch_3">
    <path d="M 33.401277 52.189187 
C 38.865713 51.581198 43.894147 48.904695 47.44529 44.713927 
C 50.996434 40.52316 52.806989 35.128852 52.502025 29.648057 
C 52.197061 24.167262 49.799189 19.006353 45.804962 15.234051 
C 41.810735 11.461749 36.516303 9.35775 31.018037 9.357751 
L 31.018042 30.839556 
L 33.401277 52.189187 
z
" style="fill: #ff0000; stroke: #000000; stroke-linejoin: miter"/>
   </g>
   <g id="matplotlib.axis_1"/>
   <g id="matplotlib.axis_2"/>
  </g>
 </g>
</svg>
