<?xml version="1.0" encoding="utf-8" standalone="no"?>
<!DOCTYPE svg PUBLIC "-//W3C//DTD SVG 1.1//EN"
  "http://www.w3.org/Graphics/SVG/1.1/DTD/svg11.dtd">
<svg xmlns:xlink="http://www.w3.org/1999/xlink" width="371.52pt" height="280.512pt" viewBox="0 0 371.52 280.512" xmlns="http://www.w3.org/2000/svg" version="1.1">
 <metadata>
  <rdf:RDF xmlns:dc="http://purl.org/dc/elements/1.1/" xmlns:cc="http://creativecommons.org/ns#" xmlns:rdf="http://www.w3.org/1999/02/22-rdf-syntax-ns#">
   <cc:Work>
    <dc:type rdf:resource="http://purl.org/dc/dcmitype/StillImage"/>
    <dc:date>2021-12-10T18:14:47.263479</dc:date>
    <dc:format>image/svg+xml</dc:format>
    <dc:creator>
     <cc:Agent>
      <dc:title>Matplotlib v3.5.0, https://matplotlib.org/</dc:title>
     </cc:Agent>
    </dc:creator>
   </cc:Work>
  </rdf:RDF>
 </metadata>
 <defs>
  <style type="text/css">*{stroke-linejoin: round; stroke-linecap: butt}</style>
 </defs>
 <g id="figure_1">
  <g id="patch_1">
   <path d="M 0 280.512 
L 371.52 280.512 
L 371.52 0 
L 0 0 
L 0 280.512 
z
" style="fill: none"/>
  </g>
  <g id="axes_1">
   <g id="patch_2">
    <path d="M 186.451421 19.296003 
C 156.764327 19.296003 128.099771 30.267746 105.999876 50.089911 
C 83.899982 69.912075 69.88716 97.219157 66.670707 126.731493 
C 63.454254 156.243829 71.255744 185.928382 88.566806 210.045818 
C 105.877867 234.163253 131.50598 251.052177 160.4961 257.447214 
L 186.451421 139.786001 
L 186.451421 19.296003 
z
" style="fill: #0000ff"/>
   </g>
   <g id="patch_3">
    <path d="M 160.4961 257.447214 
C 177.022571 261.092849 194.13322 261.216 210.710453 257.808622 
C 227.287687 254.401245 242.962555 247.539175 256.711242 237.670614 
C 270.459929 227.802052 281.976438 215.146639 290.508561 200.53097 
C 299.040684 185.915302 304.398526 169.664671 306.232136 152.840498 
C 308.065746 136.016326 306.334314 118.993059 301.15093 102.882583 
C 295.967546 86.772108 287.447573 71.932986 276.1475 59.334444 
C 264.847427 46.735903 251.018753 36.658342 235.564707 29.759983 
C 220.110661 22.861623 203.375195 19.296 186.451398 19.296003 
L 186.451421 139.786001 
L 160.4961 257.447214 
z
" style="fill: #ff0000"/>
   </g>
   <g id="matplotlib.axis_1"/>
   <g id="matplotlib.axis_2"/>
  </g>
 </g>
</svg>
