<?xml version="1.0" encoding="utf-8" standalone="no"?>
<!DOCTYPE svg PUBLIC "-//W3C//DTD SVG 1.1//EN"
  "http://www.w3.org/Graphics/SVG/1.1/DTD/svg11.dtd">
<svg xmlns:xlink="http://www.w3.org/1999/xlink" width="174.36465pt" height="173.33262pt" viewBox="0 0 174.36465 173.33262" xmlns="http://www.w3.org/2000/svg" version="1.1">
 <metadata>
  <rdf:RDF xmlns:dc="http://purl.org/dc/elements/1.1/" xmlns:cc="http://creativecommons.org/ns#" xmlns:rdf="http://www.w3.org/1999/02/22-rdf-syntax-ns#">
   <cc:Work>
    <dc:type rdf:resource="http://purl.org/dc/dcmitype/StillImage"/>
    <dc:date>2021-12-14T09:20:50.451986</dc:date>
    <dc:format>image/svg+xml</dc:format>
    <dc:creator>
     <cc:Agent>
      <dc:title>Matplotlib v3.5.0, https://matplotlib.org/</dc:title>
     </cc:Agent>
    </dc:creator>
   </cc:Work>
  </rdf:RDF>
 </metadata>
 <defs>
  <style type="text/css">*{stroke-linejoin: round; stroke-linecap: butt}</style>
 </defs>
 <g id="figure_1">
  <g id="patch_1">
   <path d="M 0 173.33262 
L 174.36465 173.33262 
L 174.36465 0 
L 0 0 
L 0 173.33262 
z
" style="fill: none"/>
  </g>
  <g id="axes_1">
   <g id="patch_2">
    <path d="M 87.168419 13.969313 
C 77.607882 13.969313 68.140652 15.856001 59.310501 19.521011 
C 50.48035 23.186021 42.459636 28.557815 35.709046 35.327852 
C 28.958456 42.097889 23.609756 50.134022 19.970162 58.974679 
C 16.330567 67.815337 14.47112 77.287954 14.498622 86.848451 
C 14.526124 96.408949 16.440037 105.870712 20.130433 114.690284 
C 23.820829 123.509856 29.215673 131.515084 36.0051 138.246172 
C 42.794528 144.97726 50.846014 150.30282 59.697104 153.916968 
C 68.548195 157.531117 78.026121 159.363307 87.5865 159.308304 
L 87.168419 86.63941 
L 87.168419 13.969313 
z
" style="fill: #0000ff"/>
   </g>
   <g id="patch_3">
    <path d="M 87.5865 159.308304 
C 106.81595 159.197673 125.236477 151.458774 138.775178 137.802731 
C 152.31388 124.146687 159.89353 105.660063 159.838215 86.430375 
C 159.782901 67.200687 152.097024 48.757974 138.479984 35.180044 
C 124.862944 21.602114 106.3982 13.969316 87.168432 13.969313 
L 87.168419 86.63941 
L 87.5865 159.308304 
z
" style="fill: #ff0000"/>
   </g>
   <g id="matplotlib.axis_1"/>
   <g id="matplotlib.axis_2"/>
  </g>
 </g>
</svg>
