<?xml version="1.0" encoding="utf-8" standalone="no"?>
<!DOCTYPE svg PUBLIC "-//W3C//DTD SVG 1.1//EN"
  "http://www.w3.org/Graphics/SVG/1.1/DTD/svg11.dtd">
<svg xmlns:xlink="http://www.w3.org/1999/xlink" width="37.40355pt" height="37.25514pt" viewBox="0 0 37.40355 37.25514" xmlns="http://www.w3.org/2000/svg" version="1.1">
 <metadata>
  <rdf:RDF xmlns:dc="http://purl.org/dc/elements/1.1/" xmlns:cc="http://creativecommons.org/ns#" xmlns:rdf="http://www.w3.org/1999/02/22-rdf-syntax-ns#">
   <cc:Work>
    <dc:type rdf:resource="http://purl.org/dc/dcmitype/StillImage"/>
    <dc:date>2022-01-14T17:05:48.081918</dc:date>
    <dc:format>image/svg+xml</dc:format>
    <dc:creator>
     <cc:Agent>
      <dc:title>Matplotlib v3.5.1, https://matplotlib.org/</dc:title>
     </cc:Agent>
    </dc:creator>
   </cc:Work>
  </rdf:RDF>
 </metadata>
 <defs>
  <style type="text/css">*{stroke-linejoin: round; stroke-linecap: butt}</style>
 </defs>
 <g id="figure_1">
  <g id="patch_1">
   <path d="M 0 37.25514 
L 37.40355 37.25514 
L 37.40355 -0 
L 0 -0 
L 0 37.25514 
z
" style="fill: none"/>
  </g>
  <g id="axes_1">
   <g id="patch_2">
    <path d="M 18.6723 8.23887 
C 17.269449 8.23887 15.881068 8.522739 14.591355 9.073263 
C 13.301642 9.623787 12.137205 10.429607 11.168657 11.441857 
C 10.20011 12.454106 9.447436 13.651901 8.956279 14.962603 
C 8.465122 16.273305 8.245616 17.669872 8.311072 19.067613 
C 8.376528 20.465354 8.725595 21.835431 9.337106 23.094759 
C 9.948617 24.354086 10.809954 25.476683 11.868885 26.394471 
C 12.927815 27.312259 14.162491 28.006303 15.498038 28.434515 
C 16.833585 28.862726 18.24245 29.01627 19.639193 28.885835 
L 18.6723 18.584877 
L 18.6723 8.23887 
z
" style="fill: #0000ff; stroke: #000000; stroke-linejoin: miter"/>
   </g>
   <g id="patch_3">
    <path d="M 19.639193 28.885835 
C 22.293855 28.637929 24.753084 27.378365 26.501912 25.370898 
C 28.250739 23.363432 29.157934 20.7587 29.033528 18.102141 
C 28.909123 15.445583 27.762451 12.936542 25.83363 11.100419 
C 23.904808 9.264296 21.338574 8.23887 18.672302 8.23887 
L 18.6723 18.584877 
L 19.639193 28.885835 
z
" style="fill: #ff0000; stroke: #000000; stroke-linejoin: miter"/>
   </g>
   <g id="matplotlib.axis_1"/>
   <g id="matplotlib.axis_2"/>
  </g>
 </g>
</svg>
