<?xml version="1.0" encoding="utf-8" standalone="no"?>
<!DOCTYPE svg PUBLIC "-//W3C//DTD SVG 1.1//EN"
  "http://www.w3.org/Graphics/SVG/1.1/DTD/svg11.dtd">
<svg xmlns:xlink="http://www.w3.org/1999/xlink" width="115.57935pt" height="114.92658pt" viewBox="0 0 115.57935 114.92658" xmlns="http://www.w3.org/2000/svg" version="1.1">
 <metadata>
  <rdf:RDF xmlns:dc="http://purl.org/dc/elements/1.1/" xmlns:cc="http://creativecommons.org/ns#" xmlns:rdf="http://www.w3.org/1999/02/22-rdf-syntax-ns#">
   <cc:Work>
    <dc:type rdf:resource="http://purl.org/dc/dcmitype/StillImage"/>
    <dc:date>2022-01-14T17:05:49.076915</dc:date>
    <dc:format>image/svg+xml</dc:format>
    <dc:creator>
     <cc:Agent>
      <dc:title>Matplotlib v3.5.1, https://matplotlib.org/</dc:title>
     </cc:Agent>
    </dc:creator>
   </cc:Work>
  </rdf:RDF>
 </metadata>
 <defs>
  <style type="text/css">*{stroke-linejoin: round; stroke-linecap: butt}</style>
 </defs>
 <g id="figure_1">
  <g id="patch_1">
   <path d="M 0 114.92658 
L 115.57935 114.92658 
L 115.57935 0 
L 0 0 
L 0 114.92658 
z
" style="fill: none"/>
  </g>
  <g id="axes_1">
   <g id="patch_2">
    <path d="M 57.881094 11.76939 
C 46.009675 11.76939 34.592674 16.374012 26.065761 24.600918 
C 17.538847 32.827824 12.554813 44.047192 12.176937 55.865513 
C 11.799061 67.683834 16.056273 79.196338 24.040351 87.946981 
C 32.024429 96.697624 43.124139 102.016487 54.971502 102.768858 
L 57.881094 57.315271 
L 57.881094 11.76939 
z
" style="fill: #0000ff; stroke: #000000; stroke-linejoin: miter"/>
   </g>
   <g id="patch_3">
    <path d="M 54.971502 102.768858 
C 61.086444 103.15719 67.217834 102.317384 73.000562 100.299448 
C 78.783291 98.281513 84.100252 95.126313 88.634836 91.021733 
C 93.169419 86.917153 96.829793 81.946315 99.397994 76.405219 
C 101.966195 70.864123 103.390212 64.864982 103.58525 58.765029 
C 103.780289 52.665076 102.742398 46.587842 100.533381 40.895211 
C 98.324365 35.202579 94.988958 30.009831 90.725775 25.626182 
C 86.462592 21.242532 81.357968 17.756755 75.715868 15.376418 
C 70.073768 12.996081 64.008452 11.76939 57.881094 11.76939 
L 57.881094 57.315271 
L 54.971502 102.768858 
z
" style="fill: #ff0000; stroke: #000000; stroke-linejoin: miter"/>
   </g>
   <g id="matplotlib.axis_1"/>
   <g id="matplotlib.axis_2"/>
  </g>
 </g>
</svg>
