<?xml version="1.0" encoding="utf-8" standalone="no"?>
<!DOCTYPE svg PUBLIC "-//W3C//DTD SVG 1.1//EN"
  "http://www.w3.org/Graphics/SVG/1.1/DTD/svg11.dtd">
<svg xmlns:xlink="http://www.w3.org/1999/xlink" width="143.64675pt" height="142.8129pt" viewBox="0 0 143.64675 142.8129" xmlns="http://www.w3.org/2000/svg" version="1.1">
 <metadata>
  <rdf:RDF xmlns:dc="http://purl.org/dc/elements/1.1/" xmlns:cc="http://creativecommons.org/ns#" xmlns:rdf="http://www.w3.org/1999/02/22-rdf-syntax-ns#">
   <cc:Work>
    <dc:type rdf:resource="http://purl.org/dc/dcmitype/StillImage"/>
    <dc:date>2022-01-14T17:05:49.980175</dc:date>
    <dc:format>image/svg+xml</dc:format>
    <dc:creator>
     <cc:Agent>
      <dc:title>Matplotlib v3.5.1, https://matplotlib.org/</dc:title>
     </cc:Agent>
    </dc:creator>
   </cc:Work>
  </rdf:RDF>
 </metadata>
 <defs>
  <style type="text/css">*{stroke-linejoin: round; stroke-linecap: butt}</style>
 </defs>
 <g id="figure_1">
  <g id="patch_1">
   <path d="M 0 142.8129 
L 143.64675 142.8129 
L 143.64675 0 
L 0 0 
L 0 142.8129 
z
" style="fill: none"/>
  </g>
  <g id="axes_1">
   <g id="patch_2">
    <path d="M 72.042313 13.036951 
C 57.273885 13.036951 43.04644 18.660351 32.273523 28.755571 
C 21.500607 38.85079 14.971465 52.678233 14.023159 67.406267 
C 13.074852 82.134302 17.776856 96.683921 27.166277 108.075604 
C 36.555698 119.467287 49.944648 126.866455 64.591291 128.75788 
L 72.042313 71.136971 
L 72.042313 13.036951 
z
" style="fill: #0000ff; stroke: #000000; stroke-linejoin: miter"/>
   </g>
   <g id="patch_3">
    <path d="M 64.591291 128.75788 
C 72.474923 129.77595 80.484373 129.167517 88.123427 126.970276 
C 95.76248 124.773034 102.870057 121.033317 109.005818 115.982812 
C 115.141579 110.932307 120.176141 104.677513 123.797597 97.605935 
C 127.419053 90.534357 129.551037 82.79511 130.061468 74.867669 
C 130.571898 66.940227 129.45001 58.991754 126.765309 51.514682 
C 124.080608 44.037611 119.889706 37.189609 114.452242 31.394932 
C 109.014778 25.600256 102.445411 20.981095 95.151135 17.823624 
C 87.856859 14.666152 79.991486 13.03695 72.042302 13.036951 
L 72.042313 71.136971 
L 64.591291 128.75788 
z
" style="fill: #ff0000; stroke: #000000; stroke-linejoin: miter"/>
   </g>
   <g id="matplotlib.axis_1"/>
   <g id="matplotlib.axis_2"/>
  </g>
 </g>
</svg>
