<?xml version="1.0" encoding="utf-8" standalone="no"?>
<!DOCTYPE svg PUBLIC "-//W3C//DTD SVG 1.1//EN"
  "http://www.w3.org/Graphics/SVG/1.1/DTD/svg11.dtd">
<svg xmlns:xlink="http://www.w3.org/1999/xlink" width="345.6567pt" height="343.51956pt" viewBox="0 0 345.6567 343.51956" xmlns="http://www.w3.org/2000/svg" version="1.1">
 <metadata>
  <rdf:RDF xmlns:dc="http://purl.org/dc/elements/1.1/" xmlns:cc="http://creativecommons.org/ns#" xmlns:rdf="http://www.w3.org/1999/02/22-rdf-syntax-ns#">
   <cc:Work>
    <dc:type rdf:resource="http://purl.org/dc/dcmitype/StillImage"/>
    <dc:date>2021-12-14T09:20:54.120279</dc:date>
    <dc:format>image/svg+xml</dc:format>
    <dc:creator>
     <cc:Agent>
      <dc:title>Matplotlib v3.5.0, https://matplotlib.org/</dc:title>
     </cc:Agent>
    </dc:creator>
   </cc:Work>
  </rdf:RDF>
 </metadata>
 <defs>
  <style type="text/css">*{stroke-linejoin: round; stroke-linecap: butt}</style>
 </defs>
 <g id="figure_1">
  <g id="patch_1">
   <path d="M 0 343.51956 
L 345.6567 343.51956 
L 345.6567 0 
L 0 0 
L 0 343.51956 
z
" style="fill: none"/>
  </g>
  <g id="axes_1">
   <g id="patch_2">
    <path d="M 173.183837 22.15998 
C 134.526292 22.15998 97.335541 37.098141 69.48121 63.813523 
C 41.62688 90.528904 25.222738 126.994169 23.73993 165.493204 
C 22.257123 203.992238 35.808174 241.603484 61.525658 270.368338 
C 87.243143 299.133191 123.17545 316.868787 161.719241 319.822242 
L 173.183837 171.210409 
L 173.183837 22.15998 
z
" style="fill: #0000ff"/>
   </g>
   <g id="patch_3">
    <path d="M 161.719241 319.822242 
C 181.782131 321.35958 201.951515 318.845741 221.016658 312.431627 
C 240.081801 306.017513 257.653431 295.834086 272.676751 282.492642 
C 287.700072 269.151197 299.868338 252.924141 308.451108 234.785555 
C 317.033878 216.646969 321.855909 196.967207 322.627743 176.927614 
C 323.399577 156.88802 320.105455 136.897763 312.943116 118.156824 
C 305.780778 99.415885 294.896464 82.306916 280.943542 67.856941 
C 266.99062 53.406966 250.253981 41.911025 231.738297 34.059199 
C 213.222614 26.207372 193.305938 22.15998 173.183837 22.15998 
L 173.183837 171.210409 
L 161.719241 319.822242 
z
" style="fill: #ff0000"/>
   </g>
   <g id="matplotlib.axis_1"/>
   <g id="matplotlib.axis_2"/>
  </g>
 </g>
</svg>
