<?xml version="1.0" encoding="utf-8" standalone="no"?>
<!DOCTYPE svg PUBLIC "-//W3C//DTD SVG 1.1//EN"
  "http://www.w3.org/Graphics/SVG/1.1/DTD/svg11.dtd">
<svg xmlns:xlink="http://www.w3.org/1999/xlink" width="371.52pt" height="280.512pt" viewBox="0 0 371.52 280.512" xmlns="http://www.w3.org/2000/svg" version="1.1">
 <metadata>
  <rdf:RDF xmlns:dc="http://purl.org/dc/elements/1.1/" xmlns:cc="http://creativecommons.org/ns#" xmlns:rdf="http://www.w3.org/1999/02/22-rdf-syntax-ns#">
   <cc:Work>
    <dc:type rdf:resource="http://purl.org/dc/dcmitype/StillImage"/>
    <dc:date>2021-12-10T18:14:51.062002</dc:date>
    <dc:format>image/svg+xml</dc:format>
    <dc:creator>
     <cc:Agent>
      <dc:title>Matplotlib v3.5.0, https://matplotlib.org/</dc:title>
     </cc:Agent>
    </dc:creator>
   </cc:Work>
  </rdf:RDF>
 </metadata>
 <defs>
  <style type="text/css">*{stroke-linejoin: round; stroke-linecap: butt}</style>
 </defs>
 <g id="figure_1">
  <g id="patch_1">
   <path d="M 0 280.512 
L 371.52 280.512 
L 371.52 0 
L 0 0 
L 0 280.512 
z
" style="fill: none"/>
  </g>
  <g id="axes_1">
   <g id="patch_2">
    <path d="M 186.482989 19.296 
C 156.952734 19.296 128.429628 30.15653 106.377755 49.797071 
C 84.325882 69.437612 70.249429 96.518456 66.84498 125.851811 
C 63.44053 155.185165 70.940306 184.770162 87.907598 208.939295 
C 104.87489 233.108427 130.152337 250.213086 158.897615 256.976585 
L 186.482989 139.737082 
L 186.482989 19.296 
z
" style="fill: #0000ff"/>
   </g>
   <g id="patch_3">
    <path d="M 158.897615 256.976585 
C 175.43385 260.867409 192.607697 261.216 209.288197 257.999403 
C 225.968696 254.782806 241.781473 248.073213 255.685198 238.312476 
C 269.588923 228.551739 281.271544 215.958927 289.963716 201.363321 
C 298.655888 186.767716 304.162526 170.496899 306.120998 153.622363 
C 308.07947 136.747828 306.44582 119.648304 301.32763 103.449856 
C 296.20944 87.251409 287.721582 72.317595 276.423012 59.63186 
C 265.124442 46.946125 251.268744 36.793186 235.768366 29.84165 
C 220.267988 22.890115 203.470818 19.296003 186.483012 19.296 
L 186.482989 139.737082 
L 158.897615 256.976585 
z
" style="fill: #ff0000"/>
   </g>
   <g id="matplotlib.axis_1"/>
   <g id="matplotlib.axis_2"/>
  </g>
 </g>
</svg>
