<?xml version="1.0" encoding="utf-8" standalone="no"?>
<!DOCTYPE svg PUBLIC "-//W3C//DTD SVG 1.1//EN"
  "http://www.w3.org/Graphics/SVG/1.1/DTD/svg11.dtd">
<svg xmlns:xlink="http://www.w3.org/1999/xlink" width="19.6173pt" height="19.58364pt" viewBox="0 0 19.6173 19.58364" xmlns="http://www.w3.org/2000/svg" version="1.1">
 <metadata>
  <rdf:RDF xmlns:dc="http://purl.org/dc/elements/1.1/" xmlns:cc="http://creativecommons.org/ns#" xmlns:rdf="http://www.w3.org/1999/02/22-rdf-syntax-ns#">
   <cc:Work>
    <dc:type rdf:resource="http://purl.org/dc/dcmitype/StillImage"/>
    <dc:date>2021-12-14T09:21:02.349313</dc:date>
    <dc:format>image/svg+xml</dc:format>
    <dc:creator>
     <cc:Agent>
      <dc:title>Matplotlib v3.5.0, https://matplotlib.org/</dc:title>
     </cc:Agent>
    </dc:creator>
   </cc:Work>
  </rdf:RDF>
 </metadata>
 <defs>
  <style type="text/css">*{stroke-linejoin: round; stroke-linecap: butt}</style>
 </defs>
 <g id="figure_1">
  <g id="patch_1">
   <path d="M 0 19.58364 
L 19.6173 19.58364 
L 19.6173 0 
L 0 0 
L 0 19.58364 
z
" style="fill: none"/>
  </g>
  <g id="axes_1">
   <g id="patch_2">
    <path d="M 9.818774 7.43562 
C 9.228014 7.43562 8.658559 7.659132 8.225341 8.061045 
C 7.792122 8.462958 7.526388 9.014283 7.481769 9.603748 
C 7.43715 10.193212 7.616865 10.7783 7.984644 11.240924 
C 8.352422 11.703549 8.881736 12.010341 9.465756 12.099383 
L 9.818774 9.78088 
L 9.818774 7.43562 
z
" style="fill: #0000ff"/>
   </g>
   <g id="patch_3">
    <path d="M 9.465756 12.099383 
C 9.784759 12.14802 10.110391 12.130211 10.422197 12.047075 
C 10.734004 11.963939 11.025319 11.817254 11.277846 11.616232 
C 11.530373 11.41521 11.738712 11.16415 11.889778 10.87882 
C 12.040844 10.59349 12.131407 10.279991 12.155778 9.958013 
C 12.18015 9.636035 12.13781 9.312462 12.031416 9.007618 
C 11.925023 8.702774 11.756851 8.423176 11.537464 8.186386 
C 11.318077 7.949595 11.052165 7.760675 10.75643 7.631491 
C 10.460694 7.502306 10.141459 7.43562 9.818774 7.43562 
L 9.818774 9.78088 
L 9.465756 12.099383 
z
" style="fill: #ff0000"/>
   </g>
   <g id="matplotlib.axis_1"/>
   <g id="matplotlib.axis_2"/>
  </g>
 </g>
</svg>
