<?xml version="1.0" encoding="utf-8" standalone="no"?>
<!DOCTYPE svg PUBLIC "-//W3C//DTD SVG 1.1//EN"
  "http://www.w3.org/Graphics/SVG/1.1/DTD/svg11.dtd">
<svg xmlns:xlink="http://www.w3.org/1999/xlink" width="371.52pt" height="280.512pt" viewBox="0 0 371.52 280.512" xmlns="http://www.w3.org/2000/svg" version="1.1">
 <metadata>
  <rdf:RDF xmlns:dc="http://purl.org/dc/elements/1.1/" xmlns:cc="http://creativecommons.org/ns#" xmlns:rdf="http://www.w3.org/1999/02/22-rdf-syntax-ns#">
   <cc:Work>
    <dc:type rdf:resource="http://purl.org/dc/dcmitype/StillImage"/>
    <dc:date>2021-12-03T16:10:05.101639</dc:date>
    <dc:format>image/svg+xml</dc:format>
    <dc:creator>
     <cc:Agent>
      <dc:title>Matplotlib v3.5.0, https://matplotlib.org/</dc:title>
     </cc:Agent>
    </dc:creator>
   </cc:Work>
  </rdf:RDF>
 </metadata>
 <defs>
  <style type="text/css">*{stroke-linejoin: round; stroke-linecap: butt}</style>
 </defs>
 <g id="figure_1">
  <g id="patch_1">
   <path d="M 0 280.512 
L 371.52 280.512 
L 371.52 0 
L 0 0 
L 0 280.512 
z
" style="fill: none"/>
  </g>
  <g id="axes_1">
   <g id="patch_2">
    <path d="M 185.952392 19.296 
C 154.493117 19.296 124.249057 31.602192 101.727149 53.566929 
C 79.205242 75.531666 66.145448 105.458031 65.357551 136.907438 
C 64.569654 168.356845 76.114525 198.899626 97.508311 221.964575 
C 118.902098 245.029524 148.491993 258.834727 179.911803 260.410026 
L 185.952392 139.92868 
L 185.952392 19.296 
z
" style="fill: #0000ff"/>
   </g>
   <g id="patch_3">
    <path d="M 179.911803 260.410026 
C 195.987197 261.216 212.062515 258.796559 227.18852 253.294571 
C 242.314524 247.792582 256.18751 239.318516 267.988287 228.37276 
C 279.789064 217.427005 289.280691 204.229332 295.902694 189.559057 
C 302.524698 174.888782 306.144119 159.040459 306.547232 142.949922 
C 306.950346 126.859385 304.129058 110.849704 298.249965 95.866241 
C 292.370871 80.882778 283.552015 67.226376 272.314142 55.703437 
C 261.07627 44.180499 247.64502 35.022384 232.813499 28.769874 
C 217.981978 22.517365 202.047978 19.296 185.952392 19.296 
L 185.952392 139.92868 
L 179.911803 260.410026 
z
" style="fill: #bf00bf"/>
   </g>
   <g id="matplotlib.axis_1"/>
   <g id="matplotlib.axis_2"/>
  </g>
 </g>
</svg>
