<?xml version="1.0" encoding="utf-8" standalone="no"?>
<!DOCTYPE svg PUBLIC "-//W3C//DTD SVG 1.1//EN"
  "http://www.w3.org/Graphics/SVG/1.1/DTD/svg11.dtd">
<svg xmlns:xlink="http://www.w3.org/1999/xlink" width="294.3486pt" height="292.54248pt" viewBox="0 0 294.3486 292.54248" xmlns="http://www.w3.org/2000/svg" version="1.1">
 <metadata>
  <rdf:RDF xmlns:dc="http://purl.org/dc/elements/1.1/" xmlns:cc="http://creativecommons.org/ns#" xmlns:rdf="http://www.w3.org/1999/02/22-rdf-syntax-ns#">
   <cc:Work>
    <dc:type rdf:resource="http://purl.org/dc/dcmitype/StillImage"/>
    <dc:date>2021-12-14T09:20:55.070261</dc:date>
    <dc:format>image/svg+xml</dc:format>
    <dc:creator>
     <cc:Agent>
      <dc:title>Matplotlib v3.5.0, https://matplotlib.org/</dc:title>
     </cc:Agent>
    </dc:creator>
   </cc:Work>
  </rdf:RDF>
 </metadata>
 <defs>
  <style type="text/css">*{stroke-linejoin: round; stroke-linecap: butt}</style>
 </defs>
 <g id="figure_1">
  <g id="patch_1">
   <path d="M 0 292.54248 
L 294.3486 292.54248 
L 294.3486 0 
L 0 0 
L 0 292.54248 
z
" style="fill: none"/>
  </g>
  <g id="axes_1">
   <g id="patch_2">
    <path d="M 147.37631 19.84284 
C 114.344201 19.84284 82.588063 32.705375 58.940153 55.663101 
C 35.292243 78.620827 21.579513 109.900113 20.752225 142.771295 
C 19.924936 175.642477 32.047003 207.566047 54.51039 231.673724 
C 76.973778 255.781401 108.043047 270.210713 141.033717 271.857229 
L 147.37631 145.929122 
L 147.37631 19.84284 
z
" style="fill: #0000ff"/>
   </g>
   <g id="patch_3">
    <path d="M 141.033717 271.857229 
C 157.912815 272.69964 174.791832 270.170821 190.674075 264.420096 
C 206.556317 258.669372 221.122896 249.812207 233.513663 238.371612 
C 245.904429 226.931017 255.870599 213.1367 262.823675 197.803206 
C 269.776752 182.469713 273.577129 165.904914 274.000396 149.08695 
C 274.423664 132.268986 271.461323 115.535534 265.2883 99.874694 
C 259.115276 84.213854 249.855513 69.940069 238.055793 57.896197 
C 226.256073 45.852325 212.153316 36.280187 196.58028 29.745012 
C 181.007244 23.209837 164.27661 19.84284 147.37631 19.84284 
L 147.37631 145.929122 
L 141.033717 271.857229 
z
" style="fill: #ff0000"/>
   </g>
   <g id="matplotlib.axis_1"/>
   <g id="matplotlib.axis_2"/>
  </g>
 </g>
</svg>
