<?xml version="1.0" encoding="utf-8" standalone="no"?>
<!DOCTYPE svg PUBLIC "-//W3C//DTD SVG 1.1//EN"
  "http://www.w3.org/Graphics/SVG/1.1/DTD/svg11.dtd">
<svg xmlns:xlink="http://www.w3.org/1999/xlink" width="91.39005pt" height="90.89334pt" viewBox="0 0 91.39005 90.89334" xmlns="http://www.w3.org/2000/svg" version="1.1">
 <metadata>
  <rdf:RDF xmlns:dc="http://purl.org/dc/elements/1.1/" xmlns:cc="http://creativecommons.org/ns#" xmlns:rdf="http://www.w3.org/1999/02/22-rdf-syntax-ns#">
   <cc:Work>
    <dc:type rdf:resource="http://purl.org/dc/dcmitype/StillImage"/>
    <dc:date>2022-01-14T17:05:52.908146</dc:date>
    <dc:format>image/svg+xml</dc:format>
    <dc:creator>
     <cc:Agent>
      <dc:title>Matplotlib v3.5.1, https://matplotlib.org/</dc:title>
     </cc:Agent>
    </dc:creator>
   </cc:Work>
  </rdf:RDF>
 </metadata>
 <defs>
  <style type="text/css">*{stroke-linejoin: round; stroke-linecap: butt}</style>
 </defs>
 <g id="figure_1">
  <g id="patch_1">
   <path d="M 0 90.89334 
L 91.39005 90.89334 
L 91.39005 0 
L 0 0 
L 0 90.89334 
z
" style="fill: none"/>
  </g>
  <g id="axes_1">
   <g id="patch_2">
    <path d="M 45.788805 10.67697 
C 36.846404 10.67697 28.240682 14.121171 21.779523 20.286017 
C 15.318364 26.450863 11.488289 34.872145 11.093918 43.780725 
C 10.699548 52.689306 13.770577 61.414375 19.661846 68.122976 
C 25.553115 74.831576 33.821015 79.018554 42.728632 79.804313 
L 45.788805 45.307996 
L 45.788805 10.67697 
z
" style="fill: #0000ff; stroke: #000000; stroke-linejoin: miter"/>
   </g>
   <g id="patch_3">
    <path d="M 42.728632 79.804313 
C 47.399849 80.21637 52.106729 79.68071 56.564726 78.229714 
C 61.022724 76.778719 65.140157 74.442229 68.668115 71.361493 
C 72.196072 68.280756 75.061999 64.519131 77.092642 60.304018 
C 79.123284 56.088906 80.27688 51.506992 80.483691 46.835269 
C 80.690502 42.163547 79.946276 37.498091 78.296002 33.120944 
C 76.645728 28.743797 74.123346 24.744977 70.881342 21.366226 
C 67.639338 17.987475 63.744385 15.298279 59.431946 13.461208 
C 55.119507 11.624137 50.47827 10.676971 45.788811 10.67697 
L 45.788805 45.307996 
L 42.728632 79.804313 
z
" style="fill: #ff0000; stroke: #000000; stroke-linejoin: miter"/>
   </g>
   <g id="matplotlib.axis_1"/>
   <g id="matplotlib.axis_2"/>
  </g>
 </g>
</svg>
