<?xml version="1.0" encoding="utf-8" standalone="no"?>
<!DOCTYPE svg PUBLIC "-//W3C//DTD SVG 1.1//EN"
  "http://www.w3.org/Graphics/SVG/1.1/DTD/svg11.dtd">
<svg xmlns:xlink="http://www.w3.org/1999/xlink" width="371.52pt" height="280.512pt" viewBox="0 0 371.52 280.512" xmlns="http://www.w3.org/2000/svg" version="1.1">
 <metadata>
  <rdf:RDF xmlns:dc="http://purl.org/dc/elements/1.1/" xmlns:cc="http://creativecommons.org/ns#" xmlns:rdf="http://www.w3.org/1999/02/22-rdf-syntax-ns#">
   <cc:Work>
    <dc:type rdf:resource="http://purl.org/dc/dcmitype/StillImage"/>
    <dc:date>2021-12-03T16:10:06.064427</dc:date>
    <dc:format>image/svg+xml</dc:format>
    <dc:creator>
     <cc:Agent>
      <dc:title>Matplotlib v3.5.0, https://matplotlib.org/</dc:title>
     </cc:Agent>
    </dc:creator>
   </cc:Work>
  </rdf:RDF>
 </metadata>
 <defs>
  <style type="text/css">*{stroke-linejoin: round; stroke-linecap: butt}</style>
 </defs>
 <g id="figure_1">
  <g id="patch_1">
   <path d="M 0 280.512 
L 371.52 280.512 
L 371.52 0 
L 0 0 
L 0 280.512 
z
" style="fill: none"/>
  </g>
  <g id="axes_1">
   <g id="patch_2">
    <path d="M 186.085332 19.296 
C 155.063167 19.296 125.208977 31.277999 102.794511 52.724827 
C 80.380044 74.171654 67.093096 103.468378 65.724981 134.46036 
C 64.356866 165.452343 75.010601 195.805908 95.448058 219.144398 
C 115.885514 242.482888 144.567763 257.048929 175.469257 259.782497 
L 186.085332 139.773568 
L 186.085332 19.296 
z
" style="fill: #0000ff"/>
   </g>
   <g id="patch_3">
    <path d="M 175.469257 259.782497 
C 191.674219 261.216 208.002901 259.352496 223.468182 254.304642 
C 238.933462 249.256787 253.217289 241.128392 265.456159 230.410846 
C 277.695028 219.6933 287.637243 206.607014 294.681762 191.943097 
C 301.726282 177.279179 305.728232 161.339201 306.445683 145.086786 
C 307.163134 128.834371 304.58133 112.603758 298.85635 97.376141 
C 293.13137 82.148523 284.380952 68.237064 273.134085 56.482758 
C 261.887218 44.728451 248.375202 35.37303 233.41488 28.98206 
C 218.454558 22.591089 202.353598 19.296003 186.085355 19.296 
L 186.085332 139.773568 
L 175.469257 259.782497 
z
" style="fill: #bf00bf"/>
   </g>
   <g id="matplotlib.axis_1"/>
   <g id="matplotlib.axis_2"/>
  </g>
 </g>
</svg>
