<?xml version="1.0" encoding="utf-8" standalone="no"?>
<!DOCTYPE svg PUBLIC "-//W3C//DTD SVG 1.1//EN"
  "http://www.w3.org/Graphics/SVG/1.1/DTD/svg11.dtd">
<svg xmlns:xlink="http://www.w3.org/1999/xlink" width="134.6211pt" height="133.84548pt" viewBox="0 0 134.6211 133.84548" xmlns="http://www.w3.org/2000/svg" version="1.1">
 <metadata>
  <rdf:RDF xmlns:dc="http://purl.org/dc/elements/1.1/" xmlns:cc="http://creativecommons.org/ns#" xmlns:rdf="http://www.w3.org/1999/02/22-rdf-syntax-ns#">
   <cc:Work>
    <dc:type rdf:resource="http://purl.org/dc/dcmitype/StillImage"/>
    <dc:date>2021-12-14T09:20:56.867558</dc:date>
    <dc:format>image/svg+xml</dc:format>
    <dc:creator>
     <cc:Agent>
      <dc:title>Matplotlib v3.5.0, https://matplotlib.org/</dc:title>
     </cc:Agent>
    </dc:creator>
   </cc:Work>
  </rdf:RDF>
 </metadata>
 <defs>
  <style type="text/css">*{stroke-linejoin: round; stroke-linecap: butt}</style>
 </defs>
 <g id="figure_1">
  <g id="patch_1">
   <path d="M 0 133.84548 
L 134.6211 133.84548 
L 134.6211 0 
L 0 0 
L 0 133.84548 
z
" style="fill: none"/>
  </g>
  <g id="axes_1">
   <g id="patch_2">
    <path d="M 67.256385 12.337349 
C 60.030952 12.337349 52.877167 13.774564 46.21237 16.565148 
C 39.547573 19.355732 33.503941 23.444343 28.43405 28.592458 
C 23.364159 33.740572 19.368555 39.846093 16.680336 46.552832 
C 13.992117 53.259571 12.664595 60.434522 12.775217 67.659108 
C 12.885838 74.883693 14.432409 82.014637 17.324704 88.635928 
C 20.216999 95.25722 24.397659 101.237547 29.62279 106.228026 
C 34.847921 111.218505 41.013899 115.120165 47.761009 117.705389 
C 54.508118 120.290613 61.702553 121.508131 68.924598 121.286914 
L 67.256385 66.824903 
L 67.256385 12.337349 
z
" style="fill: #0000ff"/>
   </g>
   <g id="patch_3">
    <path d="M 68.924598 121.286914 
C 83.219133 120.849061 96.781894 114.800557 106.659508 104.458498 
C 116.537122 94.116439 121.956505 80.290262 121.737553 65.990699 
C 121.518601 51.691136 115.678451 38.037362 105.48883 28.002569 
C 95.29921 17.967775 81.557624 12.337349 67.256385 12.337349 
L 67.256385 66.824903 
L 68.924598 121.286914 
z
" style="fill: #ff0000"/>
   </g>
   <g id="matplotlib.axis_1"/>
   <g id="matplotlib.axis_2"/>
  </g>
 </g>
</svg>
