<?xml version="1.0" encoding="utf-8" standalone="no"?>
<!DOCTYPE svg PUBLIC "-//W3C//DTD SVG 1.1//EN"
  "http://www.w3.org/Graphics/SVG/1.1/DTD/svg11.dtd">
<svg xmlns:xlink="http://www.w3.org/1999/xlink" width="371.52pt" height="280.512pt" viewBox="0 0 371.52 280.512" xmlns="http://www.w3.org/2000/svg" version="1.1">
 <metadata>
  <rdf:RDF xmlns:dc="http://purl.org/dc/elements/1.1/" xmlns:cc="http://creativecommons.org/ns#" xmlns:rdf="http://www.w3.org/1999/02/22-rdf-syntax-ns#">
   <cc:Work>
    <dc:type rdf:resource="http://purl.org/dc/dcmitype/StillImage"/>
    <dc:date>2021-12-10T18:14:54.689573</dc:date>
    <dc:format>image/svg+xml</dc:format>
    <dc:creator>
     <cc:Agent>
      <dc:title>Matplotlib v3.5.0, https://matplotlib.org/</dc:title>
     </cc:Agent>
    </dc:creator>
   </cc:Work>
  </rdf:RDF>
 </metadata>
 <defs>
  <style type="text/css">*{stroke-linejoin: round; stroke-linecap: butt}</style>
 </defs>
 <g id="figure_1">
  <g id="patch_1">
   <path d="M 0 280.512 
L 371.52 280.512 
L 371.52 0 
L 0 0 
L 0 280.512 
z
" style="fill: none"/>
  </g>
  <g id="axes_1">
   <g id="patch_2">
    <path d="M 186.264267 19.296 
C 155.859717 19.296 126.555841 30.8134 104.287887 51.51545 
C 82.019932 72.2175 68.400143 100.605332 66.187089 130.929234 
C 63.974035 161.253137 73.327946 191.317601 92.354269 215.033328 
C 111.380591 238.749055 138.701781 254.398982 168.784168 258.813349 
L 186.264267 139.692528 
L 186.264267 19.296 
z
" style="fill: #0000ff"/>
   </g>
   <g id="patch_3">
    <path d="M 168.784168 258.813349 
C 185.157402 261.216 201.851538 260.217282 217.821542 255.879714 
C 233.791545 251.542147 248.697077 243.958167 261.605067 233.602526 
C 274.513056 223.246885 285.14842 210.340271 292.845395 195.690627 
C 300.542369 181.040983 305.136924 164.960507 306.341444 148.455822 
C 307.545965 131.951137 305.334781 115.373974 299.846311 99.76205 
C 294.357841 84.150125 285.70905 69.836144 274.441344 57.716148 
C 263.173638 45.596152 249.527144 35.928431 234.356118 29.318175 
C 219.185093 22.707919 202.812847 19.296 186.264267 19.296 
L 186.264267 139.692528 
L 168.784168 258.813349 
z
" style="fill: #ff0000"/>
   </g>
   <g id="matplotlib.axis_1"/>
   <g id="matplotlib.axis_2"/>
  </g>
 </g>
</svg>
