<?xml version="1.0" encoding="utf-8" standalone="no"?>
<!DOCTYPE svg PUBLIC "-//W3C//DTD SVG 1.1//EN"
  "http://www.w3.org/Graphics/SVG/1.1/DTD/svg11.dtd">
<svg xmlns:xlink="http://www.w3.org/1999/xlink" width="309.45645pt" height="307.55286pt" viewBox="0 0 309.45645 307.55286" xmlns="http://www.w3.org/2000/svg" version="1.1">
 <metadata>
  <rdf:RDF xmlns:dc="http://purl.org/dc/elements/1.1/" xmlns:cc="http://creativecommons.org/ns#" xmlns:rdf="http://www.w3.org/1999/02/22-rdf-syntax-ns#">
   <cc:Work>
    <dc:type rdf:resource="http://purl.org/dc/dcmitype/StillImage"/>
    <dc:date>2022-01-14T17:05:54.763448</dc:date>
    <dc:format>image/svg+xml</dc:format>
    <dc:creator>
     <cc:Agent>
      <dc:title>Matplotlib v3.5.1, https://matplotlib.org/</dc:title>
     </cc:Agent>
    </dc:creator>
   </cc:Work>
  </rdf:RDF>
 </metadata>
 <defs>
  <style type="text/css">*{stroke-linejoin: round; stroke-linecap: butt}</style>
 </defs>
 <g id="figure_1">
  <g id="patch_1">
   <path d="M 0 307.55286 
L 309.45645 307.55286 
L 309.45645 -0 
L 0 -0 
L 0 307.55286 
z
" style="fill: none"/>
  </g>
  <g id="axes_1">
   <g id="patch_2">
    <path d="M 154.97991 20.52513 
C 120.306073 20.52513 86.962893 33.988998 62.080645 58.037552 
C 37.198396 82.086106 22.686861 114.873553 21.649259 149.388458 
C 20.611657 183.903363 33.127627 217.496613 56.520691 242.984455 
C 79.913755 268.472297 112.388431 283.89847 147.000167 285.964162 
L 154.97991 153.363601 
L 154.97991 20.52513 
z
" style="fill: #0000ff; stroke: #000000; stroke-linejoin: miter"/>
   </g>
   <g id="patch_3">
    <path d="M 147.000167 285.964162 
C 164.820796 287.02773 182.675819 284.517761 199.504518 278.583367 
C 216.333217 272.648972 231.795611 263.410041 244.973121 251.415433 
C 258.150632 239.420825 268.77704 224.91286 276.221061 208.753418 
C 283.665082 192.593976 287.776328 175.109516 288.310561 157.338744 
C 288.844793 139.567971 285.79122 121.869898 279.331245 105.29592 
C 272.87127 88.721942 263.135401 73.606893 250.70202 60.848717 
C 238.268638 48.090541 223.388929 37.946986 206.946855 31.02065 
C 190.50478 24.094315 172.832512 20.52513 154.97991 20.52513 
L 154.97991 153.363601 
L 147.000167 285.964162 
z
" style="fill: #ff0000; stroke: #000000; stroke-linejoin: miter"/>
   </g>
   <g id="matplotlib.axis_1"/>
   <g id="matplotlib.axis_2"/>
  </g>
 </g>
</svg>
