<?xml version="1.0" encoding="utf-8" standalone="no"?>
<!DOCTYPE svg PUBLIC "-//W3C//DTD SVG 1.1//EN"
  "http://www.w3.org/Graphics/SVG/1.1/DTD/svg11.dtd">
<svg xmlns:xlink="http://www.w3.org/1999/xlink" width="20.77515pt" height="20.73402pt" viewBox="0 0 20.77515 20.73402" xmlns="http://www.w3.org/2000/svg" version="1.1">
 <metadata>
  <rdf:RDF xmlns:dc="http://purl.org/dc/elements/1.1/" xmlns:cc="http://creativecommons.org/ns#" xmlns:rdf="http://www.w3.org/1999/02/22-rdf-syntax-ns#">
   <cc:Work>
    <dc:type rdf:resource="http://purl.org/dc/dcmitype/StillImage"/>
    <dc:date>2021-12-14T09:21:03.331472</dc:date>
    <dc:format>image/svg+xml</dc:format>
    <dc:creator>
     <cc:Agent>
      <dc:title>Matplotlib v3.5.0, https://matplotlib.org/</dc:title>
     </cc:Agent>
    </dc:creator>
   </cc:Work>
  </rdf:RDF>
 </metadata>
 <defs>
  <style type="text/css">*{stroke-linejoin: round; stroke-linecap: butt}</style>
 </defs>
 <g id="figure_1">
  <g id="patch_1">
   <path d="M 0 20.73402 
L 20.77515 20.73402 
L 20.77515 -0 
L 0 -0 
L 0 20.73402 
z
" style="fill: none"/>
  </g>
  <g id="axes_1">
   <g id="patch_2">
    <path d="M 10.386914 7.469893 
C 10.005798 7.469893 9.628404 7.54513 9.276425 7.691279 
C 8.924445 7.837428 8.604755 8.051635 8.335729 8.321588 
C 8.066702 8.59154 7.853596 8.911965 7.708657 9.264444 
C 7.563719 9.616924 7.48978 9.994574 7.49109 10.375688 
C 7.4924 10.756801 7.568933 11.133934 7.716291 11.485409 
C 7.863649 11.836885 8.078954 12.155837 8.349829 12.423933 
C 8.620705 12.69203 8.94186 12.904034 9.294836 13.04776 
C 9.647812 13.191486 10.025714 13.264127 10.406821 13.261507 
L 10.386914 10.365734 
L 10.386914 7.469893 
z
" style="fill: #0000ff"/>
   </g>
   <g id="patch_3">
    <path d="M 10.406821 13.261507 
C 11.172812 13.256241 11.906262 12.947254 12.445113 12.402819 
C 12.983963 11.858383 13.28537 11.121785 13.282738 10.355781 
C 13.280105 9.589776 12.973641 8.855268 12.43106 8.314549 
C 11.88848 7.773831 11.152923 7.469893 10.386914 7.469893 
L 10.386914 10.365734 
L 10.406821 13.261507 
z
" style="fill: #ff0000"/>
   </g>
   <g id="matplotlib.axis_1"/>
   <g id="matplotlib.axis_2"/>
  </g>
 </g>
</svg>
