<?xml version="1.0" encoding="utf-8" standalone="no"?>
<!DOCTYPE svg PUBLIC "-//W3C//DTD SVG 1.1//EN"
  "http://www.w3.org/Graphics/SVG/1.1/DTD/svg11.dtd">
<svg xmlns:xlink="http://www.w3.org/1999/xlink" width="371.52pt" height="280.512pt" viewBox="0 0 371.52 280.512" xmlns="http://www.w3.org/2000/svg" version="1.1">
 <metadata>
  <rdf:RDF xmlns:dc="http://purl.org/dc/elements/1.1/" xmlns:cc="http://creativecommons.org/ns#" xmlns:rdf="http://www.w3.org/1999/02/22-rdf-syntax-ns#">
   <cc:Work>
    <dc:type rdf:resource="http://purl.org/dc/dcmitype/StillImage"/>
    <dc:date>2021-12-03T16:10:13.745934</dc:date>
    <dc:format>image/svg+xml</dc:format>
    <dc:creator>
     <cc:Agent>
      <dc:title>Matplotlib v3.5.0, https://matplotlib.org/</dc:title>
     </cc:Agent>
    </dc:creator>
   </cc:Work>
  </rdf:RDF>
 </metadata>
 <defs>
  <style type="text/css">*{stroke-linejoin: round; stroke-linecap: butt}</style>
 </defs>
 <g id="figure_1">
  <g id="patch_1">
   <path d="M 0 280.512 
L 371.52 280.512 
L 371.52 0 
L 0 0 
L 0 280.512 
z
" style="fill: none"/>
  </g>
  <g id="axes_1">
   <g id="patch_2">
    <path d="M 185.732382 19.296 
C 169.82009 19.296 154.06321 22.437277 139.367407 28.539278 
C 124.671605 34.641278 111.323941 43.58481 100.091605 54.85582 
C 88.85927 66.12683 79.96167 79.505156 73.910218 94.221846 
C 67.858766 108.938535 64.771667 124.70612 64.826361 140.618318 
C 64.881055 156.530515 68.076474 172.276505 74.228951 186.951247 
C 80.381428 201.625989 89.370786 214.942834 100.680337 226.136362 
C 111.989889 237.32989 125.398719 246.181453 140.136122 252.182285 
C 154.873525 258.183116 170.651627 261.216 186.563543 261.106613 
L 185.732382 140.202735 
L 185.732382 19.296 
z
" style="fill: #0000ff"/>
   </g>
   <g id="patch_3">
    <path d="M 186.563543 261.106613 
C 218.545087 260.886754 249.168007 247.985978 271.666009 225.254779 
C 294.164011 202.523581 306.748333 171.769263 306.638402 139.787152 
C 306.528472 107.805041 293.733031 77.137959 271.079297 54.561958 
C 248.425563 31.985957 217.714682 19.296 185.732382 19.296 
L 185.732382 140.202735 
L 186.563543 261.106613 
z
" style="fill: #bf00bf"/>
   </g>
   <g id="matplotlib.axis_1"/>
   <g id="matplotlib.axis_2"/>
  </g>
 </g>
</svg>
