<?xml version="1.0" encoding="utf-8" standalone="no"?>
<!DOCTYPE svg PUBLIC "-//W3C//DTD SVG 1.1//EN"
  "http://www.w3.org/Graphics/SVG/1.1/DTD/svg11.dtd">
<svg xmlns:xlink="http://www.w3.org/1999/xlink" width="91.7388pt" height="91.23984pt" viewBox="0 0 91.7388 91.23984" xmlns="http://www.w3.org/2000/svg" version="1.1">
 <metadata>
  <rdf:RDF xmlns:dc="http://purl.org/dc/elements/1.1/" xmlns:cc="http://creativecommons.org/ns#" xmlns:rdf="http://www.w3.org/1999/02/22-rdf-syntax-ns#">
   <cc:Work>
    <dc:type rdf:resource="http://purl.org/dc/dcmitype/StillImage"/>
    <dc:date>2021-12-14T09:20:58.727481</dc:date>
    <dc:format>image/svg+xml</dc:format>
    <dc:creator>
     <cc:Agent>
      <dc:title>Matplotlib v3.5.0, https://matplotlib.org/</dc:title>
     </cc:Agent>
    </dc:creator>
   </cc:Work>
  </rdf:RDF>
 </metadata>
 <defs>
  <style type="text/css">*{stroke-linejoin: round; stroke-linecap: butt}</style>
 </defs>
 <g id="figure_1">
  <g id="patch_1">
   <path d="M 0 91.23984 
L 91.7388 91.23984 
L 91.7388 0 
L 0 0 
L 0 91.23984 
z
" style="fill: none"/>
  </g>
  <g id="axes_1">
   <g id="patch_2">
    <path d="M 45.905467 10.506407 
C 36.709704 10.506407 27.873535 14.125472 21.319769 20.576068 
C 14.766003 27.026664 11.0072 35.804301 10.8613 44.998906 
C 10.7154 54.193511 14.193814 63.085987 20.539617 69.741274 
C 26.885419 76.39656 35.602314 80.294156 44.793447 80.585919 
L 45.905467 45.554986 
L 45.905467 10.506407 
z
" style="fill: #0000ff"/>
   </g>
   <g id="patch_3">
    <path d="M 44.793447 80.585919 
C 49.440433 80.733433 54.07066 79.954822 58.41382 78.295541 
C 62.756979 76.636261 66.726877 74.12924 70.091753 70.920837 
C 73.45663 67.712434 76.149707 63.866322 78.013765 59.607034 
C 79.877822 55.347746 80.875867 50.759811 80.949633 46.111069 
C 81.0234 41.462327 80.171425 36.845036 78.443445 32.528749 
C 76.715465 28.212463 74.145774 24.282841 70.884388 20.969292 
C 67.623002 17.655743 63.734646 15.024027 59.44632 13.227781 
C 55.157993 11.431536 50.554801 10.506408 45.905473 10.506407 
L 45.905467 45.554986 
L 44.793447 80.585919 
z
" style="fill: #ff0000"/>
   </g>
   <g id="matplotlib.axis_1"/>
   <g id="matplotlib.axis_2"/>
  </g>
 </g>
</svg>
