<?xml version="1.0" encoding="utf-8" standalone="no"?>
<!DOCTYPE svg PUBLIC "-//W3C//DTD SVG 1.1//EN"
  "http://www.w3.org/Graphics/SVG/1.1/DTD/svg11.dtd">
<svg xmlns:xlink="http://www.w3.org/1999/xlink" width="35.7435pt" height="35.6058pt" viewBox="0 0 35.7435 35.6058" xmlns="http://www.w3.org/2000/svg" version="1.1">
 <metadata>
  <rdf:RDF xmlns:dc="http://purl.org/dc/elements/1.1/" xmlns:cc="http://creativecommons.org/ns#" xmlns:rdf="http://www.w3.org/1999/02/22-rdf-syntax-ns#">
   <cc:Work>
    <dc:type rdf:resource="http://purl.org/dc/dcmitype/StillImage"/>
    <dc:date>2022-01-14T17:05:56.660388</dc:date>
    <dc:format>image/svg+xml</dc:format>
    <dc:creator>
     <cc:Agent>
      <dc:title>Matplotlib v3.5.1, https://matplotlib.org/</dc:title>
     </cc:Agent>
    </dc:creator>
   </cc:Work>
  </rdf:RDF>
 </metadata>
 <defs>
  <style type="text/css">*{stroke-linejoin: round; stroke-linecap: butt}</style>
 </defs>
 <g id="figure_1">
  <g id="patch_1">
   <path d="M -0 35.6058 
L 35.7435 35.6058 
L 35.7435 0 
L -0 0 
L -0 35.6058 
z
" style="fill: none"/>
  </g>
  <g id="axes_1">
   <g id="patch_2">
    <path d="M 17.927439 8.1639 
C 15.576823 8.1639 13.306907 9.035252 11.555223 10.61 
C 9.80354 12.184749 8.690363 14.354768 8.430261 16.70178 
C 8.170159 19.048792 8.780991 21.411646 10.145018 23.334894 
C 11.509045 25.258143 13.532609 26.609732 15.825662 27.129138 
L 17.927439 17.764064 
L 17.927439 8.1639 
z
" style="fill: #0000ff; stroke: #000000; stroke-linejoin: miter"/>
   </g>
   <g id="patch_3">
    <path d="M 15.825662 27.129138 
C 17.136816 27.426131 18.495708 27.4419 19.813339 27.175411 
C 21.130971 26.908923 22.377934 26.366124 23.47256 25.582567 
C 24.567186 24.799009 25.485044 23.792179 26.16602 22.62802 
C 26.846996 21.463861 27.275892 20.168354 27.424616 18.826347 
C 27.573341 17.484341 27.438575 16.125787 27.029146 14.839663 
C 26.619717 13.553539 25.944761 12.36855 25.048486 11.362304 
C 24.15221 10.356059 23.054618 9.551016 21.827596 8.999901 
C 20.600573 8.448787 19.271505 8.1639 17.927439 8.1639 
L 17.927439 17.764064 
L 15.825662 27.129138 
z
" style="fill: #ff0000; stroke: #000000; stroke-linejoin: miter"/>
   </g>
   <g id="matplotlib.axis_1"/>
   <g id="matplotlib.axis_2"/>
  </g>
 </g>
</svg>
