<?xml version="1.0" encoding="utf-8" standalone="no"?>
<!DOCTYPE svg PUBLIC "-//W3C//DTD SVG 1.1//EN"
  "http://www.w3.org/Graphics/SVG/1.1/DTD/svg11.dtd">
<svg xmlns:xlink="http://www.w3.org/1999/xlink" width="371.52pt" height="280.512pt" viewBox="0 0 371.52 280.512" xmlns="http://www.w3.org/2000/svg" version="1.1">
 <metadata>
  <rdf:RDF xmlns:dc="http://purl.org/dc/elements/1.1/" xmlns:cc="http://creativecommons.org/ns#" xmlns:rdf="http://www.w3.org/1999/02/22-rdf-syntax-ns#">
   <cc:Work>
    <dc:type rdf:resource="http://purl.org/dc/dcmitype/StillImage"/>
    <dc:date>2021-12-03T16:10:09.897045</dc:date>
    <dc:format>image/svg+xml</dc:format>
    <dc:creator>
     <cc:Agent>
      <dc:title>Matplotlib v3.5.0, https://matplotlib.org/</dc:title>
     </cc:Agent>
    </dc:creator>
   </cc:Work>
  </rdf:RDF>
 </metadata>
 <defs>
  <style type="text/css">*{stroke-linejoin: round; stroke-linecap: butt}</style>
 </defs>
 <g id="figure_1">
  <g id="patch_1">
   <path d="M 0 280.512 
L 371.52 280.512 
L 371.52 0 
L 0 0 
L 0 280.512 
z
" style="fill: none"/>
  </g>
  <g id="axes_1">
   <g id="patch_2">
    <path d="M 186.462078 19.296 
C 156.827395 19.296 128.210107 30.230613 106.126275 49.992163 
C 84.042444 69.753712 70.008399 96.985321 66.729242 126.438022 
C 63.450085 155.890723 71.150971 185.54222 88.347532 209.677106 
C 105.544094 233.811992 131.055572 250.773106 159.964561 257.291146 
L 186.462078 139.768642 
L 186.462078 19.296 
z
" style="fill: #0000ff"/>
   </g>
   <g id="patch_3">
    <path d="M 159.964561 257.291146 
C 176.494533 261.018119 193.62636 261.216 210.238007 257.871828 
C 226.849654 254.527657 242.570371 247.71607 256.370542 237.883188 
C 270.170713 228.050305 281.742338 215.415584 290.32754 200.806526 
C 298.912743 186.197467 304.319913 169.940125 306.194914 153.099262 
C 308.069915 136.258399 306.370898 119.20988 301.209139 103.070284 
C 296.04738 86.930689 287.538083 72.060231 276.238557 59.432839 
C 264.939032 46.805448 251.101468 36.702949 235.632145 29.786998 
C 220.162823 22.871048 203.406998 19.296 186.462078 19.296 
L 186.462078 139.768642 
L 159.964561 257.291146 
z
" style="fill: #bf00bf"/>
   </g>
   <g id="matplotlib.axis_1"/>
   <g id="matplotlib.axis_2"/>
  </g>
 </g>
</svg>
