<?xml version="1.0" encoding="utf-8" standalone="no"?>
<!DOCTYPE svg PUBLIC "-//W3C//DTD SVG 1.1//EN"
  "http://www.w3.org/Graphics/SVG/1.1/DTD/svg11.dtd">
<svg xmlns:xlink="http://www.w3.org/1999/xlink" width="371.52pt" height="280.512pt" viewBox="0 0 371.52 280.512" xmlns="http://www.w3.org/2000/svg" version="1.1">
 <metadata>
  <rdf:RDF xmlns:dc="http://purl.org/dc/elements/1.1/" xmlns:cc="http://creativecommons.org/ns#" xmlns:rdf="http://www.w3.org/1999/02/22-rdf-syntax-ns#">
   <cc:Work>
    <dc:type rdf:resource="http://purl.org/dc/dcmitype/StillImage"/>
    <dc:date>2021-12-10T18:14:57.334930</dc:date>
    <dc:format>image/svg+xml</dc:format>
    <dc:creator>
     <cc:Agent>
      <dc:title>Matplotlib v3.5.0, https://matplotlib.org/</dc:title>
     </cc:Agent>
    </dc:creator>
   </cc:Work>
  </rdf:RDF>
 </metadata>
 <defs>
  <style type="text/css">*{stroke-linejoin: round; stroke-linecap: butt}</style>
 </defs>
 <g id="figure_1">
  <g id="patch_1">
   <path d="M 0 280.512 
L 371.52 280.512 
L 371.52 0 
L 0 0 
L 0 280.512 
z
" style="fill: none"/>
  </g>
  <g id="axes_1">
   <g id="patch_2">
    <path d="M 186.219823 19.296 
C 155.658056 19.296 126.214167 30.932478 103.909585 51.825712 
C 81.605004 72.718946 68.071429 101.340487 66.076547 131.837077 
C 64.081666 162.333668 73.771414 192.474322 93.164187 216.095116 
C 112.556961 239.715911 140.234075 255.08886 170.535415 259.070114 
L 186.219823 139.696041 
L 186.219823 19.296 
z
" style="fill: #0000ff"/>
   </g>
   <g id="patch_3">
    <path d="M 170.535415 259.070114 
C 186.867757 261.216 203.468065 259.987431 219.306569 255.460618 
C 235.145072 250.933805 249.887352 243.20433 262.618898 232.751677 
C 275.350444 222.299023 285.802437 209.343892 293.326508 194.689931 
C 300.850579 180.035969 305.287862 163.992587 306.363098 147.555005 
C 307.438334 131.117424 305.12882 114.632711 299.577823 99.123467 
C 294.026825 83.614223 285.35155 69.407914 274.090152 57.385804 
C 262.828754 45.363694 249.21901 35.77962 234.105175 29.228114 
C 218.991341 22.676608 202.692534 19.296 186.219823 19.296 
L 186.219823 139.696041 
L 170.535415 259.070114 
z
" style="fill: #ff0000"/>
   </g>
   <g id="matplotlib.axis_1"/>
   <g id="matplotlib.axis_2"/>
  </g>
 </g>
</svg>
