<?xml version="1.0" encoding="utf-8" standalone="no"?>
<!DOCTYPE svg PUBLIC "-//W3C//DTD SVG 1.1//EN"
  "http://www.w3.org/Graphics/SVG/1.1/DTD/svg11.dtd">
<svg xmlns:xlink="http://www.w3.org/1999/xlink" width="86.94pt" height="86.472pt" viewBox="0 0 86.94 86.472" xmlns="http://www.w3.org/2000/svg" version="1.1">
 <metadata>
  <rdf:RDF xmlns:dc="http://purl.org/dc/elements/1.1/" xmlns:cc="http://creativecommons.org/ns#" xmlns:rdf="http://www.w3.org/1999/02/22-rdf-syntax-ns#">
   <cc:Work>
    <dc:type rdf:resource="http://purl.org/dc/dcmitype/StillImage"/>
    <dc:date>2021-12-14T09:21:00.543591</dc:date>
    <dc:format>image/svg+xml</dc:format>
    <dc:creator>
     <cc:Agent>
      <dc:title>Matplotlib v3.5.0, https://matplotlib.org/</dc:title>
     </cc:Agent>
    </dc:creator>
   </cc:Work>
  </rdf:RDF>
 </metadata>
 <defs>
  <style type="text/css">*{stroke-linejoin: round; stroke-linecap: butt}</style>
 </defs>
 <g id="figure_1">
  <g id="patch_1">
   <path d="M 0 86.472 
L 86.94 86.472 
L 86.94 0 
L 0 0 
L 0 86.472 
z
" style="fill: none"/>
  </g>
  <g id="axes_1">
   <g id="patch_2">
    <path d="M 43.425431 10.476002 
C 39.054082 10.476002 34.726402 11.344466 30.696703 13.030359 
C 26.667003 14.716253 23.015795 17.185893 19.957638 20.294153 
C 16.89948 23.402414 14.495474 27.087194 12.886887 31.131961 
C 11.278301 35.176727 10.497273 39.500669 10.5897 43.849694 
C 10.682127 48.198718 11.646162 52.485935 13.425155 56.459409 
C 15.204149 60.432883 17.762556 64.013228 20.950036 66.990047 
C 24.137516 69.966867 27.890384 72.280686 31.988107 73.795536 
C 36.08583 75.310385 40.446538 75.996 44.813977 75.81209 
L 43.425431 43.158657 
L 43.425431 10.476002 
z
" style="fill: #0000ff"/>
   </g>
   <g id="patch_3">
    <path d="M 44.813977 75.81209 
C 53.393443 75.450814 61.497383 71.755223 67.373795 65.524272 
C 73.250207 59.293321 76.442727 51.010907 76.261161 42.467617 
C 76.079595 33.924327 72.538043 25.783634 66.402158 19.805486 
C 60.266272 13.827338 52.012568 10.476 43.425424 10.476002 
L 43.425431 43.158657 
L 44.813977 75.81209 
z
" style="fill: #ff0000"/>
   </g>
   <g id="matplotlib.axis_1"/>
   <g id="matplotlib.axis_2"/>
  </g>
 </g>
</svg>
