<?xml version="1.0" encoding="utf-8" standalone="no"?>
<!DOCTYPE svg PUBLIC "-//W3C//DTD SVG 1.1//EN"
  "http://www.w3.org/Graphics/SVG/1.1/DTD/svg11.dtd">
<svg xmlns:xlink="http://www.w3.org/1999/xlink" width="26.0343pt" height="25.95924pt" viewBox="0 0 26.0343 25.95924" xmlns="http://www.w3.org/2000/svg" version="1.1">
 <metadata>
  <rdf:RDF xmlns:dc="http://purl.org/dc/elements/1.1/" xmlns:cc="http://creativecommons.org/ns#" xmlns:rdf="http://www.w3.org/1999/02/22-rdf-syntax-ns#">
   <cc:Work>
    <dc:type rdf:resource="http://purl.org/dc/dcmitype/StillImage"/>
    <dc:date>2022-01-14T17:05:58.499667</dc:date>
    <dc:format>image/svg+xml</dc:format>
    <dc:creator>
     <cc:Agent>
      <dc:title>Matplotlib v3.5.1, https://matplotlib.org/</dc:title>
     </cc:Agent>
    </dc:creator>
   </cc:Work>
  </rdf:RDF>
 </metadata>
 <defs>
  <style type="text/css">*{stroke-linejoin: round; stroke-linecap: butt}</style>
 </defs>
 <g id="figure_1">
  <g id="patch_1">
   <path d="M 0 25.95924 
L 26.0343 25.95924 
L 26.0343 0 
L 0 0 
L 0 25.95924 
z
" style="fill: none"/>
  </g>
  <g id="axes_1">
   <g id="patch_2">
    <path d="M 13.028293 7.72542 
C 11.665565 7.72542 10.354856 8.25336 9.375068 9.196901 
C 8.395279 10.140442 7.821213 11.42755 7.775022 12.784344 
C 7.728832 14.141139 8.214044 15.464036 9.127411 16.471541 
C 10.040779 17.479046 11.312572 18.09424 12.672168 18.186219 
L 13.028293 12.961836 
L 13.028293 7.72542 
z
" style="fill: #0000ff; stroke: #000000; stroke-linejoin: miter"/>
   </g>
   <g id="patch_3">
    <path d="M 12.672168 18.186219 
C 13.375792 18.23382 14.08189 18.139864 14.748308 17.909959 
C 15.414726 17.680055 16.027932 17.31887 16.55132 16.847967 
C 17.074707 16.377064 17.497649 15.806004 17.794896 15.16888 
C 18.092143 14.531755 18.257659 13.841502 18.281563 13.139327 
C 18.305468 12.437152 18.187276 11.737313 17.934043 11.08159 
C 17.68081 10.425866 17.297677 9.827572 16.807518 9.322424 
C 16.317359 8.817277 15.730125 8.415533 15.080874 8.141176 
C 14.431624 7.866819 13.733538 7.72542 13.028293 7.72542 
L 13.028293 12.961836 
L 12.672168 18.186219 
z
" style="fill: #ff0000; stroke: #000000; stroke-linejoin: miter"/>
   </g>
   <g id="matplotlib.axis_1"/>
   <g id="matplotlib.axis_2"/>
  </g>
 </g>
</svg>
