<?xml version="1.0" encoding="utf-8" standalone="no"?>
<!DOCTYPE svg PUBLIC "-//W3C//DTD SVG 1.1//EN"
  "http://www.w3.org/Graphics/SVG/1.1/DTD/svg11.dtd">
<svg xmlns:xlink="http://www.w3.org/1999/xlink" width="371.52pt" height="280.512pt" viewBox="0 0 371.52 280.512" xmlns="http://www.w3.org/2000/svg" version="1.1">
 <metadata>
  <rdf:RDF xmlns:dc="http://purl.org/dc/elements/1.1/" xmlns:cc="http://creativecommons.org/ns#" xmlns:rdf="http://www.w3.org/1999/02/22-rdf-syntax-ns#">
   <cc:Work>
    <dc:type rdf:resource="http://purl.org/dc/dcmitype/StillImage"/>
    <dc:date>2021-12-10T18:14:58.245929</dc:date>
    <dc:format>image/svg+xml</dc:format>
    <dc:creator>
     <cc:Agent>
      <dc:title>Matplotlib v3.5.0, https://matplotlib.org/</dc:title>
     </cc:Agent>
    </dc:creator>
   </cc:Work>
  </rdf:RDF>
 </metadata>
 <defs>
  <style type="text/css">*{stroke-linejoin: round; stroke-linecap: butt}</style>
 </defs>
 <g id="figure_1">
  <g id="patch_1">
   <path d="M 0 280.512 
L 371.52 280.512 
L 371.52 0 
L 0 0 
L 0 280.512 
z
" style="fill: none"/>
  </g>
  <g id="axes_1">
   <g id="patch_2">
    <path d="M 186.678723 19.296 
C 158.286854 19.296 130.790127 29.338792 109.081525 47.637283 
C 87.372922 65.935773 72.821305 91.33613 68.016103 119.318414 
C 63.210901 147.300698 68.455111 176.100454 82.815538 200.592827 
C 97.175964 225.0852 119.747093 243.725795 146.512442 253.197559 
L 186.678723 139.695517 
L 186.678723 19.296 
z
" style="fill: #0000ff"/>
   </g>
   <g id="patch_3">
    <path d="M 146.512442 253.197559 
C 163.043078 259.047446 180.653868 261.216 198.109852 259.55115 
C 215.565836 257.886301 232.449212 252.427895 247.576028 243.558705 
C 262.702844 234.689515 275.711047 222.621821 285.688433 208.201874 
C 295.665818 193.781927 302.373582 177.354862 305.341341 160.072631 
C 308.309099 142.7904 307.46582 125.066646 302.870639 108.144252 
C 298.275457 91.221858 290.038357 75.505855 278.736968 62.098332 
C 267.435578 48.690808 253.340393 37.912667 237.43984 30.519729 
C 221.539288 23.126791 204.213941 19.296003 186.678745 19.296 
L 186.678723 139.695517 
L 146.512442 253.197559 
z
" style="fill: #ff0000"/>
   </g>
   <g id="matplotlib.axis_1"/>
   <g id="matplotlib.axis_2"/>
  </g>
 </g>
</svg>
