<?xml version="1.0" encoding="utf-8" standalone="no"?>
<!DOCTYPE svg PUBLIC "-//W3C//DTD SVG 1.1//EN"
  "http://www.w3.org/Graphics/SVG/1.1/DTD/svg11.dtd">
<svg xmlns:xlink="http://www.w3.org/1999/xlink" width="371.52pt" height="280.512pt" viewBox="0 0 371.52 280.512" xmlns="http://www.w3.org/2000/svg" version="1.1">
 <metadata>
  <rdf:RDF xmlns:dc="http://purl.org/dc/elements/1.1/" xmlns:cc="http://creativecommons.org/ns#" xmlns:rdf="http://www.w3.org/1999/02/22-rdf-syntax-ns#">
   <cc:Work>
    <dc:type rdf:resource="http://purl.org/dc/dcmitype/StillImage"/>
    <dc:date>2021-12-03T16:10:11.801227</dc:date>
    <dc:format>image/svg+xml</dc:format>
    <dc:creator>
     <cc:Agent>
      <dc:title>Matplotlib v3.5.0, https://matplotlib.org/</dc:title>
     </cc:Agent>
    </dc:creator>
   </cc:Work>
  </rdf:RDF>
 </metadata>
 <defs>
  <style type="text/css">*{stroke-linejoin: round; stroke-linecap: butt}</style>
 </defs>
 <g id="figure_1">
  <g id="patch_1">
   <path d="M 0 280.512 
L 371.52 280.512 
L 371.52 0 
L 0 0 
L 0 280.512 
z
" style="fill: none"/>
  </g>
  <g id="axes_1">
   <g id="patch_2">
    <path d="M 186.015556 19.296 
C 154.762041 19.296 124.701538 31.450014 102.230547 53.171819 
C 79.759557 74.893625 66.593609 104.524887 65.534253 135.760444 
C 64.474898 166.996001 75.60301 197.451198 96.550666 220.645549 
C 117.498323 243.8399 146.666291 258.002651 177.847992 260.120145 
L 186.015556 139.846574 
L 186.015556 19.296 
z
" style="fill: #0000ff"/>
   </g>
   <g id="patch_3">
    <path d="M 177.847992 260.120145 
C 193.985293 261.216 210.179318 259.052979 225.463296 253.760211 
C 240.747274 248.467444 254.810881 240.152394 266.814531 229.311464 
C 278.818181 218.470534 288.518153 205.323837 295.335366 190.65622 
C 302.152579 175.988604 305.948617 160.097876 306.49686 143.932704 
C 307.045102 127.767532 304.334418 111.656129 298.526633 96.560335 
C 292.718848 81.464541 283.931882 67.690858 272.690311 56.061565 
C 261.44874 44.432272 247.980811 35.183488 233.090549 28.86736 
C 218.200288 22.551232 202.190023 19.296 186.015556 19.296 
L 186.015556 139.846574 
L 177.847992 260.120145 
z
" style="fill: #bf00bf"/>
   </g>
   <g id="matplotlib.axis_1"/>
   <g id="matplotlib.axis_2"/>
  </g>
 </g>
</svg>
