<?xml version="1.0" encoding="utf-8" standalone="no"?>
<!DOCTYPE svg PUBLIC "-//W3C//DTD SVG 1.1//EN"
  "http://www.w3.org/Graphics/SVG/1.1/DTD/svg11.dtd">
<svg xmlns:xlink="http://www.w3.org/1999/xlink" width="371.52pt" height="280.512pt" viewBox="0 0 371.52 280.512" xmlns="http://www.w3.org/2000/svg" version="1.1">
 <metadata>
  <rdf:RDF xmlns:dc="http://purl.org/dc/elements/1.1/" xmlns:cc="http://creativecommons.org/ns#" xmlns:rdf="http://www.w3.org/1999/02/22-rdf-syntax-ns#">
   <cc:Work>
    <dc:type rdf:resource="http://purl.org/dc/dcmitype/StillImage"/>
    <dc:date>2021-12-10T18:14:43.350319</dc:date>
    <dc:format>image/svg+xml</dc:format>
    <dc:creator>
     <cc:Agent>
      <dc:title>Matplotlib v3.5.0, https://matplotlib.org/</dc:title>
     </cc:Agent>
    </dc:creator>
   </cc:Work>
  </rdf:RDF>
 </metadata>
 <defs>
  <style type="text/css">*{stroke-linejoin: round; stroke-linecap: butt}</style>
 </defs>
 <g id="figure_1">
  <g id="patch_1">
   <path d="M 0 280.512 
L 371.52 280.512 
L 371.52 0 
L 0 0 
L 0 280.512 
z
" style="fill: none"/>
  </g>
  <g id="axes_1">
   <g id="patch_2">
    <path d="M 186.659085 19.296 
C 159.671684 19.296 133.44844 28.346221 112.205696 44.991509 
C 90.962952 61.636798 75.903698 84.93452 69.449258 111.138719 
C 62.994819 137.342917 65.510712 164.969631 76.592418 189.576857 
C 87.674123 214.184084 106.694077 234.378301 130.594126 246.912551 
L 186.659085 140.009045 
L 186.659085 19.296 
z
" style="fill: #0000ff"/>
   </g>
   <g id="patch_3">
    <path d="M 130.594126 246.912551 
C 146.807975 255.415816 164.745855 260.120011 183.045967 260.668005 
C 201.346078 261.216 219.533298 257.593567 236.226897 250.075713 
C 252.920497 242.557858 267.687061 231.339767 279.40555 217.27309 
C 291.124038 203.206412 299.490205 186.65636 303.868912 168.879372 
C 308.247619 151.102383 308.525181 132.560001 304.680528 114.659916 
C 300.835874 96.759832 292.968823 79.966783 281.676621 65.555656 
C 270.384419 51.14453 255.960245 39.48948 239.499146 31.47533 
C 223.038046 23.46118 204.9674 19.296 186.659085 19.296 
L 186.659085 140.009045 
L 130.594126 246.912551 
z
" style="fill: #ff0000"/>
   </g>
   <g id="matplotlib.axis_1"/>
   <g id="matplotlib.axis_2"/>
  </g>
 </g>
</svg>
