<?xml version="1.0" encoding="utf-8" standalone="no"?>
<!DOCTYPE svg PUBLIC "-//W3C//DTD SVG 1.1//EN"
  "http://www.w3.org/Graphics/SVG/1.1/DTD/svg11.dtd">
<svg xmlns:xlink="http://www.w3.org/1999/xlink" width="371.52pt" height="280.512pt" viewBox="0 0 371.52 280.512" xmlns="http://www.w3.org/2000/svg" version="1.1">
 <metadata>
  <rdf:RDF xmlns:dc="http://purl.org/dc/elements/1.1/" xmlns:cc="http://creativecommons.org/ns#" xmlns:rdf="http://www.w3.org/1999/02/22-rdf-syntax-ns#">
   <cc:Work>
    <dc:type rdf:resource="http://purl.org/dc/dcmitype/StillImage"/>
    <dc:date>2021-12-03T16:09:56.131398</dc:date>
    <dc:format>image/svg+xml</dc:format>
    <dc:creator>
     <cc:Agent>
      <dc:title>Matplotlib v3.5.0, https://matplotlib.org/</dc:title>
     </cc:Agent>
    </dc:creator>
   </cc:Work>
  </rdf:RDF>
 </metadata>
 <defs>
  <style type="text/css">*{stroke-linejoin: round; stroke-linecap: butt}</style>
 </defs>
 <g id="figure_1">
  <g id="patch_1">
   <path d="M 0 280.512 
L 371.52 280.512 
L 371.52 0 
L 0 0 
L 0 280.512 
z
" style="fill: none"/>
  </g>
  <g id="axes_1">
   <g id="patch_2">
    <path d="M 186.333253 19.296 
C 156.178903 19.296 127.097731 30.622614 104.886996 51.017909 
C 82.676262 71.413204 68.916901 99.425464 66.351809 129.470516 
C 63.786717 159.515567 72.598475 189.454833 91.030479 213.319996 
C 109.462484 237.185159 136.202765 253.277522 165.920713 258.38911 
L 186.333253 139.713914 
L 186.333253 19.296 
z
" style="fill: #0000ff"/>
   </g>
   <g id="patch_3">
    <path d="M 165.920713 258.38911 
C 182.355792 261.216 199.200321 260.598221 215.38417 256.57502 
C 231.568019 252.55182 246.741054 245.210239 259.939335 235.016687 
C 273.137616 224.823136 284.0756 211.998148 292.0584 197.356495 
C 300.0412 182.714841 304.896109 166.57329 306.314696 149.957312 
C 307.733283 133.341334 305.684856 116.610412 300.299553 100.827459 
C 294.914249 85.044505 286.308579 70.550981 275.029258 58.267658 
C 263.749937 45.984334 250.040991 36.176958 234.773348 29.468591 
C 219.505705 22.760224 203.009676 19.296 186.333253 19.296 
L 186.333253 139.713914 
L 165.920713 258.38911 
z
" style="fill: #bf00bf"/>
   </g>
   <g id="matplotlib.axis_1"/>
   <g id="matplotlib.axis_2"/>
  </g>
 </g>
</svg>
