<?xml version="1.0" encoding="utf-8" standalone="no"?>
<!DOCTYPE svg PUBLIC "-//W3C//DTD SVG 1.1//EN"
  "http://www.w3.org/Graphics/SVG/1.1/DTD/svg11.dtd">
<svg xmlns:xlink="http://www.w3.org/1999/xlink" width="519.1947pt" height="515.93796pt" viewBox="0 0 519.1947 515.93796" xmlns="http://www.w3.org/2000/svg" version="1.1">
 <metadata>
  <rdf:RDF xmlns:dc="http://purl.org/dc/elements/1.1/" xmlns:cc="http://creativecommons.org/ns#" xmlns:rdf="http://www.w3.org/1999/02/22-rdf-syntax-ns#">
   <cc:Work>
    <dc:type rdf:resource="http://purl.org/dc/dcmitype/StillImage"/>
    <dc:date>2022-01-14T17:05:42.892518</dc:date>
    <dc:format>image/svg+xml</dc:format>
    <dc:creator>
     <cc:Agent>
      <dc:title>Matplotlib v3.5.1, https://matplotlib.org/</dc:title>
     </cc:Agent>
    </dc:creator>
   </cc:Work>
  </rdf:RDF>
 </metadata>
 <defs>
  <style type="text/css">*{stroke-linejoin: round; stroke-linecap: butt}</style>
 </defs>
 <g id="figure_1">
  <g id="patch_1">
   <path d="M 0 515.93796 
L 519.1947 515.93796 
L 519.1947 0 
L 0 0 
L 0 515.93796 
z
" style="fill: none"/>
  </g>
  <g id="axes_1">
   <g id="patch_2">
    <path d="M 260.675734 29.99718 
C 203.950361 29.99718 149.243815 51.344307 107.46171 89.783065 
C 65.679604 128.221823 39.795947 181.01618 34.97058 237.641712 
C 30.145214 294.267245 46.721602 350.693406 81.395284 395.671781 
C 116.068966 440.650155 166.371905 470.979229 222.276334 480.612976 
L 260.675734 256.947317 
L 260.675734 29.99718 
z
" style="fill: #0000ff; stroke: #000000; stroke-linejoin: miter"/>
   </g>
   <g id="patch_3">
    <path d="M 222.276334 480.612976 
C 253.193465 485.94078 284.88084 484.776459 315.325366 477.193984 
C 345.769892 469.611508 374.312908 455.774923 399.14108 436.563263 
C 423.969253 417.351604 444.545431 393.18051 459.562412 365.585569 
C 474.579393 337.990627 483.712289 307.568848 486.380888 276.252922 
C 489.049486 244.936996 485.196054 213.404436 475.065397 183.658501 
C 464.934741 153.912566 448.746036 126.596802 427.527748 103.446576 
C 406.309459 80.29635 380.520641 61.812511 351.799652 49.169336 
C 323.078663 36.52616 292.046875 29.99718 260.675734 29.99718 
L 260.675734 256.947317 
L 222.276334 480.612976 
z
" style="fill: #ff0000; stroke: #000000; stroke-linejoin: miter"/>
   </g>
   <g id="matplotlib.axis_1"/>
   <g id="matplotlib.axis_2"/>
  </g>
 </g>
</svg>
