<?xml version="1.0" encoding="utf-8" standalone="no"?>
<!DOCTYPE svg PUBLIC "-//W3C//DTD SVG 1.1//EN"
  "http://www.w3.org/Graphics/SVG/1.1/DTD/svg11.dtd">
<svg xmlns:xlink="http://www.w3.org/1999/xlink" width="371.52pt" height="280.512pt" viewBox="0 0 371.52 280.512" xmlns="http://www.w3.org/2000/svg" version="1.1">
 <metadata>
  <rdf:RDF xmlns:dc="http://purl.org/dc/elements/1.1/" xmlns:cc="http://creativecommons.org/ns#" xmlns:rdf="http://www.w3.org/1999/02/22-rdf-syntax-ns#">
   <cc:Work>
    <dc:type rdf:resource="http://purl.org/dc/dcmitype/StillImage"/>
    <dc:date>2021-12-03T16:09:57.397480</dc:date>
    <dc:format>image/svg+xml</dc:format>
    <dc:creator>
     <cc:Agent>
      <dc:title>Matplotlib v3.5.0, https://matplotlib.org/</dc:title>
     </cc:Agent>
    </dc:creator>
   </cc:Work>
  </rdf:RDF>
 </metadata>
 <defs>
  <style type="text/css">*{stroke-linejoin: round; stroke-linecap: butt}</style>
 </defs>
 <g id="figure_1">
  <g id="patch_1">
   <path d="M 0 280.512 
L 371.52 280.512 
L 371.52 0 
L 0 0 
L 0 280.512 
z
" style="fill: none"/>
  </g>
  <g id="axes_1">
   <g id="patch_2">
    <path d="M 186.310639 19.296 
C 156.073376 19.296 126.918418 30.686021 104.688875 51.183326 
C 82.459331 71.680631 68.74656 99.817866 66.298815 129.955893 
C 63.85107 160.09392 72.843579 190.075229 91.474103 213.8911 
C 110.104627 237.706971 137.039451 253.652482 166.880419 258.531905 
L 186.310639 139.702993 
L 186.310639 19.296 
z
" style="fill: #0000ff"/>
   </g>
   <g id="patch_3">
    <path d="M 166.880419 258.531905 
C 183.29547 261.216 200.090019 260.469838 216.202362 256.340589 
C 232.314704 252.21134 247.398007 244.78789 260.498746 234.539529 
C 273.599486 224.291168 284.435656 211.438502 292.322225 196.794038 
C 300.208795 182.149575 304.975997 166.028551 306.322464 149.450092 
C 307.66893 132.871633 305.565676 116.192606 300.145665 100.467411 
C 294.725653 84.742216 286.105554 70.309354 274.830306 58.081228 
C 263.555058 45.853102 249.867371 36.092935 234.632543 29.417737 
C 219.397714 22.742539 202.943687 19.296 186.310639 19.296 
L 186.310639 139.702993 
L 166.880419 258.531905 
z
" style="fill: #bf00bf"/>
   </g>
   <g id="matplotlib.axis_1"/>
   <g id="matplotlib.axis_2"/>
  </g>
 </g>
</svg>
