<?xml version="1.0" encoding="utf-8" standalone="no"?>
<!DOCTYPE svg PUBLIC "-//W3C//DTD SVG 1.1//EN"
  "http://www.w3.org/Graphics/SVG/1.1/DTD/svg11.dtd">
<svg xmlns:xlink="http://www.w3.org/1999/xlink" width="52.52535pt" height="52.27938pt" viewBox="0 0 52.52535 52.27938" xmlns="http://www.w3.org/2000/svg" version="1.1">
 <metadata>
  <rdf:RDF xmlns:dc="http://purl.org/dc/elements/1.1/" xmlns:cc="http://creativecommons.org/ns#" xmlns:rdf="http://www.w3.org/1999/02/22-rdf-syntax-ns#">
   <cc:Work>
    <dc:type rdf:resource="http://purl.org/dc/dcmitype/StillImage"/>
    <dc:date>2021-12-14T09:20:47.677125</dc:date>
    <dc:format>image/svg+xml</dc:format>
    <dc:creator>
     <cc:Agent>
      <dc:title>Matplotlib v3.5.0, https://matplotlib.org/</dc:title>
     </cc:Agent>
    </dc:creator>
   </cc:Work>
  </rdf:RDF>
 </metadata>
 <defs>
  <style type="text/css">*{stroke-linejoin: round; stroke-linecap: butt}</style>
 </defs>
 <g id="figure_1">
  <g id="patch_1">
   <path d="M 0 52.27938 
L 52.52535 52.27938 
L 52.52535 0 
L 0 0 
L 0 52.27938 
z
" style="fill: none"/>
  </g>
  <g id="axes_1">
   <g id="patch_2">
    <path d="M 26.34095 8.92179 
C 22.042636 8.92179 17.898175 10.543088 14.738182 13.460752 
C 11.578188 16.378415 9.628878 20.383574 9.280924 24.673534 
C 8.93297 28.963494 10.211281 33.231146 12.859664 36.621186 
C 15.508046 40.011227 19.336909 42.28097 23.578888 42.975526 
L 26.34095 26.060973 
L 26.34095 8.92179 
z
" style="fill: #0000ff"/>
   </g>
   <g id="patch_3">
    <path d="M 23.578888 42.975526 
C 25.912335 43.35759 28.299728 43.251378 30.590144 42.663606 
C 32.88056 42.075833 35.024695 41.019151 36.887002 39.560361 
C 38.74931 38.101571 40.289703 36.272074 41.410801 34.187526 
C 42.5319 32.102979 43.209571 29.808252 43.400975 27.448412 
C 43.59238 25.088572 43.293396 22.714416 42.522926 20.476033 
C 41.752456 18.23765 40.527084 16.183222 38.924275 14.442625 
C 37.321466 12.702028 35.375722 11.312729 33.210047 10.362556 
C 31.044373 9.412383 28.705385 8.92179 26.34095 8.92179 
L 26.34095 26.060973 
L 23.578888 42.975526 
z
" style="fill: #ff0000"/>
   </g>
   <g id="matplotlib.axis_1"/>
   <g id="matplotlib.axis_2"/>
  </g>
 </g>
</svg>
