<?xml version="1.0" encoding="utf-8" standalone="no"?>
<!DOCTYPE svg PUBLIC "-//W3C//DTD SVG 1.1//EN"
  "http://www.w3.org/Graphics/SVG/1.1/DTD/svg11.dtd">
<svg xmlns:xlink="http://www.w3.org/1999/xlink" width="48.8565pt" height="48.6342pt" viewBox="0 0 48.8565 48.6342" xmlns="http://www.w3.org/2000/svg" version="1.1">
 <metadata>
  <rdf:RDF xmlns:dc="http://purl.org/dc/elements/1.1/" xmlns:cc="http://creativecommons.org/ns#" xmlns:rdf="http://www.w3.org/1999/02/22-rdf-syntax-ns#">
   <cc:Work>
    <dc:type rdf:resource="http://purl.org/dc/dcmitype/StillImage"/>
    <dc:date>2021-12-14T09:20:48.558079</dc:date>
    <dc:format>image/svg+xml</dc:format>
    <dc:creator>
     <cc:Agent>
      <dc:title>Matplotlib v3.5.0, https://matplotlib.org/</dc:title>
     </cc:Agent>
    </dc:creator>
   </cc:Work>
  </rdf:RDF>
 </metadata>
 <defs>
  <style type="text/css">*{stroke-linejoin: round; stroke-linecap: butt}</style>
 </defs>
 <g id="figure_1">
  <g id="patch_1">
   <path d="M 0 48.6342 
L 48.8565 48.6342 
L 48.8565 0 
L 0 0 
L 0 48.6342 
z
" style="fill: none"/>
  </g>
  <g id="axes_1">
   <g id="patch_2">
    <path d="M 24.512674 8.7561 
C 20.690846 8.7561 17.001922 10.181143 14.165548 12.753227 
C 11.329174 15.325312 9.54262 18.865548 9.154412 22.683298 
C 8.766205 26.501049 9.803343 30.330787 12.063499 33.425398 
C 14.323655 36.520008 17.649635 38.664261 21.392598 39.439848 
L 24.512674 24.257919 
L 24.512674 8.7561 
z
" style="fill: #0000ff"/>
   </g>
   <g id="patch_3">
    <path d="M 21.392598 39.439848 
C 23.50759 39.8781 25.690818 39.865901 27.800822 39.404041 
C 29.910826 38.942181 31.901029 38.040856 33.642479 36.758466 
C 35.383928 35.476075 36.838182 33.840928 37.911015 31.95897 
C 38.983847 30.077013 39.651576 27.989789 39.870936 25.832537 
C 40.090295 23.675285 39.856445 21.495626 39.184535 19.434788 
C 38.512625 17.373949 37.417489 15.477423 35.970084 13.868093 
C 34.522679 12.258762 32.754955 10.972153 30.781452 10.091628 
C 28.807948 9.211103 26.672227 8.7561 24.512671 8.7561 
L 24.512674 24.257919 
L 21.392598 39.439848 
z
" style="fill: #ff0000"/>
   </g>
   <g id="matplotlib.axis_1"/>
   <g id="matplotlib.axis_2"/>
  </g>
 </g>
</svg>
