<?xml version="1.0" encoding="utf-8" standalone="no"?>
<!DOCTYPE svg PUBLIC "-//W3C//DTD SVG 1.1//EN"
  "http://www.w3.org/Graphics/SVG/1.1/DTD/svg11.dtd">
<svg xmlns:xlink="http://www.w3.org/1999/xlink" width="55.12005pt" height="54.85734pt" viewBox="0 0 55.12005 54.85734" xmlns="http://www.w3.org/2000/svg" version="1.1">
 <metadata>
  <rdf:RDF xmlns:dc="http://purl.org/dc/elements/1.1/" xmlns:cc="http://creativecommons.org/ns#" xmlns:rdf="http://www.w3.org/1999/02/22-rdf-syntax-ns#">
   <cc:Work>
    <dc:type rdf:resource="http://purl.org/dc/dcmitype/StillImage"/>
    <dc:date>2021-12-14T09:20:49.452310</dc:date>
    <dc:format>image/svg+xml</dc:format>
    <dc:creator>
     <cc:Agent>
      <dc:title>Matplotlib v3.5.0, https://matplotlib.org/</dc:title>
     </cc:Agent>
    </dc:creator>
   </cc:Work>
  </rdf:RDF>
 </metadata>
 <defs>
  <style type="text/css">*{stroke-linejoin: round; stroke-linecap: butt}</style>
 </defs>
 <g id="figure_1">
  <g id="patch_1">
   <path d="M 0 54.85734 
L 55.12005 54.85734 
L 55.12005 0 
L 0 0 
L 0 54.85734 
z
" style="fill: none"/>
  </g>
  <g id="axes_1">
   <g id="patch_2">
    <path d="M 27.411436 9.03897 
C 24.704256 9.03897 22.03039 9.638675 19.582524 10.794868 
C 17.134659 11.95106 14.973041 13.635285 13.253443 15.726172 
C 11.533845 17.81706 10.298589 20.263148 9.636692 22.888166 
C 8.974795 25.513183 8.902546 28.252524 9.425153 30.908782 
C 9.94776 33.565041 11.05236 36.072841 12.659352 38.251465 
C 14.266344 40.430089 16.336178 42.225916 18.719695 43.509534 
C 21.103211 44.793151 23.741748 45.532967 26.445165 45.675669 
C 29.148582 45.81837 31.850342 45.360444 34.35575 44.334891 
L 27.411436 27.370062 
L 27.411436 9.03897 
z
" style="fill: #0000ff"/>
   </g>
   <g id="patch_3">
    <path d="M 34.35575 44.334891 
C 38.285844 42.726163 41.537368 39.800694 43.550908 36.061803 
C 45.564448 32.322913 46.217504 27.998067 45.397719 23.831341 
C 44.577935 19.664616 42.335184 15.909507 39.055326 13.212069 
C 35.775467 10.514631 31.65804 9.03897 27.411436 9.03897 
L 27.411436 27.370062 
L 34.35575 44.334891 
z
" style="fill: #ff0000"/>
   </g>
   <g id="matplotlib.axis_1"/>
   <g id="matplotlib.axis_2"/>
  </g>
 </g>
</svg>
