<?xml version="1.0" encoding="utf-8" standalone="no"?>
<!DOCTYPE svg PUBLIC "-//W3C//DTD SVG 1.1//EN"
  "http://www.w3.org/Graphics/SVG/1.1/DTD/svg11.dtd">
<svg xmlns:xlink="http://www.w3.org/1999/xlink" width="140.13135pt" height="139.32018pt" viewBox="0 0 140.13135 139.32018" xmlns="http://www.w3.org/2000/svg" version="1.1">
 <metadata>
  <rdf:RDF xmlns:dc="http://purl.org/dc/elements/1.1/" xmlns:cc="http://creativecommons.org/ns#" xmlns:rdf="http://www.w3.org/1999/02/22-rdf-syntax-ns#">
   <cc:Work>
    <dc:type rdf:resource="http://purl.org/dc/dcmitype/StillImage"/>
    <dc:date>2022-01-14T17:05:47.016325</dc:date>
    <dc:format>image/svg+xml</dc:format>
    <dc:creator>
     <cc:Agent>
      <dc:title>Matplotlib v3.5.1, https://matplotlib.org/</dc:title>
     </cc:Agent>
    </dc:creator>
   </cc:Work>
  </rdf:RDF>
 </metadata>
 <defs>
  <style type="text/css">*{stroke-linejoin: round; stroke-linecap: butt}</style>
 </defs>
 <g id="figure_1">
  <g id="patch_1">
   <path d="M -0 139.32018 
L 140.13135 139.32018 
L 140.13135 0 
L -0 0 
L -0 139.32018 
z
" style="fill: none"/>
  </g>
  <g id="axes_1">
   <g id="patch_2">
    <path d="M 70.03233 12.545077 
C 62.497592 12.545077 55.036958 14.037708 48.082192 16.936589 
C 41.127426 19.83547 34.815329 24.083579 29.511195 29.435069 
C 24.207061 34.786559 20.015223 41.136165 17.178272 48.116422 
C 14.341322 55.09668 12.915061 62.570286 12.982032 70.104726 
C 13.049003 77.639167 14.607887 85.086239 17.568469 92.014965 
C 20.529051 98.94369 24.833095 105.21778 30.231518 110.474139 
C 35.629941 115.730498 42.016555 119.865733 49.021752 122.64053 
C 56.026949 125.415326 63.512937 126.775103 71.046485 126.641167 
L 70.03233 69.597629 
L 70.03233 12.545077 
z
" style="fill: #0000ff; stroke: #000000; stroke-linejoin: miter"/>
   </g>
   <g id="patch_3">
    <path d="M 71.046485 126.641167 
C 86.081906 126.373858 100.418222 120.17259 110.90884 109.398441 
C 121.399459 98.624293 127.216289 84.127736 127.082629 69.090532 
C 126.948969 54.053329 120.875371 39.662461 110.194891 29.076493 
C 99.514411 18.490526 85.070128 12.545077 70.03233 12.545077 
L 70.03233 69.597629 
L 71.046485 126.641167 
z
" style="fill: #ff0000; stroke: #000000; stroke-linejoin: miter"/>
   </g>
   <g id="matplotlib.axis_1"/>
   <g id="matplotlib.axis_2"/>
  </g>
 </g>
</svg>
