<?xml version="1.0" encoding="utf-8" standalone="no"?>
<!DOCTYPE svg PUBLIC "-//W3C//DTD SVG 1.1//EN"
  "http://www.w3.org/Graphics/SVG/1.1/DTD/svg11.dtd">
<svg xmlns:xlink="http://www.w3.org/1999/xlink" width="371.52pt" height="280.512pt" viewBox="0 0 371.52 280.512" xmlns="http://www.w3.org/2000/svg" version="1.1">
 <metadata>
  <rdf:RDF xmlns:dc="http://purl.org/dc/elements/1.1/" xmlns:cc="http://creativecommons.org/ns#" xmlns:rdf="http://www.w3.org/1999/02/22-rdf-syntax-ns#">
   <cc:Work>
    <dc:type rdf:resource="http://purl.org/dc/dcmitype/StillImage"/>
    <dc:date>2021-12-03T16:10:00.266299</dc:date>
    <dc:format>image/svg+xml</dc:format>
    <dc:creator>
     <cc:Agent>
      <dc:title>Matplotlib v3.5.0, https://matplotlib.org/</dc:title>
     </cc:Agent>
    </dc:creator>
   </cc:Work>
  </rdf:RDF>
 </metadata>
 <defs>
  <style type="text/css">*{stroke-linejoin: round; stroke-linecap: butt}</style>
 </defs>
 <g id="figure_1">
  <g id="patch_1">
   <path d="M 0 280.512 
L 371.52 280.512 
L 371.52 0 
L 0 0 
L 0 280.512 
z
" style="fill: none"/>
  </g>
  <g id="axes_1">
   <g id="patch_2">
    <path d="M 185.689382 19.296 
C 169.732072 19.296 153.931704 22.457142 139.202678 28.596485 
C 124.473652 34.735827 111.10569 43.732608 99.872425 55.066164 
C 88.639161 66.399721 79.761553 79.84712 73.753368 94.630132 
C 67.745183 109.413144 64.724604 125.240986 64.866436 141.197665 
C 65.008269 157.154344 68.309724 172.925992 74.579739 187.599868 
C 80.849754 202.273744 89.964997 215.561212 101.39795 226.693298 
C 112.830902 237.825383 126.356677 246.583117 141.192507 252.459669 
C 156.028338 258.336221 171.882401 261.216 187.83719 260.932346 
L 185.689382 140.123719 
L 185.689382 19.296 
z
" style="fill: #0000ff"/>
   </g>
   <g id="patch_3">
    <path d="M 187.83719 260.932346 
C 219.679687 260.366231 250.041594 247.232987 272.258961 224.415151 
C 294.476328 201.597314 306.795396 170.896043 306.512328 139.049772 
C 306.229259 107.203502 293.366398 76.726062 270.746936 54.306762 
C 248.127474 31.887462 217.53691 19.296 185.689382 19.296 
L 185.689382 140.123719 
L 187.83719 260.932346 
z
" style="fill: #bf00bf"/>
   </g>
   <g id="matplotlib.axis_1"/>
   <g id="matplotlib.axis_2"/>
  </g>
 </g>
</svg>
