<?xml version="1.0" encoding="utf-8" standalone="no"?>
<!DOCTYPE svg PUBLIC "-//W3C//DTD SVG 1.1//EN"
  "http://www.w3.org/Graphics/SVG/1.1/DTD/svg11.dtd">
<svg xmlns:xlink="http://www.w3.org/1999/xlink" width="371.52pt" height="280.512pt" viewBox="0 0 371.52 280.512" xmlns="http://www.w3.org/2000/svg" version="1.1">
 <metadata>
  <rdf:RDF xmlns:dc="http://purl.org/dc/elements/1.1/" xmlns:cc="http://creativecommons.org/ns#" xmlns:rdf="http://www.w3.org/1999/02/22-rdf-syntax-ns#">
   <cc:Work>
    <dc:type rdf:resource="http://purl.org/dc/dcmitype/StillImage"/>
    <dc:date>2021-12-03T16:10:01.221987</dc:date>
    <dc:format>image/svg+xml</dc:format>
    <dc:creator>
     <cc:Agent>
      <dc:title>Matplotlib v3.5.0, https://matplotlib.org/</dc:title>
     </cc:Agent>
    </dc:creator>
   </cc:Work>
  </rdf:RDF>
 </metadata>
 <defs>
  <style type="text/css">*{stroke-linejoin: round; stroke-linecap: butt}</style>
 </defs>
 <g id="figure_1">
  <g id="patch_1">
   <path d="M 0 280.512 
L 371.52 280.512 
L 371.52 0 
L 0 0 
L 0 280.512 
z
" style="fill: none"/>
  </g>
  <g id="axes_1">
   <g id="patch_2">
    <path d="M 186.444496 19.296 
C 156.723626 19.296 128.028607 30.291654 105.918352 50.152841 
C 83.808097 70.014029 69.80893 97.369683 66.632825 126.92036 
C 63.456719 156.471036 71.32293 186.17678 88.707582 210.282879 
C 106.092235 234.388977 131.795226 251.231327 160.837271 257.547163 
L 186.444496 139.797713 
L 186.444496 19.296 
z
" style="fill: #0000ff"/>
   </g>
   <g id="patch_3">
    <path d="M 160.837271 257.547163 
C 177.361361 261.140692 194.45833 261.216 211.013435 257.768176 
C 227.568541 254.320352 243.213984 247.425996 256.929662 237.534627 
C 270.64534 227.643259 282.126537 214.974631 290.624666 200.354753 
C 299.122795 185.734876 304.449055 169.488554 306.256168 152.675067 
C 308.063281 135.86158 306.311099 118.854467 301.113866 102.762613 
C 295.916633 86.670759 287.389814 71.85167 276.089368 59.271569 
C 264.788923 46.691469 250.965908 36.629844 235.521602 29.742724 
C 220.077296 22.855605 203.354819 19.296 186.444496 19.296 
L 186.444496 139.797713 
L 160.837271 257.547163 
z
" style="fill: #bf00bf"/>
   </g>
   <g id="matplotlib.axis_1"/>
   <g id="matplotlib.axis_2"/>
  </g>
 </g>
</svg>
