<?xml version="1.0" encoding="utf-8" standalone="no"?>
<!DOCTYPE svg PUBLIC "-//W3C//DTD SVG 1.1//EN"
  "http://www.w3.org/Graphics/SVG/1.1/DTD/svg11.dtd">
<svg xmlns:xlink="http://www.w3.org/1999/xlink" width="30.56805pt" height="30.46374pt" viewBox="0 0 30.56805 30.46374" xmlns="http://www.w3.org/2000/svg" version="1.1">
 <metadata>
  <rdf:RDF xmlns:dc="http://purl.org/dc/elements/1.1/" xmlns:cc="http://creativecommons.org/ns#" xmlns:rdf="http://www.w3.org/1999/02/22-rdf-syntax-ns#">
   <cc:Work>
    <dc:type rdf:resource="http://purl.org/dc/dcmitype/StillImage"/>
    <dc:date>2022-01-14T17:05:47.962524</dc:date>
    <dc:format>image/svg+xml</dc:format>
    <dc:creator>
     <cc:Agent>
      <dc:title>Matplotlib v3.5.1, https://matplotlib.org/</dc:title>
     </cc:Agent>
    </dc:creator>
   </cc:Work>
  </rdf:RDF>
 </metadata>
 <defs>
  <style type="text/css">*{stroke-linejoin: round; stroke-linecap: butt}</style>
 </defs>
 <g id="figure_1">
  <g id="patch_1">
   <path d="M 0 30.46374 
L 30.56805 30.46374 
L 30.56805 0 
L 0 0 
L 0 30.46374 
z
" style="fill: none"/>
  </g>
  <g id="axes_1">
   <g id="patch_2">
    <path d="M 15.325156 7.93017 
C 13.539251 7.93017 11.814988 8.593918 10.486399 9.79283 
C 9.157811 10.991743 8.316611 12.643055 8.125761 14.42687 
C 7.934911 16.210684 8.407586 18.003859 9.452217 19.459013 
C 10.496848 20.914168 12.041322 21.930849 13.786437 22.312102 
L 15.325156 15.204206 
L 15.325156 7.93017 
z
" style="fill: #0000ff; stroke: #000000; stroke-linejoin: miter"/>
   </g>
   <g id="patch_3">
    <path d="M 13.786437 22.312102 
C 14.779357 22.529024 15.806701 22.53357 16.801485 22.325444 
C 17.796269 22.117317 18.736392 21.701142 19.560557 21.104054 
C 20.384722 20.506965 21.074619 19.742229 21.585265 18.859706 
C 22.095911 17.977183 22.415962 16.996481 22.524551 15.981542 
C 22.633139 14.966603 22.527851 13.939975 22.215553 12.968597 
C 21.903256 11.997219 21.390885 11.102671 20.71185 10.343279 
C 20.032814 9.583886 19.2022 8.97652 18.274163 8.560782 
C 17.346126 8.145044 16.341285 7.93017 15.325156 7.93017 
L 15.325156 15.204206 
L 13.786437 22.312102 
z
" style="fill: #ff0000; stroke: #000000; stroke-linejoin: miter"/>
   </g>
   <g id="matplotlib.axis_1"/>
   <g id="matplotlib.axis_2"/>
  </g>
 </g>
</svg>
