<?xml version="1.0" encoding="utf-8" standalone="no"?>
<!DOCTYPE svg PUBLIC "-//W3C//DTD SVG 1.1//EN"
  "http://www.w3.org/Graphics/SVG/1.1/DTD/svg11.dtd">
<svg xmlns:xlink="http://www.w3.org/1999/xlink" width="89.8974pt" height="89.41032pt" viewBox="0 0 89.8974 89.41032" xmlns="http://www.w3.org/2000/svg" version="1.1">
 <metadata>
  <rdf:RDF xmlns:dc="http://purl.org/dc/elements/1.1/" xmlns:cc="http://creativecommons.org/ns#" xmlns:rdf="http://www.w3.org/1999/02/22-rdf-syntax-ns#">
   <cc:Work>
    <dc:type rdf:resource="http://purl.org/dc/dcmitype/StillImage"/>
    <dc:date>2021-12-14T09:20:52.181846</dc:date>
    <dc:format>image/svg+xml</dc:format>
    <dc:creator>
     <cc:Agent>
      <dc:title>Matplotlib v3.5.0, https://matplotlib.org/</dc:title>
     </cc:Agent>
    </dc:creator>
   </cc:Work>
  </rdf:RDF>
 </metadata>
 <defs>
  <style type="text/css">*{stroke-linejoin: round; stroke-linecap: butt}</style>
 </defs>
 <g id="figure_1">
  <g id="patch_1">
   <path d="M 0 89.41032 
L 89.8974 89.41032 
L 89.8974 0 
L 0 0 
L 0 89.41032 
z
" style="fill: none"/>
  </g>
  <g id="axes_1">
   <g id="patch_2">
    <path d="M 45.132665 10.609561 
C 36.753794 10.609561 28.666604 13.735079 22.450315 19.375782 
C 16.234025 25.016485 12.321433 32.779649 11.476567 41.149331 
C 10.6317 49.519013 12.913381 57.912488 17.876057 64.690729 
C 22.838732 71.46897 30.136885 76.160054 38.345375 77.847934 
L 45.132665 44.574074 
L 45.132665 10.609561 
z
" style="fill: #0000ff"/>
   </g>
   <g id="patch_3">
    <path d="M 38.345375 77.847934 
C 42.979156 78.80076 47.760877 78.767317 52.380987 77.749769 
C 57.001097 76.732221 61.357701 74.753011 65.168768 71.940264 
C 68.979836 69.127517 72.161315 65.543269 74.507247 61.41955 
C 76.85318 57.295831 78.311828 52.723589 78.788764 47.998815 
C 79.2657 43.27404 78.750405 38.500935 77.276237 33.988495 
C 75.802069 29.476054 73.401541 25.323798 70.230054 21.800529 
C 67.058567 18.277259 63.186067 15.46068 58.863246 13.533128 
C 54.540425 11.605575 49.862621 10.60956 45.132659 10.609561 
L 45.132665 44.574074 
L 38.345375 77.847934 
z
" style="fill: #ff0000"/>
   </g>
   <g id="matplotlib.axis_1"/>
   <g id="matplotlib.axis_2"/>
  </g>
 </g>
</svg>
