<?xml version="1.0" encoding="utf-8" standalone="no"?>
<!DOCTYPE svg PUBLIC "-//W3C//DTD SVG 1.1//EN"
  "http://www.w3.org/Graphics/SVG/1.1/DTD/svg11.dtd">
<svg xmlns:xlink="http://www.w3.org/1999/xlink" width="114.0309pt" height="113.38812pt" viewBox="0 0 114.0309 113.38812" xmlns="http://www.w3.org/2000/svg" version="1.1">
 <metadata>
  <rdf:RDF xmlns:dc="http://purl.org/dc/elements/1.1/" xmlns:cc="http://creativecommons.org/ns#" xmlns:rdf="http://www.w3.org/1999/02/22-rdf-syntax-ns#">
   <cc:Work>
    <dc:type rdf:resource="http://purl.org/dc/dcmitype/StillImage"/>
    <dc:date>2021-12-14T09:20:53.080492</dc:date>
    <dc:format>image/svg+xml</dc:format>
    <dc:creator>
     <cc:Agent>
      <dc:title>Matplotlib v3.5.0, https://matplotlib.org/</dc:title>
     </cc:Agent>
    </dc:creator>
   </cc:Work>
  </rdf:RDF>
 </metadata>
 <defs>
  <style type="text/css">*{stroke-linejoin: round; stroke-linecap: butt}</style>
 </defs>
 <g id="figure_1">
  <g id="patch_1">
   <path d="M 0 113.38812 
L 114.0309 113.38812 
L 114.0309 0 
L 0 0 
L 0 113.38812 
z
" style="fill: none"/>
  </g>
  <g id="axes_1">
   <g id="patch_2">
    <path d="M 57.333191 11.69946 
C 47.344185 11.69946 37.635538 15.034641 29.755295 21.173209 
C 21.875052 27.311776 16.265559 35.909151 13.821249 45.59448 
C 11.37694 55.279808 12.235023 65.50942 16.258676 74.652202 
C 20.282329 83.794984 27.24569 91.337719 36.038452 96.077718 
L 57.333191 56.575691 
L 57.333191 11.69946 
z
" style="fill: #0000ff"/>
   </g>
   <g id="patch_3">
    <path d="M 36.038452 96.077718 
C 42.048666 99.317702 48.719805 101.143682 55.542262 101.416171 
C 62.364719 101.68866 69.160235 100.400539 75.409703 97.650206 
C 81.65917 94.899874 87.199301 90.759192 91.606886 85.544466 
C 96.014471 80.32974 99.174347 74.177223 100.845133 67.556902 
C 102.515919 60.936581 102.65396 54.021436 101.24871 47.339711 
C 99.84346 40.657986 96.931637 34.384265 92.735673 28.997795 
C 88.53971 23.611324 83.16924 19.252845 77.034512 16.255298 
C 70.899784 13.257752 64.161088 11.69946 57.333191 11.69946 
L 57.333191 56.575691 
L 36.038452 96.077718 
z
" style="fill: #ff0000"/>
   </g>
   <g id="matplotlib.axis_1"/>
   <g id="matplotlib.axis_2"/>
  </g>
 </g>
</svg>
