<?xml version="1.0" encoding="utf-8" standalone="no"?>
<!DOCTYPE svg PUBLIC "-//W3C//DTD SVG 1.1//EN"
  "http://www.w3.org/Graphics/SVG/1.1/DTD/svg11.dtd">
<svg xmlns:xlink="http://www.w3.org/1999/xlink" width="257.95305pt" height="256.38174pt" viewBox="0 0 257.95305 256.38174" xmlns="http://www.w3.org/2000/svg" version="1.1">
 <metadata>
  <rdf:RDF xmlns:dc="http://purl.org/dc/elements/1.1/" xmlns:cc="http://creativecommons.org/ns#" xmlns:rdf="http://www.w3.org/1999/02/22-rdf-syntax-ns#">
   <cc:Work>
    <dc:type rdf:resource="http://purl.org/dc/dcmitype/StillImage"/>
    <dc:date>2021-12-14T09:20:53.989986</dc:date>
    <dc:format>image/svg+xml</dc:format>
    <dc:creator>
     <cc:Agent>
      <dc:title>Matplotlib v3.5.0, https://matplotlib.org/</dc:title>
     </cc:Agent>
    </dc:creator>
   </cc:Work>
  </rdf:RDF>
 </metadata>
 <defs>
  <style type="text/css">*{stroke-linejoin: round; stroke-linecap: butt}</style>
 </defs>
 <g id="figure_1">
  <g id="patch_1">
   <path d="M 0 256.38174 
L 257.95305 256.38174 
L 257.95305 0 
L 0 0 
L 0 256.38174 
z
" style="fill: none"/>
  </g>
  <g id="axes_1">
   <g id="patch_2">
    <path d="M 128.93245 17.531024 
C 114.355662 17.531024 99.921715 20.413422 86.462941 26.012006 
C 73.004167 31.610591 60.784336 39.815637 50.508104 50.154002 
C 40.231872 60.492368 32.100636 72.761437 26.583284 86.253715 
C 21.065931 99.745993 18.270593 114.197053 18.358462 128.773576 
C 18.446332 143.350099 21.415686 157.766408 27.095299 171.191189 
C 32.774911 184.61597 41.05347 196.786119 51.453593 206.999844 
C 61.853716 217.21357 74.171577 225.2707 87.696869 230.70662 
C 101.22216 236.142541 115.689808 238.850716 130.265537 238.674981 
L 128.93245 128.10702 
L 128.93245 17.531024 
z
" style="fill: #0000ff"/>
   </g>
   <g id="patch_3">
    <path d="M 130.265537 238.674981 
C 159.463491 238.32295 187.365241 226.419301 207.825274 205.585878 
C 228.285308 184.752455 239.682457 156.640011 239.506438 127.440465 
C 239.330419 98.240919 227.595179 70.267921 206.885468 49.682674 
C 186.175757 29.097428 158.132527 17.531024 128.93245 17.531024 
L 128.93245 128.10702 
L 130.265537 238.674981 
z
" style="fill: #ff0000"/>
   </g>
   <g id="matplotlib.axis_1"/>
   <g id="matplotlib.axis_2"/>
  </g>
 </g>
</svg>
