<?xml version="1.0" encoding="utf-8" standalone="no"?>
<!DOCTYPE svg PUBLIC "-//W3C//DTD SVG 1.1//EN"
  "http://www.w3.org/Graphics/SVG/1.1/DTD/svg11.dtd">
<svg xmlns:xlink="http://www.w3.org/1999/xlink" width="371.52pt" height="280.512pt" viewBox="0 0 371.52 280.512" xmlns="http://www.w3.org/2000/svg" version="1.1">
 <metadata>
  <rdf:RDF xmlns:dc="http://purl.org/dc/elements/1.1/" xmlns:cc="http://creativecommons.org/ns#" xmlns:rdf="http://www.w3.org/1999/02/22-rdf-syntax-ns#">
   <cc:Work>
    <dc:type rdf:resource="http://purl.org/dc/dcmitype/StillImage"/>
    <dc:date>2021-12-03T16:10:04.059587</dc:date>
    <dc:format>image/svg+xml</dc:format>
    <dc:creator>
     <cc:Agent>
      <dc:title>Matplotlib v3.5.0, https://matplotlib.org/</dc:title>
     </cc:Agent>
    </dc:creator>
   </cc:Work>
  </rdf:RDF>
 </metadata>
 <defs>
  <style type="text/css">*{stroke-linejoin: round; stroke-linecap: butt}</style>
 </defs>
 <g id="figure_1">
  <g id="patch_1">
   <path d="M 0 280.512 
L 371.52 280.512 
L 371.52 0 
L 0 0 
L 0 280.512 
z
" style="fill: none"/>
  </g>
  <g id="axes_1">
   <g id="patch_2">
    <path d="M 185.711823 19.296 
C 169.778236 19.296 154.000786 22.446691 139.289277 28.566388 
C 124.577768 34.686085 111.220522 43.654852 99.987785 54.955506 
C 88.755047 66.256161 79.86696 79.667228 73.836056 94.415359 
C 67.805152 109.16349 64.749625 124.959646 64.845673 140.892943 
C 64.941721 156.826241 68.187462 172.584412 74.395729 187.258764 
C 80.603996 201.933116 89.653118 215.236055 101.021279 226.400467 
C 112.389439 237.56488 125.85384 246.371963 140.638057 252.313856 
C 155.422275 258.255749 171.236563 261.216 187.168992 261.023907 
L 185.711823 140.164346 
L 185.711823 19.296 
z
" style="fill: #0000ff"/>
   </g>
   <g id="patch_3">
    <path d="M 187.168992 261.023907 
C 219.084675 260.639109 249.583503 247.627476 271.947945 224.85489 
C 294.312386 202.082304 306.770375 171.353171 306.577972 139.435748 
C 306.38557 107.518325 293.558021 76.941616 270.920662 54.440308 
C 248.283303 31.938999 217.629826 19.296 185.711823 19.296 
L 185.711823 140.164346 
L 187.168992 261.023907 
z
" style="fill: #bf00bf"/>
   </g>
   <g id="matplotlib.axis_1"/>
   <g id="matplotlib.axis_2"/>
  </g>
 </g>
</svg>
