<?xml version="1.0" encoding="utf-8" standalone="no"?>
<!DOCTYPE svg PUBLIC "-//W3C//DTD SVG 1.1//EN"
  "http://www.w3.org/Graphics/SVG/1.1/DTD/svg11.dtd">
<svg xmlns:xlink="http://www.w3.org/1999/xlink" width="371.52pt" height="280.512pt" viewBox="0 0 371.52 280.512" xmlns="http://www.w3.org/2000/svg" version="1.1">
 <metadata>
  <rdf:RDF xmlns:dc="http://purl.org/dc/elements/1.1/" xmlns:cc="http://creativecommons.org/ns#" xmlns:rdf="http://www.w3.org/1999/02/22-rdf-syntax-ns#">
   <cc:Work>
    <dc:type rdf:resource="http://purl.org/dc/dcmitype/StillImage"/>
    <dc:date>2021-12-03T16:10:12.661308</dc:date>
    <dc:format>image/svg+xml</dc:format>
    <dc:creator>
     <cc:Agent>
      <dc:title>Matplotlib v3.5.0, https://matplotlib.org/</dc:title>
     </cc:Agent>
    </dc:creator>
   </cc:Work>
  </rdf:RDF>
 </metadata>
 <defs>
  <style type="text/css">*{stroke-linejoin: round; stroke-linecap: butt}</style>
 </defs>
 <g id="figure_1">
  <g id="patch_1">
   <path d="M 0 280.512 
L 371.52 280.512 
L 371.52 0 
L 0 0 
L 0 280.512 
z
" style="fill: none"/>
  </g>
  <g id="axes_1">
   <g id="patch_2">
    <path d="M 186.76492 19.296 
C 159.440703 19.296 132.907114 28.558183 111.518662 45.562505 
C 90.13021 62.566826 75.124647 86.329243 68.964582 112.950033 
C 62.804518 139.570822 65.846435 167.509436 77.591116 192.180781 
C 89.335797 216.852127 109.103575 236.828471 133.6503 248.831434 
L 186.76492 140.209093 
L 186.76492 19.296 
z
" style="fill: #0000ff"/>
   </g>
   <g id="patch_3">
    <path d="M 133.6503 248.831434 
C 149.995527 256.823994 167.93595 261.025041 186.130409 261.12052 
C 204.324868 261.216 222.308394 257.203472 238.736604 249.382899 
C 255.164814 241.562326 269.617877 230.133567 281.015334 215.950992 
C 292.412792 201.768418 300.463376 185.194473 304.565255 167.468164 
C 308.667135 149.741854 308.715482 131.316187 304.706685 113.568595 
C 300.697887 95.821004 292.734391 79.205039 281.411519 64.962848 
C 270.088646 50.720657 255.695759 39.216207 239.308816 31.309529 
C 222.921873 23.402851 204.959652 19.296003 186.764943 19.296 
L 186.76492 140.209093 
L 133.6503 248.831434 
z
" style="fill: #bf00bf"/>
   </g>
   <g id="matplotlib.axis_1"/>
   <g id="matplotlib.axis_2"/>
  </g>
 </g>
</svg>
