<?xml version="1.0" encoding="utf-8" standalone="no"?>
<!DOCTYPE svg PUBLIC "-//W3C//DTD SVG 1.1//EN"
  "http://www.w3.org/Graphics/SVG/1.1/DTD/svg11.dtd">
<svg xmlns:xlink="http://www.w3.org/1999/xlink" width="20.66355pt" height="20.62314pt" viewBox="0 0 20.66355 20.62314" xmlns="http://www.w3.org/2000/svg" version="1.1">
 <metadata>
  <rdf:RDF xmlns:dc="http://purl.org/dc/elements/1.1/" xmlns:cc="http://creativecommons.org/ns#" xmlns:rdf="http://www.w3.org/1999/02/22-rdf-syntax-ns#">
   <cc:Work>
    <dc:type rdf:resource="http://purl.org/dc/dcmitype/StillImage"/>
    <dc:date>2021-12-14T09:21:02.235005</dc:date>
    <dc:format>image/svg+xml</dc:format>
    <dc:creator>
     <cc:Agent>
      <dc:title>Matplotlib v3.5.0, https://matplotlib.org/</dc:title>
     </cc:Agent>
    </dc:creator>
   </cc:Work>
  </rdf:RDF>
 </metadata>
 <defs>
  <style type="text/css">*{stroke-linejoin: round; stroke-linecap: butt}</style>
 </defs>
 <g id="figure_1">
  <g id="patch_1">
   <path d="M 0 20.62314 
L 20.66355 20.62314 
L 20.66355 0 
L 0 0 
L 0 20.62314 
z
" style="fill: none"/>
  </g>
  <g id="axes_1">
   <g id="patch_2">
    <path d="M 10.355275 7.48287 
C 9.716287 7.48287 9.095788 7.69947 8.59561 8.097123 
C 8.095433 8.494776 7.744521 9.05047 7.600465 9.673009 
C 7.45641 10.295547 7.527546 10.948903 7.802201 11.525853 
C 8.076855 12.102802 8.539133 12.569957 9.113168 12.850652 
L 10.355275 10.310473 
L 10.355275 7.48287 
z
" style="fill: #0000ff"/>
   </g>
   <g id="patch_3">
    <path d="M 9.113168 12.850652 
C 9.495408 13.037561 9.914952 13.135804 10.340437 13.138037 
C 10.765922 13.14027 11.186474 13.046435 11.570655 12.863548 
C 11.954835 12.680661 12.292826 12.413394 12.559361 12.081729 
C 12.825895 11.750064 13.014161 11.362475 13.110085 10.947938 
C 13.20601 10.533401 13.20714 10.102509 13.113393 9.687474 
C 13.019645 9.272439 12.833416 8.883868 12.568626 8.550808 
C 12.303836 8.217749 11.967252 7.948712 11.584036 7.763811 
C 11.200821 7.57891 10.780767 7.48287 10.355276 7.48287 
L 10.355275 10.310473 
L 9.113168 12.850652 
z
" style="fill: #ff0000"/>
   </g>
   <g id="matplotlib.axis_1"/>
   <g id="matplotlib.axis_2"/>
  </g>
 </g>
</svg>
