<?xml version="1.0" encoding="utf-8" standalone="no"?>
<!DOCTYPE svg PUBLIC "-//W3C//DTD SVG 1.1//EN"
  "http://www.w3.org/Graphics/SVG/1.1/DTD/svg11.dtd">
<svg xmlns:xlink="http://www.w3.org/1999/xlink" width="224.94735pt" height="223.58898pt" viewBox="0 0 224.94735 223.58898" xmlns="http://www.w3.org/2000/svg" version="1.1">
 <metadata>
  <rdf:RDF xmlns:dc="http://purl.org/dc/elements/1.1/" xmlns:cc="http://creativecommons.org/ns#" xmlns:rdf="http://www.w3.org/1999/02/22-rdf-syntax-ns#">
   <cc:Work>
    <dc:type rdf:resource="http://purl.org/dc/dcmitype/StillImage"/>
    <dc:date>2022-01-14T17:05:51.820696</dc:date>
    <dc:format>image/svg+xml</dc:format>
    <dc:creator>
     <cc:Agent>
      <dc:title>Matplotlib v3.5.1, https://matplotlib.org/</dc:title>
     </cc:Agent>
    </dc:creator>
   </cc:Work>
  </rdf:RDF>
 </metadata>
 <defs>
  <style type="text/css">*{stroke-linejoin: round; stroke-linecap: butt}</style>
 </defs>
 <g id="figure_1">
  <g id="patch_1">
   <path d="M 0 223.58898 
L 224.94735 223.58898 
L 224.94735 0 
L 0 0 
L 0 223.58898 
z
" style="fill: none"/>
  </g>
  <g id="axes_1">
   <g id="patch_2">
    <path d="M 112.716497 16.70859 
C 88.209412 16.70859 64.628248 26.161576 46.943081 43.075192 
C 29.257914 59.988809 18.805098 83.085003 17.787716 107.495914 
C 16.770334 131.906825 25.265264 155.787877 41.482075 174.10579 
C 57.698886 192.423703 80.412177 203.794309 104.834792 205.821088 
L 112.716497 111.428078 
L 112.716497 16.70859 
z
" style="fill: #0000ff; stroke: #000000; stroke-linejoin: miter"/>
   </g>
   <g id="patch_3">
    <path d="M 104.834792 205.821088 
C 117.599348 206.88039 130.447945 205.355498 142.606305 201.338304 
C 154.764664 197.32111 165.983553 190.893963 175.586901 182.444173 
C 185.19025 173.994383 192.981199 163.695162 198.490254 152.167159 
C 203.99931 140.639156 207.11354 128.118682 207.645278 115.360242 
C 208.177016 102.601802 206.115361 89.866932 201.584551 77.923054 
C 197.053741 65.979177 190.146654 55.07113 181.279522 45.856252 
C 172.41239 36.641373 161.76698 29.308557 149.984803 24.299692 
C 138.202625 19.290827 125.525202 16.70859 112.716497 16.70859 
L 112.716497 111.428078 
L 104.834792 205.821088 
z
" style="fill: #ff0000; stroke: #000000; stroke-linejoin: miter"/>
   </g>
   <g id="matplotlib.axis_1"/>
   <g id="matplotlib.axis_2"/>
  </g>
 </g>
</svg>
