<?xml version="1.0" encoding="utf-8" standalone="no"?>
<!DOCTYPE svg PUBLIC "-//W3C//DTD SVG 1.1//EN"
  "http://www.w3.org/Graphics/SVG/1.1/DTD/svg11.dtd">
<svg xmlns:xlink="http://www.w3.org/1999/xlink" width="371.52pt" height="280.512pt" viewBox="0 0 371.52 280.512" xmlns="http://www.w3.org/2000/svg" version="1.1">
 <metadata>
  <rdf:RDF xmlns:dc="http://purl.org/dc/elements/1.1/" xmlns:cc="http://creativecommons.org/ns#" xmlns:rdf="http://www.w3.org/1999/02/22-rdf-syntax-ns#">
   <cc:Work>
    <dc:type rdf:resource="http://purl.org/dc/dcmitype/StillImage"/>
    <dc:date>2021-12-10T18:14:52.755857</dc:date>
    <dc:format>image/svg+xml</dc:format>
    <dc:creator>
     <cc:Agent>
      <dc:title>Matplotlib v3.5.0, https://matplotlib.org/</dc:title>
     </cc:Agent>
    </dc:creator>
   </cc:Work>
  </rdf:RDF>
 </metadata>
 <defs>
  <style type="text/css">*{stroke-linejoin: round; stroke-linecap: butt}</style>
 </defs>
 <g id="figure_1">
  <g id="patch_1">
   <path d="M 0 280.512 
L 371.52 280.512 
L 371.52 0 
L 0 0 
L 0 280.512 
z
" style="fill: none"/>
  </g>
  <g id="axes_1">
   <g id="patch_2">
    <path d="M 186.001681 19.296 
C 160.607719 19.296 135.855169 27.342141 115.314896 42.273667 
C 94.774623 57.205193 79.484256 78.26781 71.649623 102.422971 
C 63.814991 126.578132 63.831873 152.605596 71.697834 176.750573 
C 79.563795 200.89555 94.881472 221.938314 115.441098 236.843181 
L 186.001681 139.512616 
L 186.001681 19.296 
z
" style="fill: #0000ff"/>
   </g>
   <g id="patch_3">
    <path d="M 115.441098 236.843181 
C 130.795858 247.974739 148.569055 255.316388 167.303485 258.266194 
C 186.037915 261.216 205.207186 259.691081 223.239632 253.816464 
C 241.272078 247.941847 257.66103 237.882594 271.062778 224.463452 
C 284.464526 211.044309 294.502512 194.642322 300.353734 176.602272 
C 306.204956 158.562222 307.705009 139.390988 304.730905 120.6604 
C 301.756801 101.929812 294.392104 84.166153 283.240639 68.825845 
C 272.089175 53.485537 257.464269 40.999605 240.565004 32.391757 
C 223.665738 23.783909 204.96694 19.296004 186.001703 19.296 
L 186.001681 139.512616 
L 115.441098 236.843181 
z
" style="fill: #ff0000"/>
   </g>
   <g id="matplotlib.axis_1"/>
   <g id="matplotlib.axis_2"/>
  </g>
 </g>
</svg>
