<?xml version="1.0" encoding="utf-8" standalone="no"?>
<!DOCTYPE svg PUBLIC "-//W3C//DTD SVG 1.1//EN"
  "http://www.w3.org/Graphics/SVG/1.1/DTD/svg11.dtd">
<svg xmlns:xlink="http://www.w3.org/1999/xlink" width="79.8534pt" height="79.43112pt" viewBox="0 0 79.8534 79.43112" xmlns="http://www.w3.org/2000/svg" version="1.1">
 <metadata>
  <rdf:RDF xmlns:dc="http://purl.org/dc/elements/1.1/" xmlns:cc="http://creativecommons.org/ns#" xmlns:rdf="http://www.w3.org/1999/02/22-rdf-syntax-ns#">
   <cc:Work>
    <dc:type rdf:resource="http://purl.org/dc/dcmitype/StillImage"/>
    <dc:date>2022-01-14T17:05:52.787314</dc:date>
    <dc:format>image/svg+xml</dc:format>
    <dc:creator>
     <cc:Agent>
      <dc:title>Matplotlib v3.5.1, https://matplotlib.org/</dc:title>
     </cc:Agent>
    </dc:creator>
   </cc:Work>
  </rdf:RDF>
 </metadata>
 <defs>
  <style type="text/css">*{stroke-linejoin: round; stroke-linecap: butt}</style>
 </defs>
 <g id="figure_1">
  <g id="patch_1">
   <path d="M 0 79.43112 
L 79.8534 79.43112 
L 79.8534 0 
L 0 0 
L 0 79.43112 
z
" style="fill: none"/>
  </g>
  <g id="axes_1">
   <g id="patch_2">
    <path d="M 40.11678 10.155961 
C 32.970046 10.155961 26.062589 12.760365 20.694915 17.478827 
C 15.327242 22.197289 11.858776 28.713855 10.942548 35.801614 
C 10.02632 42.889373 11.72368 50.073721 15.715057 56.002019 
C 19.706433 61.930317 25.72456 66.2056 32.636368 68.022935 
L 40.11678 39.572941 
L 40.11678 10.155961 
z
" style="fill: #0000ff; stroke: #000000; stroke-linejoin: miter"/>
   </g>
   <g id="patch_3">
    <path d="M 32.636368 68.022935 
C 36.680337 69.086224 40.904924 69.27516 45.027665 68.577112 
C 49.150406 67.879064 53.077324 66.309943 56.54586 63.974664 
C 60.014395 61.639384 62.945482 58.591179 65.143143 55.033855 
C 67.340805 51.476532 68.754945 47.491179 69.291013 43.344265 
C 69.82708 39.197351 69.472855 34.983403 68.252022 30.984174 
C 67.031188 26.984945 64.971575 23.291597 62.210892 20.151073 
C 59.450208 17.010548 56.051384 14.494436 52.24167 12.770968 
C 48.431955 11.047499 44.298194 10.15596 40.116775 10.155961 
L 40.11678 39.572941 
L 32.636368 68.022935 
z
" style="fill: #ff0000; stroke: #000000; stroke-linejoin: miter"/>
   </g>
   <g id="matplotlib.axis_1"/>
   <g id="matplotlib.axis_2"/>
  </g>
 </g>
</svg>
