<?xml version="1.0" encoding="utf-8" standalone="no"?>
<!DOCTYPE svg PUBLIC "-//W3C//DTD SVG 1.1//EN"
  "http://www.w3.org/Graphics/SVG/1.1/DTD/svg11.dtd">
<svg xmlns:xlink="http://www.w3.org/1999/xlink" width="106.95825pt" height="106.3611pt" viewBox="0 0 106.95825 106.3611" xmlns="http://www.w3.org/2000/svg" version="1.1">
 <metadata>
  <rdf:RDF xmlns:dc="http://purl.org/dc/elements/1.1/" xmlns:cc="http://creativecommons.org/ns#" xmlns:rdf="http://www.w3.org/1999/02/22-rdf-syntax-ns#">
   <cc:Work>
    <dc:type rdf:resource="http://purl.org/dc/dcmitype/StillImage"/>
    <dc:date>2021-12-14T09:20:56.752769</dc:date>
    <dc:format>image/svg+xml</dc:format>
    <dc:creator>
     <cc:Agent>
      <dc:title>Matplotlib v3.5.0, https://matplotlib.org/</dc:title>
     </cc:Agent>
    </dc:creator>
   </cc:Work>
  </rdf:RDF>
 </metadata>
 <defs>
  <style type="text/css">*{stroke-linejoin: round; stroke-linecap: butt}</style>
 </defs>
 <g id="figure_1">
  <g id="patch_1">
   <path d="M 0 106.3611 
L 106.95825 106.3611 
L 106.95825 0 
L 0 0 
L 0 106.3611 
z
" style="fill: none"/>
  </g>
  <g id="axes_1">
   <g id="patch_2">
    <path d="M 53.636691 11.38005 
C 43.063683 11.38005 32.877777 15.405099 25.163878 22.631328 
C 17.449978 29.857558 12.772932 39.755831 12.090063 50.300116 
C 11.407193 60.844401 14.768503 71.262599 21.48598 79.422257 
C 28.203458 87.581914 37.78522 92.885546 48.27002 94.247575 
L 53.636691 52.987372 
L 53.636691 11.38005 
z
" style="fill: #0000ff"/>
   </g>
   <g id="patch_3">
    <path d="M 48.27002 94.247575 
C 53.91626 94.98105 59.6535 94.549262 65.126139 92.978972 
C 70.598777 91.408683 75.691361 88.73302 80.088243 85.117826 
C 84.485125 81.502631 88.093548 77.024173 90.689855 71.960031 
C 93.286163 66.89589 94.815583 61.352901 95.18332 55.674627 
C 95.551057 49.996354 94.749352 44.302587 92.827897 38.946234 
C 90.906442 33.589882 87.905772 28.683944 84.011873 24.532498 
C 80.117975 20.381052 75.412995 17.071678 70.188555 14.809496 
C 64.964115 12.547315 59.330433 11.38005 53.636691 11.38005 
L 53.636691 52.987372 
L 48.27002 94.247575 
z
" style="fill: #ff0000"/>
   </g>
   <g id="matplotlib.axis_1"/>
   <g id="matplotlib.axis_2"/>
  </g>
 </g>
</svg>
