<?xml version="1.0" encoding="utf-8" standalone="no"?>
<!DOCTYPE svg PUBLIC "-//W3C//DTD SVG 1.1//EN"
  "http://www.w3.org/Graphics/SVG/1.1/DTD/svg11.dtd">
<svg xmlns:xlink="http://www.w3.org/1999/xlink" width="371.52pt" height="280.512pt" viewBox="0 0 371.52 280.512" xmlns="http://www.w3.org/2000/svg" version="1.1">
 <metadata>
  <rdf:RDF xmlns:dc="http://purl.org/dc/elements/1.1/" xmlns:cc="http://creativecommons.org/ns#" xmlns:rdf="http://www.w3.org/1999/02/22-rdf-syntax-ns#">
   <cc:Work>
    <dc:type rdf:resource="http://purl.org/dc/dcmitype/StillImage"/>
    <dc:date>2021-12-03T16:10:06.868573</dc:date>
    <dc:format>image/svg+xml</dc:format>
    <dc:creator>
     <cc:Agent>
      <dc:title>Matplotlib v3.5.0, https://matplotlib.org/</dc:title>
     </cc:Agent>
    </dc:creator>
   </cc:Work>
  </rdf:RDF>
 </metadata>
 <defs>
  <style type="text/css">*{stroke-linejoin: round; stroke-linecap: butt}</style>
 </defs>
 <g id="figure_1">
  <g id="patch_1">
   <path d="M 0 280.512 
L 371.52 280.512 
L 371.52 0 
L 0 0 
L 0 280.512 
z
" style="fill: none"/>
  </g>
  <g id="axes_1">
   <g id="patch_2">
    <path d="M 186.21567 19.296 
C 155.639355 19.296 126.182507 30.943467 103.874512 51.854334 
C 81.566517 72.765201 68.040865 101.408282 66.066059 131.920758 
C 64.091254 162.433233 73.811898 192.580844 93.23832 216.192815 
C 112.664741 239.804786 140.37445 255.152144 170.695674 259.093509 
L 186.21567 139.696991 
L 186.21567 19.296 
z
" style="fill: #0000ff"/>
   </g>
   <g id="patch_3">
    <path d="M 170.695674 259.093509 
C 187.02416 261.216 203.615812 259.966514 219.442256 255.422497 
C 235.268699 250.87848 249.996053 243.135794 262.711494 232.674342 
C 275.426934 222.21289 285.862211 209.253371 293.370531 194.599035 
C 300.878851 179.9447 305.301815 163.904702 306.36528 147.473225 
C 307.428746 131.041748 305.110279 114.565436 299.55358 99.065516 
C 293.996882 83.565597 285.319178 69.369061 274.058327 57.355834 
C 262.797476 45.342606 249.191041 35.766121 234.082369 29.219945 
C 218.973696 22.673768 202.681526 19.296 186.21567 19.296 
L 186.21567 139.696991 
L 170.695674 259.093509 
z
" style="fill: #bf00bf"/>
   </g>
   <g id="matplotlib.axis_1"/>
   <g id="matplotlib.axis_2"/>
  </g>
 </g>
</svg>
