<?xml version="1.0" encoding="utf-8" standalone="no"?>
<!DOCTYPE svg PUBLIC "-//W3C//DTD SVG 1.1//EN"
  "http://www.w3.org/Graphics/SVG/1.1/DTD/svg11.dtd">
<svg xmlns:xlink="http://www.w3.org/1999/xlink" width="246.73725pt" height="245.2383pt" viewBox="0 0 246.73725 245.2383" xmlns="http://www.w3.org/2000/svg" version="1.1">
 <metadata>
  <rdf:RDF xmlns:dc="http://purl.org/dc/elements/1.1/" xmlns:cc="http://creativecommons.org/ns#" xmlns:rdf="http://www.w3.org/1999/02/22-rdf-syntax-ns#">
   <cc:Work>
    <dc:type rdf:resource="http://purl.org/dc/dcmitype/StillImage"/>
    <dc:date>2021-12-14T09:20:57.669025</dc:date>
    <dc:format>image/svg+xml</dc:format>
    <dc:creator>
     <cc:Agent>
      <dc:title>Matplotlib v3.5.0, https://matplotlib.org/</dc:title>
     </cc:Agent>
    </dc:creator>
   </cc:Work>
  </rdf:RDF>
 </metadata>
 <defs>
  <style type="text/css">*{stroke-linejoin: round; stroke-linecap: butt}</style>
 </defs>
 <g id="figure_1">
  <g id="patch_1">
   <path d="M 0 245.2383 
L 246.73725 245.2383 
L 246.73725 -0 
L 0 -0 
L 0 245.2383 
z
" style="fill: none"/>
  </g>
  <g id="axes_1">
   <g id="patch_2">
    <path d="M 123.578228 17.69265 
C 96.316813 17.69265 70.098991 28.266979 50.518364 47.159591 
C 30.937736 66.052203 19.493433 91.816645 18.627108 118.956044 
C 17.760784 146.095444 27.538766 172.531956 45.874912 192.625323 
C 64.211057 212.718689 89.701516 224.930524 116.907869 226.655417 
L 123.578228 122.279653 
L 123.578228 17.69265 
z
" style="fill: #0000ff"/>
   </g>
   <g id="patch_3">
    <path d="M 116.907869 226.655417 
C 130.949308 227.54565 145.028221 225.615892 158.306299 220.981049 
C 171.584378 216.346205 183.792745 209.10013 194.204472 199.67428 
C 204.616198 190.24843 213.020449 178.833676 218.916807 166.109692 
C 224.813164 153.385709 228.082228 139.610153 228.529347 125.60327 
C 228.976466 111.596388 226.592586 97.641813 221.519651 84.570452 
C 216.446716 71.49909 208.787453 59.575633 198.99792 49.510044 
C 189.208387 39.444456 177.48682 31.440561 164.531162 25.974941 
C 151.575504 20.509321 137.648104 17.692653 123.578248 17.69265 
L 123.578228 122.279653 
L 116.907869 226.655417 
z
" style="fill: #ff0000"/>
   </g>
   <g id="matplotlib.axis_1"/>
   <g id="matplotlib.axis_2"/>
  </g>
 </g>
</svg>
