<?xml version="1.0" encoding="utf-8" standalone="no"?>
<!DOCTYPE svg PUBLIC "-//W3C//DTD SVG 1.1//EN"
  "http://www.w3.org/Graphics/SVG/1.1/DTD/svg11.dtd">
<svg xmlns:xlink="http://www.w3.org/1999/xlink" width="371.52pt" height="280.512pt" viewBox="0 0 371.52 280.512" xmlns="http://www.w3.org/2000/svg" version="1.1">
 <metadata>
  <rdf:RDF xmlns:dc="http://purl.org/dc/elements/1.1/" xmlns:cc="http://creativecommons.org/ns#" xmlns:rdf="http://www.w3.org/1999/02/22-rdf-syntax-ns#">
   <cc:Work>
    <dc:type rdf:resource="http://purl.org/dc/dcmitype/StillImage"/>
    <dc:date>2021-12-03T16:10:07.844861</dc:date>
    <dc:format>image/svg+xml</dc:format>
    <dc:creator>
     <cc:Agent>
      <dc:title>Matplotlib v3.5.0, https://matplotlib.org/</dc:title>
     </cc:Agent>
    </dc:creator>
   </cc:Work>
  </rdf:RDF>
 </metadata>
 <defs>
  <style type="text/css">*{stroke-linejoin: round; stroke-linecap: butt}</style>
 </defs>
 <g id="figure_1">
  <g id="patch_1">
   <path d="M 0 280.512 
L 371.52 280.512 
L 371.52 0 
L 0 0 
L 0 280.512 
z
" style="fill: none"/>
  </g>
  <g id="axes_1">
   <g id="patch_2">
    <path d="M 186.000672 19.296 
C 154.698374 19.296 124.594357 31.48616 102.111348 53.265695 
C 79.628339 75.04523 66.487678 104.746658 65.492941 136.033146 
C 64.498204 167.319635 75.725549 197.795831 96.77961 220.959603 
C 117.833671 244.123376 147.102509 258.201264 178.341585 260.189733 
L 186.000672 139.864625 
L 186.000672 19.296 
z
" style="fill: #0000ff"/>
   </g>
   <g id="patch_3">
    <path d="M 178.341585 260.189733 
C 194.464347 261.216 210.630137 258.991362 225.876388 253.648282 
C 241.122639 248.305202 255.140618 239.951876 267.095646 229.08569 
C 279.050674 218.219505 288.700664 205.060497 295.471022 190.3922 
C 302.24138 175.723903 305.995008 159.843347 306.508402 143.696115 
C 307.021796 127.548883 304.28456 111.461952 298.459678 96.393196 
C 292.634797 81.324439 283.840222 67.578994 272.599614 55.975314 
C 261.359006 44.371633 247.899983 35.144688 233.023944 28.843883 
C 218.147905 22.543078 202.156086 19.296003 186.000694 19.296 
L 186.000672 139.864625 
L 178.341585 260.189733 
z
" style="fill: #bf00bf"/>
   </g>
   <g id="matplotlib.axis_1"/>
   <g id="matplotlib.axis_2"/>
  </g>
 </g>
</svg>
