<?xml version="1.0" encoding="utf-8" standalone="no"?>
<!DOCTYPE svg PUBLIC "-//W3C//DTD SVG 1.1//EN"
  "http://www.w3.org/Graphics/SVG/1.1/DTD/svg11.dtd">
<svg xmlns:xlink="http://www.w3.org/1999/xlink" width="20.0637pt" height="20.02716pt" viewBox="0 0 20.0637 20.02716" xmlns="http://www.w3.org/2000/svg" version="1.1">
 <metadata>
  <rdf:RDF xmlns:dc="http://purl.org/dc/elements/1.1/" xmlns:cc="http://creativecommons.org/ns#" xmlns:rdf="http://www.w3.org/1999/02/22-rdf-syntax-ns#">
   <cc:Work>
    <dc:type rdf:resource="http://purl.org/dc/dcmitype/StillImage"/>
    <dc:date>2021-12-14T09:21:03.110288</dc:date>
    <dc:format>image/svg+xml</dc:format>
    <dc:creator>
     <cc:Agent>
      <dc:title>Matplotlib v3.5.0, https://matplotlib.org/</dc:title>
     </cc:Agent>
    </dc:creator>
   </cc:Work>
  </rdf:RDF>
 </metadata>
 <defs>
  <style type="text/css">*{stroke-linejoin: round; stroke-linecap: butt}</style>
 </defs>
 <g id="figure_1">
  <g id="patch_1">
   <path d="M 0 20.02716 
L 20.0637 20.02716 
L 20.0637 0 
L 0 0 
L 0 20.02716 
z
" style="fill: none"/>
  </g>
  <g id="axes_1">
   <g id="patch_2">
    <path d="M 10.037975 7.45578 
C 9.377198 7.45578 8.741483 7.711072 8.265293 8.167657 
C 7.789103 8.624243 7.508558 9.247488 7.483 9.905567 
C 7.457441 10.563646 7.688806 11.206641 8.128158 11.698548 
C 8.567511 12.190455 9.181523 12.493961 9.840322 12.54487 
L 10.037975 10.004138 
L 10.037975 7.45578 
z
" style="fill: #0000ff"/>
   </g>
   <g id="patch_3">
    <path d="M 9.840322 12.54487 
C 10.183385 12.57138 10.528313 12.528599 10.854393 12.419097 
C 11.180473 12.309594 11.481044 12.135606 11.738057 11.907582 
C 11.99507 11.679557 12.203274 11.402154 12.350167 11.092029 
C 12.49706 10.781905 12.57964 10.445395 12.59295 10.102708 
C 12.606259 9.76002 12.550026 9.418155 12.427626 9.097642 
C 12.305226 8.777128 12.11916 8.484514 11.880603 8.23737 
C 11.642045 7.990227 11.355867 7.793602 11.039256 7.659305 
C 10.722645 7.525007 10.382067 7.45578 10.037975 7.45578 
L 10.037975 10.004138 
L 9.840322 12.54487 
z
" style="fill: #ff0000"/>
   </g>
   <g id="matplotlib.axis_1"/>
   <g id="matplotlib.axis_2"/>
  </g>
 </g>
</svg>
