<?xml version="1.0" encoding="utf-8" standalone="no"?>
<!DOCTYPE svg PUBLIC "-//W3C//DTD SVG 1.1//EN"
  "http://www.w3.org/Graphics/SVG/1.1/DTD/svg11.dtd">
<svg xmlns:xlink="http://www.w3.org/1999/xlink" width="371.52pt" height="280.512pt" viewBox="0 0 371.52 280.512" xmlns="http://www.w3.org/2000/svg" version="1.1">
 <metadata>
  <rdf:RDF xmlns:dc="http://purl.org/dc/elements/1.1/" xmlns:cc="http://creativecommons.org/ns#" xmlns:rdf="http://www.w3.org/1999/02/22-rdf-syntax-ns#">
   <cc:Work>
    <dc:type rdf:resource="http://purl.org/dc/dcmitype/StillImage"/>
    <dc:date>2021-12-03T16:10:13.623777</dc:date>
    <dc:format>image/svg+xml</dc:format>
    <dc:creator>
     <cc:Agent>
      <dc:title>Matplotlib v3.5.0, https://matplotlib.org/</dc:title>
     </cc:Agent>
    </dc:creator>
   </cc:Work>
  </rdf:RDF>
 </metadata>
 <defs>
  <style type="text/css">*{stroke-linejoin: round; stroke-linecap: butt}</style>
 </defs>
 <g id="figure_1">
  <g id="patch_1">
   <path d="M 0 280.512 
L 371.52 280.512 
L 371.52 0 
L 0 0 
L 0 280.512 
z
" style="fill: none"/>
  </g>
  <g id="axes_1">
   <g id="patch_2">
    <path d="M 186.048673 19.296 
C 154.904393 19.296 124.941314 31.368919 102.497112 52.96114 
C 80.05291 74.55336 66.830056 104.027037 65.625398 135.14801 
C 64.420739 166.268983 75.325654 196.676619 96.033576 219.93921 
C 116.741498 243.201802 145.681659 257.5548 176.732747 259.962313 
L 186.048673 139.809461 
L 186.048673 19.296 
z
" style="fill: #0000ff"/>
   </g>
   <g id="patch_3">
    <path d="M 176.732747 259.962313 
C 192.902268 261.216 209.159718 259.192873 224.528804 254.014425 
C 239.89789 248.835978 254.064678 240.607986 266.178422 229.824558 
C 278.292166 219.04113 288.105428 205.922531 295.028901 191.256562 
C 301.952373 176.590593 305.844635 160.676825 306.471948 144.470912 
C 307.099261 128.265 304.448811 112.09797 298.679763 96.940688 
C 292.910716 81.783405 284.140911 67.945477 272.896994 56.2579 
C 261.653078 44.570323 248.16472 35.271831 233.241927 28.920819 
C 218.319134 22.569806 202.266722 19.296 186.048673 19.296 
L 186.048673 139.809461 
L 176.732747 259.962313 
z
" style="fill: #bf00bf"/>
   </g>
   <g id="matplotlib.axis_1"/>
   <g id="matplotlib.axis_2"/>
  </g>
 </g>
</svg>
