<?xml version="1.0" encoding="utf-8" standalone="no"?>
<!DOCTYPE svg PUBLIC "-//W3C//DTD SVG 1.1//EN"
  "http://www.w3.org/Graphics/SVG/1.1/DTD/svg11.dtd">
<svg xmlns:xlink="http://www.w3.org/1999/xlink" width="371.52pt" height="280.512pt" viewBox="0 0 371.52 280.512" xmlns="http://www.w3.org/2000/svg" version="1.1">
 <metadata>
  <rdf:RDF xmlns:dc="http://purl.org/dc/elements/1.1/" xmlns:cc="http://creativecommons.org/ns#" xmlns:rdf="http://www.w3.org/1999/02/22-rdf-syntax-ns#">
   <cc:Work>
    <dc:type rdf:resource="http://purl.org/dc/dcmitype/StillImage"/>
    <dc:date>2021-12-03T16:10:08.788091</dc:date>
    <dc:format>image/svg+xml</dc:format>
    <dc:creator>
     <cc:Agent>
      <dc:title>Matplotlib v3.5.0, https://matplotlib.org/</dc:title>
     </cc:Agent>
    </dc:creator>
   </cc:Work>
  </rdf:RDF>
 </metadata>
 <defs>
  <style type="text/css">*{stroke-linejoin: round; stroke-linecap: butt}</style>
 </defs>
 <g id="figure_1">
  <g id="patch_1">
   <path d="M 0 280.512 
L 371.52 280.512 
L 371.52 0 
L 0 0 
L 0 280.512 
z
" style="fill: none"/>
  </g>
  <g id="axes_1">
   <g id="patch_2">
    <path d="M 186.686543 19.296 
C 158.35035 19.296 130.9038 29.298242 109.211689 47.529867 
C 87.519578 65.761492 72.943996 91.077701 68.068411 118.991291 
C 63.192825 146.90488 68.323384 175.663103 82.550713 200.168672 
C 96.778043 224.674241 119.208783 243.388404 145.867169 252.994147 
L 186.686543 139.709974 
L 186.686543 19.296 
z
" style="fill: #0000ff"/>
   </g>
   <g id="patch_3">
    <path d="M 145.867169 252.994147 
C 162.393376 258.94899 180.024215 261.216 197.519308 259.635686 
C 215.014401 258.055373 231.953619 252.665686 247.145241 243.845804 
C 262.336863 235.025923 275.416075 222.987649 285.462719 208.577909 
C 295.509363 194.168168 302.282177 177.732998 305.304676 160.428658 
C 308.327175 143.124318 307.526775 125.366357 302.959787 108.404096 
C 298.392799 91.441835 290.168896 75.682608 278.86665 62.23512 
C 267.564405 48.787632 253.455232 37.974813 237.53175 30.557374 
C 221.608268 23.139935 204.252866 19.296 186.686543 19.296 
L 186.686543 139.709974 
L 145.867169 252.994147 
z
" style="fill: #bf00bf"/>
   </g>
   <g id="matplotlib.axis_1"/>
   <g id="matplotlib.axis_2"/>
  </g>
 </g>
</svg>
