<?xml version="1.0" encoding="utf-8" standalone="no"?>
<!DOCTYPE svg PUBLIC "-//W3C//DTD SVG 1.1//EN"
  "http://www.w3.org/Graphics/SVG/1.1/DTD/svg11.dtd">
<svg xmlns:xlink="http://www.w3.org/1999/xlink" width="80.92755pt" height="80.49834pt" viewBox="0 0 80.92755 80.49834" xmlns="http://www.w3.org/2000/svg" version="1.1">
 <metadata>
  <rdf:RDF xmlns:dc="http://purl.org/dc/elements/1.1/" xmlns:cc="http://creativecommons.org/ns#" xmlns:rdf="http://www.w3.org/1999/02/22-rdf-syntax-ns#">
   <cc:Work>
    <dc:type rdf:resource="http://purl.org/dc/dcmitype/StillImage"/>
    <dc:date>2022-01-14T17:05:55.558728</dc:date>
    <dc:format>image/svg+xml</dc:format>
    <dc:creator>
     <cc:Agent>
      <dc:title>Matplotlib v3.5.1, https://matplotlib.org/</dc:title>
     </cc:Agent>
    </dc:creator>
   </cc:Work>
  </rdf:RDF>
 </metadata>
 <defs>
  <style type="text/css">*{stroke-linejoin: round; stroke-linecap: butt}</style>
 </defs>
 <g id="figure_1">
  <g id="patch_1">
   <path d="M -0 80.49834 
L 80.92755 80.49834 
L 80.92755 0 
L -0 0 
L -0 80.49834 
z
" style="fill: none"/>
  </g>
  <g id="axes_1">
   <g id="patch_2">
    <path d="M 40.693915 10.20447 
C 33.655618 10.20447 26.838295 12.688881 21.450291 17.217351 
C 16.062287 21.745821 12.441925 28.033998 11.230901 34.967326 
C 10.019876 41.900655 11.294232 49.043778 14.828093 55.130604 
C 18.361955 61.21743 23.933423 65.865755 30.554977 68.251682 
L 40.693915 40.113545 
L 40.693915 10.20447 
z
" style="fill: #0000ff; stroke: #000000; stroke-linejoin: miter"/>
   </g>
   <g id="patch_3">
    <path d="M 30.554977 68.251682 
C 34.659846 69.730778 39.03909 70.29387 43.384616 69.901343 
C 47.730142 69.508816 51.937596 68.170097 55.710974 65.979367 
C 59.484351 63.788637 62.733037 60.798505 65.228476 57.219336 
C 67.723916 53.640166 69.406185 49.55791 70.156929 45.259764 
C 70.907674 40.961618 70.708866 36.5508 69.574493 32.337622 
C 68.44012 28.124443 66.397422 24.210081 63.590109 20.869921 
C 60.782796 17.529761 57.278283 14.844015 53.323123 13.001631 
C 49.367962 11.159247 45.057133 10.20447 40.693915 10.20447 
L 40.693915 40.113545 
L 30.554977 68.251682 
z
" style="fill: #ff0000; stroke: #000000; stroke-linejoin: miter"/>
   </g>
   <g id="matplotlib.axis_1"/>
   <g id="matplotlib.axis_2"/>
  </g>
 </g>
</svg>
