<?xml version="1.0" encoding="utf-8" standalone="no"?>
<!DOCTYPE svg PUBLIC "-//W3C//DTD SVG 1.1//EN"
  "http://www.w3.org/Graphics/SVG/1.1/DTD/svg11.dtd">
<svg xmlns:xlink="http://www.w3.org/1999/xlink" width="31.93515pt" height="31.82202pt" viewBox="0 0 31.93515 31.82202" xmlns="http://www.w3.org/2000/svg" version="1.1">
 <metadata>
  <rdf:RDF xmlns:dc="http://purl.org/dc/elements/1.1/" xmlns:cc="http://creativecommons.org/ns#" xmlns:rdf="http://www.w3.org/1999/02/22-rdf-syntax-ns#">
   <cc:Work>
    <dc:type rdf:resource="http://purl.org/dc/dcmitype/StillImage"/>
    <dc:date>2021-12-14T09:20:59.488294</dc:date>
    <dc:format>image/svg+xml</dc:format>
    <dc:creator>
     <cc:Agent>
      <dc:title>Matplotlib v3.5.0, https://matplotlib.org/</dc:title>
     </cc:Agent>
    </dc:creator>
   </cc:Work>
  </rdf:RDF>
 </metadata>
 <defs>
  <style type="text/css">*{stroke-linejoin: round; stroke-linecap: butt}</style>
 </defs>
 <g id="figure_1">
  <g id="patch_1">
   <path d="M 0 31.82202 
L 31.93515 31.82202 
L 31.93515 0 
L 0 0 
L 0 31.82202 
z
" style="fill: none"/>
  </g>
  <g id="axes_1">
   <g id="patch_2">
    <path d="M 15.999015 7.99191 
C 14.002549 7.99191 12.078768 8.750191 10.619383 10.112355 
C 9.159998 11.474519 8.271271 13.341382 8.134162 15.332823 
C 7.997052 17.324264 8.621543 19.295279 9.880479 20.844539 
C 11.139414 22.393799 12.941127 23.408498 14.918761 23.682026 
L 15.999015 15.874144 
L 15.999015 7.99191 
z
" style="fill: #0000ff"/>
   </g>
   <g id="patch_3">
    <path d="M 14.918761 23.682026 
C 15.989417 23.83011 17.079181 23.756472 18.120174 23.465699 
C 19.161166 23.174926 20.131314 22.673183 20.970187 21.991724 
C 21.809061 21.310265 22.498873 20.463539 22.996657 19.504287 
C 23.49444 18.545035 23.78964 17.493597 23.863869 16.415466 
C 23.938098 15.337334 23.789781 14.25537 23.428158 13.236967 
C 23.066535 12.218564 22.499273 11.285316 21.761706 10.495353 
C 21.024139 9.705391 20.131906 9.075465 19.140584 8.644812 
C 18.149261 8.214159 17.079869 7.99191 15.999017 7.99191 
L 15.999015 15.874144 
L 14.918761 23.682026 
z
" style="fill: #ff0000"/>
   </g>
   <g id="matplotlib.axis_1"/>
   <g id="matplotlib.axis_2"/>
  </g>
 </g>
</svg>
