<?xml version="1.0" encoding="utf-8" standalone="no"?>
<!DOCTYPE svg PUBLIC "-//W3C//DTD SVG 1.1//EN"
  "http://www.w3.org/Graphics/SVG/1.1/DTD/svg11.dtd">
<svg xmlns:xlink="http://www.w3.org/1999/xlink" width="371.52pt" height="280.512pt" viewBox="0 0 371.52 280.512" xmlns="http://www.w3.org/2000/svg" version="1.1">
 <metadata>
  <rdf:RDF xmlns:dc="http://purl.org/dc/elements/1.1/" xmlns:cc="http://creativecommons.org/ns#" xmlns:rdf="http://www.w3.org/1999/02/22-rdf-syntax-ns#">
   <cc:Work>
    <dc:type rdf:resource="http://purl.org/dc/dcmitype/StillImage"/>
    <dc:date>2021-12-10T18:14:57.209562</dc:date>
    <dc:format>image/svg+xml</dc:format>
    <dc:creator>
     <cc:Agent>
      <dc:title>Matplotlib v3.5.0, https://matplotlib.org/</dc:title>
     </cc:Agent>
    </dc:creator>
   </cc:Work>
  </rdf:RDF>
 </metadata>
 <defs>
  <style type="text/css">*{stroke-linejoin: round; stroke-linecap: butt}</style>
 </defs>
 <g id="figure_1">
  <g id="patch_1">
   <path d="M 0 280.512 
L 371.52 280.512 
L 371.52 0 
L 0 0 
L 0 280.512 
z
" style="fill: none"/>
  </g>
  <g id="axes_1">
   <g id="patch_2">
    <path d="M 185.606942 19.296 
C 169.557888 19.296 153.668866 22.497226 138.871907 28.711898 
C 124.074947 34.92657 110.665145 44.030749 99.429103 55.490396 
C 88.193061 66.950042 79.354858 80.536618 73.432932 95.45315 
C 67.511006 110.369683 64.623457 126.318693 64.939666 142.364632 
C 65.255875 158.410571 68.769536 174.233436 75.274541 188.905077 
C 81.779546 203.576719 91.146167 216.804541 102.824969 227.812616 
C 114.503771 238.820692 128.261846 247.389488 143.29216 253.016369 
C 158.322475 258.64325 174.325282 261.216 190.361876 260.583705 
L 185.606942 139.986704 
L 185.606942 19.296 
z
" style="fill: #0000ff"/>
   </g>
   <g id="patch_3">
    <path d="M 190.361876 260.583705 
C 221.923177 259.339296 251.768081 245.753495 273.432855 222.768677 
C 295.097629 199.783859 306.896543 169.188468 306.274218 137.608775 
C 305.651893 106.029083 292.656752 75.922296 270.10325 53.808865 
C 247.549748 31.695434 217.192766 19.296 185.606942 19.296 
L 185.606942 139.986704 
L 190.361876 260.583705 
z
" style="fill: #ff0000"/>
   </g>
   <g id="matplotlib.axis_1"/>
   <g id="matplotlib.axis_2"/>
  </g>
 </g>
</svg>
