<?xml version="1.0" encoding="utf-8" standalone="no"?>
<!DOCTYPE svg PUBLIC "-//W3C//DTD SVG 1.1//EN"
  "http://www.w3.org/Graphics/SVG/1.1/DTD/svg11.dtd">
<svg xmlns:xlink="http://www.w3.org/1999/xlink" width="371.52pt" height="280.512pt" viewBox="0 0 371.52 280.512" xmlns="http://www.w3.org/2000/svg" version="1.1">
 <metadata>
  <rdf:RDF xmlns:dc="http://purl.org/dc/elements/1.1/" xmlns:cc="http://creativecommons.org/ns#" xmlns:rdf="http://www.w3.org/1999/02/22-rdf-syntax-ns#">
   <cc:Work>
    <dc:type rdf:resource="http://purl.org/dc/dcmitype/StillImage"/>
    <dc:date>2021-12-03T16:10:10.753936</dc:date>
    <dc:format>image/svg+xml</dc:format>
    <dc:creator>
     <cc:Agent>
      <dc:title>Matplotlib v3.5.0, https://matplotlib.org/</dc:title>
     </cc:Agent>
    </dc:creator>
   </cc:Work>
  </rdf:RDF>
 </metadata>
 <defs>
  <style type="text/css">*{stroke-linejoin: round; stroke-linecap: butt}</style>
 </defs>
 <g id="figure_1">
  <g id="patch_1">
   <path d="M 0 280.512 
L 371.52 280.512 
L 371.52 0 
L 0 0 
L 0 280.512 
z
" style="fill: none"/>
  </g>
  <g id="axes_1">
   <g id="patch_2">
    <path d="M 185.158041 19.296 
C 168.424279 19.296 151.872721 22.783511 136.561652 29.535545 
C 121.250583 36.28758 107.513431 46.1571 96.22853 58.513062 
C 84.943628 70.869025 76.356728 85.442354 71.016864 101.301253 
C 65.677 117.160151 63.700458 133.95926 65.213615 150.624468 
C 66.726771 167.289676 71.696675 183.458066 79.805557 198.095854 
C 87.91444 212.733642 98.985714 225.522061 112.311498 235.643438 
C 125.637282 245.764816 140.927382 252.998738 157.204169 256.88268 
C 173.480957 260.766621 190.389973 261.216 206.85008 258.202085 
L 185.158041 139.733832 
L 185.158041 19.296 
z
" style="fill: #0000ff"/>
   </g>
   <g id="patch_3">
    <path d="M 206.85008 258.202085 
C 236.406396 252.790198 262.893365 236.508597 281.067647 212.580375 
C 299.241929 188.652154 307.819542 158.767799 305.102468 128.843196 
C 302.385393 98.918594 288.565588 71.067865 266.378811 50.804321 
C 244.192034 30.540776 215.205742 19.296 185.158041 19.296 
L 185.158041 139.733832 
L 206.85008 258.202085 
z
" style="fill: #bf00bf"/>
   </g>
   <g id="matplotlib.axis_1"/>
   <g id="matplotlib.axis_2"/>
  </g>
 </g>
</svg>
