<?xml version="1.0" encoding="utf-8" standalone="no"?>
<!DOCTYPE svg PUBLIC "-//W3C//DTD SVG 1.1//EN"
  "http://www.w3.org/Graphics/SVG/1.1/DTD/svg11.dtd">
<svg xmlns:xlink="http://www.w3.org/1999/xlink" width="71.5113pt" height="71.14284pt" viewBox="0 0 71.5113 71.14284" xmlns="http://www.w3.org/2000/svg" version="1.1">
 <metadata>
  <rdf:RDF xmlns:dc="http://purl.org/dc/elements/1.1/" xmlns:cc="http://creativecommons.org/ns#" xmlns:rdf="http://www.w3.org/1999/02/22-rdf-syntax-ns#">
   <cc:Work>
    <dc:type rdf:resource="http://purl.org/dc/dcmitype/StillImage"/>
    <dc:date>2022-01-14T17:05:57.486992</dc:date>
    <dc:format>image/svg+xml</dc:format>
    <dc:creator>
     <cc:Agent>
      <dc:title>Matplotlib v3.5.1, https://matplotlib.org/</dc:title>
     </cc:Agent>
    </dc:creator>
   </cc:Work>
  </rdf:RDF>
 </metadata>
 <defs>
  <style type="text/css">*{stroke-linejoin: round; stroke-linecap: butt}</style>
 </defs>
 <g id="figure_1">
  <g id="patch_1">
   <path d="M 0 71.14284 
L 71.5113 71.14284 
L 71.5113 0 
L 0 0 
L 0 71.14284 
z
" style="fill: none"/>
  </g>
  <g id="axes_1">
   <g id="patch_2">
    <path d="M 35.627625 9.77922 
C 32.06868 9.77922 28.548487 10.522859 25.292122 11.96259 
C 22.035756 13.40232 19.114132 15.50679 16.714054 18.141442 
C 14.313976 20.776093 12.48771 23.883552 11.352025 27.265132 
C 10.21634 30.646711 9.795968 34.228771 10.117787 37.78228 
C 10.439606 41.335788 11.496607 44.783361 13.221208 47.904564 
C 14.945809 51.025767 17.300453 53.752631 20.134587 55.910804 
C 22.968722 58.068977 26.220627 59.61146 29.682382 60.43963 
C 33.144137 61.267799 36.740355 61.36362 40.241098 60.720965 
L 35.627625 35.460079 
L 35.627625 9.77922 
z
" style="fill: #0000ff; stroke: #000000; stroke-linejoin: miter"/>
   </g>
   <g id="patch_3">
    <path d="M 40.241098 60.720965 
C 46.52715 59.566993 52.160411 56.095281 56.025726 50.993086 
C 59.891041 45.890891 61.715332 39.518675 61.137463 33.137877 
C 60.559594 26.757079 57.620392 20.818492 52.901697 16.497713 
C 48.183003 12.176934 42.018184 9.77922 35.627625 9.77922 
L 35.627625 35.460079 
L 40.241098 60.720965 
z
" style="fill: #ff0000; stroke: #000000; stroke-linejoin: miter"/>
   </g>
   <g id="matplotlib.axis_1"/>
   <g id="matplotlib.axis_2"/>
  </g>
 </g>
</svg>
