<?xml version="1.0" encoding="utf-8" standalone="no"?>
<!DOCTYPE svg PUBLIC "-//W3C//DTD SVG 1.1//EN"
  "http://www.w3.org/Graphics/SVG/1.1/DTD/svg11.dtd">
<svg xmlns:xlink="http://www.w3.org/1999/xlink" width="23.3838pt" height="23.32584pt" viewBox="0 0 23.3838 23.32584" xmlns="http://www.w3.org/2000/svg" version="1.1">
 <metadata>
  <rdf:RDF xmlns:dc="http://purl.org/dc/elements/1.1/" xmlns:cc="http://creativecommons.org/ns#" xmlns:rdf="http://www.w3.org/1999/02/22-rdf-syntax-ns#">
   <cc:Work>
    <dc:type rdf:resource="http://purl.org/dc/dcmitype/StillImage"/>
    <dc:date>2022-01-14T17:05:58.381322</dc:date>
    <dc:format>image/svg+xml</dc:format>
    <dc:creator>
     <cc:Agent>
      <dc:title>Matplotlib v3.5.1, https://matplotlib.org/</dc:title>
     </cc:Agent>
    </dc:creator>
   </cc:Work>
  </rdf:RDF>
 </metadata>
 <defs>
  <style type="text/css">*{stroke-linejoin: round; stroke-linecap: butt}</style>
 </defs>
 <g id="figure_1">
  <g id="patch_1">
   <path d="M 0 23.32584 
L 23.3838 23.32584 
L 23.3838 0 
L 0 0 
L 0 23.32584 
z
" style="fill: none"/>
  </g>
  <g id="axes_1">
   <g id="patch_2">
    <path d="M 11.717628 7.60572 
C 10.740301 7.60572 9.795776 7.964079 9.062294 8.61317 
C 8.328811 9.262262 7.855608 10.158516 7.731981 11.1328 
C 7.608355 12.107084 7.842603 13.093998 8.390522 13.907303 
C 8.938441 14.720608 9.763251 15.30571 10.709302 15.552193 
L 11.717628 11.643566 
L 11.717628 7.60572 
z
" style="fill: #0000ff; stroke: #000000; stroke-linejoin: miter"/>
   </g>
   <g id="patch_3">
    <path d="M 10.709302 15.552193 
C 11.261581 15.696083 11.838074 15.72012 12.400315 15.622699 
C 12.962556 15.525278 13.497754 15.308616 13.970196 14.98717 
C 14.442638 14.665724 14.841578 14.246806 15.140394 13.758371 
C 15.43921 13.269935 15.631106 12.723092 15.703276 12.154332 
C 15.775445 11.585572 15.726248 11.007832 15.558966 10.459666 
C 15.391684 9.911499 15.110123 9.405374 14.733071 8.975064 
C 14.356019 8.544754 13.892053 8.200048 13.372133 7.963946 
C 12.852212 7.727845 12.288165 7.60572 11.717628 7.60572 
L 11.717628 11.643566 
L 10.709302 15.552193 
z
" style="fill: #ff0000; stroke: #000000; stroke-linejoin: miter"/>
   </g>
   <g id="matplotlib.axis_1"/>
   <g id="matplotlib.axis_2"/>
  </g>
 </g>
</svg>
