<?xml version="1.0" encoding="utf-8" standalone="no"?>
<!DOCTYPE svg PUBLIC "-//W3C//DTD SVG 1.1//EN"
  "http://www.w3.org/Graphics/SVG/1.1/DTD/svg11.dtd">
<svg xmlns:xlink="http://www.w3.org/1999/xlink" width="371.52pt" height="280.512pt" viewBox="0 0 371.52 280.512" xmlns="http://www.w3.org/2000/svg" version="1.1">
 <metadata>
  <rdf:RDF xmlns:dc="http://purl.org/dc/elements/1.1/" xmlns:cc="http://creativecommons.org/ns#" xmlns:rdf="http://www.w3.org/1999/02/22-rdf-syntax-ns#">
   <cc:Work>
    <dc:type rdf:resource="http://purl.org/dc/dcmitype/StillImage"/>
    <dc:date>2022-01-14T17:15:25.013854</dc:date>
    <dc:format>image/svg+xml</dc:format>
    <dc:creator>
     <cc:Agent>
      <dc:title>Matplotlib v3.5.1, https://matplotlib.org/</dc:title>
     </cc:Agent>
    </dc:creator>
   </cc:Work>
  </rdf:RDF>
 </metadata>
 <defs>
  <style type="text/css">*{stroke-linejoin: round; stroke-linecap: butt}</style>
 </defs>
 <g id="figure_1">
  <g id="patch_1">
   <path d="M 0 280.512 
L 371.52 280.512 
L 371.52 0 
L 0 0 
L 0 280.512 
z
" style="fill: none"/>
  </g>
  <g id="axes_1">
   <g id="patch_2">
    <path d="M 186.150224 19.296007 
C 161.428011 19.296007 137.296787 26.917877 117.059787 41.118285 
C 96.822787 55.318694 81.447548 75.418716 73.03873 98.666932 
C 64.629913 121.915149 63.589545 147.200055 70.060039 171.060493 
C 76.530534 194.920931 90.202533 216.216125 109.204529 232.031053 
L 186.150224 139.579056 
L 186.150224 19.296007 
z
" style="fill: #0000ff; stroke: #000000; stroke-width: 2; stroke-linejoin: miter"/>
   </g>
   <g id="patch_3">
    <path d="M 109.204529 232.031053 
C 124.050713 244.387194 141.657037 252.987396 160.529131 257.101698 
C 179.401225 261.216 198.989606 260.724611 217.631672 255.669237 
C 236.273737 250.613864 253.426703 241.141699 267.634677 228.056712 
C 281.842651 214.971725 292.691952 198.654899 299.261725 180.491158 
C 305.831497 162.327417 307.930455 142.845617 305.380445 123.699316 
C 302.830434 104.553015 295.705703 86.299677 284.610975 70.488592 
C 273.516247 54.677506 258.774559 41.76903 241.63714 32.858796 
C 224.49972 23.948561 205.465546 19.296 186.150179 19.296007 
L 186.150224 139.579056 
L 109.204529 232.031053 
z
" style="fill: #ff0000; stroke: #000000; stroke-width: 2; stroke-linejoin: miter"/>
   </g>
   <g id="matplotlib.axis_1"/>
   <g id="matplotlib.axis_2"/>
  </g>
 </g>
</svg>
