<?xml version="1.0" encoding="utf-8" standalone="no"?>
<!DOCTYPE svg PUBLIC "-//W3C//DTD SVG 1.1//EN"
  "http://www.w3.org/Graphics/SVG/1.1/DTD/svg11.dtd">
<svg xmlns:xlink="http://www.w3.org/1999/xlink" width="371.52pt" height="280.512pt" viewBox="0 0 371.52 280.512" xmlns="http://www.w3.org/2000/svg" version="1.1">
 <metadata>
  <rdf:RDF xmlns:dc="http://purl.org/dc/elements/1.1/" xmlns:cc="http://creativecommons.org/ns#" xmlns:rdf="http://www.w3.org/1999/02/22-rdf-syntax-ns#">
   <cc:Work>
    <dc:type rdf:resource="http://purl.org/dc/dcmitype/StillImage"/>
    <dc:date>2022-01-14T17:15:25.911593</dc:date>
    <dc:format>image/svg+xml</dc:format>
    <dc:creator>
     <cc:Agent>
      <dc:title>Matplotlib v3.5.1, https://matplotlib.org/</dc:title>
     </cc:Agent>
    </dc:creator>
   </cc:Work>
  </rdf:RDF>
 </metadata>
 <defs>
  <style type="text/css">*{stroke-linejoin: round; stroke-linecap: butt}</style>
 </defs>
 <g id="figure_1">
  <g id="patch_1">
   <path d="M 0 280.512 
L 371.52 280.512 
L 371.52 0 
L 0 0 
L 0 280.512 
z
" style="fill: none"/>
  </g>
  <g id="axes_1">
   <g id="patch_2">
    <path d="M 186.324956 19.296 
C 156.140078 19.296 127.03174 30.645982 104.814098 51.078878 
C 82.596456 71.511775 68.85429 99.570112 66.332486 129.649463 
C 63.810682 159.728814 72.68912 189.683626 91.194404 213.530667 
C 109.699687 237.377707 136.511839 253.415972 166.275347 258.441948 
L 186.324956 139.709437 
L 186.324956 19.296 
z
" style="fill: #0000ff; stroke: #000000; stroke-width: 2; stroke-linejoin: miter"/>
   </g>
   <g id="patch_3">
    <path d="M 166.275347 258.441948 
C 182.703108 261.216 199.529219 260.550697 215.686664 256.488228 
C 231.84411 252.425759 246.983977 245.053852 260.146185 234.83999 
C 273.308393 224.626127 284.208709 211.790874 292.155898 197.148166 
C 300.103087 182.505459 304.925534 166.3715 306.317426 149.769412 
C 307.709318 133.167323 305.640599 116.45562 300.242454 100.694062 
C 294.844309 84.932503 286.23331 70.461452 274.955515 58.19858 
C 263.67772 45.935707 249.976669 36.145824 234.721202 29.449747 
C 219.465736 22.753671 202.985289 19.296 186.324956 19.296 
L 186.324956 139.709437 
L 166.275347 258.441948 
z
" style="fill: #ff0000; stroke: #000000; stroke-width: 2; stroke-linejoin: miter"/>
   </g>
   <g id="matplotlib.axis_1"/>
   <g id="matplotlib.axis_2"/>
  </g>
 </g>
</svg>
