<?xml version="1.0" encoding="utf-8" standalone="no"?>
<!DOCTYPE svg PUBLIC "-//W3C//DTD SVG 1.1//EN"
  "http://www.w3.org/Graphics/SVG/1.1/DTD/svg11.dtd">
<svg xmlns:xlink="http://www.w3.org/1999/xlink" width="371.52pt" height="280.512pt" viewBox="0 0 371.52 280.512" xmlns="http://www.w3.org/2000/svg" version="1.1">
 <metadata>
  <rdf:RDF xmlns:dc="http://purl.org/dc/elements/1.1/" xmlns:cc="http://creativecommons.org/ns#" xmlns:rdf="http://www.w3.org/1999/02/22-rdf-syntax-ns#">
   <cc:Work>
    <dc:type rdf:resource="http://purl.org/dc/dcmitype/StillImage"/>
    <dc:date>2021-11-24T20:23:13.405719</dc:date>
    <dc:format>image/svg+xml</dc:format>
    <dc:creator>
     <cc:Agent>
      <dc:title>Matplotlib v3.5.0, https://matplotlib.org/</dc:title>
     </cc:Agent>
    </dc:creator>
   </cc:Work>
  </rdf:RDF>
 </metadata>
 <defs>
  <style type="text/css">*{stroke-linejoin: round; stroke-linecap: butt}</style>
 </defs>
 <g id="figure_1">
  <g id="patch_1">
   <path d="M 0 280.512 
L 371.52 280.512 
L 371.52 0 
L 0 0 
L 0 280.512 
z
" style="fill: none"/>
  </g>
  <g id="axes_1">
   <g id="patch_2">
    <path d="M 186.493691 19.296003 
C 157.017744 19.296003 128.543616 30.117951 106.508338 49.695436 
C 84.473059 69.272921 70.374485 96.275157 66.904687 125.546165 
C 63.434888 154.817173 70.829727 184.367247 87.677184 208.553909 
C 104.524641 232.74057 129.679506 249.919723 158.338549 256.811071 
L 186.493691 139.722298 
L 186.493691 19.296003 
z
" style="fill: #0000ff"/>
   </g>
   <g id="patch_3">
    <path d="M 158.338549 256.811071 
C 174.877656 260.788061 192.073259 261.216 208.789717 258.066626 
C 225.506175 254.917251 241.367205 248.261455 255.325305 238.538802 
C 269.283405 228.816149 281.024382 216.245494 289.772832 201.657035 
C 298.521282 187.068575 304.08028 170.790693 306.082696 153.898421 
C 308.085112 137.006149 306.485871 119.879727 301.390593 103.650227 
C 296.295315 87.420727 287.818692 72.453471 276.520542 59.736933 
C 265.222391 47.020396 251.357032 36.840822 235.840166 29.870499 
C 220.323301 22.900175 203.50421 19.296 186.493668 19.296003 
L 186.493691 139.722298 
L 158.338549 256.811071 
z
" style="fill: #bf00bf"/>
   </g>
   <g id="matplotlib.axis_1"/>
   <g id="matplotlib.axis_2"/>
  </g>
 </g>
</svg>
