<?xml version="1.0" encoding="utf-8" standalone="no"?>
<!DOCTYPE svg PUBLIC "-//W3C//DTD SVG 1.1//EN"
  "http://www.w3.org/Graphics/SVG/1.1/DTD/svg11.dtd">
<svg xmlns:xlink="http://www.w3.org/1999/xlink" width="371.52pt" height="280.512pt" viewBox="0 0 371.52 280.512" xmlns="http://www.w3.org/2000/svg" version="1.1">
 <metadata>
  <rdf:RDF xmlns:dc="http://purl.org/dc/elements/1.1/" xmlns:cc="http://creativecommons.org/ns#" xmlns:rdf="http://www.w3.org/1999/02/22-rdf-syntax-ns#">
   <cc:Work>
    <dc:type rdf:resource="http://purl.org/dc/dcmitype/StillImage"/>
    <dc:date>2021-11-24T20:23:14.304261</dc:date>
    <dc:format>image/svg+xml</dc:format>
    <dc:creator>
     <cc:Agent>
      <dc:title>Matplotlib v3.5.0, https://matplotlib.org/</dc:title>
     </cc:Agent>
    </dc:creator>
   </cc:Work>
  </rdf:RDF>
 </metadata>
 <defs>
  <style type="text/css">*{stroke-linejoin: round; stroke-linecap: butt}</style>
 </defs>
 <g id="figure_1">
  <g id="patch_1">
   <path d="M 0 280.512 
L 371.52 280.512 
L 371.52 0 
L 0 0 
L 0 280.512 
z
" style="fill: none"/>
  </g>
  <g id="axes_1">
   <g id="patch_2">
    <path d="M 186.005983 19.296004 
C 160.658006 19.296004 135.947961 27.313125 115.428305 42.19478 
C 94.908649 57.076435 79.612218 78.073572 71.738114 102.167522 
C 63.86401 126.261472 63.808568 152.23949 71.579758 176.366831 
C 79.350948 200.494171 94.557616 221.556407 115.013564 236.525512 
L 186.005983 139.511216 
L 186.005983 19.296004 
z
" style="fill: #0000ff"/>
   </g>
   <g id="patch_3">
    <path d="M 115.013564 236.525512 
C 130.336677 247.738549 148.100602 255.16332 166.845501 258.18966 
C 185.590401 261.216 204.788329 259.758672 222.861603 253.937439 
C 240.934877 248.116206 257.374467 238.095021 270.829369 224.697425 
C 284.284272 211.299829 294.375533 194.903162 300.273855 176.854899 
C 306.172176 158.806636 307.711432 139.615103 304.765128 120.857457 
C 301.818823 102.099812 294.46994 84.304358 283.322409 68.933525 
C 272.174877 53.562691 257.542664 41.049394 240.628244 32.421974 
C 223.713824 23.794553 204.993587 19.296 186.00596 19.296004 
L 186.005983 139.511216 
L 115.013564 236.525512 
z
" style="fill: #bf00bf"/>
   </g>
   <g id="matplotlib.axis_1"/>
   <g id="matplotlib.axis_2"/>
  </g>
 </g>
</svg>
