<?xml version="1.0" encoding="utf-8" standalone="no"?>
<!DOCTYPE svg PUBLIC "-//W3C//DTD SVG 1.1//EN"
  "http://www.w3.org/Graphics/SVG/1.1/DTD/svg11.dtd">
<svg xmlns:xlink="http://www.w3.org/1999/xlink" width="371.52pt" height="280.512pt" viewBox="0 0 371.52 280.512" xmlns="http://www.w3.org/2000/svg" version="1.1">
 <metadata>
  <rdf:RDF xmlns:dc="http://purl.org/dc/elements/1.1/" xmlns:cc="http://creativecommons.org/ns#" xmlns:rdf="http://www.w3.org/1999/02/22-rdf-syntax-ns#">
   <cc:Work>
    <dc:type rdf:resource="http://purl.org/dc/dcmitype/StillImage"/>
    <dc:date>2022-01-14T17:15:31.737067</dc:date>
    <dc:format>image/svg+xml</dc:format>
    <dc:creator>
     <cc:Agent>
      <dc:title>Matplotlib v3.5.1, https://matplotlib.org/</dc:title>
     </cc:Agent>
    </dc:creator>
   </cc:Work>
  </rdf:RDF>
 </metadata>
 <defs>
  <style type="text/css">*{stroke-linejoin: round; stroke-linecap: butt}</style>
 </defs>
 <g id="figure_1">
  <g id="patch_1">
   <path d="M 0 280.512 
L 371.52 280.512 
L 371.52 0 
L 0 0 
L 0 280.512 
z
" style="fill: none"/>
  </g>
  <g id="axes_1">
   <g id="patch_2">
    <path d="M 185.531221 19.296 
C 169.390849 19.296 153.413552 22.536634 138.548702 28.825342 
C 123.683853 35.11405 110.231825 44.323758 98.991942 55.907221 
C 87.752059 67.490684 78.951444 81.213837 73.113031 96.261247 
C 67.274618 111.308656 64.516385 127.37626 65.002225 143.509318 
C 65.488066 159.642376 69.208163 175.514888 75.941468 190.183706 
C 82.674773 204.852523 92.285225 218.021234 104.201771 228.907351 
C 116.118317 239.793468 130.100158 248.177015 145.316491 253.559841 
C 160.532824 258.942667 176.676172 261.216 192.787295 260.244759 
L 185.531221 139.879637 
L 185.531221 19.296 
z
" style="fill: #0000ff; stroke: #000000; stroke-width: 2; stroke-linejoin: miter"/>
   </g>
   <g id="patch_3">
    <path d="M 192.787295 260.244759 
C 224.071645 258.358818 253.420429 244.348465 274.558936 221.209087 
C 295.697442 198.069709 307.003615 167.576896 306.060217 136.249955 
C 305.116819 104.923013 291.996241 75.165802 269.503637 53.340357 
C 247.011033 31.514913 216.872365 19.296 185.531221 19.296 
L 185.531221 139.879637 
L 192.787295 260.244759 
z
" style="fill: #ff0000; stroke: #000000; stroke-width: 2; stroke-linejoin: miter"/>
   </g>
   <g id="matplotlib.axis_1"/>
   <g id="matplotlib.axis_2"/>
  </g>
 </g>
</svg>
