<?xml version="1.0" encoding="utf-8" standalone="no"?>
<!DOCTYPE svg PUBLIC "-//W3C//DTD SVG 1.1//EN"
  "http://www.w3.org/Graphics/SVG/1.1/DTD/svg11.dtd">
<svg xmlns:xlink="http://www.w3.org/1999/xlink" width="371.52pt" height="280.512pt" viewBox="0 0 371.52 280.512" xmlns="http://www.w3.org/2000/svg" version="1.1">
 <metadata>
  <rdf:RDF xmlns:dc="http://purl.org/dc/elements/1.1/" xmlns:cc="http://creativecommons.org/ns#" xmlns:rdf="http://www.w3.org/1999/02/22-rdf-syntax-ns#">
   <cc:Work>
    <dc:type rdf:resource="http://purl.org/dc/dcmitype/StillImage"/>
    <dc:date>2021-11-24T20:23:25.093301</dc:date>
    <dc:format>image/svg+xml</dc:format>
    <dc:creator>
     <cc:Agent>
      <dc:title>Matplotlib v3.5.0, https://matplotlib.org/</dc:title>
     </cc:Agent>
    </dc:creator>
   </cc:Work>
  </rdf:RDF>
 </metadata>
 <defs>
  <style type="text/css">*{stroke-linejoin: round; stroke-linecap: butt}</style>
 </defs>
 <g id="figure_1">
  <g id="patch_1">
   <path d="M 0 280.512 
L 371.52 280.512 
L 371.52 0 
L 0 0 
L 0 280.512 
z
" style="fill: none"/>
  </g>
  <g id="axes_1">
   <g id="patch_2">
    <path d="M 185.926293 19.296 
C 165.331456 19.296 145.076043 24.572964 127.099121 34.621724 
C 109.122199 44.670484 94.016324 59.159813 83.227594 76.702635 
C 72.438863 94.245457 66.322896 114.263524 65.465178 134.840493 
C 64.60746 155.417461 69.036264 175.87507 78.327617 194.254898 
L 185.926293 139.86172 
L 185.926293 19.296 
z
" style="fill: #0000ff"/>
   </g>
   <g id="patch_3">
    <path d="M 78.327617 194.254898 
C 88.002953 213.394308 102.612029 229.61001 120.641884 241.222654 
C 138.671739 252.835297 159.477708 259.429669 180.905059 260.322834 
C 202.332411 261.216 223.615003 256.376024 242.548743 246.30415 
C 261.482483 236.232276 277.390388 221.288627 288.624986 203.020815 
C 299.859583 184.753003 306.019176 163.814199 306.465858 142.372893 
C 306.91254 120.931586 301.630339 99.754418 291.166297 81.034563 
C 280.702254 62.314708 265.430517 46.721501 246.932672 35.869824 
C 228.434828 25.018146 207.372274 19.296004 185.926315 19.296 
L 185.926293 139.86172 
L 78.327617 194.254898 
z
" style="fill: #bf00bf"/>
   </g>
   <g id="matplotlib.axis_1"/>
   <g id="matplotlib.axis_2"/>
  </g>
 </g>
</svg>
