<?xml version="1.0" encoding="utf-8" standalone="no"?>
<!DOCTYPE svg PUBLIC "-//W3C//DTD SVG 1.1//EN"
  "http://www.w3.org/Graphics/SVG/1.1/DTD/svg11.dtd">
<svg xmlns:xlink="http://www.w3.org/1999/xlink" width="371.52pt" height="280.512pt" viewBox="0 0 371.52 280.512" xmlns="http://www.w3.org/2000/svg" version="1.1">
 <metadata>
  <rdf:RDF xmlns:dc="http://purl.org/dc/elements/1.1/" xmlns:cc="http://creativecommons.org/ns#" xmlns:rdf="http://www.w3.org/1999/02/22-rdf-syntax-ns#">
   <cc:Work>
    <dc:type rdf:resource="http://purl.org/dc/dcmitype/StillImage"/>
    <dc:date>2021-12-10T18:12:57.390743</dc:date>
    <dc:format>image/svg+xml</dc:format>
    <dc:creator>
     <cc:Agent>
      <dc:title>Matplotlib v3.5.0, https://matplotlib.org/</dc:title>
     </cc:Agent>
    </dc:creator>
   </cc:Work>
  </rdf:RDF>
 </metadata>
 <defs>
  <style type="text/css">*{stroke-linejoin: round; stroke-linecap: butt}</style>
 </defs>
 <g id="figure_1">
  <g id="patch_1">
   <path d="M 0 280.512 
L 371.52 280.512 
L 371.52 0 
L 0 0 
L 0 280.512 
z
" style="fill: none"/>
  </g>
  <g id="axes_1">
   <g id="patch_2">
    <path d="M 186.53779 19.296003 
C 159.900863 19.296003 134.000737 28.125588 112.910597 44.396171 
C 91.820458 60.666754 76.707048 83.478219 69.94718 109.243118 
C 63.187311 135.008018 65.154952 162.300993 75.540662 186.82981 
C 85.926371 211.358628 104.155592 231.766312 127.361506 244.843446 
L 186.53779 139.832687 
L 186.53779 19.296003 
z
" style="fill: #0000ff"/>
   </g>
   <g id="patch_3">
    <path d="M 127.361506 244.843446 
C 143.42193 253.893911 161.346619 259.140462 179.752357 260.178231 
C 198.158094 261.216 216.558935 258.017589 233.534918 250.829813 
C 250.510902 243.642037 265.613831 232.654666 277.678239 218.715578 
C 289.742648 204.776489 298.450013 188.2537 303.128402 170.422245 
C 307.806792 152.590789 308.332689 133.921451 304.665509 115.854909 
C 300.99833 97.788367 293.234895 80.801612 281.974295 66.205481 
C 270.713695 51.609351 256.253231 39.789209 239.708791 31.657197 
C 223.16435 23.525184 204.972738 19.296 186.537767 19.296003 
L 186.53779 139.832687 
L 127.361506 244.843446 
z
" style="fill: #ff0000"/>
   </g>
   <g id="matplotlib.axis_1"/>
   <g id="matplotlib.axis_2"/>
  </g>
 </g>
</svg>
