<?xml version="1.0" encoding="utf-8" standalone="no"?>
<!DOCTYPE svg PUBLIC "-//W3C//DTD SVG 1.1//EN"
  "http://www.w3.org/Graphics/SVG/1.1/DTD/svg11.dtd">
<svg xmlns:xlink="http://www.w3.org/1999/xlink" width="371.52pt" height="280.512pt" viewBox="0 0 371.52 280.512" xmlns="http://www.w3.org/2000/svg" version="1.1">
 <metadata>
  <rdf:RDF xmlns:dc="http://purl.org/dc/elements/1.1/" xmlns:cc="http://creativecommons.org/ns#" xmlns:rdf="http://www.w3.org/1999/02/22-rdf-syntax-ns#">
   <cc:Work>
    <dc:type rdf:resource="http://purl.org/dc/dcmitype/StillImage"/>
    <dc:date>2021-12-10T18:13:05.085474</dc:date>
    <dc:format>image/svg+xml</dc:format>
    <dc:creator>
     <cc:Agent>
      <dc:title>Matplotlib v3.5.0, https://matplotlib.org/</dc:title>
     </cc:Agent>
    </dc:creator>
   </cc:Work>
  </rdf:RDF>
 </metadata>
 <defs>
  <style type="text/css">*{stroke-linejoin: round; stroke-linecap: butt}</style>
 </defs>
 <g id="figure_1">
  <g id="patch_1">
   <path d="M 0 280.512 
L 371.52 280.512 
L 371.52 0 
L 0 0 
L 0 280.512 
z
" style="fill: none"/>
  </g>
  <g id="axes_1">
   <g id="patch_2">
    <path d="M 186.092777 19.296 
C 163.878741 19.296 142.092628 25.44746 123.1591 37.06576 
C 104.225571 48.684059 88.874084 65.321578 78.813165 85.12666 
C 68.752246 104.931743 64.369515 127.141354 66.152743 149.2837 
C 67.935971 171.426046 75.816455 192.648043 88.917145 210.587812 
L 186.092777 139.624362 
L 186.092777 19.296 
z
" style="fill: #0000ff"/>
   </g>
   <g id="patch_3">
    <path d="M 88.917145 210.587812 
C 101.05085 227.203414 117.245721 240.432608 135.948464 249.006547 
C 154.651207 257.580486 175.24413 261.216 195.75211 259.564396 
C 216.26009 257.912793 236.005813 251.028619 253.095414 239.572154 
C 270.185015 228.11569 284.054078 212.465306 293.372384 194.122073 
C 302.69069 175.77884 307.150485 155.348577 306.324018 134.790805 
C 305.497551 114.233033 299.412118 94.226711 288.651388 76.690699 
C 277.890658 59.154687 262.810025 44.668143 244.855913 34.620512 
C 226.901801 24.572881 206.667177 19.296004 186.0928 19.296 
L 186.092777 139.624362 
L 88.917145 210.587812 
z
" style="fill: #ff0000"/>
   </g>
   <g id="matplotlib.axis_1"/>
   <g id="matplotlib.axis_2"/>
  </g>
 </g>
</svg>
