<?xml version="1.0" encoding="utf-8" standalone="no"?>
<!DOCTYPE svg PUBLIC "-//W3C//DTD SVG 1.1//EN"
  "http://www.w3.org/Graphics/SVG/1.1/DTD/svg11.dtd">
<svg xmlns:xlink="http://www.w3.org/1999/xlink" width="371.52pt" height="280.512pt" viewBox="0 0 371.52 280.512" xmlns="http://www.w3.org/2000/svg" version="1.1">
 <metadata>
  <rdf:RDF xmlns:dc="http://purl.org/dc/elements/1.1/" xmlns:cc="http://creativecommons.org/ns#" xmlns:rdf="http://www.w3.org/1999/02/22-rdf-syntax-ns#">
   <cc:Work>
    <dc:type rdf:resource="http://purl.org/dc/dcmitype/StillImage"/>
    <dc:date>2022-01-14T17:15:38.680347</dc:date>
    <dc:format>image/svg+xml</dc:format>
    <dc:creator>
     <cc:Agent>
      <dc:title>Matplotlib v3.5.1, https://matplotlib.org/</dc:title>
     </cc:Agent>
    </dc:creator>
   </cc:Work>
  </rdf:RDF>
 </metadata>
 <defs>
  <style type="text/css">*{stroke-linejoin: round; stroke-linecap: butt}</style>
 </defs>
 <g id="figure_1">
  <g id="patch_1">
   <path d="M 0 280.512 
L 371.52 280.512 
L 371.52 0 
L 0 0 
L 0 280.512 
z
" style="fill: none"/>
  </g>
  <g id="axes_1">
   <g id="patch_2">
    <path d="M 186.690916 19.296 
C 159.605559 19.296 133.292038 28.407873 112.006823 45.157686 
C 90.721607 61.907498 75.677804 85.340628 69.308895 111.66654 
C 62.939987 137.992451 65.608955 165.710752 76.884068 190.337738 
C 88.159181 214.964724 107.397838 235.09683 131.487998 247.477492 
L 186.690916 140.064242 
L 186.690916 19.296 
z
" style="fill: #0000ff; stroke: #000000; stroke-width: 2; stroke-linejoin: miter"/>
   </g>
   <g id="patch_3">
    <path d="M 131.487998 247.477492 
C 147.741622 255.830721 165.681223 260.3868 183.951002 260.8014 
C 202.220781 261.216 220.348592 257.478406 236.964412 249.871091 
C 253.580232 242.263775 268.254658 230.983333 279.878659 216.882294 
C 291.50266 202.781254 299.775837 186.224029 304.072937 168.461945 
C 308.370038 150.69986 308.580013 132.191942 304.686994 114.336939 
C 300.793974 96.481937 292.898566 79.741277 281.597473 65.380148 
C 270.29638 51.01902 255.881654 39.408558 239.442701 31.426231 
C 223.003748 23.443904 204.965399 19.296 186.690916 19.296 
L 186.690916 140.064242 
L 131.487998 247.477492 
z
" style="fill: #ff0000; stroke: #000000; stroke-width: 2; stroke-linejoin: miter"/>
   </g>
   <g id="matplotlib.axis_1"/>
   <g id="matplotlib.axis_2"/>
  </g>
 </g>
</svg>
