<?xml version="1.0" encoding="utf-8" standalone="no"?>
<!DOCTYPE svg PUBLIC "-//W3C//DTD SVG 1.1//EN"
  "http://www.w3.org/Graphics/SVG/1.1/DTD/svg11.dtd">
<svg xmlns:xlink="http://www.w3.org/1999/xlink" width="798.18075pt" height="793.1241pt" viewBox="0 0 798.18075 793.1241" xmlns="http://www.w3.org/2000/svg" version="1.1">
 <metadata>
  <rdf:RDF xmlns:dc="http://purl.org/dc/elements/1.1/" xmlns:cc="http://creativecommons.org/ns#" xmlns:rdf="http://www.w3.org/1999/02/22-rdf-syntax-ns#">
   <cc:Work>
    <dc:type rdf:resource="http://purl.org/dc/dcmitype/StillImage"/>
    <dc:date>2022-01-14T17:05:43.187624</dc:date>
    <dc:format>image/svg+xml</dc:format>
    <dc:creator>
     <cc:Agent>
      <dc:title>Matplotlib v3.5.1, https://matplotlib.org/</dc:title>
     </cc:Agent>
    </dc:creator>
   </cc:Work>
  </rdf:RDF>
 </metadata>
 <defs>
  <style type="text/css">*{stroke-linejoin: round; stroke-linecap: butt}</style>
 </defs>
 <g id="figure_1">
  <g id="patch_1">
   <path d="M -0 793.1241 
L 798.18075 793.1241 
L 798.18075 0 
L -0 0 
L -0 793.1241 
z
" style="fill: none"/>
  </g>
  <g id="axes_1">
   <g id="patch_2">
    <path d="M 398.028732 42.59655 
C 350.161928 42.59655 302.790756 52.303562 258.79851 71.12676 
C 214.806265 89.949958 175.103973 117.499535 142.108154 152.098658 
C 109.112336 186.697781 83.506296 227.629944 66.848571 272.40377 
C 50.190846 317.177595 42.826398 364.86587 45.203471 412.565999 
C 47.580545 460.266129 59.649914 506.9903 80.676964 549.894599 
C 101.704014 592.798898 131.253299 630.994827 167.526273 662.157554 
C 203.799248 693.320281 246.04474 716.804461 291.691437 731.180707 
C 337.338133 745.556953 385.440745 750.52755 433.071458 745.789957 
L 398.028732 395.062481 
L 398.028732 42.59655 
z
" style="fill: #0000ff; stroke: #000000; stroke-linejoin: miter"/>
   </g>
   <g id="patch_3">
    <path d="M 433.071458 745.789957 
C 523.247584 736.82058 606.594928 693.564753 665.726395 625.046078 
C 724.857861 556.527402 755.354352 467.866512 750.853994 377.558963 
C 746.353635 287.251414 707.192753 202.046198 641.540703 139.717982 
C 575.888653 77.389766 488.651836 42.59655 398.028732 42.59655 
L 398.028732 395.062481 
L 433.071458 745.789957 
z
" style="fill: #ff0000; stroke: #000000; stroke-linejoin: miter"/>
   </g>
   <g id="matplotlib.axis_1"/>
   <g id="matplotlib.axis_2"/>
  </g>
 </g>
</svg>
