<?xml version="1.0" encoding="utf-8" standalone="no"?>
<!DOCTYPE svg PUBLIC "-//W3C//DTD SVG 1.1//EN"
  "http://www.w3.org/Graphics/SVG/1.1/DTD/svg11.dtd">
<svg xmlns:xlink="http://www.w3.org/1999/xlink" width="371.52pt" height="280.512pt" viewBox="0 0 371.52 280.512" xmlns="http://www.w3.org/2000/svg" version="1.1">
 <metadata>
  <rdf:RDF xmlns:dc="http://purl.org/dc/elements/1.1/" xmlns:cc="http://creativecommons.org/ns#" xmlns:rdf="http://www.w3.org/1999/02/22-rdf-syntax-ns#">
   <cc:Work>
    <dc:type rdf:resource="http://purl.org/dc/dcmitype/StillImage"/>
    <dc:date>2021-12-03T16:09:56.486867</dc:date>
    <dc:format>image/svg+xml</dc:format>
    <dc:creator>
     <cc:Agent>
      <dc:title>Matplotlib v3.5.0, https://matplotlib.org/</dc:title>
     </cc:Agent>
    </dc:creator>
   </cc:Work>
  </rdf:RDF>
 </metadata>
 <defs>
  <style type="text/css">*{stroke-linejoin: round; stroke-linecap: butt}</style>
 </defs>
 <g id="figure_1">
  <g id="patch_1">
   <path d="M 0 280.512 
L 371.52 280.512 
L 371.52 0 
L 0 0 
L 0 280.512 
z
" style="fill: none"/>
  </g>
  <g id="axes_1">
   <g id="patch_2">
    <path d="M 185.398023 19.296 
C 169.077406 19.296 152.925779 22.61316 137.926228 29.045578 
C 122.926676 35.477996 109.389823 44.892464 98.139602 56.71596 
C 86.889382 68.539457 78.158772 82.527132 72.479171 97.827612 
C 66.79957 113.128092 64.288595 129.424521 65.09908 145.725001 
C 65.909565 162.025481 70.024724 177.992449 77.194086 192.654059 
C 84.363448 207.315669 94.438542 220.368296 106.806139 231.017479 
C 119.173735 241.666662 133.577715 249.691869 149.141367 254.604638 
C 164.705018 259.517407 181.106036 261.216 197.346155 259.597031 
L 185.398023 139.743555 
L 185.398023 19.296 
z
" style="fill: #0000ff"/>
   </g>
   <g id="patch_3">
    <path d="M 197.346155 259.597031 
C 228.092516 256.531942 256.510542 241.750205 276.671947 218.33544 
C 296.833352 194.920675 307.231405 164.622747 305.696967 133.762109 
C 304.162529 102.901471 290.810275 73.784444 268.425618 52.485134 
C 246.040962 31.185824 216.296785 19.296 185.398023 19.296 
L 185.398023 139.743555 
L 197.346155 259.597031 
z
" style="fill: #bf00bf"/>
   </g>
   <g id="matplotlib.axis_1"/>
   <g id="matplotlib.axis_2"/>
  </g>
 </g>
</svg>
