<?xml version="1.0" encoding="utf-8" standalone="no"?>
<!DOCTYPE svg PUBLIC "-//W3C//DTD SVG 1.1//EN"
  "http://www.w3.org/Graphics/SVG/1.1/DTD/svg11.dtd">
<svg xmlns:xlink="http://www.w3.org/1999/xlink" width="87.59565pt" height="87.12342pt" viewBox="0 0 87.59565 87.12342" xmlns="http://www.w3.org/2000/svg" version="1.1">
 <metadata>
  <rdf:RDF xmlns:dc="http://purl.org/dc/elements/1.1/" xmlns:cc="http://creativecommons.org/ns#" xmlns:rdf="http://www.w3.org/1999/02/22-rdf-syntax-ns#">
   <cc:Work>
    <dc:type rdf:resource="http://purl.org/dc/dcmitype/StillImage"/>
    <dc:date>2021-12-14T09:20:47.917399</dc:date>
    <dc:format>image/svg+xml</dc:format>
    <dc:creator>
     <cc:Agent>
      <dc:title>Matplotlib v3.5.0, https://matplotlib.org/</dc:title>
     </cc:Agent>
    </dc:creator>
   </cc:Work>
  </rdf:RDF>
 </metadata>
 <defs>
  <style type="text/css">*{stroke-linejoin: round; stroke-linecap: butt}</style>
 </defs>
 <g id="figure_1">
  <g id="patch_1">
   <path d="M 0 87.12342 
L 87.59565 87.12342 
L 87.59565 0 
L 0 0 
L 0 87.12342 
z
" style="fill: none"/>
  </g>
  <g id="axes_1">
   <g id="patch_2">
    <path d="M 43.844232 10.50561 
C 35.1846 10.50561 26.860905 13.883855 20.671078 19.910638 
C 14.481251 25.937422 10.905541 34.145144 10.716308 42.760925 
C 10.527075 51.376706 13.739 59.732074 19.658303 66.022256 
C 25.577605 72.312438 33.745025 76.049399 42.396387 76.425949 
L 43.844232 43.481526 
L 43.844232 10.50561 
z
" style="fill: #0000ff"/>
   </g>
   <g id="patch_3">
    <path d="M 42.396387 76.425949 
C 46.804463 76.61781 51.206972 75.931548 55.344977 74.407527 
C 59.482981 72.883506 63.273733 70.552201 66.494274 67.55073 
C 69.714816 64.54926 72.300746 60.937645 74.099971 56.928305 
C 75.899196 52.918965 76.875736 48.592077 76.972156 44.20213 
C 77.068575 39.812183 76.282945 35.446964 74.661474 31.363217 
C 73.040003 27.27947 70.615115 23.558858 67.529433 20.420214 
C 64.44375 17.281569 60.758978 14.787656 56.69184 13.085155 
C 52.624702 11.382654 48.256528 10.505611 43.844238 10.50561 
L 43.844232 43.481526 
L 42.396387 76.425949 
z
" style="fill: #ff0000"/>
   </g>
   <g id="matplotlib.axis_1"/>
   <g id="matplotlib.axis_2"/>
  </g>
 </g>
</svg>
