<?xml version="1.0" encoding="utf-8" standalone="no"?>
<!DOCTYPE svg PUBLIC "-//W3C//DTD SVG 1.1//EN"
  "http://www.w3.org/Graphics/SVG/1.1/DTD/svg11.dtd">
<svg xmlns:xlink="http://www.w3.org/1999/xlink" width="371.52pt" height="280.512pt" viewBox="0 0 371.52 280.512" xmlns="http://www.w3.org/2000/svg" version="1.1">
 <metadata>
  <rdf:RDF xmlns:dc="http://purl.org/dc/elements/1.1/" xmlns:cc="http://creativecommons.org/ns#" xmlns:rdf="http://www.w3.org/1999/02/22-rdf-syntax-ns#">
   <cc:Work>
    <dc:type rdf:resource="http://purl.org/dc/dcmitype/StillImage"/>
    <dc:date>2021-12-03T16:09:57.711627</dc:date>
    <dc:format>image/svg+xml</dc:format>
    <dc:creator>
     <cc:Agent>
      <dc:title>Matplotlib v3.5.0, https://matplotlib.org/</dc:title>
     </cc:Agent>
    </dc:creator>
   </cc:Work>
  </rdf:RDF>
 </metadata>
 <defs>
  <style type="text/css">*{stroke-linejoin: round; stroke-linecap: butt}</style>
 </defs>
 <g id="figure_1">
  <g id="patch_1">
   <path d="M 0 280.512 
L 371.52 280.512 
L 371.52 0 
L 0 0 
L 0 280.512 
z
" style="fill: none"/>
  </g>
  <g id="axes_1">
   <g id="patch_2">
    <path d="M 185.928995 19.296 
C 154.394307 19.296 124.082958 31.657788 101.542247 53.711198 
C 79.001536 75.764607 65.980326 105.798584 65.29122 137.325742 
C 64.602113 168.852899 76.298575 199.427144 97.854152 222.444391 
C 119.409728 245.461638 149.15199 259.136051 180.65656 260.513935 
L 185.928995 139.962589 
L 185.928995 19.296 
z
" style="fill: #0000ff"/>
   </g>
   <g id="patch_3">
    <path d="M 180.65656 260.513935 
C 196.708895 261.216 212.740955 258.704808 227.809804 253.128058 
C 242.878653 247.551308 256.682952 239.020518 268.410793 228.037435 
C 280.138633 217.054353 289.555488 203.838608 296.107498 189.167497 
C 302.659508 174.496386 306.215651 158.66329 306.566769 142.599447 
C 306.917887 126.535604 304.056958 110.562246 298.152251 95.61886 
C 292.247545 80.675475 283.417137 67.060888 272.180398 55.575853 
C 260.943658 44.090819 247.52529 34.965006 232.714506 28.735157 
C 217.903721 22.505308 201.996697 19.296003 185.929017 19.296 
L 185.928995 139.962589 
L 180.65656 260.513935 
z
" style="fill: #bf00bf"/>
   </g>
   <g id="matplotlib.axis_1"/>
   <g id="matplotlib.axis_2"/>
  </g>
 </g>
</svg>
