<?xml version="1.0" encoding="utf-8" standalone="no"?>
<!DOCTYPE svg PUBLIC "-//W3C//DTD SVG 1.1//EN"
  "http://www.w3.org/Graphics/SVG/1.1/DTD/svg11.dtd">
<svg xmlns:xlink="http://www.w3.org/1999/xlink" width="70.6185pt" height="70.2558pt" viewBox="0 0 70.6185 70.2558" xmlns="http://www.w3.org/2000/svg" version="1.1">
 <metadata>
  <rdf:RDF xmlns:dc="http://purl.org/dc/elements/1.1/" xmlns:cc="http://creativecommons.org/ns#" xmlns:rdf="http://www.w3.org/1999/02/22-rdf-syntax-ns#">
   <cc:Work>
    <dc:type rdf:resource="http://purl.org/dc/dcmitype/StillImage"/>
    <dc:date>2021-12-14T09:20:48.786402</dc:date>
    <dc:format>image/svg+xml</dc:format>
    <dc:creator>
     <cc:Agent>
      <dc:title>Matplotlib v3.5.0, https://matplotlib.org/</dc:title>
     </cc:Agent>
    </dc:creator>
   </cc:Work>
  </rdf:RDF>
 </metadata>
 <defs>
  <style type="text/css">*{stroke-linejoin: round; stroke-linecap: butt}</style>
 </defs>
 <g id="figure_1">
  <g id="patch_1">
   <path d="M 0 70.2558 
L 70.6185 70.2558 
L 70.6185 0 
L 0 0 
L 0 70.2558 
z
" style="fill: none"/>
  </g>
  <g id="axes_1">
   <g id="patch_2">
    <path d="M 35.324926 9.59083 
C 28.603692 9.59083 22.147568 12.247371 17.372761 16.97772 
C 12.597953 21.708069 9.881134 28.139059 9.81826 34.859999 
C 9.755386 41.580939 12.351418 48.061631 17.036894 52.880479 
C 21.72237 57.699328 28.127664 60.476187 34.847722 60.601929 
L 35.324926 35.098611 
L 35.324926 9.59083 
z
" style="fill: #0000ff"/>
   </g>
   <g id="patch_3">
    <path d="M 34.847722 60.601929 
C 38.21686 60.66497 41.565335 60.059767 44.699249 58.821364 
C 47.833164 57.582961 50.690838 55.735732 53.106794 53.386643 
C 55.52275 51.037554 57.449438 48.232839 58.775292 45.134908 
C 60.101146 42.036978 60.800069 38.706804 60.831592 35.337224 
C 60.863114 31.967644 60.226614 28.624977 58.958948 25.502784 
C 57.691283 22.380591 55.817403 19.540322 53.445817 17.146446 
C 51.074231 14.75257 48.251616 12.852203 45.141418 11.555387 
C 42.03122 10.258571 38.694653 9.59083 35.324926 9.59083 
L 35.324926 35.098611 
L 34.847722 60.601929 
z
" style="fill: #ff0000"/>
   </g>
   <g id="matplotlib.axis_1"/>
   <g id="matplotlib.axis_2"/>
  </g>
 </g>
</svg>
