<?xml version="1.0" encoding="utf-8" standalone="no"?>
<!DOCTYPE svg PUBLIC "-//W3C//DTD SVG 1.1//EN"
  "http://www.w3.org/Graphics/SVG/1.1/DTD/svg11.dtd">
<svg xmlns:xlink="http://www.w3.org/1999/xlink" width="371.52pt" height="280.512pt" viewBox="0 0 371.52 280.512" xmlns="http://www.w3.org/2000/svg" version="1.1">
 <metadata>
  <rdf:RDF xmlns:dc="http://purl.org/dc/elements/1.1/" xmlns:cc="http://creativecommons.org/ns#" xmlns:rdf="http://www.w3.org/1999/02/22-rdf-syntax-ns#">
   <cc:Work>
    <dc:type rdf:resource="http://purl.org/dc/dcmitype/StillImage"/>
    <dc:date>2021-12-03T16:09:58.635030</dc:date>
    <dc:format>image/svg+xml</dc:format>
    <dc:creator>
     <cc:Agent>
      <dc:title>Matplotlib v3.5.0, https://matplotlib.org/</dc:title>
     </cc:Agent>
    </dc:creator>
   </cc:Work>
  </rdf:RDF>
 </metadata>
 <defs>
  <style type="text/css">*{stroke-linejoin: round; stroke-linecap: butt}</style>
 </defs>
 <g id="figure_1">
  <g id="patch_1">
   <path d="M 0 280.512 
L 371.52 280.512 
L 371.52 0 
L 0 0 
L 0 280.512 
z
" style="fill: none"/>
  </g>
  <g id="axes_1">
   <g id="patch_2">
    <path d="M 185.834251 19.296 
C 153.99816 19.296 123.417806 31.879091 100.801244 54.285067 
C 78.184681 76.691044 65.316077 107.152351 65.018267 138.987049 
C 64.720457 170.821747 77.016933 201.518471 99.210363 224.343641 
C 121.403793 247.16881 151.743388 260.321801 183.573908 260.917395 
L 185.834251 140.11727 
L 185.834251 19.296 
z
" style="fill: #0000ff"/>
   </g>
   <g id="patch_3">
    <path d="M 183.573908 260.917395 
C 199.532312 261.216 215.392843 258.349368 230.23708 252.483494 
C 245.081316 246.61762 258.617098 237.867955 270.060621 226.741158 
C 281.504145 215.614361 290.63018 202.329426 296.910277 187.655632 
C 303.190373 172.981838 306.500926 157.207991 306.650235 141.247491 
C 306.799543 125.286992 303.78467 109.453971 297.780192 94.665256 
C 291.775714 79.876541 282.899812 66.4232 271.666454 55.084263 
C 260.433095 43.745326 247.063373 34.743963 232.331473 28.601408 
C 217.599574 22.458852 201.795449 19.296 185.834251 19.296 
L 185.834251 140.11727 
L 183.573908 260.917395 
z
" style="fill: #bf00bf"/>
   </g>
   <g id="matplotlib.axis_1"/>
   <g id="matplotlib.axis_2"/>
  </g>
 </g>
</svg>
