<?xml version="1.0" encoding="utf-8" standalone="no"?>
<!DOCTYPE svg PUBLIC "-//W3C//DTD SVG 1.1//EN"
  "http://www.w3.org/Graphics/SVG/1.1/DTD/svg11.dtd">
<svg xmlns:xlink="http://www.w3.org/1999/xlink" width="371.52pt" height="280.512pt" viewBox="0 0 371.52 280.512" xmlns="http://www.w3.org/2000/svg" version="1.1">
 <metadata>
  <rdf:RDF xmlns:dc="http://purl.org/dc/elements/1.1/" xmlns:cc="http://creativecommons.org/ns#" xmlns:rdf="http://www.w3.org/1999/02/22-rdf-syntax-ns#">
   <cc:Work>
    <dc:type rdf:resource="http://purl.org/dc/dcmitype/StillImage"/>
    <dc:date>2021-12-03T16:09:59.592842</dc:date>
    <dc:format>image/svg+xml</dc:format>
    <dc:creator>
     <cc:Agent>
      <dc:title>Matplotlib v3.5.0, https://matplotlib.org/</dc:title>
     </cc:Agent>
    </dc:creator>
   </cc:Work>
  </rdf:RDF>
 </metadata>
 <defs>
  <style type="text/css">*{stroke-linejoin: round; stroke-linecap: butt}</style>
 </defs>
 <g id="figure_1">
  <g id="patch_1">
   <path d="M 0 280.512 
L 371.52 280.512 
L 371.52 0 
L 0 0 
L 0 280.512 
z
" style="fill: none"/>
  </g>
  <g id="axes_1">
   <g id="patch_2">
    <path d="M 184.898088 19.296005 
C 166.550594 19.296005 148.442537 23.481095 131.955729 31.531914 
C 115.468921 39.582734 101.033671 51.289153 89.751523 65.757866 
C 78.469374 80.226579 70.634793 97.079948 66.845631 115.031906 
C 63.056469 132.983864 63.411624 151.565859 67.883994 169.359916 
C 72.356363 187.153972 80.829218 203.69566 92.656002 217.722695 
C 104.482785 231.749731 119.354814 242.896006 136.137217 250.310956 
C 152.91962 257.725906 171.174371 261.216 189.508465 260.514911 
C 207.84256 259.813822 225.777472 254.939848 241.944604 246.26492 
L 184.898088 139.949517 
L 184.898088 19.296005 
z
" style="fill: #0000ff"/>
   </g>
   <g id="patch_3">
    <path d="M 241.944604 246.26492 
C 265.627018 233.557455 284.397745 213.294077 295.25953 188.710383 
C 306.121315 164.126688 308.463531 136.60472 301.91218 110.539107 
C 295.360829 84.473493 280.284214 61.329588 259.089725 44.802941 
C 237.895236 28.276294 211.774383 19.296 184.898065 19.296005 
L 184.898088 139.949517 
L 241.944604 246.26492 
z
" style="fill: #bf00bf"/>
   </g>
   <g id="matplotlib.axis_1"/>
   <g id="matplotlib.axis_2"/>
  </g>
 </g>
</svg>
