<?xml version="1.0" encoding="utf-8" standalone="no"?>
<!DOCTYPE svg PUBLIC "-//W3C//DTD SVG 1.1//EN"
  "http://www.w3.org/Graphics/SVG/1.1/DTD/svg11.dtd">
<svg xmlns:xlink="http://www.w3.org/1999/xlink" width="81.76455pt" height="81.32994pt" viewBox="0 0 81.76455 81.32994" xmlns="http://www.w3.org/2000/svg" version="1.1">
 <metadata>
  <rdf:RDF xmlns:dc="http://purl.org/dc/elements/1.1/" xmlns:cc="http://creativecommons.org/ns#" xmlns:rdf="http://www.w3.org/1999/02/22-rdf-syntax-ns#">
   <cc:Work>
    <dc:type rdf:resource="http://purl.org/dc/dcmitype/StillImage"/>
    <dc:date>2022-01-14T17:05:46.340425</dc:date>
    <dc:format>image/svg+xml</dc:format>
    <dc:creator>
     <cc:Agent>
      <dc:title>Matplotlib v3.5.1, https://matplotlib.org/</dc:title>
     </cc:Agent>
    </dc:creator>
   </cc:Work>
  </rdf:RDF>
 </metadata>
 <defs>
  <style type="text/css">*{stroke-linejoin: round; stroke-linecap: butt}</style>
 </defs>
 <g id="figure_1">
  <g id="patch_1">
   <path d="M 0 81.32994 
L 81.76455 81.32994 
L 81.76455 0 
L 0 0 
L 0 81.32994 
z
" style="fill: none"/>
  </g>
  <g id="axes_1">
   <g id="patch_2">
    <path d="M 40.665495 10.242271 
C 36.050909 10.242271 31.496544 11.294865 27.34994 13.31973 
C 23.203336 15.344595 19.572721 18.288881 16.735143 21.927913 
C 13.897565 25.566945 11.927086 29.805743 10.974073 34.320848 
C 10.021059 38.835952 10.110384 43.509517 11.235232 47.984908 
C 12.360079 52.460299 14.49109 56.620705 17.46565 60.148651 
C 20.440209 63.676596 24.180679 66.480001 28.401628 68.344938 
C 32.622577 70.209875 37.213837 71.08767 41.825053 70.911339 
C 46.436269 70.735008 50.947086 69.509152 55.013288 67.327318 
L 40.665495 40.587886 
L 40.665495 10.242271 
z
" style="fill: #0000ff; stroke: #000000; stroke-linejoin: miter"/>
   </g>
   <g id="patch_3">
    <path d="M 55.013288 67.327318 
C 60.969662 64.131258 65.690695 59.034807 68.422547 52.851752 
C 71.154399 46.668697 71.743491 39.746635 70.095758 33.190862 
C 68.448025 26.635088 64.656099 20.814155 59.325465 16.657531 
C 53.99483 12.500908 47.425163 10.24227 40.665489 10.242271 
L 40.665495 40.587886 
L 55.013288 67.327318 
z
" style="fill: #ff0000; stroke: #000000; stroke-linejoin: miter"/>
   </g>
   <g id="matplotlib.axis_1"/>
   <g id="matplotlib.axis_2"/>
  </g>
 </g>
</svg>
