<?xml version="1.0" encoding="utf-8" standalone="no"?>
<!DOCTYPE svg PUBLIC "-//W3C//DTD SVG 1.1//EN"
  "http://www.w3.org/Graphics/SVG/1.1/DTD/svg11.dtd">
<svg xmlns:xlink="http://www.w3.org/1999/xlink" width="371.52pt" height="280.512pt" viewBox="0 0 371.52 280.512" xmlns="http://www.w3.org/2000/svg" version="1.1">
 <metadata>
  <rdf:RDF xmlns:dc="http://purl.org/dc/elements/1.1/" xmlns:cc="http://creativecommons.org/ns#" xmlns:rdf="http://www.w3.org/1999/02/22-rdf-syntax-ns#">
   <cc:Work>
    <dc:type rdf:resource="http://purl.org/dc/dcmitype/StillImage"/>
    <dc:date>2021-12-03T16:10:00.544269</dc:date>
    <dc:format>image/svg+xml</dc:format>
    <dc:creator>
     <cc:Agent>
      <dc:title>Matplotlib v3.5.0, https://matplotlib.org/</dc:title>
     </cc:Agent>
    </dc:creator>
   </cc:Work>
  </rdf:RDF>
 </metadata>
 <defs>
  <style type="text/css">*{stroke-linejoin: round; stroke-linecap: butt}</style>
 </defs>
 <g id="figure_1">
  <g id="patch_1">
   <path d="M 0 280.512 
L 371.52 280.512 
L 371.52 0 
L 0 0 
L 0 280.512 
z
" style="fill: none"/>
  </g>
  <g id="axes_1">
   <g id="patch_2">
    <path d="M 185.167276 19.296006 
C 168.452251 19.296006 151.918841 22.775918 136.62197 29.513704 
C 121.325098 36.25149 107.597177 46.100734 96.314123 58.432998 
C 85.03107 70.765263 76.438073 85.312559 71.083414 101.146689 
C 65.728755 116.980819 63.728794 133.757696 65.21114 150.406861 
C 66.693486 167.056026 71.625927 183.215681 79.693745 197.85475 
C 87.761562 212.49382 98.789438 225.294187 112.073732 235.439116 
C 125.358026 245.584044 140.61006 252.853079 156.856671 256.782415 
C 173.103282 260.711751 189.991419 261.216 206.443524 258.262989 
L 185.167276 139.726655 
L 185.167276 19.296006 
z
" style="fill: #0000ff"/>
   </g>
   <g id="patch_3">
    <path d="M 206.443524 258.262989 
C 236.052538 252.948427 262.621814 236.728068 280.87974 212.820194 
C 299.137666 188.912321 307.791206 159.010102 305.123411 129.046438 
C 302.455615 99.082774 288.655419 71.179709 266.46092 50.873491 
C 244.266421 30.567273 215.249445 19.296 185.167253 19.296006 
L 185.167276 139.726655 
L 206.443524 258.262989 
z
" style="fill: #bf00bf"/>
   </g>
   <g id="matplotlib.axis_1"/>
   <g id="matplotlib.axis_2"/>
  </g>
 </g>
</svg>
