<?xml version="1.0" encoding="utf-8" standalone="no"?>
<!DOCTYPE svg PUBLIC "-//W3C//DTD SVG 1.1//EN"
  "http://www.w3.org/Graphics/SVG/1.1/DTD/svg11.dtd">
<svg xmlns:xlink="http://www.w3.org/1999/xlink" width="212.05755pt" height="210.78234pt" viewBox="0 0 212.05755 210.78234" xmlns="http://www.w3.org/2000/svg" version="1.1">
 <metadata>
  <rdf:RDF xmlns:dc="http://purl.org/dc/elements/1.1/" xmlns:cc="http://creativecommons.org/ns#" xmlns:rdf="http://www.w3.org/1999/02/22-rdf-syntax-ns#">
   <cc:Work>
    <dc:type rdf:resource="http://purl.org/dc/dcmitype/StillImage"/>
    <dc:date>2022-01-14T17:05:47.304130</dc:date>
    <dc:format>image/svg+xml</dc:format>
    <dc:creator>
     <cc:Agent>
      <dc:title>Matplotlib v3.5.1, https://matplotlib.org/</dc:title>
     </cc:Agent>
    </dc:creator>
   </cc:Work>
  </rdf:RDF>
 </metadata>
 <defs>
  <style type="text/css">*{stroke-linejoin: round; stroke-linecap: butt}</style>
 </defs>
 <g id="figure_1">
  <g id="patch_1">
   <path d="M 0 210.78234 
L 212.05755 210.78234 
L 212.05755 -0 
L 0 -0 
L 0 210.78234 
z
" style="fill: none"/>
  </g>
  <g id="axes_1">
   <g id="patch_2">
    <path d="M 105.592387 16.126474 
C 93.286106 16.126474 81.113537 18.69454 69.851357 23.666816 
C 58.589178 28.639092 48.482123 35.907526 40.17508 45.008352 
C 31.868037 54.109178 25.541523 64.844628 21.599205 76.529721 
C 17.656887 88.214814 16.184434 100.595624 17.275798 112.882188 
C 18.367161 125.168751 21.998625 137.094072 27.93848 147.897248 
C 33.878336 158.700424 41.997507 168.146694 51.777945 175.633335 
C 61.558383 183.119975 72.787552 188.484296 84.748968 191.384023 
C 96.710384 194.28375 109.144118 194.65587 121.256827 192.47664 
L 105.592387 105.00053 
L 105.592387 16.126474 
z
" style="fill: #0000ff; stroke: #000000; stroke-linejoin: miter"/>
   </g>
   <g id="patch_3">
    <path d="M 121.256827 192.47664 
C 143.056189 188.554659 162.617571 176.584541 176.059799 158.941278 
C 189.502027 141.298014 195.873116 119.231111 193.908976 97.118864 
C 191.944837 75.006616 181.784571 54.415026 165.444077 39.429672 
C 149.103583 24.444317 127.740105 16.12647 105.592371 16.126474 
L 105.592387 105.00053 
L 121.256827 192.47664 
z
" style="fill: #ff0000; stroke: #000000; stroke-linejoin: miter"/>
   </g>
   <g id="matplotlib.axis_1"/>
   <g id="matplotlib.axis_2"/>
  </g>
 </g>
</svg>
