<?xml version="1.0" encoding="utf-8" standalone="no"?>
<!DOCTYPE svg PUBLIC "-//W3C//DTD SVG 1.1//EN"
  "http://www.w3.org/Graphics/SVG/1.1/DTD/svg11.dtd">
<svg xmlns:xlink="http://www.w3.org/1999/xlink" width="371.52pt" height="280.512pt" viewBox="0 0 371.52 280.512" xmlns="http://www.w3.org/2000/svg" version="1.1">
 <metadata>
  <rdf:RDF xmlns:dc="http://purl.org/dc/elements/1.1/" xmlns:cc="http://creativecommons.org/ns#" xmlns:rdf="http://www.w3.org/1999/02/22-rdf-syntax-ns#">
   <cc:Work>
    <dc:type rdf:resource="http://purl.org/dc/dcmitype/StillImage"/>
    <dc:date>2021-12-03T16:10:01.467527</dc:date>
    <dc:format>image/svg+xml</dc:format>
    <dc:creator>
     <cc:Agent>
      <dc:title>Matplotlib v3.5.0, https://matplotlib.org/</dc:title>
     </cc:Agent>
    </dc:creator>
   </cc:Work>
  </rdf:RDF>
 </metadata>
 <defs>
  <style type="text/css">*{stroke-linejoin: round; stroke-linecap: butt}</style>
 </defs>
 <g id="figure_1">
  <g id="patch_1">
   <path d="M 0 280.512 
L 371.52 280.512 
L 371.52 0 
L 0 0 
L 0 280.512 
z
" style="fill: none"/>
  </g>
  <g id="axes_1">
   <g id="patch_2">
    <path d="M 184.797662 19.296 
C 167.070464 19.296 149.559691 23.207472 133.517468 30.750722 
C 117.475245 38.293972 103.293279 49.284815 91.985666 62.93734 
C 80.678053 76.589865 72.520893 92.570713 68.097473 109.73716 
C 63.674053 126.903607 63.09238 144.836494 66.394048 162.253513 
C 69.695715 179.670531 76.800106 196.146405 87.199212 210.503011 
C 97.598318 224.859617 111.038223 236.746405 126.557893 245.3134 
C 142.077562 253.880395 159.298049 258.918413 176.987984 260.067207 
C 194.67792 261.216 212.405364 258.447518 228.9027 251.959724 
L 184.797662 139.808261 
L 184.797662 19.296 
z
" style="fill: #0000ff"/>
   </g>
   <g id="patch_3">
    <path d="M 228.9027 251.959724 
C 255.017006 241.68993 276.741754 222.614749 290.302801 198.04803 
C 303.863847 173.48131 308.42762 144.93312 303.201275 117.363009 
C 297.974931 89.792898 283.279722 64.895548 261.668583 46.996265 
C 240.057443 29.096982 212.858768 19.296 184.797662 19.296 
L 184.797662 139.808261 
L 228.9027 251.959724 
z
" style="fill: #bf00bf"/>
   </g>
   <g id="matplotlib.axis_1"/>
   <g id="matplotlib.axis_2"/>
  </g>
 </g>
</svg>
