<?xml version="1.0" encoding="utf-8" standalone="no"?>
<!DOCTYPE svg PUBLIC "-//W3C//DTD SVG 1.1//EN"
  "http://www.w3.org/Graphics/SVG/1.1/DTD/svg11.dtd">
<svg xmlns:xlink="http://www.w3.org/1999/xlink" width="44.811pt" height="44.6148pt" viewBox="0 0 44.811 44.6148" xmlns="http://www.w3.org/2000/svg" version="1.1">
 <metadata>
  <rdf:RDF xmlns:dc="http://purl.org/dc/elements/1.1/" xmlns:cc="http://creativecommons.org/ns#" xmlns:rdf="http://www.w3.org/1999/02/22-rdf-syntax-ns#">
   <cc:Work>
    <dc:type rdf:resource="http://purl.org/dc/dcmitype/StillImage"/>
    <dc:date>2022-01-14T17:05:48.205255</dc:date>
    <dc:format>image/svg+xml</dc:format>
    <dc:creator>
     <cc:Agent>
      <dc:title>Matplotlib v3.5.1, https://matplotlib.org/</dc:title>
     </cc:Agent>
    </dc:creator>
   </cc:Work>
  </rdf:RDF>
 </metadata>
 <defs>
  <style type="text/css">*{stroke-linejoin: round; stroke-linecap: butt}</style>
 </defs>
 <g id="figure_1">
  <g id="patch_1">
   <path d="M 0 44.6148 
L 44.811 44.6148 
L 44.811 0 
L 0 0 
L 0 44.6148 
z
" style="fill: none"/>
  </g>
  <g id="axes_1">
   <g id="patch_2">
    <path d="M 22.296234 8.5734 
C 20.283459 8.5734 18.295257 9.017515 16.473796 9.873988 
C 14.652335 10.730461 13.042091 11.97838 11.758206 13.52851 
C 10.474321 15.078641 9.548143 16.893133 9.045901 18.84224 
C 8.543658 20.791347 8.477614 22.827477 8.852491 24.805034 
C 9.227368 26.782592 10.034012 28.65329 11.214744 30.283363 
C 12.395476 31.913436 13.921465 33.263081 15.683594 34.235792 
C 17.445723 35.208503 19.400966 35.780528 21.409511 35.910964 
C 23.418055 36.0414 25.430859 35.727062 27.303994 34.990427 
L 22.296234 22.256563 
L 22.296234 8.5734 
z
" style="fill: #0000ff; stroke: #000000; stroke-linejoin: miter"/>
   </g>
   <g id="patch_3">
    <path d="M 27.303994 34.990427 
C 30.269056 33.824377 32.73572 31.65855 34.275464 28.869203 
C 35.815208 26.079857 36.333386 22.838448 35.739978 19.708092 
C 35.14657 16.577735 33.478052 13.750849 31.024287 11.718534 
C 28.570522 9.68622 25.482339 8.5734 22.296234 8.5734 
L 22.296234 22.256563 
L 27.303994 34.990427 
z
" style="fill: #ff0000; stroke: #000000; stroke-linejoin: miter"/>
   </g>
   <g id="matplotlib.axis_1"/>
   <g id="matplotlib.axis_2"/>
  </g>
 </g>
</svg>
