<?xml version="1.0" encoding="utf-8" standalone="no"?>
<!DOCTYPE svg PUBLIC "-//W3C//DTD SVG 1.1//EN"
  "http://www.w3.org/Graphics/SVG/1.1/DTD/svg11.dtd">
<svg xmlns:xlink="http://www.w3.org/1999/xlink" width="148.9059pt" height="148.03812pt" viewBox="0 0 148.9059 148.03812" xmlns="http://www.w3.org/2000/svg" version="1.1">
 <metadata>
  <rdf:RDF xmlns:dc="http://purl.org/dc/elements/1.1/" xmlns:cc="http://creativecommons.org/ns#" xmlns:rdf="http://www.w3.org/1999/02/22-rdf-syntax-ns#">
   <cc:Work>
    <dc:type rdf:resource="http://purl.org/dc/dcmitype/StillImage"/>
    <dc:date>2021-12-14T09:20:52.410553</dc:date>
    <dc:format>image/svg+xml</dc:format>
    <dc:creator>
     <cc:Agent>
      <dc:title>Matplotlib v3.5.0, https://matplotlib.org/</dc:title>
     </cc:Agent>
    </dc:creator>
   </cc:Work>
  </rdf:RDF>
 </metadata>
 <defs>
  <style type="text/css">*{stroke-linejoin: round; stroke-linecap: butt}</style>
 </defs>
 <g id="figure_1">
  <g id="patch_1">
   <path d="M 0 148.03812 
L 148.9059 148.03812 
L 148.9059 0 
L 0 0 
L 0 148.03812 
z
" style="fill: none"/>
  </g>
  <g id="axes_1">
   <g id="patch_2">
    <path d="M 74.345078 13.27446 
C 66.213897 13.27446 58.164653 14.897865 50.674404 18.04846 
C 43.184154 21.199055 36.403856 25.813344 30.735359 31.61785 
C 25.066862 37.422357 20.624408 44.300097 17.67129 51.843446 
C 14.718171 59.386796 13.313905 67.443727 13.541717 75.536728 
C 13.769529 83.629728 15.624829 91.595693 18.997659 98.962502 
C 22.370488 106.32931 27.192871 112.948492 33.178998 118.427747 
C 39.165125 123.907001 46.194353 128.135901 53.850078 130.86381 
C 61.505804 133.591719 69.633734 134.76366 77.75215 134.310175 
L 74.345078 73.839859 
L 74.345078 13.27446 
z
" style="fill: #0000ff"/>
   </g>
   <g id="patch_3">
    <path d="M 77.75215 134.310175 
C 93.55893 133.427226 108.411348 126.433717 119.125731 114.828733 
C 129.840114 103.223748 135.591995 87.900286 135.148438 72.14299 
C 134.704881 56.385693 128.100017 41.407077 116.749623 30.417865 
C 105.399229 19.428653 90.176712 13.27446 74.345078 13.27446 
L 74.345078 73.839859 
L 77.75215 134.310175 
z
" style="fill: #ff0000"/>
   </g>
   <g id="matplotlib.axis_1"/>
   <g id="matplotlib.axis_2"/>
  </g>
 </g>
</svg>
