<?xml version="1.0" encoding="utf-8" standalone="no"?>
<!DOCTYPE svg PUBLIC "-//W3C//DTD SVG 1.1//EN"
  "http://www.w3.org/Graphics/SVG/1.1/DTD/svg11.dtd">
<svg xmlns:xlink="http://www.w3.org/1999/xlink" width="176.68035pt" height="175.63338pt" viewBox="0 0 176.68035 175.63338" xmlns="http://www.w3.org/2000/svg" version="1.1">
 <metadata>
  <rdf:RDF xmlns:dc="http://purl.org/dc/elements/1.1/" xmlns:cc="http://creativecommons.org/ns#" xmlns:rdf="http://www.w3.org/1999/02/22-rdf-syntax-ns#">
   <cc:Work>
    <dc:type rdf:resource="http://purl.org/dc/dcmitype/StillImage"/>
    <dc:date>2022-01-14T17:05:50.100354</dc:date>
    <dc:format>image/svg+xml</dc:format>
    <dc:creator>
     <cc:Agent>
      <dc:title>Matplotlib v3.5.1, https://matplotlib.org/</dc:title>
     </cc:Agent>
    </dc:creator>
   </cc:Work>
  </rdf:RDF>
 </metadata>
 <defs>
  <style type="text/css">*{stroke-linejoin: round; stroke-linecap: butt}</style>
 </defs>
 <g id="figure_1">
  <g id="patch_1">
   <path d="M 0 175.63338 
L 176.68035 175.63338 
L 176.68035 0 
L 0 0 
L 0 175.63338 
z
" style="fill: none"/>
  </g>
  <g id="axes_1">
   <g id="patch_2">
    <path d="M 88.193994 14.528794 
C 78.366874 14.528794 68.639244 16.496027 59.590287 20.313365 
C 50.54133 24.130703 42.354272 29.72085 35.516568 36.750972 
C 28.678864 43.781094 23.328967 52.108841 19.785408 61.238381 
C 16.241849 70.367921 14.57638 80.114396 14.888161 89.897504 
C 15.199943 99.680611 17.482663 109.302259 21.600408 118.189576 
C 25.718153 127.076894 31.587546 135.049927 38.859125 141.633964 
C 46.130704 148.218001 54.657231 153.279726 63.931039 156.517764 
C 73.204846 159.755803 83.038155 161.10459 92.845492 160.483819 
L 88.193994 87.579838 
L 88.193994 14.528794 
z
" style="fill: #0000ff; stroke: #000000; stroke-linejoin: miter"/>
   </g>
   <g id="patch_3">
    <path d="M 92.845492 160.483819 
C 111.849226 159.280949 129.655103 150.752621 142.463974 136.718482 
C 155.272845 122.684344 162.10397 104.218949 161.499828 85.262166 
C 160.895685 66.305383 152.902531 48.30868 139.225825 35.111922 
C 125.549119 21.915164 107.236049 14.52879 88.193981 14.528794 
L 88.193994 87.579838 
L 92.845492 160.483819 
z
" style="fill: #ff0000; stroke: #000000; stroke-linejoin: miter"/>
   </g>
   <g id="matplotlib.axis_1"/>
   <g id="matplotlib.axis_2"/>
  </g>
 </g>
</svg>
