<?xml version="1.0" encoding="utf-8" standalone="no"?>
<!DOCTYPE svg PUBLIC "-//W3C//DTD SVG 1.1//EN"
  "http://www.w3.org/Graphics/SVG/1.1/DTD/svg11.dtd">
<svg xmlns:xlink="http://www.w3.org/1999/xlink" width="371.52pt" height="280.512pt" viewBox="0 0 371.52 280.512" xmlns="http://www.w3.org/2000/svg" version="1.1">
 <metadata>
  <rdf:RDF xmlns:dc="http://purl.org/dc/elements/1.1/" xmlns:cc="http://creativecommons.org/ns#" xmlns:rdf="http://www.w3.org/1999/02/22-rdf-syntax-ns#">
   <cc:Work>
    <dc:type rdf:resource="http://purl.org/dc/dcmitype/StillImage"/>
    <dc:date>2021-12-10T18:14:50.168732</dc:date>
    <dc:format>image/svg+xml</dc:format>
    <dc:creator>
     <cc:Agent>
      <dc:title>Matplotlib v3.5.0, https://matplotlib.org/</dc:title>
     </cc:Agent>
    </dc:creator>
   </cc:Work>
  </rdf:RDF>
 </metadata>
 <defs>
  <style type="text/css">*{stroke-linejoin: round; stroke-linecap: butt}</style>
 </defs>
 <g id="figure_1">
  <g id="patch_1">
   <path d="M 0 280.512 
L 371.52 280.512 
L 371.52 0 
L 0 0 
L 0 280.512 
z
" style="fill: none"/>
  </g>
  <g id="axes_1">
   <g id="patch_2">
    <path d="M 186.70935 19.296 
C 158.544023 19.296 131.251444 29.173416 109.609731 47.199007 
C 87.968018 65.224599 73.318379 90.28126 68.225528 117.982317 
C 63.132678 145.683374 67.912237 174.312101 81.727448 198.856462 
C 95.542658 223.400823 117.537345 242.339722 143.860896 252.357524 
L 186.70935 139.765615 
L 186.70935 19.296 
z
" style="fill: #0000ff"/>
   </g>
   <g id="patch_3">
    <path d="M 143.860896 252.357524 
C 160.370584 258.640521 178.061931 261.216 195.677733 259.900939 
C 213.293534 258.585879 230.406387 253.412185 245.800197 244.747517 
C 261.194007 236.08285 274.495282 224.137435 284.75879 209.760153 
C 295.022299 195.382871 301.999022 178.922549 305.193172 161.548913 
C 308.387322 144.175276 307.721401 126.309851 303.24273 109.222214 
C 298.76406 92.134576 290.581305 76.239314 279.275957 62.665995 
C 267.97061 49.092677 253.816966 38.170626 237.82083 30.675997 
C 221.824693 23.181368 204.37417 19.296 186.70935 19.296 
L 186.70935 139.765615 
L 143.860896 252.357524 
z
" style="fill: #ff0000"/>
   </g>
   <g id="matplotlib.axis_1"/>
   <g id="matplotlib.axis_2"/>
  </g>
 </g>
</svg>
