<?xml version="1.0" encoding="utf-8" standalone="no"?>
<!DOCTYPE svg PUBLIC "-//W3C//DTD SVG 1.1//EN"
  "http://www.w3.org/Graphics/SVG/1.1/DTD/svg11.dtd">
<svg xmlns:xlink="http://www.w3.org/1999/xlink" width="371.52pt" height="280.512pt" viewBox="0 0 371.52 280.512" xmlns="http://www.w3.org/2000/svg" version="1.1">
 <metadata>
  <rdf:RDF xmlns:dc="http://purl.org/dc/elements/1.1/" xmlns:cc="http://creativecommons.org/ns#" xmlns:rdf="http://www.w3.org/1999/02/22-rdf-syntax-ns#">
   <cc:Work>
    <dc:type rdf:resource="http://purl.org/dc/dcmitype/StillImage"/>
    <dc:date>2021-12-03T16:10:04.303878</dc:date>
    <dc:format>image/svg+xml</dc:format>
    <dc:creator>
     <cc:Agent>
      <dc:title>Matplotlib v3.5.0, https://matplotlib.org/</dc:title>
     </cc:Agent>
    </dc:creator>
   </cc:Work>
  </rdf:RDF>
 </metadata>
 <defs>
  <style type="text/css">*{stroke-linejoin: round; stroke-linecap: butt}</style>
 </defs>
 <g id="figure_1">
  <g id="patch_1">
   <path d="M 0 280.512 
L 371.52 280.512 
L 371.52 0 
L 0 0 
L 0 280.512 
z
" style="fill: none"/>
  </g>
  <g id="axes_1">
   <g id="patch_2">
    <path d="M 185.045173 19.296006 
C 168.074344 19.296006 151.293542 22.882579 135.805464 29.820047 
C 120.317385 36.757514 106.468878 46.890514 95.169952 59.553188 
C 83.871027 72.215862 75.374717 87.124637 70.239331 103.299829 
C 65.103945 119.475021 63.444488 136.554395 65.370004 153.415636 
C 67.29552 170.276876 72.762889 186.542382 81.412841 201.14332 
C 90.062792 215.744257 101.701615 228.353644 115.5645 238.142896 
C 129.427385 247.932147 145.203881 254.682037 161.857285 257.949019 
C 178.510689 261.216 195.668057 260.92691 212.201946 257.100746 
L 185.045173 139.748997 
L 185.045173 19.296006 
z
" style="fill: #0000ff"/>
   </g>
   <g id="patch_3">
    <path d="M 212.201946 257.100746 
C 241.011873 250.433741 266.381528 233.38543 283.439075 209.229666 
C 300.496622 185.073902 308.075512 155.462676 304.720342 126.082348 
C 301.365171 96.70202 287.305395 69.561883 265.24097 49.873765 
C 243.176545 30.185647 214.616435 19.296 185.045151 19.296006 
L 185.045173 139.748997 
L 212.201946 257.100746 
z
" style="fill: #bf00bf"/>
   </g>
   <g id="matplotlib.axis_1"/>
   <g id="matplotlib.axis_2"/>
  </g>
 </g>
</svg>
