<?xml version="1.0" encoding="utf-8" standalone="no"?>
<!DOCTYPE svg PUBLIC "-//W3C//DTD SVG 1.1//EN"
  "http://www.w3.org/Graphics/SVG/1.1/DTD/svg11.dtd">
<svg xmlns:xlink="http://www.w3.org/1999/xlink" width="445.88745pt" height="443.10366pt" viewBox="0 0 445.88745 443.10366" xmlns="http://www.w3.org/2000/svg" version="1.1">
 <metadata>
  <rdf:RDF xmlns:dc="http://purl.org/dc/elements/1.1/" xmlns:cc="http://creativecommons.org/ns#" xmlns:rdf="http://www.w3.org/1999/02/22-rdf-syntax-ns#">
   <cc:Work>
    <dc:type rdf:resource="http://purl.org/dc/dcmitype/StillImage"/>
    <dc:date>2022-01-14T17:05:51.137249</dc:date>
    <dc:format>image/svg+xml</dc:format>
    <dc:creator>
     <cc:Agent>
      <dc:title>Matplotlib v3.5.1, https://matplotlib.org/</dc:title>
     </cc:Agent>
    </dc:creator>
   </cc:Work>
  </rdf:RDF>
 </metadata>
 <defs>
  <style type="text/css">*{stroke-linejoin: round; stroke-linecap: butt}</style>
 </defs>
 <g id="figure_1">
  <g id="patch_1">
   <path d="M 0 443.10366 
L 445.88745 443.10366 
L 445.88745 0 
L 0 0 
L 0 443.10366 
z
" style="fill: none"/>
  </g>
  <g id="axes_1">
   <g id="patch_2">
    <path d="M 221.797514 26.686539 
C 194.585104 26.686539 167.677398 32.464472 142.842551 43.640659 
C 118.007704 54.816847 95.801879 71.141004 77.684261 91.54044 
C 59.566644 111.939876 45.942968 135.957757 37.708472 162.015823 
C 29.473976 188.073889 26.813066 215.588584 29.900595 242.751866 
C 32.988125 269.915148 41.75495 296.11871 55.624987 319.640668 
C 69.495024 343.162626 88.157661 363.476217 110.38654 379.246599 
C 132.61542 395.016981 157.912739 405.890984 184.616164 411.154057 
C 211.319589 416.41713 238.83111 415.951409 265.342896 409.787499 
L 221.797514 220.735054 
L 221.797514 26.686539 
z
" style="fill: #0000ff; stroke: #000000; stroke-linejoin: miter"/>
   </g>
   <g id="patch_3">
    <path d="M 265.342896 409.787499 
C 311.53908 399.047024 352.218852 371.582371 379.570313 332.667687 
C 406.921774 293.753004 419.074384 246.049626 413.69443 198.718224 
C 408.314475 151.386822 385.769886 107.664343 350.389989 75.946991 
C 315.010092 44.229638 269.214483 26.68653 221.797477 26.686539 
L 221.797514 220.735054 
L 265.342896 409.787499 
z
" style="fill: #ff0000; stroke: #000000; stroke-linejoin: miter"/>
   </g>
   <g id="matplotlib.axis_1"/>
   <g id="matplotlib.axis_2"/>
  </g>
 </g>
</svg>
