<?xml version="1.0" encoding="utf-8" standalone="no"?>
<!DOCTYPE svg PUBLIC "-//W3C//DTD SVG 1.1//EN"
  "http://www.w3.org/Graphics/SVG/1.1/DTD/svg11.dtd">
<svg xmlns:xlink="http://www.w3.org/1999/xlink" width="371.52pt" height="280.512pt" viewBox="0 0 371.52 280.512" xmlns="http://www.w3.org/2000/svg" version="1.1">
 <metadata>
  <rdf:RDF xmlns:dc="http://purl.org/dc/elements/1.1/" xmlns:cc="http://creativecommons.org/ns#" xmlns:rdf="http://www.w3.org/1999/02/22-rdf-syntax-ns#">
   <cc:Work>
    <dc:type rdf:resource="http://purl.org/dc/dcmitype/StillImage"/>
    <dc:date>2021-12-03T16:10:12.946672</dc:date>
    <dc:format>image/svg+xml</dc:format>
    <dc:creator>
     <cc:Agent>
      <dc:title>Matplotlib v3.5.0, https://matplotlib.org/</dc:title>
     </cc:Agent>
    </dc:creator>
   </cc:Work>
  </rdf:RDF>
 </metadata>
 <defs>
  <style type="text/css">*{stroke-linejoin: round; stroke-linecap: butt}</style>
 </defs>
 <g id="figure_1">
  <g id="patch_1">
   <path d="M 0 280.512 
L 371.52 280.512 
L 371.52 0 
L 0 0 
L 0 280.512 
z
" style="fill: none"/>
  </g>
  <g id="axes_1">
   <g id="patch_2">
    <path d="M 184.836898 19.296 
C 167.284421 19.296 149.942388 23.134089 134.029107 30.540635 
C 118.115826 37.947181 104.012878 48.744583 92.71102 62.174305 
C 81.409162 75.604028 73.179399 91.344042 68.599887 108.288584 
C 64.020374 125.233126 63.200923 142.975886 66.199101 160.270404 
C 69.197279 177.564923 75.941194 193.996498 85.957074 208.410782 
C 95.972953 222.825066 109.020629 234.876423 124.183479 243.718223 
C 139.346329 252.560023 156.260765 257.980251 173.73852 259.598125 
C 191.216275 261.216 208.838253 258.992727 225.366479 253.084496 
L 184.836898 139.703352 
L 184.836898 19.296 
z
" style="fill: #0000ff"/>
   </g>
   <g id="patch_3">
    <path d="M 225.366479 253.084496 
C 252.072375 243.538122 274.565407 224.856528 288.851769 200.356772 
C 303.13813 175.857015 308.319077 147.080354 303.474695 119.1363 
C 298.630313 91.192247 284.065358 65.838736 262.365945 47.577474 
C 240.666533 29.316213 213.197755 19.296 184.836898 19.296 
L 184.836898 139.703352 
L 225.366479 253.084496 
z
" style="fill: #bf00bf"/>
   </g>
   <g id="matplotlib.axis_1"/>
   <g id="matplotlib.axis_2"/>
  </g>
 </g>
</svg>
