<?xml version="1.0" encoding="utf-8" standalone="no"?>
<!DOCTYPE svg PUBLIC "-//W3C//DTD SVG 1.1//EN"
  "http://www.w3.org/Graphics/SVG/1.1/DTD/svg11.dtd">
<svg xmlns:xlink="http://www.w3.org/1999/xlink" width="21.16575pt" height="21.1221pt" viewBox="0 0 21.16575 21.1221" xmlns="http://www.w3.org/2000/svg" version="1.1">
 <metadata>
  <rdf:RDF xmlns:dc="http://purl.org/dc/elements/1.1/" xmlns:cc="http://creativecommons.org/ns#" xmlns:rdf="http://www.w3.org/1999/02/22-rdf-syntax-ns#">
   <cc:Work>
    <dc:type rdf:resource="http://purl.org/dc/dcmitype/StillImage"/>
    <dc:date>2021-12-14T09:21:02.466195</dc:date>
    <dc:format>image/svg+xml</dc:format>
    <dc:creator>
     <cc:Agent>
      <dc:title>Matplotlib v3.5.0, https://matplotlib.org/</dc:title>
     </cc:Agent>
    </dc:creator>
   </cc:Work>
  </rdf:RDF>
 </metadata>
 <defs>
  <style type="text/css">*{stroke-linejoin: round; stroke-linecap: butt}</style>
 </defs>
 <g id="figure_1">
  <g id="patch_1">
   <path d="M 0 21.1221 
L 21.16575 21.1221 
L 21.16575 0 
L 0 0 
L 0 21.1221 
z
" style="fill: none"/>
  </g>
  <g id="axes_1">
   <g id="patch_2">
    <path d="M 10.559557 7.50555 
C 10.116174 7.50555 9.678107 7.602502 9.276131 7.789594 
C 8.874155 7.976687 8.517909 8.249433 8.232419 8.588674 
C 7.946929 8.927914 7.739042 9.325514 7.623362 9.75354 
C 7.507681 10.181566 7.486982 10.629755 7.562717 11.066622 
C 7.638452 11.503489 7.808806 11.918557 8.061811 12.282668 
C 8.314817 12.646779 8.644407 12.951201 9.027426 13.174549 
C 9.410446 13.397896 9.837712 13.534814 10.279207 13.575682 
C 10.720703 13.61655 11.165841 13.560389 11.583351 13.411145 
L 10.559557 10.54709 
L 10.559557 7.50555 
z
" style="fill: #0000ff"/>
   </g>
   <g id="patch_3">
    <path d="M 11.583351 13.411145 
C 12.257953 13.169999 12.826137 12.698095 13.187016 12.079221 
C 13.547895 11.460346 13.678768 10.733436 13.556397 10.027558 
C 13.434026 9.321679 13.066109 8.681239 12.517973 8.219952 
C 11.969837 7.758665 11.275964 7.50555 10.559557 7.50555 
L 10.559557 10.54709 
L 11.583351 13.411145 
z
" style="fill: #ff0000"/>
   </g>
   <g id="matplotlib.axis_1"/>
   <g id="matplotlib.axis_2"/>
  </g>
 </g>
</svg>
