<?xml version="1.0" encoding="utf-8" standalone="no"?>
<!DOCTYPE svg PUBLIC "-//W3C//DTD SVG 1.1//EN"
  "http://www.w3.org/Graphics/SVG/1.1/DTD/svg11.dtd">
<svg xmlns:xlink="http://www.w3.org/1999/xlink" width="364.1823pt" height="361.92564pt" viewBox="0 0 364.1823 361.92564" xmlns="http://www.w3.org/2000/svg" version="1.1">
 <metadata>
  <rdf:RDF xmlns:dc="http://purl.org/dc/elements/1.1/" xmlns:cc="http://creativecommons.org/ns#" xmlns:rdf="http://www.w3.org/1999/02/22-rdf-syntax-ns#">
   <cc:Work>
    <dc:type rdf:resource="http://purl.org/dc/dcmitype/StillImage"/>
    <dc:date>2021-12-14T09:20:55.188917</dc:date>
    <dc:format>image/svg+xml</dc:format>
    <dc:creator>
     <cc:Agent>
      <dc:title>Matplotlib v3.5.0, https://matplotlib.org/</dc:title>
     </cc:Agent>
    </dc:creator>
   </cc:Work>
  </rdf:RDF>
 </metadata>
 <defs>
  <style type="text/css">*{stroke-linejoin: round; stroke-linecap: butt}</style>
 </defs>
 <g id="figure_1">
  <g id="patch_1">
   <path d="M 0 361.92564 
L 364.1823 361.92564 
L 364.1823 0 
L 0 0 
L 0 361.92564 
z
" style="fill: none"/>
  </g>
  <g id="axes_1">
   <g id="patch_2">
    <path d="M 181.317827 22.996627 
C 159.538421 22.996627 137.995701 27.542069 118.064471 36.342873 
C 98.133241 45.143678 80.246705 58.00856 65.546337 74.116516 
C 50.84597 90.224471 39.651281 109.225395 32.676689 129.906694 
C 25.702098 150.587993 23.099195 172.500162 25.034093 194.24482 
C 26.96899 215.989478 33.399633 237.094006 43.915632 256.211567 
C 54.431632 275.329127 68.804425 292.0442 86.116774 305.290072 
C 103.429123 318.535944 123.304747 328.024717 144.475231 333.15084 
C 165.645716 338.276962 187.650923 338.92902 209.086534 335.0654 
L 181.317827 180.272338 
L 181.317827 22.996627 
z
" style="fill: #0000ff"/>
   </g>
   <g id="patch_3">
    <path d="M 209.086534 335.0654 
C 247.656518 328.113427 282.26268 306.923419 306.040219 275.698825 
C 329.817758 244.47423 341.083105 205.425905 337.60156 166.299842 
C 334.120015 127.173779 316.13809 90.740297 287.222847 64.226683 
C 258.307604 37.71307 220.506386 22.99662 181.317798 22.996627 
L 181.317827 180.272338 
L 209.086534 335.0654 
z
" style="fill: #ff0000"/>
   </g>
   <g id="matplotlib.axis_1"/>
   <g id="matplotlib.axis_2"/>
  </g>
 </g>
</svg>
