<?xml version="1.0" encoding="utf-8" standalone="no"?>
<!DOCTYPE svg PUBLIC "-//W3C//DTD SVG 1.1//EN"
  "http://www.w3.org/Graphics/SVG/1.1/DTD/svg11.dtd">
<svg xmlns:xlink="http://www.w3.org/1999/xlink" width="98.1837pt" height="97.64316pt" viewBox="0 0 98.1837 97.64316" xmlns="http://www.w3.org/2000/svg" version="1.1">
 <metadata>
  <rdf:RDF xmlns:dc="http://purl.org/dc/elements/1.1/" xmlns:cc="http://creativecommons.org/ns#" xmlns:rdf="http://www.w3.org/1999/02/22-rdf-syntax-ns#">
   <cc:Work>
    <dc:type rdf:resource="http://purl.org/dc/dcmitype/StillImage"/>
    <dc:date>2021-12-14T09:20:56.110235</dc:date>
    <dc:format>image/svg+xml</dc:format>
    <dc:creator>
     <cc:Agent>
      <dc:title>Matplotlib v3.5.0, https://matplotlib.org/</dc:title>
     </cc:Agent>
    </dc:creator>
   </cc:Work>
  </rdf:RDF>
 </metadata>
 <defs>
  <style type="text/css">*{stroke-linejoin: round; stroke-linecap: butt}</style>
 </defs>
 <g id="figure_1">
  <g id="patch_1">
   <path d="M 0 97.64316 
L 98.1837 97.64316 
L 98.1837 0 
L 0 0 
L 0 97.64316 
z
" style="fill: none"/>
  </g>
  <g id="axes_1">
   <g id="patch_2">
    <path d="M 48.989075 10.98378 
C 43.884978 10.98378 38.833387 12.01495 34.139818 14.014927 
C 29.446249 16.014903 25.207269 18.942538 21.679246 22.62077 
C 18.151223 26.299002 15.406745 30.652155 13.611794 35.416954 
C 11.816843 40.181753 11.00835 45.260166 11.235211 50.345057 
C 11.462072 55.429947 12.71962 60.416695 14.931799 65.003709 
C 17.143978 69.590724 20.265275 73.683628 24.106916 77.034889 
C 27.948558 80.38615 32.431505 82.926816 37.284634 84.503232 
C 42.137763 86.079648 47.261223 86.65938 52.345154 86.207366 
L 48.989075 48.670023 
L 48.989075 10.98378 
z
" style="fill: #0000ff"/>
   </g>
   <g id="patch_3">
    <path d="M 52.345154 86.207366 
C 62.035442 85.345798 71.027443 80.785138 77.432946 73.483069 
C 83.83845 66.181 87.17535 56.687106 86.742939 46.994989 
C 86.310528 37.302872 82.141351 28.142002 75.110883 21.436049 
C 68.080416 14.730097 58.717802 10.98378 48.989075 10.98378 
L 48.989075 48.670023 
L 52.345154 86.207366 
z
" style="fill: #ff0000"/>
   </g>
   <g id="matplotlib.axis_1"/>
   <g id="matplotlib.axis_2"/>
  </g>
 </g>
</svg>
