<?xml version="1.0" encoding="utf-8" standalone="no"?>
<!DOCTYPE svg PUBLIC "-//W3C//DTD SVG 1.1//EN"
  "http://www.w3.org/Graphics/SVG/1.1/DTD/svg11.dtd">
<svg xmlns:xlink="http://www.w3.org/1999/xlink" width="168.33825pt" height="167.3451pt" viewBox="0 0 168.33825 167.3451" xmlns="http://www.w3.org/2000/svg" version="1.1">
 <metadata>
  <rdf:RDF xmlns:dc="http://purl.org/dc/elements/1.1/" xmlns:cc="http://creativecommons.org/ns#" xmlns:rdf="http://www.w3.org/1999/02/22-rdf-syntax-ns#">
   <cc:Work>
    <dc:type rdf:resource="http://purl.org/dc/dcmitype/StillImage"/>
    <dc:date>2021-12-14T09:20:57.025166</dc:date>
    <dc:format>image/svg+xml</dc:format>
    <dc:creator>
     <cc:Agent>
      <dc:title>Matplotlib v3.5.0, https://matplotlib.org/</dc:title>
     </cc:Agent>
    </dc:creator>
   </cc:Work>
  </rdf:RDF>
 </metadata>
 <defs>
  <style type="text/css">*{stroke-linejoin: round; stroke-linecap: butt}</style>
 </defs>
 <g id="figure_1">
  <g id="patch_1">
   <path d="M 0 167.3451 
L 168.33825 167.3451 
L 168.33825 0 
L 0 0 
L 0 167.3451 
z
" style="fill: none"/>
  </g>
  <g id="axes_1">
   <g id="patch_2">
    <path d="M 83.86771 14.152053 
C 74.342781 14.152053 64.919794 16.121696 56.191167 19.937151 
C 47.46254 23.752607 39.615111 29.332204 33.142243 36.325156 
C 26.669376 43.318109 21.709623 51.574731 18.574802 60.575934 
C 15.439981 69.577136 14.197193 79.130247 14.924572 88.634666 
C 15.651951 98.139084 18.333928 107.391368 22.801886 115.80983 
C 27.269845 124.228292 33.428149 131.632733 40.889628 137.55764 
C 48.351108 143.482547 56.956049 147.801097 66.163462 150.241783 
C 75.370875 152.68247 84.983676 153.19305 94.39751 151.741424 
L 83.86771 83.350285 
L 83.86771 14.152053 
z
" style="fill: #0000ff"/>
   </g>
   <g id="patch_3">
    <path d="M 94.39751 151.741424 
C 111.613241 149.086736 127.206447 140.017238 138.033407 126.361419 
C 148.860366 112.7056 154.141057 95.447286 152.810847 78.065898 
C 151.480637 60.68451 143.63536 44.43228 130.856691 32.585797 
C 118.078022 20.739314 101.286592 14.15205 83.867697 14.152053 
L 83.86771 83.350285 
L 94.39751 151.741424 
z
" style="fill: #ff0000"/>
   </g>
   <g id="matplotlib.axis_1"/>
   <g id="matplotlib.axis_2"/>
  </g>
 </g>
</svg>
