<?xml version="1.0" encoding="utf-8" standalone="no"?>
<!DOCTYPE svg PUBLIC "-//W3C//DTD SVG 1.1//EN"
  "http://www.w3.org/Graphics/SVG/1.1/DTD/svg11.dtd">
<svg xmlns:xlink="http://www.w3.org/1999/xlink" width="371.52pt" height="280.512pt" viewBox="0 0 371.52 280.512" xmlns="http://www.w3.org/2000/svg" version="1.1">
 <metadata>
  <rdf:RDF xmlns:dc="http://purl.org/dc/elements/1.1/" xmlns:cc="http://creativecommons.org/ns#" xmlns:rdf="http://www.w3.org/1999/02/22-rdf-syntax-ns#">
   <cc:Work>
    <dc:type rdf:resource="http://purl.org/dc/dcmitype/StillImage"/>
    <dc:date>2021-12-03T16:10:07.159079</dc:date>
    <dc:format>image/svg+xml</dc:format>
    <dc:creator>
     <cc:Agent>
      <dc:title>Matplotlib v3.5.0, https://matplotlib.org/</dc:title>
     </cc:Agent>
    </dc:creator>
   </cc:Work>
  </rdf:RDF>
 </metadata>
 <defs>
  <style type="text/css">*{stroke-linejoin: round; stroke-linecap: butt}</style>
 </defs>
 <g id="figure_1">
  <g id="patch_1">
   <path d="M 0 280.512 
L 371.52 280.512 
L 371.52 0 
L 0 0 
L 0 280.512 
z
" style="fill: none"/>
  </g>
  <g id="axes_1">
   <g id="patch_2">
    <path d="M 185.235159 19.296006 
C 168.649814 19.296006 152.241974 22.723024 137.043194 29.361605 
C 121.844414 36.000185 108.180026 45.70823 96.909102 57.875396 
C 85.638178 70.042563 77.001976 84.408413 71.543448 100.069771 
C 66.08492 115.73113 63.920908 132.352763 65.187461 148.889677 
C 66.454015 165.42659 71.124024 181.524809 78.903887 196.172246 
C 86.68375 210.819683 97.406938 223.702807 110.399288 234.011662 
C 123.391639 244.320517 138.375049 251.834441 154.407519 256.081036 
C 170.439989 260.327632 187.178342 261.216 203.570244 258.69029 
L 185.235159 139.695285 
L 185.235159 19.296006 
z
" style="fill: #0000ff"/>
   </g>
   <g id="patch_3">
    <path d="M 203.570244 258.69029 
C 233.547249 254.071348 260.699024 238.291162 279.551539 214.531151 
C 298.404054 190.77114 307.599092 160.74308 305.282855 130.500882 
C 302.966618 100.258685 289.305977 71.981131 267.055035 51.369217 
C 244.804092 30.757302 215.565904 19.296 185.235136 19.296006 
L 185.235159 139.695285 
L 203.570244 258.69029 
z
" style="fill: #bf00bf"/>
   </g>
   <g id="matplotlib.axis_1"/>
   <g id="matplotlib.axis_2"/>
  </g>
 </g>
</svg>
