<?xml version="1.0" encoding="utf-8" standalone="no"?>
<!DOCTYPE svg PUBLIC "-//W3C//DTD SVG 1.1//EN"
  "http://www.w3.org/Graphics/SVG/1.1/DTD/svg11.dtd">
<svg xmlns:xlink="http://www.w3.org/1999/xlink" width="371.52pt" height="280.512pt" viewBox="0 0 371.52 280.512" xmlns="http://www.w3.org/2000/svg" version="1.1">
 <metadata>
  <rdf:RDF xmlns:dc="http://purl.org/dc/elements/1.1/" xmlns:cc="http://creativecommons.org/ns#" xmlns:rdf="http://www.w3.org/1999/02/22-rdf-syntax-ns#">
   <cc:Work>
    <dc:type rdf:resource="http://purl.org/dc/dcmitype/StillImage"/>
    <dc:date>2021-12-03T16:10:08.102173</dc:date>
    <dc:format>image/svg+xml</dc:format>
    <dc:creator>
     <cc:Agent>
      <dc:title>Matplotlib v3.5.0, https://matplotlib.org/</dc:title>
     </cc:Agent>
    </dc:creator>
   </cc:Work>
  </rdf:RDF>
 </metadata>
 <defs>
  <style type="text/css">*{stroke-linejoin: round; stroke-linecap: butt}</style>
 </defs>
 <g id="figure_1">
  <g id="patch_1">
   <path d="M 0 280.512 
L 371.52 280.512 
L 371.52 0 
L 0 0 
L 0 280.512 
z
" style="fill: none"/>
  </g>
  <g id="axes_1">
   <g id="patch_2">
    <path d="M 185.862275 19.296 
C 154.114706 19.296 123.613368 31.814239 101.019195 54.116963 
C 78.425021 76.419688 65.511854 106.755937 65.099692 138.500831 
C 64.68753 170.245726 76.808731 200.90701 98.816247 223.788824 
C 120.823763 246.670638 150.989811 259.976557 182.726679 260.800812 
L 185.862275 140.068762 
L 185.862275 19.296 
z
" style="fill: #0000ff"/>
   </g>
   <g id="patch_3">
    <path d="M 182.726679 260.800812 
C 198.712949 261.216 214.623633 258.451942 229.533216 252.669423 
C 244.4428 246.886903 258.056473 238.20026 269.582338 227.11479 
C 281.108203 216.02932 290.318357 202.764218 296.677051 188.091105 
C 303.035745 173.417993 306.417247 157.627005 306.624859 141.636692 
C 306.83247 125.646379 303.862086 109.772921 297.88649 94.939665 
C 291.910894 80.10641 283.048244 66.606658 271.814074 55.225681 
C 260.579903 43.844704 247.196348 34.807541 232.441921 28.639876 
C 217.687494 22.472211 201.853936 19.296 185.862275 19.296 
L 185.862275 140.068762 
L 182.726679 260.800812 
z
" style="fill: #bf00bf"/>
   </g>
   <g id="matplotlib.axis_1"/>
   <g id="matplotlib.axis_2"/>
  </g>
 </g>
</svg>
