<?xml version="1.0" encoding="utf-8" standalone="no"?>
<!DOCTYPE svg PUBLIC "-//W3C//DTD SVG 1.1//EN"
  "http://www.w3.org/Graphics/SVG/1.1/DTD/svg11.dtd">
<svg xmlns:xlink="http://www.w3.org/1999/xlink" width="363.77775pt" height="361.5237pt" viewBox="0 0 363.77775 361.5237" xmlns="http://www.w3.org/2000/svg" version="1.1">
 <metadata>
  <rdf:RDF xmlns:dc="http://purl.org/dc/elements/1.1/" xmlns:cc="http://creativecommons.org/ns#" xmlns:rdf="http://www.w3.org/1999/02/22-rdf-syntax-ns#">
   <cc:Work>
    <dc:type rdf:resource="http://purl.org/dc/dcmitype/StillImage"/>
    <dc:date>2021-12-14T09:20:57.909301</dc:date>
    <dc:format>image/svg+xml</dc:format>
    <dc:creator>
     <cc:Agent>
      <dc:title>Matplotlib v3.5.0, https://matplotlib.org/</dc:title>
     </cc:Agent>
    </dc:creator>
   </cc:Work>
  </rdf:RDF>
 </metadata>
 <defs>
  <style type="text/css">*{stroke-linejoin: round; stroke-linecap: butt}</style>
 </defs>
 <g id="figure_1">
  <g id="patch_1">
   <path d="M 0 361.5237 
L 363.77775 361.5237 
L 363.77775 0 
L 0 0 
L 0 361.5237 
z
" style="fill: none"/>
  </g>
  <g id="axes_1">
   <g id="patch_2">
    <path d="M 182.023027 22.101307 
C 140.380446 22.101307 100.372519 38.521202 70.736244 67.77519 
C 41.099969 97.029178 24.162055 136.820562 23.621431 178.459634 
C 23.080807 220.098706 38.979917 260.316432 67.846687 290.329999 
C 96.713457 320.343566 136.281591 337.796643 177.910135 338.877801 
L 182.023027 180.516254 
L 182.023027 22.101307 
z
" style="fill: #0000ff"/>
   </g>
   <g id="patch_3">
    <path d="M 177.910135 338.877801 
C 198.87897 339.422393 219.748661 335.796841 239.30523 328.212038 
C 258.861799 320.627236 276.718552 309.233159 291.836773 294.692594 
C 306.954994 280.15203 319.035748 262.75249 327.376305 243.506095 
C 335.716863 224.259699 340.152304 203.547011 340.424624 182.572873 
C 340.696943 161.598735 336.800755 140.777872 328.962699 121.321421 
C 321.124643 101.864969 309.499702 84.157645 294.764091 69.229471 
C 280.028479 54.301296 262.473568 42.44745 243.120513 34.357461 
C 223.767459 26.267472 202.998933 22.101307 182.023027 22.101307 
L 182.023027 180.516254 
L 177.910135 338.877801 
z
" style="fill: #ff0000"/>
   </g>
   <g id="matplotlib.axis_1"/>
   <g id="matplotlib.axis_2"/>
  </g>
 </g>
</svg>
