<?xml version="1.0" encoding="utf-8" standalone="no"?>
<!DOCTYPE svg PUBLIC "-//W3C//DTD SVG 1.1//EN"
  "http://www.w3.org/Graphics/SVG/1.1/DTD/svg11.dtd">
<svg xmlns:xlink="http://www.w3.org/1999/xlink" width="19.85445pt" height="19.81926pt" viewBox="0 0 19.85445 19.81926" xmlns="http://www.w3.org/2000/svg" version="1.1">
 <metadata>
  <rdf:RDF xmlns:dc="http://purl.org/dc/elements/1.1/" xmlns:cc="http://creativecommons.org/ns#" xmlns:rdf="http://www.w3.org/1999/02/22-rdf-syntax-ns#">
   <cc:Work>
    <dc:type rdf:resource="http://purl.org/dc/dcmitype/StillImage"/>
    <dc:date>2022-01-14T17:06:00.460843</dc:date>
    <dc:format>image/svg+xml</dc:format>
    <dc:creator>
     <cc:Agent>
      <dc:title>Matplotlib v3.5.1, https://matplotlib.org/</dc:title>
     </cc:Agent>
    </dc:creator>
   </cc:Work>
  </rdf:RDF>
 </metadata>
 <defs>
  <style type="text/css">*{stroke-linejoin: round; stroke-linecap: butt}</style>
 </defs>
 <g id="figure_1">
  <g id="patch_1">
   <path d="M -0 19.81926 
L 19.85445 19.81926 
L 19.85445 0 
L -0 0 
L -0 19.81926 
z
" style="fill: none"/>
  </g>
  <g id="axes_1">
   <g id="patch_2">
    <path d="M 9.943389 7.44633 
C 9.349585 7.44633 8.775549 7.662108 8.328776 8.053256 
C 7.882004 8.444404 7.59224 8.98488 7.513748 9.573473 
C 7.435256 10.162066 7.573261 10.759588 7.901919 11.254144 
C 8.230578 11.7487 8.728009 12.107364 9.301062 12.262971 
L 9.943389 9.89748 
L 9.943389 7.44633 
z
" style="fill: #0000ff; stroke: #000000; stroke-linejoin: miter"/>
   </g>
   <g id="patch_3">
    <path d="M 9.301062 12.262971 
C 9.638101 12.354491 9.99084 12.37293 10.335584 12.317049 
C 10.680328 12.261169 11.009181 12.132249 11.300053 11.938949 
C 11.590925 11.745649 11.837153 11.492398 12.022197 11.196206 
C 12.207242 10.900014 12.326864 10.567665 12.373029 10.221486 
C 12.419194 9.875307 12.390845 9.523226 12.289884 9.188894 
C 12.188924 8.854561 12.017665 8.545635 11.787613 8.282867 
C 11.55756 8.020099 11.273983 7.809508 10.95593 7.66524 
C 10.637876 7.520971 10.292632 7.44633 9.943389 7.44633 
L 9.943389 9.89748 
L 9.301062 12.262971 
z
" style="fill: #ff0000; stroke: #000000; stroke-linejoin: miter"/>
   </g>
   <g id="matplotlib.axis_1"/>
   <g id="matplotlib.axis_2"/>
  </g>
 </g>
</svg>
