<?xml version="1.0" encoding="utf-8" standalone="no"?>
<!DOCTYPE svg PUBLIC "-//W3C//DTD SVG 1.1//EN"
  "http://www.w3.org/Graphics/SVG/1.1/DTD/svg11.dtd">
<svg xmlns:xlink="http://www.w3.org/1999/xlink" width="121.5639pt" height="120.87252pt" viewBox="0 0 121.5639 120.87252" xmlns="http://www.w3.org/2000/svg" version="1.1">
 <metadata>
  <rdf:RDF xmlns:dc="http://purl.org/dc/elements/1.1/" xmlns:cc="http://creativecommons.org/ns#" xmlns:rdf="http://www.w3.org/1999/02/22-rdf-syntax-ns#">
   <cc:Work>
    <dc:type rdf:resource="http://purl.org/dc/dcmitype/StillImage"/>
    <dc:date>2022-01-14T17:05:55.848651</dc:date>
    <dc:format>image/svg+xml</dc:format>
    <dc:creator>
     <cc:Agent>
      <dc:title>Matplotlib v3.5.1, https://matplotlib.org/</dc:title>
     </cc:Agent>
    </dc:creator>
   </cc:Work>
  </rdf:RDF>
 </metadata>
 <defs>
  <style type="text/css">*{stroke-linejoin: round; stroke-linecap: butt}</style>
 </defs>
 <g id="figure_1">
  <g id="patch_1">
   <path d="M 0 120.87252 
L 121.5639 120.87252 
L 121.5639 0 
L 0 0 
L 0 120.87252 
z
" style="fill: none"/>
  </g>
  <g id="axes_1">
   <g id="patch_2">
    <path d="M 60.62785 12.03966 
C 54.072222 12.03966 47.584769 13.372451 41.562036 15.956567 
C 35.539303 18.540683 30.106557 22.322377 25.595873 27.070493 
C 21.085189 31.818609 17.590385 37.434392 15.32508 43.574576 
C 13.059776 49.71476 12.071086 56.251638 12.419446 62.785642 
C 12.767806 69.319646 14.445969 75.714877 17.351358 81.580427 
C 20.256747 87.445976 24.328933 92.659848 29.319004 96.903343 
C 34.309075 101.146838 40.113243 104.331697 46.376728 106.263246 
C 52.640213 108.194795 59.232742 108.83286 65.751347 108.138439 
L 60.62785 60.225113 
L 60.62785 12.03966 
z
" style="fill: #0000ff; stroke: #000000; stroke-linejoin: miter"/>
   </g>
   <g id="patch_3">
    <path d="M 65.751347 108.138439 
C 78.037092 106.829649 89.362536 100.861968 97.375468 91.474841 
C 105.388399 82.087714 109.492814 69.979358 108.836254 57.664589 
C 108.179695 45.34982 102.810996 33.744615 93.845199 25.259291 
C 84.879401 16.773966 72.983382 12.039662 60.627859 12.03966 
L 60.62785 60.225113 
L 65.751347 108.138439 
z
" style="fill: #ff0000; stroke: #000000; stroke-linejoin: miter"/>
   </g>
   <g id="matplotlib.axis_1"/>
   <g id="matplotlib.axis_2"/>
  </g>
 </g>
</svg>
