<?xml version="1.0" encoding="utf-8" standalone="no"?>
<!DOCTYPE svg PUBLIC "-//W3C//DTD SVG 1.1//EN"
  "http://www.w3.org/Graphics/SVG/1.1/DTD/svg11.dtd">
<svg xmlns:xlink="http://www.w3.org/1999/xlink" width="371.52pt" height="280.512pt" viewBox="0 0 371.52 280.512" xmlns="http://www.w3.org/2000/svg" version="1.1">
 <metadata>
  <rdf:RDF xmlns:dc="http://purl.org/dc/elements/1.1/" xmlns:cc="http://creativecommons.org/ns#" xmlns:rdf="http://www.w3.org/1999/02/22-rdf-syntax-ns#">
   <cc:Work>
    <dc:type rdf:resource="http://purl.org/dc/dcmitype/StillImage"/>
    <dc:date>2021-12-03T16:10:09.090294</dc:date>
    <dc:format>image/svg+xml</dc:format>
    <dc:creator>
     <cc:Agent>
      <dc:title>Matplotlib v3.5.0, https://matplotlib.org/</dc:title>
     </cc:Agent>
    </dc:creator>
   </cc:Work>
  </rdf:RDF>
 </metadata>
 <defs>
  <style type="text/css">*{stroke-linejoin: round; stroke-linecap: butt}</style>
 </defs>
 <g id="figure_1">
  <g id="patch_1">
   <path d="M 0 280.512 
L 371.52 280.512 
L 371.52 0 
L 0 0 
L 0 280.512 
z
" style="fill: none"/>
  </g>
  <g id="axes_1">
   <g id="patch_2">
    <path d="M 185.375578 19.296 
C 169.021714 19.296 152.837921 22.627111 137.813433 29.085719 
C 122.788945 35.544327 109.236254 44.996101 97.983768 56.8633 
C 86.731282 68.730499 78.013039 82.7663 72.361944 98.112765 
C 66.710848 113.459229 64.244434 129.797169 65.113463 146.127926 
C 65.982491 162.458684 70.168887 178.442599 77.416757 193.102655 
C 84.664627 207.762711 94.823223 220.793996 107.271602 231.399972 
C 119.71998 242.005948 134.19923 249.966023 149.824305 254.793639 
C 165.449381 259.621254 181.8953 261.216 198.156805 259.480398 
L 185.375578 139.728271 
L 185.375578 19.296 
z
" style="fill: #0000ff"/>
   </g>
   <g id="patch_3">
    <path d="M 198.156805 259.480398 
C 228.805189 256.209275 257.057978 241.293959 277.047275 217.832251 
C 297.036572 194.370543 307.275566 164.107533 305.637693 133.328627 
C 303.99982 102.54972 290.606906 73.544262 268.240561 52.336473 
C 245.874216 31.128683 216.198055 19.296006 185.3756 19.296 
L 185.375578 139.728271 
L 198.156805 259.480398 
z
" style="fill: #bf00bf"/>
   </g>
   <g id="matplotlib.axis_1"/>
   <g id="matplotlib.axis_2"/>
  </g>
 </g>
</svg>
