<?xml version="1.0" encoding="utf-8" standalone="no"?>
<!DOCTYPE svg PUBLIC "-//W3C//DTD SVG 1.1//EN"
  "http://www.w3.org/Graphics/SVG/1.1/DTD/svg11.dtd">
<svg xmlns:xlink="http://www.w3.org/1999/xlink" width="371.52pt" height="280.512pt" viewBox="0 0 371.52 280.512" xmlns="http://www.w3.org/2000/svg" version="1.1">
 <metadata>
  <rdf:RDF xmlns:dc="http://purl.org/dc/elements/1.1/" xmlns:cc="http://creativecommons.org/ns#" xmlns:rdf="http://www.w3.org/1999/02/22-rdf-syntax-ns#">
   <cc:Work>
    <dc:type rdf:resource="http://purl.org/dc/dcmitype/StillImage"/>
    <dc:date>2021-12-10T18:14:55.680454</dc:date>
    <dc:format>image/svg+xml</dc:format>
    <dc:creator>
     <cc:Agent>
      <dc:title>Matplotlib v3.5.0, https://matplotlib.org/</dc:title>
     </cc:Agent>
    </dc:creator>
   </cc:Work>
  </rdf:RDF>
 </metadata>
 <defs>
  <style type="text/css">*{stroke-linejoin: round; stroke-linecap: butt}</style>
 </defs>
 <g id="figure_1">
  <g id="patch_1">
   <path d="M 0 280.512 
L 371.52 280.512 
L 371.52 0 
L 0 0 
L 0 280.512 
z
" style="fill: none"/>
  </g>
  <g id="axes_1">
   <g id="patch_2">
    <path d="M 186.551078 19.296003 
C 157.378008 19.296003 129.177011 29.902065 107.233928 49.126247 
C 85.290846 68.35043 71.068006 94.911596 67.231259 123.831268 
C 63.394512 152.75094 70.199546 182.101856 86.370864 206.382641 
C 102.542181 230.663427 127.002095 248.255965 155.165972 255.862806 
L 186.551078 139.661322 
L 186.551078 19.296003 
z
" style="fill: #0000ff"/>
   </g>
   <g id="patch_3">
    <path d="M 155.165972 255.862806 
C 171.715938 260.332821 189.031484 261.216 205.950366 258.453061 
C 222.869248 255.690123 239.004262 249.3443 253.272402 239.841533 
C 267.540542 230.338766 279.615269 217.896534 288.68611 203.34998 
C 297.75695 188.803425 303.616309 172.485458 305.870899 155.491364 
C 308.125488 138.49727 306.72371 121.215975 301.759653 104.807424 
C 296.795596 88.398873 288.382867 73.238592 277.086141 60.344159 
C 265.789415 47.449727 251.867228 37.116245 236.254057 30.037311 
C 220.640887 22.958377 203.694054 19.296 186.551055 19.296003 
L 186.551078 139.661322 
L 155.165972 255.862806 
z
" style="fill: #ff0000"/>
   </g>
   <g id="matplotlib.axis_1"/>
   <g id="matplotlib.axis_2"/>
  </g>
 </g>
</svg>
