<?xml version="1.0" encoding="utf-8" standalone="no"?>
<!DOCTYPE svg PUBLIC "-//W3C//DTD SVG 1.1//EN"
  "http://www.w3.org/Graphics/SVG/1.1/DTD/svg11.dtd">
<svg xmlns:xlink="http://www.w3.org/1999/xlink" width="41.742pt" height="41.5656pt" viewBox="0 0 41.742 41.5656" xmlns="http://www.w3.org/2000/svg" version="1.1">
 <metadata>
  <rdf:RDF xmlns:dc="http://purl.org/dc/elements/1.1/" xmlns:cc="http://creativecommons.org/ns#" xmlns:rdf="http://www.w3.org/1999/02/22-rdf-syntax-ns#">
   <cc:Work>
    <dc:type rdf:resource="http://purl.org/dc/dcmitype/StillImage"/>
    <dc:date>2021-12-14T09:20:59.719422</dc:date>
    <dc:format>image/svg+xml</dc:format>
    <dc:creator>
     <cc:Agent>
      <dc:title>Matplotlib v3.5.0, https://matplotlib.org/</dc:title>
     </cc:Agent>
    </dc:creator>
   </cc:Work>
  </rdf:RDF>
 </metadata>
 <defs>
  <style type="text/css">*{stroke-linejoin: round; stroke-linecap: butt}</style>
 </defs>
 <g id="figure_1">
  <g id="patch_1">
   <path d="M 0 41.5656 
L 41.742 41.5656 
L 41.742 0 
L 0 0 
L 0 41.5656 
z
" style="fill: none"/>
  </g>
  <g id="axes_1">
   <g id="patch_2">
    <path d="M 20.80129 8.4348 
C 19.082613 8.4348 17.383035 8.798309 15.813413 9.501617 
C 14.243791 10.204925 12.839009 11.232401 11.690697 12.517027 
C 10.542385 13.801652 9.676063 15.314876 9.148239 16.957997 
C 8.620414 18.601118 8.442818 20.337618 8.627034 22.05423 
C 8.811251 23.770843 9.353185 25.429417 10.217489 26.92177 
C 11.081793 28.414123 12.249257 29.707087 13.643733 30.716328 
C 15.038209 31.725568 16.628704 32.428655 18.311476 32.779727 
C 19.994247 33.1308 21.731897 33.122056 23.411083 32.754066 
L 20.80129 20.735754 
L 20.80129 8.4348 
z
" style="fill: #0000ff"/>
   </g>
   <g id="patch_3">
    <path d="M 23.411083 32.754066 
C 26.361117 32.107573 28.971338 30.387219 30.736301 27.926137 
C 32.501263 25.465055 33.299182 22.433062 32.975547 19.417277 
C 32.651911 16.401493 31.229053 13.610011 28.982497 11.583378 
C 26.735941 9.556744 23.820701 8.4348 20.80129 8.4348 
L 20.80129 20.735754 
L 23.411083 32.754066 
z
" style="fill: #ff0000"/>
   </g>
   <g id="matplotlib.axis_1"/>
   <g id="matplotlib.axis_2"/>
  </g>
 </g>
</svg>
