<?xml version="1.0" encoding="utf-8" standalone="no"?>
<!DOCTYPE svg PUBLIC "-//W3C//DTD SVG 1.1//EN"
  "http://www.w3.org/Graphics/SVG/1.1/DTD/svg11.dtd">
<svg xmlns:xlink="http://www.w3.org/1999/xlink" width="371.52pt" height="280.512pt" viewBox="0 0 371.52 280.512" xmlns="http://www.w3.org/2000/svg" version="1.1">
 <metadata>
  <rdf:RDF xmlns:dc="http://purl.org/dc/elements/1.1/" xmlns:cc="http://creativecommons.org/ns#" xmlns:rdf="http://www.w3.org/1999/02/22-rdf-syntax-ns#">
   <cc:Work>
    <dc:type rdf:resource="http://purl.org/dc/dcmitype/StillImage"/>
    <dc:date>2021-12-03T16:10:10.027043</dc:date>
    <dc:format>image/svg+xml</dc:format>
    <dc:creator>
     <cc:Agent>
      <dc:title>Matplotlib v3.5.0, https://matplotlib.org/</dc:title>
     </cc:Agent>
    </dc:creator>
   </cc:Work>
  </rdf:RDF>
 </metadata>
 <defs>
  <style type="text/css">*{stroke-linejoin: round; stroke-linecap: butt}</style>
 </defs>
 <g id="figure_1">
  <g id="patch_1">
   <path d="M 0 280.512 
L 371.52 280.512 
L 371.52 0 
L 0 0 
L 0 280.512 
z
" style="fill: none"/>
  </g>
  <g id="axes_1">
   <g id="patch_2">
    <path d="M 185.074 19.296 
C 168.160767 19.296 151.435484 22.856906 135.989075 29.746455 
C 120.542666 36.636004 106.718431 46.701074 95.418068 59.285161 
C 84.117705 71.869248 75.592368 86.692667 70.398131 102.788547 
C 65.203894 118.884426 63.456199 135.895031 65.269042 152.710829 
C 67.081885 169.526626 72.414975 185.77388 80.920456 200.392849 
C 89.425937 215.011817 100.914773 227.677589 114.637592 237.564028 
C 128.360411 247.450466 144.012222 254.337843 160.572118 257.776921 
C 177.132015 261.216 194.23195 261.130346 210.756564 257.525547 
L 185.074 139.79514 
L 185.074 19.296 
z
" style="fill: #0000ff"/>
   </g>
   <g id="patch_3">
    <path d="M 210.756564 257.525547 
C 239.787381 251.192554 265.474167 234.340109 282.842887 210.231548 
C 300.211607 186.122987 308.063801 156.421827 304.878957 126.879452 
C 301.694113 97.337077 287.691988 69.991943 265.583979 50.139209 
C 243.475969 30.286474 214.787551 19.296 185.074 19.296 
L 185.074 139.79514 
L 210.756564 257.525547 
z
" style="fill: #bf00bf"/>
   </g>
   <g id="matplotlib.axis_1"/>
   <g id="matplotlib.axis_2"/>
  </g>
 </g>
</svg>
