<?xml version="1.0" encoding="utf-8" standalone="no"?>
<!DOCTYPE svg PUBLIC "-//W3C//DTD SVG 1.1//EN"
  "http://www.w3.org/Graphics/SVG/1.1/DTD/svg11.dtd">
<svg xmlns:xlink="http://www.w3.org/1999/xlink" width="371.52pt" height="280.512pt" viewBox="0 0 371.52 280.512" xmlns="http://www.w3.org/2000/svg" version="1.1">
 <metadata>
  <rdf:RDF xmlns:dc="http://purl.org/dc/elements/1.1/" xmlns:cc="http://creativecommons.org/ns#" xmlns:rdf="http://www.w3.org/1999/02/22-rdf-syntax-ns#">
   <cc:Work>
    <dc:type rdf:resource="http://purl.org/dc/dcmitype/StillImage"/>
    <dc:date>2021-12-10T18:14:56.589326</dc:date>
    <dc:format>image/svg+xml</dc:format>
    <dc:creator>
     <cc:Agent>
      <dc:title>Matplotlib v3.5.0, https://matplotlib.org/</dc:title>
     </cc:Agent>
    </dc:creator>
   </cc:Work>
  </rdf:RDF>
 </metadata>
 <defs>
  <style type="text/css">*{stroke-linejoin: round; stroke-linecap: butt}</style>
 </defs>
 <g id="figure_1">
  <g id="patch_1">
   <path d="M 0 280.512 
L 371.52 280.512 
L 371.52 0 
L 0 0 
L 0 280.512 
z
" style="fill: none"/>
  </g>
  <g id="axes_1">
   <g id="patch_2">
    <path d="M 185.955361 19.296 
C 154.505689 19.296 124.270196 31.595107 101.750678 53.548539 
C 79.231159 75.501971 66.16644 105.414613 65.365938 136.854097 
C 64.565436 168.29358 76.090961 198.832331 97.464082 221.903344 
C 118.837202 244.974356 148.407611 258.796222 179.816533 260.396707 
L 185.955361 139.924506 
L 185.955361 19.296 
z
" style="fill: #0000ff"/>
   </g>
   <g id="patch_3">
    <path d="M 179.816533 260.396707 
C 195.894849 261.216 211.975685 258.808326 227.108995 253.315929 
C 242.242305 247.823532 256.124082 239.356747 267.934199 228.415786 
C 279.744316 217.474824 289.245524 204.279476 295.876498 189.609313 
C 302.507473 174.93915 306.135005 159.088876 306.544785 142.994915 
C 306.954564 126.900954 304.138358 110.886612 298.262546 95.898005 
C 292.386734 80.909398 283.569353 67.247628 272.331328 55.719822 
C 261.093304 44.192016 247.660392 35.029753 232.826201 28.774334 
C 217.99201 22.518914 202.054539 19.296 185.955361 19.296 
L 185.955361 139.924506 
L 179.816533 260.396707 
z
" style="fill: #ff0000"/>
   </g>
   <g id="matplotlib.axis_1"/>
   <g id="matplotlib.axis_2"/>
  </g>
 </g>
</svg>
