<?xml version="1.0" encoding="utf-8" standalone="no"?>
<!DOCTYPE svg PUBLIC "-//W3C//DTD SVG 1.1//EN"
  "http://www.w3.org/Graphics/SVG/1.1/DTD/svg11.dtd">
<svg xmlns:xlink="http://www.w3.org/1999/xlink" width="108.63225pt" height="108.0243pt" viewBox="0 0 108.63225 108.0243" xmlns="http://www.w3.org/2000/svg" version="1.1">
 <metadata>
  <rdf:RDF xmlns:dc="http://purl.org/dc/elements/1.1/" xmlns:cc="http://creativecommons.org/ns#" xmlns:rdf="http://www.w3.org/1999/02/22-rdf-syntax-ns#">
   <cc:Work>
    <dc:type rdf:resource="http://purl.org/dc/dcmitype/StillImage"/>
    <dc:date>2021-12-14T09:21:00.668327</dc:date>
    <dc:format>image/svg+xml</dc:format>
    <dc:creator>
     <cc:Agent>
      <dc:title>Matplotlib v3.5.0, https://matplotlib.org/</dc:title>
     </cc:Agent>
    </dc:creator>
   </cc:Work>
  </rdf:RDF>
 </metadata>
 <defs>
  <style type="text/css">*{stroke-linejoin: round; stroke-linecap: butt}</style>
 </defs>
 <g id="figure_1">
  <g id="patch_1">
   <path d="M 0 108.0243 
L 108.63225 108.0243 
L 108.63225 0 
L 0 0 
L 0 108.0243 
z
" style="fill: none"/>
  </g>
  <g id="axes_1">
   <g id="patch_2">
    <path d="M 54.062912 11.45565 
C 48.114172 11.45565 42.23219 12.72018 36.80433 15.165964 
C 31.37647 17.611747 26.524558 21.18389 22.568119 25.647145 
C 18.61168 30.1104 15.639516 35.364591 13.847361 41.0637 
C 12.055206 46.762809 11.483284 52.778921 12.16926 58.715841 
C 12.855235 64.65276 14.783712 70.377235 17.827689 75.512276 
C 20.871665 80.647316 24.962821 85.077669 29.831728 88.511568 
C 34.700636 91.945467 40.238016 94.305841 46.079199 95.437246 
C 51.920382 96.56865 57.934265 96.445691 63.724799 95.076466 
L 54.062912 53.829521 
L 54.062912 11.45565 
z
" style="fill: #0000ff"/>
   </g>
   <g id="patch_3">
    <path d="M 63.724799 95.076466 
C 73.79024 92.696399 82.641198 86.678289 88.582187 78.174964 
C 94.523175 69.671638 97.148966 59.263098 95.956563 48.943201 
C 94.764161 38.623305 89.834897 29.095958 82.113021 22.186218 
C 74.391145 15.276479 64.403355 11.45565 54.062912 11.45565 
L 54.062912 53.829521 
L 63.724799 95.076466 
z
" style="fill: #ff0000"/>
   </g>
   <g id="matplotlib.axis_1"/>
   <g id="matplotlib.axis_2"/>
  </g>
 </g>
</svg>
