<?xml version="1.0" encoding="utf-8" standalone="no"?>
<!DOCTYPE svg PUBLIC "-//W3C//DTD SVG 1.1//EN"
  "http://www.w3.org/Graphics/SVG/1.1/DTD/svg11.dtd">
<svg xmlns:xlink="http://www.w3.org/1999/xlink" width="30.2751pt" height="30.17268pt" viewBox="0 0 30.2751 30.17268" xmlns="http://www.w3.org/2000/svg" version="1.1">
 <metadata>
  <rdf:RDF xmlns:dc="http://purl.org/dc/elements/1.1/" xmlns:cc="http://creativecommons.org/ns#" xmlns:rdf="http://www.w3.org/1999/02/22-rdf-syntax-ns#">
   <cc:Work>
    <dc:type rdf:resource="http://purl.org/dc/dcmitype/StillImage"/>
    <dc:date>2021-12-14T09:21:01.545671</dc:date>
    <dc:format>image/svg+xml</dc:format>
    <dc:creator>
     <cc:Agent>
      <dc:title>Matplotlib v3.5.0, https://matplotlib.org/</dc:title>
     </cc:Agent>
    </dc:creator>
   </cc:Work>
  </rdf:RDF>
 </metadata>
 <defs>
  <style type="text/css">*{stroke-linejoin: round; stroke-linecap: butt}</style>
 </defs>
 <g id="figure_1">
  <g id="patch_1">
   <path d="M 0 30.17268 
L 30.2751 30.17268 
L 30.2751 0 
L 0 0 
L 0 30.17268 
z
" style="fill: none"/>
  </g>
  <g id="axes_1">
   <g id="patch_2">
    <path d="M 15.177336 7.91694 
C 13.420832 7.91694 11.725142 8.570729 10.419698 9.751292 
C 9.114253 10.931855 8.289448 12.557445 8.105522 14.312249 
C 7.921595 16.067052 8.391284 17.829561 9.423339 19.257361 
C 10.455393 20.685161 11.97835 21.679386 13.696335 22.046883 
L 15.177336 15.060234 
L 15.177336 7.91694 
z
" style="fill: #0000ff"/>
   </g>
   <g id="patch_3">
    <path d="M 13.696335 22.046883 
C 14.671075 22.255391 15.678652 22.25574 16.653535 22.047908 
C 17.628419 21.840076 18.549008 21.428668 19.355432 20.840439 
C 20.161856 20.252211 20.836246 19.500197 21.334742 18.633305 
C 21.833238 17.766412 22.144794 16.80385 22.249149 15.80822 
C 22.353505 14.812589 22.248346 13.805951 21.940512 12.853773 
C 21.632678 11.901595 21.12899 11.024976 20.462207 10.280927 
C 19.795423 9.536877 18.980317 8.941885 18.069901 8.534644 
C 17.159485 8.127404 16.173932 7.91694 15.177337 7.91694 
L 15.177336 15.060234 
L 13.696335 22.046883 
z
" style="fill: #ff0000"/>
   </g>
   <g id="matplotlib.axis_1"/>
   <g id="matplotlib.axis_2"/>
  </g>
 </g>
</svg>
