<?xml version="1.0" encoding="utf-8" standalone="no"?>
<!DOCTYPE svg PUBLIC "-//W3C//DTD SVG 1.1//EN"
  "http://www.w3.org/Graphics/SVG/1.1/DTD/svg11.dtd">
<svg xmlns:xlink="http://www.w3.org/1999/xlink" width="371.52pt" height="280.512pt" viewBox="0 0 371.52 280.512" xmlns="http://www.w3.org/2000/svg" version="1.1">
 <metadata>
  <rdf:RDF xmlns:dc="http://purl.org/dc/elements/1.1/" xmlns:cc="http://creativecommons.org/ns#" xmlns:rdf="http://www.w3.org/1999/02/22-rdf-syntax-ns#">
   <cc:Work>
    <dc:type rdf:resource="http://purl.org/dc/dcmitype/StillImage"/>
    <dc:date>2021-12-03T16:10:11.920564</dc:date>
    <dc:format>image/svg+xml</dc:format>
    <dc:creator>
     <cc:Agent>
      <dc:title>Matplotlib v3.5.0, https://matplotlib.org/</dc:title>
     </cc:Agent>
    </dc:creator>
   </cc:Work>
  </rdf:RDF>
 </metadata>
 <defs>
  <style type="text/css">*{stroke-linejoin: round; stroke-linecap: butt}</style>
 </defs>
 <g id="figure_1">
  <g id="patch_1">
   <path d="M 0 280.512 
L 371.52 280.512 
L 371.52 0 
L 0 0 
L 0 280.512 
z
" style="fill: none"/>
  </g>
  <g id="axes_1">
   <g id="patch_2">
    <path d="M 186.434308 19.296 
C 156.664122 19.296 127.924625 30.326542 105.799233 50.244648 
C 83.67384 70.162754 69.694581 97.589235 66.5773 127.195763 
C 63.460019 156.802291 71.420565 186.538821 88.912391 210.628237 
C 106.404217 234.717653 132.216134 251.491932 161.333489 257.692221 
L 186.434308 139.815547 
L 186.434308 19.296 
z
" style="fill: #0000ff"/>
   </g>
   <g id="patch_3">
    <path d="M 161.333489 257.692221 
C 177.853932 261.210106 194.930887 261.216 211.453754 257.709519 
C 227.976621 254.203038 243.579274 247.261881 257.246993 237.337467 
C 270.914712 227.413053 282.344638 214.725295 290.793426 200.099341 
C 299.242213 185.473387 304.522647 169.23333 306.291314 152.435343 
C 308.059981 135.637356 306.27769 118.653662 301.060353 102.588796 
C 295.843015 86.52393 287.30624 71.733869 276.005218 59.180485 
C 264.704196 46.627102 250.889343 36.588563 235.459108 29.717726 
C 220.028873 22.846889 203.325172 19.296003 186.43433 19.296 
L 186.434308 139.815547 
L 161.333489 257.692221 
z
" style="fill: #bf00bf"/>
   </g>
   <g id="matplotlib.axis_1"/>
   <g id="matplotlib.axis_2"/>
  </g>
 </g>
</svg>
