<?xml version="1.0" encoding="utf-8" standalone="no"?>
<!DOCTYPE svg PUBLIC "-//W3C//DTD SVG 1.1//EN"
  "http://www.w3.org/Graphics/SVG/1.1/DTD/svg11.dtd">
<svg xmlns:xlink="http://www.w3.org/1999/xlink" width="371.52pt" height="280.512pt" viewBox="0 0 371.52 280.512" xmlns="http://www.w3.org/2000/svg" version="1.1">
 <metadata>
  <rdf:RDF xmlns:dc="http://purl.org/dc/elements/1.1/" xmlns:cc="http://creativecommons.org/ns#" xmlns:rdf="http://www.w3.org/1999/02/22-rdf-syntax-ns#">
   <cc:Work>
    <dc:type rdf:resource="http://purl.org/dc/dcmitype/StillImage"/>
    <dc:date>2021-11-24T20:23:09.381677</dc:date>
    <dc:format>image/svg+xml</dc:format>
    <dc:creator>
     <cc:Agent>
      <dc:title>Matplotlib v3.5.0, https://matplotlib.org/</dc:title>
     </cc:Agent>
    </dc:creator>
   </cc:Work>
  </rdf:RDF>
 </metadata>
 <defs>
  <style type="text/css">*{stroke-linejoin: round; stroke-linecap: butt}</style>
 </defs>
 <g id="figure_1">
  <g id="patch_1">
   <path d="M 0 280.512 
L 371.52 280.512 
L 371.52 0 
L 0 0 
L 0 280.512 
z
" style="fill: none"/>
  </g>
  <g id="axes_1">
   <g id="patch_2">
    <path d="M 186.24225 19.296003 
C 155.759459 19.296003 126.38591 30.872738 104.099789 51.67008 
C 81.813669 72.467421 68.236923 100.971774 66.132727 131.381853 
C 64.028531 161.791932 73.550026 191.894545 92.759371 215.563124 
C 111.968715 239.231704 139.467887 254.743691 169.660177 258.942044 
L 186.24225 139.692714 
L 186.24225 19.296003 
z
" style="fill: #0000ff"/>
   </g>
   <g id="patch_3">
    <path d="M 169.660177 258.942044 
C 186.013244 261.216 202.66062 260.10201 218.564911 255.669493 
C 234.469202 251.236977 249.293039 243.579958 262.112665 233.175589 
C 274.93229 222.77122 285.475768 209.840205 293.086073 195.188347 
C 300.696379 180.536489 305.212078 164.474592 306.351774 148.003563 
C 307.491469 131.532535 305.230983 115.001767 299.711181 99.441385 
C 294.19138 83.881003 285.52935 69.621083 274.264872 57.550241 
C 263.000395 45.479398 249.372418 35.853687 234.230178 29.272939 
C 219.087937 22.69219 202.752639 19.296 186.242227 19.296003 
L 186.24225 139.692714 
L 169.660177 258.942044 
z
" style="fill: #bf00bf"/>
   </g>
   <g id="matplotlib.axis_1"/>
   <g id="matplotlib.axis_2"/>
  </g>
 </g>
</svg>
