<?xml version="1.0" encoding="utf-8" standalone="no"?>
<!DOCTYPE svg PUBLIC "-//W3C//DTD SVG 1.1//EN"
  "http://www.w3.org/Graphics/SVG/1.1/DTD/svg11.dtd">
<svg xmlns:xlink="http://www.w3.org/1999/xlink" width="371.52pt" height="280.512pt" viewBox="0 0 371.52 280.512" xmlns="http://www.w3.org/2000/svg" version="1.1">
 <metadata>
  <rdf:RDF xmlns:dc="http://purl.org/dc/elements/1.1/" xmlns:cc="http://creativecommons.org/ns#" xmlns:rdf="http://www.w3.org/1999/02/22-rdf-syntax-ns#">
   <cc:Work>
    <dc:type rdf:resource="http://purl.org/dc/dcmitype/StillImage"/>
    <dc:date>2021-11-24T20:23:13.983723</dc:date>
    <dc:format>image/svg+xml</dc:format>
    <dc:creator>
     <cc:Agent>
      <dc:title>Matplotlib v3.5.0, https://matplotlib.org/</dc:title>
     </cc:Agent>
    </dc:creator>
   </cc:Work>
  </rdf:RDF>
 </metadata>
 <defs>
  <style type="text/css">*{stroke-linejoin: round; stroke-linecap: butt}</style>
 </defs>
 <g id="figure_1">
  <g id="patch_1">
   <path d="M 0 280.512 
L 371.52 280.512 
L 371.52 0 
L 0 0 
L 0 280.512 
z
" style="fill: none"/>
  </g>
  <g id="axes_1">
   <g id="patch_2">
    <path d="M 185.968226 19.296 
C 154.560232 19.296 124.361924 31.564334 101.85276 53.468664 
C 79.343596 75.372994 66.257468 105.226019 65.402183 136.622366 
C 64.546898 168.018713 75.988339 198.539907 97.271589 221.63721 
C 118.554839 244.734513 148.040439 258.628728 179.401853 260.338664 
L 185.968226 139.906771 
L 185.968226 19.296 
z
" style="fill: #0000ff"/>
   </g>
   <g id="patch_3">
    <path d="M 179.401853 260.338664 
C 195.492816 261.216 211.597624 258.859622 226.762718 253.409051 
C 241.927812 247.958479 255.84786 239.523455 267.698661 228.603412 
C 279.549462 217.683369 289.092413 204.498171 295.76248 189.828508 
C 302.432548 175.158845 306.095437 159.300074 306.534269 143.191187 
C 306.973102 127.0823 304.179042 111.047632 298.317526 96.036588 
C 292.456009 81.025544 283.645052 67.340355 272.406345 55.791316 
C 261.167639 44.242278 247.727463 35.061916 232.881605 28.793797 
C 218.035747 22.525678 202.083112 19.296003 185.968249 19.296 
L 185.968226 139.906771 
L 179.401853 260.338664 
z
" style="fill: #bf00bf"/>
   </g>
   <g id="matplotlib.axis_1"/>
   <g id="matplotlib.axis_2"/>
  </g>
 </g>
</svg>
