<?xml version="1.0" encoding="utf-8" standalone="no"?>
<!DOCTYPE svg PUBLIC "-//W3C//DTD SVG 1.1//EN"
  "http://www.w3.org/Graphics/SVG/1.1/DTD/svg11.dtd">
<svg xmlns:xlink="http://www.w3.org/1999/xlink" width="371.52pt" height="280.512pt" viewBox="0 0 371.52 280.512" xmlns="http://www.w3.org/2000/svg" version="1.1">
 <metadata>
  <rdf:RDF xmlns:dc="http://purl.org/dc/elements/1.1/" xmlns:cc="http://creativecommons.org/ns#" xmlns:rdf="http://www.w3.org/1999/02/22-rdf-syntax-ns#">
   <cc:Work>
    <dc:type rdf:resource="http://purl.org/dc/dcmitype/StillImage"/>
    <dc:date>2021-11-24T20:23:15.770192</dc:date>
    <dc:format>image/svg+xml</dc:format>
    <dc:creator>
     <cc:Agent>
      <dc:title>Matplotlib v3.5.0, https://matplotlib.org/</dc:title>
     </cc:Agent>
    </dc:creator>
   </cc:Work>
  </rdf:RDF>
 </metadata>
 <defs>
  <style type="text/css">*{stroke-linejoin: round; stroke-linecap: butt}</style>
 </defs>
 <g id="figure_1">
  <g id="patch_1">
   <path d="M 0 280.512 
L 371.52 280.512 
L 371.52 0 
L 0 0 
L 0 280.512 
z
" style="fill: none"/>
  </g>
  <g id="axes_1">
   <g id="patch_2">
    <path d="M 186.614297 19.296 
C 157.804083 19.296 129.930254 29.641679 108.096745 48.438655 
C 86.263236 67.235632 71.889306 93.262032 67.606943 121.752202 
C 63.32458 150.242372 69.412154 179.344345 84.754978 203.729303 
C 100.097802 228.114262 123.698536 246.197092 151.235685 254.666675 
L 186.614297 139.64022 
L 186.614297 19.296 
z
" style="fill: #0000ff"/>
   </g>
   <g id="patch_3">
    <path d="M 151.235685 254.666675 
C 167.785957 259.757031 185.241555 261.216 202.407212 258.943679 
C 219.572868 256.671358 236.047626 250.720824 250.70338 241.499539 
C 265.359133 232.278254 277.853552 220.00161 287.331083 205.510246 
C 296.808615 191.018883 303.047881 174.651291 305.62165 157.528239 
C 308.19542 140.405186 307.043573 122.926635 302.244984 106.289425 
C 297.446395 89.652215 289.113148 74.24496 277.815862 61.122669 
C 266.518576 48.000378 252.521133 37.469561 236.782005 30.251316 
C 221.042877 23.03307 203.929701 19.296 186.614297 19.296 
L 186.614297 139.64022 
L 151.235685 254.666675 
z
" style="fill: #bf00bf"/>
   </g>
   <g id="matplotlib.axis_1"/>
   <g id="matplotlib.axis_2"/>
  </g>
 </g>
</svg>
