<?xml version="1.0" encoding="utf-8" standalone="no"?>
<!DOCTYPE svg PUBLIC "-//W3C//DTD SVG 1.1//EN"
  "http://www.w3.org/Graphics/SVG/1.1/DTD/svg11.dtd">
<svg xmlns:xlink="http://www.w3.org/1999/xlink" width="371.52pt" height="280.512pt" viewBox="0 0 371.52 280.512" xmlns="http://www.w3.org/2000/svg" version="1.1">
 <metadata>
  <rdf:RDF xmlns:dc="http://purl.org/dc/elements/1.1/" xmlns:cc="http://creativecommons.org/ns#" xmlns:rdf="http://www.w3.org/1999/02/22-rdf-syntax-ns#">
   <cc:Work>
    <dc:type rdf:resource="http://purl.org/dc/dcmitype/StillImage"/>
    <dc:date>2022-01-14T17:15:33.483154</dc:date>
    <dc:format>image/svg+xml</dc:format>
    <dc:creator>
     <cc:Agent>
      <dc:title>Matplotlib v3.5.1, https://matplotlib.org/</dc:title>
     </cc:Agent>
    </dc:creator>
   </cc:Work>
  </rdf:RDF>
 </metadata>
 <defs>
  <style type="text/css">*{stroke-linejoin: round; stroke-linecap: butt}</style>
 </defs>
 <g id="figure_1">
  <g id="patch_1">
   <path d="M 0 280.512 
L 371.52 280.512 
L 371.52 0 
L 0 0 
L 0 280.512 
z
" style="fill: none"/>
  </g>
  <g id="axes_1">
   <g id="patch_2">
    <path d="M 186.326286 19.296 
C 156.146295 19.296 127.042307 30.642242 104.825772 51.069122 
C 82.609238 71.496002 68.864322 99.546967 66.335594 129.620832 
C 63.806866 159.694698 72.674639 189.647026 91.168205 213.49697 
C 109.661772 237.346914 136.462436 253.393838 166.218671 258.43351 
L 186.326286 139.710118 
L 186.326286 19.296 
z
" style="fill: #0000ff; stroke: #000000; stroke-width: 2; stroke-linejoin: miter"/>
   </g>
   <g id="patch_3">
    <path d="M 166.218671 258.43351 
C 182.647606 261.216 199.476662 260.558286 215.638327 256.502087 
C 231.799992 252.445889 246.945159 245.078824 260.113129 234.868206 
C 273.281099 224.657587 284.187431 211.823974 292.140309 197.181437 
C 300.093186 182.538899 304.920818 166.40373 306.316976 149.799426 
C 307.713134 133.195122 305.647659 116.480353 300.251569 100.715379 
C 294.85548 84.950406 286.245337 70.475768 274.967305 58.20963 
C 263.689272 45.943491 249.986967 36.150813 234.729563 29.452771 
C 219.472158 22.754728 202.989229 19.296006 186.326331 19.296 
L 186.326286 139.710118 
L 166.218671 258.43351 
z
" style="fill: #ff0000; stroke: #000000; stroke-width: 2; stroke-linejoin: miter"/>
   </g>
   <g id="matplotlib.axis_1"/>
   <g id="matplotlib.axis_2"/>
  </g>
 </g>
</svg>
