<?xml version="1.0" encoding="utf-8" standalone="no"?>
<!DOCTYPE svg PUBLIC "-//W3C//DTD SVG 1.1//EN"
  "http://www.w3.org/Graphics/SVG/1.1/DTD/svg11.dtd">
<svg xmlns:xlink="http://www.w3.org/1999/xlink" width="371.52pt" height="280.512pt" viewBox="0 0 371.52 280.512" xmlns="http://www.w3.org/2000/svg" version="1.1">
 <metadata>
  <rdf:RDF xmlns:dc="http://purl.org/dc/elements/1.1/" xmlns:cc="http://creativecommons.org/ns#" xmlns:rdf="http://www.w3.org/1999/02/22-rdf-syntax-ns#">
   <cc:Work>
    <dc:type rdf:resource="http://purl.org/dc/dcmitype/StillImage"/>
    <dc:date>2022-01-14T17:15:24.425008</dc:date>
    <dc:format>image/svg+xml</dc:format>
    <dc:creator>
     <cc:Agent>
      <dc:title>Matplotlib v3.5.1, https://matplotlib.org/</dc:title>
     </cc:Agent>
    </dc:creator>
   </cc:Work>
  </rdf:RDF>
 </metadata>
 <defs>
  <style type="text/css">*{stroke-linejoin: round; stroke-linecap: butt}</style>
 </defs>
 <g id="figure_1">
  <g id="patch_1">
   <path d="M 0 280.512 
L 371.52 280.512 
L 371.52 0 
L 0 0 
L 0 280.512 
z
" style="fill: none"/>
  </g>
  <g id="axes_1">
   <g id="patch_2">
    <path d="M 185.945065 19.296 
C 154.462132 19.296 124.196963 31.619644 101.669164 53.61222 
C 79.141366 75.604795 66.093695 105.564951 65.33683 137.038786 
C 64.579965 168.51262 76.172459 199.065309 97.617099 222.115308 
C 119.06174 245.165308 148.699565 258.929464 180.146107 260.442756 
L 185.945065 139.939103 
L 185.945065 19.296 
z
" style="fill: #0000ff; stroke: #000000; stroke-width: 2; stroke-linejoin: miter"/>
   </g>
   <g id="patch_3">
    <path d="M 180.146107 260.442756 
C 196.214288 261.216 212.276021 258.767649 227.384053 253.242098 
C 242.492084 247.716547 256.343456 239.224597 268.121271 228.267069 
C 279.899086 217.309542 289.367166 204.106165 295.967123 189.43562 
C 302.56708 174.765075 306.166567 158.921546 306.553301 142.83942 
C 306.940035 126.757294 304.10626 110.759063 298.219101 95.788235 
C 292.331943 80.817406 283.509454 67.174189 272.271949 55.663202 
C 261.034444 44.152215 247.607266 35.004287 232.782295 28.758924 
C 217.957323 22.513561 202.031841 19.296 185.945065 19.296 
L 185.945065 139.939103 
L 180.146107 260.442756 
z
" style="fill: #ff0000; stroke: #000000; stroke-width: 2; stroke-linejoin: miter"/>
   </g>
   <g id="matplotlib.axis_1"/>
   <g id="matplotlib.axis_2"/>
  </g>
 </g>
</svg>
