<?xml version="1.0" encoding="utf-8" standalone="no"?>
<!DOCTYPE svg PUBLIC "-//W3C//DTD SVG 1.1//EN"
  "http://www.w3.org/Graphics/SVG/1.1/DTD/svg11.dtd">
<svg xmlns:xlink="http://www.w3.org/1999/xlink" width="371.52pt" height="280.512pt" viewBox="0 0 371.52 280.512" xmlns="http://www.w3.org/2000/svg" version="1.1">
 <metadata>
  <rdf:RDF xmlns:dc="http://purl.org/dc/elements/1.1/" xmlns:cc="http://creativecommons.org/ns#" xmlns:rdf="http://www.w3.org/1999/02/22-rdf-syntax-ns#">
   <cc:Work>
    <dc:type rdf:resource="http://purl.org/dc/dcmitype/StillImage"/>
    <dc:date>2021-12-10T18:12:47.952183</dc:date>
    <dc:format>image/svg+xml</dc:format>
    <dc:creator>
     <cc:Agent>
      <dc:title>Matplotlib v3.5.0, https://matplotlib.org/</dc:title>
     </cc:Agent>
    </dc:creator>
   </cc:Work>
  </rdf:RDF>
 </metadata>
 <defs>
  <style type="text/css">*{stroke-linejoin: round; stroke-linecap: butt}</style>
 </defs>
 <g id="figure_1">
  <g id="patch_1">
   <path d="M 0 280.512 
L 371.52 280.512 
L 371.52 0 
L 0 0 
L 0 280.512 
z
" style="fill: none"/>
  </g>
  <g id="axes_1">
   <g id="patch_2">
    <path d="M 185.800448 19.296 
C 153.858244 19.296 123.18316 31.956681 100.539643 54.486118 
C 77.896126 77.015555 65.080674 107.626302 64.919342 139.568098 
C 64.758009 171.509895 77.263595 202.248534 99.678378 225.005553 
C 122.093161 247.762572 152.638789 260.732469 184.579363 261.05513 
L 185.800448 140.178649 
L 185.800448 19.296 
z
" style="fill: #0000ff"/>
   </g>
   <g id="patch_3">
    <path d="M 184.579363 261.05513 
C 200.504083 261.216 216.30474 258.228323 231.071306 252.26417 
C 245.837872 246.300018 259.281309 237.476133 270.627353 226.300719 
C 281.973397 215.125305 290.999961 201.817109 297.187169 187.142605 
C 303.374376 172.468102 306.601119 156.714528 306.681555 140.789199 
C 306.761991 124.863869 303.694546 109.078505 297.655888 94.342251 
C 291.617229 79.605996 282.725557 66.207298 271.492979 54.917843 
C 260.260401 43.628389 246.906784 34.669156 232.201218 28.556145 
C 217.495651 22.443134 201.725981 19.296 185.800448 19.296 
L 185.800448 140.178649 
L 184.579363 261.05513 
z
" style="fill: #ff0000"/>
   </g>
   <g id="matplotlib.axis_1"/>
   <g id="matplotlib.axis_2"/>
  </g>
 </g>
</svg>
