<?xml version="1.0" encoding="utf-8" standalone="no"?>
<!DOCTYPE svg PUBLIC "-//W3C//DTD SVG 1.1//EN"
  "http://www.w3.org/Graphics/SVG/1.1/DTD/svg11.dtd">
<svg xmlns:xlink="http://www.w3.org/1999/xlink" width="371.52pt" height="280.512pt" viewBox="0 0 371.52 280.512" xmlns="http://www.w3.org/2000/svg" version="1.1">
 <metadata>
  <rdf:RDF xmlns:dc="http://purl.org/dc/elements/1.1/" xmlns:cc="http://creativecommons.org/ns#" xmlns:rdf="http://www.w3.org/1999/02/22-rdf-syntax-ns#">
   <cc:Work>
    <dc:type rdf:resource="http://purl.org/dc/dcmitype/StillImage"/>
    <dc:date>2021-11-24T20:23:12.791097</dc:date>
    <dc:format>image/svg+xml</dc:format>
    <dc:creator>
     <cc:Agent>
      <dc:title>Matplotlib v3.5.0, https://matplotlib.org/</dc:title>
     </cc:Agent>
    </dc:creator>
   </cc:Work>
  </rdf:RDF>
 </metadata>
 <defs>
  <style type="text/css">*{stroke-linejoin: round; stroke-linecap: butt}</style>
 </defs>
 <g id="figure_1">
  <g id="patch_1">
   <path d="M 0 280.512 
L 371.52 280.512 
L 371.52 0 
L 0 0 
L 0 280.512 
z
" style="fill: none"/>
  </g>
  <g id="axes_1">
   <g id="patch_2">
    <path d="M 186.642256 19.296007 
C 158.005999 19.296007 130.288992 29.516111 108.507624 48.106625 
C 86.726256 66.697139 72.27893 92.464518 67.78041 120.745227 
C 63.281889 149.025937 69.020987 178.004304 83.959008 202.435652 
C 98.897029 226.867 122.074924 245.182791 149.29782 254.068124 
L 186.642256 139.652194 
L 186.642256 19.296007 
z
" style="fill: #0000ff"/>
   </g>
   <g id="patch_3">
    <path d="M 149.29782 254.068124 
C 165.842729 259.468249 183.363775 261.216 200.649399 259.190522 
C 217.935024 257.165045 234.577398 251.414126 249.425723 242.335436 
C 264.274048 233.256746 276.978 221.064482 286.659116 206.601725 
C 296.340232 192.138967 302.770101 175.746942 305.504106 158.559139 
C 308.238111 141.371336 307.211746 123.793273 302.495984 107.040454 
C 297.780222 90.287635 289.486324 74.755315 278.187803 61.517536 
C 266.889282 48.279758 252.852709 37.648845 237.048695 30.359913 
C 221.244682 23.070981 204.0461 19.296 186.642211 19.296007 
L 186.642256 139.652194 
L 149.29782 254.068124 
z
" style="fill: #bf00bf"/>
   </g>
   <g id="matplotlib.axis_1"/>
   <g id="matplotlib.axis_2"/>
  </g>
 </g>
</svg>
