<?xml version="1.0" encoding="utf-8" standalone="no"?>
<!DOCTYPE svg PUBLIC "-//W3C//DTD SVG 1.1//EN"
  "http://www.w3.org/Graphics/SVG/1.1/DTD/svg11.dtd">
<svg xmlns:xlink="http://www.w3.org/1999/xlink" width="371.52pt" height="280.512pt" viewBox="0 0 371.52 280.512" xmlns="http://www.w3.org/2000/svg" version="1.1">
 <metadata>
  <rdf:RDF xmlns:dc="http://purl.org/dc/elements/1.1/" xmlns:cc="http://creativecommons.org/ns#" xmlns:rdf="http://www.w3.org/1999/02/22-rdf-syntax-ns#">
   <cc:Work>
    <dc:type rdf:resource="http://purl.org/dc/dcmitype/StillImage"/>
    <dc:date>2022-01-14T17:15:32.116308</dc:date>
    <dc:format>image/svg+xml</dc:format>
    <dc:creator>
     <cc:Agent>
      <dc:title>Matplotlib v3.5.1, https://matplotlib.org/</dc:title>
     </cc:Agent>
    </dc:creator>
   </cc:Work>
  </rdf:RDF>
 </metadata>
 <defs>
  <style type="text/css">*{stroke-linejoin: round; stroke-linecap: butt}</style>
 </defs>
 <g id="figure_1">
  <g id="patch_1">
   <path d="M 0 280.512 
L 371.52 280.512 
L 371.52 0 
L 0 0 
L 0 280.512 
z
" style="fill: none"/>
  </g>
  <g id="axes_1">
   <g id="patch_2">
    <path d="M 186.645004 19.296 
C 158.026401 19.296 130.325309 29.503331 108.549216 48.072828 
C 86.773124 66.642325 72.318311 92.383314 67.797755 120.64263 
C 63.277199 148.901947 68.980757 177.867609 83.877405 202.303531 
C 98.774053 226.739453 121.908619 245.078808 149.0991 254.006416 
L 186.645004 139.654259 
L 186.645004 19.296 
z
" style="fill: #0000ff; stroke: #000000; stroke-width: 2; stroke-linejoin: miter"/>
   </g>
   <g id="patch_3">
    <path d="M 149.0991 254.006416 
C 165.643248 259.438451 183.170866 261.216 200.468725 259.216023 
C 217.766584 257.216046 234.426149 251.485778 249.294275 242.421858 
C 264.162402 233.357938 276.887939 221.174434 286.59005 206.714667 
C 296.292161 192.254899 302.741703 175.860373 305.492252 158.665888 
C 308.242801 141.471403 307.229395 123.883053 302.52218 107.118269 
C 297.814964 90.353486 289.525113 74.808215 278.226435 61.558472 
C 266.927757 48.308729 252.887099 37.667441 237.076331 30.371178 
C 221.265563 23.074916 204.058097 19.296 186.645004 19.296 
L 186.645004 139.654259 
L 149.0991 254.006416 
z
" style="fill: #ff0000; stroke: #000000; stroke-width: 2; stroke-linejoin: miter"/>
   </g>
   <g id="matplotlib.axis_1"/>
   <g id="matplotlib.axis_2"/>
  </g>
 </g>
</svg>
