<?xml version="1.0" encoding="utf-8" standalone="no"?>
<!DOCTYPE svg PUBLIC "-//W3C//DTD SVG 1.1//EN"
  "http://www.w3.org/Graphics/SVG/1.1/DTD/svg11.dtd">
<svg xmlns:xlink="http://www.w3.org/1999/xlink" width="371.52pt" height="280.512pt" viewBox="0 0 371.52 280.512" xmlns="http://www.w3.org/2000/svg" version="1.1">
 <metadata>
  <rdf:RDF xmlns:dc="http://purl.org/dc/elements/1.1/" xmlns:cc="http://creativecommons.org/ns#" xmlns:rdf="http://www.w3.org/1999/02/22-rdf-syntax-ns#">
   <cc:Work>
    <dc:type rdf:resource="http://purl.org/dc/dcmitype/StillImage"/>
    <dc:date>2022-01-14T17:15:33.175316</dc:date>
    <dc:format>image/svg+xml</dc:format>
    <dc:creator>
     <cc:Agent>
      <dc:title>Matplotlib v3.5.1, https://matplotlib.org/</dc:title>
     </cc:Agent>
    </dc:creator>
   </cc:Work>
  </rdf:RDF>
 </metadata>
 <defs>
  <style type="text/css">*{stroke-linejoin: round; stroke-linecap: butt}</style>
 </defs>
 <g id="figure_1">
  <g id="patch_1">
   <path d="M 0 280.512 
L 371.52 280.512 
L 371.52 0 
L 0 0 
L 0 280.512 
z
" style="fill: none"/>
  </g>
  <g id="axes_1">
   <g id="patch_2">
    <path d="M 186.706359 19.296 
C 159.572481 19.296 133.21425 28.438409 111.908026 45.239963 
C 90.601803 62.041516 75.565703 85.541638 69.239186 111.927667 
C 62.912668 138.313696 65.65743 166.077094 77.028163 190.713526 
C 88.398896 215.349959 107.745512 235.450915 131.929217 247.755214 
L 186.706359 140.092502 
L 186.706359 19.296 
z
" style="fill: #0000ff; stroke: #000000; stroke-width: 2; stroke-linejoin: miter"/>
   </g>
   <g id="patch_3">
    <path d="M 131.929217 247.755214 
C 148.202059 256.034587 166.142208 260.517848 184.396839 260.866924 
C 202.651469 261.216 220.749903 257.421891 237.327379 249.770701 
C 253.904854 242.119511 268.533937 230.80852 280.11148 216.690663 
C 291.689024 202.572806 299.916513 186.0121 304.173531 168.257348 
C 308.430549 150.502597 308.607332 132.01159 304.690551 114.178693 
C 300.773769 96.345796 292.864413 79.630813 281.558909 65.294182 
C 270.253405 50.957552 255.843255 39.36893 239.415095 31.402189 
C 222.986935 23.435449 204.96435 19.296003 186.706382 19.296 
L 186.706359 140.092502 
L 131.929217 247.755214 
z
" style="fill: #ff0000; stroke: #000000; stroke-width: 2; stroke-linejoin: miter"/>
   </g>
   <g id="matplotlib.axis_1"/>
   <g id="matplotlib.axis_2"/>
  </g>
 </g>
</svg>
