<?xml version="1.0" encoding="utf-8" standalone="no"?>
<!DOCTYPE svg PUBLIC "-//W3C//DTD SVG 1.1//EN"
  "http://www.w3.org/Graphics/SVG/1.1/DTD/svg11.dtd">
<svg xmlns:xlink="http://www.w3.org/1999/xlink" width="371.52pt" height="280.512pt" viewBox="0 0 371.52 280.512" xmlns="http://www.w3.org/2000/svg" version="1.1">
 <metadata>
  <rdf:RDF xmlns:dc="http://purl.org/dc/elements/1.1/" xmlns:cc="http://creativecommons.org/ns#" xmlns:rdf="http://www.w3.org/1999/02/22-rdf-syntax-ns#">
   <cc:Work>
    <dc:type rdf:resource="http://purl.org/dc/dcmitype/StillImage"/>
    <dc:date>2022-01-14T17:15:35.129128</dc:date>
    <dc:format>image/svg+xml</dc:format>
    <dc:creator>
     <cc:Agent>
      <dc:title>Matplotlib v3.5.1, https://matplotlib.org/</dc:title>
     </cc:Agent>
    </dc:creator>
   </cc:Work>
  </rdf:RDF>
 </metadata>
 <defs>
  <style type="text/css">*{stroke-linejoin: round; stroke-linecap: butt}</style>
 </defs>
 <g id="figure_1">
  <g id="patch_1">
   <path d="M 0 280.512 
L 371.52 280.512 
L 371.52 0 
L 0 0 
L 0 280.512 
z
" style="fill: none"/>
  </g>
  <g id="axes_1">
   <g id="patch_2">
    <path d="M 186.22999 19.296 
C 155.70394 19.296 126.291864 30.905477 103.995647 51.755379 
C 81.69943 72.605281 68.146364 101.173875 66.102113 131.631399 
C 64.057863 162.088922 73.671628 192.212429 92.981605 215.854859 
C 112.291583 239.497289 139.888431 254.933095 170.140685 259.012418 
L 186.22999 139.694151 
L 186.22999 19.296 
z
" style="fill: #0000ff; stroke: #000000; stroke-width: 2; stroke-linejoin: miter"/>
   </g>
   <g id="patch_3">
    <path d="M 170.140685 259.012418 
C 186.482443 261.216 203.10402 260.039033 218.972209 255.554678 
C 234.840397 251.070324 249.61945 243.373464 262.390694 232.942539 
C 275.161938 222.511614 285.655151 209.567328 293.21807 194.914305 
C 300.78099 180.261281 305.253595 164.209557 306.357866 147.756914 
C 307.462137 131.304272 305.17471 114.798826 299.637772 99.266564 
C 294.100834 83.734302 285.431538 69.503864 274.168773 57.45982 
C 262.906008 45.415777 249.288078 35.812963 234.16148 29.248295 
C 219.034881 22.683627 202.719671 19.296003 186.230013 19.296 
L 186.22999 139.694151 
L 170.140685 259.012418 
z
" style="fill: #ff0000; stroke: #000000; stroke-width: 2; stroke-linejoin: miter"/>
   </g>
   <g id="matplotlib.axis_1"/>
   <g id="matplotlib.axis_2"/>
  </g>
 </g>
</svg>
