<?xml version="1.0" encoding="utf-8" standalone="no"?>
<!DOCTYPE svg PUBLIC "-//W3C//DTD SVG 1.1//EN"
  "http://www.w3.org/Graphics/SVG/1.1/DTD/svg11.dtd">
<svg xmlns:xlink="http://www.w3.org/1999/xlink" width="371.52pt" height="280.512pt" viewBox="0 0 371.52 280.512" xmlns="http://www.w3.org/2000/svg" version="1.1">
 <metadata>
  <rdf:RDF xmlns:dc="http://purl.org/dc/elements/1.1/" xmlns:cc="http://creativecommons.org/ns#" xmlns:rdf="http://www.w3.org/1999/02/22-rdf-syntax-ns#">
   <cc:Work>
    <dc:type rdf:resource="http://purl.org/dc/dcmitype/StillImage"/>
    <dc:date>2021-11-24T20:23:25.399517</dc:date>
    <dc:format>image/svg+xml</dc:format>
    <dc:creator>
     <cc:Agent>
      <dc:title>Matplotlib v3.5.0, https://matplotlib.org/</dc:title>
     </cc:Agent>
    </dc:creator>
   </cc:Work>
  </rdf:RDF>
 </metadata>
 <defs>
  <style type="text/css">*{stroke-linejoin: round; stroke-linecap: butt}</style>
 </defs>
 <g id="figure_1">
  <g id="patch_1">
   <path d="M 0 280.512 
L 371.52 280.512 
L 371.52 0 
L 0 0 
L 0 280.512 
z
" style="fill: none"/>
  </g>
  <g id="axes_1">
   <g id="patch_2">
    <path d="M 186.154991 19.296004 
C 163.638999 19.296004 141.569438 25.621197 122.471646 37.547815 
C 103.373853 49.474433 88.005144 66.529531 78.124102 86.761557 
C 68.24306 106.993584 64.241514 129.600247 66.577346 151.99475 
C 68.913178 174.389254 77.493761 195.683553 91.337251 213.441021 
L 186.154991 139.522348 
L 186.154991 19.296004 
z
" style="fill: #0000ff"/>
   </g>
   <g id="patch_3">
    <path d="M 91.337251 213.441021 
C 103.877931 229.527334 120.308431 242.160756 139.076611 250.147843 
C 157.84479 258.13493 178.340441 261.216 198.627398 259.099992 
C 218.914355 256.983985 238.333032 249.739697 255.049001 238.051477 
C 271.76497 226.363257 285.234748 210.611121 294.185884 192.283129 
C 303.13702 173.955137 307.278486 153.647184 306.21905 133.277704 
C 305.159614 112.908224 298.933722 93.139487 288.129515 75.838989 
C 277.325308 58.538491 262.294063 44.26872 244.455737 34.377701 
C 226.617412 24.486682 206.551981 19.296 186.154968 19.296004 
L 186.154991 139.522348 
L 91.337251 213.441021 
z
" style="fill: #bf00bf"/>
   </g>
   <g id="matplotlib.axis_1"/>
   <g id="matplotlib.axis_2"/>
  </g>
 </g>
</svg>
