<?xml version="1.0" encoding="utf-8" standalone="no"?>
<!DOCTYPE svg PUBLIC "-//W3C//DTD SVG 1.1//EN"
  "http://www.w3.org/Graphics/SVG/1.1/DTD/svg11.dtd">
<svg xmlns:xlink="http://www.w3.org/1999/xlink" width="371.52pt" height="280.512pt" viewBox="0 0 371.52 280.512" xmlns="http://www.w3.org/2000/svg" version="1.1">
 <metadata>
  <rdf:RDF xmlns:dc="http://purl.org/dc/elements/1.1/" xmlns:cc="http://creativecommons.org/ns#" xmlns:rdf="http://www.w3.org/1999/02/22-rdf-syntax-ns#">
   <cc:Work>
    <dc:type rdf:resource="http://purl.org/dc/dcmitype/StillImage"/>
    <dc:date>2021-11-24T20:23:20.928186</dc:date>
    <dc:format>image/svg+xml</dc:format>
    <dc:creator>
     <cc:Agent>
      <dc:title>Matplotlib v3.5.0, https://matplotlib.org/</dc:title>
     </cc:Agent>
    </dc:creator>
   </cc:Work>
  </rdf:RDF>
 </metadata>
 <defs>
  <style type="text/css">*{stroke-linejoin: round; stroke-linecap: butt}</style>
 </defs>
 <g id="figure_1">
  <g id="patch_1">
   <path d="M 0 280.512 
L 371.52 280.512 
L 371.52 0 
L 0 0 
L 0 280.512 
z
" style="fill: none"/>
  </g>
  <g id="axes_1">
   <g id="patch_2">
    <path d="M 186.412821 19.296 
C 160.10479 19.296 134.508067 27.918442 113.562081 43.8363 
C 92.616096 59.754157 77.45351 82.106668 70.407901 107.453697 
C 63.362292 132.800726 64.814654 159.771625 74.541462 184.215473 
C 84.268271 208.659321 101.743546 229.254308 124.277779 242.83079 
L 186.412821 139.699106 
L 186.412821 19.296 
z
" style="fill: #0000ff"/>
   </g>
   <g id="patch_3">
    <path d="M 124.277779 242.83079 
C 140.177381 252.410023 158.078917 258.183943 176.579207 259.699972 
C 195.079497 261.216 213.682202 258.433463 230.929183 251.570466 
C 248.176164 244.707469 263.604706 233.948137 276.005471 220.13582 
C 288.406236 206.323503 297.446527 189.828768 302.417738 171.944525 
C 307.388949 154.060282 308.157708 135.266343 304.663758 117.035836 
C 301.169807 98.805329 293.506886 81.627355 282.275637 66.848379 
C 271.044389 52.069404 256.546133 40.085926 239.91729 31.837251 
C 223.288446 23.588576 204.975146 19.296003 186.412844 19.296 
L 186.412821 139.699106 
L 124.277779 242.83079 
z
" style="fill: #bf00bf"/>
   </g>
   <g id="matplotlib.axis_1"/>
   <g id="matplotlib.axis_2"/>
  </g>
 </g>
</svg>
