<?xml version="1.0" encoding="utf-8" standalone="no"?>
<!DOCTYPE svg PUBLIC "-//W3C//DTD SVG 1.1//EN"
  "http://www.w3.org/Graphics/SVG/1.1/DTD/svg11.dtd">
<svg xmlns:xlink="http://www.w3.org/1999/xlink" width="371.52pt" height="280.512pt" viewBox="0 0 371.52 280.512" xmlns="http://www.w3.org/2000/svg" version="1.1">
 <metadata>
  <rdf:RDF xmlns:dc="http://purl.org/dc/elements/1.1/" xmlns:cc="http://creativecommons.org/ns#" xmlns:rdf="http://www.w3.org/1999/02/22-rdf-syntax-ns#">
   <cc:Work>
    <dc:type rdf:resource="http://purl.org/dc/dcmitype/StillImage"/>
    <dc:date>2022-01-14T17:15:37.216248</dc:date>
    <dc:format>image/svg+xml</dc:format>
    <dc:creator>
     <cc:Agent>
      <dc:title>Matplotlib v3.5.1, https://matplotlib.org/</dc:title>
     </cc:Agent>
    </dc:creator>
   </cc:Work>
  </rdf:RDF>
 </metadata>
 <defs>
  <style type="text/css">*{stroke-linejoin: round; stroke-linecap: butt}</style>
 </defs>
 <g id="figure_1">
  <g id="patch_1">
   <path d="M 0 280.512 
L 371.52 280.512 
L 371.52 0 
L 0 0 
L 0 280.512 
z
" style="fill: none"/>
  </g>
  <g id="axes_1">
   <g id="patch_2">
    <path d="M 186.245808 19.296004 
C 162.774451 19.296004 139.809703 26.173986 120.202545 39.076076 
C 100.595386 51.978167 85.192225 70.347404 75.9053 91.903323 
C 66.618375 113.459242 63.848588 137.271309 67.939796 160.383354 
C 72.031005 183.495399 82.806597 204.909714 98.92883 221.967798 
L 186.245808 139.441264 
L 186.245808 19.296004 
z
" style="fill: #0000ff; stroke: #000000; stroke-width: 2; stroke-linejoin: miter"/>
   </g>
   <g id="patch_3">
    <path d="M 98.92883 221.967798 
C 112.598038 236.430468 129.64875 247.272951 148.543699 253.517706 
C 167.438649 259.762461 187.592394 261.216 207.187904 257.747275 
C 226.783414 254.278549 245.213542 245.995035 260.816654 233.643559 
C 276.419767 221.292084 288.712418 205.255346 296.586321 186.979194 
C 304.460223 168.703043 307.671412 148.753745 305.930372 128.929899 
C 304.189331 109.106054 297.550006 90.021883 286.610986 73.397986 
C 275.671967 56.77409 260.772189 43.125543 243.254994 33.682878 
C 225.737798 24.240212 206.145938 19.296 186.245785 19.296004 
L 186.245808 139.441264 
L 98.92883 221.967798 
z
" style="fill: #ff0000; stroke: #000000; stroke-width: 2; stroke-linejoin: miter"/>
   </g>
   <g id="matplotlib.axis_1"/>
   <g id="matplotlib.axis_2"/>
  </g>
 </g>
</svg>
