<?xml version="1.0" encoding="utf-8" standalone="no"?>
<!DOCTYPE svg PUBLIC "-//W3C//DTD SVG 1.1//EN"
  "http://www.w3.org/Graphics/SVG/1.1/DTD/svg11.dtd">
<svg xmlns:xlink="http://www.w3.org/1999/xlink" width="371.52pt" height="280.512pt" viewBox="0 0 371.52 280.512" xmlns="http://www.w3.org/2000/svg" version="1.1">
 <metadata>
  <rdf:RDF xmlns:dc="http://purl.org/dc/elements/1.1/" xmlns:cc="http://creativecommons.org/ns#" xmlns:rdf="http://www.w3.org/1999/02/22-rdf-syntax-ns#">
   <cc:Work>
    <dc:type rdf:resource="http://purl.org/dc/dcmitype/StillImage"/>
    <dc:date>2022-01-14T17:15:38.105390</dc:date>
    <dc:format>image/svg+xml</dc:format>
    <dc:creator>
     <cc:Agent>
      <dc:title>Matplotlib v3.5.1, https://matplotlib.org/</dc:title>
     </cc:Agent>
    </dc:creator>
   </cc:Work>
  </rdf:RDF>
 </metadata>
 <defs>
  <style type="text/css">*{stroke-linejoin: round; stroke-linecap: butt}</style>
 </defs>
 <g id="figure_1">
  <g id="patch_1">
   <path d="M 0 280.512 
L 371.52 280.512 
L 371.52 0 
L 0 0 
L 0 280.512 
z
" style="fill: none"/>
  </g>
  <g id="axes_1">
   <g id="patch_2">
    <path d="M 186.48284 19.296006 
C 156.951829 19.296006 128.428041 30.157073 106.375937 49.798492 
C 84.323833 69.43991 70.247688 96.521849 66.844149 125.85607 
C 63.440609 155.190291 70.941845 184.775772 87.910804 208.944658 
C 104.879762 233.113544 130.158912 250.217164 158.905387 256.978882 
L 186.48284 139.737299 
L 186.48284 19.296006 
z
" style="fill: #0000ff; stroke: #000000; stroke-width: 2; stroke-linejoin: miter"/>
   </g>
   <g id="patch_3">
    <path d="M 158.905387 256.978882 
C 175.441582 260.86851 192.615128 261.216 209.295129 257.998469 
C 225.97513 254.780937 241.787238 248.070596 255.690209 238.309328 
C 269.593179 228.54806 281.274989 215.954936 289.966378 201.359228 
C 298.657767 186.76352 304.163676 170.492797 306.121533 153.618505 
C 308.079391 136.744213 306.445258 119.645059 301.326743 103.447042 
C 296.208229 87.249025 287.720207 72.315676 276.421624 59.630371 
C 265.123041 46.945065 251.26747 36.7925 235.767314 29.841232 
C 220.267159 22.889964 203.470289 19.296 186.482795 19.296006 
L 186.48284 139.737299 
L 158.905387 256.978882 
z
" style="fill: #ff0000; stroke: #000000; stroke-width: 2; stroke-linejoin: miter"/>
   </g>
   <g id="matplotlib.axis_1"/>
   <g id="matplotlib.axis_2"/>
  </g>
 </g>
</svg>
