<?xml version="1.0" encoding="utf-8" standalone="no"?>
<!DOCTYPE svg PUBLIC "-//W3C//DTD SVG 1.1//EN"
  "http://www.w3.org/Graphics/SVG/1.1/DTD/svg11.dtd">
<svg xmlns:xlink="http://www.w3.org/1999/xlink" width="371.52pt" height="280.512pt" viewBox="0 0 371.52 280.512" xmlns="http://www.w3.org/2000/svg" version="1.1">
 <metadata>
  <rdf:RDF xmlns:dc="http://purl.org/dc/elements/1.1/" xmlns:cc="http://creativecommons.org/ns#" xmlns:rdf="http://www.w3.org/1999/02/22-rdf-syntax-ns#">
   <cc:Work>
    <dc:type rdf:resource="http://purl.org/dc/dcmitype/StillImage"/>
    <dc:date>2022-01-14T17:15:39.056127</dc:date>
    <dc:format>image/svg+xml</dc:format>
    <dc:creator>
     <cc:Agent>
      <dc:title>Matplotlib v3.5.1, https://matplotlib.org/</dc:title>
     </cc:Agent>
    </dc:creator>
   </cc:Work>
  </rdf:RDF>
 </metadata>
 <defs>
  <style type="text/css">*{stroke-linejoin: round; stroke-linecap: butt}</style>
 </defs>
 <g id="figure_1">
  <g id="patch_1">
   <path d="M 0 280.512 
L 371.52 280.512 
L 371.52 0 
L 0 0 
L 0 280.512 
z
" style="fill: none"/>
  </g>
  <g id="axes_1">
   <g id="patch_2">
    <path d="M 186.131101 19.296007 
C 161.309352 19.296007 137.08601 26.980791 116.803782 41.289894 
C 96.521555 55.598997 81.158375 75.842488 72.834291 99.226859 
C 64.510206 122.61123 63.626574 148.008974 70.30533 171.915321 
C 76.984086 195.821667 90.903206 217.083941 110.141916 232.768048 
L 186.131101 139.556881 
L 186.131101 19.296007 
z
" style="fill: #0000ff; stroke: #000000; stroke-width: 2; stroke-linejoin: miter"/>
   </g>
   <g id="patch_3">
    <path d="M 110.141916 232.768048 
C 125.070022 244.937991 142.705559 253.345527 161.559465 257.280764 
C 180.413371 261.216 199.939635 260.564972 218.489551 255.382649 
C 237.039467 250.200326 254.075827 240.636789 268.160162 227.499538 
C 282.244497 214.362286 292.968922 198.031778 299.427918 179.886882 
C 305.886914 161.741986 307.893426 142.308183 305.278036 123.22637 
C 302.662645 104.144557 295.501094 85.967346 284.398068 70.229535 
C 273.295043 54.491725 258.572089 41.649083 241.472343 32.785983 
C 224.372597 23.922883 205.39127 19.296 186.131056 19.296007 
L 186.131101 139.556881 
L 110.141916 232.768048 
z
" style="fill: #ff0000; stroke: #000000; stroke-width: 2; stroke-linejoin: miter"/>
   </g>
   <g id="matplotlib.axis_1"/>
   <g id="matplotlib.axis_2"/>
  </g>
 </g>
</svg>
