<?xml version="1.0" encoding="utf-8" standalone="no"?>
<!DOCTYPE svg PUBLIC "-//W3C//DTD SVG 1.1//EN"
  "http://www.w3.org/Graphics/SVG/1.1/DTD/svg11.dtd">
<svg xmlns:xlink="http://www.w3.org/1999/xlink" width="789.81075pt" height="784.8081pt" viewBox="0 0 789.81075 784.8081" xmlns="http://www.w3.org/2000/svg" version="1.1">
 <metadata>
  <rdf:RDF xmlns:dc="http://purl.org/dc/elements/1.1/" xmlns:cc="http://creativecommons.org/ns#" xmlns:rdf="http://www.w3.org/1999/02/22-rdf-syntax-ns#">
   <cc:Work>
    <dc:type rdf:resource="http://purl.org/dc/dcmitype/StillImage"/>
    <dc:date>2022-01-14T17:05:43.352113</dc:date>
    <dc:format>image/svg+xml</dc:format>
    <dc:creator>
     <cc:Agent>
      <dc:title>Matplotlib v3.5.1, https://matplotlib.org/</dc:title>
     </cc:Agent>
    </dc:creator>
   </cc:Work>
  </rdf:RDF>
 </metadata>
 <defs>
  <style type="text/css">*{stroke-linejoin: round; stroke-linecap: butt}</style>
 </defs>
 <g id="figure_1">
  <g id="patch_1">
   <path d="M 0 784.8081 
L 789.81075 784.8081 
L 789.81075 0 
L 0 0 
L 0 784.8081 
z
" style="fill: none"/>
  </g>
  <g id="axes_1">
   <g id="patch_2">
    <path d="M 392.877268 42.21855 
C 344.03759 42.21855 295.743177 52.572945 251.158436 72.60328 
C 206.573695 92.633616 166.694149 121.89264 134.132836 158.463205 
C 101.571522 195.03377 77.055495 238.099302 62.191124 284.838005 
C 47.326754 331.576708 42.445943 380.944966 47.868499 429.708008 
C 53.291054 478.471051 68.895897 525.54006 93.660547 567.83092 
C 118.425197 610.121781 151.79669 646.69019 191.588416 675.140066 
C 231.380143 703.589942 276.703604 723.286035 324.589057 732.937793 
C 372.474511 742.58955 421.852734 741.98146 469.488305 731.153366 
L 392.877268 390.985255 
L 392.877268 42.21855 
z
" style="fill: #0000ff; stroke: #000000; stroke-linejoin: miter"/>
   </g>
   <g id="patch_3">
    <path d="M 469.488305 731.153366 
C 552.756539 712.225573 626.217716 663.088432 675.719053 593.208542 
C 725.220389 523.328652 747.364807 437.501587 737.886037 352.262502 
C 728.407267 267.023417 687.955799 188.221927 624.324877 131.039663 
C 560.693955 73.857399 478.250313 42.21855 392.877268 42.21855 
L 392.877268 390.985255 
L 469.488305 731.153366 
z
" style="fill: #ff0000; stroke: #000000; stroke-linejoin: miter"/>
   </g>
   <g id="matplotlib.axis_1"/>
   <g id="matplotlib.axis_2"/>
  </g>
 </g>
</svg>
