<?xml version="1.0" encoding="utf-8" standalone="no"?>
<!DOCTYPE svg PUBLIC "-//W3C//DTD SVG 1.1//EN"
  "http://www.w3.org/Graphics/SVG/1.1/DTD/svg11.dtd">
<svg xmlns:xlink="http://www.w3.org/1999/xlink" width="84.33135pt" height="83.88018pt" viewBox="0 0 84.33135 83.88018" xmlns="http://www.w3.org/2000/svg" version="1.1">
 <metadata>
  <rdf:RDF xmlns:dc="http://purl.org/dc/elements/1.1/" xmlns:cc="http://creativecommons.org/ns#" xmlns:rdf="http://www.w3.org/1999/02/22-rdf-syntax-ns#">
   <cc:Work>
    <dc:type rdf:resource="http://purl.org/dc/dcmitype/StillImage"/>
    <dc:date>2022-01-14T17:05:44.460561</dc:date>
    <dc:format>image/svg+xml</dc:format>
    <dc:creator>
     <cc:Agent>
      <dc:title>Matplotlib v3.5.1, https://matplotlib.org/</dc:title>
     </cc:Agent>
    </dc:creator>
   </cc:Work>
  </rdf:RDF>
 </metadata>
 <defs>
  <style type="text/css">*{stroke-linejoin: round; stroke-linecap: butt}</style>
 </defs>
 <g id="figure_1">
  <g id="patch_1">
   <path d="M 0 83.88018 
L 84.33135 83.88018 
L 84.33135 0 
L 0 0 
L 0 83.88018 
z
" style="fill: none"/>
  </g>
  <g id="axes_1">
   <g id="patch_2">
    <path d="M 42.034759 10.358191 
C 37.716468 10.358191 33.444164 11.24851 29.485139 12.973444 
C 25.526114 14.698379 21.96469 17.221191 19.023682 20.384045 
C 16.082675 23.546898 13.824724 27.282427 12.391096 31.356924 
C 10.957468 35.43142 10.378698 39.758103 10.690994 44.066277 
C 11.003291 48.374451 12.200003 52.572358 14.20626 56.397362 
C 16.212517 60.222366 18.985588 63.592999 22.35198 66.29838 
C 25.718372 69.003762 29.606384 70.986271 33.772767 72.121875 
C 37.939151 73.257479 42.295167 73.52199 46.568288 72.89886 
L 42.034759 41.792933 
L 42.034759 10.358191 
z
" style="fill: #0000ff; stroke: #000000; stroke-linejoin: miter"/>
   </g>
   <g id="patch_3">
    <path d="M 46.568288 72.89886 
C 54.42402 71.753295 61.561219 67.671659 66.533434 61.481152 
C 71.50565 55.290645 73.952652 47.439761 73.378524 39.519586 
C 72.804395 31.599411 69.25073 24.183752 63.437727 18.775491 
C 57.624724 13.367231 49.973527 10.35819 42.034753 10.358191 
L 42.034759 41.792933 
L 46.568288 72.89886 
z
" style="fill: #ff0000; stroke: #000000; stroke-linejoin: miter"/>
   </g>
   <g id="matplotlib.axis_1"/>
   <g id="matplotlib.axis_2"/>
  </g>
 </g>
</svg>
