<?xml version="1.0" encoding="utf-8" standalone="no"?>
<!DOCTYPE svg PUBLIC "-//W3C//DTD SVG 1.1//EN"
  "http://www.w3.org/Graphics/SVG/1.1/DTD/svg11.dtd">
<svg xmlns:xlink="http://www.w3.org/1999/xlink" width="371.52pt" height="280.512pt" viewBox="0 0 371.52 280.512" xmlns="http://www.w3.org/2000/svg" version="1.1">
 <metadata>
  <rdf:RDF xmlns:dc="http://purl.org/dc/elements/1.1/" xmlns:cc="http://creativecommons.org/ns#" xmlns:rdf="http://www.w3.org/1999/02/22-rdf-syntax-ns#">
   <cc:Work>
    <dc:type rdf:resource="http://purl.org/dc/dcmitype/StillImage"/>
    <dc:date>2021-12-03T16:09:57.838060</dc:date>
    <dc:format>image/svg+xml</dc:format>
    <dc:creator>
     <cc:Agent>
      <dc:title>Matplotlib v3.5.0, https://matplotlib.org/</dc:title>
     </cc:Agent>
    </dc:creator>
   </cc:Work>
  </rdf:RDF>
 </metadata>
 <defs>
  <style type="text/css">*{stroke-linejoin: round; stroke-linecap: butt}</style>
 </defs>
 <g id="figure_1">
  <g id="patch_1">
   <path d="M 0 280.512 
L 371.52 280.512 
L 371.52 0 
L 0 0 
L 0 280.512 
z
" style="fill: none"/>
  </g>
  <g id="axes_1">
   <g id="patch_2">
    <path d="M 185.258448 19.296006 
C 168.71464 19.296006 152.347014 22.705962 137.17959 29.312534 
C 122.012165 35.919106 108.36799 45.581583 97.100694 57.695443 
C 85.833399 69.809304 77.182963 84.116537 71.69059 99.72203 
C 66.198217 115.327523 63.980888 131.898897 65.177327 148.399384 
C 66.373766 164.899872 70.958492 180.978033 78.644665 195.627958 
C 86.330838 210.277884 96.954753 223.187547 109.851738 233.549271 
C 122.748724 243.910996 137.644089 251.504089 153.605925 255.8535 
C 169.56776 260.20291 186.256098 261.216 202.626854 258.829387 
L 185.258448 139.692382 
L 185.258448 19.296006 
z
" style="fill: #0000ff"/>
   </g>
   <g id="patch_3">
    <path d="M 202.626854 258.829387 
C 232.722955 254.441822 260.066281 238.808988 279.11534 215.099087 
C 298.1644 191.389186 307.539112 161.31997 305.339568 130.985369 
C 303.140023 100.650767 289.525575 72.248482 267.255374 51.534617 
C 244.985173 30.820752 215.672666 19.296 185.258425 19.296006 
L 185.258448 139.692382 
L 202.626854 258.829387 
z
" style="fill: #bf00bf"/>
   </g>
   <g id="matplotlib.axis_1"/>
   <g id="matplotlib.axis_2"/>
  </g>
 </g>
</svg>
