<?xml version="1.0" encoding="utf-8" standalone="no"?>
<!DOCTYPE svg PUBLIC "-//W3C//DTD SVG 1.1//EN"
  "http://www.w3.org/Graphics/SVG/1.1/DTD/svg11.dtd">
<svg xmlns:xlink="http://www.w3.org/1999/xlink" width="74.0502pt" height="73.66536pt" viewBox="0 0 74.0502 73.66536" xmlns="http://www.w3.org/2000/svg" version="1.1">
 <metadata>
  <rdf:RDF xmlns:dc="http://purl.org/dc/elements/1.1/" xmlns:cc="http://creativecommons.org/ns#" xmlns:rdf="http://www.w3.org/1999/02/22-rdf-syntax-ns#">
   <cc:Work>
    <dc:type rdf:resource="http://purl.org/dc/dcmitype/StillImage"/>
    <dc:date>2022-01-14T17:05:45.472103</dc:date>
    <dc:format>image/svg+xml</dc:format>
    <dc:creator>
     <cc:Agent>
      <dc:title>Matplotlib v3.5.1, https://matplotlib.org/</dc:title>
     </cc:Agent>
    </dc:creator>
   </cc:Work>
  </rdf:RDF>
 </metadata>
 <defs>
  <style type="text/css">*{stroke-linejoin: round; stroke-linecap: butt}</style>
 </defs>
 <g id="figure_1">
  <g id="patch_1">
   <path d="M 0 73.66536 
L 74.0502 73.66536 
L 74.0502 0 
L 0 0 
L 0 73.66536 
z
" style="fill: none"/>
  </g>
  <g id="axes_1">
   <g id="patch_2">
    <path d="M 36.864315 9.89388 
C 33.097672 9.89388 29.373326 10.694812 25.936692 12.243897 
C 22.500059 13.792983 19.42832 16.055432 16.923888 18.882161 
C 14.419457 21.70889 12.538578 25.036414 11.405194 28.645466 
C 10.271809 32.254517 9.911373 36.064043 10.347635 39.823013 
C 10.783897 43.581983 12.007061 47.205977 13.936525 50.45619 
C 15.865989 53.706404 18.458422 56.509842 21.542993 58.681773 
C 24.627564 60.853704 28.134999 62.345348 31.834175 63.058414 
C 35.533352 63.77148 39.341192 63.689953 43.006777 62.819206 
L 36.864315 36.716363 
L 36.864315 9.89388 
z
" style="fill: #0000ff; stroke: #000000; stroke-linejoin: miter"/>
   </g>
   <g id="patch_3">
    <path d="M 43.006777 62.819206 
C 49.374274 61.306628 54.971306 57.493609 58.726431 52.110076 
C 62.481555 46.726542 64.138827 40.139431 63.380995 33.609713 
C 62.623162 27.079996 59.501878 21.052733 54.61465 16.681722 
C 49.727423 12.310712 43.407361 9.89388 36.864315 9.89388 
L 36.864315 36.716363 
L 43.006777 62.819206 
z
" style="fill: #ff0000; stroke: #000000; stroke-linejoin: miter"/>
   </g>
   <g id="matplotlib.axis_1"/>
   <g id="matplotlib.axis_2"/>
  </g>
 </g>
</svg>
