<?xml version="1.0" encoding="utf-8" standalone="no"?>
<!DOCTYPE svg PUBLIC "-//W3C//DTD SVG 1.1//EN"
  "http://www.w3.org/Graphics/SVG/1.1/DTD/svg11.dtd">
<svg xmlns:xlink="http://www.w3.org/1999/xlink" width="93.78945pt" height="93.27726pt" viewBox="0 0 93.78945 93.27726" xmlns="http://www.w3.org/2000/svg" version="1.1">
 <metadata>
  <rdf:RDF xmlns:dc="http://purl.org/dc/elements/1.1/" xmlns:cc="http://creativecommons.org/ns#" xmlns:rdf="http://www.w3.org/1999/02/22-rdf-syntax-ns#">
   <cc:Work>
    <dc:type rdf:resource="http://purl.org/dc/dcmitype/StillImage"/>
    <dc:date>2022-01-14T17:05:46.459646</dc:date>
    <dc:format>image/svg+xml</dc:format>
    <dc:creator>
     <cc:Agent>
      <dc:title>Matplotlib v3.5.1, https://matplotlib.org/</dc:title>
     </cc:Agent>
    </dc:creator>
   </cc:Work>
  </rdf:RDF>
 </metadata>
 <defs>
  <style type="text/css">*{stroke-linejoin: round; stroke-linecap: butt}</style>
 </defs>
 <g id="figure_1">
  <g id="patch_1">
   <path d="M 0 93.27726 
L 93.78945 93.27726 
L 93.78945 0 
L 0 0 
L 0 93.27726 
z
" style="fill: none"/>
  </g>
  <g id="axes_1">
   <g id="patch_2">
    <path d="M 46.752385 10.78533 
C 41.858893 10.78533 37.01728 11.791544 32.529125 13.741296 
C 28.040969 15.691047 24.001435 18.542996 20.662139 22.119497 
C 17.322843 25.695997 14.75459 29.921217 13.117354 34.531971 
C 11.480117 39.142726 10.808611 44.041252 11.144664 48.922426 
C 11.480717 53.803601 12.817202 58.563927 15.070872 62.906889 
C 17.324543 67.249852 20.447613 71.083365 24.24555 74.168645 
C 28.043487 77.253925 32.435763 79.525554 37.148787 80.842033 
C 41.861812 82.158513 46.795654 82.49193 51.64299 81.821517 
L 46.752385 46.471721 
L 46.752385 10.78533 
z
" style="fill: #0000ff; stroke: #000000; stroke-linejoin: miter"/>
   </g>
   <g id="patch_3">
    <path d="M 51.64299 81.821517 
C 60.596647 80.583176 68.753844 75.989213 74.453648 68.975031 
C 80.153453 61.960849 82.980839 53.037177 82.360106 44.021016 
C 81.739373 35.004856 77.71572 26.552708 71.108425 20.385563 
C 64.501131 14.218418 55.791297 10.78533 46.752385 10.78533 
L 46.752385 46.471721 
L 51.64299 81.821517 
z
" style="fill: #ff0000; stroke: #000000; stroke-linejoin: miter"/>
   </g>
   <g id="matplotlib.axis_1"/>
   <g id="matplotlib.axis_2"/>
  </g>
 </g>
</svg>
