<?xml version="1.0" encoding="utf-8" standalone="no"?>
<!DOCTYPE svg PUBLIC "-//W3C//DTD SVG 1.1//EN"
  "http://www.w3.org/Graphics/SVG/1.1/DTD/svg11.dtd">
<svg xmlns:xlink="http://www.w3.org/1999/xlink" width="371.52pt" height="280.512pt" viewBox="0 0 371.52 280.512" xmlns="http://www.w3.org/2000/svg" version="1.1">
 <metadata>
  <rdf:RDF xmlns:dc="http://purl.org/dc/elements/1.1/" xmlns:cc="http://creativecommons.org/ns#" xmlns:rdf="http://www.w3.org/1999/02/22-rdf-syntax-ns#">
   <cc:Work>
    <dc:type rdf:resource="http://purl.org/dc/dcmitype/StillImage"/>
    <dc:date>2021-12-03T16:10:00.668147</dc:date>
    <dc:format>image/svg+xml</dc:format>
    <dc:creator>
     <cc:Agent>
      <dc:title>Matplotlib v3.5.0, https://matplotlib.org/</dc:title>
     </cc:Agent>
    </dc:creator>
   </cc:Work>
  </rdf:RDF>
 </metadata>
 <defs>
  <style type="text/css">*{stroke-linejoin: round; stroke-linecap: butt}</style>
 </defs>
 <g id="figure_1">
  <g id="patch_1">
   <path d="M 0 280.512 
L 371.52 280.512 
L 371.52 0 
L 0 0 
L 0 280.512 
z
" style="fill: none"/>
  </g>
  <g id="axes_1">
   <g id="patch_2">
    <path d="M 185.111107 19.296 
C 168.277501 19.296 151.629237 22.823823 136.242426 29.651437 
C 120.855614 36.479051 107.069079 46.45611 95.773956 58.937715 
C 84.478833 71.41932 75.923844 86.130622 70.661968 102.120711 
C 65.400092 118.1108 63.547197 135.027567 65.22305 151.777547 
C 66.898904 168.527526 72.066603 184.741875 80.392118 199.37253 
C 88.717634 214.003186 100.017633 226.727975 113.561707 236.724391 
C 127.105781 246.720808 142.595683 253.768727 159.030177 257.412585 
C 175.464671 261.056443 192.481861 261.216 208.981791 257.880943 
L 185.111107 139.782616 
L 185.111107 19.296 
z
" style="fill: #0000ff"/>
   </g>
   <g id="patch_3">
    <path d="M 208.981791 257.880943 
C 238.259311 251.96321 264.315215 235.364657 282.052883 211.332016 
C 299.790551 187.299375 307.972803 157.508893 304.999164 127.787685 
C 302.025525 98.066477 288.103402 70.487562 265.956008 50.445464 
C 243.808614 30.403367 214.980703 19.296 185.111107 19.296 
L 185.111107 139.782616 
L 208.981791 257.880943 
z
" style="fill: #bf00bf"/>
   </g>
   <g id="matplotlib.axis_1"/>
   <g id="matplotlib.axis_2"/>
  </g>
 </g>
</svg>
