<?xml version="1.0" encoding="utf-8" standalone="no"?>
<!DOCTYPE svg PUBLIC "-//W3C//DTD SVG 1.1//EN"
  "http://www.w3.org/Graphics/SVG/1.1/DTD/svg11.dtd">
<svg xmlns:xlink="http://www.w3.org/1999/xlink" width="371.52pt" height="280.512pt" viewBox="0 0 371.52 280.512" xmlns="http://www.w3.org/2000/svg" version="1.1">
 <metadata>
  <rdf:RDF xmlns:dc="http://purl.org/dc/elements/1.1/" xmlns:cc="http://creativecommons.org/ns#" xmlns:rdf="http://www.w3.org/1999/02/22-rdf-syntax-ns#">
   <cc:Work>
    <dc:type rdf:resource="http://purl.org/dc/dcmitype/StillImage"/>
    <dc:date>2021-12-10T18:14:47.528986</dc:date>
    <dc:format>image/svg+xml</dc:format>
    <dc:creator>
     <cc:Agent>
      <dc:title>Matplotlib v3.5.0, https://matplotlib.org/</dc:title>
     </cc:Agent>
    </dc:creator>
   </cc:Work>
  </rdf:RDF>
 </metadata>
 <defs>
  <style type="text/css">*{stroke-linejoin: round; stroke-linecap: butt}</style>
 </defs>
 <g id="figure_1">
  <g id="patch_1">
   <path d="M 0 280.512 
L 371.52 280.512 
L 371.52 0 
L 0 0 
L 0 280.512 
z
" style="fill: none"/>
  </g>
  <g id="axes_1">
   <g id="patch_2">
    <path d="M 186.010754 19.296 
C 154.741477 19.296 124.666916 31.461697 102.192046 53.202164 
C 79.717176 74.94263 66.559406 104.596577 65.520946 135.848605 
C 64.482486 167.100633 75.642689 197.562631 96.624768 220.747109 
C 117.606847 243.931588 146.807463 258.066914 178.007765 260.142688 
L 186.010754 139.852308 
L 186.010754 19.296 
z
" style="fill: #0000ff"/>
   </g>
   <g id="patch_3">
    <path d="M 178.007765 260.142688 
C 194.140378 261.216 210.325275 259.033014 225.597046 253.723941 
C 240.868816 248.414869 254.917651 240.087412 266.905555 229.238294 
C 278.89346 218.389175 288.577242 205.238484 295.379277 190.570644 
C 302.181311 175.902803 305.963609 160.01537 306.500561 143.856011 
C 307.037514 127.696651 304.318227 111.59318 298.504904 96.506149 
C 292.691581 81.419119 283.902153 67.654589 272.660898 56.0336 
C 261.419643 44.41261 247.954606 35.170906 233.068959 28.859746 
C 218.183313 22.548587 202.179032 19.296 186.010754 19.296 
L 186.010754 139.852308 
L 178.007765 260.142688 
z
" style="fill: #ff0000"/>
   </g>
   <g id="matplotlib.axis_1"/>
   <g id="matplotlib.axis_2"/>
  </g>
 </g>
</svg>
