<?xml version="1.0" encoding="utf-8" standalone="no"?>
<!DOCTYPE svg PUBLIC "-//W3C//DTD SVG 1.1//EN"
  "http://www.w3.org/Graphics/SVG/1.1/DTD/svg11.dtd">
<svg xmlns:xlink="http://www.w3.org/1999/xlink" width="214.8057pt" height="213.51276pt" viewBox="0 0 214.8057 213.51276" xmlns="http://www.w3.org/2000/svg" version="1.1">
 <metadata>
  <rdf:RDF xmlns:dc="http://purl.org/dc/elements/1.1/" xmlns:cc="http://creativecommons.org/ns#" xmlns:rdf="http://www.w3.org/1999/02/22-rdf-syntax-ns#">
   <cc:Work>
    <dc:type rdf:resource="http://purl.org/dc/dcmitype/StillImage"/>
    <dc:date>2022-01-14T17:05:47.425864</dc:date>
    <dc:format>image/svg+xml</dc:format>
    <dc:creator>
     <cc:Agent>
      <dc:title>Matplotlib v3.5.1, https://matplotlib.org/</dc:title>
     </cc:Agent>
    </dc:creator>
   </cc:Work>
  </rdf:RDF>
 </metadata>
 <defs>
  <style type="text/css">*{stroke-linejoin: round; stroke-linecap: butt}</style>
 </defs>
 <g id="figure_1">
  <g id="patch_1">
   <path d="M 0 213.51276 
L 214.8057 213.51276 
L 214.8057 0 
L 0 0 
L 0 213.51276 
z
" style="fill: none"/>
  </g>
  <g id="axes_1">
   <g id="patch_2">
    <path d="M 106.919186 16.25058 
C 94.371957 16.25058 81.962875 18.8902 70.49404 23.99882 
C 59.025204 29.10744 48.749164 36.572566 40.330142 45.911667 
C 31.911119 55.250769 25.534506 66.258194 21.612472 78.222445 
C 17.690438 90.186696 16.30935 102.844314 17.558478 115.377137 
C 18.807605 127.90996 22.659442 140.042009 28.865014 150.989092 
C 35.070586 161.936176 43.493242 171.457234 53.58856 178.936844 
C 63.683878 186.416455 75.229554 191.689913 87.479298 194.416354 
C 99.729042 197.142795 112.41311 197.26218 124.711628 194.766793 
L 106.919186 106.40218 
L 106.919186 16.25058 
z
" style="fill: #0000ff; stroke: #000000; stroke-linejoin: miter"/>
   </g>
   <g id="patch_3">
    <path d="M 124.711628 194.766793 
C 146.534151 190.338973 165.955385 177.919451 179.176473 159.937528 
C 192.397562 141.955605 198.49635 119.665497 196.279895 97.427223 
C 194.06344 75.188948 183.686336 54.5536 167.17838 39.557518 
C 150.670423 24.561436 129.183024 16.25058 106.919186 16.25058 
L 106.919186 106.40218 
L 124.711628 194.766793 
z
" style="fill: #ff0000; stroke: #000000; stroke-linejoin: miter"/>
   </g>
   <g id="matplotlib.axis_1"/>
   <g id="matplotlib.axis_2"/>
  </g>
 </g>
</svg>
