<?xml version="1.0" encoding="utf-8" standalone="no"?>
<!DOCTYPE svg PUBLIC "-//W3C//DTD SVG 1.1//EN"
  "http://www.w3.org/Graphics/SVG/1.1/DTD/svg11.dtd">
<svg xmlns:xlink="http://www.w3.org/1999/xlink" width="42.73245pt" height="42.54966pt" viewBox="0 0 42.73245 42.54966" xmlns="http://www.w3.org/2000/svg" version="1.1">
 <metadata>
  <rdf:RDF xmlns:dc="http://purl.org/dc/elements/1.1/" xmlns:cc="http://creativecommons.org/ns#" xmlns:rdf="http://www.w3.org/1999/02/22-rdf-syntax-ns#">
   <cc:Work>
    <dc:type rdf:resource="http://purl.org/dc/dcmitype/StillImage"/>
    <dc:date>2021-12-14T09:20:51.610901</dc:date>
    <dc:format>image/svg+xml</dc:format>
    <dc:creator>
     <cc:Agent>
      <dc:title>Matplotlib v3.5.0, https://matplotlib.org/</dc:title>
     </cc:Agent>
    </dc:creator>
   </cc:Work>
  </rdf:RDF>
 </metadata>
 <defs>
  <style type="text/css">*{stroke-linejoin: round; stroke-linecap: butt}</style>
 </defs>
 <g id="figure_1">
  <g id="patch_1">
   <path d="M 0 42.54966 
L 42.73245 42.54966 
L 42.73245 0 
L 0 0 
L 0 42.54966 
z
" style="fill: none"/>
  </g>
  <g id="axes_1">
   <g id="patch_2">
    <path d="M 21.268343 8.47953 
C 19.410678 8.47953 17.575307 8.885926 15.891286 9.670141 
C 14.207266 10.454355 12.715015 11.597567 11.519464 13.019389 
C 10.323913 14.44121 9.453757 16.107516 8.970183 17.901137 
C 8.486609 19.694757 8.401223 21.572643 8.720029 23.402747 
C 9.038835 25.232852 9.754182 26.971249 10.815768 28.495701 
C 11.877354 30.020153 13.2597 31.29407 14.865604 32.227875 
C 16.471507 33.161681 18.262424 33.732961 20.112424 33.901545 
C 21.962423 34.07013 23.827102 33.831973 25.575342 33.20382 
L 21.268343 21.216817 
L 21.268343 8.47953 
z
" style="fill: #0000ff"/>
   </g>
   <g id="patch_3">
    <path d="M 25.575342 33.20382 
C 28.397091 32.189949 30.772192 30.211569 32.279401 27.619557 
C 33.786611 25.027546 34.331227 21.98477 33.816658 19.030888 
C 33.302088 16.077005 31.760666 13.39762 29.465773 11.467939 
C 27.17088 9.538258 24.266712 8.479531 21.268346 8.47953 
L 21.268343 21.216817 
L 25.575342 33.20382 
z
" style="fill: #ff0000"/>
   </g>
   <g id="matplotlib.axis_1"/>
   <g id="matplotlib.axis_2"/>
  </g>
 </g>
</svg>
