<?xml version="1.0" encoding="utf-8" standalone="no"?>
<!DOCTYPE svg PUBLIC "-//W3C//DTD SVG 1.1//EN"
  "http://www.w3.org/Graphics/SVG/1.1/DTD/svg11.dtd">
<svg xmlns:xlink="http://www.w3.org/1999/xlink" width="176.9733pt" height="175.92444pt" viewBox="0 0 176.9733 175.92444" xmlns="http://www.w3.org/2000/svg" version="1.1">
 <metadata>
  <rdf:RDF xmlns:dc="http://purl.org/dc/elements/1.1/" xmlns:cc="http://creativecommons.org/ns#" xmlns:rdf="http://www.w3.org/1999/02/22-rdf-syntax-ns#">
   <cc:Work>
    <dc:type rdf:resource="http://purl.org/dc/dcmitype/StillImage"/>
    <dc:date>2022-01-14T17:05:50.299637</dc:date>
    <dc:format>image/svg+xml</dc:format>
    <dc:creator>
     <cc:Agent>
      <dc:title>Matplotlib v3.5.1, https://matplotlib.org/</dc:title>
     </cc:Agent>
    </dc:creator>
   </cc:Work>
  </rdf:RDF>
 </metadata>
 <defs>
  <style type="text/css">*{stroke-linejoin: round; stroke-linecap: butt}</style>
 </defs>
 <g id="figure_1">
  <g id="patch_1">
   <path d="M 0 175.92444 
L 176.9733 175.92444 
L 176.9733 0 
L 0 0 
L 0 175.92444 
z
" style="fill: none"/>
  </g>
  <g id="axes_1">
   <g id="patch_2">
    <path d="M 88.258321 14.54202 
C 78.319806 14.54202 68.484466 16.560509 59.352456 20.474318 
C 50.220446 24.388127 41.981369 30.115996 35.137977 37.308408 
C 28.294585 44.50082 22.988964 53.008442 19.544865 62.312137 
C 16.100765 71.615832 14.589695 81.522432 15.103862 91.427432 
C 15.618028 101.332431 18.146754 111.030179 22.535737 119.928915 
C 26.92472 128.82765 33.082834 136.742614 40.634307 143.190831 
C 48.185781 149.639048 56.973827 154.486638 66.462196 157.4378 
C 75.950565 160.388961 85.942255 161.38242 95.827569 160.357556 
L 88.258321 87.645448 
L 88.258321 14.54202 
z
" style="fill: #0000ff; stroke: #000000; stroke-linejoin: miter"/>
   </g>
   <g id="patch_3">
    <path d="M 95.827569 160.357556 
C 114.492555 158.422455 131.716956 149.401819 143.917014 135.172509 
C 156.117071 120.943198 162.383605 102.565619 161.41278 83.863464 
C 160.441956 65.161308 152.306123 47.528312 138.698045 34.633246 
C 125.089968 21.73818 107.023757 14.54202 88.258321 14.54202 
L 88.258321 87.645448 
L 95.827569 160.357556 
z
" style="fill: #ff0000; stroke: #000000; stroke-linejoin: miter"/>
   </g>
   <g id="matplotlib.axis_1"/>
   <g id="matplotlib.axis_2"/>
  </g>
 </g>
</svg>
