<?xml version="1.0" encoding="utf-8" standalone="no"?>
<!DOCTYPE svg PUBLIC "-//W3C//DTD SVG 1.1//EN"
  "http://www.w3.org/Graphics/SVG/1.1/DTD/svg11.dtd">
<svg xmlns:xlink="http://www.w3.org/1999/xlink" width="145.99035pt" height="145.14138pt" viewBox="0 0 145.99035 145.14138" xmlns="http://www.w3.org/2000/svg" version="1.1">
 <metadata>
  <rdf:RDF xmlns:dc="http://purl.org/dc/elements/1.1/" xmlns:cc="http://creativecommons.org/ns#" xmlns:rdf="http://www.w3.org/1999/02/22-rdf-syntax-ns#">
   <cc:Work>
    <dc:type rdf:resource="http://purl.org/dc/dcmitype/StillImage"/>
    <dc:date>2022-01-14T17:05:49.313956</dc:date>
    <dc:format>image/svg+xml</dc:format>
    <dc:creator>
     <cc:Agent>
      <dc:title>Matplotlib v3.5.1, https://matplotlib.org/</dc:title>
     </cc:Agent>
    </dc:creator>
   </cc:Work>
  </rdf:RDF>
 </metadata>
 <defs>
  <style type="text/css">*{stroke-linejoin: round; stroke-linecap: butt}</style>
 </defs>
 <g id="figure_1">
  <g id="patch_1">
   <path d="M 0 145.14138 
L 145.99035 145.14138 
L 145.99035 0 
L 0 0 
L 0 145.14138 
z
" style="fill: none"/>
  </g>
  <g id="axes_1">
   <g id="patch_2">
    <path d="M 72.862642 13.14279 
C 64.878838 13.14279 56.976279 14.745703 49.627847 17.855612 
C 42.279415 20.96552 35.634669 25.519131 30.091225 31.243959 
C 24.547781 36.968787 20.218461 43.748319 17.362328 51.176872 
C 14.506196 58.605425 13.18138 66.531811 13.467156 74.481722 
C 13.752932 82.431633 15.643484 90.243268 19.025683 97.449186 
C 22.407882 104.655104 27.212892 111.108648 33.153186 116.423641 
C 39.093479 121.738635 46.048157 125.806906 53.601056 128.385012 
C 61.153955 130.963119 69.151357 131.99859 77.114702 131.429464 
L 72.862642 72.362001 
L 72.862642 13.14279 
z
" style="fill: #0000ff; stroke: #000000; stroke-linejoin: miter"/>
   </g>
   <g id="patch_3">
    <path d="M 77.114702 131.429464 
C 92.464307 130.332456 106.80187 123.337045 117.083776 111.928236 
C 127.365681 100.519426 132.80897 85.56599 132.258128 70.242281 
C 131.707285 54.918572 125.204257 40.391479 114.129523 29.74485 
C 103.054789 19.098221 88.251681 13.14279 72.862642 13.14279 
L 72.862642 72.362001 
L 77.114702 131.429464 
z
" style="fill: #ff0000; stroke: #000000; stroke-linejoin: miter"/>
   </g>
   <g id="matplotlib.axis_1"/>
   <g id="matplotlib.axis_2"/>
  </g>
 </g>
</svg>
