<?xml version="1.0" encoding="utf-8" standalone="no"?>
<!DOCTYPE svg PUBLIC "-//W3C//DTD SVG 1.1//EN"
  "http://www.w3.org/Graphics/SVG/1.1/DTD/svg11.dtd">
<svg xmlns:xlink="http://www.w3.org/1999/xlink" width="371.52pt" height="280.512pt" viewBox="0 0 371.52 280.512" xmlns="http://www.w3.org/2000/svg" version="1.1">
 <metadata>
  <rdf:RDF xmlns:dc="http://purl.org/dc/elements/1.1/" xmlns:cc="http://creativecommons.org/ns#" xmlns:rdf="http://www.w3.org/1999/02/22-rdf-syntax-ns#">
   <cc:Work>
    <dc:type rdf:resource="http://purl.org/dc/dcmitype/StillImage"/>
    <dc:date>2021-12-03T16:10:03.467059</dc:date>
    <dc:format>image/svg+xml</dc:format>
    <dc:creator>
     <cc:Agent>
      <dc:title>Matplotlib v3.5.0, https://matplotlib.org/</dc:title>
     </cc:Agent>
    </dc:creator>
   </cc:Work>
  </rdf:RDF>
 </metadata>
 <defs>
  <style type="text/css">*{stroke-linejoin: round; stroke-linecap: butt}</style>
 </defs>
 <g id="figure_1">
  <g id="patch_1">
   <path d="M 0 280.512 
L 371.52 280.512 
L 371.52 0 
L 0 0 
L 0 280.512 
z
" style="fill: none"/>
  </g>
  <g id="axes_1">
   <g id="patch_2">
    <path d="M 185.384593 19.296 
C 169.044194 19.296 152.873428 22.621467 137.859043 29.069479 
C 122.844657 35.517491 109.298387 44.954172 98.046831 56.803692 
C 86.795275 68.653212 78.072043 82.669546 72.40943 97.997412 
C 66.746818 113.325277 64.262394 129.64643 65.107759 145.964947 
C 65.953125 162.283463 70.110728 178.260532 77.326871 192.921226 
C 84.543013 207.581919 94.667869 220.621845 107.083617 231.245302 
C 119.499365 241.868759 133.948223 249.855179 149.548516 254.717226 
C 165.148808 259.579273 181.576636 261.216 197.829565 259.527533 
L 185.384593 139.734117 
L 185.384593 19.296 
z
" style="fill: #0000ff"/>
   </g>
   <g id="patch_3">
    <path d="M 197.829565 259.527533 
C 228.517584 256.339448 256.837065 241.477925 276.895779 218.035092 
C 296.954492 194.59226 307.257606 164.315144 305.661426 133.503286 
C 304.065247 102.691429 290.688724 73.641014 268.315017 52.396355 
C 245.94131 31.151695 216.237767 19.296 185.384593 19.296 
L 185.384593 139.734117 
L 197.829565 259.527533 
z
" style="fill: #bf00bf"/>
   </g>
   <g id="matplotlib.axis_1"/>
   <g id="matplotlib.axis_2"/>
  </g>
 </g>
</svg>
