<?xml version="1.0" encoding="utf-8" standalone="no"?>
<!DOCTYPE svg PUBLIC "-//W3C//DTD SVG 1.1//EN"
  "http://www.w3.org/Graphics/SVG/1.1/DTD/svg11.dtd">
<svg xmlns:xlink="http://www.w3.org/1999/xlink" width="505.87245pt" height="502.70166pt" viewBox="0 0 505.87245 502.70166" xmlns="http://www.w3.org/2000/svg" version="1.1">
 <metadata>
  <rdf:RDF xmlns:dc="http://purl.org/dc/elements/1.1/" xmlns:cc="http://creativecommons.org/ns#" xmlns:rdf="http://www.w3.org/1999/02/22-rdf-syntax-ns#">
   <cc:Work>
    <dc:type rdf:resource="http://purl.org/dc/dcmitype/StillImage"/>
    <dc:date>2022-01-14T17:05:51.263269</dc:date>
    <dc:format>image/svg+xml</dc:format>
    <dc:creator>
     <cc:Agent>
      <dc:title>Matplotlib v3.5.1, https://matplotlib.org/</dc:title>
     </cc:Agent>
    </dc:creator>
   </cc:Work>
  </rdf:RDF>
 </metadata>
 <defs>
  <style type="text/css">*{stroke-linejoin: round; stroke-linecap: butt}</style>
 </defs>
 <g id="figure_1">
  <g id="patch_1">
   <path d="M 0 502.70166 
L 505.87245 502.70166 
L 505.87245 0 
L 0 0 
L 0 502.70166 
z
" style="fill: none"/>
  </g>
  <g id="axes_1">
   <g id="patch_2">
    <path d="M 251.260365 29.39554 
C 219.122533 29.39554 187.368442 36.408604 158.219979 49.944015 
C 129.071517 63.479426 103.224775 83.213947 82.488294 107.766719 
C 61.751814 132.319491 46.620801 161.104172 38.154 192.106648 
C 29.687198 223.109123 28.086802 255.589027 33.464794 287.273683 
C 38.842786 318.958339 51.070735 349.09109 69.29303 375.563494 
C 87.515325 402.035898 111.296801 424.215772 138.973428 440.55115 
C 166.650054 456.886528 197.560888 466.987307 229.543045 470.146719 
C 261.525202 473.30613 293.814918 469.448724 324.152828 458.84441 
L 251.260365 250.306173 
L 251.260365 29.39554 
z
" style="fill: #0000ff; stroke: #000000; stroke-linejoin: miter"/>
   </g>
   <g id="patch_3">
    <path d="M 324.152828 458.84441 
C 373.39819 441.631184 414.989297 407.518594 441.505348 362.593101 
C 468.021398 317.667608 477.785648 264.770081 469.055933 213.338642 
C 460.326217 161.907203 433.654561 115.194124 393.799795 81.534082 
C 353.945028 47.874039 303.427371 29.39553 251.260324 29.39554 
L 251.260365 250.306173 
L 324.152828 458.84441 
z
" style="fill: #ff0000; stroke: #000000; stroke-linejoin: miter"/>
   </g>
   <g id="matplotlib.axis_1"/>
   <g id="matplotlib.axis_2"/>
  </g>
 </g>
</svg>
