<?xml version="1.0" encoding="utf-8" standalone="no"?>
<!DOCTYPE svg PUBLIC "-//W3C//DTD SVG 1.1//EN"
  "http://www.w3.org/Graphics/SVG/1.1/DTD/svg11.dtd">
<svg xmlns:xlink="http://www.w3.org/1999/xlink" width="22.39335pt" height="22.34178pt" viewBox="0 0 22.39335 22.34178" xmlns="http://www.w3.org/2000/svg" version="1.1">
 <metadata>
  <rdf:RDF xmlns:dc="http://purl.org/dc/elements/1.1/" xmlns:cc="http://creativecommons.org/ns#" xmlns:rdf="http://www.w3.org/1999/02/22-rdf-syntax-ns#">
   <cc:Work>
    <dc:type rdf:resource="http://purl.org/dc/dcmitype/StillImage"/>
    <dc:date>2022-01-14T17:05:59.693834</dc:date>
    <dc:format>image/svg+xml</dc:format>
    <dc:creator>
     <cc:Agent>
      <dc:title>Matplotlib v3.5.1, https://matplotlib.org/</dc:title>
     </cc:Agent>
    </dc:creator>
   </cc:Work>
  </rdf:RDF>
 </metadata>
 <defs>
  <style type="text/css">*{stroke-linejoin: round; stroke-linecap: butt}</style>
 </defs>
 <g id="figure_1">
  <g id="patch_1">
   <path d="M 0 22.34178 
L 22.39335 22.34178 
L 22.39335 0 
L 0 0 
L 0 22.34178 
z
" style="fill: none"/>
  </g>
  <g id="axes_1">
   <g id="patch_2">
    <path d="M 11.216988 7.56099 
C 10.333944 7.56099 9.481386 7.889216 8.824509 8.482071 
C 8.167632 9.074926 7.751792 9.891473 7.657563 10.773496 
C 7.563334 11.655519 7.797223 12.542116 8.31391 13.261497 
C 8.830597 13.980877 9.594407 14.48337 10.457341 14.67161 
L 11.216988 11.15725 
L 11.216988 7.56099 
z
" style="fill: #0000ff; stroke: #000000; stroke-linejoin: miter"/>
   </g>
   <g id="patch_3">
    <path d="M 10.457341 14.67161 
C 10.948226 14.778692 11.456094 14.78079 11.947839 14.677768 
C 12.439584 14.574745 12.904283 14.368891 13.311641 14.073624 
C 13.719 13.778358 14.05997 13.400237 14.312324 12.963912 
C 14.564678 12.527587 14.72281 12.042749 14.776413 11.541005 
C 14.830016 11.039261 14.777898 10.531756 14.623457 10.051572 
C 14.469016 9.571389 14.215683 9.129195 13.879972 8.753815 
C 13.544261 8.378435 13.133628 8.078208 12.674844 7.872706 
C 12.216059 7.667203 11.719314 7.56099 11.216989 7.56099 
L 11.216988 11.15725 
L 10.457341 14.67161 
z
" style="fill: #ff0000; stroke: #000000; stroke-linejoin: miter"/>
   </g>
   <g id="matplotlib.axis_1"/>
   <g id="matplotlib.axis_2"/>
  </g>
 </g>
</svg>
