<?xml version="1.0" encoding="utf-8" standalone="no"?>
<!DOCTYPE svg PUBLIC "-//W3C//DTD SVG 1.1//EN"
  "http://www.w3.org/Graphics/SVG/1.1/DTD/svg11.dtd">
<svg xmlns:xlink="http://www.w3.org/1999/xlink" width="371.52pt" height="280.512pt" viewBox="0 0 371.52 280.512" xmlns="http://www.w3.org/2000/svg" version="1.1">
 <metadata>
  <rdf:RDF xmlns:dc="http://purl.org/dc/elements/1.1/" xmlns:cc="http://creativecommons.org/ns#" xmlns:rdf="http://www.w3.org/1999/02/22-rdf-syntax-ns#">
   <cc:Work>
    <dc:type rdf:resource="http://purl.org/dc/dcmitype/StillImage"/>
    <dc:date>2021-12-03T16:10:05.346303</dc:date>
    <dc:format>image/svg+xml</dc:format>
    <dc:creator>
     <cc:Agent>
      <dc:title>Matplotlib v3.5.0, https://matplotlib.org/</dc:title>
     </cc:Agent>
    </dc:creator>
   </cc:Work>
  </rdf:RDF>
 </metadata>
 <defs>
  <style type="text/css">*{stroke-linejoin: round; stroke-linecap: butt}</style>
 </defs>
 <g id="figure_1">
  <g id="patch_1">
   <path d="M 0 280.512 
L 371.52 280.512 
L 371.52 0 
L 0 0 
L 0 280.512 
z
" style="fill: none"/>
  </g>
  <g id="axes_1">
   <g id="patch_2">
    <path d="M 184.830636 19.296 
C 167.252783 19.296 149.886246 23.1448 133.954266 30.571302 
C 118.022287 37.997805 103.907924 48.823451 92.605347 62.28572 
C 81.30277 75.747988 73.083731 91.523199 68.527153 108.500198 
C 63.970575 125.477198 63.186014 143.247801 66.22873 160.560305 
C 69.271446 177.872809 76.068284 194.310962 86.140495 208.716915 
C 96.212706 223.122867 109.318121 235.150252 124.533637 243.951898 
C 139.749154 252.753544 156.708938 258.117831 174.2184 259.666915 
C 191.727862 261.216 209.366014 258.912637 225.890482 252.919068 
L 184.830636 139.71572 
L 184.830636 19.296 
z
" style="fill: #0000ff"/>
   </g>
   <g id="patch_3">
    <path d="M 225.890482 252.919068 
C 252.509382 243.26416 274.888433 224.523062 289.066812 200.012724 
C 303.24519 175.502385 308.333986 146.759476 303.432544 118.871146 
C 298.531103 90.982815 283.946717 65.697516 262.260649 47.490441 
C 240.574581 29.283367 213.146434 19.296005 184.830659 19.296 
L 184.830636 139.71572 
L 225.890482 252.919068 
z
" style="fill: #bf00bf"/>
   </g>
   <g id="matplotlib.axis_1"/>
   <g id="matplotlib.axis_2"/>
  </g>
 </g>
</svg>
