<?xml version="1.0" encoding="utf-8" standalone="no"?>
<!DOCTYPE svg PUBLIC "-//W3C//DTD SVG 1.1//EN"
  "http://www.w3.org/Graphics/SVG/1.1/DTD/svg11.dtd">
<svg xmlns:xlink="http://www.w3.org/1999/xlink" width="390.2409pt" height="387.81612pt" viewBox="0 0 390.2409 387.81612" xmlns="http://www.w3.org/2000/svg" version="1.1">
 <metadata>
  <rdf:RDF xmlns:dc="http://purl.org/dc/elements/1.1/" xmlns:cc="http://creativecommons.org/ns#" xmlns:rdf="http://www.w3.org/1999/02/22-rdf-syntax-ns#">
   <cc:Work>
    <dc:type rdf:resource="http://purl.org/dc/dcmitype/StillImage"/>
    <dc:date>2021-12-14T09:20:55.310157</dc:date>
    <dc:format>image/svg+xml</dc:format>
    <dc:creator>
     <cc:Agent>
      <dc:title>Matplotlib v3.5.0, https://matplotlib.org/</dc:title>
     </cc:Agent>
    </dc:creator>
   </cc:Work>
  </rdf:RDF>
 </metadata>
 <defs>
  <style type="text/css">*{stroke-linejoin: round; stroke-linecap: butt}</style>
 </defs>
 <g id="figure_1">
  <g id="patch_1">
   <path d="M 0 387.81612 
L 390.2409 387.81612 
L 390.2409 0 
L 0 0 
L 0 387.81612 
z
" style="fill: none"/>
  </g>
  <g id="axes_1">
   <g id="patch_2">
    <path d="M 193.81634 24.17346 
C 169.150584 24.17346 144.781352 29.574208 122.425134 39.995293 
C 100.068915 50.416378 80.263229 65.607241 64.403124 84.497889 
C 48.543018 103.388536 37.009823 125.524772 30.6159 149.347393 
C 24.221977 173.170014 23.121057 198.106242 27.390686 222.399653 
C 31.660314 246.693063 41.197834 269.759559 55.331455 289.974412 
C 69.465075 310.189265 87.854976 327.066442 109.205832 339.417168 
C 130.556688 351.767895 154.355153 359.295219 178.924941 361.468939 
C 203.494728 363.64266 228.245097 360.410514 251.432712 352.000163 
L 193.81634 193.149923 
L 193.81634 24.17346 
z
" style="fill: #0000ff"/>
   </g>
   <g id="patch_3">
    <path d="M 251.432712 352.000163 
C 288.785129 338.452114 320.188067 312.154059 340.083581 277.760437 
C 359.979095 243.366816 367.119843 203.033927 360.241997 163.900209 
C 353.36415 124.76649 332.898915 89.28542 302.468392 63.736722 
C 272.037869 38.188024 233.549892 24.173467 193.816371 24.17346 
L 193.81634 193.149923 
L 251.432712 352.000163 
z
" style="fill: #ff0000"/>
   </g>
   <g id="matplotlib.axis_1"/>
   <g id="matplotlib.axis_2"/>
  </g>
 </g>
</svg>
