<?xml version="1.0" encoding="utf-8" standalone="no"?>
<!DOCTYPE svg PUBLIC "-//W3C//DTD SVG 1.1//EN"
  "http://www.w3.org/Graphics/SVG/1.1/DTD/svg11.dtd">
<svg xmlns:xlink="http://www.w3.org/1999/xlink" width="371.52pt" height="280.512pt" viewBox="0 0 371.52 280.512" xmlns="http://www.w3.org/2000/svg" version="1.1">
 <metadata>
  <rdf:RDF xmlns:dc="http://purl.org/dc/elements/1.1/" xmlns:cc="http://creativecommons.org/ns#" xmlns:rdf="http://www.w3.org/1999/02/22-rdf-syntax-ns#">
   <cc:Work>
    <dc:type rdf:resource="http://purl.org/dc/dcmitype/StillImage"/>
    <dc:date>2021-12-10T18:14:53.161771</dc:date>
    <dc:format>image/svg+xml</dc:format>
    <dc:creator>
     <cc:Agent>
      <dc:title>Matplotlib v3.5.0, https://matplotlib.org/</dc:title>
     </cc:Agent>
    </dc:creator>
   </cc:Work>
  </rdf:RDF>
 </metadata>
 <defs>
  <style type="text/css">*{stroke-linejoin: round; stroke-linecap: butt}</style>
 </defs>
 <g id="figure_1">
  <g id="patch_1">
   <path d="M 0 280.512 
L 371.52 280.512 
L 371.52 0 
L 0 0 
L 0 280.512 
z
" style="fill: none"/>
  </g>
  <g id="axes_1">
   <g id="patch_2">
    <path d="M 186.509257 19.296003 
C 157.113442 19.296003 128.711579 30.060955 106.700751 49.545242 
C 84.689924 69.029529 70.558623 95.915517 66.99216 125.094179 
C 63.425697 154.27284 70.665254 183.770956 87.33513 207.983126 
C 104.005006 232.195296 128.977894 249.484163 157.508303 256.564397 
L 186.509257 139.702571 
L 186.509257 19.296003 
z
" style="fill: #0000ff"/>
   </g>
   <g id="patch_3">
    <path d="M 157.508303 256.564397 
C 174.051149 260.669743 191.27872 261.216 208.04842 258.166937 
C 224.81812 255.117874 240.750824 248.542424 254.789816 238.876694 
C 268.828809 229.210965 280.656699 216.673477 289.489018 202.095762 
C 298.321338 187.518048 303.958407 171.229676 306.026355 154.310952 
C 308.094303 137.392229 306.546379 120.225647 301.485245 103.949758 
C 296.424112 87.673869 287.964191 72.656634 276.666575 59.894053 
C 265.368959 47.131471 251.489062 36.912074 235.947449 29.913652 
C 220.405837 22.91523 203.553871 19.296 186.509234 19.296003 
L 186.509257 139.702571 
L 157.508303 256.564397 
z
" style="fill: #ff0000"/>
   </g>
   <g id="matplotlib.axis_1"/>
   <g id="matplotlib.axis_2"/>
  </g>
 </g>
</svg>
