<?xml version="1.0" encoding="utf-8" standalone="no"?>
<!DOCTYPE svg PUBLIC "-//W3C//DTD SVG 1.1//EN"
  "http://www.w3.org/Graphics/SVG/1.1/DTD/svg11.dtd">
<svg xmlns:xlink="http://www.w3.org/1999/xlink" width="108.04635pt" height="107.44218pt" viewBox="0 0 108.04635 107.44218" xmlns="http://www.w3.org/2000/svg" version="1.1">
 <metadata>
  <rdf:RDF xmlns:dc="http://purl.org/dc/elements/1.1/" xmlns:cc="http://creativecommons.org/ns#" xmlns:rdf="http://www.w3.org/1999/02/22-rdf-syntax-ns#">
   <cc:Work>
    <dc:type rdf:resource="http://purl.org/dc/dcmitype/StillImage"/>
    <dc:date>2022-01-14T17:05:53.143913</dc:date>
    <dc:format>image/svg+xml</dc:format>
    <dc:creator>
     <cc:Agent>
      <dc:title>Matplotlib v3.5.1, https://matplotlib.org/</dc:title>
     </cc:Agent>
    </dc:creator>
   </cc:Work>
  </rdf:RDF>
 </metadata>
 <defs>
  <style type="text/css">*{stroke-linejoin: round; stroke-linecap: butt}</style>
 </defs>
 <g id="figure_1">
  <g id="patch_1">
   <path d="M 0 107.44218 
L 108.04635 107.44218 
L 108.04635 0 
L 0 0 
L 0 107.44218 
z
" style="fill: none"/>
  </g>
  <g id="axes_1">
   <g id="patch_2">
    <path d="M 53.793668 11.42919 
C 47.92429 11.42919 42.119698 12.665859 36.756006 15.059065 
C 31.392314 17.452271 26.587929 20.949183 22.654157 25.323214 
C 18.720386 29.697246 15.744067 34.851837 13.918056 40.45299 
C 12.092045 46.054143 11.456652 51.97821 12.053048 57.841333 
C 12.649444 63.704456 14.464462 69.377203 17.380498 74.492002 
C 20.296533 79.606802 24.249212 84.050741 28.982416 87.535869 
C 33.71562 91.020997 39.124861 93.470379 44.85964 94.725303 
C 50.594419 95.980227 56.528138 96.01299 62.276314 94.82147 
L 53.793668 53.560329 
L 53.793668 11.42919 
z
" style="fill: #0000ff; stroke: #000000; stroke-linejoin: miter"/>
   </g>
   <g id="patch_3">
    <path d="M 62.276314 94.82147 
C 72.448563 92.712898 81.487338 86.884802 87.629412 78.47409 
C 93.771486 70.063378 96.589698 59.654989 95.534287 49.279324 
C 94.478877 38.90366 89.623245 29.282316 81.914598 22.292163 
C 74.205951 15.302009 64.1804 11.42919 53.793668 11.42919 
L 53.793668 53.560329 
L 62.276314 94.82147 
z
" style="fill: #ff0000; stroke: #000000; stroke-linejoin: miter"/>
   </g>
   <g id="matplotlib.axis_1"/>
   <g id="matplotlib.axis_2"/>
  </g>
 </g>
</svg>
