<?xml version="1.0" encoding="utf-8" standalone="no"?>
<!DOCTYPE svg PUBLIC "-//W3C//DTD SVG 1.1//EN"
  "http://www.w3.org/Graphics/SVG/1.1/DTD/svg11.dtd">
<svg xmlns:xlink="http://www.w3.org/1999/xlink" width="371.52pt" height="280.512pt" viewBox="0 0 371.52 280.512" xmlns="http://www.w3.org/2000/svg" version="1.1">
 <metadata>
  <rdf:RDF xmlns:dc="http://purl.org/dc/elements/1.1/" xmlns:cc="http://creativecommons.org/ns#" xmlns:rdf="http://www.w3.org/1999/02/22-rdf-syntax-ns#">
   <cc:Work>
    <dc:type rdf:resource="http://purl.org/dc/dcmitype/StillImage"/>
    <dc:date>2021-12-03T16:10:06.308409</dc:date>
    <dc:format>image/svg+xml</dc:format>
    <dc:creator>
     <cc:Agent>
      <dc:title>Matplotlib v3.5.0, https://matplotlib.org/</dc:title>
     </cc:Agent>
    </dc:creator>
   </cc:Work>
  </rdf:RDF>
 </metadata>
 <defs>
  <style type="text/css">*{stroke-linejoin: round; stroke-linecap: butt}</style>
 </defs>
 <g id="figure_1">
  <g id="patch_1">
   <path d="M 0 280.512 
L 371.52 280.512 
L 371.52 0 
L 0 0 
L 0 280.512 
z
" style="fill: none"/>
  </g>
  <g id="axes_1">
   <g id="patch_2">
    <path d="M 185.100869 19.296 
C 168.244375 19.296 151.573939 22.833024 136.169743 29.677886 
C 120.765547 36.522747 106.967646 46.524343 95.670094 59.034607 
C 84.372542 71.54487 75.824737 86.287631 70.580545 102.307614 
C 65.336353 118.327596 63.511543 135.271151 65.224355 152.040398 
C 66.937167 168.809646 72.14979 185.034396 80.524466 199.663347 
C 88.899142 214.292297 100.250995 227.002506 113.844468 236.970398 
C 127.43794 246.938291 142.97295 253.943821 159.442885 257.533057 
C 175.912821 261.122293 192.9541 261.216 209.462511 257.808106 
L 185.100869 139.796203 
L 185.100869 19.296 
z
" style="fill: #0000ff"/>
   </g>
   <g id="patch_3">
    <path d="M 209.462511 257.808106 
C 238.67659 251.777334 264.635402 235.108268 282.275064 211.052604 
C 299.914726 186.996941 308.008457 157.227675 304.977383 127.552008 
C 301.946308 97.876341 288.00123 70.358121 265.862465 50.365428 
C 243.723701 30.372736 214.930931 19.296 185.100869 19.296 
L 185.100869 139.796203 
L 209.462511 257.808106 
z
" style="fill: #bf00bf"/>
   </g>
   <g id="matplotlib.axis_1"/>
   <g id="matplotlib.axis_2"/>
  </g>
 </g>
</svg>
