<?xml version="1.0" encoding="utf-8" standalone="no"?>
<!DOCTYPE svg PUBLIC "-//W3C//DTD SVG 1.1//EN"
  "http://www.w3.org/Graphics/SVG/1.1/DTD/svg11.dtd">
<svg xmlns:xlink="http://www.w3.org/1999/xlink" width="371.52pt" height="280.512pt" viewBox="0 0 371.52 280.512" xmlns="http://www.w3.org/2000/svg" version="1.1">
 <metadata>
  <rdf:RDF xmlns:dc="http://purl.org/dc/elements/1.1/" xmlns:cc="http://creativecommons.org/ns#" xmlns:rdf="http://www.w3.org/1999/02/22-rdf-syntax-ns#">
   <cc:Work>
    <dc:type rdf:resource="http://purl.org/dc/dcmitype/StillImage"/>
    <dc:date>2021-12-03T16:10:07.280954</dc:date>
    <dc:format>image/svg+xml</dc:format>
    <dc:creator>
     <cc:Agent>
      <dc:title>Matplotlib v3.5.0, https://matplotlib.org/</dc:title>
     </cc:Agent>
    </dc:creator>
   </cc:Work>
  </rdf:RDF>
 </metadata>
 <defs>
  <style type="text/css">*{stroke-linejoin: round; stroke-linecap: butt}</style>
 </defs>
 <g id="figure_1">
  <g id="patch_1">
   <path d="M 0 280.512 
L 371.52 280.512 
L 371.52 0 
L 0 0 
L 0 280.512 
z
" style="fill: none"/>
  </g>
  <g id="axes_1">
   <g id="patch_2">
    <path d="M 185.016203 19.296006 
C 167.98367 19.296006 151.143376 22.9099 135.610554 29.898362 
C 120.077732 36.886823 106.203005 47.092102 94.905216 59.83836 
C 83.607427 72.584619 75.1416 87.584137 70.068378 103.843583 
C 64.995157 120.103029 63.429058 137.255378 65.473797 154.16473 
C 67.518535 171.074083 73.127954 187.358743 81.930574 201.940274 
C 90.733194 216.521804 102.530315 229.071055 116.54068 238.756963 
C 130.551046 248.442871 146.4584 255.046796 163.209292 258.131398 
C 179.960184 261.216 197.176496 260.71165 213.718091 256.651749 
L 185.016203 139.709244 
L 185.016203 19.296006 
z
" style="fill: #0000ff"/>
   </g>
   <g id="patch_3">
    <path d="M 213.718091 256.651749 
C 242.294069 249.638179 267.331302 232.387985 284.063926 208.184762 
C 300.796549 183.981539 308.090942 154.465033 304.558608 125.253746 
C 301.026274 96.042459 286.906525 69.115428 264.887073 49.598246 
C 242.867621 30.081063 214.440264 19.296 185.01618 19.296006 
L 185.016203 139.709244 
L 213.718091 256.651749 
z
" style="fill: #bf00bf"/>
   </g>
   <g id="matplotlib.axis_1"/>
   <g id="matplotlib.axis_2"/>
  </g>
 </g>
</svg>
