<?xml version="1.0" encoding="utf-8" standalone="no"?>
<!DOCTYPE svg PUBLIC "-//W3C//DTD SVG 1.1//EN"
  "http://www.w3.org/Graphics/SVG/1.1/DTD/svg11.dtd">
<svg xmlns:xlink="http://www.w3.org/1999/xlink" width="165.35295pt" height="164.37906pt" viewBox="0 0 165.35295 164.37906" xmlns="http://www.w3.org/2000/svg" version="1.1">
 <metadata>
  <rdf:RDF xmlns:dc="http://purl.org/dc/elements/1.1/" xmlns:cc="http://creativecommons.org/ns#" xmlns:rdf="http://www.w3.org/1999/02/22-rdf-syntax-ns#">
   <cc:Work>
    <dc:type rdf:resource="http://purl.org/dc/dcmitype/StillImage"/>
    <dc:date>2021-12-14T09:20:57.141209</dc:date>
    <dc:format>image/svg+xml</dc:format>
    <dc:creator>
     <cc:Agent>
      <dc:title>Matplotlib v3.5.0, https://matplotlib.org/</dc:title>
     </cc:Agent>
    </dc:creator>
   </cc:Work>
  </rdf:RDF>
 </metadata>
 <defs>
  <style type="text/css">*{stroke-linejoin: round; stroke-linecap: butt}</style>
 </defs>
 <g id="figure_1">
  <g id="patch_1">
   <path d="M -0 164.37906 
L 165.35295 164.37906 
L 165.35295 0 
L -0 0 
L -0 164.37906 
z
" style="fill: none"/>
  </g>
  <g id="axes_1">
   <g id="patch_2">
    <path d="M 82.259282 14.017233 
C 72.705797 14.017233 63.260137 16.054001 54.547834 19.992655 
C 45.835531 23.931308 38.053248 29.682939 31.716359 36.866651 
C 25.379471 44.050363 20.631019 52.503997 17.785468 61.667719 
C 14.939917 70.831441 14.061498 80.498398 15.208384 90.028404 
C 16.35527 99.558409 19.501572 108.736342 24.43893 116.954401 
C 29.376288 125.172461 35.993249 132.24514 43.851612 137.704057 
C 51.709975 143.162975 60.632352 146.884905 70.027866 148.623368 
C 79.42338 150.36183 89.079946 150.077582 98.358066 147.789447 
L 82.259282 81.881382 
L 82.259282 14.017233 
z
" style="fill: #0000ff"/>
   </g>
   <g id="patch_3">
    <path d="M 98.358066 147.789447 
C 114.386227 143.836642 128.42952 134.114541 137.814787 120.473756 
C 147.200054 106.83297 151.291452 90.197652 149.310179 73.734353 
C 147.328906 57.271055 139.409191 42.095148 127.058561 31.095386 
C 114.707931 20.095624 98.76313 14.01723 82.259269 14.017233 
L 82.259282 81.881382 
L 98.358066 147.789447 
z
" style="fill: #ff0000"/>
   </g>
   <g id="matplotlib.axis_1"/>
   <g id="matplotlib.axis_2"/>
  </g>
 </g>
</svg>
