<?xml version="1.0" encoding="utf-8" standalone="no"?>
<!DOCTYPE svg PUBLIC "-//W3C//DTD SVG 1.1//EN"
  "http://www.w3.org/Graphics/SVG/1.1/DTD/svg11.dtd">
<svg xmlns:xlink="http://www.w3.org/1999/xlink" width="372.1617pt" height="369.85356pt" viewBox="0 0 372.1617 369.85356" xmlns="http://www.w3.org/2000/svg" version="1.1">
 <metadata>
  <rdf:RDF xmlns:dc="http://purl.org/dc/elements/1.1/" xmlns:cc="http://creativecommons.org/ns#" xmlns:rdf="http://www.w3.org/1999/02/22-rdf-syntax-ns#">
   <cc:Work>
    <dc:type rdf:resource="http://purl.org/dc/dcmitype/StillImage"/>
    <dc:date>2022-01-14T17:05:55.010186</dc:date>
    <dc:format>image/svg+xml</dc:format>
    <dc:creator>
     <cc:Agent>
      <dc:title>Matplotlib v3.5.1, https://matplotlib.org/</dc:title>
     </cc:Agent>
    </dc:creator>
   </cc:Work>
  </rdf:RDF>
 </metadata>
 <defs>
  <style type="text/css">*{stroke-linejoin: round; stroke-linecap: butt}</style>
 </defs>
 <g id="figure_1">
  <g id="patch_1">
   <path d="M 0 369.85356 
L 372.1617 369.85356 
L 372.1617 0 
L 0 0 
L 0 369.85356 
z
" style="fill: none"/>
  </g>
  <g id="axes_1">
   <g id="patch_2">
    <path d="M 185.151957 23.35698 
C 162.631472 23.35698 140.362072 28.128183 119.800984 37.358381 
C 99.239896 46.588578 80.8456 60.07195 65.821748 76.926196 
C 50.797897 93.780442 39.479499 113.629738 32.607189 135.175222 
C 25.734878 156.720705 23.461895 179.481945 25.936977 201.969532 
C 28.412059 224.457119 35.580015 246.169614 46.9718 265.686234 
C 58.363585 285.202855 73.725181 302.088409 92.051382 315.237971 
C 110.377583 328.387533 131.259744 337.507888 153.331416 342.002234 
C 175.403087 346.49658 198.172104 346.2647 220.148549 341.321768 
L 185.151957 184.283168 
L 185.151957 23.35698 
z
" style="fill: #0000ff; stroke: #000000; stroke-linejoin: miter"/>
   </g>
   <g id="patch_3">
    <path d="M 220.148549 341.321768 
C 258.620416 332.668692 292.590299 310.044471 315.503891 277.814328 
C 338.417483 245.584184 348.699805 205.963475 344.366937 166.596805 
C 340.03407 127.230134 321.383835 90.823393 292.014697 64.401065 
C 262.645558 37.978738 224.57622 23.35698 185.151957 23.35698 
L 185.151957 184.283168 
L 220.148549 341.321768 
z
" style="fill: #ff0000; stroke: #000000; stroke-linejoin: miter"/>
   </g>
   <g id="matplotlib.axis_1"/>
   <g id="matplotlib.axis_2"/>
  </g>
 </g>
</svg>
