<?xml version="1.0" encoding="utf-8" standalone="no"?>
<!DOCTYPE svg PUBLIC "-//W3C//DTD SVG 1.1//EN"
  "http://www.w3.org/Graphics/SVG/1.1/DTD/svg11.dtd">
<svg xmlns:xlink="http://www.w3.org/1999/xlink" width="19.77075pt" height="19.7361pt" viewBox="0 0 19.77075 19.7361" xmlns="http://www.w3.org/2000/svg" version="1.1">
 <metadata>
  <rdf:RDF xmlns:dc="http://purl.org/dc/elements/1.1/" xmlns:cc="http://creativecommons.org/ns#" xmlns:rdf="http://www.w3.org/1999/02/22-rdf-syntax-ns#">
   <cc:Work>
    <dc:type rdf:resource="http://purl.org/dc/dcmitype/StillImage"/>
    <dc:date>2021-12-14T09:21:03.630053</dc:date>
    <dc:format>image/svg+xml</dc:format>
    <dc:creator>
     <cc:Agent>
      <dc:title>Matplotlib v3.5.0, https://matplotlib.org/</dc:title>
     </cc:Agent>
    </dc:creator>
   </cc:Work>
  </rdf:RDF>
 </metadata>
 <defs>
  <style type="text/css">*{stroke-linejoin: round; stroke-linecap: butt}</style>
 </defs>
 <g id="figure_1">
  <g id="patch_1">
   <path d="M -0 19.7361 
L 19.77075 19.7361 
L 19.77075 0 
L -0 0 
L -0 19.7361 
z
" style="fill: none"/>
  </g>
  <g id="axes_1">
   <g id="patch_2">
    <path d="M 9.882186 7.44255 
C 9.558649 7.44255 9.23834 7.506794 8.940066 7.631509 
C 8.641791 7.756225 8.371505 7.938923 8.145075 8.168877 
C 7.918645 8.398831 7.74059 8.671452 7.621365 8.970734 
C 7.502141 9.270015 7.444125 9.589984 7.450725 9.911855 
C 7.457324 10.233725 7.528408 10.551073 7.659801 10.845267 
C 7.791195 11.13946 7.980276 11.404627 8.215944 11.6252 
C 8.451612 11.845773 8.729162 12.017349 9.032301 12.129855 
C 9.335439 12.24236 9.658115 12.29355 9.981383 12.280419 
L 9.882186 9.862491 
L 9.882186 7.44255 
z
" style="fill: #0000ff"/>
   </g>
   <g id="patch_3">
    <path d="M 9.981383 12.280419 
C 10.617028 12.254598 11.217785 11.981598 11.653655 11.520494 
C 12.089525 11.059389 12.326625 10.446025 12.313648 9.813128 
C 12.300671 9.180231 12.038626 8.577 11.584217 8.13397 
C 11.129809 7.69094 10.518361 7.44255 9.882186 7.44255 
L 9.882186 9.862491 
L 9.981383 12.280419 
z
" style="fill: #ff0000"/>
   </g>
   <g id="matplotlib.axis_1"/>
   <g id="matplotlib.axis_2"/>
  </g>
 </g>
</svg>
