<?xml version="1.0" encoding="utf-8" standalone="no"?>
<!DOCTYPE svg PUBLIC "-//W3C//DTD SVG 1.1//EN"
  "http://www.w3.org/Graphics/SVG/1.1/DTD/svg11.dtd">
<svg xmlns:xlink="http://www.w3.org/1999/xlink" width="126.68355pt" height="125.95914pt" viewBox="0 0 126.68355 125.95914" xmlns="http://www.w3.org/2000/svg" version="1.1">
 <metadata>
  <rdf:RDF xmlns:dc="http://purl.org/dc/elements/1.1/" xmlns:cc="http://creativecommons.org/ns#" xmlns:rdf="http://www.w3.org/1999/02/22-rdf-syntax-ns#">
   <cc:Work>
    <dc:type rdf:resource="http://purl.org/dc/dcmitype/StillImage"/>
    <dc:date>2021-12-14T09:20:58.959173</dc:date>
    <dc:format>image/svg+xml</dc:format>
    <dc:creator>
     <cc:Agent>
      <dc:title>Matplotlib v3.5.0, https://matplotlib.org/</dc:title>
     </cc:Agent>
    </dc:creator>
   </cc:Work>
  </rdf:RDF>
 </metadata>
 <defs>
  <style type="text/css">*{stroke-linejoin: round; stroke-linecap: butt}</style>
 </defs>
 <g id="figure_1">
  <g id="patch_1">
   <path d="M 0 125.95914 
L 126.68355 125.95914 
L 126.68355 0 
L 0 0 
L 0 125.95914 
z
" style="fill: none"/>
  </g>
  <g id="axes_1">
   <g id="patch_2">
    <path d="M 62.923365 12.27087 
C 55.404918 12.27087 47.980147 13.946698 41.190606 17.176121 
C 34.401065 20.405543 28.415941 25.108087 23.671783 30.940755 
C 18.927625 36.773422 15.542652 43.590869 13.763759 50.895838 
C 11.984867 58.200808 11.856383 65.811269 13.38768 73.172123 
C 14.918976 80.532977 18.071895 87.4608 22.616465 93.450284 
C 27.161036 99.439768 32.984012 104.341663 39.660674 107.798429 
C 46.337335 111.255195 53.701307 113.180694 61.215469 113.434482 
C 68.729631 113.68827 76.20674 112.264023 83.101422 109.265625 
L 62.923365 62.867093 
L 62.923365 12.27087 
z
" style="fill: #0000ff"/>
   </g>
   <g id="patch_3">
    <path d="M 83.101422 109.265625 
C 93.763899 104.628666 102.508886 96.455098 107.8547 86.129786 
C 113.200514 75.804473 114.827167 63.945469 112.459051 52.562067 
C 110.090935 41.178665 103.869801 30.952254 94.849709 23.615515 
C 85.829616 16.278776 74.550489 12.270872 62.923374 12.27087 
L 62.923365 62.867093 
L 83.101422 109.265625 
z
" style="fill: #ff0000"/>
   </g>
   <g id="matplotlib.axis_1"/>
   <g id="matplotlib.axis_2"/>
  </g>
 </g>
</svg>
