<?xml version="1.0" encoding="utf-8" standalone="no"?>
<!DOCTYPE svg PUBLIC "-//W3C//DTD SVG 1.1//EN"
  "http://www.w3.org/Graphics/SVG/1.1/DTD/svg11.dtd">
<svg xmlns:xlink="http://www.w3.org/1999/xlink" width="371.52pt" height="280.512pt" viewBox="0 0 371.52 280.512" xmlns="http://www.w3.org/2000/svg" version="1.1">
 <metadata>
  <rdf:RDF xmlns:dc="http://purl.org/dc/elements/1.1/" xmlns:cc="http://creativecommons.org/ns#" xmlns:rdf="http://www.w3.org/1999/02/22-rdf-syntax-ns#">
   <cc:Work>
    <dc:type rdf:resource="http://purl.org/dc/dcmitype/StillImage"/>
    <dc:date>2021-12-03T16:10:09.212643</dc:date>
    <dc:format>image/svg+xml</dc:format>
    <dc:creator>
     <cc:Agent>
      <dc:title>Matplotlib v3.5.0, https://matplotlib.org/</dc:title>
     </cc:Agent>
    </dc:creator>
   </cc:Work>
  </rdf:RDF>
 </metadata>
 <defs>
  <style type="text/css">*{stroke-linejoin: round; stroke-linecap: butt}</style>
 </defs>
 <g id="figure_1">
  <g id="patch_1">
   <path d="M 0 280.512 
L 371.52 280.512 
L 371.52 0 
L 0 0 
L 0 280.512 
z
" style="fill: none"/>
  </g>
  <g id="axes_1">
   <g id="patch_2">
    <path d="M 184.761929 19.296 
C 166.827505 19.296 149.116534 23.293502 132.920834 30.996933 
C 116.725134 38.700364 102.448282 49.917763 91.131618 63.830946 
C 79.814953 77.744129 71.740474 94.006396 67.497122 111.431593 
C 63.253771 128.856791 62.947287 147.010705 66.600026 164.569209 
C 70.252765 182.127713 77.773704 198.653269 88.614274 212.940521 
C 99.454845 227.227774 113.344912 238.920702 129.27135 247.166435 
C 145.197789 255.412168 162.76373 260.005233 180.687933 260.610616 
C 198.612136 261.216 216.447952 257.818617 232.894455 250.666268 
L 184.761929 139.987698 
L 184.761929 19.296 
z
" style="fill: #0000ff"/>
   </g>
   <g id="patch_3">
    <path d="M 232.894455 250.666268 
C 258.328616 239.605315 279.188814 220.108173 291.940663 195.478281 
C 304.692512 170.84839 308.572713 142.560044 302.923834 115.406198 
C 297.274955 88.252351 282.435127 63.858377 260.918693 46.357398 
C 239.40226 28.856418 212.49715 19.296005 184.761951 19.296 
L 184.761929 139.987698 
L 232.894455 250.666268 
z
" style="fill: #bf00bf"/>
   </g>
   <g id="matplotlib.axis_1"/>
   <g id="matplotlib.axis_2"/>
  </g>
 </g>
</svg>
