<?xml version="1.0" encoding="utf-8" standalone="no"?>
<!DOCTYPE svg PUBLIC "-//W3C//DTD SVG 1.1//EN"
  "http://www.w3.org/Graphics/SVG/1.1/DTD/svg11.dtd">
<svg xmlns:xlink="http://www.w3.org/1999/xlink" width="43.15095pt" height="42.96546pt" viewBox="0 0 43.15095 42.96546" xmlns="http://www.w3.org/2000/svg" version="1.1">
 <metadata>
  <rdf:RDF xmlns:dc="http://purl.org/dc/elements/1.1/" xmlns:cc="http://creativecommons.org/ns#" xmlns:rdf="http://www.w3.org/1999/02/22-rdf-syntax-ns#">
   <cc:Work>
    <dc:type rdf:resource="http://purl.org/dc/dcmitype/StillImage"/>
    <dc:date>2021-12-14T09:20:59.835065</dc:date>
    <dc:format>image/svg+xml</dc:format>
    <dc:creator>
     <cc:Agent>
      <dc:title>Matplotlib v3.5.0, https://matplotlib.org/</dc:title>
     </cc:Agent>
    </dc:creator>
   </cc:Work>
  </rdf:RDF>
 </metadata>
 <defs>
  <style type="text/css">*{stroke-linejoin: round; stroke-linecap: butt}</style>
 </defs>
 <g id="figure_1">
  <g id="patch_1">
   <path d="M 0 42.96546 
L 43.15095 42.96546 
L 43.15095 0 
L 0 0 
L 0 42.96546 
z
" style="fill: none"/>
  </g>
  <g id="axes_1">
   <g id="patch_2">
    <path d="M 21.469249 8.49843 
C 19.550043 8.49843 17.654622 8.925081 15.920521 9.747424 
C 14.18642 10.569766 12.656622 11.767418 11.442132 13.253476 
C 10.227641 14.739533 9.358562 16.477161 8.897955 18.340275 
C 8.437348 20.20339 8.39663 22.145809 8.778757 24.026589 
C 9.160883 25.907369 9.956382 27.67989 11.107531 29.215537 
C 12.258679 30.751183 13.736944 32.011891 15.43506 32.906181 
C 17.133177 33.800471 19.009053 34.306177 20.926574 34.386603 
C 22.844094 34.46703 24.755729 34.120184 26.522768 33.371233 
L 21.469249 21.448205 
L 21.469249 8.49843 
z
" style="fill: #0000ff"/>
   </g>
   <g id="patch_3">
    <path d="M 26.522768 33.371233 
C 29.272232 32.205886 31.535735 30.124616 32.927226 27.482393 
C 34.318717 24.84017 34.75432 21.796263 34.159741 18.86982 
C 33.565163 15.943378 31.976243 13.310801 29.663978 11.421087 
C 27.351713 9.531373 24.455482 8.49843 21.469249 8.49843 
L 21.469249 21.448205 
L 26.522768 33.371233 
z
" style="fill: #ff0000"/>
   </g>
   <g id="matplotlib.axis_1"/>
   <g id="matplotlib.axis_2"/>
  </g>
 </g>
</svg>
