<?xml version="1.0" encoding="utf-8" standalone="no"?>
<!DOCTYPE svg PUBLIC "-//W3C//DTD SVG 1.1//EN"
  "http://www.w3.org/Graphics/SVG/1.1/DTD/svg11.dtd">
<svg xmlns:xlink="http://www.w3.org/1999/xlink" width="371.52pt" height="280.512pt" viewBox="0 0 371.52 280.512" xmlns="http://www.w3.org/2000/svg" version="1.1">
 <metadata>
  <rdf:RDF xmlns:dc="http://purl.org/dc/elements/1.1/" xmlns:cc="http://creativecommons.org/ns#" xmlns:rdf="http://www.w3.org/1999/02/22-rdf-syntax-ns#">
   <cc:Work>
    <dc:type rdf:resource="http://purl.org/dc/dcmitype/StillImage"/>
    <dc:date>2021-12-03T16:10:10.150915</dc:date>
    <dc:format>image/svg+xml</dc:format>
    <dc:creator>
     <cc:Agent>
      <dc:title>Matplotlib v3.5.0, https://matplotlib.org/</dc:title>
     </cc:Agent>
    </dc:creator>
   </cc:Work>
  </rdf:RDF>
 </metadata>
 <defs>
  <style type="text/css">*{stroke-linejoin: round; stroke-linecap: butt}</style>
 </defs>
 <g id="figure_1">
  <g id="patch_1">
   <path d="M 0 280.512 
L 371.52 280.512 
L 371.52 0 
L 0 0 
L 0 280.512 
z
" style="fill: none"/>
  </g>
  <g id="axes_1">
   <g id="patch_2">
    <path d="M 184.770413 19.296 
C 166.891343 19.296 149.233855 23.27062 133.079204 30.931456 
C 116.924554 38.592292 102.673162 49.749457 91.359132 63.593368 
C 80.045103 77.437279 71.948873 93.624792 67.65792 110.981314 
C 63.366966 128.337836 62.987647 146.433156 66.547486 163.954249 
C 70.107325 181.475342 77.518086 197.987916 88.242031 212.293794 
C 98.965977 226.599671 112.737296 238.344256 128.556719 246.675342 
C 144.376143 255.006427 161.851559 259.717514 179.714923 260.466757 
C 197.578287 261.216 215.386825 257.984829 231.848321 251.007701 
L 184.770413 139.934366 
L 184.770413 19.296 
z
" style="fill: #0000ff"/>
   </g>
   <g id="patch_3">
    <path d="M 231.848321 251.007701 
C 257.461962 240.151481 278.548445 220.762653 291.511389 196.148059 
C 304.474332 171.533465 308.532353 143.176828 302.99334 115.914482 
C 297.454327 88.652137 282.652161 64.127408 261.111411 46.523085 
C 239.57066 28.918761 212.589761 19.296 184.770413 19.296 
L 184.770413 139.934366 
L 231.848321 251.007701 
z
" style="fill: #bf00bf"/>
   </g>
   <g id="matplotlib.axis_1"/>
   <g id="matplotlib.axis_2"/>
  </g>
 </g>
</svg>
