<?xml version="1.0" encoding="utf-8" standalone="no"?>
<!DOCTYPE svg PUBLIC "-//W3C//DTD SVG 1.1//EN"
  "http://www.w3.org/Graphics/SVG/1.1/DTD/svg11.dtd">
<svg xmlns:xlink="http://www.w3.org/1999/xlink" width="371.52pt" height="280.512pt" viewBox="0 0 371.52 280.512" xmlns="http://www.w3.org/2000/svg" version="1.1">
 <metadata>
  <rdf:RDF xmlns:dc="http://purl.org/dc/elements/1.1/" xmlns:cc="http://creativecommons.org/ns#" xmlns:rdf="http://www.w3.org/1999/02/22-rdf-syntax-ns#">
   <cc:Work>
    <dc:type rdf:resource="http://purl.org/dc/dcmitype/StillImage"/>
    <dc:date>2021-12-03T16:10:11.125663</dc:date>
    <dc:format>image/svg+xml</dc:format>
    <dc:creator>
     <cc:Agent>
      <dc:title>Matplotlib v3.5.0, https://matplotlib.org/</dc:title>
     </cc:Agent>
    </dc:creator>
   </cc:Work>
  </rdf:RDF>
 </metadata>
 <defs>
  <style type="text/css">*{stroke-linejoin: round; stroke-linecap: butt}</style>
 </defs>
 <g id="figure_1">
  <g id="patch_1">
   <path d="M 0 280.512 
L 371.52 280.512 
L 371.52 0 
L 0 0 
L 0 280.512 
z
" style="fill: none"/>
  </g>
  <g id="axes_1">
   <g id="patch_2">
    <path d="M 185.071099 19.296006 
C 168.152231 19.296006 151.421517 22.859431 135.971035 29.753683 
C 120.520553 36.647935 106.693951 46.719672 95.393746 59.311473 
C 84.093541 71.903275 75.57107 86.735075 70.382628 102.838744 
C 65.194186 118.942414 63.455174 135.959776 65.279103 152.780043 
C 67.103033 169.60031 72.449336 185.849367 80.96904 200.466574 
C 89.488744 215.083781 100.992354 227.744025 114.728985 237.620921 
C 128.465615 247.497818 144.129737 254.371686 160.698894 257.793843 
C 177.26805 261.216 194.373711 261.11033 210.899324 257.48373 
L 185.071099 139.790228 
L 185.071099 19.296006 
z
" style="fill: #0000ff"/>
   </g>
   <g id="patch_3">
    <path d="M 210.899324 257.48373 
C 239.908418 251.117589 265.563872 234.245648 282.901796 210.132338 
C 300.239719 186.019027 308.064826 156.326732 304.863094 126.800401 
C 301.661361 97.27407 287.653518 69.949264 265.549841 50.112863 
C 243.446164 30.276463 214.770493 19.296 185.071077 19.296006 
L 185.071099 139.790228 
L 210.899324 257.48373 
z
" style="fill: #bf00bf"/>
   </g>
   <g id="matplotlib.axis_1"/>
   <g id="matplotlib.axis_2"/>
  </g>
 </g>
</svg>
