<?xml version="1.0" encoding="utf-8" standalone="no"?>
<!DOCTYPE svg PUBLIC "-//W3C//DTD SVG 1.1//EN"
  "http://www.w3.org/Graphics/SVG/1.1/DTD/svg11.dtd">
<svg xmlns:xlink="http://www.w3.org/1999/xlink" width="107.51625pt" height="106.9155pt" viewBox="0 0 107.51625 106.9155" xmlns="http://www.w3.org/2000/svg" version="1.1">
 <metadata>
  <rdf:RDF xmlns:dc="http://purl.org/dc/elements/1.1/" xmlns:cc="http://creativecommons.org/ns#" xmlns:rdf="http://www.w3.org/1999/02/22-rdf-syntax-ns#">
   <cc:Work>
    <dc:type rdf:resource="http://purl.org/dc/dcmitype/StillImage"/>
    <dc:date>2022-01-14T17:05:57.847091</dc:date>
    <dc:format>image/svg+xml</dc:format>
    <dc:creator>
     <cc:Agent>
      <dc:title>Matplotlib v3.5.1, https://matplotlib.org/</dc:title>
     </cc:Agent>
    </dc:creator>
   </cc:Work>
  </rdf:RDF>
 </metadata>
 <defs>
  <style type="text/css">*{stroke-linejoin: round; stroke-linecap: butt}</style>
 </defs>
 <g id="figure_1">
  <g id="patch_1">
   <path d="M 0 106.9155 
L 107.51625 106.9155 
L 107.51625 0 
L 0 0 
L 0 106.9155 
z
" style="fill: none"/>
  </g>
  <g id="axes_1">
   <g id="patch_2">
    <path d="M 53.51972 11.405252 
C 47.664671 11.405252 41.874736 12.644099 36.527846 15.040929 
C 31.180957 17.437758 26.396037 20.939261 22.485418 25.316879 
C 18.574798 29.694498 15.625459 34.850866 13.829915 40.449407 
C 12.03437 46.047948 11.432557 51.964141 12.063757 57.811812 
C 12.694958 63.659483 14.545133 69.308569 17.493514 74.390332 
C 20.441896 79.472096 24.422907 83.873509 29.17669 87.307273 
C 33.930474 90.741038 39.351298 93.130782 45.085323 94.320516 
C 50.819348 95.51025 56.739039 95.473513 62.457996 94.212703 
L 53.51972 53.295821 
L 53.51972 11.405252 
z
" style="fill: #0000ff; stroke: #000000; stroke-linejoin: miter"/>
   </g>
   <g id="patch_3">
    <path d="M 62.457996 94.212703 
C 72.497063 91.999474 81.375549 86.133839 87.375618 77.750696 
C 93.375688 69.367553 96.083693 59.044841 94.975682 48.779827 
C 93.86767 38.514813 89.020029 29.015174 81.370693 22.118925 
C 73.721357 15.222677 63.797676 11.40525 53.519712 11.405252 
L 53.51972 53.295821 
L 62.457996 94.212703 
z
" style="fill: #ff0000; stroke: #000000; stroke-linejoin: miter"/>
   </g>
   <g id="matplotlib.axis_1"/>
   <g id="matplotlib.axis_2"/>
  </g>
 </g>
</svg>
