<?xml version="1.0" encoding="utf-8" standalone="no"?>
<!DOCTYPE svg PUBLIC "-//W3C//DTD SVG 1.1//EN"
  "http://www.w3.org/Graphics/SVG/1.1/DTD/svg11.dtd">
<svg xmlns:xlink="http://www.w3.org/1999/xlink" width="32.7303pt" height="32.61204pt" viewBox="0 0 32.7303 32.61204" xmlns="http://www.w3.org/2000/svg" version="1.1">
 <metadata>
  <rdf:RDF xmlns:dc="http://purl.org/dc/elements/1.1/" xmlns:cc="http://creativecommons.org/ns#" xmlns:rdf="http://www.w3.org/1999/02/22-rdf-syntax-ns#">
   <cc:Work>
    <dc:type rdf:resource="http://purl.org/dc/dcmitype/StillImage"/>
    <dc:date>2022-01-14T17:05:58.743377</dc:date>
    <dc:format>image/svg+xml</dc:format>
    <dc:creator>
     <cc:Agent>
      <dc:title>Matplotlib v3.5.1, https://matplotlib.org/</dc:title>
     </cc:Agent>
    </dc:creator>
   </cc:Work>
  </rdf:RDF>
 </metadata>
 <defs>
  <style type="text/css">*{stroke-linejoin: round; stroke-linecap: butt}</style>
 </defs>
 <g id="figure_1">
  <g id="patch_1">
   <path d="M 0 32.61204 
L 32.7303 32.61204 
L 32.7303 0 
L 0 0 
L 0 32.61204 
z
" style="fill: none"/>
  </g>
  <g id="axes_1">
   <g id="patch_2">
    <path d="M 16.344417 8.02782 
C 15.229752 8.02782 14.1265 8.252394 13.101071 8.688023 
C 12.075643 9.123652 11.149035 9.761417 10.377028 10.562925 
C 9.60502 11.364433 9.00342 12.313274 8.608442 13.352329 
C 8.213464 14.391385 8.033195 15.499379 8.078488 16.609616 
C 8.123781 17.719852 8.393707 18.809596 8.872019 19.813249 
C 9.35033 20.816902 10.027233 21.713913 10.861979 22.450286 
C 11.696726 23.186658 12.672223 23.747313 13.729751 24.098501 
C 14.787278 24.44969 15.90518 24.58422 17.016165 24.493994 
L 16.344417 16.274523 
L 16.344417 8.02782 
z
" style="fill: #0000ff; stroke: #000000; stroke-linejoin: miter"/>
   </g>
   <g id="patch_3">
    <path d="M 17.016165 24.493994 
C 19.144251 24.321168 21.124719 23.333609 22.539694 21.739692 
C 23.95467 20.145775 24.697105 18.066084 24.610346 15.939431 
C 24.523588 13.812777 23.614201 11.80005 22.074063 10.32593 
C 20.533925 8.85181 18.479554 8.02782 16.344417 8.02782 
L 16.344417 16.274523 
L 17.016165 24.493994 
z
" style="fill: #ff0000; stroke: #000000; stroke-linejoin: miter"/>
   </g>
   <g id="matplotlib.axis_1"/>
   <g id="matplotlib.axis_2"/>
  </g>
 </g>
</svg>
